<?xml version="1.0" encoding="UTF-8" standalone="no"?>
<!DOCTYPE svg SYSTEM "http://www.w3.org/Graphics/SVG/1.1/DTD/svg11.dtd" [
<!ENTITY % SVG.External.attrib
"xmlns:vm2d CDATA #FIXED 'http://www.cortona3d.com/vm2d'
vm2d:name CDATA #IMPLIED
vm2d:type CDATA #IMPLIED">
]>
<svg xmlns="http://www.w3.org/2000/svg" xmlns:vm2d="http://www.cortona3d.com/vm2d" xmlns:xlink="http://www.w3.org/1999/xlink" version="1.1" width="170mm" height="222mm" viewBox="0 0 643 840" fill="none" fill-rule="evenodd" stroke-miterlimit="5">
  <title>ICN-SCOOTER-A-0100000-0-ECIAS-00000-A-005-01</title>
  <desc>"Generator:ParallelGraphics Cortona2D","ProfileId:WebCGM""ProfileEd:2.1""ColourClass:colour""Source:Cortona2D Editor Pro 14.2.0.142""Date:20250507""Grid:isometric"</desc>
  <rect width="643" height="840" fill="#fff"/>
  <defs/>
  <g id="C3DB0001" vm2d:name="Background" vm2d:type="layer"/>
  <g id="C3DG0001" vm2d:name="Drawing" vm2d:type="layer">
    <g transform="matrix(3.78235,0,0,3.78235,-0,839.841)" stroke-width="0.18" stroke-linecap="round" stroke-linejoin="round" stroke-miterlimit="10">
      <path stroke="#000" d="M110.11,-156.54 C110.11,-156.54 110.12,-156.54 110.12,-156.55 110.13,-156.56 110.13,-156.56 110.14,-156.57 110.14,-156.58 110.15,-156.59 110.15,-156.6 110.16,-156.62 110.18,-156.65 110.19,-156.68 110.2,-156.72 110.21,-156.77 110.21,-156.81 110.22,-156.9 110.21,-156.99 110.19,-157.08 110.16,-157.25 110.09,-157.42 110,-157.58 109.9,-157.74 109.78,-157.87 109.65,-157.97 109.57,-158.03 109.5,-158.07 109.42,-158.1 109.37,-158.11 109.32,-158.12 109.27,-158.13 109.25,-158.13 109.23,-158.13 109.21,-158.12 109.2,-158.12 109.19,-158.12 109.18,-158.12 109.17,-158.12 109.17,-158.12 109.16,-158.11 109.15,-158.11 109.14,-158.11 109.14,-158.11 M125.92,-147.41 C125.92,-147.41 125.92,-147.42 125.93,-147.42 125.93,-147.43 125.94,-147.44 125.94,-147.45 125.95,-147.45 125.95,-147.46 125.96,-147.47 125.97,-147.5 125.98,-147.53 125.99,-147.56 126,-147.6 126.01,-147.64 126.02,-147.69 126.02,-147.77 126.02,-147.86 126,-147.96 125.97,-148.12 125.9,-148.3 125.8,-148.46 125.7,-148.61 125.58,-148.75 125.45,-148.85 125.38,-148.9 125.3,-148.94 125.23,-148.97 125.17,-148.99 125.12,-149 125.07,-149 125.05,-149 125.03,-149 125.02,-149 125.01,-149 125,-149 124.99,-148.99 124.98,-148.99 124.97,-148.99 124.96,-148.99 124.95,-148.99 124.94,-148.98 124.94,-148.98 M107.28,-146.75 C106.34,-147.29 105.41,-147.82 104.47,-148.36 104.25,-148.37 104.03,-148.37 103.8,-148.38 103.58,-147.75 103.35,-147.12 103.13,-146.5 103.01,-146.18 102.85,-145.89 102.65,-145.64 102.55,-145.52 102.44,-145.42 102.32,-145.32 102.26,-145.28 102.2,-145.23 102.14,-145.19 102.11,-145.17 102.05,-145.14 102.05,-145.14 M114,-125.28 L114.76,-124.84 115.43,-124.82 118.99,-134.76 117.67,-135.52 M6.8255,-46.754 C6.8255,-46.754 57.491,-76.006 82.786,-90.61 83.507,-91.026 84.007,-91.553 84.228,-92.127 85.418,-95.217 86.61,-98.316 87.8,-101.41 87.897,-101.66 87.939,-101.92 87.924,-102.18 87.924,-102.21 87.924,-102.24 87.924,-102.26 M109.35,-157.99 C108.5,-158.48 107.66,-158.96 106.81,-159.45 106.46,-159.68 106.01,-159.74 105.52,-159.62 101.89,-158.78 98.252,-157.92 94.623,-157.07 93.629,-156.84 92.604,-156.46 91.569,-155.92 87.536,-153.85 83.625,-149.7 80.949,-144.66 76.182,-135.68 70.843,-122.19 68.159,-116.17 69.008,-115.68 69.851,-115.19 70.699,-114.7 78.203,-119.04 85.662,-123.34 93.167,-127.68 M82.33,-128.56 C82.892,-129.53 82.892,-130.59 82.33,-130.91 81.767,-131.24 80.855,-130.71 80.293,-129.73 79.73,-128.76 79.73,-127.71 80.293,-127.38 80.855,-127.06 81.767,-127.58 82.33,-128.56 Z M107.35,-153.36 C107.69,-153.72 107.93,-154.21 108,-154.66 108.08,-155.12 107.96,-155.48 107.7,-155.63 107.5,-155.75 107.22,-155.73 106.93,-155.56 106.47,-155.29 105.72,-154.96 105.29,-154.52 104.95,-154.16 104.71,-153.67 104.63,-153.21 104.56,-152.76 104.68,-152.39 104.94,-152.24 105.14,-152.12 105.42,-152.15 105.71,-152.32 106.17,-152.58 106.92,-152.91 107.35,-153.36 Z M98.134,-119.43 C98.697,-120.41 98.697,-121.46 98.134,-121.79 97.572,-122.11 96.66,-121.58 96.098,-120.61 95.535,-119.64 95.535,-118.58 96.098,-118.26 96.66,-117.93 97.572,-118.46 98.134,-119.43 Z M112.19,-146.27 C112.19,-146.27 112.37,-146.33 112.47,-146.35 112.63,-146.4 112.8,-146.44 112.97,-146.48 116.6,-147.33 120.24,-148.18 123.87,-149.03 124.36,-149.15 124.8,-149.09 125.15,-148.86 125.84,-148.42 126.1,-147.38 125.85,-146.12 125.6,-144.87 124.87,-143.56 123.92,-142.66 122.17,-141 119.47,-140.53 118.59,-138.09 116.49,-132.22 114.38,-126.33 112.28,-120.46 103.67,-115.49 95.112,-110.55 86.504,-105.58 85.655,-106.07 84.812,-106.56 83.964,-107.05 83.964,-107.05 91.856,-124.74 95.796,-133.57 96.091,-134.23 96.411,-134.89 96.754,-135.53 99.429,-140.57 103.34,-144.72 107.37,-146.8 108.41,-147.33 109.43,-147.72 110.43,-147.95 114.06,-148.8 117.7,-149.65 121.33,-150.5 121.82,-150.61 122.26,-150.55 122.61,-150.33 123.46,-149.84 124.3,-149.35 125.15,-148.86 M108.77,-125.98 C109.35,-126.98 109.35,-128.06 108.77,-128.4 108.2,-128.73 107.26,-128.19 106.68,-127.19 106.11,-126.19 106.11,-125.11 106.68,-124.78 107.26,-124.44 108.2,-124.98 108.77,-125.98 Z M90.058,-86.432 C90.058,-86.432 89.386,-85.413 89.031,-84.919 88.684,-84.435 88.33,-83.954 87.968,-83.48 87.358,-82.679 86.614,-81.764 85.961,-81.012 85.307,-80.26 84.821,-79.757 84.648,-79.656 84.578,-79.615 84.495,-79.582 84.413,-79.584 84.403,-79.585 84.396,-79.603 84.399,-79.614 84.405,-79.639 84.417,-79.663 84.429,-79.686 84.468,-79.762 84.512,-79.835 84.554,-79.91 84.631,-80.048 84.694,-80.194 84.743,-80.345 84.852,-80.676 84.907,-81.056 84.907,-81.47 84.907,-82.123 84.753,-83.023 85.45,-83.425 86.621,-84.102 87.796,-84.78 88.968,-85.456 88.968,-85.456 91.201,-87.455 91.201,-87.455 91.855,-88.532 92.863,-89.921 94.17,-91.547 102.7,-99.742 109.76,-108.42 115.23,-117.44 115.23,-117.88 115.23,-118.32 115.23,-118.76 114.24,-119.33 113.26,-119.89 112.28,-120.46 M111.16,-111.23 C111.16,-111.23 110.55,-110.12 110.23,-109.58 109.74,-108.76 109.24,-107.95 108.71,-107.15 108.19,-106.36 107.65,-105.58 107.09,-104.81 105.98,-103.28 104.81,-101.81 103.59,-100.43 102.99,-99.744 102.37,-99.071 101.74,-98.418 101.53,-98.207 101.34,-97.979 101.19,-97.729 101.02,-97.462 100.98,-97.268 101.06,-97.186 101.16,-97.078 101.47,-97.192 101.55,-97.208 100.92,-96.585 100.26,-95.977 99.6,-95.389 98.36,-94.673 97.127,-93.961 95.887,-93.245 M6.8255,-97.568 C18.486,-104.3 30.076,-110.99 41.736,-117.72 47.027,-120.89 52.819,-122.89 58.696,-124.67 60.186,-125.12 61.683,-125.56 63.179,-125.99 64.684,-126.42 66.197,-126.84 67.709,-127.25 69.229,-127.67 70.757,-128.07 72.283,-128.46 72.628,-128.55 73.209,-128.7 73.548,-128.78 M6.8255,-34.725 L84.648,-79.656 M39.034,-153.08 C38.759,-152.93 38.469,-152.83 38.155,-152.93 38.103,-152.95 38.05,-152.97 37.997,-152.98 M38.897,-155.1 L38.462,-154.79 37.866,-154.86 37.704,-155.23 38.139,-155.54 38.735,-155.48 38.897,-155.1 M37.367,-155.08 C37.425,-154.53 37.483,-153.99 37.541,-153.44 37.558,-153.24 37.729,-153.07 37.997,-152.98 38.322,-152.88 38.731,-152.92 39.034,-153.08 39.285,-153.22 39.425,-153.42 39.409,-153.62 39.35,-154.17 39.292,-154.71 39.234,-155.26 M147.24,-98.849 C147.25,-98.846 147.26,-98.844 147.27,-98.842 148.25,-98.684 148.56,-100.53 147.58,-100.69 147.56,-100.7 147.55,-100.7 147.54,-100.7 M146,-99.054 L147.27,-98.842 M147.58,-100.69 L146.3,-100.91 M71.162,-134.08 C71.214,-134.17 71.243,-134.27 71.242,-134.36 71.241,-134.45 71.209,-134.51 71.155,-134.54 71.101,-134.57 71.028,-134.56 70.953,-134.52 70.877,-134.47 70.806,-134.39 70.753,-134.3 70.644,-134.11 70.647,-133.9 70.76,-133.84 70.873,-133.78 71.053,-133.89 71.162,-134.08 Z M71.882,-134.9 C71.781,-134.96 71.68,-135.02 71.579,-135.08 71.575,-135.08 71.57,-135.08 71.566,-135.08 71.306,-135.13 71.046,-135.17 70.786,-135.21 70.721,-135.22 70.671,-135.12 70.647,-135.08 70.63,-135.06 70.613,-135.03 70.595,-135.01 70.578,-134.98 70.56,-134.96 70.542,-134.94 70.47,-134.84 70.394,-134.75 70.315,-134.67 70.117,-134.46 69.903,-134.3 69.69,-134.19 69.562,-134.13 69.436,-134.08 69.315,-134.06 69.255,-134.05 69.195,-134.04 69.138,-134.04 69.1,-134.04 69.063,-134.04 69.026,-134.05 69.008,-134.05 68.99,-134.05 68.973,-134.06 68.955,-134.06 68.921,-134.07 68.921,-134.07 M70.674,-134.05 C70.674,-134.05 70.683,-134.06 70.687,-134.06 70.696,-134.06 70.706,-134.07 70.714,-134.08 70.724,-134.09 70.733,-134.09 70.741,-134.1 70.75,-134.11 70.759,-134.12 70.767,-134.13 70.802,-134.17 70.833,-134.21 70.859,-134.26 70.878,-134.29 70.895,-134.33 70.907,-134.36 70.916,-134.39 70.923,-134.41 70.928,-134.43 70.93,-134.44 70.932,-134.46 70.934,-134.47 70.936,-134.48 70.937,-134.49 70.938,-134.5 70.938,-134.5 70.938,-134.51 70.938,-134.51 M71.687,-134.46 C71.584,-134.3 71.475,-134.14 71.36,-134 71.215,-133.81 70.979,-133.43 70.696,-133.42 70.179,-133.4 69.661,-133.39 69.144,-133.38 68.968,-133.37 68.806,-133.41 68.665,-133.48 68.246,-133.7 68.041,-134.25 68.111,-134.95 68.181,-135.66 68.519,-136.44 69.021,-137.06 69.509,-137.67 70.098,-138.06 70.62,-138.12 70.801,-138.14 70.97,-138.12 71.12,-138.06 71.557,-137.88 71.997,-137.71 72.434,-137.54 72.444,-137.53 72.454,-137.53 72.463,-137.52 72.623,-137.43 72.575,-137.14 72.567,-136.99 72.557,-136.78 72.527,-136.56 72.478,-136.33 72.466,-136.27 72.452,-136.21 72.438,-136.16 72.423,-136.1 72.408,-136.04 72.391,-135.99 72.383,-135.96 72.365,-135.93 72.344,-135.91 72.322,-135.89 72.299,-135.88 72.28,-135.88 72.02,-135.92 71.76,-135.97 71.5,-136.01 71.494,-136.01 71.487,-136.01 71.482,-136.02 71.445,-136.05 71.478,-136.14 71.484,-136.17 71.488,-136.2 71.493,-136.22 71.496,-136.25 71.504,-136.3 71.51,-136.35 71.514,-136.4 71.525,-136.56 71.52,-136.7 71.497,-136.84 71.445,-137.15 71.301,-137.38 71.087,-137.5 70.718,-137.7 70.185,-137.55 69.689,-137.1 69.193,-136.65 68.809,-135.98 68.683,-135.33 68.556,-134.68 68.707,-134.15 69.077,-133.95 69.47,-133.74 70.043,-133.93 70.558,-134.43 70.659,-134.53 70.755,-134.64 70.845,-134.76 70.863,-134.78 70.881,-134.81 70.898,-134.83 70.916,-134.86 70.933,-134.88 70.95,-134.9 70.975,-134.94 71.025,-135.05 71.09,-135.04 71.349,-134.99 71.61,-134.95 71.869,-134.91 71.874,-134.91 71.878,-134.9 71.882,-134.9 71.911,-134.89 71.911,-134.83 71.883,-134.78 71.852,-134.73 71.82,-134.67 71.788,-134.62 71.755,-134.56 71.722,-134.51 71.687,-134.46 Z M72.463,-137.52 C72.362,-137.58 72.261,-137.64 72.16,-137.7 72.151,-137.7 72.141,-137.71 72.131,-137.71 71.693,-137.89 71.254,-138.06 70.817,-138.23 70.667,-138.29 70.498,-138.31 70.317,-138.29 69.795,-138.23 69.206,-137.84 68.718,-137.24 68.215,-136.62 67.878,-135.83 67.808,-135.13 67.738,-134.42 67.943,-133.88 68.362,-133.66 68.463,-133.6 68.564,-133.54 68.665,-133.48 M71.77,-136.65 C71.77,-136.65 71.779,-136.65 71.783,-136.65 71.792,-136.66 71.801,-136.67 71.81,-136.68 71.829,-136.69 71.846,-136.71 71.863,-136.73 71.898,-136.76 71.929,-136.81 71.955,-136.85 71.974,-136.89 71.99,-136.92 72.003,-136.96 72.012,-136.98 72.019,-137.01 72.024,-137.03 72.026,-137.04 72.028,-137.05 72.03,-137.06 72.032,-137.08 72.033,-137.09 72.034,-137.1 72.034,-137.1 72.034,-137.1 72.034,-137.1 M72.258,-136.68 C72.367,-136.87 72.364,-137.08 72.251,-137.14 72.138,-137.2 71.958,-137.09 71.849,-136.9 71.797,-136.8 71.768,-136.7 71.769,-136.62 71.77,-136.53 71.802,-136.47 71.856,-136.44 71.91,-136.41 71.983,-136.42 72.058,-136.46 72.134,-136.51 72.205,-136.58 72.258,-136.68 Z M71.482,-136.02 C71.381,-136.08 71.28,-136.13 71.179,-136.19 71.142,-136.22 71.175,-136.31 71.18,-136.34 71.185,-136.37 71.189,-136.4 71.193,-136.42 71.197,-136.45 71.2,-136.48 71.203,-136.5 71.218,-136.63 71.22,-136.76 71.211,-136.87 71.2,-137.01 71.172,-137.14 71.128,-137.26 71.105,-137.31 71.079,-137.37 71.05,-137.41 71.03,-137.45 71.008,-137.48 70.985,-137.5 70.974,-137.52 70.962,-137.53 70.949,-137.54 70.944,-137.55 70.934,-137.56 70.934,-137.56 M21.63,-109.75 C21.6,-110.03 21.571,-110.3 21.542,-110.57 21.513,-110.84 21.484,-111.12 21.455,-111.39 21.431,-111.61 21.347,-111.79 21.212,-111.89 20.986,-112.07 20.641,-112.03 20.294,-111.78 19.947,-111.53 19.644,-111.11 19.488,-110.66 19.303,-110.12 19.415,-109.65 19.48,-109.1 19.496,-108.96 19.512,-108.83 19.528,-108.7 19.543,-108.56 19.559,-108.43 19.575,-108.29 19.107,-107.92 18.625,-107.8 18.272,-107.96 17.879,-108.15 17.698,-108.72 17.781,-109.51 17.865,-110.3 18.204,-111.22 18.698,-111.99 19.77,-113.67 21.368,-114.49 22.34,-113.88 22.558,-113.74 22.733,-113.53 22.858,-113.27 30.665,-118.82 38.425,-124.34 46.232,-129.89 46.406,-131.14 47.123,-132.48 48.084,-133.37 49.045,-134.25 50.087,-134.53 50.775,-134.09 51.464,-133.64 51.681,-132.55 51.337,-131.26 50.993,-129.97 50.147,-128.71 49.15,-128 40.406,-121.79 31.635,-115.55 22.89,-109.33 22.547,-109.53 22.207,-109.72 21.864,-109.92 M22.89,-109.33 L22.759,-110.56 21.63,-109.75 19.6,-110.92 M50.775,-134.09 C47.231,-136.13 43.707,-138.17 40.163,-140.21 39.474,-140.66 38.433,-140.38 37.472,-139.49 36.51,-138.61 35.793,-137.26 35.619,-136.02 27.892,-130.53 20.212,-125.06 12.485,-119.57 M18.272,-107.96 C14.728,-110.01 11.204,-112.05 7.6598,-114.09 7.2669,-114.28 7.0854,-114.85 7.169,-115.64 7.2527,-116.43 7.5919,-117.35 8.0861,-118.12 9.1575,-119.79 10.756,-120.62 11.727,-120 15.272,-117.96 18.795,-115.92 22.34,-113.88"/>
      <path stroke="#000" d="M117.99,-107.97 C119.1,-109.9 119.02,-112.03 117.79,-112.74 116.57,-113.44 114.68,-112.45 113.57,-110.52 112.45,-108.6 112.54,-106.46 113.76,-105.76 114.99,-105.05 116.88,-106.04 117.99,-107.97 Z"/>
      <path stroke="#000" d="M113.98,-107.09 C113.98,-107.09 113.95,-107.15 113.94,-107.18 113.93,-107.22 113.92,-107.25 113.91,-107.28 113.91,-107.31 113.9,-107.36 113.9,-107.36 113.9,-107.35 113.88,-107.43 113.88,-107.46 113.87,-107.5 113.87,-107.54 113.86,-107.58 113.86,-107.6 113.86,-107.66 113.86,-107.66 113.86,-107.66 113.85,-107.74 113.85,-107.78 113.85,-107.82 113.85,-107.87 113.85,-107.91 113.85,-107.95 113.86,-107.99 113.86,-108.04 113.86,-108.07 113.87,-108.14 113.87,-108.14 113.87,-108.14 113.88,-108.23 113.88,-108.27 113.89,-108.32 113.9,-108.36 113.91,-108.41 113.92,-108.5 113.94,-108.59 113.97,-108.69 113.98,-108.73 113.99,-108.78 114,-108.83 114.02,-108.87 114.03,-108.92 114.05,-108.97 114.06,-109.01 114.09,-109.1 114.09,-109.1 114.09,-109.1 114.12,-109.19 114.14,-109.24 114.16,-109.29 114.18,-109.33 114.2,-109.38 114.22,-109.43 114.24,-109.48 114.26,-109.52 114.33,-109.66 114.4,-109.8 114.47,-109.94 114.55,-110.08 114.63,-110.21 114.72,-110.34 114.75,-110.38 114.78,-110.42 114.81,-110.46 114.84,-110.5 114.87,-110.55 114.9,-110.59 114.93,-110.63 114.97,-110.67 115,-110.71 115.03,-110.75 115.1,-110.82 115.1,-110.82 115.09,-110.81 115.15,-110.89 115.19,-110.92 115.25,-110.99 115.32,-111.06 115.39,-111.13 115.46,-111.19 115.53,-111.26 115.6,-111.32 115.64,-111.34 115.67,-111.37 115.71,-111.4 115.74,-111.43 115.82,-111.48 115.82,-111.48 115.81,-111.47 115.87,-111.52 115.9,-111.54 115.94,-111.56 115.97,-111.58 116.01,-111.61 116.05,-111.63 116.08,-111.65 116.12,-111.67 116.15,-111.69 116.23,-111.72 116.22,-111.72 116.22,-111.72 116.27,-111.74 116.3,-111.76 116.34,-111.77 116.37,-111.79 116.41,-111.8 116.44,-111.81 116.51,-111.83 116.51,-111.83 M114.05,-106.95 C114.05,-106.95 114.02,-107.01 114,-107.04 113.99,-107.06 113.97,-107.12 113.97,-107.12 M114.16,-106.81 C114.16,-106.81 114.12,-106.85 114.11,-106.87 114.09,-106.88 114.08,-106.91 114.08,-106.91 114.06,-106.93 114.05,-106.96 114.03,-106.98 M114.26,-106.72 C114.26,-106.72 114.21,-106.76 114.19,-106.78 114.18,-106.79 114.15,-106.82 114.15,-106.82 M114.29,-106.7 L114.23,-106.75 M114.45,-106.63 C114.45,-106.63 114.39,-106.65 114.37,-106.66 114.35,-106.67 114.32,-106.68 114.33,-106.68 114.31,-106.69 114.29,-106.7 114.27,-106.71 M114.62,-106.6 C114.62,-106.6 114.56,-106.61 114.53,-106.61 114.51,-106.62 114.48,-106.63 114.49,-106.62 114.46,-106.63 114.44,-106.64 114.42,-106.64 M114.76,-106.6 C114.76,-106.6 114.7,-106.6 114.67,-106.6 114.64,-106.6 114.59,-106.61 114.59,-106.61 M114.92,-106.63 C114.92,-106.63 114.85,-106.62 114.82,-106.61 114.79,-106.61 114.73,-106.6 114.73,-106.6 M115.08,-106.67 C115.08,-106.67 115.01,-106.65 114.98,-106.64 114.95,-106.63 114.88,-106.62 114.88,-106.62 M115.36,-106.79 C115.36,-106.79 115.29,-106.75 115.26,-106.74 115.22,-106.72 115.19,-106.71 115.15,-106.7 115.12,-106.68 115.06,-106.67 115.06,-106.67 M115.76,-107.03 C115.76,-107.03 115.69,-106.98 115.65,-106.96 115.62,-106.93 115.58,-106.91 115.55,-106.89 115.51,-106.87 115.48,-106.85 115.44,-106.83 115.41,-106.81 115.34,-106.78 115.34,-106.78 M117.69,-110.35 C117.69,-110.35 117.68,-110.26 117.67,-110.22 117.67,-110.17 117.66,-110.13 117.65,-110.08 117.63,-109.99 117.61,-109.9 117.59,-109.81 117.58,-109.76 117.57,-109.71 117.55,-109.67 117.54,-109.62 117.53,-109.57 117.51,-109.53 117.5,-109.48 117.46,-109.39 117.47,-109.39 117.47,-109.39 117.43,-109.3 117.42,-109.26 117.4,-109.21 117.38,-109.16 117.36,-109.11 117.34,-109.07 117.32,-109.02 117.3,-108.97 117.23,-108.83 117.16,-108.69 117.08,-108.55 117.01,-108.42 116.92,-108.29 116.84,-108.16 116.81,-108.11 116.78,-108.07 116.75,-108.03 116.72,-107.99 116.69,-107.95 116.65,-107.91 116.62,-107.87 116.59,-107.83 116.56,-107.79 116.53,-107.75 116.47,-107.68 116.47,-107.68 116.47,-107.68 116.4,-107.61 116.37,-107.57 116.3,-107.5 116.24,-107.43 116.17,-107.37 116.1,-107.3 116.03,-107.24 115.96,-107.18 115.92,-107.15 115.88,-107.12 115.85,-107.09 115.82,-107.07 115.75,-107.02 115.75,-107.02 M117.14,-111.85 C117.14,-111.85 117.17,-111.84 117.19,-111.83 117.22,-111.82 117.27,-111.79 117.27,-111.79 M117.08,-111.87 L117.15,-111.85 M116.96,-111.89 C116.96,-111.89 117.01,-111.88 117.03,-111.88 117.06,-111.87 117.11,-111.86 117.11,-111.86 M116.5,-111.83 C116.5,-111.83 116.55,-111.84 116.58,-111.85 116.61,-111.86 116.68,-111.87 116.68,-111.87 116.68,-111.87 116.72,-111.88 116.74,-111.88 116.77,-111.89 116.84,-111.89 116.83,-111.89 116.83,-111.89 116.87,-111.89 116.89,-111.89 116.92,-111.89 116.98,-111.89 116.98,-111.89 M117.66,-111.14 C117.66,-111.14 117.67,-111.07 117.68,-111.03 117.69,-110.99 117.69,-110.96 117.69,-110.92 117.7,-110.88 117.7,-110.8 117.7,-110.8 M117.7,-110.83 C117.7,-110.83 117.71,-110.75 117.71,-110.71 117.71,-110.67 117.71,-110.63 117.71,-110.59 117.7,-110.54 117.7,-110.5 117.7,-110.46 117.7,-110.41 117.69,-110.33 117.69,-110.33 M117.41,-111.67 C117.41,-111.67 117.44,-111.64 117.45,-111.62 117.47,-111.6 117.5,-111.55 117.5,-111.55 M117.48,-111.58 C117.5,-111.56 117.51,-111.53 117.53,-111.5 117.52,-111.51 117.54,-111.48 117.55,-111.46 117.57,-111.43 117.59,-111.37 117.59,-111.38 117.59,-111.38 117.61,-111.33 117.61,-111.31 117.62,-111.28 117.63,-111.24 117.64,-111.21 117.65,-111.17 117.67,-111.11 117.67,-111.11 M117.23,-111.81 L117.3,-111.77 M117.28,-111.78 C117.3,-111.77 117.32,-111.76 117.33,-111.75 117.33,-111.75 117.35,-111.73 117.36,-111.72 117.39,-111.7 117.42,-111.66 117.42,-111.66 M138.88,-126.54 C138.47,-125.36 137.93,-124.19 137.27,-123.08 133.8,-118.1 129.58,-111.81 130.32,-105.37 130.45,-104.62 130.61,-103.94 130.5,-103.19 130.4,-102.52 130.14,-101.8 129.75,-101.14 129.25,-100.27 128.56,-99.564 127.85,-99.167 127.15,-98.77 126.47,-98.719 125.98,-99.025 125.13,-99.557 125,-101.05 125.66,-102.62 127.03,-105.87 128.41,-109.13 129.78,-112.38 131.01,-115.3 133.48,-119.54 136.13,-123.27 136.91,-124.41 137.55,-125.66 137.98,-126.93 138.23,-127.64 138.41,-128.34 138.52,-129.02 138.54,-129.15 138.56,-129.29 138.58,-129.42 138.6,-129.6 138.59,-129.83 138.67,-130.01 138.74,-130.17 138.88,-130.33 139.04,-130.43 139.21,-130.53 139.38,-130.56 139.49,-130.51 139.81,-130.36 139.67,-129.82 139.64,-129.58 139.62,-129.44 139.59,-129.3 139.57,-129.16 139.54,-129.01 139.52,-128.87 139.49,-128.73 139.34,-128.01 139.14,-127.27 138.88,-126.54 Z M128.98,-101.66 C129.57,-102.7 129.55,-103.79 128.95,-104.12 128.35,-104.44 127.39,-103.87 126.8,-102.84 126.22,-101.81 126.24,-100.71 126.84,-100.39 127.13,-100.23 127.52,-100.28 127.92,-100.52 128.32,-100.76 128.7,-101.17 128.98,-101.66 Z M139.49,-130.51 C138.22,-131.24 136.97,-131.97 135.7,-132.7 135.59,-132.75 135.42,-132.72 135.25,-132.62 135.09,-132.52 134.95,-132.36 134.88,-132.19 134.8,-132.02 134.81,-131.78 134.79,-131.61 134.77,-131.47 134.75,-131.34 134.73,-131.2 134.62,-130.52 134.44,-129.82 134.19,-129.12 133.76,-127.85 133.12,-126.6 132.34,-125.46 129.69,-121.72 127.22,-117.48 125.99,-114.56 124.62,-111.32 123.24,-108.06 121.87,-104.81 121.21,-103.23 121.34,-101.75 122.19,-101.21 123.46,-100.48 124.71,-99.756 125.98,-99.025 M127.8,-103.72 C127.8,-103.72 127.76,-103.68 127.74,-103.66 127.71,-103.61 127.67,-103.57 127.65,-103.52 127.61,-103.47 127.59,-103.41 127.56,-103.36 127.52,-103.24 127.48,-103.12 127.47,-103 127.45,-102.88 127.45,-102.76 127.47,-102.65 127.48,-102.59 127.49,-102.54 127.51,-102.49 127.53,-102.44 127.58,-102.35 127.58,-102.35 M126.62,-102.46 C126.62,-102.46 126.65,-102.42 126.67,-102.4 126.7,-102.36 126.74,-102.33 126.78,-102.3 126.83,-102.28 126.88,-102.26 126.93,-102.24 127.12,-102.19 127.33,-102.22 127.52,-102.31 127.71,-102.41 127.86,-102.57 127.94,-102.75 128.01,-102.92 128.02,-103.11 127.98,-103.3 127.96,-103.42 127.92,-103.53 127.85,-103.64 127.82,-103.69 127.79,-103.74 127.75,-103.79 127.73,-103.82 127.68,-103.86 127.68,-103.86 M109.75,-147.68 L113.54,-145.49 113.43,-145.51 109.64,-147.69 109.75,-147.68 M162.01,-86.177 C161.63,-86.396 161.25,-86.614 160.87,-86.834 159.99,-87.308 158.59,-86.471 157.73,-84.963 156.88,-83.456 156.91,-81.848 157.79,-81.373 158.17,-81.154 158.54,-80.936 158.92,-80.717 M134.58,-96.061 C134.52,-96.079 134.46,-96.106 134.41,-96.142 134.05,-96.37 133.92,-96.918 134.07,-97.577 134.22,-98.237 134.63,-98.906 135.13,-99.329 135.64,-99.752 136.17,-99.865 136.52,-99.624 144.08,-95.258 151.59,-90.918 159.16,-86.553 M134.41,-96.142 L157.12,-83.028 M103.8,-148.38 L106.94,-146.57 M117.56,-135.21 L118.32,-134.77 M118.99,-134.76 L118.32,-134.77 114.76,-124.84 M6.8255,-46.842 C6.8255,-46.842 57.491,-76.094 82.786,-90.698 83.507,-91.114 84.007,-91.64 84.228,-92.215 85.418,-95.304 86.61,-98.403 87.8,-101.49 87.897,-101.75 87.939,-102 87.924,-102.26 87.88,-103.05 87.32,-103.8 86.357,-104.35 79.539,-108.29 72.701,-112.24 65.882,-116.17 64.587,-116.92 62.718,-117.24 60.93,-117.01 55.578,-116.32 50.211,-115.63 44.859,-114.94 43.864,-114.82 42.952,-114.53 42.232,-114.11 30.441,-107.3 6.8255,-93.67 6.8255,-93.67 M42.232,-114.02 L42.232,-114.11 M70.699,-114.7 C73.382,-120.72 78.721,-134.21 83.489,-143.19 86.164,-148.23 90.075,-152.38 94.108,-154.46 95.143,-154.99 96.169,-155.38 97.162,-155.61 100.79,-156.46 104.43,-157.31 108.06,-158.16 108.55,-158.27 109,-158.21 109.35,-157.99 109.91,-157.62 110.19,-156.86 110.13,-155.88 110.07,-154.9 109.66,-153.8 109.01,-152.84 107.89,-151.18 106.05,-150.36 104.38,-149.31 103.71,-148.88 103.1,-148.09 102.79,-147.22 102.08,-145.24 100.66,-141.28 100.66,-141.28 M92.969,-135.11 C93.546,-136.11 93.546,-137.19 92.969,-137.52 92.391,-137.86 91.456,-137.31 90.878,-136.31 90.301,-135.32 90.301,-134.23 90.878,-133.9 91.456,-133.57 92.391,-134.11 92.969,-135.11 Z M106.23,-155.16 C106.23,-155.16 106.24,-155.15 106.24,-155.15 106.26,-155.1 106.28,-155.04 106.31,-154.99 106.37,-154.9 106.44,-154.82 106.53,-154.76 106.7,-154.66 106.92,-154.67 107.12,-154.78 107.25,-154.86 107.35,-154.98 107.4,-155.12 107.42,-155.22 107.43,-155.32 107.4,-155.43 107.38,-155.48 107.36,-155.53 107.34,-155.58 107.32,-155.62 107.27,-155.69 107.27,-155.69 M86.504,-105.58 C86.504,-105.58 94.395,-123.27 98.335,-132.1 99.721,-135.21 101.63,-138.14 103.86,-140.56 105.12,-141.93 106.47,-143.12 107.84,-144.08 108.53,-144.56 109.22,-144.98 109.91,-145.33 110.26,-145.51 110.6,-145.67 110.94,-145.82 111.11,-145.89 111.28,-145.96 111.46,-146.02 111.62,-146.08 111.79,-146.14 111.96,-146.2 112.02,-146.22 112.14,-146.25 112.14,-146.25 M123.15,-144.23 C123.49,-144.59 123.74,-145.08 123.81,-145.54 123.88,-145.99 123.77,-146.36 123.51,-146.51 123.3,-146.63 123.02,-146.6 122.73,-146.43 122.27,-146.17 121.52,-145.84 121.1,-145.39 120.76,-145.03 120.51,-144.55 120.44,-144.09 120.37,-143.63 120.48,-143.27 120.74,-143.12 120.95,-143 121.23,-143.02 121.52,-143.19 121.97,-143.46 122.73,-143.79 123.15,-144.23 Z M122.04,-146.03 C122.04,-146.03 122.04,-146.03 122.04,-146.02 122.06,-145.97 122.09,-145.92 122.12,-145.87 122.17,-145.77 122.24,-145.69 122.34,-145.64 122.5,-145.54 122.73,-145.55 122.92,-145.66 123.06,-145.73 123.16,-145.86 123.2,-146 123.23,-146.09 123.23,-146.2 123.2,-146.3 123.19,-146.35 123.17,-146.41 123.14,-146.46 123.12,-146.49 123.07,-146.56 123.07,-146.56 M115.23,-118.76 C107.83,-106.56 96.133,-97.592 88.968,-85.456 M84.83,-80.715 C84.83,-80.715 84.879,-80.719 84.9,-80.73 85.125,-80.851 86.11,-81.932 87.103,-83.147 87.689,-83.863 88.79,-85.354 88.79,-85.354 M101.55,-97.208 L97.538,-94.893 M38.735,-155.48 L38.783,-155.02 M38.139,-155.54 L38.216,-154.82 M39.234,-155.26 C39.221,-155.42 39.11,-155.56 38.926,-155.65 38.742,-155.75 38.499,-155.79 38.251,-155.77 38.004,-155.74 37.771,-155.66 37.606,-155.53 37.44,-155.4 37.354,-155.24 37.367,-155.08 37.38,-154.92 37.491,-154.78 37.675,-154.68 37.859,-154.59 38.102,-154.55 38.349,-154.57 38.865,-154.62 39.261,-154.93 39.234,-155.26 Z"/>
      <path stroke="#000" d="M146.52,-99.919 C146.58,-100.29 146.39,-100.62 146.1,-100.67 145.81,-100.72 145.52,-100.46 145.46,-100.1 145.4,-99.73 145.59,-99.393 145.88,-99.344 146.17,-99.295 146.46,-99.553 146.52,-99.919 Z"/>
      <path stroke="#000" d="M146,-99.055 C146.26,-99.012 146.54,-99.149 146.71,-99.414 146.89,-99.679 146.95,-100.03 146.87,-100.34 146.78,-100.65 146.57,-100.86 146.3,-100.91 145.89,-100.97 145.5,-100.61 145.41,-100.1 145.33,-99.588 145.59,-99.12 146,-99.055 Z M49.935,-130.28 C50.517,-131.32 50.5,-132.41 49.898,-132.74 49.296,-133.06 48.336,-132.49 47.754,-131.46 47.173,-130.43 47.189,-129.33 47.791,-129 48.394,-128.68 49.353,-129.25 49.935,-130.28 Z M39.081,-138.56 C39.089,-138.16 39.495,-137.93 40.019,-138.01 40.254,-138.05 40.49,-138.15 40.668,-138.27 40.846,-138.4 40.949,-138.55 40.951,-138.68 40.953,-138.81 40.851,-138.94 40.672,-139.04 40.493,-139.15 40.253,-139.21 40.012,-139.22 39.477,-139.24 39.074,-138.95 39.081,-138.56 Z M35.619,-136.02 L46.232,-129.89 M45.524,-134.84 C45.532,-134.44 45.938,-134.21 46.462,-134.29 46.696,-134.33 46.933,-134.43 47.111,-134.55 47.289,-134.68 47.392,-134.83 47.394,-134.96 47.396,-135.09 47.295,-135.22 47.116,-135.32 46.936,-135.43 46.697,-135.49 46.456,-135.5 45.92,-135.52 45.517,-135.23 45.524,-134.84 Z M132.34,-125.46 L136.13,-123.27 M158.92,-80.717 C159.8,-80.242 161.21,-81.079 162.06,-82.587 162.91,-84.095 162.89,-85.702 162.01,-86.177 161.13,-86.652 159.72,-85.815 158.87,-84.307 158.02,-82.799 158.04,-81.192 158.92,-80.717 Z"/>
    </g>
  </g>
  <g id="C3DA0001" vm2d:name="Axials" vm2d:type="layer">
    <g id="WRAP_001" vm2d:name="" vm2d:type="grnode">
      <g transform="matrix(3.78235,0,0,3.78235,-0,839.841)" stroke-width="0.55" stroke-linecap="round" stroke-linejoin="round" stroke-miterlimit="10">
        <path stroke="#fff" d="M70.272,-135.63 L74.932,-132.95"/>
        <path stroke="#000" stroke-width="0.15" stroke-dasharray="6.35,0.635,1.27,0.635" d="M69.925,-135.83 L75.279,-132.75"/>
      </g>
    </g>
    <g id="WRAP_002" vm2d:name="" vm2d:type="grnode">
      <g transform="matrix(3.78235,0,0,3.78235,-0,839.841)" stroke-width="0.55" stroke-linecap="round" stroke-linejoin="round" stroke-miterlimit="10">
        <path stroke="#fff" d="M80.699,-129.64 L83.621,-127.95 59.639,-133.31 49.661,-139.07 25.452,-144.49 36.056,-138.36"/>
        <path stroke="#000" stroke-width="0.15" stroke-dasharray="6.35,0.635,1.27,0.635" d="M80.353,-129.83 L83.621,-127.95 59.639,-133.31 49.661,-139.07 25.452,-144.49 36.402,-138.16"/>
      </g>
    </g>
    <g id="WRAP_003" vm2d:name="" vm2d:type="grnode">
      <g transform="matrix(3.78235,0,0,3.78235,-0,839.841)" stroke-width="0.55" stroke-linecap="round" stroke-linejoin="round" stroke-miterlimit="10">
        <path stroke="#fff" d="M48.163,-131.36 L53.534,-128.26 77.735,-122.86 66.109,-129.57 90.033,-124.22 90.954,-123.69"/>
        <path stroke="#000" stroke-width="0.15" stroke-dasharray="6.35,0.635,1.27,0.635" d="M47.817,-131.56 L53.534,-128.26 77.735,-122.86 66.109,-129.57 90.033,-124.22 91.301,-123.49"/>
      </g>
    </g>
    <g id="WRAP_004" vm2d:name="" vm2d:type="grnode">
      <g transform="matrix(3.78235,0,0,3.78235,-0,839.841)" stroke-width="0.55" stroke-linecap="round" stroke-linejoin="round" stroke-miterlimit="10">
        <path stroke="#fff" d="M127.22,-102.76 L134.13,-98.767"/>
        <path stroke="#000" stroke-width="0.15" stroke-dasharray="6.35,0.635,1.27,0.635" d="M126.87,-102.96 L134.47,-98.567"/>
      </g>
    </g>
    <g id="WRAP_005" vm2d:name="" vm2d:type="grnode">
      <g transform="matrix(3.78235,0,0,3.78235,-0,839.841)" stroke-width="0.55" stroke-linecap="round" stroke-linejoin="round" stroke-miterlimit="10">
        <path stroke="#fff" d="M114.9,-109.87 L121.88,-105.84"/>
        <path stroke="#000" stroke-width="0.15" stroke-dasharray="6.35,0.635,1.27,0.635" d="M114.55,-110.07 L122.22,-105.64"/>
      </g>
    </g>
    <g id="WRAP_006" vm2d:name="" vm2d:type="grnode">
      <g transform="matrix(3.78235,0,0,3.78235,-0,839.841)" stroke-width="0.55" stroke-linecap="round" stroke-linejoin="round" stroke-miterlimit="10">
        <path stroke="#fff" d="M96.494,-120.49 L113.27,-110.81"/>
        <path stroke="#000" stroke-width="0.15" stroke-dasharray="6.35,0.635,1.27,0.635" d="M96.148,-120.69 L113.62,-110.61"/>
      </g>
    </g>
    <g id="WRAP_007" vm2d:name="" vm2d:type="grnode">
      <g transform="matrix(3.78235,0,0,3.78235,-0,839.841)" stroke-width="0.55" stroke-linecap="round" stroke-linejoin="round" stroke-miterlimit="10">
        <path stroke="#fff" d="M40.001,-138.43 L38.601,-152.45"/>
        <path stroke="#000" stroke-width="0.15" stroke-dasharray="6.35,0.635,1.27,0.635" d="M40.041,-138.04 L38.561,-152.85"/>
      </g>
    </g>
    <g id="WRAP_008" vm2d:name="" vm2d:type="grnode">
      <g transform="matrix(3.78235,0,0,3.78235,-0,839.841)" stroke-width="0.55" stroke-linecap="round" stroke-linejoin="round" stroke-miterlimit="10">
        <path stroke="#fff" d="M127.61,-103.07 L127.45,-103.1"/>
        <path stroke="#000" stroke-width="0.15" stroke-dasharray="6.35,0.635,1.27,0.635" d="M128,-103.01 L127.06,-103.16"/>
      </g>
    </g>
    <g id="WRAP_009" vm2d:name="" vm2d:type="grnode">
      <g transform="matrix(3.78235,0,0,3.78235,-0,839.841)" stroke-width="0.55" stroke-linecap="round" stroke-linejoin="round" stroke-miterlimit="10">
        <path stroke="#fff" d="M145.56,-100.09 L130.77,-102.55"/>
        <path stroke="#000" stroke-width="0.15" stroke-dasharray="6.35,0.635,1.27,0.635" d="M145.96,-100.03 L130.38,-102.61"/>
      </g>
    </g>
  </g>
  <g id="C3DC0001" vm2d:name="Callouts" vm2d:type="layer">
    <g>
      <g transform="matrix(3.78235,0,0,3.78235,-0,839.841)" stroke-width="0.85" stroke-linecap="round" stroke-linejoin="miter" stroke-miterlimit="10">
        <path stroke="#fff" d="M124.41,-76.529 L147.2,-89.857"/>
        <path stroke="#fff" stroke-width="0.7" stroke-linecap="butt" stroke-linejoin="round" d="M147.67,-89.857 C147.67,-89.598 147.46,-89.387 147.2,-89.387 146.94,-89.387 146.73,-89.598 146.73,-89.857 146.73,-90.117 146.94,-90.327 147.2,-90.327 147.46,-90.327 147.67,-90.117 147.67,-89.857 Z"/>
        <path stroke="#000" stroke-width="0.15" d="M124.41,-76.529 L147.2,-89.857"/>
        <path fill="#000" d="M147.67,-89.857 C147.67,-89.598 147.46,-89.387 147.2,-89.387 146.94,-89.387 146.73,-89.598 146.73,-89.857 146.73,-90.117 146.94,-90.327 147.2,-90.327 147.46,-90.327 147.67,-90.117 147.67,-89.857 Z"/>
        <text font-family="Arial" font-size="3.93" x="117.256" y="-73.1513" fill="#000">115</text>
      </g>
    </g>
    <a id="_3fd0530d9148707961d36282663ef0ce" vm2d:name="115" vm2d:type="grobject" xlink:href="#">
      <path d="M441.21,550.38 L470.57,550.38 470.57,565.64 441.21,565.64 Z" fill="#fff" fill-opacity="0"/>
    </a>
    <g>
      <g transform="matrix(3.78235,0,0,3.78235,-0,839.841)" stroke-width="0.85" stroke-linecap="round" stroke-linejoin="miter" stroke-miterlimit="10">
        <path stroke="#fff" d="M156.99,-128.21 L132.54,-113.73"/>
        <path stroke="#fff" stroke-width="0.7" stroke-linecap="butt" stroke-linejoin="round" d="M133.01,-113.73 C133.01,-113.47 132.8,-113.26 132.54,-113.26 132.28,-113.26 132.07,-113.47 132.07,-113.73 132.07,-113.99 132.28,-114.2 132.54,-114.2 132.8,-114.2 133.01,-113.99 133.01,-113.73 Z"/>
        <path stroke="#000" stroke-width="0.15" d="M156.99,-128.21 L132.54,-113.73"/>
        <path fill="#000" d="M133.01,-113.73 C133.01,-113.47 132.8,-113.26 132.54,-113.26 132.28,-113.26 132.07,-113.47 132.07,-113.73 132.07,-113.99 132.28,-114.2 132.54,-114.2 132.8,-114.2 133.01,-113.99 133.01,-113.73 Z"/>
        <text font-family="Arial" font-size="3.93" x="157.598" y="-128.861" fill="#000">120</text>
      </g>
    </g>
    <a id="_68ca8b78d363c09ac96f79270a31f6aa" vm2d:name="120" vm2d:type="grobject" xlink:href="#">
      <path d="M593.79,339.67 L623.16,339.67 623.16,354.92 593.79,354.92 Z" fill="#fff" fill-opacity="0"/>
    </a>
    <g>
      <g transform="matrix(3.78235,0,0,3.78235,-0,839.841)" stroke-width="0.85" stroke-linecap="round" stroke-linejoin="miter" stroke-miterlimit="10">
        <path stroke="#fff" d="M14.842,-141.52 L31.975,-131.15"/>
        <path stroke="#fff" stroke-width="0.7" stroke-linecap="butt" stroke-linejoin="round" d="M32.445,-131.15 C32.445,-130.89 32.234,-130.68 31.975,-130.68 31.715,-130.68 31.505,-130.89 31.505,-131.15 31.505,-131.41 31.715,-131.62 31.975,-131.62 32.234,-131.62 32.445,-131.41 32.445,-131.15 Z"/>
        <path stroke="#000" stroke-width="0.15" d="M14.842,-141.52 L31.975,-131.15"/>
        <path fill="#000" d="M32.445,-131.15 C32.445,-130.89 32.234,-130.68 31.975,-130.68 31.715,-130.68 31.505,-130.89 31.505,-131.15 31.505,-131.41 31.715,-131.62 31.975,-131.62 32.234,-131.62 32.445,-131.41 32.445,-131.15 Z"/>
        <text font-family="Arial" font-size="3.93" x="7.68556" y="-142.179" fill="#000">125</text>
      </g>
    </g>
    <a id="_56c47bf595f81640b30e46a7b532dbdb" vm2d:name="125" vm2d:type="grobject" xlink:href="#">
      <path d="M26.774,289.29 L56.139,289.29 56.139,304.55 26.774,304.55 Z" fill="#fff" fill-opacity="0"/>
    </a>
    <g>
      <g transform="matrix(3.78235,0,0,3.78235,-0,839.841)" stroke-width="0.85" stroke-linecap="round" stroke-linejoin="miter" stroke-miterlimit="10">
        <path stroke="#fff" d="M136.43,-140.71 L118.05,-113.85"/>
        <path stroke="#fff" stroke-width="0.7" stroke-linecap="butt" stroke-linejoin="round" d="M118.52,-113.85 C118.52,-113.59 118.31,-113.38 118.05,-113.38 117.79,-113.38 117.58,-113.59 117.58,-113.85 117.58,-114.11 117.79,-114.32 118.05,-114.32 118.31,-114.32 118.52,-114.11 118.52,-113.85 Z"/>
        <path stroke="#000" stroke-width="0.15" d="M136.43,-140.71 L118.05,-113.85"/>
        <path fill="#000" d="M118.52,-113.85 C118.52,-113.59 118.31,-113.38 118.05,-113.38 117.79,-113.38 117.58,-113.59 117.58,-113.85 117.58,-114.11 117.79,-114.32 118.05,-114.32 118.31,-114.32 118.52,-114.11 118.52,-113.85 Z"/>
        <text font-family="Arial" font-size="3.93" x="137.035" y="-141.366" fill="#000">130</text>
      </g>
    </g>
    <a id="_971e055a3bcce125e12d60cbc16eb75e" vm2d:name="130" vm2d:type="grobject" xlink:href="#">
      <path d="M516.02,292.37 L545.38,292.37 545.38,307.62 516.02,307.62 Z" fill="#fff" fill-opacity="0"/>
    </a>
    <g>
      <g transform="matrix(3.78235,0,0,3.78235,-0,839.841)" stroke-width="0.85" stroke-linecap="round" stroke-linejoin="miter" stroke-miterlimit="10">
        <path stroke="#fff" d="M94.753,-164.77 L71.36,-139.67"/>
        <path stroke="#fff" stroke-width="0.7" stroke-linecap="butt" stroke-linejoin="round" d="M71.83,-139.67 C71.83,-139.41 71.619,-139.2 71.36,-139.2 71.1,-139.2 70.89,-139.41 70.89,-139.67 70.89,-139.93 71.1,-140.14 71.36,-140.14 71.619,-140.14 71.83,-139.93 71.83,-139.67 Z"/>
        <path stroke="#000" stroke-width="0.15" d="M94.753,-164.77 L71.36,-139.67"/>
        <path fill="#000" d="M71.83,-139.67 C71.83,-139.41 71.619,-139.2 71.36,-139.2 71.1,-139.2 70.89,-139.41 70.89,-139.67 70.89,-139.93 71.1,-140.14 71.36,-140.14 71.619,-140.14 71.83,-139.93 71.83,-139.67 Z"/>
        <text font-family="Arial" font-size="3.93" x="95.3601" y="-165.427" fill="#000">135</text>
      </g>
    </g>
    <a id="bb9a571d7c8d0a962a2867beca296e00" vm2d:name="135" vm2d:type="grobject" xlink:href="#">
      <path d="M358.39,201.36 L387.76,201.36 387.76,216.62 358.39,216.62 Z" fill="#fff" fill-opacity="0"/>
    </a>
    <g>
      <g transform="matrix(3.78235,0,0,3.78235,-0,839.841)" stroke-width="0.85" stroke-linecap="round" stroke-linejoin="miter" stroke-miterlimit="10">
        <path stroke="#fff" d="M159.91,-109.57 L147.92,-102.1"/>
        <path stroke="#fff" stroke-width="0.7" stroke-linecap="butt" stroke-linejoin="round" d="M148.39,-102.1 C148.39,-101.84 148.18,-101.63 147.92,-101.63 147.66,-101.63 147.45,-101.84 147.45,-102.1 147.45,-102.36 147.66,-102.57 147.92,-102.57 148.18,-102.57 148.39,-102.36 148.39,-102.1 Z"/>
        <path stroke="#000" stroke-width="0.15" d="M159.91,-109.57 L147.92,-102.1"/>
        <path fill="#000" d="M148.39,-102.1 C148.39,-101.84 148.18,-101.63 147.92,-101.63 147.66,-101.63 147.45,-101.84 147.45,-102.1 147.45,-102.36 147.66,-102.57 147.92,-102.57 148.18,-102.57 148.39,-102.36 148.39,-102.1 Z"/>
        <text font-family="Arial" font-size="3.93" x="160.517" y="-110.229" fill="#000">140</text>
      </g>
    </g>
    <a id="_036d040532d088772735af37f3686262_1" vm2d:name="140" vm2d:type="grobject" xlink:href="#">
      <path d="M604.84,410.14 L634.2,410.14 634.2,425.4 604.84,425.4 Z" fill="#fff" fill-opacity="0"/>
    </a>
    <g>
      <g transform="matrix(3.78235,0,0,3.78235,-0,839.841)" stroke-width="0.85" stroke-linecap="round" stroke-linejoin="miter" stroke-miterlimit="10">
        <path stroke="#fff" d="M64.773,-182.08 L39.522,-156.87"/>
        <path stroke="#fff" stroke-width="0.7" stroke-linecap="butt" stroke-linejoin="round" d="M39.992,-156.87 C39.992,-156.61 39.782,-156.4 39.522,-156.4 39.263,-156.4 39.052,-156.61 39.052,-156.87 39.052,-157.13 39.263,-157.34 39.522,-157.34 39.782,-157.34 39.992,-157.13 39.992,-156.87 Z"/>
        <path stroke="#000" stroke-width="0.15" d="M64.773,-182.08 L39.522,-156.87"/>
        <path fill="#000" d="M39.992,-156.87 C39.992,-156.61 39.782,-156.4 39.522,-156.4 39.263,-156.4 39.052,-156.61 39.052,-156.87 39.052,-157.13 39.263,-157.34 39.522,-157.34 39.782,-157.34 39.992,-157.13 39.992,-156.87 Z"/>
        <text font-family="Arial" font-size="3.93" x="65.3805" y="-182.736" fill="#000">140</text>
      </g>
    </g>
    <a id="_036d040532d088772735af37f3686262_2" vm2d:name="140" vm2d:type="grobject" xlink:href="#">
      <path d="M245,135.9 L274.36,135.9 274.36,151.15 245,151.15 Z" fill="#fff" fill-opacity="0"/>
    </a>
    <g>
      <g transform="matrix(3.78235,0,0,3.78235,-0,839.841)" stroke-width="0.85" stroke-linecap="round" stroke-linejoin="miter" stroke-miterlimit="10">
        <path stroke="#fff" d="M89.335,-64.423 L60.444,-81.137"/>
        <path stroke="#fff" stroke-width="0.7" stroke-linecap="butt" stroke-linejoin="round" d="M60.914,-81.137 C60.914,-80.878 60.704,-80.667 60.444,-80.667 60.185,-80.667 59.974,-80.878 59.974,-81.137 59.974,-81.397 60.185,-81.607 60.444,-81.607 60.704,-81.607 60.914,-81.397 60.914,-81.137 Z"/>
        <path stroke="#000" stroke-width="0.15" d="M89.335,-64.423 L60.444,-81.137"/>
        <path fill="#000" d="M60.914,-81.137 C60.914,-80.878 60.704,-80.667 60.444,-80.667 60.185,-80.667 59.974,-80.878 59.974,-81.137 59.974,-81.397 60.185,-81.607 60.444,-81.607 60.704,-81.607 60.914,-81.397 60.914,-81.137 Z"/>
        <text font-family="Arial" font-size="3.93" x="89.9423" y="-61.0459" fill="#000">60</text>
      </g>
    </g>
    <a id="_1776682069e7c71556f5c782aaa1ef5c" vm2d:name="60" vm2d:type="grobject" xlink:href="#">
      <path d="M337.9,596.17 L359.01,596.17 359.01,611.42 337.9,611.42 Z" fill="#fff" fill-opacity="0"/>
    </a>
  </g>
  <g id="C3DP0001" vm2d:name="Panels" vm2d:type="layer"/>
  <g id="IsoG215" vm2d:name="" vm2d:type="grnode">
    <g id="IsoG216" vm2d:name="" vm2d:type="grnode">
      <g id="g64" vm2d:name="" vm2d:type="grnode">
        <g transform="matrix(3.78235,0,0,3.78235,-0,839.841)">
          <path fill="#fff" d="M83.109,-203.31 L89.11,-203.31 89.11,-197.31 83.109,-197.31 83.109,-203.31 Z"/>
          <path fill="#000" d="M83.309,-203.11 L88.911,-203.11 88.911,-197.51 83.309,-197.51 83.309,-203.11 Z"/>
          <path fill="#fff" d="M83.509,-202.91 L88.71,-202.91 88.71,-197.71 83.509,-197.71 83.509,-202.91 Z"/>
        </g>
      </g>
    </g>
    <g id="g69" vm2d:name="" vm2d:type="grnode">
      <g transform="matrix(3.78235,0,0,3.78235,-0,839.841)">
        <path fill="#000" d="M85.662,-201.48 C85.555,-201.48 85.449,-201.48 85.342,-201.48 85.342,-200.7 85.342,-199.92 85.342,-199.14 85.52,-199.14 85.697,-199.14 85.875,-199.14 85.907,-198.94 85.939,-198.74 85.972,-198.54 85.523,-198.54 85.076,-198.54 84.627,-198.54 84.627,-199.72 84.627,-200.9 84.627,-202.08 85.063,-202.08 85.496,-202.08 85.932,-202.08 86.228,-202.08 86.451,-202.05 86.606,-202.01 86.813,-201.95 86.99,-201.84 87.138,-201.68 87.286,-201.52 87.399,-201.34 87.476,-201.11 87.554,-200.88 87.592,-200.61 87.592,-200.27 87.592,-199.98 87.555,-199.73 87.484,-199.52 87.394,-199.26 87.268,-199.06 87.104,-198.9 86.979,-198.78 86.813,-198.68 86.603,-198.62 86.443,-198.56 86.234,-198.54 85.972,-198.54 85.939,-198.74 85.907,-198.94 85.875,-199.14 86.071,-199.14 86.217,-199.15 86.307,-199.17 86.423,-199.2 86.516,-199.25 86.594,-199.32 86.67,-199.39 86.734,-199.5 86.781,-199.66 86.83,-199.82 86.854,-200.03 86.854,-200.31 86.854,-200.58 86.83,-200.79 86.781,-200.93 86.734,-201.08 86.667,-201.2 86.579,-201.28 86.493,-201.36 86.381,-201.42 86.249,-201.44 86.147,-201.46 85.952,-201.48 85.662,-201.48 Z"/>
      </g>
    </g>
  </g>
  <g id="IsoG76" vm2d:name="" vm2d:type="grnode">
    <g id="g1038" vm2d:name="" vm2d:type="grnode">
      <g transform="matrix(3.78235,0,0,3.78235,-0,839.841)" stroke-width="0.18004" stroke-linecap="round" stroke-linejoin="miter" stroke-miterlimit="2">
        <path fill="#fff" stroke="#000" d="M95.663,-187.04 L95.663,-186.51 96.763,-185.87 99.863,-191.26 96.763,-193.06 95.663,-193.69 95.663,-191.9 89.191,-188.16 89.191,-184.57 90.291,-183.93 96.763,-187.67 95.663,-187.04 Z"/>
        <path stroke="#000" stroke-linejoin="round" d="M95.663,-187.04 L95.663,-186.51 96.763,-185.87 99.863,-191.26 96.763,-193.06 95.663,-193.69 95.663,-191.9 89.191,-188.16 89.191,-184.57 90.291,-183.93 96.763,-187.67 96.763,-185.87 M95.663,-191.9 L96.763,-191.26 M89.191,-188.16 L90.291,-187.52 90.291,-183.93 M96.763,-193.06 L96.763,-191.26 90.291,-187.52"/>
      </g>
    </g>
    <g id="IsoG77" vm2d:name="" vm2d:type="grnode">
      <g id="g1050" vm2d:name="" vm2d:type="grnode">
        <g transform="matrix(3.78235,0,0,3.78235,-0,839.841)" stroke-width="0.18004" stroke-linecap="round" stroke-linejoin="round" stroke-miterlimit="2">
          <path stroke="#000" d="M96.483,-188.39 L96.453,-188.35 96.423,-188.31 96.393,-188.27 96.373,-188.23 96.343,-188.19 96.313,-188.16 96.273,-188.12 96.243,-188.09 96.203,-188.05 96.163,-188.02 96.123,-187.99 96.083,-187.95 96.033,-187.92 95.993,-187.89 95.943,-187.86 95.893,-187.83 95.843,-187.8 95.132,-187.39 95.132,-189.67 95.583,-189.92 95.813,-190.06 95.883,-190.09 95.943,-190.12 95.993,-190.15 96.043,-190.18 96.083,-190.2 96.093,-190.2 96.133,-190.21 96.163,-190.23 96.213,-190.24 96.263,-190.25 96.303,-190.25 96.343,-190.25 96.383,-190.25 96.423,-190.24 96.453,-190.23 96.503,-190.21 96.533,-190.18 96.573,-190.15 96.603,-190.12 96.633,-190.07 96.663,-190.03 96.683,-189.98 96.703,-189.92 96.723,-189.86 96.743,-189.79 96.753,-189.72 96.763,-189.64 96.763,-189.56 96.763,-189.48 96.763,-189.41 96.763,-189.33 96.753,-189.27 96.753,-189.26 96.753,-189.19 96.733,-189.12 96.723,-189.06 96.713,-188.99 96.693,-188.93 96.683,-188.86 96.663,-188.8 96.643,-188.74 96.623,-188.69 96.603,-188.63 96.573,-188.58 96.553,-188.53 96.533,-188.48 96.503,-188.43"/>
          <path fill="#000" stroke="#000" d="M92.202,-187.97 L90.862,-187.19 90.862,-184.92 91.122,-185.07 91.122,-186.1 92.052,-186.64 92.052,-186.91 91.122,-186.37 91.122,-187.08 92.202,-187.7 92.202,-187.97 Z"/>
          <path fill="#000" stroke="#000" d="M93.142,-187.16 L93.102,-186.95 93.012,-186.48 92.922,-186.9 92.632,-188.22 92.352,-188.06 92.872,-186.08 93.152,-186.24 93.562,-188.21 93.622,-188.52 93.692,-188.29 94.102,-186.79 94.352,-186.94 94.892,-189.52 94.632,-189.37 94.322,-187.73 94.222,-187.18 94.212,-187.28 94.192,-187.38 94.172,-187.48 94.152,-187.58 94.122,-187.69 94.102,-187.79 94.072,-187.9 93.782,-188.89 93.472,-188.7 93.142,-187.16 Z"/>
          <path fill="#000" stroke="#000" d="M95.132,-187.39 L95.843,-187.8 95.893,-187.83 95.943,-187.86 95.993,-187.89 96.033,-187.92 96.083,-187.95 96.123,-187.99 96.163,-188.02 96.203,-188.05 96.243,-188.09 96.273,-188.12 96.313,-188.16 96.343,-188.19 96.373,-188.23 96.393,-188.27 96.423,-188.31 96.453,-188.35 96.483,-188.39 96.503,-188.43 96.533,-188.48 96.553,-188.53 96.573,-188.58 96.603,-188.63 96.623,-188.69 96.643,-188.74 96.663,-188.8 96.683,-188.86 96.693,-188.93 96.713,-188.99 96.723,-189.06 96.733,-189.12 96.753,-189.19 96.753,-189.27 96.763,-189.33 96.763,-189.41 96.763,-189.48 96.763,-189.56 96.763,-189.64 96.753,-189.72 96.743,-189.79 96.723,-189.86 96.703,-189.92 96.683,-189.98 96.663,-190.03 96.633,-190.07 96.603,-190.12 96.573,-190.15 96.533,-190.18 96.503,-190.21 96.453,-190.23 96.423,-190.24 96.383,-190.25 96.343,-190.25 96.303,-190.25 96.263,-190.25 96.213,-190.24 96.163,-190.23 96.133,-190.21 96.083,-190.2 96.043,-190.18 95.993,-190.15 95.943,-190.12 95.883,-190.09 95.813,-190.06 95.132,-189.67 95.132,-187.39 Z"/>
          <path fill="#fff" stroke="#000" d="M95.393,-187.81 L95.823,-188.05 95.873,-188.08 95.923,-188.12 95.973,-188.15 96.013,-188.18 96.053,-188.21 96.093,-188.24 96.123,-188.27 96.153,-188.3 96.183,-188.33 96.213,-188.36 96.233,-188.4 96.263,-188.43 96.283,-188.46 96.303,-188.49 96.323,-188.54 96.353,-188.59 96.373,-188.64 96.393,-188.69 96.413,-188.74 96.433,-188.8 96.443,-188.86 96.453,-188.92 96.473,-188.99 96.483,-189.05 96.483,-189.12 96.493,-189.18 96.493,-189.26 96.503,-189.33 96.493,-189.43 96.483,-189.52 96.483,-189.59 96.463,-189.67 96.443,-189.72 96.423,-189.77 96.393,-189.82 96.363,-189.85 96.333,-189.88 96.303,-189.9 96.263,-189.92 96.233,-189.93 96.193,-189.94 96.143,-189.93 96.113,-189.93 96.073,-189.92 96.033,-189.9 95.983,-189.88 95.933,-189.85 95.873,-189.82 95.813,-189.78 95.393,-189.55 95.393,-187.81 Z"/>
        </g>
      </g>
    </g>
  </g>
</svg>
