<?xml version="1.0" encoding="UTF-8" standalone="no"?>
<!DOCTYPE svg SYSTEM "http://www.w3.org/Graphics/SVG/1.1/DTD/svg11.dtd" [
<!ENTITY % SVG.External.attrib
"xmlns:vm2d CDATA #FIXED 'http://www.cortona3d.com/vm2d'
vm2d:name CDATA #IMPLIED
vm2d:type CDATA #IMPLIED">
]>
<svg xmlns="http://www.w3.org/2000/svg" xmlns:vm2d="http://www.cortona3d.com/vm2d" xmlns:xlink="http://www.w3.org/1999/xlink" version="1.1" width="170mm" height="222mm" viewBox="0 0 643 840" fill="none" fill-rule="evenodd" stroke-miterlimit="5">
  <title>Untitled</title>
  <desc>"Generator:ParallelGraphics Cortona2D","ProfileId:WebCGM""ProfileEd:2.1""ColourClass:colour""Source:Cortona2D Editor Pro 14.2.0.142""Date:20250507""Grid:isometric"</desc>
  <rect width="643" height="840" fill="#fff"/>
  <defs/>
  <g id="C3DB0001" vm2d:name="Background" vm2d:type="layer"/>
  <g id="C3DG0001" vm2d:name="Drawing" vm2d:type="layer">
    <g transform="matrix(3.78235,0,0,3.78235,-0,839.841)" stroke-width="0.18" stroke-linecap="round" stroke-linejoin="round" stroke-miterlimit="10">
      <path stroke="#000" d="M108.16,-154.25 C108.16,-154.25 109.92,-152.86 110.8,-152.16 111.18,-151.86 111.83,-151.42 112.44,-151.04 114.19,-150.03 115.92,-149.03 117.66,-148.02 117.86,-147.92 117.98,-147.87 118.01,-147.89 118.04,-147.9 117.98,-147.97 117.84,-148.1 115.04,-150.48 112.24,-152.87 109.45,-155.25 109.41,-155.29 109.36,-155.32 109.32,-155.36 109.02,-155.54 108.71,-155.71 108.4,-155.89 108.34,-155.93 108.32,-156.01 108.33,-156.12 108.35,-156.22 108.4,-156.33 108.47,-156.42 108.89,-156.89 109.3,-157.37 109.71,-157.84 109.8,-157.95 109.92,-158 110,-157.96 110.05,-157.94 110.08,-157.89 110.09,-157.83 110.15,-157.36 110.21,-156.9 110.27,-156.44 110.27,-156.44 110.93,-155.78 111.25,-155.45 111.58,-155.12 111.91,-154.79 112.24,-154.46 112.89,-153.81 113.55,-153.15 114.21,-152.49 115.52,-151.18 116.83,-149.86 118.15,-148.54 118.28,-148.41 118.33,-148.33 118.3,-148.3 118.21,-148.16 118.11,-148.02 118.01,-147.89 M109.93,-158 L110,-157.96 M110.27,-156.44 L110.26,-156.44 M109.45,-155.25 L110.27,-156.44 M109.45,-155.25 L109.45,-155.25 M54.038,-100.33 C51.575,-101.75 49.126,-103.16 46.662,-104.58 46.066,-104.94 45.162,-104.64 44.37,-103.82 44.081,-103.52 43.821,-103.16 43.609,-102.78 43.515,-102.6 43.432,-102.43 43.359,-102.25 43.323,-102.16 43.29,-102.07 43.26,-101.98 43.245,-101.94 43.23,-101.9 43.217,-101.85 43.203,-101.81 43.19,-101.76 43.178,-101.72 43.17,-101.69 43.155,-101.63 43.155,-101.63 M44.583,-105.12 C44.583,-105.12 44.562,-105.12 44.552,-105.12 44.524,-105.11 44.497,-105.11 44.469,-105.11 44.441,-105.1 44.413,-105.1 44.385,-105.09 44.3,-105.07 44.213,-105.05 44.125,-105.01 43.977,-104.95 43.828,-104.87 43.68,-104.77 43.442,-104.61 43.211,-104.4 42.999,-104.15 42.787,-103.9 42.599,-103.62 42.445,-103.32 42.369,-103.17 42.301,-103.02 42.244,-102.86 42.215,-102.79 42.189,-102.71 42.166,-102.63 42.154,-102.6 42.143,-102.56 42.133,-102.52 42.122,-102.48 42.113,-102.44 42.104,-102.4 42.103,-102.4 42.101,-102.39 42.101,-102.39 M55.545,-98.983 C55.413,-99.059 55.282,-99.134 55.15,-99.211 54.448,-99.635 53.297,-98.985 52.579,-97.761 51.861,-96.536 51.847,-95.199 52.549,-94.775 52.681,-94.699 52.812,-94.623 52.944,-94.547 M52.944,-94.547 C53.646,-94.123 54.797,-94.772 55.515,-95.997 56.233,-97.222 56.247,-98.558 55.545,-98.983 54.843,-99.407 53.692,-98.757 52.974,-97.532 52.629,-96.944 52.432,-96.299 52.427,-95.739 52.421,-95.179 52.607,-94.75 52.944,-94.547 Z M53.238,-96.542 C53.238,-96.542 53.26,-96.562 53.271,-96.573 53.287,-96.589 53.304,-96.605 53.319,-96.622 53.335,-96.639 53.351,-96.656 53.367,-96.673 53.398,-96.708 53.429,-96.744 53.459,-96.781 53.533,-96.874 53.602,-96.975 53.664,-97.08 53.726,-97.185 53.78,-97.295 53.825,-97.406 53.852,-97.472 53.876,-97.539 53.896,-97.606 53.903,-97.628 53.909,-97.65 53.915,-97.673 53.921,-97.695 53.927,-97.717 53.932,-97.739 53.933,-97.742 53.934,-97.748 53.934,-97.748 M55.443,-87.161 C56.089,-86.953 56.885,-87.39 57.276,-88.166 57.667,-88.942 57.523,-89.801 56.944,-90.143 56.71,-90.284 56.386,-90.246 56.051,-90.039 55.717,-89.831 55.403,-89.473 55.188,-89.053 54.731,-88.161 54.84,-87.355 55.443,-87.161 Z M58.304,-92.288 C58.957,-92.095 59.749,-92.544 60.13,-93.325 60.51,-94.105 60.353,-94.957 59.767,-95.288 59.528,-95.42 59.201,-95.373 58.867,-95.157 58.533,-94.941 58.223,-94.577 58.013,-94.155 57.569,-93.261 57.693,-92.47 58.304,-92.288 Z M52.205,-99.215 C52.332,-99.16 52.458,-99.106 52.585,-99.051 53.062,-99.128 53.518,-99.263 53.909,-99.444 56.819,-100.79 59.738,-102.14 62.648,-103.49 62.74,-103.53 62.848,-103.56 62.965,-103.59 63.899,-103.76 64.836,-103.93 65.77,-104.1 66.023,-104.15 66.252,-104.22 66.446,-104.31 75.2,-108.47 83.981,-112.63 92.736,-116.78 93.509,-116.98 94.226,-116.89 94.816,-116.53 96.12,-115.74 96.636,-113.73 96.138,-111.38 95.639,-109.02 94.218,-106.75 92.49,-105.55 84.527,-99.986 76.541,-94.41 68.579,-88.851 68.391,-88.719 68.167,-88.609 67.92,-88.525 65.801,-87.806 63.676,-87.086 61.557,-86.367 61.455,-86.333 61.356,-86.287 61.265,-86.23 61.255,-86.226 61.246,-86.222 61.236,-86.218 58.315,-84.265 55.411,-82.325 52.49,-80.372 51.821,-79.97 51.16,-79.767 50.568,-79.784 49.892,-79.803 49.389,-80.172 48.817,-80.502 48.055,-80.944 47.638,-81.906 47.662,-83.165 47.811,-84.982 47.96,-86.804 48.109,-88.621 48.143,-89.042 48.038,-89.382 47.817,-89.566 47.388,-89.924 46.963,-90.307 46.504,-90.634 46.504,-90.634 46.506,-90.637 46.504,-90.634 46.649,-90.571 46.793,-90.509 46.938,-90.447 M94.816,-116.53 C94.551,-116.68 94.288,-116.83 94.023,-116.99 93.434,-117.35 92.717,-117.43 91.943,-117.24 83.183,-113.09 74.395,-108.92 65.634,-104.76 65.537,-104.72 65.423,-104.68 65.297,-104.66 64.363,-104.48 63.426,-104.31 62.491,-104.14 62.256,-104.1 62.042,-104.03 61.858,-103.95 58.948,-102.6 56.029,-101.25 53.119,-99.9 53.383,-99.748 53.645,-99.596 53.909,-99.444 M91.541,-112.62 C91.045,-112.81 90.356,-112.32 90.004,-111.52 89.834,-111.13 89.767,-110.73 89.816,-110.39 89.864,-110.06 90.026,-109.82 90.264,-109.73 90.503,-109.64 90.798,-109.7 91.087,-109.91 91.375,-110.12 91.632,-110.45 91.802,-110.83 92.154,-111.63 92.038,-112.44 91.541,-112.62 Z M73.055,-97.395 C73.055,-97.395 80.448,-102.56 84.14,-105.13 84.332,-105.27 84.506,-105.48 84.628,-105.73 84.689,-105.86 84.735,-105.99 84.764,-106.12 84.778,-106.18 84.789,-106.24 84.795,-106.31 84.801,-106.37 84.802,-106.43 84.799,-106.49 84.797,-106.53 84.784,-106.61 84.784,-106.61 M72.603,-94.654 C72.603,-94.654 72.757,-94.715 72.83,-94.754 72.881,-94.765 73.006,-94.822 73.155,-94.9 73.304,-94.978 73.453,-95.066 73.544,-95.129 77.295,-97.744 81.058,-100.37 84.803,-102.99 85.676,-103.6 86.229,-104.52 86.601,-105.5 86.755,-105.91 86.866,-106.45 86.887,-106.91 86.899,-107.18 86.885,-107.44 86.835,-107.71 86.81,-107.84 86.771,-107.97 86.739,-108.1 86.729,-108.14 86.708,-108.22 86.708,-108.22 M89.9,-110.11 C89.9,-110.11 90.017,-110.14 90.072,-110.17 90.147,-110.2 90.219,-110.25 90.287,-110.3 90.361,-110.35 90.431,-110.41 90.495,-110.47 90.7,-110.68 90.875,-110.93 91.001,-111.22 91.084,-111.41 91.144,-111.61 91.176,-111.8 91.208,-112 91.211,-112.18 91.187,-112.35 91.175,-112.42 91.157,-112.5 91.129,-112.58 91.123,-112.59 91.103,-112.63 91.103,-112.63 M51.135,-97.689 L50.776,-97.143 M52.585,-99.051 C52.108,-98.325 51.635,-97.603 51.158,-96.877 49.735,-97.889 46.34,-99.898 42.583,-101.95 M38.667,-95.132 C38.672,-95.139 38.677,-95.147 38.682,-95.154 38.668,-95.201 38.833,-95.13 39.116,-94.967 41.265,-93.726 43.421,-92.481 45.571,-91.24 45.854,-91.077 46.21,-90.847 46.506,-90.637 46.651,-90.574 46.795,-90.512 46.94,-90.45 M66.921,-116.77 C71.597,-119.05 76.244,-121.32 80.92,-123.61 81.663,-123.81 82.322,-123.76 82.832,-123.45 83.096,-123.3 83.36,-123.14 83.624,-122.99 M50.844,-83.38 C50.844,-83.38 50.885,-83.382 50.905,-83.386 50.992,-83.406 51.077,-83.437 51.158,-83.474 51.33,-83.554 51.504,-83.674 51.67,-83.828 51.919,-84.059 52.141,-84.357 52.306,-84.685 52.416,-84.903 52.498,-85.128 52.549,-85.348 52.599,-85.569 52.616,-85.779 52.599,-85.968 52.591,-86.057 52.575,-86.146 52.549,-86.232 52.543,-86.252 52.523,-86.289 52.523,-86.289 M81.729,-118.33 C81.56,-118.48 81.303,-118.48 81.015,-118.34 80.726,-118.2 80.43,-117.93 80.191,-117.58 79.693,-116.87 79.574,-116.04 79.925,-115.74 80.094,-115.59 80.35,-115.59 80.639,-115.73 80.927,-115.87 81.223,-116.14 81.463,-116.49 81.961,-117.21 82.08,-118.03 81.729,-118.33 Z M82.746,-119.52 C82.746,-119.52 82.755,-119.44 82.759,-119.4 82.771,-119.29 82.783,-119.18 82.793,-119.08 82.812,-118.86 82.82,-118.75 82.806,-118.53 82.787,-118.24 82.73,-117.93 82.638,-117.61 82.473,-117.03 82.237,-116.48 81.921,-115.97 81.603,-115.46 81.219,-115 80.774,-114.61 80.534,-114.39 80.287,-114.19 80.01,-114.03 79.844,-113.93 79.686,-113.85 79.505,-113.78 79.409,-113.74 79.309,-113.71 79.211,-113.68 79.172,-113.67 79.093,-113.64 79.093,-113.64 M42.571,-101.93 L42.583,-101.95 M79.731,-116.2 C79.731,-116.2 79.803,-116.23 79.837,-116.24 79.912,-116.28 79.984,-116.32 80.053,-116.37 80.128,-116.42 80.2,-116.48 80.267,-116.54 80.409,-116.67 80.542,-116.83 80.661,-117 80.779,-117.17 80.881,-117.35 80.958,-117.54 81.035,-117.72 81.088,-117.91 81.112,-118.08 81.124,-118.16 81.13,-118.24 81.128,-118.32 81.127,-118.34 81.121,-118.38 81.121,-118.38 M42.571,-101.93 C42.485,-101.98 42.397,-102.03 42.309,-102.07 42.245,-102.1 42.18,-102.13 42.114,-102.16 42.086,-102.17 42.056,-102.18 42.039,-102.21 42.019,-102.21 41.997,-102.22 41.977,-102.21 M65.259,-112.14 C65.259,-112.14 69.908,-114.41 72.23,-115.54 72.28,-115.57 72.332,-115.59 72.384,-115.61 72.433,-115.63 72.484,-115.65 72.535,-115.66 72.584,-115.68 72.683,-115.71 72.683,-115.71 M61.991,-107.2 C61.991,-107.2 67.683,-111.09 70.525,-113.03 70.72,-113.16 70.907,-113.37 71.05,-113.61 71.12,-113.73 71.178,-113.85 71.22,-113.98 71.241,-114.04 71.258,-114.1 71.271,-114.16 71.274,-114.17 71.277,-114.19 71.277,-114.19 M40.755,-85.157 C40.491,-85.31 40.228,-85.461 39.964,-85.614 39.145,-86.106 38.738,-87.206 38.854,-88.617 38.992,-90.309 39.131,-92.006 39.269,-93.698 39.304,-94.119 39.199,-94.459 38.978,-94.643 38.659,-94.909 38.34,-95.175 38.021,-95.441 37.845,-95.587 37.746,-95.689 37.732,-95.735 37.737,-95.743 37.742,-95.75 37.747,-95.758 M42.017,-88.477 C42.017,-88.477 42.058,-88.478 42.078,-88.483 42.165,-88.502 42.25,-88.533 42.331,-88.57 42.504,-88.65 42.677,-88.77 42.843,-88.924 43.092,-89.155 43.314,-89.453 43.479,-89.781 43.589,-89.999 43.672,-90.224 43.722,-90.444 43.772,-90.665 43.789,-90.875 43.772,-91.064 43.765,-91.153 43.749,-91.243 43.722,-91.328 43.716,-91.348 43.696,-91.386 43.696,-91.386 M49.175,-107.24 C47.54,-106.49 45.915,-105.73 44.279,-104.98 43.889,-104.8 43.578,-104.58 43.379,-104.34 42.912,-103.63 42.449,-102.92 41.977,-102.21 40.566,-100.06 39.164,-97.93 37.753,-95.782 M89.127,-109.33 C89.127,-109.33 89.105,-109.51 89.1,-109.59 89.094,-109.69 89.093,-109.78 89.095,-109.87 89.097,-109.97 89.103,-110.06 89.112,-110.16 89.121,-110.26 89.134,-110.35 89.15,-110.45 89.167,-110.55 89.187,-110.65 89.21,-110.75 89.305,-111.15 89.453,-111.56 89.649,-111.94 89.845,-112.32 90.084,-112.67 90.351,-112.98 90.484,-113.13 90.623,-113.27 90.767,-113.39 90.838,-113.45 90.911,-113.51 90.985,-113.56 91.057,-113.61 91.207,-113.71 91.207,-113.71 M111.01,-161 C111.13,-161.14 111.21,-161.32 111.23,-161.48 111.24,-161.64 111.19,-161.77 111.09,-161.8 111.02,-161.83 110.93,-161.82 110.84,-161.77 106.96,-159.62 103.07,-157.47 99.189,-155.32 98.971,-155.2 98.77,-154.94 98.671,-154.66 98.571,-154.38 98.59,-154.12 98.719,-154 98.804,-153.91 98.93,-153.9 99.07,-153.95 99.643,-154.15 100.22,-154.34 100.81,-154.51 101.37,-154.67 101.95,-154.82 102.52,-154.94 103.08,-155.07 103.64,-155.17 104.21,-155.25 104.75,-155.34 105.31,-155.4 105.86,-155.44 106.02,-155.45 106.19,-155.54 106.36,-155.68 106.42,-155.73 106.47,-155.79 106.52,-155.84 108.02,-157.56 109.52,-159.28 111.01,-161 Z M109.64,-157.88 C109.64,-157.88 109.64,-157.88 109.64,-157.88 109.23,-157.4 108.82,-156.93 108.41,-156.46 M113.79,-164.18 C110.71,-165.96 107.65,-167.73 104.57,-169.5 104.4,-169.61 104.16,-169.59 103.92,-169.46 96.606,-165.41 89.272,-161.35 81.959,-157.31 77.41,-154.79 72.89,-151.23 68.664,-146.84 59.248,-137.06 52.007,-123.9 48.926,-110.97 L49.848,-110.44 C49.711,-109.86 49.58,-109.28 49.459,-108.7 49.339,-108.12 49.227,-107.55 49.123,-106.97 49.021,-106.41 48.926,-105.84 48.84,-105.27 48.837,-105.24 48.833,-105.21 48.829,-105.19 48.749,-104.65 48.677,-104.11 48.612,-103.58 48.608,-103.54 48.6,-103.47 48.6,-103.47 M108.27,-156.17 C108.27,-156.17 108.27,-156.16 108.27,-156.16 108.27,-156.16 108.27,-156.16 108.27,-156.15 108.26,-156.11 108.26,-156.06 108.27,-156.02 M108.34,-155.93 C108.55,-155.8 108.77,-155.68 108.99,-155.55 109.08,-155.5 109.09,-155.33 109.01,-155.16 108.99,-155.1 108.95,-155.05 108.91,-155 108.73,-154.79 108.55,-154.59 108.37,-154.38 108.29,-154.29 108.2,-154.24 108.13,-154.24 107.2,-154.3 106.25,-154.28 105.28,-154.2 103.82,-154.08 102.32,-153.8 100.79,-153.37 97.719,-152.51 94.546,-151.05 91.379,-149.03 88.741,-147.35 86.13,-145.31 83.61,-142.94 83.454,-142.79 83.338,-142.58 83.308,-142.37 83.298,-142.31 83.296,-142.25 83.309,-142.18 83.327,-142.09 83.326,-142 83.315,-141.91 83.277,-141.61 83.109,-141.28 82.879,-141.05 82.354,-140.54 81.837,-140.01 81.331,-139.47 80.311,-138.4 79.312,-137.26 78.344,-136.09 74.454,-131.38 71.08,-126 68.459,-120.35 67.152,-117.54 66.045,-114.68 65.156,-111.82 64.936,-111.12 64.727,-110.4 64.532,-109.69 64.433,-109.33 64.177,-108.98 63.895,-108.82 61.981,-107.76 60.062,-106.7 58.148,-105.64 57.84,-105.82 57.534,-106 57.226,-106.18 57.088,-105.6 56.958,-105.02 56.836,-104.44 56.716,-103.87 56.604,-103.29 56.5,-102.71 56.419,-102.27 56.277,-101.36 56.277,-101.36 M81.896,-141.4 C82.272,-142.23 82.229,-143.04 81.792,-143.35 80.819,-144.05 79.145,-141.83 78.88,-141.56 78.403,-141.08 77.932,-140.59 77.469,-140.09 76.541,-139.1 75.622,-138.06 74.732,-136.99 74.285,-136.45 73.844,-135.91 73.411,-135.36 72.976,-134.8 72.547,-134.24 72.127,-133.68 71.704,-133.11 71.288,-132.53 70.881,-131.95 70.472,-131.37 70.069,-130.78 69.676,-130.19 69.509,-129.93 69.477,-129.64 69.605,-129.51 69.678,-129.44 69.795,-129.43 69.92,-129.5 70.604,-129.88 71.29,-130.26 71.974,-130.64 72.658,-131.02 73.344,-131.4 74.029,-131.78 74.552,-132.07 75.044,-132.98 75.302,-133.33 75.835,-134.06 76.381,-134.78 76.935,-135.48 78.044,-136.88 79.198,-138.24 80.378,-139.52 80.926,-140.11 81.558,-140.65 81.896,-141.4 Z M72.227,-128.79 C72.378,-129.03 72.401,-129.31 72.278,-129.42 72.207,-129.49 72.098,-129.49 71.981,-129.43 70.684,-128.71 69.383,-127.99 68.086,-127.27 67.84,-127.14 67.602,-126.89 67.425,-126.59 67.063,-125.98 66.709,-125.36 66.363,-124.73 66.018,-124.11 65.68,-123.48 65.351,-122.85 65.023,-122.22 64.703,-121.59 64.391,-120.95 64.081,-120.31 63.779,-119.67 63.486,-119.03 63.381,-118.8 63.393,-118.57 63.514,-118.49 63.585,-118.44 63.685,-118.45 63.791,-118.5 65.048,-119.2 66.308,-119.9 67.565,-120.59 67.736,-120.69 67.898,-120.87 68.001,-121.09 68.315,-121.75 68.639,-122.4 68.971,-123.05 69.638,-124.36 70.344,-125.64 71.087,-126.91 71.458,-127.54 71.839,-128.17 72.227,-128.79 Z M66.703,-118.2 C66.801,-118.44 66.784,-118.66 66.66,-118.74 66.587,-118.78 66.486,-118.78 66.38,-118.72 65.203,-118.07 64.023,-117.42 62.846,-116.76 62.564,-116.61 62.3,-116.29 62.154,-115.93 61.909,-115.32 61.671,-114.71 61.442,-114.09 61.215,-113.49 60.994,-112.87 60.783,-112.26 60.574,-111.65 60.372,-111.04 60.179,-110.42 59.988,-109.82 59.805,-109.21 59.631,-108.59 59.584,-108.43 59.599,-108.28 59.669,-108.2 59.74,-108.12 59.859,-108.11 59.986,-108.18 61.169,-108.84 62.355,-109.49 63.538,-110.15 63.755,-110.27 63.952,-110.53 64.036,-110.81 64.219,-111.43 64.413,-112.05 64.615,-112.66 65.021,-113.89 65.466,-115.13 65.949,-116.36 66.192,-116.98 66.444,-117.59 66.703,-118.2 Z M62.137,-107.85 C62.137,-107.85 61.886,-106.78 61.776,-106.25 61.628,-105.53 61.494,-104.8 61.375,-104.08 61.353,-103.95 61.314,-103.69 61.314,-103.69"/>
      <path stroke="#000" d="M57.068,-101.73 C57.068,-101.73 57.184,-102.47 57.25,-102.84 57.347,-103.38 57.452,-103.93 57.565,-104.48 57.657,-104.92 57.86,-105.81 57.86,-105.81 M110.11,-40.587 C110.11,-40.587 110.2,-40.635 110.24,-40.654 110.32,-40.692 110.41,-40.724 110.5,-40.753 111.08,-40.939 111.67,-41.111 112.26,-41.268 M112.46,-41.315 C112.7,-41.374 113.23,-41.501 113.64,-41.6 113.86,-41.654 114.01,-41.69 114.05,-41.699 M132.09,-48.459 C132.08,-48.446 132.07,-48.433 132.06,-48.42 132.01,-48.312 131.82,-48.005 131.58,-47.633 131.34,-47.26 131.09,-46.887 130.93,-46.671 130.76,-46.43 130.58,-46.192 130.4,-45.96 130.21,-45.724 130.02,-45.489 129.83,-45.255 129.75,-45.15 129.58,-44.944 129.58,-44.944 M125.49,-36.956 C125.49,-36.956 125.59,-37.048 125.63,-37.095 125.67,-37.134 125.7,-37.175 125.74,-37.215 125.74,-37.222 125.76,-37.237 125.76,-37.237 M132.77,-45.88 C132.77,-45.88 132.97,-46.209 133.06,-46.373 133.16,-46.537 133.35,-46.866 133.35,-46.866 M138.13,-65.18 C138.13,-65.18 138.14,-65.216 138.14,-65.233 138.15,-65.292 138.17,-65.35 138.17,-65.41 138.17,-65.435 138.17,-65.485 138.17,-65.485 M139.61,-84.738 C129.39,-87.803 115.03,-78.476 105.84,-62.816 96.664,-47.156 95.44,-29.887 102.97,-22.227 109.46,-15.62 120.34,-16.478 130.71,-24.418 141.09,-32.357 149.02,-45.886 150.95,-58.933 152.87,-71.98 148.43,-82.095 139.61,-84.738 Z M140.34,-67.679 C140.34,-67.679 142.53,-66.416 143.62,-65.785 143.66,-65.761 143.71,-65.748 143.76,-65.742 143.38,-66.659 142.94,-67.557 142.41,-68.397 142.09,-68.626 141.74,-68.626 141.4,-68.448 141,-68.241 140.7,-68.015 140.37,-67.711 139.69,-67.073 138.82,-66.192 138.08,-65.385 136.99,-64.203 135.91,-62.983 135.04,-61.629 134.3,-60.484 133.47,-58.788 132.61,-56.688 132.36,-56.058 131.86,-55.219 132.12,-54.485 132.19,-54.28 132.28,-54.079 132.36,-53.874 132.43,-53.678 132.5,-53.479 132.56,-53.28 132.62,-53.09 132.68,-52.898 132.73,-52.705 132.78,-52.521 132.82,-52.334 132.87,-52.149 132.88,-52.12 132.9,-52.063 132.9,-52.063 M139.01,-71.678 C139.01,-71.678 138.48,-71.941 138.21,-72.051 137.94,-72.157 137.39,-72.327 137.39,-72.327 M137.49,-72.306 C137.49,-72.306 136.9,-72.456 136.6,-72.508 136.29,-72.562 135.98,-72.6 135.67,-72.624 135.35,-72.649 135.03,-72.658 134.71,-72.654 134.38,-72.649 134.05,-72.625 133.72,-72.596 133.62,-72.588 133.52,-72.574 133.42,-72.543 133.3,-72.504 133.08,-72.397 133.08,-72.397 M133.19,-72.458 C133.19,-72.458 133.04,-72.375 132.96,-72.333 132.86,-72.277 132.75,-72.234 132.66,-72.165 132.49,-72.039 132.33,-71.905 132.19,-71.751 132.13,-71.69 132.08,-71.528 132.08,-71.528 M131.88,-61.84 C131.88,-61.84 131.75,-64.982 131.74,-66.551 131.73,-67.307 131.76,-68.065 131.81,-68.819 131.86,-69.576 131.93,-70.333 132.01,-71.086 132.03,-71.256 132.11,-71.59 132.11,-71.59 M139.61,-84.738 C127.48,-89.059 110.48,-77.974 101.63,-59.979 94.189,-44.856 94.744,-29.222 102.97,-22.227 M134.79,-72.651 C134.79,-72.651 134.79,-72.63 134.78,-72.619 134.77,-72.543 134.69,-72.407 134.69,-72.407 M134.71,-72.43 C134.71,-72.43 134.47,-72.088 134.33,-71.934 133.77,-71.312 133.19,-70.697 132.6,-70.101 132.36,-69.858 131.86,-69.387 131.86,-69.387 M131.85,-62.857 C131.85,-62.857 131.89,-62.218 131.9,-61.899 131.91,-61.84 131.93,-61.723 131.93,-61.723 M131.92,-61.763 C131.92,-61.763 131.95,-61.628 131.98,-61.564 132.01,-61.482 132.11,-61.337 132.11,-61.337 M132.04,-61.462 L132.04,-61.459 M138.18,-65.302 C138.18,-65.302 138.08,-64.994 138.01,-64.852 137.94,-64.705 137.84,-64.569 137.74,-64.44 137.64,-64.306 137.52,-64.18 137.4,-64.064 137.01,-63.697 136.61,-63.341 136.2,-62.99 136.04,-62.849 135.7,-62.575 135.7,-62.575 M132.97,-52 L132.86,-52.177 M137.85,-65.133 C137.85,-65.133 137.86,-64.935 137.86,-64.836 137.86,-64.76 137.85,-64.607 137.85,-64.607 M126.57,-53.947 C126.57,-53.947 126.45,-54.01 126.4,-54.057 126.36,-54.088 126.35,-54.136 126.33,-54.177 126.15,-54.52 125.97,-54.864 125.79,-55.209 125.62,-55.556 125.45,-55.904 125.28,-56.253 124.75,-57.35 124.2,-58.457 123.87,-59.633 123.6,-60.558 123.49,-61.522 123.38,-62.474 123.33,-62.945 123.28,-63.419 123.24,-63.893 123.2,-64.355 123.17,-64.82 123.15,-65.284 123.14,-65.711 123.13,-66.568 123.13,-66.568 M132.29,-48.59 C132.29,-48.59 132.24,-48.575 132.22,-48.574 132.18,-48.552 132.11,-48.484 132.11,-48.484 M132.07,-48.426 L132.23,-48.632 M133.06,-48.401 C133.06,-48.401 132.76,-48.467 132.61,-48.495 132.47,-48.52 132.2,-48.56 132.2,-48.56 M134.57,-47.917 C134.57,-47.917 134.35,-48.03 134.24,-48.076 134.14,-48.114 133.95,-48.172 133.95,-48.172 M134.03,-48.152 C133.81,-48.203 133.59,-48.269 133.37,-48.324 133.22,-48.362 132.91,-48.432 132.91,-48.432 M124.58,-67.832 C124.58,-67.832 124.57,-67.749 124.56,-67.708 124.53,-67.498 124.49,-67.287 124.44,-67.079 124.38,-66.849 124.32,-66.619 124.25,-66.393 124.18,-66.162 124.11,-65.932 124.03,-65.705 123.94,-65.458 123.84,-65.211 123.74,-64.97 123.59,-64.625 123.44,-64.284 123.28,-63.944 123.27,-63.92 123.24,-63.872 123.24,-63.872 M129.45,-44.739 L129.61,-45.001 M129.51,-44.839 C129.51,-44.839 129.46,-44.753 129.44,-44.706 129.41,-44.617 129.38,-44.43 129.38,-44.43 M124.06,-50.801 C124.06,-50.801 123.95,-50.878 123.88,-50.901 123.53,-51.025 123.18,-51.13 122.82,-51.242 122.48,-51.352 122.13,-51.461 121.79,-51.567 121.45,-51.672 121.11,-51.775 120.78,-51.876 120.48,-51.966 119.88,-52.143 119.89,-52.141 119.66,-52.199 119.44,-52.256 119.22,-52.313 M129.4,-44.536 L129.4,-43.826 M132.94,-36.59 C132.94,-36.59 132.72,-36.844 132.62,-36.974 132.4,-37.25 132.18,-37.528 131.96,-37.809 131.75,-38.085 131.54,-38.365 131.33,-38.646 131.14,-38.913 130.94,-39.182 130.76,-39.453 130.57,-39.722 130.39,-39.994 130.21,-40.268 129.91,-40.74 129.71,-41.266 129.61,-41.82 129.57,-42.087 129.53,-42.356 129.49,-42.625 129.46,-42.857 129.44,-43.091 129.42,-43.324 129.41,-43.497 129.4,-43.844 129.4,-43.844 M124.27,-44.044 C124.67,-44.133 125.18,-43.86 125.55,-43.756 125.7,-43.711 125.87,-43.668 126.03,-43.626 126.2,-43.577 126.56,-43.483 126.56,-43.483 M124.73,-44.092 C124.73,-44.092 124.42,-44.082 124.27,-44.044 123.85,-43.935 122.65,-42.912 120.75,-41.034 119.62,-39.914 118.54,-38.743 117.68,-37.396 116.74,-35.932 115.87,-34.427 115.08,-32.88 114.81,-32.36 114.29,-31.409 114.08,-30.722 113.91,-30.182 113.78,-29.507 114.23,-29.056 114.96,-28.547 115.78,-28.147 116.61,-27.846 117.5,-27.671 119.32,-27.622 119.32,-27.622 M113.1,-52.18 C113.1,-52.18 113.59,-52.239 113.83,-52.263 114.21,-52.302 114.6,-52.335 114.98,-52.363 115.38,-52.392 115.79,-52.415 116.19,-52.433 116.6,-52.452 117,-52.466 117.41,-52.473 117.63,-52.476 117.85,-52.475 118.07,-52.464 118.28,-52.453 118.48,-52.432 118.69,-52.405 118.9,-52.377 119.31,-52.299 119.31,-52.299 M132.45,-48.521 C132.45,-48.521 132.63,-48.369 132.72,-48.293 132.98,-48.083 133.23,-47.872 133.48,-47.659 133.56,-47.589 133.72,-47.442 133.72,-47.442 M133.77,-47.374 L133.68,-47.475 M133.27,-36.259 L133.47,-36.13 M133.71,-47.424 L133.71,-47.439 M133.3,-36.229 L132.9,-36.631 M133.68,-47.457 L133.68,-47.47 M127.41,-39.995 C127.41,-39.995 127.28,-40.009 127.22,-39.994 127.13,-39.974 127.05,-39.937 126.97,-39.894 126.87,-39.838 126.78,-39.772 126.7,-39.7 126.6,-39.619 126.43,-39.435 126.43,-39.435 M127.2,-39.987 L127.41,-39.885 M126.56,-39.624 C126.56,-39.624 126.3,-39.282 126.19,-39.095 125.36,-37.612 124.53,-36.124 123.75,-34.613 123.35,-33.85 123.01,-33.058 122.67,-32.269 122.32,-31.477 122,-30.673 121.7,-29.867 121.62,-29.659 121.46,-29.225 121.49,-28.939 121.51,-28.736 121.55,-28.649 121.68,-28.504 121.74,-28.428 121.89,-28.287 121.89,-28.29 121.97,-28.231 122.06,-28.172 122.15,-28.114 M133.06,-48.01 C133.06,-48.01 132.99,-47.874 132.95,-47.807 132.75,-47.434 132.54,-47.063 132.32,-46.696 132.11,-46.33 131.89,-45.965 131.66,-45.605 131.44,-45.245 131.21,-44.888 130.97,-44.535 130.74,-44.183 130.5,-43.833 130.25,-43.488 130.01,-43.148 129.51,-42.476 129.51,-42.476 M126.07,-37.6 C126.07,-37.6 125.95,-37.802 125.88,-37.898 125.82,-37.987 125.69,-38.164 125.69,-38.164 M115.09,-52.369 C115.09,-52.369 115.04,-52.143 115.02,-52.03 115,-51.933 115,-51.834 114.98,-51.737 114.96,-51.67 114.93,-51.578 114.9,-51.488 114.86,-51.397 114.83,-51.319 114.8,-51.276 114.76,-51.201 114.64,-51.066 114.64,-51.066 M125.96,-37.451 C125.96,-37.451 126.02,-37.556 126.04,-37.614 126.04,-37.628 126.03,-37.658 126.03,-37.658 M126.04,-37.625 C126.04,-37.625 125.89,-37.408 125.82,-37.305 125.75,-37.219 125.68,-37.14 125.6,-37.061 125.5,-36.946 125.26,-36.739 125.26,-36.739 M114.7,-51.131 C114.7,-51.131 114.26,-50.66 114.04,-50.431 113.83,-50.215 113.61,-50.002 113.39,-49.795 113.16,-49.583 112.93,-49.375 112.7,-49.172 112.48,-48.979 112.25,-48.792 112.02,-48.608 111.9,-48.514 111.66,-48.335 111.66,-48.335 M125.72,-38.111 L125.57,-37.959 M114.19,-29.118 L114.42,-28.96 M110.45,-39.903 L110.83,-40.85 M110.79,-40.837 C110.79,-40.837 110.55,-40.223 110.42,-39.92 110.31,-39.651 110.04,-39.127 110.04,-39.127 M19.355,-38.858 L19.324,-39.046 C19.387,-39.177 19.457,-39.303 19.535,-39.426 19.665,-39.604 19.795,-39.781 19.925,-39.96 20.063,-40.129 20.208,-40.294 20.355,-40.456 20.721,-40.651 21.086,-40.845 21.452,-41.041 21.693,-40.955 21.931,-40.861 22.162,-40.752 22.406,-40.611 22.649,-40.471 22.894,-40.33 23.067,-40.207 23.23,-40.071 23.384,-39.925 23.527,-39.691 23.659,-39.449 23.774,-39.199 23.888,-38.88 24.001,-38.562 24.115,-38.243 24.188,-37.965 24.243,-37.683 24.286,-37.4 24.223,-37.269 24.152,-37.142 24.075,-37.02 23.945,-36.842 23.815,-36.664 23.685,-36.486 23.547,-36.316 23.402,-36.152 23.255,-35.99 L22.158,-35.405 C21.917,-35.491 21.679,-35.584 21.448,-35.693 21.438,-35.699 21.427,-35.705 21.417,-35.711 M25.15,-33.673 C25.387,-33.8 25.623,-33.925 25.861,-34.052 27.464,-34.976 27.56,-37.919 26.077,-40.626 24.593,-43.332 22.09,-44.777 20.487,-43.853 20.25,-43.726 20.014,-43.6 19.776,-43.474 M29.545,-47.995 C29.545,-47.995 29.608,-48.09 29.639,-48.137 29.652,-48.156 29.664,-48.174 29.678,-48.192 29.739,-48.27 29.802,-48.348 29.865,-48.425 29.88,-48.442 29.897,-48.458 29.912,-48.474 29.981,-48.545 30.047,-48.619 30.119,-48.686 30.289,-48.845 30.531,-49.026 30.697,-49.117 31.183,-49.386 31.711,-49.573 32.273,-49.59 32.844,-49.607 33.403,-49.527 33.943,-49.337 34.2,-49.247 35.504,-48.782 36.609,-47.563 M33.824,-47.086 C33.824,-47.086 33.729,-47.146 33.681,-47.176 33.656,-47.191 33.605,-47.221 33.605,-47.221 M36.195,-43.296 C36.195,-43.296 36.179,-43.407 36.169,-43.462 36.158,-43.518 36.147,-43.574 36.135,-43.63 36.113,-43.729 36.078,-43.868 36.053,-43.954 36.004,-44.123 35.942,-44.3 35.871,-44.474 35.732,-44.818 35.544,-45.178 35.339,-45.498 35.132,-45.82 34.885,-46.134 34.62,-46.412 34.5,-46.537 34.364,-46.664 34.236,-46.772 34.185,-46.816 34.133,-46.859 34.08,-46.9 34.041,-46.931 34.001,-46.96 33.961,-46.989 33.908,-47.027 33.801,-47.103 33.801,-47.103 M35.715,-41.251 C35.716,-41.286 36.156,-41.773 36.224,-42.891 36.227,-42.941 36.222,-42.992 36.219,-43.042 36.216,-43.094 36.212,-43.146 36.206,-43.198 36.202,-43.238 36.192,-43.317 36.192,-43.317 M35.41,-39.855 C35.41,-39.855 35.439,-39.851 35.453,-39.849 35.48,-39.846 35.507,-39.844 35.534,-39.841 35.584,-39.838 35.633,-39.833 35.683,-39.831 35.731,-39.829 35.779,-39.831 35.827,-39.831 35.969,-39.833 36.133,-39.851 36.277,-39.88 M24.655,-44.074 C24.656,-44.075 24.657,-44.077 24.657,-44.077 M24.655,-44.074 C24.559,-43.951 24.473,-43.804 24.406,-43.647 24.392,-43.616 24.379,-43.584 24.368,-43.552 24.356,-43.521 24.344,-43.489 24.334,-43.456 24.324,-43.425 24.314,-43.393 24.306,-43.361 24.298,-43.329 24.29,-43.297 24.283,-43.266 24.281,-43.258 24.279,-43.243 24.279,-43.243 M29.561,-37.107 C29.561,-37.107 29.692,-37.067 29.757,-37.047 29.784,-37.039 29.81,-37.029 29.838,-37.023 29.909,-37.007 29.981,-36.996 30.052,-36.982 30.08,-36.977 30.108,-36.97 30.137,-36.967 30.337,-36.948 30.525,-36.948 30.725,-36.967 31.029,-36.998 31.429,-37.154 31.672,-37.338 32.285,-37.801 32.619,-38.486 32.666,-39.375 32.734,-40.668 32.218,-42.183 31.256,-43.516 30.238,-44.927 28.864,-45.935 27.498,-46.272 26.782,-46.449 25.999,-46.438 25.424,-46.242 25.002,-46.098 24.638,-45.907 24.285,-45.635 24.111,-45.502 23.965,-45.337 23.82,-45.175 23.805,-45.158 23.79,-45.14 23.776,-45.122 23.716,-45.043 23.653,-44.966 23.597,-44.884 23.586,-44.867 23.566,-44.833 23.566,-44.833 M32.563,-38.709 C32.563,-38.709 32.583,-38.701 32.593,-38.698 32.619,-38.688 32.645,-38.679 32.672,-38.671 32.744,-38.65 32.817,-38.631 32.89,-38.612 32.946,-38.598 33.047,-38.581 33.185,-38.563 33.377,-38.537 33.569,-38.55 33.761,-38.572 34.107,-38.613 34.503,-38.785 34.769,-39.012 35.38,-39.533 35.624,-40.258 35.672,-41.045 35.746,-42.261 35.157,-43.911 34.181,-45.223 33.155,-46.603 31.903,-47.493 30.439,-47.882 29.775,-48.059 28.901,-48.027 28.318,-47.806 27.908,-47.651 27.531,-47.452 27.199,-47.161 27.125,-47.097 27.058,-47.025 26.987,-46.957 26.971,-46.941 26.953,-46.926 26.938,-46.909 26.872,-46.835 26.808,-46.758 26.744,-46.682 26.729,-46.665 26.716,-46.647 26.703,-46.629 26.648,-46.552 26.539,-46.397 26.539,-46.397 M27.249,-35.362 C27.249,-35.362 27.285,-35.357 27.304,-35.356 27.333,-35.353 27.362,-35.354 27.391,-35.354 27.458,-35.354 27.526,-35.354 27.593,-35.357 27.628,-35.358 27.701,-35.367 27.781,-35.379 27.86,-35.39 27.931,-35.404 27.962,-35.412 28.169,-35.47 28.38,-35.544 28.56,-35.664 29.009,-35.962 29.32,-36.361 29.482,-36.85 29.813,-37.847 29.672,-38.915 29.325,-39.889 28.615,-41.887 27.037,-43.651 25.287,-44.405 25.195,-44.445 25.082,-44.429 24.961,-44.358 24.918,-44.334 24.876,-44.303 24.833,-44.265 24.812,-44.247 24.792,-44.228 24.772,-44.209 24.752,-44.188 24.732,-44.167 24.713,-44.145 24.712,-44.144 24.71,-44.142 24.71,-44.142 M30.418,-40.627 C30.418,-40.627 30.365,-40.788 30.336,-40.867 30.306,-40.948 30.274,-41.029 30.24,-41.108 30.171,-41.27 30.093,-41.431 30.006,-41.592 29.832,-41.914 29.622,-42.233 29.396,-42.52 29.165,-42.811 28.909,-43.082 28.635,-43.322 28.499,-43.441 28.358,-43.554 28.215,-43.656 28.144,-43.707 28.072,-43.757 27.998,-43.804 27.928,-43.849 27.784,-43.933 27.784,-43.933 M30.544,-45.649 C30.544,-45.649 30.404,-45.71 30.332,-45.737 30.261,-45.764 30.189,-45.789 30.116,-45.812 30.045,-45.833 29.902,-45.869 29.902,-45.869 M29.012,-45.84 C29.012,-45.84 28.936,-45.813 28.899,-45.797 28.866,-45.783 28.804,-45.75 28.804,-45.75 M32.547,-47.508 C32.487,-47.507 32.428,-47.506 32.369,-47.506 32.369,-47.506 32.288,-47.499 32.247,-47.493 32.186,-47.484 32.065,-47.457 32.065,-47.457 M32.851,-47.477 C32.851,-47.477 32.993,-47.446 33.063,-47.427 33.135,-47.407 33.206,-47.385 33.277,-47.36 33.347,-47.335 33.415,-47.306 33.484,-47.278 33.5,-47.272 33.515,-47.265 33.53,-47.258 33.563,-47.242 33.626,-47.209 33.626,-47.209 M30.56,-39.981 C30.56,-39.981 30.536,-40.132 30.521,-40.207 30.506,-40.285 30.488,-40.363 30.468,-40.44 30.448,-40.517 30.403,-40.671 30.403,-40.671 M33.461,-42.069 C33.461,-42.069 33.414,-42.229 33.387,-42.308 33.36,-42.389 33.33,-42.47 33.299,-42.55 33.267,-42.631 33.233,-42.713 33.198,-42.793 33.162,-42.875 33.123,-42.957 33.083,-43.037 33.043,-43.119 33.001,-43.201 32.957,-43.281 32.914,-43.359 32.823,-43.513 32.823,-43.513"/>
      <path stroke="#000" d="M30.471,-39.025 C30.471,-39.025 30.51,-39.116 30.526,-39.163 30.535,-39.19 30.549,-39.245 30.548,-39.236 30.555,-39.277 30.563,-39.319 30.57,-39.36 M33.589,-41.112 C33.589,-41.112 33.59,-41.243 33.588,-41.309 33.586,-41.366 33.575,-41.479 33.575,-41.479 M30.342,-39.03 L30.451,-39.037 M33.253,-40.674 L33.36,-40.646 M26.48,-44.312 C26.48,-44.312 26.384,-44.311 26.336,-44.306 26.273,-44.301 26.149,-44.281 26.149,-44.281 M25.819,-44.14 C25.82,-44.147 25.82,-44.154 25.821,-44.161 25.815,-44.158 25.808,-44.154 25.799,-44.151 25.799,-44.151 25.888,-44.195 25.933,-44.213 25.972,-44.228 26.052,-44.253 26.052,-44.253 M26.195,-44.287 C26.195,-44.287 26.09,-44.265 26.038,-44.25 M27.176,-44.198 C27.176,-44.198 27.321,-44.148 27.392,-44.119 27.464,-44.09 27.536,-44.058 27.607,-44.023 27.674,-43.991 27.805,-43.92 27.805,-43.92 M26.462,-44.313 C26.462,-44.313 26.596,-44.31 26.662,-44.304 26.713,-44.3 26.813,-44.285 26.813,-44.285 26.806,-44.286 26.947,-44.26 27.016,-44.242 27.077,-44.227 27.197,-44.19 27.197,-44.19 M30.567,-39.324 C30.567,-39.324 30.58,-39.444 30.584,-39.504 30.586,-39.548 30.586,-39.635 30.586,-39.635 M30.555,-40.011 C30.555,-40.011 30.571,-39.89 30.576,-39.829 30.582,-39.761 30.587,-39.624 30.587,-39.624 M30.429,-39.004 C30.442,-39.017 30.455,-39.031 30.468,-39.044 30.463,-39.04 30.41,-39.027 30.384,-39.023 M30.462,-39.039 L30.42,-39.023 M30.457,-39.034 L30.45,-39.03 M30.48,-39.061 L30.454,-39.026 30.401,-38.991 M30.501,-39.102 L30.437,-38.982 M30.392,-39.039 C30.369,-39.044 30.346,-39.048 30.323,-39.052 30.327,-39.052 30.278,-39.065 30.254,-39.074 30.232,-39.082 30.189,-39.101 30.189,-39.101 M30.435,-39.036 L30.381,-39.04 M29.001,-45.837 L29.152,-45.878 M29.551,-45.914 C29.551,-45.914 29.687,-45.903 29.754,-45.893 29.822,-45.883 29.956,-45.855 29.956,-45.855 M29.608,-45.908 C29.545,-45.91 29.482,-45.911 29.419,-45.912 29.429,-45.912 29.34,-45.907 29.295,-45.902 29.233,-45.895 29.171,-45.884 29.11,-45.871 M30.506,-45.668 C30.506,-45.668 30.654,-45.597 30.726,-45.559 30.8,-45.52 30.873,-45.478 30.944,-45.435 31.017,-45.391 31.089,-45.344 31.16,-45.296 31.232,-45.247 31.302,-45.196 31.371,-45.143 31.441,-45.089 31.51,-45.034 31.577,-44.977 31.645,-44.919 31.777,-44.799 31.777,-44.799 31.767,-44.808 31.902,-44.679 31.968,-44.612 32.033,-44.545 32.097,-44.476 32.16,-44.406 32.222,-44.336 32.284,-44.264 32.343,-44.191 32.403,-44.118 32.461,-44.043 32.517,-43.968 32.573,-43.892 32.627,-43.815 32.679,-43.738 32.731,-43.66 32.83,-43.502 32.83,-43.502 M33.455,-42.089 C33.455,-42.089 33.491,-41.957 33.506,-41.89 33.523,-41.816 33.537,-41.742 33.55,-41.667 33.562,-41.595 33.572,-41.523 33.579,-41.45 M33.444,-40.608 C33.461,-40.63 33.491,-40.678 33.491,-40.678 M33.513,-40.724 C33.513,-40.724 33.489,-40.67 33.471,-40.649 33.452,-40.627 33.433,-40.605 33.413,-40.583 M33.538,-40.793 L33.502,-40.692 M33.589,-41.137 C33.589,-41.137 33.584,-41.047 33.58,-41.003 33.573,-40.945 33.554,-40.831 33.548,-40.832 33.533,-40.844 33.518,-40.855 33.504,-40.867 M33.316,-40.652 C33.349,-40.646 33.416,-40.637 33.416,-40.637 33.431,-40.634 33.446,-40.636 33.459,-40.635 33.438,-40.626 33.418,-40.617 33.397,-40.608 M33.459,-40.635 L33.452,-40.633 M33.425,-40.613 C33.437,-40.619 33.458,-40.633 33.458,-40.633 M33.371,-40.639 C33.398,-40.636 33.452,-40.636 33.452,-40.636 33.431,-40.61 33.407,-40.589 33.382,-40.568 M33.283,-40.666 L33.192,-40.701 M28.818,-45.742 L28.82,-45.758 M31.802,-47.346 C31.802,-47.346 31.842,-47.369 31.862,-47.378 31.897,-47.395 31.969,-47.424 31.961,-47.421 32.008,-47.435 32.054,-47.45 32.101,-47.464 M32.5,-47.511 C32.5,-47.511 32.635,-47.504 32.703,-47.496 32.767,-47.489 32.894,-47.467 32.894,-47.467 M26.414,-34.519 C26.414,-34.519 26.441,-34.535 26.455,-34.543 26.487,-34.564 26.519,-34.585 26.551,-34.607 26.588,-34.633 26.625,-34.659 26.661,-34.686 26.698,-34.716 26.753,-34.763 26.808,-34.815 26.864,-34.867 26.914,-34.917 26.945,-34.951 27.117,-35.14 27.27,-35.37 27.386,-35.616 27.581,-36.027 27.671,-36.478 27.703,-36.93 27.76,-37.736 27.575,-38.723 27.193,-39.648 26.853,-40.47 26.376,-41.242 25.789,-41.921 25.465,-42.294 25.109,-42.638 24.716,-42.938 24.549,-43.066 24.359,-43.196 24.219,-43.28 24.141,-43.326 24.064,-43.375 23.985,-43.419 23.905,-43.464 23.825,-43.508 23.743,-43.547 23.699,-43.567 23.636,-43.577 23.578,-43.571 23.556,-43.569 23.535,-43.565 23.514,-43.56 23.493,-43.555 23.473,-43.549 23.453,-43.542 23.451,-43.541 23.449,-43.54 23.447,-43.539 23.443,-43.538 23.436,-43.534 23.436,-43.534 M25.284,-44.406 C25.284,-44.406 25.283,-44.407 25.282,-44.407 25.215,-44.436 25.147,-44.461 25.08,-44.488 25.063,-44.494 25.047,-44.501 25.03,-44.507 24.971,-44.53 24.911,-44.552 24.851,-44.573 24.833,-44.579 24.815,-44.585 24.797,-44.591 24.616,-44.65 24.435,-44.704 24.249,-44.746 23.921,-44.818 23.587,-44.847 23.251,-44.829 22.906,-44.81 22.557,-44.732 22.239,-44.601 22.092,-44.541 21.951,-44.465 21.814,-44.385 21.747,-44.345 21.684,-44.299 21.622,-44.253 21.586,-44.226 21.549,-44.201 21.515,-44.173 21.496,-44.158 21.46,-44.128 21.46,-44.128 M35.563,-42.237 C35.563,-42.237 35.577,-42.263 35.584,-42.276 35.599,-42.308 35.614,-42.341 35.627,-42.374 35.654,-42.44 35.678,-42.511 35.699,-42.584 35.74,-42.731 35.767,-42.889 35.78,-43.058 35.803,-43.352 35.781,-43.673 35.716,-44.006 35.604,-44.578 35.367,-45.166 35.035,-45.694 34.173,-47.068 32.871,-47.743 32.025,-47.255 32.014,-47.25 32.004,-47.244 31.993,-47.238 M25.991,-44.041 L26.499,-44.312 M28.991,-45.639 L29.501,-45.91 M33.529,-40.754 L33.563,-40.891 32.606,-40.389 M30.559,-39.298 L29.608,-38.792 M37.562,-40.359 C38.662,-40.993 39.079,-42.638 38.633,-44.588 M33.164,-50.269 C32.82,-50.251 32.503,-50.16 32.222,-49.998 32.064,-49.914 31.906,-49.83 31.748,-49.746 M31.989,-47.321 L32.328,-47.501 M37.032,-40.109 L37.506,-40.361 M37.385,-40.194 C38.573,-39.508 39.754,-38.826 40.942,-38.14 42.56,-39.002 44.168,-39.859 45.787,-40.721 45.841,-42.377 45.895,-44.023 45.949,-45.679 45.131,-46.151 44.318,-46.621 43.5,-47.093 43.113,-48.861 42.082,-50.622 40.77,-51.756 39.459,-52.89 38.052,-53.237 37.045,-52.674 35.427,-51.812 33.819,-50.955 32.201,-50.093 M28.644,-47.901 L28.721,-50.248 33.566,-52.829 35.375,-51.784 M49.944,-48.842 C50.372,-49.546 50.397,-50.33 50.002,-50.595 49.812,-50.723 49.549,-50.711 49.269,-50.562 48.99,-50.413 48.718,-50.14 48.513,-49.802 48.307,-49.464 48.186,-49.09 48.175,-48.761 48.165,-48.432 48.265,-48.176 48.455,-48.049 48.645,-47.922 48.908,-47.934 49.188,-48.083 49.467,-48.231 49.739,-48.505 49.944,-48.842 Z M44.131,-55.208 C44.131,-55.208 44.113,-55.219 44.103,-55.224 44.058,-55.243 44.012,-55.26 43.965,-55.272 43.916,-55.285 43.866,-55.293 43.817,-55.298 43.715,-55.308 43.607,-55.303 43.495,-55.283 43.271,-55.244 43.034,-55.144 42.798,-54.991 42.62,-54.877 42.446,-54.734 42.279,-54.567 42.168,-54.455 42.062,-54.334 41.961,-54.204 41.91,-54.139 41.861,-54.072 41.815,-54.005 41.804,-53.99 41.785,-53.959 41.785,-53.959 M49.345,-53.475 C48.113,-54.187 46.888,-54.894 45.656,-55.605 45.518,-55.687 45.368,-55.746 45.206,-55.781 43.25,-54.739 41.306,-53.703 39.35,-52.661 M47.904,-47.142 C48.581,-46.688 49.723,-47.296 50.455,-48.501 51.186,-49.705 51.23,-51.049 50.553,-51.503 49.876,-51.956 48.734,-51.348 48.003,-50.144 47.271,-48.94 47.227,-47.596 47.904,-47.142 Z M48.003,-47.087 L45.667,-45.842 M20.297,-39.054 C20.297,-39.054 20.254,-39.016 20.235,-38.995 20.215,-38.972 20.197,-38.948 20.18,-38.923 20.146,-38.872 20.118,-38.813 20.096,-38.749 20.063,-38.652 20.044,-38.542 20.04,-38.423 20.04,-38.375 20.04,-38.326 20.04,-38.277 M51.223,-65.512 C51.633,-66.226 51.629,-66.995 51.216,-67.229 50.802,-67.464 50.135,-67.075 49.725,-66.361 49.316,-65.647 49.319,-64.878 49.733,-64.644 50.146,-64.409 50.814,-64.798 51.223,-65.512 Z M50.376,-69.005 C50.288,-69.056 50.2,-69.107 50.112,-69.157 49.388,-69.567 48.221,-68.886 47.504,-67.637 46.787,-66.387 46.793,-65.042 47.517,-64.632 47.605,-64.581 47.692,-64.531 47.78,-64.48 M49.51,-64.256 C50.048,-63.951 50.915,-64.457 51.448,-65.385 51.98,-66.313 51.976,-67.313 51.438,-67.617 50.901,-67.922 50.033,-67.416 49.501,-66.488 48.968,-65.559 48.973,-64.56 49.51,-64.256 Z M43.586,-66.902 C44.29,-66.459 45.458,-67.104 46.194,-68.342 46.547,-68.937 46.752,-69.591 46.762,-70.162 46.773,-70.733 46.589,-71.173 46.251,-71.386 45.912,-71.599 45.448,-71.567 44.959,-71.297 44.47,-71.027 43.996,-70.541 43.643,-69.946 42.907,-68.708 42.882,-67.345 43.586,-66.902 Z M46.251,-71.386 C46.163,-71.437 46.075,-71.487 45.987,-71.538 45.649,-71.751 45.184,-71.719 44.695,-71.449 44.206,-71.179 43.733,-70.693 43.38,-70.098 42.644,-68.86 42.618,-67.497 43.323,-67.054 43.411,-67.004 43.498,-66.953 43.586,-66.902 M44.751,-71.478 C44.583,-71.575 44.416,-71.671 44.248,-71.768 43.725,-72.097 42.858,-71.618 42.311,-70.698 41.764,-69.779 41.745,-68.766 42.269,-68.437 42.451,-68.332 42.632,-68.228 42.814,-68.123 M72.687,-74.978 C72.451,-75.581 71.999,-75.816 71.454,-76.131 71.099,-76.327 70.607,-76.239 70.113,-75.891 69.619,-75.544 69.175,-74.973 68.903,-74.335 68.632,-73.698 68.561,-73.061 68.71,-72.6 68.792,-72.346 68.934,-72.162 69.132,-72.05 69.365,-71.919 69.664,-71.705 69.945,-71.622 70.996,-71.309 72.121,-72.043 72.638,-73.379 72.843,-73.908 72.862,-74.529 72.687,-74.978 Z M61.105,-81.073 L70.099,-75.881 M61.173,-81.027 C61.152,-81.044 61.129,-81.06 61.105,-81.073 60.91,-81.181 60.648,-81.151 60.375,-80.99 60.103,-80.829 59.842,-80.551 59.652,-80.216 59.255,-79.519 59.262,-78.771 59.668,-78.547 62.666,-76.816 65.647,-75.095 68.646,-73.363 M30.847,-98.113 C30.847,-98.113 30.855,-98.145 30.858,-98.162 30.866,-98.196 30.873,-98.23 30.879,-98.265 30.892,-98.333 30.902,-98.401 30.909,-98.467 30.924,-98.6 30.928,-98.728 30.922,-98.85 30.909,-99.093 30.853,-99.307 30.758,-99.478 30.679,-99.62 30.567,-99.739 30.426,-99.818 30.159,-99.969 29.862,-100.19 29.549,-100.27 28.671,-100.49 27.716,-99.982 27.145,-98.979 26.591,-98.005 26.623,-96.953 27.226,-96.315 27.328,-96.207 27.448,-96.117 27.577,-96.042 27.866,-95.874 28.15,-95.644 28.498,-95.635 28.716,-95.63 28.956,-95.695 29.201,-95.826 29.31,-95.884 29.419,-95.954 29.526,-96.036 29.58,-96.077 29.633,-96.121 29.686,-96.167 29.712,-96.19 29.738,-96.214 29.764,-96.238 29.765,-96.239 29.766,-96.241 29.766,-96.241 M29.85,-98.683 C29.834,-98.696 29.817,-98.707 29.799,-98.717 29.498,-98.884 29.014,-98.599 28.719,-98.08 28.423,-97.561 28.429,-97.006 28.73,-96.839 30.446,-95.848 32.152,-94.863 33.868,-93.873 M35.167,-95.109 C35.167,-95.16 35.167,-95.211 35.167,-95.262 35.165,-95.495 35.083,-95.668 34.937,-95.751 33.217,-96.723 31.51,-97.73 29.799,-98.717 M122.08,-95.418 C121.92,-96.115 121.41,-96.411 120.83,-96.747 120.2,-97.149 119.14,-96.571 118.48,-95.458 117.82,-94.344 117.79,-93.117 118.42,-92.715 119.04,-92.358 119.53,-92.063 120.26,-92.26 120.8,-92.409 121.35,-92.867 121.71,-93.475 122.09,-94.114 122.22,-94.791 122.08,-95.418 Z M120.71,-94.591 L121.65,-94.049 121.05,-93.162 120.34,-93.084 120.24,-93.893 120.84,-94.779 121.54,-94.857 121.65,-94.049 M107.82,-99.872 L117.98,-94.005 M107.89,-99.834 C107.86,-99.845 107.84,-99.858 107.82,-99.872 107.42,-100.12 107.44,-100.88 107.85,-101.57 108.05,-101.9 108.31,-102.17 108.58,-102.32 108.86,-102.47 109.12,-102.49 109.3,-102.37 112.69,-100.42 116.05,-98.474 119.43,-96.521 M52.837,-134.54 C52.837,-134.54 52.848,-134.58 52.853,-134.61 52.86,-134.64 52.867,-134.68 52.873,-134.71 52.879,-134.74 52.884,-134.78 52.889,-134.81 52.894,-134.84 52.898,-134.88 52.901,-134.91 52.912,-135.01 52.916,-135.11 52.915,-135.2 52.91,-135.48 52.851,-135.73 52.741,-135.92 52.661,-136.06 52.547,-136.17 52.405,-136.25 52.13,-136.4 51.845,-136.62 51.527,-136.7 50.65,-136.92 49.693,-136.4 49.127,-135.39 48.579,-134.42 48.617,-133.37 49.224,-132.73 49.327,-132.63 49.449,-132.54 49.578,-132.46 49.873,-132.29 50.149,-132.07 50.501,-132.06 50.72,-132.06 50.961,-132.13 51.206,-132.26 51.315,-132.32 51.424,-132.39 51.531,-132.47 51.558,-132.49 51.584,-132.52 51.611,-132.54 51.637,-132.56 51.664,-132.58 51.69,-132.61 51.713,-132.63 51.757,-132.67 51.757,-132.67 M54.97,-132.77 C54.97,-132.82 54.97,-132.87 54.97,-132.92 54.976,-133.15 54.898,-133.34 54.762,-133.43 53.794,-134.02 52.794,-134.56 51.811,-135.13 51.522,-135.32 51.038,-135.06 50.731,-134.54 50.424,-134.03 50.41,-133.47 50.699,-133.28 51.682,-132.71 52.682,-132.17 53.65,-131.57 53.797,-131.49 53.98,-131.5 54.184,-131.61 54.229,-131.63 54.274,-131.66 54.319,-131.68 M109.32,-155.36 L108.99,-155.55 M53.544,-100.1 C53.544,-100.1 53.51,-100.09 53.494,-100.08 53.46,-100.07 53.426,-100.06 53.392,-100.04 53.324,-100.02 53.256,-99.987 53.187,-99.952 53.014,-99.865 52.841,-99.753 52.672,-99.618 52.604,-99.564 52.537,-99.507 52.47,-99.446 52.437,-99.416 52.404,-99.385 52.372,-99.353 52.339,-99.321 52.307,-99.289 52.275,-99.256 52.262,-99.242 52.237,-99.215 52.237,-99.215 M52.185,-99.16 C52.185,-99.16 52.182,-99.156 52.18,-99.154 52.148,-99.119 52.117,-99.083 52.087,-99.047 52.056,-99.011 52.026,-98.975 51.996,-98.937 51.907,-98.825 51.822,-98.709 51.741,-98.587 51.66,-98.466 51.584,-98.34 51.514,-98.212 51.49,-98.169 51.467,-98.126 51.445,-98.083 51.423,-98.04 51.401,-97.996 51.381,-97.952 51.37,-97.931 51.351,-97.888 51.351,-97.888 M54.998,-98.05 C54.803,-98.168 54.536,-98.146 54.257,-97.989 53.977,-97.831 53.708,-97.551 53.508,-97.21 53.308,-96.869 53.194,-96.495 53.191,-96.17 53.188,-95.846 53.296,-95.597 53.491,-95.479 53.686,-95.361 53.953,-95.383 54.233,-95.541 54.512,-95.698 54.781,-95.978 54.981,-96.319 55.181,-96.66 55.295,-97.034 55.299,-97.359 55.302,-97.684 55.194,-97.932 54.998,-98.05 Z M72.682,-100.1 C72.819,-99.108 72.956,-98.116 73.092,-97.127 73.114,-96.969 73.188,-96.855 73.299,-96.811 73.409,-96.766 73.547,-96.794 73.683,-96.889 77.432,-99.507 81.193,-102.13 84.942,-104.75 85.26,-104.97 85.516,-105.4 85.585,-105.83 85.654,-106.26 85.522,-106.6 85.253,-106.68 85.132,-106.72 84.991,-106.7 84.846,-106.64 80.971,-104.8 77.084,-102.95 73.209,-101.12 73.054,-101.04 72.906,-100.89 72.804,-100.69 72.703,-100.49 72.658,-100.27 72.682,-100.1 Z M92.736,-116.78 L91.943,-117.24 M49.608,-80.046 C48.845,-80.487 48.428,-81.449 48.453,-82.709 48.601,-84.526 48.75,-86.348 48.899,-88.165 48.933,-88.586 48.828,-88.926 48.607,-89.11 48.055,-89.57 47.522,-90.031 46.94,-90.45 46.348,-90.871 45.635,-91.331 45.07,-91.657 42.92,-92.898 40.764,-94.143 38.615,-95.384 38.123,-95.667 37.805,-95.815 37.753,-95.782 37.746,-95.777 37.744,-95.766 37.747,-95.758 38.059,-95.556 38.369,-95.356 38.682,-95.154 M46.94,-90.45 L46.938,-90.447 M75.622,-109.5 C75.622,-109.5 78.683,-111.59 80.212,-112.63 81.002,-113.17 81.776,-113.93 82.458,-114.82 83.606,-116.33 84.398,-118.1 84.623,-119.68 84.848,-121.25 84.482,-122.47 83.624,-122.99 83.115,-123.3 82.456,-123.36 81.713,-123.15 76.635,-120.67 71.588,-118.2 66.511,-115.72 M44.471,-103.92 C44.471,-103.92 44.587,-104.06 44.651,-104.13 44.783,-104.27 44.924,-104.4 45.07,-104.52 46.389,-105.13 47.7,-105.74 49.02,-106.35 M52.915,-86.265 C52.353,-86.474 51.523,-85.901 51.061,-84.985 50.839,-84.545 50.733,-84.084 50.767,-83.702 50.801,-83.32 50.972,-83.049 51.242,-82.949 51.512,-82.848 51.859,-82.927 52.207,-83.167 52.555,-83.407 52.875,-83.789 53.096,-84.229 53.318,-84.668 53.424,-85.13 53.39,-85.512 53.356,-85.894 53.185,-86.165 52.915,-86.265 Z"/>
      <path stroke="#000" d="M44.279,-104.98 L45.07,-104.52 M43.379,-104.34 L44.301,-103.74 M43.396,-102.34 L42.991,-101.72 M64.945,-111.1 C64.945,-111.1 69.287,-113.22 71.454,-114.28 71.646,-114.38 71.819,-114.38 71.938,-114.29 72.119,-114.16 72.152,-113.84 72.022,-113.47 71.893,-113.09 71.623,-112.72 71.327,-112.52 68.129,-110.34 61.723,-105.96 61.723,-105.96 M37.732,-95.735 C38.044,-95.534 38.355,-95.334 38.667,-95.132 38.674,-95.109 38.724,-95.057 38.812,-94.984 39.13,-94.719 39.45,-94.453 39.768,-94.187 39.989,-94.003 40.094,-93.663 40.06,-93.242 39.921,-91.55 39.783,-89.853 39.644,-88.161 39.529,-86.749 39.936,-85.649 40.755,-85.157 41.574,-84.665 42.722,-84.832 43.888,-85.612 45.288,-86.547 48.092,-88.422 48.092,-88.422 M44.088,-91.361 C43.526,-91.57 42.696,-90.997 42.234,-90.081 41.772,-89.165 41.853,-88.253 42.415,-88.045 42.685,-87.944 43.032,-88.023 43.38,-88.263 43.728,-88.503 44.048,-88.885 44.27,-89.325 44.491,-89.765 44.597,-90.226 44.563,-90.608 44.529,-90.99 44.358,-91.261 44.088,-91.361 Z M110.23,-156.75 C110.23,-156.75 110.26,-156.72 110.29,-156.72 110.33,-156.72 110.37,-156.73 110.41,-156.76 110.45,-156.78 110.49,-156.82 110.53,-156.86 110.65,-156.99 110.76,-157.13 110.88,-157.27 110.97,-157.37 111.03,-157.5 111.03,-157.62 111.04,-158.39 111.06,-159.17 111.07,-159.95 111.08,-160.25 111.21,-160.61 111.44,-160.91 111.57,-161.08 111.72,-161.22 111.88,-161.31 112.29,-161.53 112.69,-161.76 113.1,-161.98 113.17,-162.02 113.23,-162.06 113.28,-162.1 113.62,-162.37 113.89,-162.8 114,-163.24 114.1,-163.67 114.02,-164.03 113.79,-164.18 113.62,-164.29 113.38,-164.27 113.14,-164.13 105.83,-160.09 98.493,-156.03 91.181,-151.98 86.632,-149.47 82.111,-145.91 77.886,-141.52 68.47,-131.74 61.229,-118.58 58.148,-105.64 M61.309,-107.39 C61.309,-107.39 61.113,-106.53 61.024,-106.1 60.915,-105.57 60.813,-105.04 60.719,-104.51 60.649,-104.12 60.526,-103.33 60.526,-103.33 M142.28,-48.99 C141.93,-48.074 141.71,-47.542 141.63,-47.426 141.44,-47.166 141.12,-47.067 140.84,-46.939 140.62,-46.836 140.37,-46.846 140.21,-46.964 139.57,-47.448 138.13,-48.647 136.93,-49.702 136.76,-49.847 136.59,-49.991 136.43,-50.138 136.28,-50.272 136.13,-50.409 135.98,-50.545 135.91,-50.612 135.83,-50.68 135.76,-50.748 135.68,-50.816 135.61,-50.883 135.53,-50.952 135.45,-51.028 135.42,-51.185 135.44,-51.394 135.53,-52.204 136.16,-52.742 136.67,-53.31 137.7,-54.447 138.78,-55.531 139.92,-56.565 140.2,-56.827 140.49,-57.098 140.78,-57.353 141.38,-57.874 142,-58.381 142.62,-58.872 142.83,-59.034 143.06,-59.181 143.3,-59.311 143.51,-59.425 143.76,-59.419 143.93,-59.296 144.14,-59.148 144.39,-59.002 144.46,-58.731 144.47,-58.678 144.47,-58.623 144.47,-58.569 144.45,-58.35 144.43,-58.131 144.41,-57.913 144.35,-57.246 144.27,-56.58 144.17,-55.918 143.98,-54.758 143.72,-53.614 143.41,-52.481 143.09,-51.301 142.72,-50.134 142.28,-48.99 Z M114.13,-41.718 C114.77,-41.86 115.43,-41.991 116.09,-42.108 116.43,-42.169 116.77,-42.22 117.11,-42.275 117.45,-42.331 117.79,-42.392 118.14,-42.442 118.27,-42.462 118.39,-42.445 118.49,-42.394 119.13,-42.054 118.33,-41.092 118.12,-40.8 118,-40.623 117.88,-40.442 117.76,-40.264 117.51,-39.906 117.26,-39.552 117.02,-39.19 116.78,-38.827 116.56,-38.453 116.33,-38.085 116.1,-37.718 115.86,-37.354 115.64,-36.981 115.42,-36.607 115.22,-36.222 115,-35.844 114.79,-35.465 114.57,-35.09 114.36,-34.706 113.95,-33.935 113.56,-33.151 113.19,-32.361 113.07,-32.102 112.97,-31.831 112.9,-31.557 112.85,-31.378 112.78,-31.21 112.7,-31.106 112.64,-31.025 112.56,-30.969 112.48,-30.902 112.41,-30.834 112.34,-30.815 112.27,-30.866 112.2,-30.911 112.01,-31.164 111.78,-31.52 111.55,-31.877 111.32,-32.278 111.17,-32.559 111.1,-32.708 111.04,-32.864 110.97,-33.016 110.9,-33.168 110.82,-33.318 110.76,-33.472 110.69,-33.633 110.64,-33.798 110.58,-33.961 110.56,-34.019 110.52,-34.135 110.52,-34.135"/>
      <path stroke="#000" d="M131.3,-47.633 C132.74,-50.128 132.74,-52.825 131.3,-53.657 129.86,-54.489 127.52,-53.14 126.08,-50.645 124.64,-48.15 124.64,-45.453 126.08,-44.621 127.52,-43.79 129.86,-45.138 131.3,-47.633 Z"/>
      <path stroke="#000" d="M112.54,-29.414 C116.46,-23.929 124.17,-24.311 131.81,-30.368 139.44,-36.425 145.36,-46.852 146.59,-56.418 147.81,-65.985 144.09,-72.628 137.28,-73.017 130.04,-73.43 121.02,-66.675 115.25,-56.505 109.48,-46.336 108.38,-35.252 112.54,-29.414 Z M130.74,-47.899 C131.9,-49.878 131.93,-52.038 130.79,-52.723 129.66,-53.409 127.8,-52.359 126.64,-50.38 125.48,-48.401 125.45,-46.24 126.59,-45.555 127.72,-44.87 129.58,-45.919 130.74,-47.899 Z M137.18,-39.446 C137.14,-39.473 137.09,-39.5 137.05,-39.525 135.06,-40.682 133.05,-41.839 131.05,-42.989 131.02,-43.007 130.99,-43.025 130.95,-43.038 130.58,-42.48 129.69,-41.459 129.69,-41.459 M116.61,-27.846 C116.59,-27.885 116.56,-27.92 116.52,-27.943 115.68,-28.424 114.01,-29.387 114.01,-29.387 M20.949,-38.925 C20.949,-38.925 20.932,-38.935 20.923,-38.94 20.907,-38.95 20.89,-38.959 20.873,-38.968 20.839,-38.986 20.805,-39.001 20.772,-39.014 20.705,-39.041 20.639,-39.06 20.575,-39.07 20.43,-39.092 20.296,-39.07 20.185,-39.006 19.985,-38.891 19.866,-38.646 19.856,-38.325 19.845,-38.005 19.943,-37.635 20.129,-37.297 20.314,-36.959 20.571,-36.681 20.844,-36.523 21.116,-36.366 21.382,-36.342 21.582,-36.458 21.694,-36.522 21.781,-36.627 21.838,-36.766 21.863,-36.828 21.882,-36.895 21.894,-36.968 21.897,-36.986 21.9,-37.005 21.902,-37.023 21.904,-37.042 21.906,-37.061 21.908,-37.08 21.909,-37.094 21.91,-37.122 21.91,-37.122 M20.91,-38.953 C20.43,-39.287 19.959,-39.251 19.73,-38.861 19.5,-38.472 19.561,-37.812 19.881,-37.206 20.202,-36.601 20.715,-36.177 21.167,-36.145 21.62,-36.112 21.917,-36.477 21.912,-37.06 21.906,-37.751 21.48,-38.557 20.91,-38.953 Z M19.49,-39.274 C19.49,-39.274 19.493,-39.289 19.495,-39.296 19.501,-39.318 19.507,-39.34 19.514,-39.362 19.52,-39.383 19.527,-39.405 19.535,-39.426 M20.846,-40.051 C20.496,-40.162 20.174,-40.13 19.925,-39.96 M22.308,-38.542 C21.714,-39.624 20.713,-40.202 20.072,-39.832 19.839,-39.708 19.643,-39.562 19.516,-39.324 19.391,-39.092 19.334,-38.834 19.325,-38.571 19.31,-38.097 19.452,-37.557 19.721,-37.065 19.992,-36.572 20.352,-36.184 20.771,-35.934 21.011,-35.791 21.281,-35.709 21.527,-35.704 21.787,-35.698 21.997,-35.792 22.221,-35.912 22.863,-36.282 22.901,-37.459 22.308,-38.542 Z M23.384,-39.925 C23.018,-39.73 22.653,-39.536 22.287,-39.341 22.046,-39.426 21.808,-39.52 21.577,-39.629 21.114,-39.896 20.731,-40.1 20.355,-40.456 M22.457,-38.498 C22.228,-38.944 21.921,-39.339 21.577,-39.629 M23.188,-36.815 C23.045,-37.05 22.913,-37.291 22.799,-37.541 22.574,-38.17 22.384,-38.697 22.287,-39.341 M21.448,-35.693 C21.797,-35.582 22.119,-35.614 22.368,-35.785 M22.758,-36.319 C22.879,-36.654 22.893,-37.081 22.799,-37.541 M22.158,-35.405 C22.409,-35.934 22.797,-36.385 23.188,-36.815 23.555,-37.01 23.919,-37.204 24.286,-37.4 M19.776,-43.474 C18.173,-42.55 18.077,-39.607 19.561,-36.9 21.044,-34.194 23.547,-32.749 25.15,-33.673 26.753,-34.597 26.85,-37.54 25.366,-40.247 23.882,-42.953 21.379,-44.398 19.776,-43.474 Z M25.282,-44.407 C25.098,-44.489 24.828,-44.326 24.604,-43.996 24.534,-43.893 24.465,-43.765 24.413,-43.644 24.389,-43.586 24.361,-43.511 24.342,-43.453 24.336,-43.432 24.33,-43.412 24.324,-43.391 24.321,-43.38 24.317,-43.368 24.314,-43.357 24.309,-43.337 24.304,-43.316 24.3,-43.296 24.297,-43.285 24.294,-43.273 24.292,-43.262 24.29,-43.254 24.287,-43.237 24.287,-43.237 M27.649,-38.019 C27.647,-38.031 27.646,-38.044 27.643,-38.056 M35.945,-39.836 C35.945,-39.836 36.042,-39.836 36.09,-39.838 36.146,-39.841 36.203,-39.846 36.259,-39.853 36.37,-39.867 36.478,-39.889 36.585,-39.919 36.742,-39.964 36.892,-40.028 37.032,-40.109 38.608,-41.017 38.703,-43.911 37.244,-46.573 35.785,-49.234 33.325,-50.655 31.748,-49.746 31.655,-49.692 31.566,-49.631 31.481,-49.562 31.439,-49.527 31.398,-49.49 31.358,-49.452 31.341,-49.436 31.31,-49.402 31.31,-49.402 M35.584,-42.134 C35.584,-42.134 35.617,-42.193 35.632,-42.224 35.647,-42.257 35.662,-42.29 35.676,-42.324 35.704,-42.393 35.729,-42.464 35.75,-42.54 35.792,-42.69 35.82,-42.852 35.833,-43.024 35.856,-43.326 35.834,-43.654 35.767,-43.995 35.652,-44.581 35.41,-45.182 35.07,-45.723 34.188,-47.129 32.855,-47.82 31.989,-47.321 31.966,-47.307 31.922,-47.278 31.922,-47.278 M45.949,-45.679 C44.331,-44.817 42.723,-43.96 41.105,-43.098 40.287,-43.571 39.474,-44.04 38.656,-44.512 38.268,-46.28 37.237,-48.041 35.926,-49.175 34.614,-50.309 33.207,-50.656 32.201,-50.093 32.125,-50.051 32.052,-50.004 31.982,-49.952 31.911,-49.899 31.844,-49.842 31.78,-49.781 31.768,-49.77 31.747,-49.745 31.747,-49.745 M42.656,-41.489 C42.639,-40.975 42.979,-40.748 43.415,-40.98 43.851,-41.212 44.219,-41.817 44.236,-42.33 44.252,-42.844 43.912,-43.072 43.476,-42.839 43.04,-42.607 42.673,-42.002 42.656,-41.489 Z M42.659,-41.534 C42.659,-41.534 42.661,-41.505 42.663,-41.491 42.667,-41.469 42.671,-41.447 42.677,-41.425 42.682,-41.405 42.688,-41.385 42.696,-41.365 42.726,-41.289 42.772,-41.229 42.831,-41.19 42.949,-41.11 43.114,-41.118 43.289,-41.211 43.463,-41.304 43.633,-41.475 43.761,-41.686 43.89,-41.897 43.965,-42.131 43.972,-42.336 43.979,-42.542 43.916,-42.702 43.797,-42.781 43.739,-42.821 43.668,-42.839 43.589,-42.836 43.55,-42.834 43.509,-42.827 43.467,-42.814 43.446,-42.807 43.425,-42.8 43.404,-42.791 43.395,-42.787 43.377,-42.778 43.377,-42.778 M38.656,-44.512 L43.5,-47.093 M41.105,-43.098 L40.942,-38.14 M28.721,-50.248 L30.689,-49.112 M50.553,-51.503 C50.113,-51.757 49.676,-52.009 49.236,-52.263 48.559,-52.717 47.417,-52.109 46.685,-50.904 45.954,-49.7 45.909,-48.356 46.587,-47.902 47.027,-47.648 47.464,-47.396 47.904,-47.142 M50.236,-51.686 C50.236,-51.686 50.234,-51.743 50.232,-51.771 50.226,-51.842 50.218,-51.912 50.209,-51.982 50.199,-52.05 50.187,-52.118 50.173,-52.185 50.132,-52.382 50.072,-52.564 49.996,-52.729 49.842,-53.058 49.621,-53.312 49.345,-53.475 49.207,-53.557 49.056,-53.616 48.895,-53.652 47.663,-54.363 46.438,-55.07 45.206,-55.781 M42.212,-50.091 L48.895,-53.652 M20.727,-36.828 C21.096,-36.526 21.48,-36.505 21.687,-36.775 21.894,-37.044 21.879,-37.546 21.651,-38.029 21.422,-38.511 21.028,-38.871 20.667,-38.926 20.306,-38.982 20.055,-38.722 20.04,-38.277 20.021,-37.679 20.357,-37.075 20.928,-36.686 21.028,-36.616 21.129,-36.563 21.229,-36.529 21.296,-36.506 21.361,-36.492 21.424,-36.487 21.455,-36.484 21.486,-36.483 21.517,-36.485 21.547,-36.486 21.577,-36.49 21.606,-36.496 21.623,-36.499 21.657,-36.51 21.657,-36.51 M20.04,-38.423 C20.04,-38.423 20.04,-38.423 20.04,-38.423 M50.92,-67.917 C50.92,-67.917 50.92,-67.919 50.92,-67.921 50.918,-67.954 50.916,-67.988 50.912,-68.021 50.906,-68.087 50.897,-68.15 50.885,-68.212 50.861,-68.334 50.825,-68.447 50.778,-68.549 50.685,-68.753 50.548,-68.908 50.376,-69.005 50.028,-69.202 49.558,-69.152 49.069,-68.867 48.58,-68.582 48.112,-68.085 47.767,-67.485 47.051,-66.235 47.056,-64.89 47.78,-64.48 47.952,-64.383 48.156,-64.345 48.38,-64.368 48.492,-64.38 48.608,-64.407 48.727,-64.449 48.757,-64.46 48.787,-64.471 48.816,-64.483 48.846,-64.496 48.876,-64.509 48.906,-64.523 48.932,-64.535 48.982,-64.561 48.982,-64.561 M51.438,-67.617 C50.972,-67.886 50.508,-68.154 50.042,-68.423 49.784,-68.57 49.435,-68.533 49.071,-68.321 48.708,-68.109 48.36,-67.74 48.104,-67.294 47.572,-66.366 47.576,-65.366 48.114,-65.062 48.58,-64.793 49.044,-64.525 49.51,-64.256 M45.647,-68.686 C46.068,-69.393 46.082,-70.172 45.68,-70.425 45.277,-70.678 44.61,-70.31 44.19,-69.603 43.769,-68.895 43.755,-68.116 44.157,-67.863 44.56,-67.61 45.227,-67.978 45.647,-68.686 Z M71.839,-72.624 L71.097,-72.386 70.868,-73.091 71.382,-74.035 72.125,-74.274 72.353,-73.568 71.486,-74.069 M72.353,-73.568 L71.839,-72.624 70.907,-73.163 M30.426,-99.818 C29.77,-100.18 28.719,-99.56 28.078,-98.434 27.437,-97.307 27.449,-96.1 28.104,-95.738 M34.937,-95.751 C34.635,-95.918 34.152,-95.632 33.856,-95.114 33.715,-94.864 33.636,-94.594 33.639,-94.361 33.641,-94.128 33.723,-93.953 33.868,-93.873 34.013,-93.793 34.208,-93.815 34.411,-93.934 34.454,-93.959 34.498,-93.984 34.541,-94.01 M35.167,-95.109 C35.163,-95.51 34.877,-95.668 34.528,-95.462 34.178,-95.256 33.898,-94.764 33.902,-94.363 33.906,-93.962 34.192,-93.804 34.541,-94.01 34.89,-94.216 35.171,-94.708 35.167,-95.109 Z M120.28,-93.609 L121.05,-93.162 M52.406,-136.25 C52.088,-136.42 51.663,-136.37 51.222,-136.1 50.782,-135.84 50.364,-135.39 50.058,-134.84 49.753,-134.3 49.587,-133.71 49.595,-133.21 49.604,-132.71 49.787,-132.33 50.105,-132.16 M54.762,-133.43 C54.473,-133.61 53.989,-133.35 53.682,-132.84 53.375,-132.33 53.361,-131.76 53.65,-131.58 53.65,-131.58 53.65,-131.58 53.65,-131.58 M54.97,-132.77 C54.98,-133.18 54.705,-133.36 54.356,-133.17 54.007,-132.98 53.716,-132.49 53.706,-132.08 53.695,-131.67 53.97,-131.49 54.319,-131.68 54.668,-131.87 54.96,-132.36 54.97,-132.77 Z"/>
    </g>
  </g>
  <g id="C3DA0001" vm2d:name="Axials" vm2d:type="layer">
    <g id="WRAP_001" vm2d:name="" vm2d:type="grnode">
      <g transform="matrix(3.78235,0,0,3.78235,-0,839.841)" stroke-width="0.55" stroke-linecap="round" stroke-linejoin="round" stroke-miterlimit="10">
        <path stroke="#fff" d="M34.859,-94.476 L38.785,-92.21"/>
        <path stroke="#000" stroke-width="0.15" stroke-dasharray="6.35,0.635,1.27,0.635" d="M34.513,-94.676 L39.131,-92.01"/>
      </g>
    </g>
    <g id="WRAP_002" vm2d:name="" vm2d:type="grnode">
      <g transform="matrix(3.78235,0,0,3.78235,-0,839.841)" stroke-width="0.55" stroke-linecap="round" stroke-linejoin="round" stroke-miterlimit="10">
        <path stroke="#fff" d="M42.636,-89.986 L44.687,-88.802 44.674,-79.166 40.935,-81.324 40.95,-71.554 41.991,-70.942"/>
        <path stroke="#000" stroke-width="0.15" stroke-dasharray="6.35,0.635,1.27,0.635" d="M42.29,-90.186 L44.687,-88.802 44.674,-79.166 40.935,-81.324 40.95,-71.554 42.336,-70.74"/>
      </g>
    </g>
    <g id="WRAP_003" vm2d:name="" vm2d:type="grnode">
      <g transform="matrix(3.78235,0,0,3.78235,-0,839.841)" stroke-width="0.55" stroke-linecap="round" stroke-linejoin="round" stroke-miterlimit="10">
        <path stroke="#fff" d="M44.555,-69.436 L45.076,-69.131 45.07,-58.347 40.973,-60.733 40.988,-54.068 41.122,-53.99"/>
        <path stroke="#000" stroke-width="0.15" stroke-dasharray="6.35,0.635,1.27,0.635" d="M44.211,-69.639 L45.076,-69.131 45.07,-58.347 40.973,-60.733 40.988,-54.068 41.469,-53.79"/>
      </g>
    </g>
    <g id="WRAP_004" vm2d:name="" vm2d:type="grnode">
      <g transform="matrix(3.78235,0,0,3.78235,-0,839.841)" stroke-width="0.55" stroke-linecap="round" stroke-linejoin="round" stroke-miterlimit="10">
        <path stroke="#fff" d="M48.823,-49.54 L52.559,-47.381 52.547,-54.029 46.618,-57.451 46.614,-68.232 47.193,-67.898"/>
        <path stroke="#000" stroke-width="0.15" stroke-dasharray="6.35,0.635,1.27,0.635" d="M48.476,-49.741 L52.559,-47.381 52.547,-54.029 46.618,-57.451 46.614,-68.232 47.54,-67.698"/>
      </g>
    </g>
    <g id="WRAP_005" vm2d:name="" vm2d:type="grnode">
      <g transform="matrix(3.78235,0,0,3.78235,-0,839.841)" stroke-width="0.55" stroke-linecap="round" stroke-linejoin="round" stroke-miterlimit="10">
        <path stroke="#fff" d="M50.104,-66.218 L52.624,-64.764 52.615,-74.553 47.241,-77.67 47.235,-87.331 47.622,-87.108"/>
        <path stroke="#000" stroke-width="0.15" stroke-dasharray="6.35,0.635,1.27,0.635" d="M49.757,-66.418 L52.624,-64.764 52.615,-74.553 47.241,-77.67 47.235,-87.331 47.968,-86.908"/>
      </g>
    </g>
    <g id="WRAP_006" vm2d:name="" vm2d:type="grnode">
      <g transform="matrix(3.78235,0,0,3.78235,-0,839.841)" stroke-width="0.55" stroke-linecap="round" stroke-linejoin="round" stroke-miterlimit="10">
        <path stroke="#fff" d="M51.463,-84.89 L59.274,-80.38"/>
        <path stroke="#000" stroke-width="0.15" stroke-dasharray="6.35,0.635,1.27,0.635" d="M51.116,-85.09 L59.621,-80.18"/>
      </g>
    </g>
    <g id="WRAP_007" vm2d:name="" vm2d:type="grnode">
      <g transform="matrix(3.78235,0,0,3.78235,-0,839.841)" stroke-width="0.55" stroke-linecap="round" stroke-linejoin="round" stroke-miterlimit="10">
        <path stroke="#fff" d="M54.713,-132.2 L56.548,-131.14"/>
        <path stroke="#000" stroke-width="0.15" stroke-dasharray="6.35,0.635,1.27,0.635" d="M54.367,-132.4 L56.895,-130.94"/>
      </g>
    </g>
    <g id="WRAP_008" vm2d:name="" vm2d:type="grnode">
      <g transform="matrix(3.78235,0,0,3.78235,-0,839.841)" stroke-width="0.55" stroke-linecap="round" stroke-linejoin="round" stroke-miterlimit="10">
        <path stroke="#fff" d="M70.3,-123.19 L74.429,-120.8"/>
        <path stroke="#000" stroke-width="0.15" stroke-dasharray="6.35,0.635,1.27,0.635" d="M69.954,-123.39 L74.775,-120.6"/>
      </g>
    </g>
    <g id="WRAP_009" vm2d:name="" vm2d:type="grnode">
      <g transform="matrix(3.78235,0,0,3.78235,-0,839.841)" stroke-width="0.55" stroke-linecap="round" stroke-linejoin="round" stroke-miterlimit="10">
        <path stroke="#fff" d="M80.484,-117.3 L82.692,-116.03 83.978,-113.9"/>
        <path stroke="#000" stroke-width="0.15" stroke-dasharray="6.35,0.635,1.27,0.635" d="M80.138,-117.5 L82.692,-116.03 84.185,-113.56"/>
      </g>
    </g>
    <g id="WRAP_010" vm2d:name="" vm2d:type="grnode">
      <g transform="matrix(3.78235,0,0,3.78235,-0,839.841)" stroke-width="0.55" stroke-linecap="round" stroke-linejoin="round" stroke-miterlimit="10">
        <path stroke="#fff" d="M90.268,-103.51 L101.86,-84.348 88.965,-91.823 104.6,-65.97"/>
        <path stroke="#000" stroke-width="0.15" stroke-dasharray="6.35,0.635,1.27,0.635" d="M90.061,-103.85 L101.86,-84.348 88.965,-91.823 104.81,-65.628"/>
      </g>
    </g>
    <g id="WRAP_011" vm2d:name="" vm2d:type="grnode">
      <g transform="matrix(3.78235,0,0,3.78235,-0,839.841)" stroke-width="0.55" stroke-linecap="round" stroke-linejoin="round" stroke-miterlimit="10">
        <path stroke="#fff" d="M126.88,-50.005 L142.4,-41.033 123.94,-71.595 106.66,-81.587 92.475,-105.05"/>
        <path stroke="#000" stroke-width="0.15" stroke-dasharray="6.35,0.635,1.27,0.635" d="M126.54,-50.205 L142.4,-41.033 123.94,-71.595 106.66,-81.587 92.268,-105.39"/>
      </g>
    </g>
    <g id="WRAP_012" vm2d:name="" vm2d:type="grnode">
      <g transform="matrix(3.78235,0,0,3.78235,-0,839.841)" stroke-width="0.55" stroke-linecap="round" stroke-linejoin="round" stroke-miterlimit="10">
        <path stroke="#fff" d="M90.466,-111.55 L107.49,-101.71"/>
        <path stroke="#000" stroke-width="0.15" stroke-dasharray="6.35,0.635,1.27,0.635" d="M90.12,-111.75 L107.84,-101.51"/>
      </g>
    </g>
  </g>
  <g id="C3DC0001" vm2d:name="Callouts" vm2d:type="layer">
    <g>
      <g transform="matrix(3.78235,0,0,3.78235,-0,839.841)" stroke-width="0.85" stroke-linecap="round" stroke-linejoin="miter" stroke-miterlimit="10">
        <path stroke="#fff" d="M42.007,-17.471 L33.414,-39.356"/>
        <path stroke="#fff" stroke-width="0.7" stroke-linecap="butt" stroke-linejoin="round" d="M33.884,-39.356 C33.884,-39.096 33.674,-38.886 33.414,-38.886 33.154,-38.886 32.944,-39.096 32.944,-39.356 32.944,-39.616 33.154,-39.826 33.414,-39.826 33.674,-39.826 33.884,-39.616 33.884,-39.356 Z"/>
        <path stroke="#000" stroke-width="0.15" d="M42.007,-17.471 L33.414,-39.356"/>
        <path fill="#000" d="M33.884,-39.356 C33.884,-39.096 33.674,-38.886 33.414,-38.886 33.154,-38.886 32.944,-39.096 32.944,-39.356 32.944,-39.616 33.154,-39.826 33.414,-39.826 33.674,-39.826 33.884,-39.616 33.884,-39.356 Z"/>
        <text font-family="Arial" font-size="3.93" x="42.6137" y="-14.0935" fill="#000">160</text>
      </g>
    </g>
    <a id="_9bda5aa1f49e8b109b32b8b77283f03d" vm2d:name="160" vm2d:type="grobject" xlink:href="#">
      <path d="M158.88,773.76 L188.25,773.76 188.25,789.01 158.88,789.01 Z" fill="#fff" fill-opacity="0"/>
    </a>
    <g>
      <g transform="matrix(3.78235,0,0,3.78235,-0,839.841)" stroke-width="0.85" stroke-linecap="round" stroke-linejoin="miter" stroke-miterlimit="10">
        <path stroke="#fff" d="M46.845,-162.52 L74.564,-147.63"/>
        <path stroke="#fff" stroke-width="0.7" stroke-linecap="butt" stroke-linejoin="round" d="M75.034,-147.63 C75.034,-147.37 74.824,-147.16 74.564,-147.16 74.305,-147.16 74.094,-147.37 74.094,-147.63 74.094,-147.89 74.305,-148.1 74.564,-148.1 74.824,-148.1 75.034,-147.89 75.034,-147.63 Z"/>
        <path stroke="#000" stroke-width="0.15" d="M46.845,-162.52 L74.564,-147.63"/>
        <path fill="#000" d="M75.034,-147.63 C75.034,-147.37 74.824,-147.16 74.564,-147.16 74.305,-147.16 74.094,-147.37 74.094,-147.63 74.094,-147.89 74.305,-148.1 74.564,-148.1 74.824,-148.1 75.034,-147.89 75.034,-147.63 Z"/>
        <text font-family="Arial" font-size="3.93" x="39.6879" y="-163.176" fill="#000">175</text>
      </g>
    </g>
    <a id="_2121aab13c09e64658e4c93654e3da73" vm2d:name="175" vm2d:type="grobject" xlink:href="#">
      <path d="M147.82,209.88 L177.18,209.88 177.18,225.13 147.82,225.13 Z" fill="#fff" fill-opacity="0"/>
    </a>
    <g>
      <g transform="matrix(3.78235,0,0,3.78235,-0,839.841)" stroke-width="0.85" stroke-linecap="round" stroke-linejoin="miter" stroke-miterlimit="10">
        <path stroke="#fff" d="M88.553,-18.279 L64.618,-74.263"/>
        <path stroke="#fff" stroke-width="0.7" stroke-linecap="butt" stroke-linejoin="round" d="M65.088,-74.263 C65.088,-74.003 64.878,-73.793 64.618,-73.793 64.358,-73.793 64.148,-74.003 64.148,-74.263 64.148,-74.522 64.358,-74.733 64.618,-74.733 64.878,-74.733 65.088,-74.522 65.088,-74.263 Z"/>
        <path stroke="#000" stroke-width="0.15" d="M88.553,-18.279 L64.618,-74.263"/>
        <path fill="#000" d="M65.088,-74.263 C65.088,-74.003 64.878,-73.793 64.618,-73.793 64.358,-73.793 64.148,-74.003 64.148,-74.263 64.148,-74.522 64.358,-74.733 64.618,-74.733 64.878,-74.733 65.088,-74.522 65.088,-74.263 Z"/>
        <text font-family="Arial" font-size="3.93" x="89.1598" y="-14.902" fill="#000">190</text>
      </g>
    </g>
    <a id="a1a4a471c9e56d021a9322867e071708" vm2d:name="190" vm2d:type="grobject" xlink:href="#">
      <path d="M334.94,770.7 L364.3,770.7 364.3,785.96 334.94,785.96 Z" fill="#fff" fill-opacity="0"/>
    </a>
    <g>
      <g transform="matrix(3.78235,0,0,3.78235,-0,839.841)" stroke-width="0.85" stroke-linecap="round" stroke-linejoin="miter" stroke-miterlimit="10">
        <path stroke="#fff" d="M7.7283,-112.12 L26.744,-100.64"/>
        <path stroke="#fff" stroke-width="0.7" stroke-linecap="butt" stroke-linejoin="round" d="M27.214,-100.64 C27.214,-100.38 27.003,-100.17 26.744,-100.17 26.484,-100.17 26.274,-100.38 26.274,-100.64 26.274,-100.9 26.484,-101.11 26.744,-101.11 27.003,-101.11 27.214,-100.9 27.214,-100.64 Z"/>
        <path stroke="#000" stroke-width="0.15" d="M7.7283,-112.12 L26.744,-100.64"/>
        <path fill="#000" d="M27.214,-100.64 C27.214,-100.38 27.003,-100.17 26.744,-100.17 26.484,-100.17 26.274,-100.38 26.274,-100.64 26.274,-100.9 26.484,-101.11 26.744,-101.11 27.003,-101.11 27.214,-100.9 27.214,-100.64 Z"/>
        <text font-family="Arial" font-size="3.93" x="0.571506" y="-112.778" fill="#000">195</text>
      </g>
    </g>
    <a id="cd263019c01bd70031ff86e9632d8f19" vm2d:name="195" vm2d:type="grobject" xlink:href="#">
      <path d="M-0.13425,400.5 L29.231,400.5 29.231,415.75 -0.13425,415.75 Z" fill="#fff" fill-opacity="0"/>
    </a>
    <g>
      <g transform="matrix(3.78235,0,0,3.78235,-0,839.841)" stroke-width="0.85" stroke-linecap="round" stroke-linejoin="miter" stroke-miterlimit="10">
        <path stroke="#fff" d="M9.5454,-63.96 L40.396,-69.132"/>
        <path stroke="#fff" stroke-width="0.7" stroke-linecap="butt" stroke-linejoin="round" d="M40.866,-69.132 C40.866,-68.873 40.656,-68.663 40.396,-68.663 40.137,-68.663 39.926,-68.873 39.926,-69.132 39.926,-69.392 40.137,-69.603 40.396,-69.603 40.656,-69.603 40.866,-69.392 40.866,-69.132 Z"/>
        <path stroke="#fff" d="M9.5454,-63.96 L48.462,-62.901"/>
        <path stroke="#fff" stroke-width="0.7" stroke-linecap="butt" stroke-linejoin="round" d="M48.932,-62.901 C48.932,-62.642 48.721,-62.431 48.462,-62.431 48.202,-62.431 47.992,-62.642 47.992,-62.901 47.992,-63.161 48.202,-63.371 48.462,-63.371 48.721,-63.371 48.932,-63.161 48.932,-62.901 Z"/>
        <path stroke="#000" stroke-width="0.15" d="M9.5454,-63.96 L40.396,-69.132"/>
        <path fill="#000" d="M40.866,-69.132 C40.866,-68.873 40.656,-68.663 40.396,-68.663 40.137,-68.663 39.926,-68.873 39.926,-69.132 39.926,-69.392 40.137,-69.603 40.396,-69.603 40.656,-69.603 40.866,-69.392 40.866,-69.132 Z"/>
        <path stroke="#000" stroke-width="0.15" d="M9.5454,-63.96 L48.462,-62.901"/>
        <path fill="#000" d="M48.932,-62.901 C48.932,-62.642 48.721,-62.431 48.462,-62.431 48.202,-62.431 47.992,-62.642 47.992,-62.901 47.992,-63.161 48.202,-63.371 48.462,-63.371 48.721,-63.371 48.932,-63.161 48.932,-62.901 Z"/>
        <text font-family="Arial" font-size="3.93" x="2.3886" y="-62.5988" fill="#000">200</text>
      </g>
    </g>
    <a id="_9e013f62d783bab96dd3eb9453521929" vm2d:name="200" vm2d:type="grobject" xlink:href="#">
      <path d="M6.7387,590.3 L36.104,590.3 36.104,605.55 6.7387,605.55 Z" fill="#fff" fill-opacity="0"/>
    </a>
    <g>
      <g transform="matrix(3.78235,0,0,3.78235,-0,839.841)" stroke-width="0.85" stroke-linecap="round" stroke-linejoin="miter" stroke-miterlimit="10">
        <path stroke="#fff" d="M160.6,-94.703 L139.69,-82.137"/>
        <path stroke="#fff" stroke-width="0.7" stroke-linecap="butt" stroke-linejoin="round" d="M140.16,-82.137 C140.16,-81.877 139.95,-81.667 139.69,-81.667 139.43,-81.667 139.22,-81.877 139.22,-82.137 139.22,-82.396 139.43,-82.607 139.69,-82.607 139.95,-82.607 140.16,-82.396 140.16,-82.137 Z"/>
        <path stroke="#000" stroke-width="0.15" d="M160.6,-94.703 L139.69,-82.137"/>
        <path fill="#000" d="M140.16,-82.137 C140.16,-81.877 139.95,-81.667 139.69,-81.667 139.43,-81.667 139.22,-81.877 139.22,-82.137 139.22,-82.396 139.43,-82.607 139.69,-82.607 139.95,-82.607 140.16,-82.396 140.16,-82.137 Z"/>
        <text font-family="Arial" font-size="3.93" x="161.212" y="-95.3579" fill="#000">205</text>
      </g>
    </g>
    <a id="_421b8ff8aea451c4e891a24afd88bcbb" vm2d:name="205" vm2d:type="grobject" xlink:href="#">
      <path d="M607.46,466.39 L636.83,466.39 636.83,481.64 607.46,481.64 Z" fill="#fff" fill-opacity="0"/>
    </a>
    <g>
      <g transform="matrix(3.78235,0,0,3.78235,-0,839.841)" stroke-width="0.85" stroke-linecap="round" stroke-linejoin="miter" stroke-miterlimit="10">
        <path stroke="#fff" d="M27.969,-150.12 L48.613,-137.88"/>
        <path stroke="#fff" stroke-width="0.7" stroke-linecap="butt" stroke-linejoin="round" d="M49.083,-137.88 C49.083,-137.62 48.872,-137.41 48.613,-137.41 48.353,-137.41 48.143,-137.62 48.143,-137.88 48.143,-138.14 48.353,-138.35 48.613,-138.35 48.872,-138.35 49.083,-138.14 49.083,-137.88 Z"/>
        <path stroke="#000" stroke-width="0.15" d="M27.969,-150.12 L48.613,-137.88"/>
        <path fill="#000" d="M49.083,-137.88 C49.083,-137.62 48.872,-137.41 48.613,-137.41 48.353,-137.41 48.143,-137.62 48.143,-137.88 48.143,-138.14 48.353,-138.35 48.613,-138.35 48.872,-138.35 49.083,-138.14 49.083,-137.88 Z"/>
        <text font-family="Arial" font-size="3.93" x="20.812" y="-150.771" fill="#000">210</text>
      </g>
    </g>
    <a id="_1aeca8b48166ca9ff2929b9051dda92b" vm2d:name="210" vm2d:type="grobject" xlink:href="#">
      <path d="M76.423,256.8 L105.79,256.8 105.79,272.05 76.423,272.05 Z" fill="#fff" fill-opacity="0"/>
    </a>
    <g>
      <g transform="matrix(3.78235,0,0,3.78235,-0,839.841)" stroke-width="0.85" stroke-linecap="round" stroke-linejoin="miter" stroke-miterlimit="10">
        <path stroke="#fff" d="M139.88,-113.08 L117.77,-100.1"/>
        <path stroke="#fff" stroke-width="0.7" stroke-linecap="butt" stroke-linejoin="round" d="M118.24,-100.1 C118.24,-99.844 118.03,-99.633 117.77,-99.633 117.51,-99.633 117.3,-99.844 117.3,-100.1 117.3,-100.36 117.51,-100.57 117.77,-100.57 118.03,-100.57 118.24,-100.36 118.24,-100.1 Z"/>
        <path stroke="#000" stroke-width="0.15" d="M139.88,-113.08 L117.77,-100.1"/>
        <path fill="#000" d="M118.24,-100.1 C118.24,-99.844 118.03,-99.633 117.77,-99.633 117.51,-99.633 117.3,-99.844 117.3,-100.1 117.3,-100.36 117.51,-100.57 117.77,-100.57 118.03,-100.57 118.24,-100.36 118.24,-100.1 Z"/>
        <text font-family="Arial" font-size="3.93" x="140.491" y="-113.733" fill="#000">220</text>
      </g>
    </g>
    <a id="_2dfbc4712a085ba43a254b9b7cc3bc66" vm2d:name="220" vm2d:type="grobject" xlink:href="#">
      <path d="M529.09,396.89 L558.46,396.89 558.46,412.14 529.09,412.14 Z" fill="#fff" fill-opacity="0"/>
    </a>
  </g>
  <g id="C3DP0001" vm2d:name="Panels" vm2d:type="layer"/>
  <g id="IsoG220" vm2d:name="" vm2d:type="grnode">
    <g id="IsoG221" vm2d:name="" vm2d:type="grnode">
      <g id="g103" vm2d:name="" vm2d:type="grnode">
        <g transform="matrix(3.78235,0,0,3.78235,-0,839.841)">
          <path fill="#fff" d="M83.582,-202.73 L89.583,-202.73 89.583,-196.72 83.582,-196.72 83.582,-202.73 Z"/>
          <path fill="#000" d="M83.782,-202.53 L89.384,-202.53 89.384,-196.92 83.782,-196.92 83.782,-202.53 Z"/>
          <path fill="#fff" d="M83.982,-202.33 L89.183,-202.33 89.183,-197.12 83.982,-197.12 83.982,-202.33 Z"/>
        </g>
      </g>
    </g>
    <g id="g108" vm2d:name="" vm2d:type="grnode">
      <g transform="matrix(3.78235,0,0,3.78235,-0,839.841)">
        <path fill="#000" d="M87.515,-198.81 C87.515,-198.96 87.515,-199.11 87.515,-199.26 87.242,-199.26 86.971,-199.26 86.698,-199.26 86.698,-199.45 86.698,-199.65 86.698,-199.85 87.212,-199.85 87.722,-199.85 88.236,-199.85 88.236,-199.37 88.236,-198.91 88.236,-198.44 88.086,-198.3 87.869,-198.17 87.585,-198.06 87.303,-197.95 87.013,-197.9 86.725,-197.9 86.352,-197.9 86.033,-197.98 85.757,-198.13 85.481,-198.28 85.273,-198.51 85.136,-198.79 84.996,-199.09 84.929,-199.4 84.929,-199.74 84.929,-200.1 85.006,-200.43 85.16,-200.72 85.314,-201 85.539,-201.22 85.839,-201.38 86.065,-201.49 86.348,-201.55 86.686,-201.55 87.125,-201.55 87.467,-201.46 87.713,-201.28 87.961,-201.09 88.119,-200.84 88.19,-200.51 87.953,-200.46 87.717,-200.42 87.48,-200.38 87.43,-200.56 87.336,-200.69 87.199,-200.79 87.061,-200.89 86.89,-200.94 86.686,-200.94 86.372,-200.94 86.126,-200.85 85.94,-200.65 85.757,-200.45 85.665,-200.16 85.665,-199.77 85.665,-199.35 85.757,-199.03 85.945,-198.82 86.131,-198.61 86.375,-198.51 86.678,-198.51 86.827,-198.51 86.977,-198.54 87.128,-198.6 87.278,-198.65 87.406,-198.72 87.515,-198.81 Z"/>
      </g>
    </g>
  </g>
  <g id="IsoG45" vm2d:name="" vm2d:type="grnode">
    <g id="g729" vm2d:name="" vm2d:type="grnode">
      <g transform="matrix(3.78235,0,0,3.78235,-0,839.841)" stroke-width="0.18004" stroke-linecap="round" stroke-linejoin="miter" stroke-miterlimit="2">
        <path fill="#fff" stroke="#000" d="M84.803,-185.61 L90.184,-188.72 91.274,-188.08 91.274,-184.5 84.803,-180.76 84.803,-178.96 83.713,-179.6 80.602,-181.4 83.713,-186.78 84.803,-186.14 84.803,-184.35 84.803,-185.61 Z"/>
        <path stroke="#000" stroke-linejoin="round" d="M84.803,-185.61 L90.184,-188.72 91.274,-188.08 91.274,-184.5 84.803,-180.76 84.803,-178.96 83.713,-179.6 80.602,-181.4 83.713,-186.78 84.803,-186.14 84.803,-184.35 91.274,-188.08 M84.803,-186.14 L81.712,-180.76 M84.803,-178.96 L81.712,-180.76 80.602,-181.4"/>
      </g>
    </g>
    <g id="IsoG46" vm2d:name="" vm2d:type="grnode">
      <g id="g739" vm2d:name="" vm2d:type="grnode">
        <g transform="matrix(3.78235,0,0,3.78235,-0,839.841)" stroke-width="0.18004" stroke-linecap="round" stroke-linejoin="round" stroke-miterlimit="2">
          <path fill="#000" stroke="#000" d="M89.084,-183.88 L89.794,-184.29 89.844,-184.32 89.894,-184.35 89.944,-184.39 89.984,-184.42 90.024,-184.45 90.074,-184.48 90.114,-184.51 90.144,-184.55 90.184,-184.58 90.224,-184.62 90.254,-184.66 90.284,-184.69 90.314,-184.73 90.344,-184.77 90.374,-184.8 90.394,-184.84 90.424,-184.89 90.454,-184.93 90.474,-184.98 90.504,-185.02 90.524,-185.08 90.544,-185.13 90.574,-185.18 90.594,-185.24 90.604,-185.3 90.624,-185.36 90.644,-185.42 90.664,-185.48 90.674,-185.55 90.684,-185.62 90.694,-185.69 90.704,-185.76 90.704,-185.83 90.714,-185.9 90.714,-185.97 90.704,-186.06 90.704,-186.14 90.704,-186.21 90.684,-186.29 90.674,-186.35 90.654,-186.41 90.634,-186.47 90.614,-186.52 90.584,-186.57 90.554,-186.61 90.524,-186.65 90.484,-186.68 90.444,-186.7 90.404,-186.72 90.364,-186.74 90.334,-186.74 90.284,-186.75 90.244,-186.75 90.204,-186.74 90.154,-186.73 90.114,-186.72 90.074,-186.71 90.034,-186.69 89.994,-186.67 89.944,-186.65 89.884,-186.62 89.824,-186.59 89.764,-186.55 89.084,-186.16 89.084,-183.88 Z"/>
          <path fill="#fff" stroke="#000" d="M90.244,-186.4 L90.284,-186.38 90.314,-186.35 90.344,-186.31 90.374,-186.27 90.394,-186.22 90.414,-186.16 90.424,-186.09 90.434,-186.01 90.444,-185.92 90.444,-185.82 90.444,-185.75 90.444,-185.68 90.434,-185.61 90.424,-185.55 90.414,-185.48 90.404,-185.42 90.394,-185.36 90.374,-185.3 90.354,-185.24 90.344,-185.19 90.324,-185.13 90.314,-185.13 90.294,-185.08 90.274,-185.03 90.244,-184.99 90.224,-184.95 90.204,-184.92 90.184,-184.89 90.154,-184.86 90.134,-184.83 90.104,-184.79 90.074,-184.77 90.034,-184.74 90.004,-184.7 89.964,-184.67 89.914,-184.64 89.874,-184.61 89.824,-184.58 89.764,-184.55 89.344,-184.3 89.344,-186.04 89.754,-186.28 89.824,-186.31 89.884,-186.35 89.934,-186.37 89.984,-186.39 90.024,-186.41 90.064,-186.42 90.094,-186.43 90.134,-186.43 90.174,-186.43 90.214,-186.42 90.244,-186.4 Z"/>
          <path fill="#000" stroke="#000" d="M87.193,-184.19 L87.123,-183.88 87.093,-183.74 87.073,-183.6 87.043,-183.47 87.023,-183.35 87.003,-183.22 86.983,-183.1 86.973,-182.98 86.873,-183.42 86.563,-184.7 86.303,-184.55 86.833,-182.58 87.093,-182.73 87.574,-185.01 87.634,-184.78 88.044,-183.28 88.314,-183.44 88.834,-186.02 88.564,-185.86 88.274,-184.2 88.274,-184.19 88.184,-183.68 88.094,-184.05 87.724,-185.37 87.403,-185.19 87.193,-184.19 Z"/>
          <path fill="#000" stroke="#000" d="M84.803,-181.41 L85.073,-181.56 85.073,-182.6 86.003,-183.13 86.003,-183.4 85.073,-182.87 85.073,-183.57 86.143,-184.19 86.143,-184.46 84.803,-183.69 84.803,-181.41 Z"/>
        </g>
      </g>
    </g>
  </g>
</svg>
