<?xml version="1.0" encoding="UTF-8" standalone="no"?>
<!DOCTYPE svg SYSTEM "http://www.w3.org/Graphics/SVG/1.1/DTD/svg11.dtd" [
<!ENTITY % SVG.External.attrib
"xmlns:vm2d CDATA #FIXED 'http://www.cortona3d.com/vm2d'
vm2d:name CDATA #IMPLIED
vm2d:type CDATA #IMPLIED">
]>
<svg xmlns="http://www.w3.org/2000/svg" xmlns:vm2d="http://www.cortona3d.com/vm2d" xmlns:xlink="http://www.w3.org/1999/xlink" version="1.1" width="170mm" height="222mm" viewBox="0 0 643 840" fill="none" fill-rule="evenodd" stroke-miterlimit="5">
  <title>Untitled</title>
  <desc>"Generator:ParallelGraphics Cortona2D","ProfileId:WebCGM""ProfileEd:2.1""ColourClass:colour""Source:Cortona2D Editor Pro 14.2.0.142""Date:20250507""Grid:isometric"</desc>
  <rect width="643" height="840" fill="#fff"/>
  <defs/>
  <g id="C3DB0001" vm2d:name="Background" vm2d:type="layer"/>
  <g id="C3DG0001" vm2d:name="Drawing" vm2d:type="layer">
    <g transform="matrix(3.78235,0,0,3.78235,-0,839.841)" stroke-width="0.18" stroke-linecap="round" stroke-linejoin="round" stroke-miterlimit="10">
      <path stroke="#000" d="M75.443,-134.29 C75.201,-134.43 74.96,-134.57 74.718,-134.71 74.484,-134.85 74.102,-134.63 73.865,-134.22 73.627,-133.82 73.624,-133.37 73.858,-133.23 74.1,-133.09 74.341,-132.95 74.583,-132.82 M77.109,-131.75 C76.323,-132.2 75.541,-132.66 74.755,-133.11 74.614,-133.19 74.616,-133.46 74.758,-133.7 74.901,-133.95 75.13,-134.08 75.271,-134 76.057,-133.54 76.839,-133.09 77.625,-132.64 M81.742,-130.17 C81.742,-130.17 81.671,-131.03 81.635,-131.46 81.635,-131.47 81.632,-131.47 81.631,-131.48 81.63,-131.48 81.629,-131.48 81.628,-131.48 81.61,-131.5 81.591,-131.52 81.573,-131.54 81.538,-131.58 81.505,-131.63 81.475,-131.67 81.418,-131.76 81.369,-131.85 81.333,-131.95 81.325,-131.97 81.317,-131.99 81.309,-132.02 M87.057,-132.65 C87.057,-132.65 87.054,-132.56 87.05,-132.52 87.045,-132.48 87.039,-132.43 87.03,-132.39 87.001,-132.26 86.951,-132.14 86.886,-132.02 86.863,-131.98 86.838,-131.94 86.812,-131.9 86.785,-131.86 86.725,-131.78 86.73,-131.78 86.73,-131.78 86.665,-131.71 86.631,-131.67 86.595,-131.63 86.558,-131.59 86.519,-131.56 86.48,-131.52 86.438,-131.49 86.396,-131.45 86.311,-131.38 86.218,-131.32 86.119,-131.25 85.92,-131.13 85.697,-131.02 85.457,-130.93 84.973,-130.76 84.432,-130.67 83.893,-130.67 83.692,-130.67 83.494,-130.69 83.302,-130.71 83.173,-130.73 83.048,-130.76 82.926,-130.79 82.866,-130.8 82.806,-130.82 82.747,-130.84 82.737,-130.84 82.725,-130.84 82.718,-130.83 82.227,-130.5 81.735,-130.16 81.244,-129.83 81.235,-129.82 81.228,-129.81 81.229,-129.8 81.318,-128.71 81.408,-127.62 81.498,-126.54 81.499,-126.52 81.506,-126.51 81.517,-126.51 81.822,-126.33 82.128,-126.15 82.434,-125.98 82.439,-125.97 82.445,-125.97 82.451,-125.97 82.458,-125.97 82.464,-125.98 82.469,-125.98 82.907,-126.28 83.346,-126.58 83.785,-126.88 83.928,-126.98 84.115,-127.04 84.317,-127.06 85.034,-127.14 85.71,-127.23 86.368,-127.55 87.334,-128.02 87.892,-128.76 87.831,-129.5 87.743,-130.59 87.652,-131.68 87.562,-132.76 87.522,-133.24 87.245,-133.67 86.761,-134.01 85.886,-134.63 84.472,-134.82 83.168,-134.51 82.522,-134.35 81.95,-134.08 81.523,-133.73 81.273,-133.52 81.073,-133.29 80.943,-133.04 80.869,-132.91 80.814,-132.76 80.784,-132.62 80.772,-132.57 80.762,-132.5 80.757,-132.45 80.755,-132.42 80.753,-132.4 80.752,-132.37 80.751,-132.35 80.752,-132.32 80.751,-132.29 80.75,-132.28 80.748,-132.24 80.748,-132.24 80.749,-132.25 80.743,-132.21 80.738,-132.2 80.732,-132.18 80.726,-132.16 80.718,-132.14 80.71,-132.12 80.7,-132.11 80.69,-132.09 80.679,-132.07 80.655,-132.04 80.655,-132.04 80.66,-132.05 80.632,-132.01 80.616,-132 80.6,-131.98 80.583,-131.97 80.565,-131.95 80.547,-131.94 80.528,-131.92 80.508,-131.91 80.07,-131.61 79.63,-131.31 79.192,-131.01 79.183,-131 79.176,-130.99 79.177,-130.98 79.266,-129.9 79.356,-128.81 79.446,-127.72 79.447,-127.71 79.453,-127.7 79.464,-127.69 79.77,-127.52 80.076,-127.34 80.382,-127.16 80.386,-127.16 80.392,-127.16 80.399,-127.16 80.406,-127.16 80.412,-127.16 80.416,-127.16 80.741,-127.39 81.391,-127.83 81.391,-127.83 M87.054,-132.6 C87.054,-132.6 87.055,-132.66 87.054,-132.68 87.053,-132.71 87.048,-132.76 87.048,-132.76 M87.046,-132.5 C87.046,-132.5 87.048,-132.51 87.049,-132.52 87.051,-132.54 87.053,-132.58 87.053,-132.58 M87.028,-132.39 L87.031,-132.4 M81.268,-132.23 C81.268,-132.23 81.274,-132.17 81.279,-132.15 81.283,-132.12 81.289,-132.09 81.295,-132.07 81.301,-132.04 81.316,-132 81.316,-132 M81.324,-131.97 L81.338,-131.93 M80.843,-130.44 C80.843,-130.44 80.841,-130.43 80.839,-130.42 80.833,-130.39 80.825,-130.37 80.816,-130.34 80.807,-130.32 80.795,-130.29 80.783,-130.27 80.757,-130.22 80.726,-130.17 80.691,-130.13 80.674,-130.11 80.656,-130.09 80.636,-130.07 80.632,-130.07 80.621,-130.06 80.621,-130.06 M83.082,-129.19 C83.005,-129.22 82.89,-129.14 82.826,-129.01 82.796,-128.95 82.781,-128.89 82.785,-128.84 82.79,-128.79 82.813,-128.75 82.85,-128.73 82.887,-128.72 82.934,-128.73 82.982,-128.76 83.03,-128.79 83.074,-128.85 83.105,-128.91 83.135,-128.97 83.15,-129.03 83.146,-129.08 83.142,-129.14 83.118,-129.17 83.082,-129.19 Z M81.316,-128.75 C81.316,-128.75 81.3,-128.77 81.29,-128.78 81.278,-128.79 81.264,-128.8 81.249,-128.8 81.121,-128.85 80.93,-128.72 80.824,-128.51 80.772,-128.41 80.748,-128.31 80.755,-128.22 80.762,-128.13 80.801,-128.07 80.862,-128.04 80.956,-128.01 81.088,-128.07 81.196,-128.2 81.231,-128.24 81.262,-128.28 81.287,-128.33 81.3,-128.36 81.311,-128.38 81.321,-128.41 81.328,-128.43 81.339,-128.47 81.339,-128.47 M80.986,-128.72 C80.986,-128.72 80.983,-128.7 80.981,-128.7 80.975,-128.67 80.968,-128.64 80.958,-128.62 80.949,-128.59 80.938,-128.57 80.925,-128.54 80.9,-128.49 80.869,-128.45 80.834,-128.4 80.817,-128.38 80.798,-128.37 80.779,-128.35 80.774,-128.34 80.763,-128.34 80.763,-128.34 M85.523,-130.96 C85.523,-130.96 85.406,-130.98 85.347,-130.99 85.283,-131 85.219,-131.01 85.154,-131.02 85.089,-131.03 85.023,-131.03 84.958,-131.04 84.759,-131.05 84.558,-131.05 84.356,-131.04 84.155,-131.02 83.954,-131 83.758,-130.96 83.627,-130.93 83.499,-130.9 83.374,-130.86 83.312,-130.84 83.25,-130.82 83.189,-130.8 83.147,-130.79 83.064,-130.76 83.064,-130.76 M78.07,-180.85 C78.07,-180.85 78.064,-180.81 78.066,-180.79 78.071,-180.72 78.084,-180.66 78.102,-180.6 78.123,-180.53 78.15,-180.46 78.183,-180.4 78.199,-180.37 78.222,-180.34 78.242,-180.31 78.261,-180.28 78.278,-180.25 78.301,-180.22 78.301,-180.22 78.447,-180.1 78.448,-180.1 78.477,-180.08 78.544,-180.07 78.544,-180.07 M79.365,-170.13 C79.365,-170.13 79.298,-170.14 79.268,-170.16 79.213,-170.19 79.164,-170.24 79.122,-170.28 79.075,-170.34 79.036,-170.4 79.003,-170.46 78.97,-170.53 78.944,-170.59 78.923,-170.66 78.905,-170.72 78.892,-170.78 78.886,-170.85 78.885,-170.87 78.891,-170.91 78.891,-170.91 M80.186,-160.19 C80.186,-160.19 80.118,-160.2 80.089,-160.22 80.034,-160.25 79.985,-160.3 79.943,-160.35 79.896,-160.4 79.857,-160.46 79.824,-160.52 79.791,-160.59 79.765,-160.65 79.744,-160.72 79.726,-160.78 79.713,-160.85 79.707,-160.91 79.706,-160.93 79.711,-160.97 79.711,-160.97 M81.104,-187.99 C80.367,-188.3 79.381,-188.3 78.569,-187.99 77.756,-187.68 77.261,-187.11 77.296,-186.54 77.328,-185.99 77.826,-185.53 78.597,-185.32 79.368,-185.11 80.29,-185.19 81.008,-185.53 81.726,-185.87 82.128,-186.42 82.057,-186.96 82.02,-187.24 81.857,-187.5 81.587,-187.71 M78.477,-179.9 C78.532,-179.93 78.558,-180.01 78.549,-180.13 78.54,-180.24 78.496,-180.38 78.427,-180.51 78.263,-180.82 78.059,-180.94 77.872,-180.83 77.794,-180.79 77.755,-180.7 77.764,-180.58 77.774,-180.47 77.83,-180.34 77.923,-180.22 77.995,-180.13 78.109,-180.04 78.223,-179.97 78.336,-179.9 78.433,-179.88 78.477,-179.9 Z M79.298,-169.96 C79.353,-169.99 79.379,-170.08 79.37,-170.19 79.36,-170.3 79.316,-170.44 79.248,-170.57 79.084,-170.88 78.88,-171 78.693,-170.89 78.615,-170.85 78.576,-170.76 78.585,-170.64 78.594,-170.53 78.651,-170.4 78.743,-170.28 78.816,-170.19 78.93,-170.1 79.044,-170.03 79.157,-169.97 79.254,-169.94 79.298,-169.96 Z M80.118,-160.02 C80.174,-160.06 80.2,-160.14 80.191,-160.25 80.181,-160.36 80.137,-160.5 80.068,-160.63 79.905,-160.95 79.701,-161.06 79.514,-160.95 79.435,-160.91 79.396,-160.82 79.406,-160.7 79.415,-160.59 79.472,-160.46 79.564,-160.34 79.637,-160.25 79.751,-160.16 79.864,-160.09 79.978,-160.03 80.075,-160 80.118,-160.02 Z M81.674,-138.48 L81.802,-138.61 M81.507,-136.61 C81.373,-138.24 81.239,-139.86 81.105,-141.48 81.043,-141.59 80.999,-141.71 80.983,-141.82 80.967,-141.93 80.982,-142.01 81.023,-142.05 81.091,-142.12 81.245,-142.07 81.401,-141.94 81.557,-141.8 81.679,-141.61 81.7,-141.47 81.705,-141.43 81.703,-141.38 81.698,-141.35 81.685,-141.29 81.642,-141.23 81.588,-141.2 81.722,-139.58 81.856,-137.96 81.99,-136.33 82.851,-135.95 84.021,-135.94 84.993,-136.3 85.965,-136.66 86.563,-137.33 86.528,-138.01 85.175,-154.38 83.83,-170.66 82.477,-187.03 M76.869,-186.52 C78.223,-170.14 79.568,-153.87 80.921,-137.5 80.974,-137.17 81.177,-136.86 81.507,-136.61 81.609,-136.68 81.709,-136.75 81.811,-136.82 81.676,-138.44 81.543,-140.06 81.408,-141.69 81.408,-141.69 81.343,-141.83 81.343,-141.83 81.326,-141.87 81.311,-141.92 81.301,-141.97 81.297,-141.98 81.295,-142.01 81.295,-142.01 M81.698,-141.35 L81.7,-141.47 M75.918,-209.93 C75.894,-210.22 75.871,-210.51 75.847,-210.8 75.629,-210.99 75.506,-211.23 75.493,-211.47 75.452,-212.21 76.361,-212.87 77.528,-212.96 78.696,-213.05 79.687,-212.54 79.748,-211.8 79.79,-211.3 79.377,-210.8 78.681,-210.52 77.984,-210.23 77.121,-210.2 76.451,-210.45 76.341,-210.37 76.23,-210.3 76.12,-210.22 76.072,-210.19 76.027,-210.14 75.989,-210.09 75.925,-209.99 75.892,-209.88 75.899,-209.79 75.906,-209.7 75.913,-209.61 75.921,-209.53 76.827,-209.15 78.037,-209.15 79.034,-209.53 80.03,-209.91 80.637,-210.61 80.593,-211.31 80.562,-211.7 80.513,-212.04 80.273,-212.36 80.065,-212.63 79.782,-212.84 79.475,-212.99 78.908,-213.27 78.164,-213.39 77.42,-213.32 76.695,-213.25 76.045,-213 75.452,-212.58 74.837,-212.15 74.686,-211.51 74.744,-210.8 74.788,-210.46 74.987,-210.14 75.317,-209.87 75.382,-209.92 75.447,-209.96 75.512,-210.01 75.577,-210.05 75.642,-210.1 75.707,-210.14 75.839,-208.55 75.969,-206.96 76.101,-205.37 M76.22,-205.45 C76.22,-205.45 76.219,-205.45 76.219,-205.45 76.21,-205.44 76.203,-205.42 76.199,-205.41 76.193,-205.39 76.189,-205.37 76.187,-205.35 76.184,-205.33 76.183,-205.3 76.183,-205.28 76.184,-205.26 76.186,-205.23 76.188,-205.2 76.19,-205.17 76.195,-205.14 76.2,-205.11 76.223,-204.98 76.267,-204.84 76.323,-204.73 76.388,-204.59 76.47,-204.48 76.561,-204.41 76.609,-204.37 76.659,-204.34 76.711,-204.32 76.735,-204.31 76.761,-204.3 76.787,-204.3 76.811,-204.3 76.837,-204.3 76.861,-204.3 76.878,-204.3 76.912,-204.31 76.912,-204.31 M76.383,-210.4 C76.383,-210.4 76.41,-210.43 76.421,-210.45 76.437,-210.48 76.45,-210.51 76.458,-210.54 76.483,-210.63 76.459,-210.71 76.398,-210.73 76.348,-210.75 76.28,-210.73 76.219,-210.67 76.158,-210.61 76.114,-210.52 76.103,-210.44 76.091,-210.36 76.116,-210.3 76.166,-210.28 76.178,-210.27 76.204,-210.28 76.204,-210.28 M76.344,-209.38 C76.465,-207.93 76.584,-206.48 76.705,-205.02 77.006,-204.7 77.053,-204.35 76.811,-204.21 76.66,-204.13 76.47,-204.18 76.305,-204.36 76.141,-204.53 76.026,-204.8 75.999,-205.07 M75.994,-205.15 C75.994,-205.25 76.017,-205.32 76.062,-205.35 76.074,-205.36 76.087,-205.37 76.101,-205.37 76.162,-205.41 76.223,-205.45 76.285,-205.49 76.174,-206.84 76.064,-208.17 75.953,-209.51 M76.109,-210.41 C76.109,-210.41 76.111,-210.42 76.112,-210.42 76.137,-210.43 76.16,-210.45 76.181,-210.48 76.203,-210.5 76.223,-210.53 76.239,-210.56 76.255,-210.59 76.268,-210.62 76.276,-210.65 76.283,-210.67 76.284,-210.72 76.284,-210.72 M75.365,-209.91 C75.865,-203.85 76.362,-197.84 76.862,-191.78 76.96,-190.97 78.088,-190.4 79.392,-190.52 80.697,-190.64 81.692,-191.39 81.623,-192.21 81.126,-198.23 80.632,-204.21 80.135,-210.23 M75.994,-205.15 L75.999,-205.07 C75.998,-205.08 75.997,-205.08 75.997,-205.09 75.995,-205.11 75.994,-205.13 75.994,-205.15 Z M87.962,-124.4 C87.935,-124.45 87.898,-124.5 87.853,-124.56 87.701,-124.77 87.431,-124.9 87.216,-125.02 M86.892,-125.21 C86.727,-125.3 86.553,-125.42 86.367,-125.47 86.2,-125.51 86.031,-125.55 85.861,-125.57 85.822,-125.58 85.777,-125.58 85.737,-125.59 85.717,-125.59 85.696,-125.59 85.675,-125.59 85.663,-125.59 85.638,-125.59 85.638,-125.59 M86.901,-122.27 C86.697,-122.13 86.377,-121.96 86.269,-121.72 86.259,-121.7 86.254,-121.68 86.255,-121.66 86.272,-121.46 86.289,-121.26 86.306,-121.05 86.31,-121.01 86.361,-121 86.448,-121.03 86.579,-121.08 86.896,-121.27 87.23,-121.51 87.564,-121.74 87.837,-121.97 87.902,-122.06 87.933,-122.11 87.949,-122.15 87.947,-122.17 87.93,-122.38 87.913,-122.58 87.896,-122.78 87.896,-122.79 87.894,-122.8 87.89,-122.8 87.86,-122.85 87.748,-122.82 87.578,-122.72 87.456,-122.65 87.34,-122.57 87.224,-122.49 M84.667,-121.69 C84.501,-121.68 84.334,-121.68 84.168,-121.66 83.987,-121.63 83.85,-121.6 83.788,-121.55 83.759,-121.53 83.745,-121.51 83.746,-121.49 83.763,-121.28 83.78,-121.08 83.797,-120.88 83.8,-120.83 83.872,-120.79 83.994,-120.77 84.13,-120.75 84.526,-120.75 84.972,-120.77 85.418,-120.79 85.811,-120.83 85.942,-120.87 86.061,-120.91 86.126,-120.95 86.122,-121 86.105,-121.2 86.089,-121.4 86.072,-121.61 86.07,-121.63 86.052,-121.65 86.02,-121.66 85.778,-121.8 85.38,-121.73 85.125,-121.72 M82.563,-122.25 C82.447,-122.32 82.331,-122.39 82.21,-122.45 82.043,-122.53 81.937,-122.54 81.917,-122.5 81.915,-122.49 81.914,-122.48 81.915,-122.48 81.931,-122.27 81.948,-122.07 81.965,-121.87 81.967,-121.84 81.98,-121.82 82.003,-121.79 82.067,-121.7 82.343,-121.5 82.683,-121.29 83.023,-121.08 83.349,-120.91 83.488,-120.88 83.571,-120.86 83.616,-120.87 83.613,-120.91 83.596,-121.12 83.579,-121.32 83.562,-121.52 83.561,-121.54 83.554,-121.56 83.542,-121.58 83.411,-121.8 83.098,-121.94 82.887,-122.07 M81.823,-123.33 C81.824,-123.11 81.823,-122.88 81.834,-122.65 81.836,-122.62 81.837,-122.6 81.838,-122.59 81.855,-122.38 81.872,-122.18 81.888,-121.98 81.89,-121.96 81.892,-121.95 81.894,-121.95 81.92,-121.9 81.958,-121.84 82.003,-121.79 M82.555,-124.78 C82.349,-124.64 82.1,-124.49 81.954,-124.28 81.943,-124.27 81.923,-124.24 81.898,-124.2 81.873,-124.16 81.847,-124.12 81.828,-124.08 81.824,-124.08 81.822,-124 81.822,-123.85 81.822,-123.78 81.822,-123.7 81.822,-123.62 M84.04,-125.5 C84.04,-125.5 84.035,-125.5 84.033,-125.5 84.023,-125.5 84.013,-125.5 84.003,-125.49 83.993,-125.49 83.982,-125.49 83.972,-125.49 83.952,-125.48 83.932,-125.48 83.912,-125.47 83.741,-125.43 83.573,-125.38 83.407,-125.31 83.216,-125.25 83.043,-125.11 82.878,-125 M83.994,-120.77 C83.824,-120.8 83.655,-120.83 83.488,-120.88 M87.149,-123.42 C87.149,-123.42 87.13,-123.45 87.12,-123.46 87.104,-123.48 87.086,-123.5 87.068,-123.52 87.031,-123.57 86.99,-123.61 86.947,-123.64 86.86,-123.72 86.76,-123.79 86.649,-123.86 86.483,-123.95 86.294,-124.03 86.086,-124.09 85.705,-124.2 85.276,-124.24 84.844,-124.2 84.413,-124.17 83.996,-124.06 83.637,-123.89 83.442,-123.8 83.268,-123.69 83.119,-123.57 83.02,-123.49 82.934,-123.4 82.86,-123.31 82.824,-123.26 82.79,-123.22 82.76,-123.17 82.746,-123.15 82.732,-123.12 82.719,-123.1 82.711,-123.08 82.696,-123.05 82.696,-123.05 M86.448,-121.03 C86.282,-120.97 86.114,-120.92 85.942,-120.87 M87.902,-122.06 C87.92,-122.09 87.967,-122.16 88.007,-122.23 88.015,-122.24 88.022,-122.25 88.028,-122.26 M82.511,-117.17 C82.519,-117.08 82.526,-116.99 82.533,-116.91 82.572,-116.42 82.915,-115.99 83.485,-115.69 84.055,-115.4 84.807,-115.27 85.574,-115.33 86.341,-115.39 87.061,-115.64 87.576,-116.03 88.091,-116.41 88.358,-116.9 88.319,-117.38 88.311,-117.47 88.304,-117.56 88.297,-117.65 M88.297,-117.65 C88.215,-118.65 86.854,-119.35 85.256,-119.22 83.658,-119.09 82.43,-118.17 82.511,-117.17 82.551,-116.69 82.893,-116.25 83.463,-115.96 84.034,-115.66 84.785,-115.53 85.552,-115.59 86.319,-115.66 87.04,-115.91 87.554,-116.29 88.069,-116.68 88.336,-117.16 88.297,-117.65 Z M87.873,-117.48 C87.873,-117.48 87.864,-117.52 87.859,-117.53 87.852,-117.56 87.844,-117.58 87.836,-117.61 87.827,-117.63 87.818,-117.65 87.807,-117.68 87.797,-117.7 87.786,-117.72 87.773,-117.75 87.761,-117.77 87.748,-117.79 87.734,-117.81 87.664,-117.92 87.573,-118.03 87.462,-118.13 87.285,-118.28 87.06,-118.41 86.799,-118.51 86.34,-118.68 85.791,-118.74 85.24,-118.69 84.729,-118.64 84.243,-118.49 83.849,-118.26 83.607,-118.12 83.406,-117.96 83.256,-117.78 83.163,-117.67 83.09,-117.55 83.039,-117.43 83.029,-117.4 83.02,-117.38 83.012,-117.35 83.003,-117.33 82.996,-117.3 82.989,-117.28 82.983,-117.25 82.977,-117.23 82.973,-117.2 82.968,-117.18 82.964,-117.16 82.962,-117.13 82.959,-117.11 82.957,-117.07 82.957,-117.07"/>
      <path stroke="#000" d="M86.379,-69.738 C86.379,-69.738 86.376,-69.732 86.374,-69.729 86.357,-69.698 86.34,-69.665 86.325,-69.632 86.31,-69.6 86.296,-69.567 86.283,-69.534 86.244,-69.435 86.218,-69.334 86.202,-69.234 86.174,-69.049 86.197,-68.868 86.213,-68.683 86.304,-67.564 87.823,-66.776 89.606,-66.923 91.389,-67.069 92.76,-68.095 92.668,-69.213 92.653,-69.399 92.646,-69.581 92.589,-69.759 92.557,-69.856 92.514,-69.95 92.461,-70.041 92.443,-70.072 92.423,-70.102 92.403,-70.132 92.383,-70.162 92.361,-70.191 92.339,-70.22 92.336,-70.223 92.331,-70.229 92.331,-70.229 M90.884,-70.472 C90.884,-70.472 90.851,-70.484 90.835,-70.49 90.796,-70.502 90.757,-70.514 90.718,-70.525 90.64,-70.547 90.559,-70.567 90.477,-70.585 90.351,-70.611 90.224,-70.631 90.096,-70.644 89.836,-70.672 89.569,-70.675 89.301,-70.653 89.034,-70.631 88.77,-70.584 88.519,-70.514 88.393,-70.48 88.271,-70.439 88.153,-70.393 88.075,-70.363 87.998,-70.33 87.924,-70.295 87.887,-70.278 87.851,-70.26 87.815,-70.241 87.799,-70.233 87.766,-70.215 87.766,-70.215 M92.467,-69.584 L92.449,-69.796 M86.351,-69.081 L86.333,-69.293 M92.158,-69.998 L92.155,-70.038 M86.587,-69.541 L86.584,-69.58 M82.989,-112.58 C82.989,-112.58 82.977,-112.57 82.972,-112.57 82.929,-112.53 82.886,-112.5 82.845,-112.47 82.804,-112.43 82.764,-112.4 82.725,-112.36 82.603,-112.25 82.481,-112.13 82.389,-112.01 82.179,-111.75 82.027,-111.48 81.94,-111.19 81.763,-110.62 81.918,-110.12 82.062,-109.55 82.282,-108.68 83.191,-107.99 84.489,-107.72 85.689,-107.47 87.054,-107.61 88.148,-108.11 89.243,-108.6 89.93,-109.38 89.99,-110.2 90.049,-110.84 90.112,-111.43 89.759,-111.99 89.596,-112.25 89.393,-112.48 89.151,-112.67 89.029,-112.77 88.88,-112.87 88.741,-112.95 88.694,-112.98 88.647,-113.01 88.599,-113.03 88.55,-113.06 88.5,-113.08 88.45,-113.1 88.443,-113.11 88.435,-113.11 88.427,-113.12 88.376,-113.14 88.325,-113.16 88.274,-113.18 88.264,-113.19 88.246,-113.19 88.246,-113.19 M88.935,-112.63 C88.92,-112.65 88.903,-112.68 88.886,-112.7 88.867,-112.73 88.847,-112.76 88.826,-112.79 88.762,-112.87 88.481,-113.07 88.135,-113.28 87.79,-113.49 87.461,-113.65 87.327,-113.69 87.306,-113.7 87.285,-113.7 87.264,-113.71 87.209,-113.72 87.153,-113.73 87.097,-113.75 87.04,-113.76 86.983,-113.77 86.926,-113.78 86.905,-113.78 86.865,-113.79 86.865,-113.79 M86.916,-113.78 C86.881,-113.78 86.847,-113.79 86.813,-113.8 86.688,-113.81 86.299,-113.81 85.858,-113.78 85.417,-113.76 85.03,-113.73 84.908,-113.7 84.873,-113.69 84.838,-113.68 84.803,-113.67 M84.468,-113.57 C84.433,-113.55 84.399,-113.54 84.365,-113.53 84.201,-113.46 83.873,-113.25 83.546,-113.02 83.219,-112.79 82.964,-112.57 82.91,-112.48 82.899,-112.47 82.879,-112.44 82.857,-112.4 82.834,-112.37 82.813,-112.33 82.801,-112.31 82.798,-112.31 82.796,-112.26 82.796,-112.17 82.796,-112.13 82.796,-112.07 82.796,-112.01 82.797,-111.79 82.797,-111.58 82.798,-111.36 82.799,-111.05 82.817,-110.74 82.843,-110.42 82.843,-110.4 82.843,-110.38 82.843,-110.35 82.847,-110.31 82.851,-110.27 82.854,-110.22 83.455,-109.88 84.053,-109.53 84.655,-109.18 85.503,-109.23 86.347,-109.27 87.195,-109.31 87.794,-109.72 88.389,-110.13 88.988,-110.54 88.986,-111.07 88.985,-111.6 88.983,-112.14 88.979,-112.18 88.976,-112.23 88.972,-112.27 88.972,-112.25 88.972,-112.22 88.972,-112.2 88.961,-112.33 88.95,-112.47 88.939,-112.6 88.938,-112.62 88.936,-112.63 88.935,-112.63 88.932,-112.62 88.93,-112.57 88.93,-112.48 88.93,-112.47 88.93,-112.45 88.93,-112.43 88.93,-112.39 88.93,-112.36 88.93,-112.32 88.93,-112.11 88.931,-111.89 88.932,-111.68 88.933,-111.36 88.951,-111.05 88.977,-110.74 88.977,-110.71 88.977,-110.69 88.977,-110.67 88.952,-110.65 88.927,-110.63 88.901,-110.62 88.89,-110.75 88.879,-110.88 88.868,-111.01 88.866,-111.04 88.843,-111.05 88.802,-111.05 88.659,-111.03 88.511,-110.91 88.399,-110.83 88.158,-110.67 87.916,-110.51 87.675,-110.34 87.536,-110.25 87.386,-110.14 87.281,-110.01 87.244,-109.96 87.225,-109.92 87.227,-109.9 87.239,-109.76 87.249,-109.63 87.26,-109.5 87.235,-109.48 87.21,-109.46 87.184,-109.45 87.148,-109.44 87.113,-109.44 87.077,-109.44 87.066,-109.57 87.055,-109.71 87.044,-109.84 87.041,-109.87 86.993,-109.9 86.911,-109.92 86.74,-109.96 86.555,-109.95 86.383,-109.94 86.041,-109.92 85.699,-109.9 85.357,-109.88 85.185,-109.88 85.001,-109.87 84.836,-109.81 84.758,-109.79 84.716,-109.75 84.718,-109.72 84.729,-109.59 84.74,-109.45 84.751,-109.32 84.715,-109.32 84.68,-109.32 84.644,-109.32 84.618,-109.33 84.593,-109.34 84.567,-109.36 84.556,-109.49 84.545,-109.62 84.534,-109.76 84.532,-109.78 84.509,-109.82 84.468,-109.87 84.355,-109.99 84.204,-110.07 84.063,-110.16 83.821,-110.3 83.578,-110.44 83.336,-110.58 83.267,-110.62 83.196,-110.65 83.149,-110.68 83.039,-110.73 82.955,-110.76 82.915,-110.75 82.895,-110.74 82.885,-110.73 82.887,-110.71 82.898,-110.58 82.909,-110.44 82.92,-110.31 82.894,-110.33 82.869,-110.34 82.843,-110.35 M88.966,-112.27 L88.972,-112.27 M87.337,-111.82 C87.337,-111.82 87.308,-111.83 87.294,-111.83 87.258,-111.84 87.221,-111.86 87.184,-111.87 87.147,-111.88 87.11,-111.89 87.072,-111.9 87.034,-111.91 86.996,-111.91 86.957,-111.92 86.842,-111.95 86.722,-111.96 86.6,-111.98 86.356,-112 86.105,-112.01 85.854,-111.99 85.603,-111.97 85.355,-111.92 85.118,-111.86 85,-111.82 84.885,-111.79 84.775,-111.74 84.738,-111.73 84.702,-111.71 84.666,-111.7 84.63,-111.68 84.595,-111.67 84.56,-111.65 84.526,-111.63 84.491,-111.62 84.458,-111.6 84.443,-111.59 84.415,-111.58 84.415,-111.58 M84.826,-113.68 C84.826,-113.68 84.806,-113.67 84.796,-113.67 84.739,-113.65 84.681,-113.64 84.625,-113.62 84.569,-113.6 84.513,-113.58 84.458,-113.56 84.438,-113.56 84.398,-113.54 84.398,-113.54 M85.505,-75.797 C86.324,-78.714 93.254,-78.45 92.311,-75.032 92.157,-74.474 91.652,-73.946 90.915,-73.572 90.179,-73.199 89.278,-73.015 88.429,-73.063 86.33,-73.184 85.095,-74.338 85.505,-75.797 Z M91.665,-75.707 L91.68,-75.63 M86.135,-75.173 L86.137,-75.252 M86.186,-75.485 C86.186,-75.485 86.169,-75.428 86.163,-75.399 86.156,-75.37 86.151,-75.342 86.146,-75.313 86.142,-75.285 86.137,-75.229 86.137,-75.229 M91.512,-75.092 C91.512,-75.092 91.475,-75.036 91.456,-75.009 91.436,-74.981 91.415,-74.954 91.393,-74.927 91.371,-74.9 91.348,-74.873 91.325,-74.847 91.301,-74.821 91.276,-74.795 91.251,-74.769 91.225,-74.743 91.198,-74.718 91.171,-74.693 91.15,-74.675 91.108,-74.64 91.108,-74.64 91.115,-74.645 91.054,-74.596 91.022,-74.573 90.991,-74.549 90.958,-74.526 90.925,-74.503 90.859,-74.458 90.789,-74.414 90.716,-74.373 90.607,-74.311 90.491,-74.253 90.37,-74.201 90.249,-74.149 90.123,-74.103 89.992,-74.062 89.948,-74.048 89.904,-74.035 89.86,-74.023 89.816,-74.011 89.771,-73.999 89.726,-73.988 89.682,-73.978 89.594,-73.959 89.6,-73.96 89.6,-73.96 89.506,-73.941 89.459,-73.933 89.412,-73.924 89.365,-73.917 89.318,-73.91 89.27,-73.903 89.223,-73.897 89.175,-73.891 89.127,-73.886 89.079,-73.881 89.031,-73.878 88.936,-73.87 88.839,-73.865 88.744,-73.863 88.696,-73.862 88.648,-73.862 88.6,-73.862 88.553,-73.863 88.457,-73.866 88.463,-73.866 88.463,-73.866 88.373,-73.87 88.328,-73.873 88.282,-73.877 88.236,-73.881 88.19,-73.886 88.145,-73.891 88.099,-73.896 88.054,-73.903 87.918,-73.922 87.786,-73.947 87.658,-73.979 87.53,-74.01 87.407,-74.048 87.289,-74.091 87.25,-74.105 87.211,-74.121 87.173,-74.136 87.136,-74.152 87.098,-74.168 87.062,-74.186 87.025,-74.202 86.99,-74.22 86.954,-74.238 86.92,-74.256 86.852,-74.294 86.86,-74.29 86.86,-74.29 86.812,-74.318 86.789,-74.333 86.758,-74.353 86.727,-74.374 86.697,-74.395 86.668,-74.416 86.64,-74.437 86.612,-74.46 86.584,-74.482 86.557,-74.504 86.531,-74.527 86.506,-74.55 86.48,-74.574 86.456,-74.598 86.433,-74.621 86.387,-74.671 86.387,-74.671 M91.497,-75.07 C91.497,-75.07 91.524,-75.113 91.536,-75.136 91.551,-75.163 91.565,-75.192 91.579,-75.22 91.592,-75.248 91.604,-75.277 91.615,-75.306 91.626,-75.334 91.645,-75.392 91.645,-75.392 M91.677,-75.722 C91.677,-75.722 91.68,-75.665 91.68,-75.637 91.68,-75.623 91.679,-75.597 91.679,-75.597 91.677,-75.574 91.674,-75.545 91.67,-75.516 91.665,-75.487 91.66,-75.458 91.653,-75.43 91.648,-75.409 91.637,-75.367 91.637,-75.367 M86.207,-74.945 C86.207,-74.945 86.235,-74.891 86.251,-74.865 86.266,-74.838 86.283,-74.812 86.301,-74.786 86.319,-74.76 86.337,-74.735 86.357,-74.71 86.373,-74.69 86.406,-74.651 86.406,-74.651 M86.221,-74.921 C86.221,-74.921 86.202,-74.96 86.193,-74.981 86.182,-75.008 86.172,-75.035 86.163,-75.063 86.154,-75.091 86.139,-75.147 86.141,-75.14 86.141,-75.14 86.135,-75.167 86.133,-75.181 86.129,-75.209 86.123,-75.266 86.123,-75.266 M90.904,-76.588 C90.904,-76.588 90.968,-76.55 90.999,-76.53 91.06,-76.49 91.119,-76.448 91.174,-76.405 91.201,-76.383 91.228,-76.361 91.254,-76.338 91.279,-76.315 91.304,-76.292 91.328,-76.268 91.348,-76.248 91.386,-76.206 91.38,-76.214 91.38,-76.214 91.422,-76.165 91.442,-76.14 91.462,-76.115 91.48,-76.089 91.498,-76.064 91.515,-76.038 91.532,-76.012 91.548,-75.985 91.561,-75.963 91.584,-75.918 91.58,-75.928 91.58,-75.928 91.605,-75.875 91.616,-75.847 91.627,-75.82 91.637,-75.793 91.646,-75.765 91.655,-75.738 91.669,-75.684 91.669,-75.684 M86.734,-76.236 C86.734,-76.236 86.792,-76.282 86.822,-76.305 86.853,-76.328 86.885,-76.351 86.917,-76.373 86.95,-76.395 86.984,-76.417 87.018,-76.438 87.052,-76.46 87.087,-76.481 87.123,-76.501 87.233,-76.564 87.346,-76.619 87.463,-76.669 87.582,-76.721 87.706,-76.766 87.834,-76.806 87.877,-76.82 87.92,-76.833 87.964,-76.845 88.007,-76.857 88.051,-76.868 88.096,-76.879 88.14,-76.89 88.229,-76.909 88.229,-76.909 88.227,-76.908 88.316,-76.926 88.361,-76.934 88.407,-76.942 88.453,-76.95 88.499,-76.956 88.592,-76.97 88.685,-76.98 88.778,-76.988 88.871,-76.996 88.965,-77.001 89.058,-77.002 89.105,-77.003 89.152,-77.004 89.198,-77.003 89.243,-77.003 89.334,-76.999 89.334,-76.999 89.332,-77 89.424,-76.995 89.469,-76.992 89.514,-76.988 89.56,-76.984 89.605,-76.979 89.65,-76.975 89.694,-76.969 89.739,-76.963 89.872,-76.944 90.002,-76.919 90.128,-76.889 90.254,-76.857 90.375,-76.821 90.49,-76.778 90.567,-76.749 90.642,-76.718 90.714,-76.685 90.749,-76.669 90.785,-76.651 90.819,-76.633 90.852,-76.616 90.916,-76.58 90.916,-76.58 M86.182,-75.473 C86.182,-75.473 86.199,-75.522 86.208,-75.546 86.219,-75.575 86.231,-75.604 86.244,-75.632 86.258,-75.66 86.272,-75.688 86.287,-75.716 86.302,-75.744 86.336,-75.799 86.336,-75.799 86.331,-75.79 86.362,-75.838 86.379,-75.861 86.399,-75.889 86.419,-75.916 86.441,-75.942 86.463,-75.969 86.485,-75.995 86.508,-76.021 86.556,-76.073 86.607,-76.124 86.661,-76.173 86.689,-76.198 86.746,-76.246 86.746,-76.246 M86.771,-106.94 C84.871,-106.96 83.197,-105.98 83.01,-104.75 82.494,-101.35 89.452,-101.37 89.914,-104.41 90.132,-105.85 88.801,-106.91 86.771,-106.94 Z M83.786,-104.08 C83.786,-104.08 83.764,-104.12 83.754,-104.15 83.743,-104.17 83.733,-104.2 83.724,-104.23 83.715,-104.26 83.7,-104.31 83.701,-104.31 83.701,-104.31 83.692,-104.35 83.688,-104.37 83.684,-104.4 83.678,-104.46 83.678,-104.46 M83.693,-104.44 L83.69,-104.36 M89.232,-104.91 C89.232,-104.91 89.235,-104.86 89.236,-104.83 89.236,-104.81 89.233,-104.77 89.233,-104.77 89.234,-104.77 89.228,-104.71 89.224,-104.68 89.219,-104.65 89.214,-104.62 89.207,-104.6 89.202,-104.57 89.188,-104.52 89.188,-104.52 M89.235,-104.82 L89.22,-104.9 M83.734,-104.63 C83.734,-104.63 83.747,-104.67 83.755,-104.69 83.766,-104.72 83.778,-104.75 83.791,-104.77 83.805,-104.8 83.819,-104.83 83.834,-104.86 83.85,-104.89 83.884,-104.94 83.884,-104.94 M84.285,-105.38 C84.285,-105.38 84.227,-105.33 84.199,-105.3 84.144,-105.25 84.093,-105.2 84.045,-105.15 84.022,-105.12 83.999,-105.1 83.977,-105.07 83.955,-105.04 83.934,-105.01 83.914,-104.99 83.9,-104.97 83.873,-104.93 83.873,-104.93 M83.74,-104.65 C83.74,-104.65 83.723,-104.59 83.717,-104.57 83.71,-104.54 83.705,-104.51 83.7,-104.48 83.696,-104.45 83.691,-104.4 83.691,-104.4 M84.262,-105.35 C84.262,-105.35 84.318,-105.4 84.348,-105.42 84.379,-105.45 84.412,-105.47 84.445,-105.49 84.511,-105.54 84.581,-105.58 84.654,-105.62 84.763,-105.68 84.879,-105.74 85,-105.79 85.121,-105.85 85.248,-105.89 85.378,-105.93 85.465,-105.96 85.554,-105.98 85.644,-106.01 85.689,-106.02 85.78,-106.04 85.776,-106.04 85.776,-106.04 85.866,-106.05 85.911,-106.06 85.958,-106.07 86.005,-106.08 86.052,-106.09 86.1,-106.09 86.147,-106.1 86.195,-106.1 86.243,-106.11 86.291,-106.11 86.339,-106.12 86.386,-106.12 86.434,-106.12 86.482,-106.13 86.53,-106.13 86.578,-106.13 86.626,-106.13 86.674,-106.13 86.722,-106.13 86.77,-106.13 86.816,-106.13 86.907,-106.13 86.907,-106.13 86.903,-106.13 86.996,-106.12 87.042,-106.12 87.134,-106.11 87.226,-106.1 87.316,-106.09 87.452,-106.07 87.584,-106.05 87.712,-106.02 87.84,-105.98 87.963,-105.95 88.081,-105.9 88.12,-105.89 88.159,-105.87 88.197,-105.86 88.234,-105.84 88.272,-105.83 88.309,-105.81 88.345,-105.79 88.38,-105.78 88.416,-105.76 88.448,-105.74 88.51,-105.7 88.51,-105.7 M88.964,-105.34 C88.964,-105.34 88.931,-105.38 88.914,-105.4 88.89,-105.42 88.865,-105.44 88.839,-105.47 88.813,-105.49 88.786,-105.51 88.758,-105.54 88.703,-105.58 88.644,-105.62 88.581,-105.66 88.55,-105.68 88.485,-105.72 88.485,-105.72 M88.951,-105.36 C88.951,-105.36 88.993,-105.31 89.013,-105.29 89.033,-105.26 89.052,-105.23 89.069,-105.21 89.087,-105.18 89.104,-105.16 89.119,-105.13 89.13,-105.11 89.149,-105.07 89.149,-105.07 M89.229,-104.85 C89.229,-104.85 89.215,-104.91 89.207,-104.93 89.198,-104.96 89.188,-104.99 89.177,-105.01 89.166,-105.04 89.14,-105.1 89.14,-105.1 M83.779,-104.09 C83.779,-104.09 83.807,-104.04 83.822,-104.01 83.838,-103.98 83.855,-103.96 83.872,-103.93 83.89,-103.91 83.908,-103.88 83.928,-103.86 83.946,-103.83 83.984,-103.79 83.984,-103.79 83.974,-103.8 84.019,-103.75 84.042,-103.73 84.066,-103.7 84.091,-103.68 84.116,-103.66 84.142,-103.63 84.169,-103.61 84.196,-103.59 84.224,-103.57 84.252,-103.55 84.281,-103.53 84.31,-103.51 84.341,-103.48 84.371,-103.47 84.398,-103.45 84.454,-103.41 84.45,-103.42 84.684,-103.28 84.948,-103.18 85.242,-103.11 85.368,-103.08 85.498,-103.05 85.631,-103.03 85.676,-103.03 85.72,-103.02 85.765,-103.02 85.81,-103.01 85.856,-103.01 85.901,-103 85.946,-103 86.036,-103 86.036,-103 86.033,-103 86.125,-102.99 86.172,-102.99 86.218,-102.99 86.265,-102.99 86.312,-102.99 86.405,-102.99 86.499,-103 86.592,-103.01 86.685,-103.01 86.779,-103.03 86.871,-103.04 86.917,-103.05 86.963,-103.05 87.009,-103.06 87.055,-103.07 87.146,-103.09 87.146,-103.09 87.143,-103.09 87.231,-103.11 87.274,-103.12 87.363,-103.14 87.45,-103.16 87.536,-103.19 87.664,-103.23 87.788,-103.27 87.907,-103.33 88.027,-103.38 88.14,-103.43 88.247,-103.49 88.283,-103.51 88.318,-103.54 88.352,-103.56 88.386,-103.58 88.42,-103.6 88.453,-103.62 88.485,-103.64 88.517,-103.67 88.548,-103.69 88.579,-103.71 88.639,-103.76 88.636,-103.76 88.636,-103.76 88.685,-103.8 88.709,-103.82 88.736,-103.85 88.762,-103.87 88.788,-103.9 88.813,-103.92 88.838,-103.95 88.862,-103.97 88.885,-104 88.907,-104.03 88.929,-104.05 88.951,-104.08 88.971,-104.11 88.991,-104.13 89.01,-104.16 89.047,-104.22 89.047,-104.22"/>
      <path stroke="#000" d="M89.039,-104.21 C89.039,-104.21 89.069,-104.25 89.083,-104.28 89.098,-104.31 89.112,-104.33 89.126,-104.36 89.139,-104.39 89.151,-104.42 89.162,-104.45 89.173,-104.48 89.192,-104.53 89.192,-104.53 M80.563,-70.48 C80.446,-70.55 80.255,-70.441 80.136,-70.237 80.079,-70.139 80.047,-70.032 80.047,-69.94 80.046,-69.847 80.077,-69.776 80.133,-69.743 80.197,-69.705 80.286,-69.719 80.376,-69.781 80.466,-69.842 80.548,-69.945 80.598,-70.06 80.643,-70.163 80.66,-70.266 80.645,-70.349 80.633,-70.41 80.605,-70.456 80.563,-70.48 80.523,-70.504 80.442,-70.55 80.442,-70.55 M80.013,-69.812 L80.133,-69.743 M87.114,-81.259 C87.114,-81.259 87.198,-81.248 87.24,-81.244 87.299,-81.237 87.359,-81.232 87.418,-81.228 87.478,-81.223 87.539,-81.22 87.599,-81.217 87.78,-81.21 87.964,-81.21 88.147,-81.22 88.453,-81.236 88.757,-81.275 89.054,-81.337 89.77,-81.487 90.416,-81.765 90.91,-82.135 91.54,-82.606 91.886,-83.196 91.884,-83.792 91.881,-84.423 91.812,-85.073 91.399,-85.574 M87.479,-95.769 C88.425,-95.906 89.286,-96.279 89.867,-96.803 90.223,-97.125 90.47,-97.494 90.59,-97.883 90.724,-98.319 90.656,-98.749 90.616,-99.199 90.556,-99.872 90.058,-100.47 89.242,-100.85 88.425,-101.24 87.364,-101.37 86.315,-101.22 85.398,-101.08 84.566,-100.74 83.979,-100.26 83.587,-99.942 83.316,-99.565 83.197,-99.179 83.064,-98.748 83.138,-98.282 83.194,-97.846 83.282,-97.158 83.791,-96.545 84.601,-96.152 85.412,-95.759 86.453,-95.621 87.479,-95.769 Z M84.386,-97.393 C84.386,-97.393 84.366,-97.444 84.357,-97.47 84.349,-97.497 84.341,-97.523 84.335,-97.55 84.329,-97.576 84.319,-97.63 84.319,-97.63 M84.318,-97.666 L84.328,-97.587 M83.384,-98.605 C83.384,-98.605 83.391,-98.533 83.397,-98.498 83.403,-98.462 83.41,-98.427 83.418,-98.392 83.426,-98.357 83.447,-98.29 83.447,-98.29 M89.598,-98.064 C89.598,-98.064 89.597,-98.01 89.595,-97.982 89.593,-97.955 89.59,-97.927 89.586,-97.9 89.582,-97.874 89.571,-97.821 89.571,-97.821 M89.597,-98.021 L89.593,-98.099 M90.35,-98.858 C90.35,-98.858 90.359,-98.927 90.361,-98.962 90.364,-98.998 90.365,-99.035 90.365,-99.071 90.365,-99.107 90.361,-99.178 90.361,-99.178 M84.518,-97.167 L84.524,-97.16 M84.525,-97.159 C84.525,-97.159 84.502,-97.19 84.491,-97.206 84.474,-97.23 84.459,-97.255 84.444,-97.28 84.429,-97.305 84.415,-97.33 84.403,-97.356 84.39,-97.382 84.367,-97.434 84.367,-97.434 M89.473,-97.568 L89.477,-97.575 M89.582,-97.862 C89.569,-97.806 89.552,-97.752 89.531,-97.698 89.521,-97.671 89.509,-97.644 89.497,-97.617 89.489,-97.601 89.472,-97.567 89.472,-97.567 M83.443,-98.301 C83.443,-98.301 83.467,-98.232 83.481,-98.198 83.495,-98.163 83.51,-98.129 83.527,-98.096 83.544,-98.062 83.562,-98.029 83.581,-97.996 83.62,-97.93 83.664,-97.866 83.713,-97.803 83.762,-97.741 83.816,-97.68 83.875,-97.621 83.905,-97.591 83.936,-97.562 83.967,-97.534 83.997,-97.508 84.058,-97.459 84.057,-97.459 84.057,-97.459 84.127,-97.405 84.163,-97.379 84.2,-97.353 84.237,-97.327 84.276,-97.303 84.315,-97.278 84.354,-97.253 84.395,-97.23 84.517,-97.16 84.647,-97.096 84.786,-97.038 85.017,-96.942 85.268,-96.865 85.534,-96.81 86.014,-96.709 86.531,-96.679 87.049,-96.722 88.22,-96.818 89.274,-97.271 89.882,-97.938 89.882,-97.937 89.934,-97.996 89.958,-98.027 89.985,-98.059 90.011,-98.093 90.035,-98.127 90.084,-98.195 90.128,-98.264 90.166,-98.334 90.185,-98.368 90.203,-98.403 90.219,-98.439 90.236,-98.474 90.251,-98.51 90.265,-98.546 90.278,-98.581 90.291,-98.617 90.302,-98.653 90.313,-98.689 90.323,-98.725 90.331,-98.761 90.339,-98.797 90.352,-98.869 90.352,-98.869 M89.542,-97.728 C89.542,-97.728 89.52,-97.77 89.509,-97.789 89.494,-97.815 89.478,-97.839 89.462,-97.863 89.445,-97.888 89.427,-97.912 89.409,-97.935 89.39,-97.959 89.37,-97.983 89.35,-98.005 89.309,-98.051 89.264,-98.096 89.216,-98.139 89.192,-98.16 89.141,-98.202 89.15,-98.194 89.15,-98.194 89.098,-98.235 89.071,-98.254 89.043,-98.274 89.014,-98.293 88.986,-98.312 88.956,-98.331 88.926,-98.349 88.895,-98.367 88.803,-98.42 88.704,-98.469 88.599,-98.512 88.424,-98.585 88.234,-98.643 88.033,-98.685 87.67,-98.761 87.278,-98.784 86.885,-98.752 86.493,-98.72 86.11,-98.633 85.764,-98.499 85.573,-98.424 85.395,-98.336 85.234,-98.236 85.137,-98.176 85.047,-98.111 84.965,-98.044 84.938,-98.021 84.911,-97.998 84.885,-97.975 84.859,-97.952 84.834,-97.928 84.81,-97.904 84.786,-97.88 84.741,-97.832 84.749,-97.841 84.749,-97.841 84.706,-97.792 84.685,-97.766 84.665,-97.742 84.646,-97.716 84.627,-97.69 84.609,-97.665 84.591,-97.639 84.575,-97.613 84.558,-97.587 84.543,-97.561 84.528,-97.534 84.514,-97.508 84.5,-97.481 84.488,-97.454 84.475,-97.428 84.464,-97.401 84.453,-97.374 84.445,-97.352 84.43,-97.306 84.43,-97.306 M87.451,-93.995 C87.451,-93.995 87.452,-93.996 87.453,-93.997 87.499,-94.04 87.546,-94.081 87.596,-94.12 87.648,-94.16 87.703,-94.197 87.76,-94.228 87.934,-94.323 88.034,-94.303 88.044,-94.171 88.287,-91.232 88.531,-88.285 88.773,-85.346 88.779,-85.279 88.761,-85.184 88.723,-85.071 88.691,-84.978 88.651,-84.889 88.607,-84.802 M70.397,-61.963 C70.397,-61.963 70.429,-61.893 70.439,-61.855 70.45,-61.812 70.457,-61.766 70.46,-61.721 70.466,-61.626 70.456,-61.521 70.431,-61.412 70.393,-61.247 70.321,-61.078 70.223,-60.924 70.024,-60.61 69.745,-60.396 69.502,-60.374 69.181,-58.842 68.863,-57.319 68.543,-55.787 68.664,-55.717 68.785,-55.648 68.905,-55.578 69.651,-55.454 70.392,-55.33 71.138,-55.206 71.619,-54.928 72.097,-54.652 72.578,-54.375 M70.944,-58.182 C70.944,-58.182 70.945,-58.179 70.946,-58.178 70.953,-58.144 70.956,-58.11 70.957,-58.075 70.957,-58.037 70.954,-57.999 70.949,-57.962 70.943,-57.921 70.934,-57.881 70.923,-57.842 70.9,-57.76 70.865,-57.678 70.821,-57.6 70.777,-57.522 70.724,-57.45 70.666,-57.387 70.608,-57.324 70.545,-57.272 70.482,-57.234 70.452,-57.216 70.42,-57.201 70.387,-57.189 70.38,-57.186 70.365,-57.183 70.365,-57.183 M74.808,-55.952 C74.808,-55.952 74.809,-55.949 74.809,-55.947 74.816,-55.914 74.82,-55.879 74.82,-55.845 74.821,-55.807 74.818,-55.769 74.812,-55.731 74.806,-55.691 74.798,-55.651 74.786,-55.611 74.763,-55.53 74.728,-55.448 74.684,-55.369 74.64,-55.291 74.588,-55.219 74.529,-55.156 74.471,-55.094 74.408,-55.041 74.345,-55.004 74.315,-54.986 74.284,-54.97 74.251,-54.958 74.244,-54.956 74.229,-54.953 74.229,-54.953 M83.653,-96.384 C78.846,-84.991 74.067,-73.666 69.26,-62.273 69.267,-62.253 69.307,-62.221 69.371,-62.184 69.411,-62.161 69.452,-62.138 69.492,-62.114 69.83,-62.058 70.169,-62.001 70.507,-61.945 70.541,-61.939 70.576,-61.928 70.607,-61.912 70.85,-61.787 70.894,-61.384 70.712,-60.955 70.529,-60.526 70.172,-60.193 69.864,-60.165 69.743,-60.235 69.622,-60.304 69.502,-60.374 M88.723,-85.071 C84.198,-74.351 79.701,-63.695 75.176,-52.975 75.183,-52.955 75.157,-52.949 75.103,-52.958 74.326,-53.088 73.546,-53.218 72.769,-53.348 72.648,-53.417 72.528,-53.487 72.407,-53.557 72.727,-55.089 73.045,-56.611 73.365,-58.143 73.608,-58.166 73.888,-58.379 74.087,-58.694 74.184,-58.848 74.256,-59.017 74.294,-59.181 74.32,-59.291 74.33,-59.396 74.323,-59.491 74.32,-59.536 74.314,-59.581 74.302,-59.625 74.293,-59.662 74.261,-59.733 74.261,-59.733 M79.979,-69.84 C79.979,-69.84 79.979,-69.841 79.979,-69.841 M79.933,-69.936 C79.933,-69.936 79.933,-69.937 79.933,-69.937 79.932,-69.938 79.933,-69.939 79.933,-69.939 M79.931,-70.07 C79.931,-70.07 79.931,-70.072 79.931,-70.072 79.931,-70.073 79.931,-70.074 79.931,-70.074 M79.973,-70.222 C79.973,-70.222 79.974,-70.223 79.974,-70.224 79.974,-70.224 79.975,-70.225 79.975,-70.225 M80.055,-70.367 C80.055,-70.367 80.055,-70.368 80.056,-70.369 80.056,-70.369 80.057,-70.37 80.057,-70.37 M80.162,-70.484 C80.162,-70.484 80.163,-70.485 80.164,-70.485 80.164,-70.485 80.165,-70.486 80.165,-70.486 M80.28,-70.554 C80.28,-70.554 80.281,-70.555 80.282,-70.555 80.282,-70.556 80.283,-70.556 80.283,-70.556 M80.39,-70.568 C80.39,-70.568 80.391,-70.569 80.391,-70.569 80.391,-70.569 80.392,-70.568 80.392,-70.568 M87.64,-82.504 C87.64,-82.504 87.696,-82.502 87.725,-82.502 87.78,-82.501 87.835,-82.502 87.891,-82.503 87.946,-82.504 88.001,-82.506 88.057,-82.509 88.112,-82.511 88.167,-82.515 88.222,-82.52 88.444,-82.538 88.664,-82.57 88.878,-82.615 89.309,-82.705 89.714,-82.846 90.07,-83.031 90.989,-83.508 91.509,-84.238 91.449,-84.966 91.106,-89.133 90.415,-97.479 90.415,-97.479 M83.729,-95.465 L83.609,-96.917 M92.091,-63.829 C92.028,-64.596 90.987,-65.136 89.765,-65.035 88.543,-64.935 87.604,-64.232 87.666,-63.465 87.729,-62.699 88.77,-62.159 89.992,-62.259 91.213,-62.36 92.153,-63.063 92.091,-63.829 Z M91.919,-63.7 C91.919,-63.7 91.909,-63.747 91.902,-63.771 91.889,-63.812 91.872,-63.852 91.853,-63.891 91.833,-63.931 91.81,-63.969 91.785,-64.006 91.733,-64.081 91.67,-64.153 91.595,-64.219 91.446,-64.352 91.253,-64.463 91.03,-64.545 90.636,-64.691 90.164,-64.741 89.693,-64.688 89.29,-64.642 88.909,-64.523 88.597,-64.345 88.39,-64.228 88.218,-64.087 88.092,-63.931 88.029,-63.853 87.978,-63.773 87.94,-63.69 87.921,-63.65 87.904,-63.608 87.891,-63.565 87.878,-63.524 87.869,-63.481 87.862,-63.438 87.858,-63.414 87.857,-63.364 87.857,-63.364 M88.12,-63.594 C88.12,-63.594 88.029,-63.549 87.984,-63.526 87.945,-63.506 87.868,-63.463 87.868,-63.463 M91.625,-63.882 C91.625,-63.882 91.723,-63.853 91.771,-63.837 91.811,-63.824 91.892,-63.795 91.892,-63.795 M91.636,-63.878 C91.636,-63.878 91.549,-63.902 91.506,-63.913 91.454,-63.926 91.402,-63.937 91.35,-63.948 91.297,-63.959 91.244,-63.97 91.191,-63.979 91.03,-64.007 90.865,-64.027 90.697,-64.039 90.418,-64.06 90.133,-64.059 89.848,-64.035 89.564,-64.012 89.283,-63.967 89.01,-63.901 88.847,-63.861 88.688,-63.814 88.533,-63.76 88.482,-63.743 88.432,-63.724 88.381,-63.704 88.331,-63.685 88.282,-63.665 88.233,-63.644 88.192,-63.626 88.11,-63.588 88.11,-63.588 M91.196,-62.729 C91.196,-62.729 91.154,-62.736 91.134,-62.739 91.079,-62.746 91.024,-62.753 90.969,-62.759 90.859,-62.771 90.746,-62.779 90.634,-62.784 90.409,-62.793 90.18,-62.789 89.953,-62.77 89.726,-62.751 89.5,-62.718 89.279,-62.672 89.169,-62.649 89.06,-62.623 88.952,-62.593 88.899,-62.578 88.846,-62.563 88.793,-62.546 88.772,-62.54 88.73,-62.525 88.73,-62.525 M86.112,-59.221 C86.112,-59.221 86.111,-59.219 86.111,-59.218 86.106,-59.199 86.103,-59.18 86.099,-59.161 86.091,-59.118 86.081,-59.075 86.074,-59.031 86.061,-58.944 86.054,-58.857 86.055,-58.77 86.055,-58.726 86.059,-58.656 86.065,-58.582 86.071,-58.508 86.078,-58.438 86.085,-58.394 86.121,-58.177 86.206,-57.945 86.334,-57.72 86.557,-57.326 86.929,-56.973 87.41,-56.694 88.23,-56.222 89.359,-56.003 90.5,-56.097 91.64,-56.191 92.719,-56.591 93.45,-57.191 93.881,-57.544 94.19,-57.954 94.346,-58.379 94.436,-58.622 94.482,-58.864 94.482,-59.085 94.482,-59.129 94.478,-59.199 94.472,-59.273 94.466,-59.347 94.458,-59.416 94.451,-59.46 94.437,-59.546 94.417,-59.631 94.39,-59.715 94.376,-59.757 94.359,-59.798 94.344,-59.839 94.337,-59.857 94.331,-59.875 94.323,-59.893 94.322,-59.895 94.32,-59.899 94.32,-59.899 M86.007,-60.487 C86.007,-60.487 86.006,-60.485 86.006,-60.484 86.001,-60.465 85.998,-60.446 85.995,-60.427 85.986,-60.384 85.976,-60.34 85.97,-60.297 85.956,-60.21 85.95,-60.123 85.95,-60.036 85.95,-59.991 85.954,-59.922 85.96,-59.848 85.966,-59.774 85.974,-59.704 85.981,-59.66 86.016,-59.442 86.101,-59.211 86.229,-58.986 86.453,-58.592 86.824,-58.238 87.306,-57.96 88.125,-57.487 89.254,-57.269 90.395,-57.362 91.536,-57.456 92.614,-57.856 93.346,-58.457 93.776,-58.81 94.085,-59.22 94.242,-59.644 94.332,-59.888 94.378,-60.129 94.377,-60.35 94.377,-60.395 94.373,-60.464 94.367,-60.538 94.361,-60.612 94.354,-60.682 94.346,-60.726 94.333,-60.811 94.312,-60.897 94.285,-60.98 94.271,-61.022 94.255,-61.063 94.239,-61.105 94.233,-61.123 94.226,-61.141 94.219,-61.159 94.218,-61.161 94.216,-61.165 94.216,-61.165 M85.889,-61.687 C85.889,-61.687 85.871,-61.604 85.865,-61.562 85.859,-61.519 85.854,-61.475 85.85,-61.432 85.847,-61.388 85.845,-61.345 85.846,-61.301 85.846,-61.257 85.849,-61.187 85.855,-61.113 85.862,-61.039 85.869,-60.97 85.876,-60.926 85.915,-60.688 86.019,-60.417 86.155,-60.204 86.447,-59.743 86.865,-59.396 87.347,-59.146 88.155,-58.727 89.218,-58.54 90.29,-58.628 91.363,-58.716 92.381,-59.074 93.111,-59.62 93.546,-59.945 93.902,-60.356 94.115,-60.858 94.214,-61.091 94.273,-61.375 94.273,-61.616 94.273,-61.66 94.269,-61.73 94.263,-61.804 94.257,-61.878 94.249,-61.948 94.242,-61.992 94.228,-62.077 94.208,-62.162 94.18,-62.246 94.167,-62.287 94.135,-62.369 94.135,-62.369"/>
      <path stroke="#000" d="M90.19,-59.874 C92.543,-60.069 94.345,-61.508 94.214,-63.089 94.084,-64.67 92.07,-65.794 89.717,-65.599 87.364,-65.405 85.562,-63.966 85.693,-62.385 85.823,-60.804 87.837,-59.68 90.19,-59.874 Z"/>
      <path stroke="#000" d="M94.7,-26.382 C94.722,-26.112 94.744,-25.844 94.766,-25.575 94.767,-25.309 94.768,-25.042 94.769,-24.775 94.769,-24.747 94.751,-24.718 94.719,-24.697 94.421,-24.493 94.121,-24.289 93.823,-24.085 93.791,-24.063 93.748,-24.05 93.702,-24.047 93.279,-24.026 92.855,-24.004 92.432,-23.982 92.387,-23.98 92.343,-23.989 92.311,-24.007 92.012,-24.18 91.711,-24.354 91.411,-24.527 91.379,-24.546 91.361,-24.572 91.361,-24.6 91.316,-25.151 91.27,-25.699 91.225,-26.25 M95.032,-30.26 L93.139,-53.185 M90.285,-29.722 L88.392,-52.647 M90.274,-29.878 C90.274,-29.878 90.273,-29.855 90.274,-29.844 90.274,-29.82 90.276,-29.795 90.279,-29.771 90.368,-28.947 91.505,-28.378 92.82,-28.5 93.451,-28.558 94.039,-28.771 94.455,-29.092 94.872,-29.413 95.081,-29.816 95.039,-30.211 95.036,-30.236 95.032,-30.26 95.028,-30.284 M90.112,-29.718 C90.112,-29.718 89.921,-29.256 89.826,-29.026 89.798,-28.959 89.787,-28.888 89.794,-28.816 89.844,-28.287 89.882,-27.755 89.925,-27.226 89.942,-27.07 90.048,-26.929 90.224,-26.828 90.688,-26.56 91.154,-26.291 91.618,-26.023 91.877,-25.873 92.253,-25.829 92.606,-25.907 93.239,-26.046 93.873,-26.186 94.505,-26.325 94.592,-26.344 94.675,-26.37 94.752,-26.402 94.986,-26.499 95.157,-26.649 95.227,-26.817 95.395,-27.224 95.564,-27.633 95.732,-28.04 95.761,-28.11 95.772,-28.181 95.764,-28.251 95.72,-28.782 95.677,-29.31 95.633,-29.841 M91.151,-26.292 L89.268,-25.007 89.301,-24.61 93.285,-22.309 96.892,-24.771 96.859,-25.168 94.735,-26.395 M96.733,-25.242 C96.733,-25.242 96.73,-25.251 96.73,-25.256 M97.209,-25.084 C97.209,-25.084 97.183,-25.089 97.17,-25.09 97.148,-25.091 97.125,-25.092 97.103,-25.091 97.081,-25.089 97.059,-25.087 97.037,-25.083 97.015,-25.079 96.994,-25.074 96.973,-25.068 96.971,-25.067 96.966,-25.065 96.966,-25.065 M95.759,-28.131 C95.759,-28.131 95.804,-28.15 95.827,-28.157 95.89,-28.177 95.954,-28.192 96.019,-28.204 96.15,-28.227 96.286,-28.234 96.417,-28.224 96.616,-28.21 96.798,-28.158 96.941,-28.075 97.343,-27.843 97.747,-27.61 98.149,-27.378 98.292,-27.295 98.39,-27.185 98.43,-27.062 98.443,-27.023 98.448,-26.98 98.45,-26.938 98.455,-26.805 98.472,-26.673 98.483,-26.54 98.483,-26.37 98.376,-26.2 98.185,-26.07 98.101,-26.013 98.01,-25.956 97.938,-25.884 97.902,-25.848 97.87,-25.809 97.843,-25.767 97.827,-25.742 97.805,-25.686 97.805,-25.686 M95.792,-26.834 C95.985,-26.723 96.249,-26.526 96.497,-26.474 96.707,-26.43 96.947,-26.457 97.136,-26.546 97.325,-26.636 97.438,-26.775 97.438,-26.919 97.437,-27.032 97.365,-27.138 97.237,-27.212 97.045,-27.323 96.781,-27.521 96.533,-27.572 96.322,-27.617 96.082,-27.589 95.893,-27.5 95.704,-27.411 95.591,-27.271 95.592,-27.128 95.592,-27.014 95.664,-26.908 95.792,-26.834 Z M97.372,-26.734 C97.372,-26.734 97.361,-26.748 97.355,-26.754 97.329,-26.777 97.3,-26.797 97.27,-26.814 97.109,-26.907 96.948,-27 96.787,-27.093 96.724,-27.13 96.648,-27.158 96.566,-27.175 96.398,-27.21 96.211,-27.2 96.044,-27.148 95.961,-27.122 95.886,-27.087 95.823,-27.044 95.793,-27.023 95.764,-27 95.739,-26.974 95.72,-26.956 95.69,-26.914 95.69,-26.914 M87.905,-24.285 L90.987,-26.387 M93.461,-20.449 C93.475,-20.606 93.456,-20.78 93.405,-20.953 93.255,-21.273 93.003,-21.563 92.745,-21.712 91.297,-22.548 89.846,-23.386 88.398,-24.222 88.206,-24.333 88.029,-24.355 87.905,-24.285 87.865,-24.261 87.831,-24.228 87.804,-24.186 87.728,-24.087 87.68,-23.952 87.666,-23.795 87.547,-22.487 87.144,-20.656 87.573,-19.259 88.593,-15.934 89.616,-12.599 90.636,-9.2745 90.721,-8.9955 90.871,-8.7808 91.074,-8.6473 91.195,-8.5775 91.315,-8.508 91.436,-8.4382 M89.024,-21.601 L89.021,-21.588 89.024,-21.602 M98.219,-10.427 C98.219,-10.427 98.231,-10.439 98.238,-10.445 98.253,-10.459 98.27,-10.473 98.285,-10.488 98.319,-10.521 98.353,-10.553 98.386,-10.587 98.452,-10.655 98.516,-10.729 98.576,-10.808 98.667,-10.926 98.749,-11.053 98.82,-11.186 98.892,-11.32 98.952,-11.457 99,-11.595 99.015,-11.64 99.03,-11.686 99.043,-11.733 99.055,-11.778 99.066,-11.824 99.076,-11.869 99.081,-11.89 99.086,-11.912 99.091,-11.933 99.092,-11.942 99.096,-11.959 99.096,-11.959 M97.57,-7.3852 C97.57,-7.3852 97.608,-7.3959 97.626,-7.4041 97.659,-7.4191 97.691,-7.4375 97.721,-7.4579 97.753,-7.4803 97.784,-7.5054 97.814,-7.5321 97.905,-7.6163 97.987,-7.7252 98.048,-7.8453 98.088,-7.925 98.119,-8.0076 98.138,-8.0884 98.147,-8.1272 98.154,-8.1668 98.157,-8.2065 98.16,-8.2429 98.161,-8.2798 98.158,-8.3162 98.156,-8.3383 98.146,-8.3817 98.146,-8.3817 M93.398,-11.244 C93.193,-11.322 92.889,-11.115 92.718,-10.779 92.547,-10.444 92.575,-10.109 92.78,-10.03 92.985,-9.951 93.289,-10.159 93.46,-10.494 93.631,-10.829 93.603,-11.165 93.398,-11.244 Z M92.62,-10.243 C92.62,-10.243 92.658,-10.254 92.676,-10.262 92.709,-10.277 92.741,-10.295 92.771,-10.316 92.803,-10.338 92.834,-10.363 92.864,-10.39 92.955,-10.474 93.037,-10.583 93.098,-10.703 93.138,-10.783 93.169,-10.865 93.188,-10.946 93.197,-10.985 93.204,-11.025 93.207,-11.064 93.21,-11.101 93.211,-11.138 93.208,-11.174 93.206,-11.196 93.196,-11.24 93.196,-11.24 M93.261,-9.5062 C93.261,-9.5062 93.274,-9.5178 93.28,-9.5236 93.296,-9.5381 93.312,-9.5522 93.328,-9.5671 93.365,-9.6029 93.403,-9.6383 93.438,-9.6756 93.475,-9.7139 93.511,-9.7534 93.545,-9.7939 93.649,-9.917 93.744,-10.052 93.828,-10.196 93.911,-10.339 93.982,-10.489 94.038,-10.641 94.057,-10.69 94.074,-10.741 94.089,-10.792 94.104,-10.841 94.117,-10.892 94.13,-10.942 94.135,-10.962 94.139,-10.983 94.143,-11.003 94.145,-11.012 94.149,-11.028 94.149,-11.028 M97.115,-7.4645 C97.115,-7.4645 97.138,-7.5587 97.152,-7.6051 97.167,-7.6527 97.183,-7.7 97.2,-7.7466 97.217,-7.7941 97.237,-7.8413 97.257,-7.8877 97.298,-7.9814 97.345,-8.0735 97.397,-8.1629 97.449,-8.2524 97.506,-8.3385 97.567,-8.4203 97.598,-8.4607 97.629,-8.5005 97.662,-8.5391 97.694,-8.5769 97.727,-8.614 97.761,-8.6498 97.795,-8.6847 97.865,-8.7513 97.865,-8.7513 M89.219,-21.919 C89.219,-21.919 89.2,-21.9 89.191,-21.891 89.182,-21.881 89.172,-21.871 89.164,-21.861 89.155,-21.85 89.146,-21.84 89.138,-21.829 89.122,-21.806 89.106,-21.783 89.092,-21.759 89.056,-21.698 89.031,-21.634 89.015,-21.569 M77.729,-132.33 C77.73,-132.52 77.596,-132.6 77.43,-132.51 77.263,-132.41 77.127,-132.18 77.126,-131.99 77.124,-131.79 77.258,-131.71 77.425,-131.81 77.592,-131.9 77.728,-132.14 77.729,-132.33 Z M75.61,-133.8 C75.61,-133.8 75.612,-133.82 75.613,-133.83 75.614,-133.84 75.615,-133.85 75.615,-133.86 75.616,-133.88 75.617,-133.91 75.616,-133.93 75.614,-133.99 75.606,-134.04 75.592,-134.08 75.564,-134.18 75.512,-134.25 75.443,-134.29 75.33,-134.36 75.177,-134.34 75.017,-134.25 74.857,-134.16 74.703,-134 74.589,-133.8 74.352,-133.4 74.349,-132.95 74.583,-132.82 74.659,-132.77 74.756,-132.76 74.862,-132.79 74.9,-132.8 74.939,-132.82 74.979,-132.84 74.998,-132.85 75.018,-132.86 75.038,-132.87 75.048,-132.88 75.058,-132.88 75.067,-132.89 75.077,-132.9 75.087,-132.9 75.097,-132.91 75.097,-132.91 75.098,-132.91 75.098,-132.91 M77.729,-132.33 C77.729,-132.35 77.729,-132.38 77.729,-132.4 77.73,-132.51 77.692,-132.6 77.625,-132.64 77.558,-132.68 77.466,-132.67 77.37,-132.61 77.274,-132.56 77.181,-132.46 77.113,-132.34 77.044,-132.23 77.005,-132.1 77.005,-131.99 77.004,-131.88 77.042,-131.79 77.109,-131.75 77.176,-131.71 77.268,-131.72 77.364,-131.77 77.385,-131.79 77.405,-131.8 77.425,-131.81 M81.632,-131.46 C81.632,-131.45 81.633,-131.45 81.633,-131.45 81.634,-131.45 81.635,-131.46 81.635,-131.46 M81.106,-130.53 C81.045,-130.55 80.966,-130.53 80.886,-130.48 80.806,-130.42 80.732,-130.34 80.681,-130.24 80.63,-130.13 80.605,-130.03 80.613,-129.94 80.62,-129.85 80.658,-129.79 80.72,-129.77 80.781,-129.74 80.861,-129.76 80.941,-129.81 81.02,-129.87 81.094,-129.96 81.145,-130.06 81.252,-130.27 81.234,-130.48 81.106,-130.53 Z M83.224,-127.47 C83.187,-127.48 83.139,-127.47 83.092,-127.44 83.044,-127.4 82.999,-127.35 82.969,-127.29 82.938,-127.23 82.923,-127.17 82.928,-127.12 82.932,-127.06 82.955,-127.02 82.992,-127.01 83.029,-127 83.076,-127.01 83.124,-127.04 83.172,-127.07 83.216,-127.12 83.247,-127.18 83.278,-127.25 83.293,-127.31 83.288,-127.36 83.284,-127.41 83.261,-127.45 83.224,-127.47 Z M78.177,-179.53 C78.289,-179.47 78.396,-179.49 78.469,-179.61 78.543,-179.72 78.575,-179.91 78.558,-180.12 78.525,-180.51 78.344,-180.89 78.103,-181.07 77.795,-181.31 77.658,-180.99 77.784,-180.32 77.859,-179.93 78.006,-179.63 78.177,-179.53 Z M77.68,-184.12 C77.639,-184.1 77.627,-184.03 77.649,-183.95 77.672,-183.88 77.725,-183.79 77.789,-183.74 77.853,-183.68 77.918,-183.67 77.96,-183.69 78.024,-183.73 78.013,-183.85 77.936,-183.97 77.859,-184.09 77.745,-184.16 77.68,-184.12 Z M81.408,-141.69 L81.105,-141.48 M79,-169.59 C79.136,-169.51 79.261,-169.57 79.329,-169.74 79.398,-169.92 79.4,-170.18 79.335,-170.44 79.252,-170.77 79.062,-171.07 78.867,-171.18 78.599,-171.33 78.489,-171 78.605,-170.38 78.68,-169.99 78.829,-169.69 79,-169.59 Z M79.821,-159.65 C79.957,-159.57 80.082,-159.63 80.15,-159.81 80.219,-159.98 80.221,-160.24 80.156,-160.5 80.073,-160.83 79.883,-161.13 79.688,-161.24 79.42,-161.4 79.31,-161.06 79.426,-160.45 79.501,-160.05 79.65,-159.75 79.821,-159.65 Z M81.294,-185.69 L81.104,-187.99 81.407,-188.2 M81.595,-185.92 C81.532,-186.68 81.47,-187.44 81.407,-188.2 80.547,-188.58 79.376,-188.59 78.404,-188.23 77.432,-187.87 76.834,-187.2 76.869,-186.52 76.903,-185.87 77.493,-185.32 78.409,-185.07 79.326,-184.82 80.422,-184.92 81.269,-185.33 82.116,-185.74 82.579,-186.39 82.477,-187.03 82.424,-187.36 82.22,-187.67 81.89,-187.92 81.789,-187.85 81.688,-187.78 81.587,-187.71 81.633,-187.16 81.678,-186.61 81.724,-186.05 M76.188,-205.2 C76.187,-205.21 76.187,-205.21 76.186,-205.22 76.184,-205.24 76.184,-205.26 76.183,-205.28 M79.103,-210.74 C79.103,-210.74 79.097,-210.75 79.096,-210.76 79.094,-210.78 79.097,-210.81 79.105,-210.83 79.113,-210.85 79.127,-210.87 79.143,-210.88 79.161,-210.89 79.182,-210.89 79.202,-210.89 79.227,-210.88 79.251,-210.88 79.272,-210.86 79.272,-210.86 79.273,-210.86 79.273,-210.86 M75.317,-209.87 C75.31,-209.96 75.303,-210.05 75.295,-210.14 75.288,-210.23 75.322,-210.34 75.386,-210.43 75.423,-210.49 75.469,-210.54 75.517,-210.57 75.627,-210.65 75.737,-210.72 75.847,-210.8 M87.956,-123.94 C87.956,-124.04 87.956,-124.12 87.956,-124.17 87.956,-124.32 87.958,-124.4 87.962,-124.4 87.964,-124.4 87.965,-124.39 87.967,-124.37 87.984,-124.16 88.001,-123.96 88.018,-123.76 88.024,-123.69 88.029,-123.53 88.031,-123.34 88.033,-123.13 88.033,-122.93 88.034,-122.72 88.034,-122.62 88.034,-122.54 88.034,-122.49 88.034,-122.34 88.032,-122.26 88.027,-122.26 88.026,-122.26 88.024,-122.27 88.022,-122.29 88.006,-122.5 87.989,-122.7 87.972,-122.9 87.971,-122.92 87.97,-122.94 87.968,-122.96 87.957,-123.19 87.958,-123.42 87.957,-123.65 M86.437,-122.71 C86.437,-122.71 86.469,-122.73 86.484,-122.74 86.513,-122.76 86.541,-122.77 86.569,-122.79 86.596,-122.81 86.623,-122.83 86.649,-122.85 86.702,-122.89 86.751,-122.93 86.798,-122.97 86.89,-123.06 86.971,-123.14 87.037,-123.24 87.204,-123.47 87.281,-123.72 87.261,-123.96 87.229,-124.36 86.947,-124.72 86.477,-124.96 86.007,-125.21 85.388,-125.32 84.757,-125.26 83.441,-125.16 82.429,-124.4 82.496,-123.57 82.516,-123.33 82.633,-123.09 82.835,-122.89 82.916,-122.81 83.009,-122.74 83.114,-122.67 83.167,-122.64 83.222,-122.6 83.28,-122.57 83.31,-122.56 83.339,-122.54 83.369,-122.53 83.4,-122.52 83.431,-122.5 83.462,-122.49 83.479,-122.48 83.515,-122.47 83.515,-122.47 M86.493,-122.74 C87.344,-123.22 87.649,-123.98 87.25,-124.6 86.851,-125.23 85.838,-125.59 84.737,-125.5 83.636,-125.41 82.695,-124.89 82.403,-124.2 82.111,-123.52 82.534,-122.83 83.452,-122.49 84.389,-122.14 85.624,-122.25 86.493,-122.74 Z M83.128,-125.14 C82.218,-124.63 81.891,-123.82 82.318,-123.15 82.745,-122.48 83.829,-122.09 85.008,-122.19 86.186,-122.28 87.193,-122.84 87.505,-123.58 87.817,-124.31 87.365,-125.05 86.382,-125.41 85.312,-125.81 84.064,-125.68 82.972,-125.06 82.94,-125.04 82.909,-125.02 82.878,-125 82.762,-124.93 82.654,-124.86 82.555,-124.78 82.155,-124.49 81.869,-124.04 81.822,-123.62 81.811,-123.53 81.811,-123.43 81.823,-123.33 81.873,-122.92 82.133,-122.54 82.563,-122.25 82.663,-122.18 82.772,-122.12 82.887,-122.07 83.387,-121.82 84.011,-121.69 84.667,-121.69 84.819,-121.69 84.973,-121.7 85.125,-121.72 85.781,-121.78 86.404,-121.98 86.901,-122.27 87.017,-122.34 87.125,-122.41 87.224,-122.49 87.653,-122.83 87.909,-123.23 87.957,-123.65 87.968,-123.75 87.968,-123.84 87.956,-123.94 87.906,-124.35 87.646,-124.73 87.216,-125.02 87.116,-125.09 87.008,-125.15 86.892,-125.21 86.866,-125.22 86.819,-125.24 86.763,-125.27 86.707,-125.29 86.648,-125.31 86.6,-125.33 86.527,-125.36 86.455,-125.38 86.382,-125.41 M86.863,-116.23 C86.86,-116.26 86.857,-116.3 86.854,-116.34 86.974,-116.43 87.094,-116.51 87.214,-116.59 87.252,-116.57 87.288,-116.55 87.326,-116.53 87.698,-116.83 87.893,-117.21 87.873,-117.58 87.845,-118.14 87.335,-118.63 86.541,-118.85 85.748,-119.07 84.793,-118.99 84.046,-118.64 83.299,-118.29 82.876,-117.73 82.94,-117.17 83.005,-116.6 83.577,-116.12 84.424,-115.93 85.27,-115.74 86.25,-115.88 86.965,-116.28 86.928,-116.3 86.891,-116.32 86.854,-116.34 M86.192,-68.934 C86.283,-67.816 87.802,-67.028 89.585,-67.175 90.441,-67.245 91.245,-67.526 91.819,-67.955 92.393,-68.385 92.691,-68.928 92.648,-69.465 M86.338,-69.527 C86.338,-69.527 86.33,-69.505 86.326,-69.494 86.317,-69.462 86.308,-69.43 86.3,-69.397 86.293,-69.365 86.287,-69.332 86.282,-69.3 86.267,-69.202 86.263,-69.104 86.271,-69.008 86.287,-68.814 86.348,-68.625 86.453,-68.446 86.629,-68.148 86.921,-67.888 87.306,-67.689 87.925,-67.368 88.742,-67.226 89.575,-67.294 90.409,-67.363 91.191,-67.636 91.75,-68.054 92.097,-68.314 92.344,-68.618 92.468,-68.941 92.543,-69.134 92.573,-69.33 92.557,-69.524 92.549,-69.621 92.53,-69.717 92.499,-69.811 92.489,-69.842 92.478,-69.873 92.465,-69.904 92.453,-69.935 92.439,-69.966 92.424,-69.996 92.418,-70.007 92.406,-70.028 92.406,-70.028 M87.054,-70.673 C87.054,-70.673 87.031,-70.656 87.02,-70.647 86.989,-70.621 86.958,-70.594 86.928,-70.567 86.869,-70.514 86.813,-70.458 86.762,-70.401 86.659,-70.288 86.573,-70.169 86.506,-70.046 86.372,-69.801 86.313,-69.545 86.333,-69.293 86.375,-68.784 86.737,-68.323 87.34,-68.01 87.943,-67.698 88.737,-67.56 89.548,-67.626 90.359,-67.693 91.12,-67.959 91.664,-68.366 92.208,-68.773 92.491,-69.287 92.449,-69.796 92.428,-70.048 92.329,-70.291 92.156,-70.511 92.07,-70.621 91.966,-70.724 91.847,-70.819 91.787,-70.867 91.723,-70.913 91.656,-70.956 91.622,-70.978 91.587,-70.999 91.552,-71.019 91.538,-71.027 91.511,-71.041 91.511,-71.041 M87.003,-70.621 C87.003,-70.621 86.993,-70.611 86.987,-70.607 86.959,-70.581 86.931,-70.554 86.903,-70.527 86.877,-70.5 86.85,-70.473 86.825,-70.445 86.8,-70.418 86.776,-70.39 86.753,-70.361 86.687,-70.279 86.627,-70.192 86.576,-70.099 86.462,-69.89 86.403,-69.673 86.404,-69.458 86.405,-69.055 86.612,-68.673 86.995,-68.369 87.589,-67.896 88.544,-67.661 89.538,-67.743 90.533,-67.824 91.436,-68.212 91.946,-68.776 92.274,-69.139 92.416,-69.549 92.352,-69.947 92.318,-70.16 92.226,-70.364 92.078,-70.552 92.015,-70.632 91.943,-70.709 91.861,-70.781 91.834,-70.805 91.806,-70.829 91.777,-70.852 91.747,-70.876 91.717,-70.898 91.687,-70.92 91.655,-70.943 91.623,-70.964 91.591,-70.985 91.584,-70.989 91.57,-70.998 91.57,-70.998"/>
      <path stroke="#000" d="M87.644,-71.104 C87.628,-71.095 87.612,-71.086 87.595,-71.076 86.914,-70.689 86.539,-70.134 86.584,-69.58 86.663,-68.615 87.974,-67.935 89.512,-68.062 91.05,-68.188 92.234,-69.073 92.155,-70.038 92.11,-70.592 91.65,-71.078 90.914,-71.349 89.859,-71.734 88.584,-71.639 87.644,-71.104 86.744,-70.592 86.421,-69.797 86.843,-69.133 87.265,-68.469 88.337,-68.086 89.502,-68.181 90.667,-68.277 91.663,-68.831 91.971,-69.555 92.28,-70.279 91.833,-71.01 90.861,-71.368 M86.817,-69.666 C86.889,-68.783 88.087,-68.162 89.494,-68.277 90.901,-68.393 91.983,-69.202 91.911,-70.085 91.839,-70.968 90.64,-71.589 89.233,-71.474 88.558,-71.418 87.924,-71.196 87.47,-70.857 87.017,-70.518 86.782,-70.09 86.817,-69.666 Z M91.864,-69.682 C91.864,-69.682 91.841,-69.724 91.829,-69.745 91.815,-69.769 91.8,-69.793 91.784,-69.816 91.752,-69.863 91.716,-69.909 91.677,-69.953 91.598,-70.042 91.504,-70.125 91.398,-70.201 91.238,-70.315 91.051,-70.412 90.842,-70.489 89.907,-70.834 88.674,-70.733 87.807,-70.239 87.614,-70.129 87.445,-70.003 87.306,-69.864 87.213,-69.772 87.135,-69.675 87.071,-69.574 87.055,-69.55 87.04,-69.524 87.026,-69.498 87.012,-69.473 86.999,-69.448 86.987,-69.422 86.975,-69.396 86.964,-69.37 86.954,-69.344 86.945,-69.321 86.93,-69.274 86.93,-69.274 M87.489,-110.68 C88.34,-111.17 88.645,-111.92 88.247,-112.54 87.848,-113.17 86.834,-113.53 85.733,-113.44 84.632,-113.35 83.691,-112.83 83.399,-112.15 83.107,-111.46 83.53,-110.77 84.448,-110.43 85.386,-110.09 86.621,-110.19 87.489,-110.68 Z M84.751,-109.32 C84.69,-109.33 84.628,-109.35 84.567,-109.36 M84.655,-109.18 L84.644,-109.32 M87.26,-109.5 C87.2,-109.48 87.138,-109.46 87.077,-109.44 M87.195,-109.31 L87.184,-109.45 M82.92,-110.31 C82.893,-110.35 82.867,-110.38 82.843,-110.42 M87.433,-110.65 C87.433,-110.65 87.465,-110.67 87.48,-110.68 87.509,-110.7 87.537,-110.71 87.565,-110.73 87.592,-110.75 87.619,-110.77 87.646,-110.79 87.671,-110.81 87.697,-110.83 87.722,-110.85 87.746,-110.87 87.77,-110.89 87.794,-110.91 87.887,-111 87.967,-111.09 88.033,-111.18 88.2,-111.41 88.277,-111.66 88.257,-111.91 88.19,-112.73 87.069,-113.31 85.753,-113.2 84.437,-113.1 83.425,-112.34 83.492,-111.51 83.513,-111.27 83.629,-111.03 83.831,-110.83 83.912,-110.75 84.005,-110.68 84.111,-110.61 84.137,-110.59 84.164,-110.58 84.191,-110.56 84.219,-110.54 84.248,-110.53 84.276,-110.51 84.306,-110.5 84.335,-110.48 84.365,-110.47 84.396,-110.46 84.427,-110.44 84.458,-110.43 84.475,-110.42 84.511,-110.41 84.511,-110.41 M88.977,-110.74 C88.953,-110.7 88.928,-110.66 88.901,-110.62 M88.988,-110.54 L88.977,-110.67 M88.108,-111.29 C88.108,-111.29 88.086,-111.32 88.075,-111.33 88.056,-111.35 88.037,-111.37 88.017,-111.39 87.996,-111.41 87.975,-111.43 87.954,-111.45 87.889,-111.51 87.816,-111.57 87.737,-111.62 87.606,-111.7 87.457,-111.77 87.294,-111.83 86.42,-112.16 85.267,-112.06 84.456,-111.6 84.305,-111.52 84.17,-111.42 84.054,-111.31 83.985,-111.25 83.922,-111.19 83.867,-111.12 83.849,-111.1 83.832,-111.07 83.815,-111.05 83.798,-111.03 83.783,-111 83.768,-110.98 83.758,-110.96 83.74,-110.93 83.74,-110.93 M69.864,-60.165 L68.905,-55.578 M71.183,-57.391 C71.368,-57.719 71.363,-58.069 71.172,-58.173 70.98,-58.276 70.674,-58.094 70.489,-57.765 70.4,-57.608 70.351,-57.437 70.353,-57.29 70.355,-57.143 70.408,-57.033 70.5,-56.984 70.692,-56.88 70.998,-57.062 71.183,-57.391 Z M71.138,-55.206 L73.161,-59.999 M75.046,-55.16 C75.135,-55.318 75.184,-55.489 75.182,-55.636 75.18,-55.782 75.127,-55.893 75.035,-55.942 74.843,-56.046 74.538,-55.863 74.352,-55.535 74.263,-55.377 74.214,-55.206 74.216,-55.06 74.219,-54.913 74.272,-54.803 74.364,-54.753 74.555,-54.65 74.861,-54.832 75.046,-55.16 Z M72.769,-53.348 L73.727,-57.934 M69.492,-62.114 C70.103,-63.563 70.711,-65.004 71.323,-66.453 72.492,-65.778 73.655,-65.106 74.824,-64.431 74.212,-62.982 73.605,-61.542 72.993,-60.093 73.168,-59.992 73.355,-59.884 73.558,-59.85 73.828,-59.805 74.1,-59.76 74.37,-59.715 74.405,-59.709 74.439,-59.698 74.471,-59.681 74.714,-59.556 74.758,-59.153 74.575,-58.724 74.392,-58.295 74.036,-57.963 73.727,-57.934 73.606,-58.004 73.486,-58.073 73.365,-58.143 M79.979,-69.84 C79.98,-69.839 79.981,-69.839 79.981,-69.839 M91.436,-85.07 C91.442,-85.036 91.446,-85.001 91.449,-84.966 M87.666,-63.465 C87.67,-63.421 87.674,-63.377 87.677,-63.333 87.707,-62.965 87.969,-62.631 88.405,-62.405 88.841,-62.179 89.416,-62.079 90.003,-62.127 90.589,-62.175 91.14,-62.368 91.534,-62.662 91.927,-62.956 92.131,-63.329 92.101,-63.697 92.098,-63.741 92.094,-63.785 92.091,-63.829 M89.674,-64.919 C88.55,-64.791 87.731,-64.119 87.844,-63.417 87.957,-62.715 88.959,-62.249 90.083,-62.376 91.207,-62.503 92.026,-63.176 91.913,-63.878 91.858,-64.215 91.592,-64.514 91.172,-64.709 90.752,-64.904 90.213,-64.98 89.674,-64.919 Z M89.345,-54.055 C88.608,-53.635 88.343,-52.984 88.689,-52.44 89.035,-51.897 89.913,-51.582 90.867,-51.661 91.822,-51.739 92.637,-52.193 92.89,-52.786 93.143,-53.379 92.777,-53.978 91.981,-54.271 91.126,-54.587 90.107,-54.486 89.248,-54 88.633,-53.65 88.312,-53.142 88.392,-52.647 88.523,-51.828 89.693,-51.284 91.004,-51.433 92.315,-51.581 93.27,-52.366 93.139,-53.185 93.067,-53.629 92.681,-54.014 92.086,-54.233 92.051,-54.246 92.016,-54.259 91.981,-54.271 M88.793,-53.459 L88.882,-52.388 M89.938,-54.241 L90.142,-51.783 M88.796,-52.437 C89.18,-52.215 89.562,-51.995 89.947,-51.773 90.489,-51.801 91.028,-51.828 91.57,-51.856 91.952,-52.117 92.333,-52.377 92.715,-52.638 92.701,-52.978 92.713,-53.32 92.712,-53.66 92.328,-53.882 91.946,-54.102 91.562,-54.324 91.02,-54.296 90.481,-54.269 89.938,-54.241 89.556,-53.98 89.176,-53.72 88.793,-53.459 88.794,-53.118 88.795,-52.778 88.796,-52.437 Z M91.562,-54.324 L91.755,-51.982 M89.794,-28.816 C89.811,-28.661 89.917,-28.519 90.093,-28.418 90.557,-28.15 91.022,-27.881 91.487,-27.613 91.745,-27.463 92.122,-27.419 92.475,-27.497 93.107,-27.636 93.742,-27.776 94.374,-27.915 94.46,-27.934 94.543,-27.96 94.62,-27.992 94.855,-28.089 95.026,-28.239 95.095,-28.407 95.264,-28.815 95.433,-29.223 95.601,-29.63 95.63,-29.7 95.64,-29.771 95.633,-29.841 95.621,-29.953 95.562,-30.059 95.462,-30.148 95.423,-30.182 95.38,-30.213 95.334,-30.239 95.287,-30.266 95.194,-30.32 95.194,-30.32 M90.231,-30.373 C90.231,-30.373 90.209,-30.329 90.2,-30.307 90.188,-30.281 90.178,-30.255 90.168,-30.229 90.15,-30.176 90.135,-30.124 90.124,-30.071 90.103,-29.965 90.097,-29.859 90.109,-29.755 90.154,-29.331 90.467,-28.95 90.977,-28.694 91.488,-28.439 92.155,-28.331 92.831,-28.393 94.239,-28.524 95.304,-29.344 95.209,-30.227 95.197,-30.331 95.17,-30.434 95.126,-30.534 95.104,-30.584 95.078,-30.633 95.049,-30.68 95.034,-30.705 95.018,-30.728 95.001,-30.751 94.998,-30.756 94.99,-30.766 94.99,-30.766 M90.109,-29.755 C90.127,-29.534 90.145,-29.314 90.163,-29.092 90.259,-28.21 91.477,-27.6 92.886,-27.731 94.294,-27.861 95.359,-28.682 95.263,-29.564 95.245,-29.786 95.227,-30.006 95.209,-30.227 M93.285,-22.309 L93.252,-22.707 89.268,-25.007 M96.859,-25.168 L93.252,-22.707 M93.405,-20.953 L93.108,-20.935 M98.45,-26.938 C98.451,-26.446 97.732,-26.406 97.734,-25.915 97.735,-25.534 98.212,-25.408 98.437,-25.184 98.718,-24.905 98.919,-24.513 98.945,-24.192 99.364,-19.117 99.785,-14.027 100.2,-8.9524 100.28,-8.0465 99.823,-6.8844 99.07,-6.0599 98.317,-5.2354 97.433,-4.9307 96.869,-5.3015 96.666,-5.435 96.516,-5.6497 96.431,-5.9288 95.411,-9.2537 94.388,-12.589 93.368,-15.913 92.939,-17.311 93.342,-19.141 93.461,-20.449 L93.099,-20.658 M96.865,-25.093 C96.865,-25.093 96.877,-25.087 96.882,-25.085 96.902,-25.078 96.921,-25.073 96.941,-25.068 96.962,-25.064 96.984,-25.061 97.005,-25.06 97.071,-25.055 97.14,-25.062 97.202,-25.082 97.329,-25.122 97.412,-25.204 97.412,-25.291 97.412,-25.409 97.259,-25.498 97.07,-25.488 96.882,-25.478 96.73,-25.375 96.73,-25.256 M88.134,-23.806 L87.804,-24.186 M96.869,-5.3015 C96.748,-5.3714 96.628,-5.4408 96.507,-5.5106 96.304,-5.6441 96.154,-5.8588 96.068,-6.1379 95.049,-9.4628 94.026,-12.798 93.006,-16.123 92.577,-17.52 92.98,-19.35 93.099,-20.658 93.119,-20.745 93.122,-20.841 93.108,-20.935 93.033,-21.095 92.907,-21.24 92.778,-21.315 91.33,-22.15 89.879,-22.989 88.431,-23.824 88.335,-23.88 88.247,-23.891 88.185,-23.856 88.164,-23.844 88.147,-23.826 88.134,-23.806 88.085,-23.749 88.048,-23.673 88.028,-23.585 87.909,-22.278 87.506,-20.447 87.935,-19.05 88.955,-15.725 89.978,-12.39 90.998,-9.0654 91.083,-8.7864 91.233,-8.5717 91.436,-8.4382 91.934,-8.1109 92.688,-8.3074 93.388,-8.9465 93.673,-9.2071 93.935,-9.5292 94.154,-9.8875 94.241,-10.03 94.321,-10.178 94.392,-10.328 94.427,-10.403 94.461,-10.479 94.492,-10.555 94.523,-10.631 94.552,-10.707 94.578,-10.784 94.59,-10.819 94.611,-10.889 94.611,-10.889 M87.666,-23.795 L88.028,-23.585 M98.348,-8.3858 C98.143,-8.4646 97.839,-8.2568 97.668,-7.9216 97.497,-7.5864 97.525,-7.2508 97.73,-7.172 97.828,-7.1341 97.955,-7.1618 98.083,-7.2488 98.21,-7.3359 98.328,-7.4752 98.41,-7.6362 98.492,-7.7971 98.531,-7.9665 98.52,-8.1071 98.508,-8.2477 98.446,-8.3479 98.348,-8.3858 Z"/>
    </g>
  </g>
  <g id="C3DA0001" vm2d:name="Axials" vm2d:type="layer">
    <g id="WRAP_001" vm2d:name="" vm2d:type="grnode">
      <g transform="matrix(3.78235,0,0,3.78235,-0,839.841)" stroke-width="0.15" stroke-linecap="round" stroke-linejoin="round" stroke-miterlimit="10">
        <path fill="#fff" d="M83.199,-128.98 C83.199,-128.82 83.076,-128.7 82.924,-128.7 82.772,-128.7 82.649,-128.82 82.649,-128.98 82.649,-129.13 82.772,-129.25 82.924,-129.25 83.076,-129.25 83.199,-129.13 83.199,-128.98 Z"/>
        <path stroke="#000" stroke-dasharray="6.35,0.635,1.27,0.635" d="M82.834,-129.03 L82.924,-128.98"/>
      </g>
    </g>
    <g id="WRAP_002" vm2d:name="" vm2d:type="grnode">
      <g transform="matrix(3.78235,0,0,3.78235,-0,839.841)" stroke-width="0.15" stroke-linecap="round" stroke-linejoin="round" stroke-miterlimit="10">
        <path fill="#fff" d="M81.315,-130.06 C81.315,-129.91 81.192,-129.78 81.04,-129.78 80.888,-129.78 80.765,-129.91 80.765,-130.06 80.765,-130.21 80.888,-130.33 81.04,-130.33 81.192,-130.33 81.315,-130.21 81.315,-130.06 Z"/>
        <path stroke="#000" stroke-dasharray="6.35,0.635,1.27,0.635" d="M80.693,-130.26 L81.336,-129.89"/>
      </g>
    </g>
    <g id="WRAP_003" vm2d:name="" vm2d:type="grnode">
      <g transform="matrix(3.78235,0,0,3.78235,-0,839.841)" stroke-width="0.55" stroke-linecap="round" stroke-linejoin="round" stroke-miterlimit="10">
        <path stroke="#fff" d="M77.794,-131.92 L78.931,-131.27"/>
        <path stroke="#000" stroke-width="0.15" stroke-dasharray="6.35,0.635,1.27,0.635" d="M77.447,-132.12 L79.278,-131.07"/>
      </g>
    </g>
    <g id="WRAP_004" vm2d:name="" vm2d:type="grnode">
      <g transform="matrix(3.78235,0,0,3.78235,-0,839.841)" stroke-width="0.55" stroke-linecap="round" stroke-linejoin="round" stroke-miterlimit="10">
        <path stroke="#fff" d="M79.88,-185.36 L79.489,-190.12"/>
        <path stroke="#000" stroke-width="0.15" stroke-dasharray="6.35,0.635,1.27,0.635" d="M79.913,-184.96 L79.456,-190.52"/>
      </g>
    </g>
    <g id="WRAP_005" vm2d:name="" vm2d:type="grnode">
      <g transform="matrix(3.78235,0,0,3.78235,-0,839.841)" stroke-width="0.55" stroke-linecap="round" stroke-linejoin="round" stroke-miterlimit="10">
        <path stroke="#fff" d="M84.337,-131.09 L83.962,-135.66"/>
        <path stroke="#000" stroke-width="0.15" stroke-dasharray="6.35,0.635,1.27,0.635" d="M84.37,-130.69 L83.929,-136.06"/>
      </g>
    </g>
    <g id="WRAP_006" vm2d:name="" vm2d:type="grnode">
      <g transform="matrix(3.78235,0,0,3.78235,-0,839.841)" stroke-width="0.55" stroke-linecap="round" stroke-linejoin="round" stroke-miterlimit="10">
        <path stroke="#fff" d="M85.035,-122.59 L84.698,-126.7"/>
        <path stroke="#000" stroke-width="0.15" stroke-dasharray="6.35,0.635,1.27,0.635" d="M85.068,-122.19 L84.665,-127.1"/>
      </g>
    </g>
    <g id="WRAP_007" vm2d:name="" vm2d:type="grnode">
      <g transform="matrix(3.78235,0,0,3.78235,-0,839.841)" stroke-width="0.55" stroke-linecap="round" stroke-linejoin="round" stroke-miterlimit="10">
        <path stroke="#fff" d="M85.555,-116.26 L85.217,-120.38"/>
        <path stroke="#000" stroke-width="0.15" stroke-dasharray="6.35,0.635,1.27,0.635" d="M85.588,-115.87 L85.184,-120.78"/>
      </g>
    </g>
    <g id="WRAP_008" vm2d:name="" vm2d:type="grnode">
      <g transform="matrix(3.78235,0,0,3.78235,-0,839.841)" stroke-width="0.55" stroke-linecap="round" stroke-linejoin="round" stroke-miterlimit="10">
        <path stroke="#fff" d="M86.017,-110.64 L85.664,-114.93"/>
        <path stroke="#000" stroke-width="0.15" stroke-dasharray="6.35,0.635,1.27,0.635" d="M86.049,-110.25 L85.632,-115.33"/>
      </g>
    </g>
    <g id="WRAP_009" vm2d:name="" vm2d:type="grnode">
      <g transform="matrix(3.78235,0,0,3.78235,-0,839.841)" stroke-width="0.55" stroke-linecap="round" stroke-linejoin="round" stroke-miterlimit="10">
        <path stroke="#fff" d="M86.611,-103.41 L86.297,-107.23"/>
        <path stroke="#000" stroke-width="0.15" stroke-dasharray="6.35,0.635,1.27,0.635" d="M86.644,-103.01 L86.265,-107.63"/>
      </g>
    </g>
    <g id="WRAP_010" vm2d:name="" vm2d:type="grnode">
      <g transform="matrix(3.78235,0,0,3.78235,-0,839.841)" stroke-width="0.55" stroke-linecap="round" stroke-linejoin="round" stroke-miterlimit="10">
        <path stroke="#fff" d="M87.127,-97.129 L86.744,-101.79"/>
        <path stroke="#000" stroke-width="0.15" stroke-dasharray="6.35,0.635,1.27,0.635" d="M87.16,-96.73 L86.712,-102.18"/>
      </g>
    </g>
    <g id="WRAP_011" vm2d:name="" vm2d:type="grnode">
      <g transform="matrix(3.78235,0,0,3.78235,-0,839.841)" stroke-width="0.55" stroke-linecap="round" stroke-linejoin="round" stroke-miterlimit="10">
        <path stroke="#fff" d="M89.03,-74.279 L88.489,-80.859"/>
        <path stroke="#000" stroke-width="0.15" stroke-dasharray="6.35,0.635,1.27,0.635" d="M89.062,-73.88 L88.456,-81.258"/>
      </g>
    </g>
    <g id="WRAP_012" vm2d:name="" vm2d:type="grnode">
      <g transform="matrix(3.78235,0,0,3.78235,-0,839.841)" stroke-width="0.55" stroke-linecap="round" stroke-linejoin="round" stroke-miterlimit="10">
        <path stroke="#fff" d="M89.507,-68.463 L89.161,-72.676"/>
        <path stroke="#000" stroke-width="0.15" stroke-dasharray="6.35,0.635,1.27,0.635" d="M89.54,-68.064 L89.129,-73.075"/>
      </g>
    </g>
    <g id="WRAP_013" vm2d:name="" vm2d:type="grnode">
      <g transform="matrix(3.78235,0,0,3.78235,-0,839.841)" stroke-width="0.15" stroke-linecap="round" stroke-linejoin="round" stroke-miterlimit="10">
        <path fill="#fff" d="M89.841,-67.745 C89.841,-67.593 89.718,-67.47 89.566,-67.47 89.414,-67.47 89.291,-67.593 89.291,-67.745 89.291,-67.897 89.414,-68.02 89.566,-68.02 89.718,-68.02 89.841,-67.897 89.841,-67.745 Z"/>
        <path stroke="#000" stroke-dasharray="6.35,0.635,1.27,0.635" d="M89.576,-67.629 L89.566,-67.745"/>
      </g>
    </g>
    <g id="WRAP_014" vm2d:name="" vm2d:type="grnode">
      <g transform="matrix(3.78235,0,0,3.78235,-0,839.841)" stroke-width="0.15" stroke-linecap="round" stroke-linejoin="round" stroke-miterlimit="10">
        <path fill="#fff" d="M89.878,-67.297 C89.878,-67.145 89.755,-67.022 89.603,-67.022 89.451,-67.022 89.328,-67.145 89.328,-67.297 89.328,-67.449 89.451,-67.572 89.603,-67.572 89.755,-67.572 89.878,-67.449 89.878,-67.297 Z"/>
        <path stroke="#000" stroke-dasharray="6.35,0.635,1.27,0.635" d="M89.613,-67.177 L89.603,-67.297"/>
      </g>
    </g>
    <g id="WRAP_015" vm2d:name="" vm2d:type="grnode">
      <g transform="matrix(3.78235,0,0,3.78235,-0,839.841)" stroke-width="0.55" stroke-linecap="round" stroke-linejoin="round" stroke-miterlimit="10">
        <path stroke="#fff" d="M89.995,-62.528 L89.666,-66.527"/>
        <path stroke="#000" stroke-width="0.15" stroke-dasharray="6.35,0.635,1.27,0.635" d="M90.028,-62.129 L89.634,-66.925"/>
      </g>
    </g>
    <g id="WRAP_016" vm2d:name="" vm2d:type="grnode">
      <g transform="matrix(3.78235,0,0,3.78235,-0,839.841)" stroke-width="0.55" stroke-linecap="round" stroke-linejoin="round" stroke-miterlimit="10">
        <path stroke="#fff" d="M90.841,-52.223 L90.556,-55.7"/>
        <path stroke="#000" stroke-width="0.15" stroke-dasharray="6.35,0.635,1.27,0.635" d="M90.874,-51.825 L90.523,-56.099"/>
      </g>
    </g>
  </g>
  <g id="C3DC0001" vm2d:name="Callouts" vm2d:type="layer">
    <g>
      <g transform="matrix(3.78235,0,0,3.78235,-0,839.841)" stroke-width="0.85" stroke-linecap="round" stroke-linejoin="miter" stroke-miterlimit="10">
        <path stroke="#fff" d="M56.449,-178.72 L79.364,-165.77"/>
        <path stroke="#fff" stroke-width="0.7" stroke-linecap="butt" stroke-linejoin="round" d="M79.834,-165.77 C79.834,-165.51 79.624,-165.3 79.364,-165.3 79.105,-165.3 78.894,-165.51 78.894,-165.77 78.894,-166.03 79.105,-166.24 79.364,-166.24 79.624,-166.24 79.834,-166.03 79.834,-165.77 Z"/>
        <path stroke="#000" stroke-width="0.15" d="M56.449,-178.72 L79.364,-165.77"/>
        <path fill="#000" d="M79.834,-165.77 C79.834,-165.51 79.624,-165.3 79.364,-165.3 79.105,-165.3 78.894,-165.51 78.894,-165.77 78.894,-166.03 79.105,-166.24 79.364,-166.24 79.624,-166.24 79.834,-166.03 79.834,-165.77 Z"/>
        <text font-family="Arial" font-size="3.93" x="51.4752" y="-179.371" fill="#000">10</text>
      </g>
    </g>
    <a id="_1b5a40a589d1ac343f4a1080e1fb2303" vm2d:name="10" vm2d:type="grobject" xlink:href="#">
      <path d="M192.4,148.62 L213.51,148.62 213.51,163.88 192.4,163.88 Z" fill="#fff" fill-opacity="0"/>
    </a>
    <g>
      <g transform="matrix(3.78235,0,0,3.78235,-0,839.841)" stroke-width="0.85" stroke-linecap="round" stroke-linejoin="miter" stroke-miterlimit="10">
        <path stroke="#fff" d="M103.37,-138.98 L87.876,-130.25"/>
        <path stroke="#fff" stroke-width="0.7" stroke-linecap="butt" stroke-linejoin="round" d="M88.346,-130.25 C88.346,-129.99 88.136,-129.78 87.876,-129.78 87.617,-129.78 87.406,-129.99 87.406,-130.25 87.406,-130.51 87.617,-130.72 87.876,-130.72 88.136,-130.72 88.346,-130.51 88.346,-130.25 Z"/>
        <path stroke="#000" stroke-width="0.15" d="M103.37,-138.98 L87.876,-130.25"/>
        <path fill="#000" d="M88.346,-130.25 C88.346,-129.99 88.136,-129.78 87.876,-129.78 87.617,-129.78 87.406,-129.99 87.406,-130.25 87.406,-130.51 87.617,-130.72 87.876,-130.72 88.136,-130.72 88.346,-130.51 88.346,-130.25 Z"/>
        <text font-family="Arial" font-size="3.93" x="103.977" y="-139.633" fill="#000">20</text>
      </g>
    </g>
    <a id="b5b1ba7350d501309eacf4070185c6e7" vm2d:name="20" vm2d:type="grobject" xlink:href="#">
      <path d="M390.98,298.93 L412.09,298.93 412.09,314.18 390.98,314.18 Z" fill="#fff" fill-opacity="0"/>
    </a>
    <g>
      <g transform="matrix(3.78235,0,0,3.78235,-0,839.841)" stroke-width="0.85" stroke-linecap="round" stroke-linejoin="miter" stroke-miterlimit="10">
        <path stroke="#fff" d="M59.224,-143.93 L74.281,-135.28"/>
        <path stroke="#fff" stroke-width="0.7" stroke-linecap="butt" stroke-linejoin="round" d="M74.751,-135.28 C74.751,-135.02 74.54,-134.81 74.281,-134.81 74.021,-134.81 73.811,-135.02 73.811,-135.28 73.811,-135.54 74.021,-135.75 74.281,-135.75 74.54,-135.75 74.751,-135.54 74.751,-135.28 Z"/>
        <path stroke="#000" stroke-width="0.15" d="M59.224,-143.93 L74.281,-135.28"/>
        <path fill="#000" d="M74.751,-135.28 C74.751,-135.02 74.54,-134.81 74.281,-134.81 74.021,-134.81 73.811,-135.02 73.811,-135.28 73.811,-135.54 74.021,-135.75 74.281,-135.75 74.54,-135.75 74.751,-135.54 74.751,-135.28 Z"/>
        <text font-family="Arial" font-size="3.93" x="54.2502" y="-144.586" fill="#000">25</text>
      </g>
    </g>
    <a id="f508eab7df2df5b6e4fdb172ddf8dc1b" vm2d:name="25" vm2d:type="grobject" xlink:href="#">
      <path d="M202.9,280.19 L224.01,280.19 224.01,295.45 202.9,295.45 Z" fill="#fff" fill-opacity="0"/>
    </a>
    <g>
      <g transform="matrix(3.78235,0,0,3.78235,-0,839.841)" stroke-width="0.85" stroke-linecap="round" stroke-linejoin="miter" stroke-miterlimit="10">
        <path stroke="#fff" d="M104.16,-131.25 L88.372,-122.04"/>
        <path stroke="#fff" stroke-width="0.7" stroke-linecap="butt" stroke-linejoin="round" d="M88.842,-122.04 C88.842,-121.78 88.631,-121.57 88.372,-121.57 88.112,-121.57 87.902,-121.78 87.902,-122.04 87.902,-122.29 88.112,-122.51 88.372,-122.51 88.631,-122.51 88.842,-122.29 88.842,-122.04 Z"/>
        <path stroke="#000" stroke-width="0.15" d="M104.16,-131.25 L88.372,-122.04"/>
        <path fill="#000" d="M88.842,-122.04 C88.842,-121.78 88.631,-121.57 88.372,-121.57 88.112,-121.57 87.902,-121.78 87.902,-122.04 87.902,-122.29 88.112,-122.51 88.372,-122.51 88.631,-122.51 88.842,-122.29 88.842,-122.04 Z"/>
        <text font-family="Arial" font-size="3.93" x="104.771" y="-131.905" fill="#000">30</text>
      </g>
    </g>
    <a id="_39191ef99198b6c3b816de3abb70f4ae" vm2d:name="30" vm2d:type="grobject" xlink:href="#">
      <path d="M393.99,328.16 L415.09,328.16 415.09,343.41 393.99,343.41 Z" fill="#fff" fill-opacity="0"/>
    </a>
    <g>
      <g transform="matrix(3.78235,0,0,3.78235,-0,839.841)" stroke-width="0.85" stroke-linecap="round" stroke-linejoin="miter" stroke-miterlimit="10">
        <path stroke="#fff" d="M60.24,-130.29 L82.992,-117.18"/>
        <path stroke="#fff" stroke-width="0.7" stroke-linecap="butt" stroke-linejoin="round" d="M83.462,-117.18 C83.462,-116.92 83.251,-116.71 82.992,-116.71 82.732,-116.71 82.522,-116.92 82.522,-117.18 82.522,-117.44 82.732,-117.65 82.992,-117.65 83.251,-117.65 83.462,-117.44 83.462,-117.18 Z"/>
        <path stroke="#000" stroke-width="0.15" d="M60.24,-130.29 L82.992,-117.18"/>
        <path fill="#000" d="M83.462,-117.18 C83.462,-116.92 83.251,-116.71 82.992,-116.71 82.732,-116.71 82.522,-116.92 82.522,-117.18 82.522,-117.44 82.732,-117.65 82.992,-117.65 83.251,-117.65 83.462,-117.44 83.462,-117.18 Z"/>
        <text font-family="Arial" font-size="3.93" x="55.2663" y="-130.945" fill="#000">35</text>
      </g>
    </g>
    <a id="_96a7702f55d56574c0b5bdc15c196e7f" vm2d:name="35" vm2d:type="grobject" xlink:href="#">
      <path d="M206.74,331.79 L227.85,331.79 227.85,347.04 206.74,347.04 Z" fill="#fff" fill-opacity="0"/>
    </a>
    <g>
      <g transform="matrix(3.78235,0,0,3.78235,-0,839.841)" stroke-width="0.85" stroke-linecap="round" stroke-linejoin="miter" stroke-miterlimit="10">
        <path stroke="#fff" d="M60.976,-121.39 L83.143,-108.67"/>
        <path stroke="#fff" stroke-width="0.7" stroke-linecap="butt" stroke-linejoin="round" d="M83.613,-108.67 C83.613,-108.41 83.403,-108.2 83.143,-108.2 82.884,-108.2 82.673,-108.41 82.673,-108.67 82.673,-108.93 82.884,-109.14 83.143,-109.14 83.403,-109.14 83.613,-108.93 83.613,-108.67 Z"/>
        <path stroke="#000" stroke-width="0.15" d="M60.976,-121.39 L83.143,-108.67"/>
        <path fill="#000" d="M83.613,-108.67 C83.613,-108.41 83.403,-108.2 83.143,-108.2 82.884,-108.2 82.673,-108.41 82.673,-108.67 82.673,-108.93 82.884,-109.14 83.143,-109.14 83.403,-109.14 83.613,-108.93 83.613,-108.67 Z"/>
        <text font-family="Arial" font-size="3.93" x="56.0024" y="-122.049" fill="#000">40</text>
      </g>
    </g>
    <a id="_4059739b2a022467bf4b991a4ba4e140" vm2d:name="40" vm2d:type="grobject" xlink:href="#">
      <path d="M209.53,365.44 L230.63,365.44 230.63,380.69 209.53,380.69 Z" fill="#fff" fill-opacity="0"/>
    </a>
    <g>
      <g transform="matrix(3.78235,0,0,3.78235,-0,839.841)" stroke-width="0.85" stroke-linecap="round" stroke-linejoin="miter" stroke-miterlimit="10">
        <path stroke="#fff" d="M62.863,-100.76 L86.267,-86.532"/>
        <path stroke="#fff" stroke-width="0.7" stroke-linecap="butt" stroke-linejoin="round" d="M86.737,-86.532 C86.737,-86.273 86.526,-86.062 86.267,-86.062 86.007,-86.062 85.797,-86.273 85.797,-86.532 85.797,-86.792 86.007,-87.002 86.267,-87.002 86.526,-87.002 86.737,-86.792 86.737,-86.532 Z"/>
        <path stroke="#000" stroke-width="0.15" d="M62.863,-100.76 L86.267,-86.532"/>
        <path fill="#000" d="M86.737,-86.532 C86.737,-86.273 86.526,-86.062 86.267,-86.062 86.007,-86.062 85.797,-86.273 85.797,-86.532 85.797,-86.792 86.007,-87.002 86.267,-87.002 86.526,-87.002 86.737,-86.792 86.737,-86.532 Z"/>
        <text font-family="Arial" font-size="3.93" x="57.8894" y="-101.413" fill="#000">45</text>
      </g>
    </g>
    <a id="_3ba6d117455e6bf7a75662ffcb4dbdec" vm2d:name="45" vm2d:type="grobject" xlink:href="#">
      <path d="M216.66,443.49 L237.77,443.49 237.77,458.74 216.66,458.74 Z" fill="#fff" fill-opacity="0"/>
    </a>
    <g>
      <g transform="matrix(3.78235,0,0,3.78235,-0,839.841)" stroke-width="0.85" stroke-linecap="round" stroke-linejoin="miter" stroke-miterlimit="10">
        <path stroke="#fff" d="M96.69,-205.17 L81.809,-196.38"/>
        <path stroke="#fff" stroke-width="0.7" stroke-linecap="butt" stroke-linejoin="round" d="M82.279,-196.38 C82.279,-196.12 82.068,-195.91 81.809,-195.91 81.549,-195.91 81.339,-196.12 81.339,-196.38 81.339,-196.63 81.549,-196.85 81.809,-196.85 82.068,-196.85 82.279,-196.63 82.279,-196.38 Z"/>
        <path stroke="#000" stroke-width="0.15" d="M96.69,-205.17 L81.809,-196.38"/>
        <path fill="#000" d="M82.279,-196.38 C82.279,-196.12 82.068,-195.91 81.809,-195.91 81.549,-195.91 81.339,-196.12 81.339,-196.38 81.339,-196.63 81.549,-196.85 81.809,-196.85 82.068,-196.85 82.279,-196.63 82.279,-196.38 Z"/>
        <text font-family="Arial" font-size="3.93" x="97.2966" y="-205.823" fill="#000">5</text>
      </g>
    </g>
    <a id="_13146c43f6a85515a6661b674fcd16ae" vm2d:name="5" vm2d:type="grobject" xlink:href="#">
      <path d="M365.71,48.573 L378.56,48.573 378.56,63.825 365.71,63.825 Z" fill="#fff" fill-opacity="0"/>
    </a>
    <g>
      <g transform="matrix(3.78235,0,0,3.78235,-0,839.841)" stroke-width="0.85" stroke-linecap="round" stroke-linejoin="miter" stroke-miterlimit="10">
        <path stroke="#fff" d="M108.54,-79.017 L92.556,-69.725"/>
        <path stroke="#fff" stroke-width="0.7" stroke-linecap="butt" stroke-linejoin="round" d="M93.026,-69.725 C93.026,-69.465 92.816,-69.255 92.556,-69.255 92.296,-69.255 92.086,-69.465 92.086,-69.725 92.086,-69.984 92.296,-70.195 92.556,-70.195 92.816,-70.195 93.026,-69.984 93.026,-69.725 Z"/>
        <path stroke="#000" stroke-width="0.15" d="M108.54,-79.017 L92.556,-69.725"/>
        <path fill="#000" d="M93.026,-69.725 C93.026,-69.465 92.816,-69.255 92.556,-69.255 92.296,-69.255 92.086,-69.465 92.086,-69.725 92.086,-69.984 92.296,-70.195 92.556,-70.195 92.816,-70.195 93.026,-69.984 93.026,-69.725 Z"/>
        <text font-family="Arial" font-size="3.93" x="109.143" y="-79.6725" fill="#000">50</text>
      </g>
    </g>
    <a id="_3baf4de7f4e5522727269828b4360eb1" vm2d:name="50" vm2d:type="grobject" xlink:href="#">
      <path d="M410.52,525.72 L431.63,525.72 431.63,540.97 410.52,540.97 Z" fill="#fff" fill-opacity="0"/>
    </a>
    <g>
      <g transform="matrix(3.78235,0,0,3.78235,-0,839.841)" stroke-width="0.85" stroke-linecap="round" stroke-linejoin="miter" stroke-miterlimit="10">
        <path stroke="#fff" d="M105.39,-113.53 L90.249,-104.63"/>
        <path stroke="#fff" stroke-width="0.7" stroke-linecap="butt" stroke-linejoin="round" d="M90.719,-104.63 C90.719,-104.37 90.509,-104.16 90.249,-104.16 89.989,-104.16 89.779,-104.37 89.779,-104.63 89.779,-104.89 89.989,-105.1 90.249,-105.1 90.509,-105.1 90.719,-104.89 90.719,-104.63 Z"/>
        <path stroke="#000" stroke-width="0.15" d="M105.39,-113.53 L90.249,-104.63"/>
        <path fill="#000" d="M90.719,-104.63 C90.719,-104.37 90.509,-104.16 90.249,-104.16 89.989,-104.16 89.779,-104.37 89.779,-104.63 89.779,-104.89 89.989,-105.1 90.249,-105.1 90.509,-105.1 90.719,-104.89 90.719,-104.63 Z"/>
        <text font-family="Arial" font-size="3.93" x="105.998" y="-114.188" fill="#000">55</text>
      </g>
    </g>
    <a id="_1856143a20e090f813d66ff5b84ee70f" vm2d:name="55" vm2d:type="grobject" xlink:href="#">
      <path d="M398.63,395.17 L419.73,395.17 419.73,410.42 398.63,410.42 Z" fill="#fff" fill-opacity="0"/>
    </a>
    <g>
      <g transform="matrix(3.78235,0,0,3.78235,-0,839.841)" stroke-width="0.85" stroke-linecap="round" stroke-linejoin="miter" stroke-miterlimit="10">
        <path stroke="#fff" d="M107.71,-87.623 L90.441,-77.618"/>
        <path stroke="#fff" stroke-width="0.7" stroke-linecap="butt" stroke-linejoin="round" d="M90.911,-77.618 C90.911,-77.358 90.7,-77.148 90.441,-77.148 90.181,-77.148 89.971,-77.358 89.971,-77.618 89.971,-77.877 90.181,-78.088 90.441,-78.088 90.7,-78.088 90.911,-77.877 90.911,-77.618 Z"/>
        <path stroke="#000" stroke-width="0.15" d="M107.71,-87.623 L90.441,-77.618"/>
        <path fill="#000" d="M90.911,-77.618 C90.911,-77.358 90.7,-77.148 90.441,-77.148 90.181,-77.148 89.971,-77.358 89.971,-77.618 89.971,-77.877 90.181,-78.088 90.441,-78.088 90.7,-78.088 90.911,-77.877 90.911,-77.618 Z"/>
        <text font-family="Arial" font-size="3.93" x="108.32" y="-88.2782" fill="#000">55</text>
      </g>
    </g>
    <a id="_1856143a20e090f813d66ff5b84ee70f_2" vm2d:name="55" vm2d:type="grobject" xlink:href="#">
      <path d="M407.41,493.17 L428.52,493.17 428.52,508.42 407.41,508.42 Z" fill="#fff" fill-opacity="0"/>
    </a>
    <g>
      <g transform="matrix(3.78235,0,0,3.78235,-0,839.841)" stroke-width="0.85" stroke-linecap="round" stroke-linejoin="miter" stroke-miterlimit="10">
        <path stroke="#fff" d="M109.36,-67.436 L94.723,-59.01"/>
        <path stroke="#fff" stroke-width="0.7" stroke-linecap="butt" stroke-linejoin="round" d="M95.193,-59.01 C95.193,-58.75 94.982,-58.54 94.723,-58.54 94.463,-58.54 94.253,-58.75 94.253,-59.01 94.253,-59.269 94.463,-59.48 94.723,-59.48 94.982,-59.48 95.193,-59.269 95.193,-59.01 Z"/>
        <path stroke="#000" stroke-width="0.15" d="M109.36,-67.436 L94.723,-59.01"/>
        <path fill="#000" d="M95.193,-59.01 C95.193,-58.75 94.982,-58.54 94.723,-58.54 94.463,-58.54 94.253,-58.75 94.253,-59.01 94.253,-59.269 94.463,-59.48 94.723,-59.48 94.982,-59.48 95.193,-59.269 95.193,-59.01 Z"/>
        <text font-family="Arial" font-size="3.93" x="109.967" y="-68.0913" fill="#000">60</text>
      </g>
    </g>
    <a id="c2563ef740772cb2d0757b1f4fb78551" vm2d:name="60" vm2d:type="grobject" xlink:href="#">
      <path d="M413.64,569.52 L434.75,569.52 434.75,584.77 413.64,584.77 Z" fill="#fff" fill-opacity="0"/>
    </a>
    <g>
      <g transform="matrix(3.78235,0,0,3.78235,-0,839.841)" stroke-width="0.85" stroke-linecap="round" stroke-linejoin="miter" stroke-miterlimit="10">
        <path stroke="#fff" d="M111.66,-41.575 L94.976,-31.778"/>
        <path stroke="#fff" stroke-width="0.7" stroke-linecap="butt" stroke-linejoin="round" d="M95.446,-31.778 C95.446,-31.518 95.236,-31.308 94.976,-31.308 94.717,-31.308 94.506,-31.518 94.506,-31.778 94.506,-32.037 94.717,-32.248 94.976,-32.248 95.236,-32.248 95.446,-32.037 95.446,-31.778 Z"/>
        <path stroke="#000" stroke-width="0.15" d="M111.66,-41.575 L94.976,-31.778"/>
        <path fill="#000" d="M95.446,-31.778 C95.446,-31.518 95.236,-31.308 94.976,-31.308 94.717,-31.308 94.506,-31.518 94.506,-31.778 94.506,-32.037 94.717,-32.248 94.976,-32.248 95.236,-32.248 95.446,-32.037 95.446,-31.778 Z"/>
        <text font-family="Arial" font-size="3.93" x="112.262" y="-42.2301" fill="#000">65</text>
      </g>
    </g>
    <a id="_56db184b5fc11257c39c44d7294a44dc" vm2d:name="65" vm2d:type="grobject" xlink:href="#">
      <path d="M422.32,667.34 L443.43,667.34 443.43,682.59 422.32,682.59 Z" fill="#fff" fill-opacity="0"/>
    </a>
  </g>
  <g id="C3DP0001" vm2d:name="Panels" vm2d:type="layer"/>
  <g id="AUTOID_111" vm2d:name="" vm2d:type="grnode">
    <g transform="matrix(3.78235,0,0,3.78235,-0,839.841)">
      <path fill="#fff" d="M81.941,-220 L87.941,-220 87.941,-214 81.941,-214 81.941,-220 81.941,-220 Z"/>
      <path fill="#000" d="M82.141,-219.8 L87.741,-219.8 87.741,-214.2 82.141,-214.2 82.141,-219.8 82.141,-219.8 Z"/>
      <path fill="#fff" d="M82.341,-219.6 L87.54,-219.6 87.54,-214.4 82.341,-214.4 82.341,-219.6 82.341,-219.6 Z"/>
      <path fill="#000" d="M85.399,-216.63 L85.399,-216.63 84.912,-217.94 84.436,-216.63 84.216,-216.04 83.923,-215.23 83.167,-215.23 84.543,-218.77 85.298,-218.77 86.715,-215.23 86.715,-215.23 85.937,-215.23 85.628,-216.04 84.216,-216.04 84.436,-216.63 85.399,-216.63 85.399,-216.63 Z"/>
    </g>
  </g>
</svg>
