<?xml version="1.0" encoding="UTF-8" standalone="no"?>
<!DOCTYPE svg SYSTEM "http://www.w3.org/Graphics/SVG/1.1/DTD/svg11.dtd" [
<!ENTITY % SVG.External.attrib
"xmlns:vm2d CDATA #FIXED 'http://www.cortona3d.com/vm2d'
vm2d:name CDATA #IMPLIED
vm2d:type CDATA #IMPLIED">
]>
<svg xmlns="http://www.w3.org/2000/svg" xmlns:vm2d="http://www.cortona3d.com/vm2d" xmlns:xlink="http://www.w3.org/1999/xlink" version="1.1" width="170mm" height="210mm" viewBox="0 0 643 794" fill="none" fill-rule="evenodd" stroke-miterlimit="5">
  <title>Untitled-0004</title>
  <desc>"Generator:ParallelGraphics Cortona2D","ProfileId:WebCGM""ProfileEd:2.1""ColourClass:colour""Source:Cortona2D Editor Pro 14.2.0.142""Date:20250320"</desc>
  <rect width="643" height="794" fill="#fff"/>
  <defs/>
  <g id="C3DA0001" vm2d:name="Axials" vm2d:type="layer">
    <g id="AUTOID_001" vm2d:name="" vm2d:type="grnode">
      <g transform="matrix(3.78095,0,0,3.78095,0.119049,794)" stroke-width="0.15" stroke-linecap="round" stroke-linejoin="round" stroke-miterlimit="10">
        <path stroke="#000" d="M115.3,-70.024 L113.65,-69.074 M105.82,-71.133 C105.82,-71.253 105.82,-71.374 105.82,-71.494 L105.98,-71.779 108.16,-73.035 108.21,-73.006 108.37,-72.911 C108.37,-72.791 108.37,-72.67 108.37,-72.55 108.37,-72.526 108.37,-72.506 108.35,-72.494 107.52,-72.011 106.69,-71.531 105.85,-71.048 M124.1,-70.41 C124.1,-70.41 124.1,-73.923 124.1,-75.679 124.1,-77.822 124.1,-79.965 124.1,-82.108 124.1,-82.146 124.1,-82.181 124.12,-82.217 124.13,-82.244 124.15,-82.267 124.17,-82.279 124.28,-82.343 124.39,-82.407 124.5,-82.472 124.79,-82.639 125.08,-82.806 125.37,-82.973 125.65,-83.131 125.92,-83.29 126.19,-83.449 126.52,-83.636 126.84,-83.823 127.17,-84.01 127.18,-84.018 127.19,-84.021 127.21,-84.018 127.22,-84.011 127.23,-84.005 127.24,-83.997 128.27,-84.588 129.28,-85.175 130.31,-85.766 M47.638,-95.127 C47.638,-95.127 41.62,-98.602 38.612,-100.34 38.446,-100.43 38.281,-100.53 38.115,-100.63 38.061,-100.66 38.007,-100.69 37.952,-100.72 L37.952,-101.1 C38.672,-101.52 39.391,-101.93 40.11,-102.35 40.33,-102.22 40.55,-102.09 40.769,-101.97 41.006,-101.83 41.479,-101.56 41.479,-101.56 M102.59,-69.821 C102.05,-70.135 101.5,-70.448 100.96,-70.762 100.88,-70.718 100.81,-70.674 100.73,-70.629 100.73,-69.533 100.73,-68.444 100.73,-67.348 101.28,-67.031 101.83,-66.714 102.38,-66.397 L102.38,-66.016 C101.66,-65.601 100.94,-65.186 100.22,-64.771 99.998,-64.897 99.778,-65.024 99.559,-65.151 93.553,-68.619 81.54,-75.554 81.54,-75.554 M130.48,-85.113 C130.48,-85.113 131.48,-84.536 131.98,-84.247 132.2,-84.121 132.42,-83.994 132.64,-83.867 L132.64,-83.487 132.27,-83.277 M111.76,-70.163 C111.76,-70.163 112.45,-70.339 112.79,-70.426 112.92,-70.46 113.04,-70.507 113.14,-70.565 115.42,-71.881 117.7,-73.197 119.97,-74.513 120.03,-74.546 120.09,-74.585 120.14,-74.63 121.13,-75.545 122.13,-76.46 123.13,-77.374 123.18,-77.419 123.23,-77.459 123.29,-77.492 123.53,-77.633 123.78,-77.773 124.02,-77.914 L124.02,-78.142 123.26,-78.58 M110.63,-72.315 L118.78,-77.021 M116.84,-72.706 C116.84,-72.706 115.53,-70.425 114.87,-69.287 114.83,-69.223 114.87,-69.151 114.96,-69.095 115.21,-68.956 115.45,-68.816 115.69,-68.677 115.77,-68.632 115.83,-68.601 115.92,-68.6 L116,-68.591 C116.14,-68.596 116.27,-68.599 116.38,-68.636 116.49,-68.673 116.56,-68.754 116.64,-68.813 116.72,-68.871 116.8,-68.929 116.89,-68.987 117.98,-70.876 119.06,-72.754 120.15,-74.643 M81.624,-76.97 L98.851,-67.024 M100.46,-67.766 L99.015,-66.929 98.851,-67.024 100.12,-70.29 M66.894,-110.53 L66.894,-109.12 M119.08,-72.786 L119.08,-72.207 123.15,-69.858 M102.52,-56.791 C102.52,-56.791 102.52,-61.052 102.52,-63.182 102.52,-65.326 102.52,-67.468 102.52,-69.612 102.52,-69.65 102.52,-69.685 102.54,-69.721 102.55,-69.747 102.57,-69.77 102.59,-69.782 102.7,-69.847 102.81,-69.911 102.92,-69.975 103.21,-70.143 103.5,-70.31 103.79,-70.477 104.07,-70.636 104.34,-70.794 104.62,-70.953 104.94,-71.14 105.26,-71.326 105.59,-71.513 105.6,-71.521 105.62,-71.524 105.63,-71.521 105.64,-71.517 105.65,-71.5 105.65,-71.476 105.65,-71.456 105.65,-71.438 105.65,-71.419 105.65,-69.275 105.65,-67.132 105.65,-64.989 105.65,-63.398 105.65,-60.215 105.65,-60.215 M64.727,-85.642 L68.574,-83.42 M55.594,-108.63 L51.509,-106.27 51.311,-106.16 M100.3,-70.38 L83.013,-80.361 M52.477,-97.921 L42.504,-103.68 42.3,-103.67 41.033,-100.41 41.197,-100.31 48.906,-95.86 M98.406,-65.817 C98.406,-65.181 98.406,-64.55 98.406,-63.915 98.516,-63.851 98.625,-63.788 98.735,-63.724 L98.867,-63.648 100.51,-64.599 M153.77,-71.907 C153.77,-71.907 154.09,-71.722 154.25,-71.629 154.3,-71.603 154.37,-71.603 154.41,-71.629 154.77,-71.832 155.12,-72.035 155.47,-72.238 155.82,-72.441 156.17,-72.644 156.52,-72.846 157.18,-73.227 157.6,-73.77 157.62,-74.278 157.64,-74.699 157.62,-75.542 157.62,-75.542 M107.92,-47.204 C107.92,-46.41 107.92,-45.621 107.92,-44.826 107.93,-44.806 107.92,-44.784 107.89,-44.769 107.54,-44.565 107.19,-44.363 106.84,-44.16 106.48,-43.957 106.13,-43.754 105.78,-43.551 105.69,-43.498 105.59,-43.448 105.5,-43.402 105.4,-43.355 105.19,-43.275 105.19,-43.275 M101.05,-43.278 C99.99,-43.686 99.369,-44.365 99.378,-45.111 99.387,-45.886 99.385,-46.662 99.378,-47.437 99.378,-47.454 99.378,-47.471 99.378,-47.488 99.379,-47.522 99.381,-47.555 99.384,-47.589 99.385,-47.591 99.386,-47.597 99.386,-47.597 M21.559,-103.72 C21.559,-103.7 21.559,-103.68 21.559,-103.66 21.559,-101.54 21.559,-99.435 21.559,-97.314 21.564,-97.292 21.552,-97.271 21.526,-97.256 21.512,-96.452 21.508,-95.5 21.511,-94.707 21.511,-94.689 21.498,-94.672 21.477,-94.66 21.125,-94.456 20.774,-94.253 20.422,-94.05 19.678,-93.621 19.004,-93.178 18.166,-92.975 16.972,-92.686 15.631,-92.765 14.588,-93.186 13.545,-93.607 12.938,-94.314 12.968,-95.072 12.982,-95.424 12.966,-96.126 12.966,-96.126 M67.194,-130.77 C67.191,-130.78 67.588,-130.55 67.787,-130.43 67.832,-130.4 67.906,-130.4 67.951,-130.43 68.306,-130.64 68.66,-130.84 69.015,-131.05 69.369,-131.25 69.724,-131.45 70.078,-131.66 70.088,-131.66 70.098,-131.67 70.109,-131.66 70.211,-131.64 70.313,-131.62 70.416,-131.6 70.503,-131.58 70.59,-131.57 70.677,-131.56 70.838,-131.54 70.963,-131.54 71.053,-131.56 71.089,-131.56 71.126,-131.57 71.157,-131.59 71.177,-131.6 71.195,-131.62 71.204,-131.65 71.213,-131.67 71.224,-131.69 71.232,-131.71 71.25,-131.75 71.228,-131.82 71.171,-131.89 71.062,-132.03 70.818,-132.23 70.463,-132.45 70.083,-132.69 69.582,-132.96 69.013,-133.23 68,-133.72 66.84,-134.19 65.843,-134.51 65.712,-134.55 65.582,-134.59 65.45,-134.63 65.328,-134.66 65.205,-134.7 65.081,-134.73 64.999,-134.75 64.916,-134.77 64.833,-134.79 64.812,-134.79 64.792,-134.79 64.774,-134.78 64.419,-134.57 64.065,-134.37 63.711,-134.16 63.356,-133.96 63.002,-133.76 62.647,-133.55 62.63,-133.54 62.618,-133.53 62.615,-133.51 62.609,-133.49 62.621,-133.47 62.647,-133.46 62.664,-133.45 62.696,-133.43 62.696,-133.43 M71.209,-131.66 L71.203,-128.66 M102.59,-69.821 C102.05,-70.135 101.5,-70.448 100.96,-70.762 L103.37,-75.959 103.91,-76.268 C104.9,-76.112 105.89,-75.957 106.88,-75.801 107.28,-75.737 107.71,-75.803 108.01,-75.974 111.38,-77.92 114.75,-79.866 118.12,-81.812 118.3,-81.917 118.42,-82.055 118.45,-82.204 118.66,-83.142 118.86,-84.079 119.06,-85.018 L119.6,-85.328 C119.6,-85.328 128.6,-86.72 128.6,-86.72 128.68,-86.765 128.75,-86.809 128.83,-86.853 129.38,-86.536 129.93,-86.22 130.48,-85.903 130.48,-85.372 130.48,-84.845 130.48,-84.314 M149.11,-83.536 C149.11,-83.536 149.08,-83.555 149.06,-83.564 149.03,-83.58 149.02,-83.601 149.03,-83.623 149.03,-83.637 149.04,-83.65 149.06,-83.66 149.42,-83.864 149.77,-84.069 150.12,-84.273 150.48,-84.478 150.83,-84.683 151.19,-84.887 151.21,-84.898 151.23,-84.904 151.25,-84.899 151.33,-84.88 151.41,-84.859 151.5,-84.838 151.62,-84.806 151.74,-84.772 151.86,-84.736 152,-84.697 152.13,-84.657 152.26,-84.615 153.25,-84.296 154.41,-83.831 155.43,-83.344 156,-83.07 156.5,-82.799 156.88,-82.56 157.23,-82.336 157.48,-82.143 157.59,-82 157.64,-81.925 157.66,-81.861 157.65,-81.818 157.64,-81.797 157.63,-81.776 157.62,-81.755 157.61,-81.733 157.59,-81.714 157.57,-81.701 157.54,-81.682 157.5,-81.672 157.47,-81.666 157.38,-81.65 157.25,-81.651 157.09,-81.67 157,-81.679 156.92,-81.694 156.83,-81.71 156.73,-81.728 156.62,-81.75 156.52,-81.773 156.51,-81.776 156.5,-81.774 156.49,-81.768 156.14,-81.563 155.78,-81.359 155.43,-81.154 155.07,-80.949 154.72,-80.745 154.36,-80.54 154.32,-80.514 154.25,-80.514 154.2,-80.54 154,-80.655 153.6,-80.885 153.61,-80.883 L153.61,-80.883 M153.77,-74.417 C153.77,-74.417 154.06,-74.251 154.2,-74.168 154.25,-74.142 154.32,-74.142 154.37,-74.168 154.72,-74.376 155.08,-74.584 155.44,-74.791 155.88,-75.043 156.57,-75.376 157,-75.751 157.04,-75.783 157.1,-75.854 157.1,-75.854 M107.97,-53.795 C107.97,-53.795 107.97,-53.795 107.97,-53.794 L107.97,-47.423 C107.97,-47.416 107.97,-47.408 107.97,-47.402 107.97,-47.388 107.96,-47.375 107.94,-47.365 107.58,-47.157 107.22,-46.949 106.86,-46.742 106.35,-46.444 105.77,-46.063 105.2,-45.843 105.19,-45.842 105.19,-45.84 105.19,-45.84 M99.386,-52.071 C99.386,-50.546 99.386,-49.031 99.386,-47.506 99.455,-46.902 99.959,-46.342 100.78,-45.962 100.87,-45.919 101.07,-45.846 101.07,-45.846 M99.379,-52.122 L99.386,-48.853 M60.338,-83.705 C60.338,-83.705 61.046,-83.297 61.401,-83.092 61.453,-83.062 61.505,-83.032 61.557,-83.002 L61.887,-83.192 61.887,-85.293 M65.445,-134.63 C65.445,-135.18 65.445,-135.73 65.445,-136.29 65.469,-136.29 65.492,-136.29 65.515,-136.29 65.515,-136.29 65.515,-136.29 65.515,-136.29 66.815,-136.29 68.106,-136.29 69.406,-136.29 69.406,-136.29 69.406,-136.29 69.406,-136.29 69.406,-136.3 69.406,-136.29 69.406,-136.29 L69.475,-136.29 69.475,-133 M168.62,-76.715 L157.12,-79.766 C157.05,-79.766 157,-79.731 156.97,-79.67 156.89,-79.501 156.8,-79.333 156.72,-79.164 156.71,-79.137 156.7,-79.107 156.7,-79.082 156.7,-78.067 156.7,-77.052 156.7,-76.038 156.7,-76.012 156.71,-75.994 156.72,-75.986 156.8,-75.938 156.89,-75.89 156.97,-75.842 L157,-75.825 C157.02,-75.814 157.05,-75.829 157.06,-75.84 157.08,-75.85 157.1,-75.856 157.12,-75.856 L157.5,-75.542 C157.96,-75.542 158.41,-75.542 158.87,-75.542 158.93,-75.542 158.99,-75.522 159.03,-75.486 159.08,-75.45 159.1,-75.402 159.1,-75.351 159.1,-75.352 159.1,-75.179 159.1,-75.093 159.1,-75.084 159.1,-75.075 159.1,-75.066 162.27,-75.066 165.45,-75.066 168.62,-75.066 168.65,-75.066 168.68,-75.073 168.7,-75.086 168.72,-75.098 168.73,-75.116 168.73,-75.134 L168.73,-76.655 C168.73,-77.404 168.73,-78.153 168.73,-78.901 168.73,-78.908 168.73,-78.916 168.73,-78.901 168.73,-78.942 168.7,-78.979 168.65,-78.992 168.65,-79.005 168.65,-79.018 168.65,-79.032 164.96,-80.011 161.3,-80.984 157.61,-81.963 M157.62,-80.795 C157.62,-80.383 157.42,-80.034 157.04,-79.787 157.04,-79.774 157.04,-79.761 157.04,-79.748 157.04,-79.748 157.04,-79.748 157.04,-79.747 M97.85,-87.807 L94.535,-85.893 M103.46,-91.045 L106.99,-93.083 107.15,-92.988 108.4,-93.711 M78.754,-71.551 L78.754,-71.399 C79.524,-71.399 80.29,-71.399 81.06,-71.399 81.159,-71.456 81.258,-71.513 81.357,-71.57 81.357,-71.621 81.357,-71.672 81.357,-71.722 M12.942,-102.54 C9.2649,-101.56 5.61,-100.59 1.933,-99.617 1.933,-99.603 1.933,-99.59 1.933,-99.576 1.885,-99.563 1.8525,-99.527 1.8525,-99.486 1.8525,-98.737 1.8525,-97.988 1.8525,-97.24 1.8525,-96.733 1.8525,-96.225 1.8525,-95.718 1.8525,-95.681 1.9046,-95.651 1.9689,-95.651 5.1411,-95.651 8.3132,-95.651 11.485,-95.651 11.485,-95.746 11.485,-95.841 11.485,-95.936 11.485,-96.041 11.59,-96.126 11.718,-96.126 12.174,-96.126 12.63,-96.126 13.086,-96.126 13.086,-96.126 13.47,-96.44 13.47,-96.44 13.491,-96.44 13.512,-96.434 13.525,-96.425 13.541,-96.413 13.563,-96.398 13.582,-96.41 L13.619,-96.427 C13.701,-96.475 13.783,-96.523 13.864,-96.57 13.878,-96.578 13.885,-96.597 13.885,-96.622 13.885,-97.637 13.885,-98.651 13.885,-99.666 13.885,-99.692 13.878,-99.721 13.864,-99.749 13.783,-99.918 13.701,-100.09 13.619,-100.25 13.59,-100.31 13.538,-100.35 13.47,-100.35 L1.9689,-97.299 M13.549,-100.33 C13.55,-100.33 13.551,-100.33 13.552,-100.33 13.552,-100.35 13.552,-100.36 13.552,-100.37 13.168,-100.62 12.964,-100.97 12.964,-101.38 M101.11,-49.755 C101.11,-46.524 101.11,-43.294 101.11,-40.063 101.11,-40.03 101.11,-39.997 101.11,-39.963 L101.11,-40.209 M105.14,-49.755 C105.14,-46.524 105.14,-43.294 105.14,-40.063 105.14,-40.03 105.14,-39.997 105.14,-39.963 103.8,-39.963 102.46,-39.963 101.11,-39.963 M101.11,-49.823 C102.34,-49.164 103.91,-49.164 105.14,-49.823 M78.853,-71.685 C79.238,-71.907 79.621,-72.128 80.006,-72.35 80.006,-72.35 80.715,-71.941 81.069,-71.737 81.121,-71.707 81.173,-71.676 81.225,-71.647 L81.554,-71.837 C81.554,-72.325 81.555,-75.499 81.522,-75.622 81.522,-77.296 81.971,-78.834 82.918,-80.233 83.315,-80.82 83.793,-81.338 84.16,-81.947 84.481,-82.481 84.547,-82.91 85.014,-83.367 85.227,-83.576 85.473,-83.752 85.732,-83.901 85.943,-84.023 86.364,-84.266 86.364,-84.266 M20.944,-94.352 C20.944,-94.352 21.103,-93.897 21.107,-93.84 21.176,-92.768 20.124,-91.775 18.458,-91.339 16.792,-90.904 14.854,-91.116 13.579,-91.872 12.303,-92.629 11.953,-93.776 12.696,-94.759 12.777,-94.866 12.968,-95.057 12.968,-95.057 M107.4,-44.485 C107.4,-44.485 107.52,-44.006 107.52,-43.949 107.58,-43.045 106.66,-42.053 105.31,-41.563 105.27,-41.549 105.19,-41.522 105.19,-41.522 M101.07,-41.527 C101.07,-41.527 101.01,-41.546 100.98,-41.557 99.052,-42.246 98.23,-43.705 99.109,-44.869 99.189,-44.974 99.378,-45.162 99.378,-45.162 M71.707,-123.64 C71.707,-123.64 71.753,-123.55 71.768,-123.51 72.068,-122.59 71.435,-121.61 70.122,-120.96 70.037,-120.91 69.859,-120.84 69.859,-120.84 M157.62,-74.449 C157.62,-74.449 157.71,-74.374 157.75,-74.331 158.47,-73.542 158.39,-72.548 157.55,-71.745 156.71,-70.942 155.23,-70.462 153.71,-70.494 153.6,-70.497 153.37,-70.515 153.37,-70.515 M87.946,-81.899 C87.528,-81.657 87.112,-81.417 86.694,-81.176 86.584,-81.239 86.475,-81.302 86.364,-81.366 86.364,-81.912 86.364,-82.454 86.364,-83 86.364,-83.471 86.364,-83.959 86.364,-84.447 86.364,-84.468 86.364,-85.028 86.397,-85.151 86.397,-86.474 85.78,-87.887 84.759,-88.898 84.349,-89.304 83.839,-89.717 83.592,-90.247 83.272,-90.937 82.905,-91.39 82.237,-91.776 M78.789,-113.17 L78.161,-113.53 C78.161,-114.21 78.294,-115 78.943,-115.37 L80.195,-116.09 C80.332,-116.15 80.468,-116.2 80.657,-116.23 80.846,-116.25 81.088,-116.3 81.325,-116.25 81.563,-116.2 81.822,-116.05 82.082,-115.91 82.973,-115.39 83.859,-114.88 84.75,-114.37 M103.62,-102.77 C103.62,-102.77 103.51,-102.96 103.44,-103.03 103.22,-103.25 102.96,-103.43 102.7,-103.59 100.48,-104.87 96.05,-107.42 96.05,-107.42 M94.977,-108.04 C94.977,-108.04 94.122,-108.54 93.695,-108.78 92.216,-109.64 89.259,-111.35 89.259,-111.35 M93.214,-107.03 L90.068,-108.84 M89.48,-108.67 C89.48,-108.67 89.56,-108.71 89.603,-108.73 90.027,-108.87 90.643,-109 91.301,-109.08 91.959,-109.15 92.601,-109.18 93.071,-109.14 M71.136,-98.185 C71.136,-98.185 67.754,-96.233 66.064,-95.257 65.507,-94.935 65.095,-94.532 64.882,-94.101 64.642,-93.614 64.423,-93.162 64.1,-92.716 64.086,-92.697 64.057,-92.658 64.057,-92.658 M80.532,-103.61 L86.15,-106.85 M105.11,-59.901 L105.11,-59.673 110.88,-56.345 113.35,-57.771 113.35,-57.999 107.58,-61.328 105.11,-59.901 M18.696,-109.79 L18.696,-109.56 24.461,-106.24 26.932,-107.66 26.932,-107.89 21.167,-111.22 18.696,-109.79 M40.341,-105.76 L40.341,-105.76 C41.966,-106.7 43.591,-107.64 45.217,-108.58 45.63,-108.81 46.044,-109.05 46.458,-109.29 46.718,-109.44 46.978,-109.59 47.238,-109.74 47.286,-109.77 47.333,-109.8 47.375,-109.84 47.413,-109.87 47.448,-109.9 47.479,-109.94 47.914,-110.51 48.35,-111.07 48.786,-111.64 48.844,-111.71 48.925,-111.78 49.026,-111.84 51.305,-113.16 53.585,-114.47 55.864,-115.79 55.929,-115.82 55.997,-115.86 56.067,-115.88 59.462,-117.11 61.929,-118.22 64.967,-119.98 65.038,-120.02 65.179,-120.1 65.179,-120.1 M69.629,-120.68 L69.629,-120.54 67.314,-115.55 M73.506,-86.268 C69.165,-88.774 64.849,-91.266 60.507,-93.773 60.414,-93.867 60.265,-93.868 60.107,-93.777 59.778,-93.587 59.449,-93.396 59.119,-93.206 58.905,-93.083 58.715,-92.814 58.649,-92.541 58.634,-92.479 58.625,-92.414 58.625,-92.35 58.625,-91.78 58.625,-91.209 58.625,-90.638 58.625,-90.518 58.658,-90.42 58.719,-90.357 62.372,-88.249 66.002,-86.153 69.655,-84.044"/>
        <path stroke="#000" d="M84.769,-145.49 C84.769,-145.49 85.071,-146.96 85.223,-147.69 85.267,-147.91 85.352,-148.09 85.473,-148.22 85.537,-148.29 85.664,-148.39 85.809,-148.47 85.954,-148.55 86.097,-148.61 86.19,-148.63 86.551,-148.69 86.991,-148.54 87.416,-148.2 88.063,-147.68 88.571,-146.81 88.709,-145.98 89.037,-144.01 89.365,-142.03 89.694,-140.06 89.718,-139.92 89.683,-139.81 89.598,-139.76 89.509,-139.71 89.423,-139.66 89.335,-139.61 89.307,-139.59 89.274,-139.59 89.242,-139.59 89.19,-139.59 89.137,-139.6 89.085,-139.6 L88.75,-140.66 C88.75,-140.66 88.75,-140.66 88.75,-140.66 88.301,-142.09 87.855,-143.5 87.405,-144.93 87.398,-144.92 87.39,-144.91 87.382,-144.91 87.117,-144.72 86.711,-144.8 86.323,-145.13 85.935,-145.46 85.627,-145.98 85.522,-146.48 85.416,-146.99 85.529,-147.4 85.817,-147.55 85.916,-147.61 86.014,-147.66 86.113,-147.72 86.245,-147.78 86.403,-147.78 86.574,-147.73 86.664,-147.71 86.834,-147.62 86.834,-147.62 86.834,-147.62 87.013,-147.5 87.094,-147.43 87.441,-147.13 87.724,-146.68 87.85,-146.22 87.977,-145.76 87.932,-145.36 87.729,-145.13 87.613,-145.06 87.498,-144.98 87.382,-144.91 M65.477,-129.71 C66.049,-130.04 66.618,-130.37 67.191,-130.7 67.191,-129.48 67.191,-128.25 67.191,-127.03 67.191,-126.26 67.191,-124.72 67.191,-124.72 M153.6,-80.805 C153.6,-79.584 153.6,-78.364 153.6,-77.144 153.6,-76.373 153.6,-74.832 153.6,-74.832 M82.801,-133.36 C83.46,-132.98 84.115,-132.61 84.773,-132.23 84.966,-129.89 85.158,-127.56 85.351,-125.22 85.309,-125.21 85.267,-125.2 85.225,-125.19 84.567,-125.57 83.912,-125.95 83.253,-126.33 82.017,-129.49 79.356,-131.28 76.976,-130.55 76.767,-130.48 76.564,-130.4 76.37,-130.3 L74.398,-131.44 77.739,-136.19 77.864,-136.22 79.836,-135.08 C80.518,-133.73 81.725,-133.03 82.801,-133.36 Z M76.786,-103.41 C76.786,-103.41 78.021,-104.12 78.639,-104.48 78.743,-104.54 78.845,-104.56 78.929,-104.53 80.594,-103.57 82.249,-102.62 83.914,-101.66 M86.182,-100.35 L84.987,-101.04 M87.449,-148.17 C87.449,-148.17 87.461,-148.16 87.467,-148.16 87.524,-148.14 87.579,-148.11 87.633,-148.08 88.256,-147.72 88.652,-147.13 88.714,-146.48 88.718,-146.43 88.719,-146.33 88.719,-146.33 M69.34,-95.75 L72.346,-97.486 M147.66,-82.697 L149.19,-83.582 153.6,-81.033 153.6,-80.805 151.89,-79.816 M61.244,-132.59 L62.776,-133.47 67.191,-130.92 67.191,-130.7 65.477,-129.71 M151.89,-70.458 L153.08,-71.142 M151.89,-80.025 L149.42,-78.598 143.65,-81.927 143.65,-82.155 146.13,-83.582 151.89,-80.253 151.89,-80.025 M65.477,-129.92 L63.006,-128.49 57.241,-131.82 57.241,-132.05 59.712,-133.47 65.477,-130.14 65.477,-129.92 M106.35,-58.846 L103.4,-57.144 103.4,-56.915 107.81,-54.366 110.68,-56.021 M24.264,-96.554 L22.419,-95.489 M19.931,-108.74 L16.983,-107.03 16.983,-106.81 21.397,-104.26 24.264,-105.91 M110.68,-46.663 L108.83,-45.598 M53.074,-114.18 C53.074,-114.18 53.074,-115.01 53.074,-115.43 53.074,-117.4 53.074,-119.37 53.074,-121.34 53.074,-121.71 53.074,-122.44 53.074,-122.44 M31.462,-99.702 C31.462,-99.702 31.462,-101.87 31.462,-102.95 31.462,-104.92 31.462,-106.89 31.462,-108.86 31.462,-109.23 31.462,-109.96 31.462,-109.96 M100.93,-124.42 L102.89,-124.42 105.32,-123.01 105.32,-122.86 102.79,-121.4 M90.779,-118.95 L97.774,-122.99 M99.816,-119.68 L94.666,-116.71 M85.762,-111.57 L74.208,-104.89 M85.582,-98.327 L86.796,-99.028 M86.664,-100.63 L84.133,-99.165 M111.9,-108.43 L121.24,-113.82 123.67,-112.42 123.67,-110.9 123.67,-110.74 123.62,-110.71 M82.588,-91.511 C76.802,-88.17 71.05,-84.849 65.263,-81.509 65.263,-81.458 65.263,-81.407 65.263,-81.357 66.077,-80.887 66.887,-80.419 67.701,-79.949 68.581,-79.949 69.456,-79.949 70.337,-79.949 70.386,-79.977 70.436,-80.006 70.485,-80.035 70.485,-80.035 70.547,-80.071 70.578,-80.089 75.428,-82.888 85.127,-88.488 85.127,-88.488 M91.646,-96.741 L103.05,-103.32 M102.81,-76.426 L108.26,-79.569 111.25,-77.842 M96.841,-79.873 L102.28,-83.016 C102.63,-82.82 102.97,-82.623 103.31,-82.426 103.43,-82.352 103.55,-82.191 103.59,-82.027 103.62,-81.894 103.6,-81.515 103.6,-81.494 L98.818,-78.732 M78.54,-90.439 L81.546,-92.174 M79.116,-92.2 L77.303,-91.153 M83.884,-135.46 L83.803,-135.32 84.023,-132.66 M84.609,-125.55 L86.975,-96.852 M87.93,-95.393 L87.793,-97.057 87.552,-97.072 87.265,-97.019 86.697,-96.691 M90.493,-96.381 L87.296,-135.15 M107.33,-107.49 L89.866,-135.81 M108.94,-106.19 L107.92,-107.85 107.68,-107.86 107.22,-107.37 M110.68,-108.61 L92.195,-138.57 M41.988,-102.87 L41.988,-104.81 40.341,-105.76 40.11,-105.63 40.11,-102.35 M40.11,-99.411 L40.11,-97.353 M98.745,-89.418 L100.72,-90.555 M61.034,-110.73 C61.034,-110.73 61.188,-110.73 61.264,-110.74 61.92,-110.8 62.357,-111.03 63.013,-111.28 L76.401,-130.31 M79.779,-135.11 L81.373,-137.37 M59.843,-112.35 C59.843,-112.35 59.871,-112.49 59.897,-112.55 59.924,-112.62 59.951,-112.67 59.996,-112.73 66.432,-121.31 78.499,-139.03 78.499,-139.03 M81.717,-133.37 C82.062,-135.25 82.404,-137.12 82.729,-139.01 82.729,-139.01 82.727,-139.01 82.725,-139.01 82.455,-138.86 81.913,-138.54 81.913,-138.54 M81.042,-129.51 L79.964,-123.63 80.339,-122.86 M80.933,-122.23 C80.933,-122.23 81.045,-122.19 81.1,-122.17 81.235,-122.12 81.42,-122.11 81.615,-122.15 81.81,-122.19 81.998,-122.27 82.139,-122.37 82.493,-122.63 82.847,-122.89 83.2,-123.14 83.312,-123.22 83.387,-123.32 83.415,-123.4 83.572,-124.26 83.727,-125.11 83.884,-125.96 M80.967,-141.33 C80.967,-141.33 81.575,-144.28 81.879,-145.76 81.923,-145.98 82.009,-146.16 82.129,-146.29 82.193,-146.36 82.32,-146.46 82.465,-146.54 82.61,-146.62 82.754,-146.68 82.846,-146.7 83.207,-146.76 83.647,-146.61 84.072,-146.27 84.719,-145.75 85.228,-144.88 85.365,-144.05 85.693,-142.08 86.022,-140.1 86.35,-138.13 86.374,-137.99 86.339,-137.88 86.254,-137.83 86.165,-137.78 86.079,-137.73 85.991,-137.68 85.963,-137.66 85.93,-137.66 85.898,-137.66 85.846,-137.66 85.793,-137.67 85.741,-137.67 L85.406,-138.73 C85.406,-138.73 85.406,-138.73 85.406,-138.73 84.958,-140.15 84.512,-141.57 84.063,-142.99 M82.201,-145.46 C82.38,-145.57 82.557,-145.67 82.736,-145.77 83.018,-145.92 83.422,-145.8 83.797,-145.46 84.172,-145.12 84.459,-144.6 84.548,-144.11 84.638,-143.62 84.517,-143.23 84.231,-143.09 M82.912,-142.89 C82.546,-142.15 82.181,-141.42 81.815,-140.68 L81.48,-140.01 C81.634,-139.84 81.788,-139.67 81.943,-139.5 81.985,-139.46 82.031,-139.42 82.077,-139.39 82.596,-139.09 83.634,-138.49 83.634,-138.49 M86.385,-145.09 L85.492,-143.28 M82.376,-143.33 C82.376,-143.33 79.752,-139.61 78.44,-137.74 78.352,-137.62 78.324,-137.52 78.362,-137.48 78.445,-137.4 78.52,-137.3 78.603,-137.22 78.627,-137.19 78.682,-137.19 78.756,-137.22 78.77,-137.23 78.798,-137.24 78.798,-137.24 79.128,-137.71 79.457,-138.18 79.787,-138.65 M97.455,-58.479 C97.455,-58.479 97.434,-58.59 97.434,-58.646 97.434,-59.212 97.434,-59.778 97.434,-60.344 97.434,-60.596 97.521,-60.788 97.675,-60.877 98.612,-61.419 99.55,-61.96 100.49,-62.501 100.64,-62.59 100.73,-62.782 100.73,-63.034 100.73,-63.66 100.73,-64.913 100.73,-64.913 M98.113,-58.859 C98.386,-58.907 98.749,-58.627 98.949,-58.215 99.149,-57.803 99.119,-57.396 98.882,-57.283 98.719,-57.188 98.556,-57.094 98.392,-57 M100.58,-57.433 C100.82,-57.475 101.14,-57.263 101.35,-56.917 101.36,-56.903 101.37,-56.874 101.37,-56.874 M89.471,-137.76 C89.765,-137.28 90.057,-136.8 90.352,-136.33 90.352,-136.33 89.767,-135.7 89.475,-135.39 89.444,-135.35 89.408,-135.32 89.368,-135.3 88.946,-135.06 88.525,-134.81 88.103,-134.57 88.066,-134.55 88.025,-134.53 87.983,-134.53 87.775,-134.49 87.358,-134.41 87.358,-134.41 M84.585,-135.96 C84.641,-135.28 84.697,-134.6 84.753,-133.93 84.753,-133.93 84.717,-133.92 84.7,-133.92 84.654,-133.91 84.606,-133.91 84.561,-133.92 L84.32,-133.93 C84.132,-133.98 83.99,-134.18 83.969,-134.42 83.741,-137.19 83.513,-139.96 83.285,-142.73 L83.296,-142.74 M89.031,-144.04 L91.806,-139.55 M108.04,-72.313 L117.72,-66.725 117.72,-66.725 M115.2,-65.27 L115.2,-65.27 105.72,-70.743 M76.056,-120.6 C76.056,-120.6 76.078,-121.03 76.133,-121.24 76.241,-121.64 76.453,-121.94 76.748,-122.11 77.11,-122.32 77.472,-122.53 77.837,-122.74 78.38,-123.05 78.904,-123.37 79.461,-123.66 L80.779,-122.47 C81.298,-121.66 81.721,-120.53 82.592,-120.03 83.457,-119.53 85.188,-118.53 85.188,-118.53 M76.053,-114.99 L76.053,-114.67 77.412,-112.32 M63.945,-112.61 C63.945,-112.61 64.021,-112.22 64.06,-112.03 64.222,-111.22 64.558,-110.47 65.296,-110.04 72.503,-105.88 86.917,-97.557 86.917,-97.557 M80.006,-72.35 C80.006,-73.479 80.006,-74.6 80.006,-75.729 80.039,-75.89 80.105,-76.547 80.105,-76.716 80.16,-77.182 80.216,-77.649 80.259,-77.928 80.302,-78.208 80.283,-78.134 80.363,-78.391 80.444,-78.647 80.657,-79.233 80.742,-79.468 80.827,-79.702 80.747,-79.54 80.874,-79.799 81.002,-80.058 81.292,-80.676 81.508,-81.024 81.723,-81.371 81.962,-81.647 82.168,-81.882 82.374,-82.118 82.529,-82.252 82.746,-82.437 82.962,-82.622 83.268,-82.842 83.465,-82.993 83.662,-83.142 83.794,-83.238 83.926,-83.335 84.719,-83.792 85.506,-84.247 86.298,-84.704 M123.34,-106.48 L123.34,-105.97 C121.71,-105.03 120.08,-104.09 118.45,-103.14 118.2,-103 117.96,-102.74 117.78,-102.43 117.45,-101.86 116.74,-100.96 116.74,-100.18 116.74,-98.719 116.74,-97.261 116.74,-95.802 L115.67,-93.955 M26.932,-96.782 L31.256,-99.279 39.698,-94.405 M91.935,-96.024 C97.127,-99.021 102.29,-102 107.48,-105 107.55,-105.02 107.63,-105 107.71,-104.95 108.22,-104.66 108.72,-104.37 109.23,-104.08 109.35,-104 109.47,-103.87 109.55,-103.7 109.6,-103.6 109.62,-103.49 109.62,-103.39 109.62,-102.81 109.62,-102.23 109.62,-101.64 109.62,-101.5 109.56,-101.39 109.46,-101.37 104.26,-98.363 99.085,-95.377 93.882,-92.373 M65.13,-114.29 C69.515,-116.82 73.873,-119.34 78.258,-121.87 78.326,-121.89 78.407,-121.87 78.491,-121.82 78.996,-121.53 79.501,-121.24 80.006,-120.95 80.133,-120.87 80.252,-120.74 80.326,-120.57 80.375,-120.47 80.401,-120.36 80.401,-120.26 80.401,-119.68 80.401,-119.1 80.401,-118.51 80.401,-118.37 80.341,-118.26 80.238,-118.24 75.372,-115.43 70.534,-112.63 65.667,-109.83 M60.97,-117.88 L52.868,-122.56 52.868,-122.86 55.388,-124.32 63.871,-119.42 M42.26,-106.94 L33.776,-111.84 31.256,-110.39 31.256,-110.08 40.11,-104.97 M102.13,-73.282 C97.694,-75.842 93.286,-78.387 88.852,-80.948 88.852,-81.091 88.852,-81.232 88.852,-81.375 88.55,-81.55 88.249,-81.724 87.946,-81.899 87.946,-83.027 87.946,-84.148 87.946,-85.277 87.913,-85.438 87.88,-85.599 87.847,-85.76 87.847,-85.798 87.847,-85.836 87.847,-85.874 87.801,-86.233 87.755,-86.593 87.67,-86.944 87.585,-87.295 87.491,-87.636 87.337,-87.979 87.184,-88.322 86.966,-88.69 86.747,-89.002 86.528,-89.313 86.283,-89.598 86.022,-89.847 85.761,-90.096 85.469,-90.296 85.178,-90.496 77.311,-95.038 69.49,-99.553 61.623,-104.1 61.423,-104.21 61.223,-104.32 60.986,-104.37 60.749,-104.42 60.407,-104.43 60.198,-104.41 59.99,-104.4 59.863,-104.34 59.736,-104.28 L58.484,-103.56 C57.835,-103.19 57.702,-102.39 57.702,-101.72 L57.9,-101.6 C57.9,-102.23 58.019,-102.97 58.624,-103.32 59.477,-103.81 60.738,-103.08 61.588,-102.95 62.514,-102.81 63.413,-102.64 64.235,-102.17 65.111,-101.66 65.986,-101.16 66.861,-100.65 61.013,-97.276 55.199,-93.92 49.351,-90.543 48.537,-91.013 47.727,-91.481 46.913,-91.951 46.913,-92.002 46.913,-92.052 46.913,-92.103 46.913,-92.611 46.913,-93.117 46.913,-93.625 M111.83,-94.205 C112.36,-94.51 112.88,-94.813 113.41,-95.118 L114.83,-95.936 114.99,-96.031 C114.99,-97.999 114.99,-99.966 114.99,-101.93 114.99,-102.41 114.88,-102.95 114.68,-103.49 114.57,-103.76 114.44,-104.02 114.3,-104.27 113.14,-106.28 111.98,-108.29 110.82,-110.3 L110.04,-110.35 109.87,-110.25 109.76,-110.1 M105.51,-110.44 L88.525,-120.25 M60.445,-88.13 C60.445,-88.13 60.437,-88.091 60.437,-88.071 60.437,-87.903 60.437,-87.735 60.437,-87.566 L60.338,-87.084 60.338,-83.705 59.997,-83.509 M96.931,-106.92 L96.005,-105.31 M103.68,-121.91 L103.68,-119.96 M84.905,-121.96 L83.049,-123.03 M88.636,-146.29 L89.642,-146.77 89.774,-146.7 89.774,-146.16 88.79,-145.5 M111.04,-108.63 C110.99,-108.66 110.94,-108.7 110.9,-108.73 110.84,-108.75 110.73,-108.67 110.59,-108.52 110.24,-108.15 109.9,-107.78 109.55,-107.41 109.38,-107.23 109.21,-106.97 109.11,-106.77 109,-106.54 108.95,-106.22 108.9,-106 L109.05,-105.89 110.92,-107.9 C110.97,-108.1 111.02,-108.3 111.07,-108.5 111.08,-108.57 111.07,-108.62 111.04,-108.63 111.04,-108.63 111.04,-108.63 111.04,-108.63 Z M88.324,-94.71 L90.32,-95.081 C90.477,-95.344 90.634,-95.607 90.79,-95.87 90.864,-95.995 90.879,-96.104 90.832,-96.173 90.8,-96.219 90.768,-96.263 90.736,-96.308 90.724,-96.326 90.708,-96.341 90.69,-96.352 90.634,-96.387 90.548,-96.396 90.443,-96.376 90.007,-96.295 89.57,-96.214 89.134,-96.133 88.994,-96.107 88.829,-96.032 88.678,-95.926 88.526,-95.819 88.399,-95.69 88.325,-95.566 88.241,-95.425 88.074,-95.143 88.074,-95.143 M123.26,-81.505 C123.26,-80.528 123.26,-79.557 123.26,-78.58 121.62,-77.633 119.99,-76.692 118.35,-75.746 118.31,-75.771 118.27,-75.796 118.22,-75.821 118.22,-75.907 118.22,-75.991 118.22,-76.077 118.61,-76.56 118.89,-77.152 119,-77.716 119.02,-77.811 119.04,-78.003 119.04,-78.003 M87.492,-135.87 C87.29,-136.15 87.088,-136.44 86.886,-136.73 L84.517,-136.29 84.443,-136.16 C84.645,-135.88 84.846,-135.59 85.048,-135.3 85.247,-135.02 85.645,-134.84 85.938,-134.89 86.374,-134.97 86.811,-135.06 87.247,-135.14 87.351,-135.16 87.437,-135.21 87.481,-135.28 87.537,-135.37 87.603,-135.46 87.603,-135.57 87.602,-135.66 87.563,-135.77 87.492,-135.87 Z M91.079,-137.35 C91.425,-137.72 91.77,-138.09 92.115,-138.46 92.376,-138.74 92.305,-139.19 92.005,-139.4 91.695,-139.63 91.385,-139.85 91.075,-140.07 L89.201,-138.06 89.177,-137.97 C89.488,-137.74 89.798,-137.52 90.108,-137.3 90.292,-137.16 90.534,-137.12 90.753,-137.17 90.883,-137.2 90.996,-137.26 91.079,-137.35 Z M94.496,-90.486 L98.596,-87.211 98.695,-87.154 C99.139,-87.41 99.584,-87.667 100.03,-87.923 100.22,-88.033 100.28,-88.192 100.16,-88.289 98.328,-89.823 94.556,-92.762 94.556,-92.762 M94.208,-106.36 L92.856,-97.44 M95.955,-107.37 L94.603,-98.448 M74.976,-115.2 L71.86,-109.11 M76.659,-116.17 L73.542,-110.08 M62.567,-92.583 L79.368,-93.432 M64.508,-91.462 L81.309,-92.311 M99.992,-105.15 L101.41,-102.38 M97.951,-106.33 L99.506,-103.29 M103.13,-111.82 L104.26,-112.47 M73.203,-77.02 L73.203,-75.574 76.959,-73.406 77.09,-73.482 C77.09,-74.68 77.09,-75.878 77.09,-77.076 77.09,-77.369 76.99,-77.592 76.811,-77.695 76.558,-77.841 76.305,-77.987 76.053,-78.133 75.992,-78.168 75.871,-78.237 75.871,-78.237 75.692,-78.341 75.449,-78.316 75.196,-78.17 73.565,-77.229 71.935,-76.288 70.304,-75.346 L70.221,-75.394 M81.943,-138.31 C81.895,-138.69 81.846,-139.07 81.798,-139.45 L81.65,-139.46 79.776,-138.73 C79.825,-138.35 79.873,-137.97 79.922,-137.59 79.944,-137.41 80.011,-137.25 80.106,-137.15 80.171,-137.09 80.25,-137.05 80.344,-137.05 80.442,-137.05 80.488,-137.03 80.575,-137.07 80.92,-137.2 81.265,-137.33 81.61,-137.47 81.75,-137.52 81.866,-137.68 81.92,-137.9 81.952,-138.03 81.96,-138.17 81.943,-138.31 Z M63.82,-87.413 L66.482,-82.212 M63.593,-81.978 L59.549,-89.879 M102.07,-116.03 C102.07,-116.03 99.999,-114.84 98.966,-114.24 98.961,-114.24 98.951,-114.23 98.951,-114.23 M104.9,-98.736 L99.921,-89.003 C100.15,-88.87 100.38,-88.737 100.61,-88.603 100.69,-88.558 100.81,-88.538 100.94,-88.548 101.06,-88.558 101.19,-88.596 101.3,-88.655 101.74,-88.912 102.19,-89.169 102.63,-89.425 L108.44,-100.78"/>
        <path stroke="#000" d="M79.451,-139.18 C79.451,-139.18 78.872,-139.2 78.582,-139.2 78.398,-139.21 78.296,-139.24 78.31,-139.29 78.318,-139.32 78.367,-139.35 78.45,-139.38 78.795,-139.52 79.14,-139.65 79.485,-139.79 79.596,-139.83 79.761,-139.87 79.943,-139.9 M89.876,-103.86 L100.07,-109.74 M98.973,-110.35 C96.045,-108.66 92.707,-106.73 89.779,-105.04 M86.458,-103.13 L81.865,-100.47 M98.587,-108.89 L89.876,-103.86 M86.555,-101.94 L82.938,-99.854 M82.938,-99.854 L86.555,-101.94 M70.534,-75.48 L78.622,-70.809 78.622,-71.476 C77.199,-72.297 75.775,-73.119 74.351,-73.941 74.084,-74.096 73.821,-74.323 73.584,-74.603 73.272,-74.973 72.719,-75.629 72.487,-75.903 72.42,-75.982 72.082,-76.373 72.082,-76.373 M66.565,-77.771 L55.429,-84.229 51.204,-86.668 M43.034,-89.103 L42.713,-89.288 42.713,-91 42.713,-91 42.713,-93.853 42.449,-94.005 42.037,-93.767 41.873,-93.482 41.873,-90.154 42.284,-89.345 42.548,-89.193 42.713,-89.289 M100.49,-55.611 C100.49,-55.611 100.43,-55.643 100.4,-55.663 100.16,-55.824 99.949,-56.125 99.863,-56.435 99.777,-56.746 99.829,-57.011 99.997,-57.115 100.01,-57.123 100.02,-57.13 100.04,-57.136 100.04,-57.394 100.04,-57.648 100.04,-57.904 100.04,-57.904 100.04,-57.904 100.04,-57.904 100.04,-58.857 100.04,-59.804 100.04,-60.757 99.948,-60.808 99.861,-60.859 99.773,-60.909 99.635,-60.83 99.499,-60.751 99.361,-60.672 99.306,-60.576 99.251,-60.481 99.196,-60.386 99.196,-59.274 99.196,-58.17 99.196,-57.058 99.334,-56.788 99.471,-56.519 99.608,-56.249 99.696,-56.198 99.784,-56.148 99.872,-56.097 99.906,-56.117 99.94,-56.137 99.975,-56.157 M85.496,-114.8 L71.276,-106.59 M85.705,-112.25 L73.582,-105.26 M110.22,-71.053 L111.27,-71.656 111.27,-71.91 C111.14,-71.923 111.02,-71.962 110.91,-72.028 110.47,-72.299 110.33,-72.983 110.55,-73.79 110.56,-73.824 110.58,-73.89 110.58,-73.89 110.62,-73.978 110.67,-74.065 110.71,-74.153 M102.21,-61.689 L101.95,-61.841 101.54,-61.604 101.37,-61.318 101.37,-56.126 M67.355,-123.19 L67.355,-124.44 67.108,-124.87 66.861,-125.01 66.663,-124.89 66.663,-122.21 M107.92,-44.81 L108.39,-44.542 108.63,-44.685 108.83,-44.799 108.83,-48.603 108.59,-49.031 108.34,-49.174 108.14,-49.06 M152.63,-70.886 L153.32,-70.486 153.57,-70.629 153.77,-70.743 153.77,-74.547 153.52,-74.975 153.27,-75.118 153.08,-75.004 153.08,-71.199 M21.509,-94.702 L21.974,-94.433 22.221,-94.576 22.419,-94.69 22.419,-98.494 22.172,-98.922 21.924,-99.065 21.727,-98.951 M40.539,-91.59 L40.127,-91.352 C40.072,-91.383 40.017,-91.415 39.962,-91.447 39.874,-91.498 39.786,-91.548 39.698,-91.599 L39.698,-96.925 39.863,-97.21 40.275,-97.448 C40.363,-97.397 40.451,-97.347 40.539,-97.296 40.539,-95.612 40.539,-93.939 40.539,-92.255 40.539,-92.002 40.539,-91.748 40.539,-91.495 40.539,-91.438 40.56,-91.327 40.56,-91.327 M52.865,-87.627 L66.565,-79.717 M104.15,-112.65 L100.81,-114.58 M114.46,-109.91 L107.34,-114.03 M111.01,-108.27 L111.49,-106.73 109.3,-105.47 M46.913,-92.084 L44.887,-93.254 44.887,-93.539 61.293,-103.01 M97.281,-123.79 L89.84,-119.49 M82.856,-115.46 L69.381,-107.68 M86.397,-85.151 L72.659,-77.219 70.584,-78.418 70.469,-78.351 70.469,-76.297 70.551,-76.249 72.445,-77.343 M114.99,-101.66 L125.7,-107.84 125.7,-108.13 124.63,-108.75 M66.565,-80.605 L66.565,-77.162 70.057,-75.146 70.221,-75.241 70.221,-79.949 M90.767,-95.832 C90.767,-95.832 90.768,-95.828 90.768,-95.826 90.807,-95.666 90.85,-95.506 90.9,-95.349 90.945,-95.207 90.99,-95.065 91.034,-94.923 L88.91,-93.696 M24.33,-109.39 L60.041,-130.2 M57.57,-131.63 L21.694,-110.91 M143.98,-81.737 L108.11,-61.023 M105.11,-58.132 L105.11,-59.514 105.25,-59.593 M149.22,-78.713 L149.22,-67.604 149.26,-67.586 149.42,-67.65 151.89,-69.077 151.89,-79.865 151.82,-79.982 M65.477,-120.52 L65.477,-129.76 65.402,-129.87 M110.68,-56.458 L110.68,-45.35 110.71,-45.331 110.88,-45.396 113.35,-46.823 113.35,-57.611 113.27,-57.727 M24.264,-106.35 L24.264,-95.241 24.297,-95.223 24.461,-95.287 26.932,-96.714 26.932,-107.5 26.857,-107.62 M18.696,-108.02 L18.696,-109.4 18.834,-109.48 M57.291,-85.071 C57.291,-85.071 57.291,-87.261 57.291,-88.356 57.291,-88.608 57.204,-88.8 57.05,-88.889 56.797,-89.035 56.544,-89.18 56.291,-89.327 56.137,-89.416 55.927,-89.395 55.709,-89.269 54.078,-88.327 52.448,-87.386 50.817,-86.445 50.762,-86.412 50.707,-86.381 50.652,-86.349 49.486,-87.023 48.327,-87.692 47.16,-88.365 47.16,-89.515 47.16,-90.659 47.16,-91.808 M50.652,-86.349 L50.652,-91.295 M101.45,-115.68 L100.2,-113.51 M121.12,-104.32 L117.05,-97.282 M108.83,-45.084 L110.39,-44.185 110.72,-44.375 111.27,-45.161 111.2,-45.198 M127.28,-72.245 L127.28,-83.992 M68.376,-117.84 L69.826,-117 M91.232,-104.64 L93.729,-103.2 M95.195,-102.35 L98.282,-100.57 M110.7,-93.401 L123.61,-85.949 M96.734,-85.337 L101.52,-82.574 M103.5,-81.433 L107.49,-79.126 M114.04,-75.346 L114.96,-74.813 M104.72,-93.508 L106.22,-92.64 M107.8,-91.728 L119.24,-85.123 M113.35,-46.891 L149.22,-67.604 M113.21,-58.075 L149.09,-78.788 M69.629,-120.68 L69.629,-120.54 72.791,-118.71 M113.54,-95.189 L128.29,-86.672 M103.35,-75.923 L91.891,-82.541 M79.471,-89.712 L75.478,-92.017 M73.537,-93.137 L67.965,-96.355 M55.594,-103.5 L51.146,-106.06 M55.965,-99.935 L46.665,-105.3 M65.298,-94.661 L68.387,-92.877 M70.328,-91.756 L76.671,-88.094 M84.968,-83.304 L86.364,-82.498 M45.282,-90.087 L47.16,-89.003 M78.647,-70.824 L97.434,-59.977 M83.39,-80.868 L100.93,-70.743 M22.419,-94.975 L23.976,-94.076 24.305,-94.267 24.857,-95.051 24.791,-95.089 M73.446,-93.38 L76.388,-95.153 M101.08,-102.19 L95.646,-105.33 M45.867,-93.078 L45.864,-93.083 C46.233,-93.295 46.6,-93.507 46.968,-93.72 52.184,-96.731 62.616,-102.75 62.616,-102.75 M70.266,-107.17 L83.697,-114.92 M113.84,-105.07 L123.62,-110.71 124.72,-108.8 114.8,-103.07 M70.578,-80.089 L71.682,-78.177 86.168,-86.541 M95.557,-91.961 L103.9,-96.779 M21.394,-96.989 C20.092,-96.238 18.996,-95.42 17.511,-95.234 15.922,-95.035 14.295,-95.448 13.476,-96.258 13.441,-96.292 13.377,-96.364 13.377,-96.364 M106.94,-97.844 C106.94,-97.844 106.98,-97.708 107,-97.637 107.06,-97.267 107.05,-97.131 107.05,-96.849 107.09,-96.687 107.12,-96.527 107.15,-96.366 107.57,-96.607 107.99,-96.847 108.4,-97.089 M107.15,-92.988 C107.15,-94.114 107.15,-95.24 107.15,-96.366 M124.13,-82.236 C124.13,-82.236 123.57,-81.914 123.29,-81.753 123.23,-81.719 123.18,-81.68 123.13,-81.635 122.13,-80.72 121.13,-79.805 120.14,-78.891 120.09,-78.845 120.03,-78.807 119.97,-78.773 117.7,-77.457 115.42,-76.141 113.14,-74.825 113.04,-74.767 112.92,-74.72 112.79,-74.687 111.81,-74.435 110.83,-74.184 109.85,-73.932 109.46,-73.83 109.04,-73.526 108.72,-73.343 108.54,-73.237 108.17,-73.025 108.17,-73.025 M157.62,-81.775 C157.62,-81.716 157.62,-81.655 157.62,-81.596 157.62,-81.313 157.62,-81.031 157.62,-80.748 M109.69,-92.968 C109.69,-92.968 103.98,-89.672 101.12,-88.023 98.927,-86.755 94.535,-84.219 94.535,-84.219 M61.488,-114.85 C61.488,-114.85 61.454,-114.85 61.438,-114.85 61.33,-114.82 61.224,-114.77 61.126,-114.72 57.756,-112.77 54.386,-110.83 51.015,-108.88 50.796,-108.75 50.673,-108.58 50.674,-108.4 50.674,-108.34 50.69,-108.28 50.715,-108.23 50.985,-107.65 51.255,-107.08 51.525,-106.51 L51.525,-106.28 50.989,-105.97 41.988,-104.58 M153.13,-81.309 C153.13,-81.309 153.13,-81.31 153.13,-81.311 153.49,-81.516 153.84,-81.722 154.2,-81.927 154.22,-81.938 154.23,-81.951 154.23,-81.965 154.24,-81.986 154.22,-82.008 154.2,-82.023 153.31,-82.536 152.42,-83.05 151.53,-83.564 151.51,-83.576 151.48,-83.583 151.45,-83.583 151.42,-83.583 151.39,-83.576 151.37,-83.564 151.01,-83.358 150.65,-83.152 150.3,-82.946 150.3,-82.946 150.29,-82.945 150.29,-82.945 M103.87,-56.142 C103.51,-55.937 103.16,-55.731 102.8,-55.525 102.78,-55.515 102.77,-55.502 102.77,-55.488 102.76,-55.467 102.78,-55.445 102.8,-55.43 103.69,-54.917 104.58,-54.403 105.47,-53.889 105.49,-53.877 105.52,-53.87 105.55,-53.87 105.58,-53.87 105.61,-53.877 105.64,-53.889 105.99,-54.095 106.35,-54.301 106.7,-54.507 106.71,-54.512 106.72,-54.516 106.73,-54.519 106.78,-54.532 106.83,-54.527 106.87,-54.507 107.23,-54.3 107.58,-54.094 107.94,-53.889 107.97,-53.873 107.98,-53.852 107.97,-53.83 107.97,-53.816 107.96,-53.803 107.94,-53.793 107.59,-53.589 107.23,-53.384 106.88,-53.18 106.52,-52.975 106.17,-52.77 105.81,-52.566 105.79,-52.551 105.77,-52.531 105.75,-52.508 105.67,-52.398 105.59,-52.29 105.51,-52.185 105.39,-52.042 105.26,-51.903 105.14,-51.769 104.89,-51.511 104.62,-51.275 104.33,-51.06 102.66,-49.807 100.8,-49.716 99.883,-50.843 99.086,-51.826 99.189,-53.52 100.14,-55.106 100.24,-55.265 100.34,-55.42 100.45,-55.571 100.47,-55.593 100.48,-55.614 100.51,-55.628 100.86,-55.832 101.22,-56.037 101.57,-56.242 101.93,-56.446 102.28,-56.651 102.64,-56.856 102.66,-56.871 102.7,-56.878 102.74,-56.875 102.76,-56.872 102.78,-56.866 102.8,-56.856 103.16,-56.65 103.51,-56.444 103.87,-56.237 103.89,-56.227 103.9,-56.215 103.9,-56.201 103.91,-56.179 103.9,-56.158 103.87,-56.142 Z M17.457,-106.03 C17.101,-105.83 16.745,-105.62 16.388,-105.42 16.371,-105.41 16.36,-105.39 16.356,-105.38 16.35,-105.36 16.363,-105.34 16.388,-105.32 17.278,-104.81 18.168,-104.29 19.057,-103.78 19.079,-103.77 19.108,-103.76 19.139,-103.76 19.17,-103.76 19.2,-103.77 19.222,-103.78 19.578,-103.99 19.934,-104.19 20.291,-104.4 20.3,-104.4 20.31,-104.41 20.32,-104.41 20.365,-104.42 20.42,-104.42 20.455,-104.4 20.812,-104.19 21.169,-103.99 21.526,-103.78 21.552,-103.76 21.565,-103.74 21.559,-103.72 21.555,-103.71 21.544,-103.69 21.526,-103.68 21.172,-103.48 20.817,-103.28 20.463,-103.07 20.108,-102.87 19.754,-102.66 19.399,-102.46 19.375,-102.44 19.356,-102.42 19.34,-102.4 19.26,-102.29 19.178,-102.18 19.092,-102.08 18.975,-101.93 18.851,-101.79 18.723,-101.66 18.474,-101.4 18.209,-101.17 17.921,-100.95 16.242,-99.698 14.384,-99.607 13.47,-100.73 12.672,-101.72 12.775,-103.41 13.729,-105 13.825,-105.16 13.927,-105.31 14.036,-105.46 14.052,-105.48 14.071,-105.5 14.095,-105.52 14.45,-105.72 14.804,-105.93 15.159,-106.13 15.513,-106.34 15.868,-106.54 16.222,-106.75 16.249,-106.76 16.286,-106.77 16.323,-106.77 16.347,-106.76 16.369,-106.76 16.387,-106.75 16.744,-106.54 17.1,-106.33 17.457,-106.13 17.475,-106.12 17.486,-106.11 17.49,-106.09 17.496,-106.07 17.484,-106.05 17.457,-106.03 Z M84.273,-143.11 C84.273,-143.11 83.898,-142.89 83.709,-142.78 83.412,-142.62 83.081,-142.8 82.823,-142.95 82.41,-143.18 82.048,-143.71 81.91,-144.26 81.773,-144.82 81.888,-145.3 82.201,-145.46 82.634,-145.7 83.322,-145.28 83.738,-144.54 84.155,-143.8 84.141,-143.02 83.709,-142.78 M75.476,-95.679 L72.47,-93.943 M41.604,-89.928 C41.5,-89.808 41.331,-89.788 41.145,-89.874 40.958,-89.96 40.772,-90.144 40.64,-90.374 40.521,-90.579 40.455,-90.802 40.456,-90.995 40.457,-91.187 40.525,-91.333 40.645,-91.399 40.79,-91.483 40.949,-91.574 41.136,-91.681 41.291,-91.757 41.509,-91.695 41.713,-91.517 41.773,-91.465 41.873,-91.344 41.873,-91.344 M98.499,-57.08 C98.395,-56.959 98.227,-56.939 98.04,-57.025 97.853,-57.111 97.668,-57.295 97.535,-57.525 97.416,-57.731 97.35,-57.956 97.352,-58.149 97.353,-58.342 97.423,-58.487 97.526,-58.542 97.686,-58.634 97.844,-58.726 98.004,-58.818 M43.968,-88.422 C44.154,-88.531 44.339,-88.64 44.525,-88.749 44.725,-88.93 44.694,-89.373 44.455,-89.765 44.215,-90.158 43.846,-90.371 43.607,-90.255 43.42,-90.148 43.261,-90.056 43.121,-89.975 42.999,-89.911 42.929,-89.766 42.927,-89.572 42.925,-89.379 42.991,-89.153 43.11,-88.947 43.243,-88.717 43.429,-88.534 43.615,-88.448 43.802,-88.361 43.971,-88.381 44.091,-88.493 44.091,-88.493 44.182,-88.44 44.228,-88.413 44.492,-88.261 44.74,-88.264 44.895,-88.421 44.997,-88.524 45.052,-88.688 45.052,-88.889 45.052,-89.455 45.052,-90.021 45.052,-90.587 45.052,-90.839 44.965,-91.131 44.811,-91.399 43.873,-93.022 42.936,-94.646 41.999,-96.269 41.844,-96.537 41.757,-96.829 41.757,-97.081 41.757,-97.562 41.757,-98.523 41.757,-98.523 M85.879,-140.96 C85.879,-140.96 85.961,-140.95 86.002,-140.95 86.096,-140.97 86.19,-141 86.272,-141.05 86.574,-141.22 86.876,-141.4 87.178,-141.57 87.442,-141.72 87.638,-142.03 87.706,-142.39 87.752,-142.63 87.738,-142.88 87.667,-143.11 87.489,-143.67 87.312,-144.23 87.134,-144.8 M129.65,-84.791 L139.33,-79.203 M136.81,-77.747 L127.33,-83.22 M107.86,-99.605 C107.93,-99.404 108,-99.202 108.05,-99.027 108.11,-98.851 108.15,-98.776 108.2,-98.552 108.24,-98.328 108.27,-98.007 108.31,-97.686 L108.31,-97.571 108.4,-97.089 108.4,-93.711 109.69,-92.968 111.67,-94.11 111.83,-94.205 C111.83,-96.173 111.83,-98.14 111.83,-100.11 111.83,-100.59 111.72,-101.12 111.51,-101.66 110.71,-103.74 109.26,-105.55 107.86,-107.26 L106.82,-107.43 106.66,-107.29 C106.62,-107.2 106.57,-107.12 106.53,-107.03 106.46,-106.89 106.37,-106.72 106.23,-106.64 105.99,-106.49 105.64,-106.53 105.29,-106.73 99.813,-109.89 88.857,-116.22 88.857,-116.22 M56.953,-100.51 L55.594,-102.86 C55.594,-104.83 55.594,-106.79 55.594,-108.76 55.594,-109.49 55.844,-110.04 56.289,-110.3 57.448,-110.97 58.608,-111.64 59.768,-112.31 L59.932,-112.4 60.715,-111.55 60.55,-111.45 C60.963,-110.39 61.373,-108.46 62.569,-107.77 69.79,-103.6 77.011,-99.434 84.233,-95.264 84.582,-95.063 84.918,-95.03 85.165,-95.172 85.247,-95.22 85.319,-95.288 85.374,-95.366 85.666,-95.782 85.959,-96.198 86.251,-96.614 L86.416,-96.709 87.198,-96.66 C88.358,-94.651 89.518,-92.643 90.677,-90.634 90.822,-90.383 90.949,-90.12 91.054,-89.849 91.262,-89.313 91.372,-88.777 91.372,-88.296 91.372,-86.329 91.372,-84.361 91.372,-82.393 91.372,-82.393 91.581,-82.514 91.685,-82.574 91.921,-82.71 92.393,-82.983 92.393,-82.983 L94.37,-84.124 94.535,-84.219 C94.535,-86.187 94.535,-88.154 94.535,-90.122 94.535,-90.375 94.505,-90.63 94.454,-90.878 94.199,-92.125 93.366,-93.289 92.751,-94.347 92.144,-95.392 91.735,-96.52 91.285,-97.639 L90.389,-97.65 M94.493,-90.51 L98.695,-87.154 M95.93,-107.35 L94.578,-98.433 M96.454,-91.243 L103,-95.024 M113.21,-58.075 L149.09,-78.788 M146.46,-80.31 L112.93,-60.957 113.1,-60.862 110.74,-59.502 M62.809,-120.04 L62.809,-128.6 26.932,-107.89 M108.11,-61.023 L143.98,-81.737 M93.236,-99.948 L90.047,-101.79 M86.394,-103.9 L83.712,-105.45 M73.115,-111.56 L70.897,-112.84 M101.08,-102.19 L95.646,-105.33 M65.298,-94.661 L68.387,-92.877 M70.328,-91.756 L76.671,-88.094 M84.968,-83.304 L86.364,-82.498 M102.13,-73.282 L88.852,-80.948 M55.965,-99.935 L46.665,-105.3 M79.471,-89.711 L75.478,-92.017 M73.537,-93.137 L67.965,-96.355 M55.594,-103.5 L51.146,-106.06 M53,-98.223 L41.988,-104.58 41.988,-104.81 M91.232,-104.64 L93.729,-103.2 M95.195,-102.35 L98.282,-100.57"/>
      </g>
    </g>
  </g>
  <g id="C3DG0001" vm2d:name="Drawing" vm2d:type="layer">
    <g transform="matrix(3.78095,0,0,3.78095,0.119049,794)" stroke-width="0.8" stroke-linecap="round" stroke-linejoin="round" stroke-miterlimit="10">
      <path fill="#c0c0c0" stroke="#000" d="M101.48,-52.522 C101.59,-52.393 101.69,-52.287 101.87,-52.268 102.23,-52.231 102.64,-52.592 102.65,-52.953 L102.62,-53.155 C102.58,-53.246 102.45,-53.381 102.45,-53.381 102.41,-53.419 102.38,-53.457 102.34,-53.495 102.34,-53.499 102.33,-53.504 102.33,-53.508 102.28,-53.547 102.22,-53.58 102.16,-53.597 102.16,-53.597 101.86,-53.829 101.86,-53.829 101.69,-53.953 101.42,-53.915 101.23,-53.74 101.04,-53.564 100.98,-53.301 101.09,-53.114 101.16,-53.009 101.23,-52.905 101.3,-52.801 101.33,-52.74 101.36,-52.679 101.39,-52.617 101.42,-52.586 101.45,-52.554 101.48,-52.522 Z M154.55,-83.453 C154.53,-83.435 154.58,-83.385 154.69,-83.316 L155.12,-83.091 C155.42,-82.955 155.69,-82.876 155.73,-82.91 155.79,-83.048 155.85,-83.185 155.91,-83.323 155.91,-83.344 155.91,-83.366 155.91,-83.387 155.91,-83.406 155.91,-83.426 155.91,-83.445 155.93,-83.511 155.96,-83.576 155.99,-83.641 156.01,-83.707 156.04,-83.773 156.06,-83.839 156.08,-83.906 156.1,-83.973 156.13,-84.04 156.14,-84.073 156.15,-84.106 156.16,-84.14 156.16,-84.15 156.16,-84.16 156.16,-84.171 156.16,-84.18 156.16,-84.19 156.15,-84.199 156.15,-84.238 156.08,-84.29 156.08,-84.29 156.05,-84.314 156.01,-84.337 155.98,-84.361 155.91,-84.394 155.85,-84.427 155.79,-84.459 155.61,-84.543 155.43,-84.609 155.34,-84.623 155.32,-84.624 155.29,-84.626 155.27,-84.628 155.26,-84.626 155.25,-84.624 155.24,-84.622 155.23,-84.615 155.21,-84.608 155.2,-84.601 155.18,-84.565 155.15,-84.529 155.13,-84.493 155.09,-84.432 155.06,-84.372 155.02,-84.311 154.99,-84.248 154.96,-84.187 154.92,-84.124 154.89,-84.061 154.86,-83.998 154.83,-83.935 154.81,-83.895 154.73,-83.857 154.73,-83.857 154.67,-83.722 154.61,-83.588 154.55,-83.453 Z M15.325,-102.26 C15.44,-102.13 15.543,-102.03 15.722,-102.01 16.076,-101.97 16.486,-102.33 16.501,-102.69 L16.469,-102.89 C16.434,-102.99 16.301,-103.12 16.301,-103.12 16.265,-103.16 16.228,-103.2 16.192,-103.23 16.187,-103.24 16.183,-103.24 16.178,-103.25 16.133,-103.29 16.072,-103.32 16.011,-103.34 16.011,-103.34 15.714,-103.57 15.714,-103.57 15.536,-103.69 15.269,-103.65 15.08,-103.48 14.891,-103.3 14.833,-103.04 14.942,-102.85 15.013,-102.75 15.083,-102.64 15.153,-102.54 15.182,-102.48 15.21,-102.42 15.239,-102.36 15.268,-102.32 15.296,-102.29 15.325,-102.26 Z M82.271,-131.06 C82.314,-131.1 82.346,-131.15 82.361,-131.22 82.361,-131.22 82.75,-132.84 82.883,-133.44 82.915,-133.57 82.874,-133.73 82.783,-133.83 82.758,-133.85 82.734,-133.87 82.71,-133.89 82.129,-134.23 81.551,-134.56 80.969,-134.9 80.904,-134.94 80.841,-134.93 80.771,-134.91 80.655,-134.88 80.54,-134.84 80.424,-134.81 80.414,-134.8 80.403,-134.8 80.392,-134.8 80.373,-134.79 80.354,-134.78 80.335,-134.77 80.315,-134.75 80.294,-134.73 80.273,-134.71 80.26,-134.68 80.248,-134.65 80.235,-134.62 80.14,-134.24 80.046,-133.87 79.951,-133.5 79.872,-133.13 79.793,-132.77 79.714,-132.4 79.711,-132.38 79.708,-132.35 79.706,-132.33 79.707,-132.22 79.742,-132.14 79.804,-132.05 79.828,-132.03 79.851,-132.01 79.875,-131.99 80.459,-131.65 81.04,-131.32 81.624,-130.98 81.663,-130.97 81.702,-130.96 81.74,-130.95 81.881,-130.97 82.02,-130.99 82.161,-131.01 82.198,-131.03 82.234,-131.04 82.271,-131.06 Z M68.4,-133.19 C68.378,-133.17 68.427,-133.12 68.535,-133.06 L68.966,-132.83 C69.273,-132.69 69.538,-132.62 69.579,-132.65 69.64,-132.79 69.702,-132.92 69.763,-133.06 69.762,-133.08 69.761,-133.1 69.76,-133.13 69.759,-133.15 69.758,-133.17 69.757,-133.18 69.784,-133.25 69.81,-133.31 69.837,-133.38 69.862,-133.45 69.886,-133.51 69.91,-133.58 69.932,-133.65 69.954,-133.71 69.976,-133.78 69.986,-133.81 69.996,-133.85 70.006,-133.88 70.007,-133.89 70.008,-133.9 70.01,-133.91 70.008,-133.92 70.006,-133.93 70.004,-133.94 69.995,-133.98 69.933,-134.03 69.933,-134.03 69.897,-134.05 69.862,-134.08 69.826,-134.1 69.764,-134.13 69.701,-134.17 69.639,-134.2 69.463,-134.28 69.283,-134.35 69.192,-134.36 69.167,-134.36 69.142,-134.37 69.117,-134.37 69.107,-134.36 69.098,-134.36 69.089,-134.36 69.076,-134.35 69.064,-134.35 69.051,-134.34 69.027,-134.3 69.003,-134.27 68.979,-134.23 68.943,-134.17 68.908,-134.11 68.872,-134.05 68.839,-133.99 68.806,-133.93 68.773,-133.86 68.742,-133.8 68.711,-133.74 68.68,-133.67 68.66,-133.63 68.584,-133.6 68.584,-133.6 68.523,-133.46 68.462,-133.33 68.4,-133.19 Z M79.316,-133.92 C79.399,-133.96 79.462,-134.05 79.489,-134.16 79.535,-134.36 79.451,-134.61 79.302,-134.72 79.2,-134.79 79.109,-134.78 78.992,-134.75 78.637,-134.65 78.284,-134.54 77.929,-134.44 77.918,-134.43 77.907,-134.42 77.896,-134.41 77.866,-134.4 77.836,-134.38 77.805,-134.36 77.786,-134.33 77.768,-134.3 77.749,-134.27 77.666,-134.06 77.817,-133.75 78.011,-133.75 78.029,-133.74 78.047,-133.74 78.065,-133.73 78.425,-133.78 78.782,-133.83 79.142,-133.88 79.176,-133.89 79.21,-133.9 79.244,-133.9 79.268,-133.91 79.292,-133.92 79.316,-133.92 Z"/>
      <path fill="#c0c0c0" d="M101.48,-52.522 C101.59,-52.393 101.69,-52.287 101.87,-52.268 102.23,-52.231 102.64,-52.592 102.65,-52.953 L102.62,-53.155 C102.58,-53.246 102.45,-53.381 102.45,-53.381 102.41,-53.419 102.38,-53.457 102.34,-53.495 102.34,-53.499 102.33,-53.504 102.33,-53.508 102.28,-53.547 102.22,-53.58 102.16,-53.597 102.16,-53.597 101.86,-53.829 101.86,-53.829 101.69,-53.953 101.42,-53.915 101.23,-53.74 101.04,-53.564 100.98,-53.301 101.09,-53.114 101.16,-53.009 101.23,-52.905 101.3,-52.801 101.33,-52.74 101.36,-52.679 101.39,-52.617 101.42,-52.586 101.45,-52.554 101.48,-52.522 Z M154.55,-83.453 C154.53,-83.435 154.58,-83.385 154.69,-83.316 L155.12,-83.091 C155.42,-82.955 155.69,-82.876 155.73,-82.91 155.79,-83.048 155.85,-83.185 155.91,-83.323 155.91,-83.344 155.91,-83.366 155.91,-83.387 155.91,-83.406 155.91,-83.426 155.91,-83.445 155.93,-83.511 155.96,-83.576 155.99,-83.641 156.01,-83.707 156.04,-83.773 156.06,-83.839 156.08,-83.906 156.1,-83.973 156.13,-84.04 156.14,-84.073 156.15,-84.106 156.16,-84.14 156.16,-84.15 156.16,-84.16 156.16,-84.171 156.16,-84.18 156.16,-84.19 156.15,-84.199 156.15,-84.238 156.08,-84.29 156.08,-84.29 156.05,-84.314 156.01,-84.337 155.98,-84.361 155.91,-84.394 155.85,-84.427 155.79,-84.459 155.61,-84.543 155.43,-84.609 155.34,-84.623 155.32,-84.624 155.29,-84.626 155.27,-84.628 155.26,-84.626 155.25,-84.624 155.24,-84.622 155.23,-84.615 155.21,-84.608 155.2,-84.601 155.18,-84.565 155.15,-84.529 155.13,-84.493 155.09,-84.432 155.06,-84.372 155.02,-84.311 154.99,-84.248 154.96,-84.187 154.92,-84.124 154.89,-84.061 154.86,-83.998 154.83,-83.935 154.81,-83.895 154.73,-83.857 154.73,-83.857 154.67,-83.722 154.61,-83.588 154.55,-83.453 Z M15.325,-102.26 C15.44,-102.13 15.543,-102.03 15.722,-102.01 16.076,-101.97 16.486,-102.33 16.501,-102.69 L16.469,-102.89 C16.434,-102.99 16.301,-103.12 16.301,-103.12 16.265,-103.16 16.228,-103.2 16.192,-103.23 16.187,-103.24 16.183,-103.24 16.178,-103.25 16.133,-103.29 16.072,-103.32 16.011,-103.34 16.011,-103.34 15.714,-103.57 15.714,-103.57 15.536,-103.69 15.269,-103.65 15.08,-103.48 14.891,-103.3 14.833,-103.04 14.942,-102.85 15.013,-102.75 15.083,-102.64 15.153,-102.54 15.182,-102.48 15.21,-102.42 15.239,-102.36 15.268,-102.32 15.296,-102.29 15.325,-102.26 Z M82.271,-131.06 C82.314,-131.1 82.346,-131.15 82.361,-131.22 82.361,-131.22 82.75,-132.84 82.883,-133.44 82.915,-133.57 82.874,-133.73 82.783,-133.83 82.758,-133.85 82.734,-133.87 82.71,-133.89 82.129,-134.23 81.551,-134.56 80.969,-134.9 80.904,-134.94 80.841,-134.93 80.771,-134.91 80.655,-134.88 80.54,-134.84 80.424,-134.81 80.414,-134.8 80.403,-134.8 80.392,-134.8 80.373,-134.79 80.354,-134.78 80.335,-134.77 80.315,-134.75 80.294,-134.73 80.273,-134.71 80.26,-134.68 80.248,-134.65 80.235,-134.62 80.14,-134.24 80.046,-133.87 79.951,-133.5 79.872,-133.13 79.793,-132.77 79.714,-132.4 79.711,-132.38 79.708,-132.35 79.706,-132.33 79.707,-132.22 79.742,-132.14 79.804,-132.05 79.828,-132.03 79.851,-132.01 79.875,-131.99 80.459,-131.65 81.04,-131.32 81.624,-130.98 81.663,-130.97 81.702,-130.96 81.74,-130.95 81.881,-130.97 82.02,-130.99 82.161,-131.01 82.198,-131.03 82.234,-131.04 82.271,-131.06 Z M68.4,-133.19 C68.378,-133.17 68.427,-133.12 68.535,-133.06 L68.966,-132.83 C69.273,-132.69 69.538,-132.62 69.579,-132.65 69.64,-132.79 69.702,-132.92 69.763,-133.06 69.762,-133.08 69.761,-133.1 69.76,-133.13 69.759,-133.15 69.758,-133.17 69.757,-133.18 69.784,-133.25 69.81,-133.31 69.837,-133.38 69.862,-133.45 69.886,-133.51 69.91,-133.58 69.932,-133.65 69.954,-133.71 69.976,-133.78 69.986,-133.81 69.996,-133.85 70.006,-133.88 70.007,-133.89 70.008,-133.9 70.01,-133.91 70.008,-133.92 70.006,-133.93 70.004,-133.94 69.995,-133.98 69.933,-134.03 69.933,-134.03 69.897,-134.05 69.862,-134.08 69.826,-134.1 69.764,-134.13 69.701,-134.17 69.639,-134.2 69.463,-134.28 69.283,-134.35 69.192,-134.36 69.167,-134.36 69.142,-134.37 69.117,-134.37 69.107,-134.36 69.098,-134.36 69.089,-134.36 69.076,-134.35 69.064,-134.35 69.051,-134.34 69.027,-134.3 69.003,-134.27 68.979,-134.23 68.943,-134.17 68.908,-134.11 68.872,-134.05 68.839,-133.99 68.806,-133.93 68.773,-133.86 68.742,-133.8 68.711,-133.74 68.68,-133.67 68.66,-133.63 68.584,-133.6 68.584,-133.6 68.523,-133.46 68.462,-133.33 68.4,-133.19 Z M79.316,-133.92 C79.399,-133.96 79.462,-134.05 79.489,-134.16 79.535,-134.36 79.451,-134.61 79.302,-134.72 79.2,-134.79 79.109,-134.78 78.992,-134.75 78.637,-134.65 78.284,-134.54 77.929,-134.44 77.918,-134.43 77.907,-134.42 77.896,-134.41 77.866,-134.4 77.836,-134.38 77.805,-134.36 77.786,-134.33 77.768,-134.3 77.749,-134.27 77.666,-134.06 77.817,-133.75 78.011,-133.75 78.029,-133.74 78.047,-133.74 78.065,-133.73 78.425,-133.78 78.782,-133.83 79.142,-133.88 79.176,-133.89 79.21,-133.9 79.244,-133.9 79.268,-133.91 79.292,-133.92 79.316,-133.92 Z"/>
      <path stroke="#000" stroke-width="0.18" d="M68.491,-133.39 C68.478,-133.34 68.733,-133.19 69.06,-133.04 69.218,-132.97 69.371,-132.91 69.487,-132.88 69.603,-132.85 69.671,-132.84 69.678,-132.87 L69.763,-133.06 C69.768,-133.08 69.766,-133.1 69.76,-133.13 69.755,-133.15 69.748,-133.16 69.757,-133.18 69.784,-133.25 69.812,-133.31 69.837,-133.38 69.863,-133.45 69.887,-133.51 69.91,-133.58 69.934,-133.64 69.955,-133.71 69.976,-133.78 69.987,-133.81 69.996,-133.85 70.006,-133.88 70.006,-133.88 70.006,-133.88 70.006,-133.88 70.007,-133.89 70.01,-133.9 70.01,-133.91 70.009,-133.92 70.006,-133.93 70.004,-133.94 69.995,-133.98 69.962,-134.01 69.933,-134.03 69.899,-134.06 69.863,-134.08 69.826,-134.1 69.773,-134.13 69.707,-134.17 69.639,-134.2 69.463,-134.28 69.283,-134.35 69.192,-134.36 69.167,-134.37 69.142,-134.37 69.117,-134.37 69.107,-134.37 69.098,-134.36 69.089,-134.36 69.084,-134.36 69.081,-134.36 69.077,-134.36 69.068,-134.35 69.059,-134.35 69.051,-134.34 69.026,-134.32 68.981,-134.24 68.979,-134.23 68.943,-134.17 68.907,-134.11 68.872,-134.05 68.838,-133.99 68.805,-133.93 68.773,-133.86 68.741,-133.8 68.711,-133.74 68.68,-133.67 68.66,-133.63 68.609,-133.63 68.584,-133.6 68.582,-133.59 68.58,-133.59 68.58,-133.59 68.567,-133.54 68.821,-133.38 69.148,-133.24 69.475,-133.09 69.75,-133.01 69.763,-133.06 M68.58,-133.59 C68.55,-133.52 68.521,-133.46 68.491,-133.39 68.49,-133.39 68.4,-133.19 68.4,-133.19 68.378,-133.17 68.427,-133.12 68.535,-133.06 68.643,-132.99 68.799,-132.9 68.966,-132.83 69.273,-132.69 69.538,-132.62 69.579,-132.65 L69.678,-132.87 C69.678,-132.87 69.678,-132.87 69.678,-132.87 M154.64,-83.655 C154.63,-83.605 154.88,-83.447 155.21,-83.301 155.37,-83.231 155.52,-83.173 155.64,-83.141 155.75,-83.108 155.82,-83.103 155.83,-83.129 L155.91,-83.323 C155.92,-83.346 155.92,-83.364 155.91,-83.387 155.91,-83.408 155.9,-83.424 155.91,-83.445 155.93,-83.511 155.96,-83.575 155.99,-83.641 156.01,-83.707 156.04,-83.773 156.06,-83.839 156.08,-83.906 156.11,-83.973 156.13,-84.04 156.14,-84.073 156.15,-84.106 156.16,-84.14 156.16,-84.14 156.16,-84.141 156.16,-84.142 156.16,-84.151 156.16,-84.161 156.16,-84.171 156.16,-84.18 156.16,-84.19 156.15,-84.199 156.15,-84.238 156.11,-84.266 156.08,-84.29 156.05,-84.316 156.01,-84.34 155.98,-84.361 155.92,-84.393 155.86,-84.427 155.79,-84.459 155.61,-84.543 155.43,-84.609 155.34,-84.623 155.32,-84.626 155.29,-84.631 155.27,-84.628 155.26,-84.626 155.25,-84.625 155.24,-84.622 155.23,-84.621 155.23,-84.618 155.23,-84.616 155.22,-84.611 155.21,-84.608 155.2,-84.601 155.18,-84.58 155.13,-84.497 155.13,-84.493 155.09,-84.432 155.06,-84.372 155.02,-84.311 154.99,-84.249 154.96,-84.187 154.92,-84.124 154.89,-84.062 154.86,-83.998 154.83,-83.935 154.81,-83.895 154.76,-83.893 154.73,-83.857 154.73,-83.855 154.73,-83.853 154.73,-83.85 154.72,-83.8 154.97,-83.642 155.3,-83.496 155.63,-83.351 155.9,-83.273 155.91,-83.323 M154.73,-83.85 C154.7,-83.785 154.67,-83.72 154.64,-83.655 154.64,-83.656 154.55,-83.453 154.55,-83.453 154.53,-83.435 154.58,-83.385 154.69,-83.316 154.79,-83.247 154.95,-83.166 155.12,-83.091 155.42,-82.955 155.69,-82.876 155.73,-82.91 L155.83,-83.127 C155.83,-83.128 155.83,-83.13 155.83,-83.13 M77.749,-134.27 C77.762,-134.3 77.784,-134.34 77.805,-134.36 77.839,-134.4 77.881,-134.42 77.929,-134.44 78.261,-134.54 78.595,-134.63 78.928,-134.73 78.948,-134.74 78.97,-134.75 78.992,-134.75 79.109,-134.78 79.2,-134.79 79.302,-134.72 79.366,-134.67 79.419,-134.6 79.455,-134.51 79.503,-134.4 79.515,-134.27 79.489,-134.16 79.462,-134.05 79.399,-133.96 79.316,-133.92 79.307,-133.92 79.28,-133.91 79.244,-133.9 79.208,-133.89 79.17,-133.89 79.142,-133.88 78.785,-133.82 78.424,-133.78 78.065,-133.73 77.909,-133.71 77.759,-133.86 77.729,-134.06 77.717,-134.13 77.724,-134.21 77.749,-134.27 Z M16.102,-103.25 C16.102,-103.25 16.042,-103.31 16.011,-103.34 15.918,-103.42 15.818,-103.5 15.714,-103.57 15.536,-103.69 15.269,-103.65 15.08,-103.48 14.891,-103.3 14.833,-103.04 14.942,-102.85 15.008,-102.74 15.079,-102.64 15.153,-102.54 15.18,-102.51 15.235,-102.44 15.235,-102.44 M15.146,-102.54 C15.163,-102.47 15.197,-102.41 15.239,-102.36 15.231,-102.37 15.323,-102.26 15.325,-102.26 15.44,-102.13 15.543,-102.03 15.722,-102.01 15.899,-101.99 16.093,-102.06 16.246,-102.19 16.399,-102.33 16.494,-102.51 16.501,-102.69 16.504,-102.76 16.493,-102.83 16.469,-102.89 16.434,-102.99 16.366,-103.05 16.301,-103.12 16.291,-103.13 16.204,-103.22 16.192,-103.23 M15.213,-102.47 C15.374,-102.28 15.701,-102.3 15.943,-102.52 16.186,-102.73 16.251,-103.06 16.09,-103.25 16.081,-103.26 16.072,-103.27 16.062,-103.28 M102.25,-53.509 C102.25,-53.509 102.19,-53.568 102.16,-53.597 102.07,-53.681 101.97,-53.759 101.86,-53.829 101.69,-53.953 101.42,-53.915 101.23,-53.74 101.04,-53.564 100.98,-53.301 101.09,-53.114 101.16,-53.001 101.23,-52.896 101.3,-52.801 101.33,-52.768 101.39,-52.704 101.39,-52.704 M101.3,-52.798 C101.31,-52.732 101.35,-52.666 101.39,-52.617 101.38,-52.627 101.47,-52.524 101.48,-52.522 101.59,-52.393 101.69,-52.287 101.87,-52.268 102.05,-52.249 102.24,-52.318 102.4,-52.452 102.55,-52.587 102.64,-52.772 102.65,-52.953 102.65,-53.024 102.64,-53.093 102.62,-53.155 102.58,-53.246 102.52,-53.31 102.45,-53.381 102.44,-53.393 102.35,-53.484 102.34,-53.495 M101.36,-52.735 C101.52,-52.545 101.85,-52.565 102.09,-52.778 102.34,-52.992 102.4,-53.319 102.24,-53.509 102.23,-53.52 102.22,-53.53 102.21,-53.539 M78.011,-133.75 C78.145,-133.77 78.228,-133.93 78.196,-134.12 78.165,-134.3 78.03,-134.43 77.896,-134.41 77.896,-134.41 77.896,-134.41 77.896,-134.41 M80.049,-131.89 C80.203,-132.07 80.361,-132.25 80.511,-132.43 80.607,-132.55 80.698,-132.67 80.791,-132.79 80.658,-133.46 80.556,-134.14 80.424,-134.81 M81.74,-130.95 C81.739,-130.95 81.736,-130.96 81.734,-130.98 81.623,-131.54 81.51,-132.1 81.4,-132.66 81.398,-132.67 81.397,-132.68 81.395,-132.68 81.38,-132.77 81.367,-132.86 81.353,-132.94 L81.353,-132.97 81.653,-133.33 C81.808,-133.51 81.961,-133.69 82.115,-133.87 81.59,-134.17 81.065,-134.48 80.54,-134.78 80.502,-134.8 80.463,-134.81 80.424,-134.81 80.42,-134.81 80.416,-134.8 80.412,-134.8"/>
    </g>
  </g>
  <g id="C3DC0001" vm2d:name="Callouts" vm2d:type="layer"/>
  <g id="C3DP0001" vm2d:name="Panels" vm2d:type="layer">
    <g>
      <g transform="matrix(3.78095,0,0,3.78095,0.119049,794)" stroke-width="0.95" stroke-linecap="round" stroke-linejoin="miter" stroke-miterlimit="10">
        <path stroke="#fff" d="M56.774,-138.77 L68.008,-133.69"/>
        <path stroke="#fff" stroke-width="0.8" stroke-linejoin="round" d="M68.478,-133.69 C68.478,-133.43 68.267,-133.22 68.008,-133.22 67.748,-133.22 67.538,-133.43 67.538,-133.69 67.538,-133.95 67.748,-134.16 68.008,-134.16 68.267,-134.16 68.478,-133.95 68.478,-133.69 Z"/>
        <path stroke="#000" stroke-width="0.15" d="M56.774,-138.77 L68.008,-133.69"/>
        <path fill="#000" d="M68.478,-133.69 C68.478,-133.43 68.267,-133.22 68.008,-133.22 67.748,-133.22 67.538,-133.43 67.538,-133.69 67.538,-133.95 67.748,-134.16 68.008,-134.16 68.267,-134.16 68.478,-133.95 68.478,-133.69 Z"/>
      </g>
      <g transform="matrix(3.73749,0,0,3.78095,212.484,257.046)">
        <text font-family="Arial" font-size="2.86" x="-12.0935" y="0.989784" fill="#000">МОДУЛЬ</text>
      </g>
      <g transform="matrix(3.73749,0,0,3.78095,212.484,269.316)">
        <text font-family="Arial" font-size="2.86" x="-14.5052" y="0.989784" fill="#000">ВНЕШНЕЙ</text>
      </g>
      <g transform="matrix(3.73749,0,0,3.78095,212.484,281.586)">
        <text font-family="Arial" font-size="2.86" x="-17.883" y="0.989784" fill="#000">ИНДИКАЦИИ</text>
      </g>
    </g>
    <a id="AUTOID_006" vm2d:name="МОДУЛЬ ВНЕШНЕЙ ИНДИКАЦИИ" vm2d:type="grobject" xlink:href="#">
      <path d="M143.35,250.88 L214.78,250.88 214.78,287.76 143.35,287.76 Z" fill="#fff" fill-opacity="0"/>
    </a>
    <g>
      <g transform="matrix(3.78095,0,0,3.78095,0.119049,794)" stroke-width="0.95" stroke-linecap="round" stroke-linejoin="miter" stroke-miterlimit="10">
        <path stroke="#fff" d="M17.717,-114.21 L14.774,-104.03"/>
        <path stroke="#fff" stroke-width="0.8" stroke-linejoin="round" d="M15.244,-104.03 C15.244,-103.77 15.033,-103.56 14.774,-103.56 14.514,-103.56 14.304,-103.77 14.304,-104.03 14.304,-104.29 14.514,-104.5 14.774,-104.5 15.033,-104.5 15.244,-104.29 15.244,-104.03 Z"/>
        <path stroke="#000" stroke-width="0.15" d="M17.717,-114.21 L14.774,-104.03"/>
        <path fill="#000" d="M15.244,-104.03 C15.244,-103.77 15.033,-103.56 14.774,-103.56 14.514,-103.56 14.304,-103.77 14.304,-104.03 14.304,-104.29 14.514,-104.5 14.774,-104.5 15.033,-104.5 15.244,-104.29 15.244,-104.03 Z"/>
      </g>
      <g transform="matrix(3.73749,0,0,3.78095,67.106,331.461)">
        <text font-family="Arial" font-size="2.86" x="-6.04674" y="0.989784" fill="#000">МОДУЛЬ</text>
      </g>
      <g transform="matrix(3.73749,0,0,3.78095,67.106,343.731)">
        <text font-family="Arial" font-size="2.86" x="-7.25261" y="0.989784" fill="#000">ВНЕШНЕЙ</text>
      </g>
      <g transform="matrix(3.73749,0,0,3.78095,67.106,356.002)">
        <text font-family="Arial" font-size="2.86" x="-8.94151" y="0.989784" fill="#000">ИНДИКАЦИИ</text>
      </g>
    </g>
    <a id="AUTOID_008" vm2d:name="МОДУЛЬ ВНЕШНЕЙ ИНДИКАЦИИ" vm2d:type="grobject" xlink:href="#">
      <path d="M31.392,325.29 L102.82,325.29 102.82,362.17 31.392,362.17 Z" fill="#fff" fill-opacity="0"/>
    </a>
    <g>
      <g transform="matrix(3.78095,0,0,3.78095,0.119049,794)" stroke-width="0.95" stroke-linecap="round" stroke-linejoin="miter" stroke-miterlimit="10">
        <path stroke="#fff" d="M151.28,-92.596 L154.97,-85.494"/>
        <path stroke="#fff" stroke-width="0.8" stroke-linejoin="round" d="M155.44,-85.494 C155.44,-85.235 155.23,-85.024 154.97,-85.024 154.71,-85.024 154.5,-85.235 154.5,-85.494 154.5,-85.754 154.71,-85.964 154.97,-85.964 155.23,-85.964 155.44,-85.754 155.44,-85.494 Z"/>
        <path stroke="#000" stroke-width="0.15" d="M151.28,-92.596 L154.97,-85.494"/>
        <path fill="#000" d="M155.44,-85.494 C155.44,-85.235 155.23,-85.024 154.97,-85.024 154.71,-85.024 154.5,-85.235 154.5,-85.494 154.5,-85.754 154.71,-85.964 154.97,-85.964 155.23,-85.964 155.44,-85.754 155.44,-85.494 Z"/>
      </g>
      <g transform="matrix(3.73749,0,0,3.78095,572.105,413.187)">
        <text font-family="Arial" font-size="2.86" x="-6.04674" y="0.989784" fill="#000">МОДУЛЬ</text>
      </g>
      <g transform="matrix(3.73749,0,0,3.78095,572.105,425.457)">
        <text font-family="Arial" font-size="2.86" x="-7.25261" y="0.989784" fill="#000">ВНЕШНЕЙ</text>
      </g>
      <g transform="matrix(3.73749,0,0,3.78095,572.105,437.728)">
        <text font-family="Arial" font-size="2.86" x="-8.94151" y="0.989784" fill="#000">ИНДИКАЦИИ</text>
      </g>
    </g>
    <a id="AUTOID_009" vm2d:name="МОДУЛЬ ВНЕШНЕЙ ИНДИКАЦИИ" vm2d:type="grobject" xlink:href="#">
      <path d="M536.39,407.02 L607.82,407.02 607.82,443.9 536.39,443.9 Z" fill="#fff" fill-opacity="0"/>
    </a>
    <g>
      <g transform="matrix(3.78095,0,0,3.78095,0.119049,794)" stroke-width="0.95" stroke-linecap="round" stroke-linejoin="miter" stroke-miterlimit="10">
        <path stroke="#fff" d="M90.574,-50.748 L100.66,-52.502"/>
        <path stroke="#fff" stroke-width="0.8" stroke-linejoin="round" d="M101.13,-52.502 C101.13,-52.242 100.92,-52.032 100.66,-52.032 100.4,-52.032 100.19,-52.242 100.19,-52.502 100.19,-52.761 100.4,-52.972 100.66,-52.972 100.92,-52.972 101.13,-52.761 101.13,-52.502 Z"/>
        <path stroke="#000" stroke-width="0.15" d="M90.574,-50.748 L100.66,-52.502"/>
        <path fill="#000" d="M101.13,-52.502 C101.13,-52.242 100.92,-52.032 100.66,-52.032 100.4,-52.032 100.19,-52.242 100.19,-52.502 100.19,-52.761 100.4,-52.972 100.66,-52.972 100.92,-52.972 101.13,-52.761 101.13,-52.502 Z"/>
      </g>
      <g transform="matrix(3.73749,0,0,3.78095,340.278,589.853)">
        <text font-family="Arial" font-size="2.86" x="-12.0935" y="0.989784" fill="#000">МОДУЛЬ</text>
      </g>
      <g transform="matrix(3.73749,0,0,3.78095,340.278,602.123)">
        <text font-family="Arial" font-size="2.86" x="-14.5052" y="0.989784" fill="#000">ВНЕШНЕЙ</text>
      </g>
      <g transform="matrix(3.73749,0,0,3.78095,340.278,614.393)">
        <text font-family="Arial" font-size="2.86" x="-17.883" y="0.989784" fill="#000">ИНДИКАЦИИ</text>
      </g>
    </g>
    <a id="AUTOID_010" vm2d:name="МОДУЛЬ ВНЕШНЕЙ ИНДИКАЦИИ" vm2d:type="grobject" xlink:href="#">
      <path d="M271.15,583.68 L342.57,583.68 342.57,620.56 271.15,620.56 Z" fill="#fff" fill-opacity="0"/>
    </a>
    <g>
      <g transform="matrix(3.78095,0,0,3.78095,0.119049,794)" stroke-width="0.95" stroke-linecap="round" stroke-linejoin="miter" stroke-miterlimit="10">
        <path stroke="#fff" d="M98.439,-138.53 L82.552,-133.52"/>
        <path stroke="#fff" stroke-width="0.8" stroke-linejoin="round" d="M83.022,-133.52 C83.022,-133.26 82.812,-133.05 82.552,-133.05 82.293,-133.05 82.082,-133.26 82.082,-133.52 82.082,-133.77 82.293,-133.99 82.552,-133.99 82.812,-133.99 83.022,-133.77 83.022,-133.52 Z"/>
        <path stroke="#000" stroke-width="0.15" d="M98.439,-138.53 L82.552,-133.52"/>
        <path fill="#000" d="M83.022,-133.52 C83.022,-133.26 82.812,-133.05 82.552,-133.05 82.293,-133.05 82.082,-133.26 82.082,-133.52 82.082,-133.77 82.293,-133.99 82.552,-133.99 82.812,-133.99 83.022,-133.77 83.022,-133.52 Z"/>
        <text font-family="Arial" font-size="2.86" x="99.0456" y="-142.454" fill="#000" xml:space="preserve"> АНТЕННА</text>
        <text font-family="Arial" font-size="2.86" x="99.0456" y="-139.171" fill="#000">LTE C GNSS</text>
      </g>
    </g>
    <a id="AUTOID_007" vm2d:name=" АНТЕННА  LTE C GNSS" vm2d:type="grobject" xlink:href="#">
      <path d="M372.31,245.48 L446.18,245.48 446.18,270.23 372.31,270.23 Z" fill="#fff" fill-opacity="0"/>
    </a>
    <g>
      <g transform="matrix(3.78095,0,0,3.78095,0.119049,794)" stroke-width="0.95" stroke-linecap="round" stroke-linejoin="miter" stroke-miterlimit="10">
        <path stroke="#fff" d="M75.135,-149.09 L78.619,-135.23"/>
        <path stroke="#fff" stroke-width="0.8" stroke-linejoin="round" d="M79.089,-135.23 C79.089,-134.97 78.879,-134.76 78.619,-134.76 78.359,-134.76 78.149,-134.97 78.149,-135.23 78.149,-135.48 78.359,-135.7 78.619,-135.7 78.879,-135.7 79.089,-135.48 79.089,-135.23 Z"/>
        <path stroke="#000" stroke-width="0.15" d="M75.135,-149.09 L78.619,-135.23"/>
        <path fill="#000" d="M79.089,-135.23 C79.089,-134.97 78.879,-134.76 78.619,-134.76 78.359,-134.76 78.149,-134.97 78.149,-135.23 78.149,-135.48 78.359,-135.7 78.619,-135.7 78.879,-135.7 79.089,-135.48 79.089,-135.23 Z"/>
        <text font-family="Arial" font-size="2.86" x="67.9168" y="-153.019" fill="#000" xml:space="preserve"> АНТЕННА</text>
        <text font-family="Arial" font-size="2.86" x="71.6466" y="-149.736" fill="#000">WI-FI</text>
      </g>
    </g>
    <a id="AUTOID_011" vm2d:name=" АНТЕННА  WI-FI" vm2d:type="grobject" xlink:href="#">
      <path d="M254.61,205.53 L313.78,205.53 313.78,230.28 254.61,230.28 Z" fill="#fff" fill-opacity="0"/>
    </a>
  </g>
</svg>
