<?xml version="1.0" encoding="UTF-8" standalone="no"?>
<!DOCTYPE svg SYSTEM "http://www.w3.org/Graphics/SVG/1.1/DTD/svg11.dtd" [
<!ENTITY % SVG.External.attrib
"xmlns:vm2d CDATA #FIXED 'http://www.cortona3d.com/vm2d'
vm2d:name CDATA #IMPLIED
vm2d:type CDATA #IMPLIED">
]>
<svg xmlns="http://www.w3.org/2000/svg" xmlns:vm2d="http://www.cortona3d.com/vm2d" xmlns:xlink="http://www.w3.org/1999/xlink" version="1.1" width="170mm" height="222mm" viewBox="0 0 643 840" fill="none" fill-rule="evenodd" stroke-miterlimit="5">
  <title>Untitled</title>
  <desc>"Generator:ParallelGraphics Cortona2D","ProfileId:WebCGM""ProfileEd:2.1""ColourClass:colour""Source:Cortona2D Editor Pro 14.2.0.142""Date:20250507"</desc>
  <rect width="643" height="840" fill="#fff"/>
  <defs/>
  <g id="C3DB0001" vm2d:name="Background" vm2d:type="layer"/>
  <g id="C3DG0001" vm2d:name="Drawing" vm2d:type="layer">
    <g transform="matrix(3.78235,0,0,3.78235,-0,839.841)" stroke-width="0.18" stroke-linecap="round" stroke-linejoin="round" stroke-miterlimit="10">
      <path stroke="#000" d="M131.22,-130.33 C130.84,-130.34 130.46,-130.35 130.07,-130.36 129.58,-130.38 129.16,-129.88 129.14,-129.24 129.12,-128.61 129.51,-128.08 130,-128.06 130.39,-128.05 130.77,-128.04 131.16,-128.03 M134.17,-129.09 C134.14,-127.99 133.38,-127.29 132.25,-127.32 130.35,-127.38 130.46,-131.06 132.36,-130.99 133.48,-130.96 134.21,-130.2 134.17,-129.09 Z M133.26,-128.94 C133.15,-128.63 133.06,-128.31 132.87,-128.03 132.82,-128.06 132.73,-128.11 132.67,-128.14 132.85,-128.42 132.95,-128.74 133.06,-129.06 132.8,-129.21 132.56,-129.36 132.28,-129.47 132.31,-129.55 132.36,-129.66 132.38,-129.73 132.65,-129.62 132.9,-129.47 133.15,-129.32 M80.734,-159.27 L80.265,-159.54 80.03,-160.14 80.265,-160.48 80.734,-160.21 80.968,-159.6 80.734,-159.27 M78.163,-159.34 C78.163,-159.27 78.163,-159.19 78.163,-159.11 78.163,-158.79 78.39,-158.39 78.671,-158.23 78.871,-158.11 79.137,-157.92 79.377,-158.06 79.919,-158.38 80.459,-158.69 81.002,-159 81.28,-159.16 81.28,-159.68 81.002,-160.16 80.869,-160.39 80.688,-160.58 80.499,-160.69 80.311,-160.8 80.13,-160.82 79.996,-160.74 79.863,-160.67 79.788,-160.5 79.788,-160.28 79.788,-160.06 79.863,-159.81 79.996,-159.58 80.274,-159.1 80.724,-158.84 81.002,-159 M79.996,-160.74 C79.454,-160.43 78.914,-160.12 78.371,-159.8 78.238,-159.73 78.163,-159.56 78.163,-159.34 78.163,-159.13 78.238,-158.87 78.371,-158.64 78.504,-158.41 78.685,-158.22 78.874,-158.11 M87.588,-129.49 C87.588,-129.49 87.657,-129.53 87.688,-129.55 87.727,-129.58 87.762,-129.62 87.793,-129.66 87.827,-129.7 87.856,-129.74 87.881,-129.78 87.959,-129.92 88.004,-130.09 88.009,-130.26 88.015,-130.43 87.981,-130.6 87.911,-130.74 87.889,-130.79 87.862,-130.83 87.832,-130.88 87.803,-130.92 87.77,-130.95 87.734,-130.99 87.702,-131.02 87.629,-131.06 87.629,-131.06 M104.53,-119.71 C104.53,-119.71 104.6,-119.75 104.63,-119.77 104.67,-119.8 104.7,-119.84 104.74,-119.87 104.77,-119.91 104.8,-119.96 104.82,-120 104.9,-120.14 104.95,-120.31 104.95,-120.48 104.96,-120.65 104.92,-120.82 104.85,-120.96 104.83,-121.01 104.81,-121.05 104.77,-121.09 104.75,-121.13 104.71,-121.17 104.68,-121.2 104.64,-121.23 104.57,-121.28 104.57,-121.28 M90.244,-135.47 C90.244,-135.47 90.282,-135.48 90.301,-135.48 90.373,-135.5 90.445,-135.52 90.516,-135.54 90.587,-135.57 90.657,-135.6 90.725,-135.63 90.932,-135.73 91.126,-135.87 91.302,-136.04 91.537,-136.27 91.734,-136.56 91.883,-136.89 91.92,-136.97 91.954,-137.05 91.985,-137.14 92.226,-137.81 92.467,-138.49 92.708,-139.16 92.949,-139.15 93.188,-139.15 93.429,-139.14 97.826,-136.6 102.2,-134.08 106.59,-131.54 106.1,-130.16 105.37,-128.8 105.8,-127.32 106,-126.61 106.42,-126.04 106.96,-125.73 107.64,-125.34 108.32,-124.94 108.99,-124.55 107.72,-121 106.45,-117.46 105.18,-113.91 104.94,-113.91 104.7,-113.92 104.46,-113.93 103.78,-114.32 103.1,-114.71 102.43,-115.1 102.36,-115.14 102.29,-115.17 102.22,-115.2 102.15,-115.23 102.08,-115.26 102.01,-115.28 101.98,-115.29 101.92,-115.3 101.92,-115.3 M88.55,-130.25 C88.538,-129.78 88.228,-129.4 87.857,-129.41 87.486,-129.42 87.196,-129.81 87.207,-130.29 87.219,-130.76 87.53,-131.14 87.9,-131.13 88.271,-131.12 88.562,-130.73 88.55,-130.25 Z M93.429,-139.14 C92.971,-137.86 92.483,-135.36 90.583,-135.42 90.29,-135.43 90.001,-135.52 89.734,-135.67 89.058,-136.06 88.379,-136.45 87.703,-136.85 87.462,-136.85 87.223,-136.86 86.982,-136.86 L83.167,-126.22 C83.843,-125.83 84.522,-125.43 85.198,-125.04 85.737,-124.73 86.155,-124.16 86.36,-123.45 86.786,-121.97 86.06,-120.61 85.567,-119.23 89.963,-116.69 94.334,-114.17 98.731,-111.63 98.971,-111.62 99.211,-111.62 99.451,-111.61 99.909,-112.89 100.4,-115.4 102.3,-115.33 102.59,-115.32 102.88,-115.23 103.15,-115.08 103.82,-114.69 104.5,-114.3 105.18,-113.91 M72.807,-136.08 C73.298,-136.36 74.105,-136.71 74.559,-137.19 74.922,-137.58 75.186,-138.1 75.263,-138.59 75.34,-139.08 75.219,-139.47 74.941,-139.63 74.72,-139.76 74.42,-139.73 74.108,-139.55 73.617,-139.27 72.811,-138.92 72.357,-138.44 71.993,-138.05 71.729,-137.53 71.652,-137.04 71.575,-136.55 71.696,-136.16 71.974,-136 72.195,-135.87 72.495,-135.9 72.807,-136.08 Z M13.561,-53.437 C21.058,-57.765 28.509,-62.067 36.006,-66.395 36.191,-66.504 36.712,-67.043 37.413,-67.849 38.113,-68.656 38.911,-69.636 39.565,-70.495 39.952,-71.003 40.332,-71.518 40.704,-72.037 41.514,-73.167 42.294,-74.324 43.048,-75.492 43.881,-76.785 44.687,-78.102 45.468,-79.427 45.493,-79.47 45.545,-79.515 45.619,-79.558 47.755,-80.791 49.898,-82.028 52.034,-83.262 52.746,-83.892 53.444,-84.544 54.122,-85.211 54.034,-85.194 53.704,-85.071 53.594,-85.188 53.51,-85.277 53.561,-85.485 53.737,-85.772 53.9,-86.04 54.105,-86.283 54.323,-86.508 55.004,-87.209 55.67,-87.93 56.315,-88.663 56.972,-89.41 57.613,-90.175 58.233,-90.952 59.486,-92.522 60.677,-94.164 61.801,-95.874 64.051,-99.297 65.998,-102.94 67.573,-106.67 67.573,-106.98 67.573,-107.29 67.573,-107.6 67.978,-107.37 68.38,-107.14 68.785,-106.9 M48.055,-80.964 C48.055,-80.964 46.835,-79.74 46.213,-79.142 44.812,-77.4 43.731,-75.911 43.03,-74.756 42.621,-74.39 42.214,-74.025 41.804,-73.659 M44.796,-89.559 C44.796,-89.559 44.528,-89.371 44.417,-89.253 44.252,-89.08 44.108,-88.883 43.989,-88.676 43.869,-88.468 43.77,-88.245 43.702,-88.016 43.656,-87.86 43.627,-87.535 43.627,-87.535 M42.567,-87.34 C43.082,-87.043 43.918,-87.525 44.434,-88.418 44.95,-89.312 44.95,-90.277 44.434,-90.575 43.918,-90.872 43.082,-90.39 42.567,-89.497 42.051,-88.603 42.051,-87.638 42.567,-87.34 Z M49.224,-92.134 C49.224,-92.134 48.957,-91.946 48.845,-91.829 48.681,-91.655 48.537,-91.458 48.417,-91.251 48.297,-91.043 48.199,-90.82 48.131,-90.591 48.085,-90.435 48.056,-90.11 48.056,-90.11 M58.569,-97.511 C58.569,-97.511 58.302,-97.323 58.19,-97.206 58.026,-97.032 57.882,-96.835 57.762,-96.628 57.642,-96.42 57.544,-96.197 57.476,-95.968 57.43,-95.813 57.4,-95.487 57.4,-95.487 M56.34,-95.293 C56.856,-94.995 57.692,-95.477 58.207,-96.371 58.723,-97.264 58.723,-98.229 58.207,-98.527 57.692,-98.825 56.856,-98.342 56.34,-97.449 55.824,-96.555 55.824,-95.59 56.34,-95.293 Z M64.422,-100.24 C64.422,-100.24 65.831,-102.27 66.507,-103.3 67.287,-104.48 68.048,-105.69 68.785,-106.9 68.785,-107.37 68.785,-107.84 68.785,-108.31 60.105,-113.32 51.477,-118.3 42.797,-123.32 37.743,-122.29 32.708,-121.18 27.698,-119.96 26.048,-119.56 24.395,-119.14 22.75,-118.72 21.114,-118.3 19.476,-117.86 17.846,-117.42 16.417,-117.03 13.561,-116.22 13.561,-116.22 M27.087,-97.665 C26.983,-97.04 26.849,-96.417 26.674,-95.808 26.624,-95.633 26.661,-95.528 26.784,-95.493 27.089,-95.406 27.931,-95.764 28.886,-96.386 31.313,-97.967 34.472,-101.35 37.607,-105.72 40.743,-110.09 43.576,-115.06 45.43,-119.45 45.43,-119.76 45.43,-120.07 45.43,-120.39 52.351,-116.39 59.23,-112.42 66.151,-108.42 66.151,-108.11 66.151,-107.8 66.151,-107.49 63.994,-102.38 61.143,-97.451 57.795,-93.037 55.79,-90.394 53.628,-87.963 51.363,-85.806 50.303,-84.796 49.33,-83.624 49.074,-83.049 48.893,-82.641 49.042,-82.496 49.514,-82.621 50.351,-82.843 51.193,-83.055 52.034,-83.262 M13.561,-87.539 L28.886,-96.386 M133.71,-128.8 L134,-128.8 M133.62,-130.12 L133.41,-130.13 M132.33,-129.6 C132.49,-129.51 132.64,-129.42 132.79,-129.33 132.91,-129.33 133.03,-129.32 133.15,-129.32 133.26,-129.61 133.4,-129.92 133.42,-130.24 133.48,-130.21 133.57,-130.16 133.62,-130.12 133.6,-129.81 133.46,-129.49 133.36,-129.2 L133,-129.21 133.04,-129.32 M133.36,-129.2 C133.56,-129.09 133.82,-128.96 134,-128.8 133.98,-128.72 133.94,-128.61 133.91,-128.53 133.73,-128.7 133.47,-128.82 133.26,-128.94 133.18,-128.94 133.1,-128.95 133.02,-128.95 M133,-129.21 L133.71,-128.8 133.67,-128.7 M80.968,-159.6 L80.562,-159.37 M80.734,-160.21 L80.139,-159.86"/>
      <path stroke="#000" d="M88.746,-130.25 C88.76,-130.8 88.423,-131.25 87.994,-131.26 87.565,-131.28 87.206,-130.84 87.192,-130.29 87.178,-129.74 87.514,-129.28 87.944,-129.27 88.373,-129.26 88.732,-129.7 88.746,-130.25 Z"/>
      <path stroke="#000" d="M104.79,-119.63 C105.16,-119.61 105.48,-119.99 105.49,-120.46 105.51,-120.94 105.22,-121.34 104.85,-121.35 104.48,-121.36 104.17,-120.99 104.15,-120.51 104.14,-120.04 104.42,-119.64 104.79,-119.63 Z"/>
      <path stroke="#000" d="M105.69,-120.47 C105.71,-121.02 105.37,-121.48 104.94,-121.49 104.5,-121.5 104.14,-121.06 104.13,-120.51 104.11,-119.95 104.45,-119.49 104.89,-119.48 105.32,-119.47 105.68,-119.91 105.69,-120.47 Z"/>
      <path stroke="#000" d="M83.887,-126.2 L87.703,-136.85 M86.287,-119.21 C86.78,-120.59 87.506,-121.95 87.08,-123.43 86.875,-124.14 86.458,-124.71 85.919,-125.03 85.242,-125.42 84.564,-125.81 83.887,-126.2 83.647,-126.21 83.408,-126.21 83.167,-126.22 M99.451,-111.61 L86.287,-119.21 85.567,-119.23 M56.905,-118.92 C56.286,-117.85 56.286,-116.69 56.905,-116.34 57.524,-115.98 58.527,-116.56 59.146,-117.63 59.765,-118.7 59.765,-119.86 59.146,-120.22 58.527,-120.57 57.524,-120 56.905,-118.92 Z M53.175,-132.46 C53.175,-132.46 53.305,-132.61 53.372,-132.69 53.537,-132.88 53.705,-133.07 53.875,-133.25 54.043,-133.43 54.214,-133.61 54.387,-133.79 54.731,-134.15 55.081,-134.49 55.434,-134.82 56.319,-135.65 57.229,-136.39 58.15,-137.03 59.996,-138.31 61.863,-139.19 63.642,-139.61 67.532,-140.52 71.434,-141.43 75.325,-142.34 75.851,-142.46 76.327,-142.4 76.704,-142.15 77.437,-141.68 77.719,-140.57 77.452,-139.22 77.184,-137.87 76.404,-136.47 75.386,-135.5 73.505,-133.72 70.611,-133.22 69.674,-130.61 67.419,-124.32 65.157,-118 62.901,-111.71 63.81,-111.18 64.714,-110.66 65.623,-110.14 67.879,-116.43 70.141,-122.74 72.397,-129.04 73.333,-131.65 76.227,-132.15 78.108,-133.93 79.126,-134.9 79.907,-136.3 80.174,-137.65 80.442,-139 80.159,-140.11 79.426,-140.58 78.517,-141.11 77.613,-141.63 76.704,-142.15 M68.057,-122.56 C69.245,-122.52 69.176,-120.22 67.985,-120.26 66.797,-120.31 66.866,-122.6 68.057,-122.56 Z M78.368,-140.24 C78.262,-140.18 78.201,-140.02 78.201,-139.79 78.201,-139.57 78.262,-139.31 78.368,-139.08 78.607,-138.56 79.041,-138.31 79.373,-138.5 79.706,-138.69 79.706,-139.19 79.374,-139.66 79.226,-139.87 79.031,-140.05 78.838,-140.16 78.646,-140.27 78.475,-140.3 78.368,-140.24 Z M30.969,-120.73 C30.969,-120.73 30.984,-120.76 30.99,-120.77 31.045,-120.9 31.094,-121.03 31.133,-121.16 31.211,-121.42 31.251,-121.68 31.251,-121.91 31.251,-122.39 31.088,-122.74 30.798,-122.91 30.278,-123.21 29.461,-122.83 28.849,-122.01 28.68,-121.78 28.535,-121.53 28.423,-121.27 28.31,-121.01 28.232,-120.75 28.192,-120.49 28.173,-120.37 28.163,-120.25 28.163,-120.13 28.163,-120.11 28.168,-120.07 28.168,-120.07 M39.962,-128.71 C39.344,-127.63 39.344,-126.48 39.963,-126.12 40.581,-125.76 41.585,-126.34 42.203,-127.41 42.822,-128.48 42.822,-129.64 42.203,-130 41.585,-130.36 40.581,-129.78 39.962,-128.71 Z M55.865,-145.86 C56.355,-146.14 57.162,-146.5 57.616,-146.98 57.979,-147.36 58.244,-147.88 58.321,-148.37 58.397,-148.86 58.276,-149.25 57.998,-149.41 57.777,-149.54 57.477,-149.51 57.165,-149.33 56.674,-149.05 55.868,-148.7 55.414,-148.22 55.05,-147.83 54.786,-147.31 54.709,-146.82 54.632,-146.33 54.753,-145.94 55.032,-145.78 55.253,-145.65 55.552,-145.68 55.865,-145.86 Z M24.392,-119.13 C24.392,-119.13 28.809,-129.03 31.014,-133.97 32.392,-137.06 34.256,-139.99 36.429,-142.47 39.624,-146.12 43.29,-148.59 46.699,-149.39 50.59,-150.3 54.492,-151.21 58.382,-152.12 58.909,-152.24 59.384,-152.18 59.761,-151.94 60.494,-151.46 60.777,-150.35 60.509,-149 60.242,-147.65 59.462,-146.25 58.443,-145.29 56.563,-143.51 53.668,-143 52.732,-140.39 50.476,-134.1 48.214,-127.78 45.958,-121.49 46.868,-120.97 47.771,-120.44 48.681,-119.92 50.936,-126.21 53.198,-132.53 55.454,-138.82 56.39,-141.43 59.285,-141.93 61.165,-143.71 62.184,-144.68 62.964,-146.08 63.231,-147.43 63.499,-148.78 63.216,-149.89 62.483,-150.36 61.574,-150.89 60.67,-151.41 59.761,-151.94 M51.115,-132.34 C52.303,-132.3 52.234,-130 51.042,-130.04 49.854,-130.09 49.923,-132.38 51.115,-132.34 Z M61.426,-150.02 C61.319,-149.96 61.258,-149.8 61.258,-149.58 61.258,-149.35 61.319,-149.09 61.425,-148.86 61.664,-148.34 62.098,-148.09 62.431,-148.28 62.763,-148.47 62.763,-148.97 62.431,-149.44 62.283,-149.65 62.088,-149.83 61.896,-149.94 61.703,-150.05 61.532,-150.08 61.426,-150.02 Z M13.561,-103.63 L44.008,-121.21 M13.561,-78.061 L66.151,-108.42 M13.561,-114.81 C13.561,-114.81 16.636,-115.68 18.177,-116.1 20.189,-116.65 22.212,-117.18 24.234,-117.69 26.269,-118.21 28.315,-118.71 30.358,-119.19 34.459,-120.15 38.614,-121.06 42.797,-121.91 43.201,-121.67 43.603,-121.44 44.008,-121.21 44.008,-120.9 44.008,-120.58 44.008,-120.27 42.432,-116.54 40.485,-112.9 38.236,-109.48 36.994,-107.59 35.29,-105.3 33.656,-103.32 32.022,-101.33 30.658,-99.907 29.989,-99.479 29.757,-99.33 29.551,-99.239 29.404,-99.22 29.256,-99.201 29.177,-99.256 29.176,-99.379 29.176,-99.457 29.176,-99.536 29.175,-99.614 26.343,-97.98 23.503,-96.34 20.672,-94.705 20.598,-94.663 20.507,-94.641 20.406,-94.641 18.126,-94.652 13.561,-94.796 13.561,-94.796 M44.786,-78.318 L46.213,-79.142 M13.561,-94.039 C13.561,-94.039 18.126,-93.902 20.406,-93.896 20.507,-93.896 20.598,-93.918 20.672,-93.961 22.808,-95.194 24.951,-96.431 27.087,-97.665 27.8,-98.295 28.497,-98.947 29.175,-99.614 M42.238,-74.299 L43.03,-74.756 M46.995,-89.915 C47.511,-89.618 48.347,-90.1 48.863,-90.994 49.378,-91.887 49.378,-92.852 48.863,-93.15 48.347,-93.448 47.511,-92.965 46.995,-92.072 46.479,-91.178 46.479,-90.213 46.995,-89.915 Z M66.151,-107.49 L67.573,-106.66 M42.797,-123.32 L42.797,-121.91 M44.008,-120.27 L45.43,-119.45"/>
    </g>
  </g>
  <g id="C3DA0001" vm2d:name="Axials" vm2d:type="layer">
    <g id="WRAP_001" vm2d:name="" vm2d:type="grnode">
      <g transform="matrix(3.78235,0,0,3.78235,-0,839.841)" stroke-width="0.55" stroke-linecap="round" stroke-linejoin="round" stroke-miterlimit="10">
        <path stroke="#fff" d="M78.016,-158.34 L61.863,-149.07"/>
        <path stroke="#000" stroke-width="0.15" stroke-dasharray="6.35,0.635,1.27,0.635" d="M78.363,-158.53 L61.516,-148.87"/>
      </g>
    </g>
    <g id="WRAP_002" vm2d:name="" vm2d:type="grnode">
      <g transform="matrix(3.78235,0,0,3.78235,-0,839.841)" stroke-width="0.55" stroke-linecap="round" stroke-linejoin="round" stroke-miterlimit="10">
        <path stroke="#fff" d="M84.257,-130.38 L50.65,-131.24"/>
        <path stroke="#000" stroke-width="0.15" stroke-dasharray="6.35,0.635,1.27,0.635" d="M84.656,-130.37 L50.25,-131.25"/>
      </g>
    </g>
    <g id="WRAP_003" vm2d:name="" vm2d:type="grnode">
      <g transform="matrix(3.78235,0,0,3.78235,-0,839.841)" stroke-width="0.55" stroke-linecap="round" stroke-linejoin="round" stroke-miterlimit="10">
        <path stroke="#fff" d="M128.72,-129.25 L87.592,-130.3"/>
        <path stroke="#000" stroke-width="0.15" stroke-dasharray="6.35,0.635,1.27,0.635" d="M129.12,-129.24 L87.193,-130.31"/>
      </g>
    </g>
  </g>
  <g id="C3DC0001" vm2d:name="Callouts" vm2d:type="layer">
    <g>
      <g transform="matrix(3.78235,0,0,3.78235,-0,839.841)" stroke-width="0.85" stroke-linecap="round" stroke-linejoin="miter" stroke-miterlimit="10">
        <path stroke="#fff" d="M66.585,-174.11 L77.411,-161.3"/>
        <path stroke="#fff" stroke-width="0.7" stroke-linecap="butt" stroke-linejoin="round" d="M77.881,-161.3 C77.881,-161.04 77.671,-160.83 77.411,-160.83 77.152,-160.83 76.941,-161.04 76.941,-161.3 76.941,-161.56 77.152,-161.77 77.411,-161.77 77.671,-161.77 77.881,-161.56 77.881,-161.3 Z"/>
        <path stroke="#000" stroke-width="0.15" d="M66.585,-174.11 L77.411,-161.3"/>
        <path fill="#000" d="M77.881,-161.3 C77.881,-161.04 77.671,-160.83 77.411,-160.83 77.152,-160.83 76.941,-161.04 76.941,-161.3 76.941,-161.56 77.152,-161.77 77.411,-161.77 77.671,-161.77 77.881,-161.56 77.881,-161.3 Z"/>
        <text font-family="Arial" font-size="3.93" x="61.6114" y="-174.765" fill="#000">10</text>
      </g>
    </g>
    <a id="a5494acc346ffa6a36bd9369fb9a2d70" vm2d:name="10" vm2d:type="grobject" xlink:href="#">
      <path d="M230.74,166.05 L251.85,166.05 251.85,181.3 230.74,181.3 Z" fill="#fff" fill-opacity="0"/>
    </a>
    <g>
      <g transform="matrix(3.78235,0,0,3.78235,-0,839.841)" stroke-width="0.85" stroke-linecap="round" stroke-linejoin="miter" stroke-miterlimit="10">
        <path stroke="#fff" d="M145.87,-144.71 L130.29,-132.19"/>
        <path stroke="#fff" stroke-width="0.7" stroke-linecap="butt" stroke-linejoin="round" d="M130.76,-132.19 C130.76,-131.94 130.55,-131.72 130.29,-131.72 130.03,-131.72 129.82,-131.94 129.82,-132.19 129.82,-132.45 130.03,-132.66 130.29,-132.66 130.55,-132.66 130.76,-132.45 130.76,-132.19 Z"/>
        <path stroke="#000" stroke-width="0.15" d="M145.87,-144.71 L130.29,-132.19"/>
        <path fill="#000" d="M130.76,-132.19 C130.76,-131.94 130.55,-131.72 130.29,-131.72 130.03,-131.72 129.82,-131.94 129.82,-132.19 129.82,-132.45 130.03,-132.66 130.29,-132.66 130.55,-132.66 130.76,-132.45 130.76,-132.19 Z"/>
        <text font-family="Arial" font-size="3.93" x="146.479" y="-145.365" fill="#000">15</text>
      </g>
    </g>
    <a id="_718184c3cbe2d435b8900cb05f8ff382" vm2d:name="15" vm2d:type="grobject" xlink:href="#">
      <path d="M551.74,277.24 L572.85,277.24 572.85,292.5 551.74,292.5 Z" fill="#fff" fill-opacity="0"/>
    </a>
    <g>
      <g transform="matrix(3.78235,0,0,3.78235,-0,839.841)" stroke-width="0.85" stroke-linecap="round" stroke-linejoin="miter" stroke-miterlimit="10">
        <path stroke="#fff" d="M123.15,-155.28 L98.557,-134.61"/>
        <path stroke="#fff" stroke-width="0.7" stroke-linecap="butt" stroke-linejoin="round" d="M99.027,-134.61 C99.027,-134.35 98.817,-134.14 98.557,-134.14 98.298,-134.14 98.087,-134.35 98.087,-134.61 98.087,-134.87 98.298,-135.08 98.557,-135.08 98.817,-135.08 99.027,-134.87 99.027,-134.61 Z"/>
        <path stroke="#000" stroke-width="0.15" d="M123.15,-155.28 L98.557,-134.61"/>
        <path fill="#000" d="M99.027,-134.61 C99.027,-134.35 98.817,-134.14 98.557,-134.14 98.298,-134.14 98.087,-134.35 98.087,-134.61 98.087,-134.87 98.298,-135.08 98.557,-135.08 98.817,-135.08 99.027,-134.87 99.027,-134.61 Z"/>
        <text font-family="Arial" font-size="3.93" x="123.759" y="-155.938" fill="#000">5</text>
      </g>
    </g>
    <a id="_18cf9bb7f2ff0b0789c5031cfdabfc08" vm2d:name="5" vm2d:type="grobject" xlink:href="#">
      <path d="M465.8,237.25 L478.65,237.25 478.65,252.51 465.8,252.51 Z" fill="#fff" fill-opacity="0"/>
    </a>
  </g>
  <g id="C3DP0001" vm2d:name="Panels" vm2d:type="layer"/>
  <g id="AUTOID_111" vm2d:name="" vm2d:type="grnode">
    <g transform="matrix(3.78235,0,0,3.78235,-0,839.841)">
      <path fill="#fff" d="M81.648,-188.14 L87.648,-188.14 87.648,-182.14 81.648,-182.14 81.648,-188.14 81.648,-188.14 Z"/>
      <path fill="#000" d="M81.848,-187.94 L87.448,-187.94 87.448,-182.34 81.848,-182.34 81.848,-187.94 81.848,-187.94 Z"/>
      <path fill="#fff" d="M82.048,-187.74 L87.247,-187.74 87.247,-182.54 82.048,-182.54 82.048,-187.74 82.048,-187.74 Z"/>
      <path fill="#000" d="M85.106,-184.77 L85.106,-184.77 84.619,-186.08 84.143,-184.77 83.923,-184.17 83.63,-183.37 82.874,-183.37 84.25,-186.91 85.005,-186.91 86.422,-183.37 86.422,-183.37 85.644,-183.37 85.335,-184.17 83.923,-184.17 84.143,-184.77 85.106,-184.77 85.106,-184.77 Z"/>
    </g>
  </g>
</svg>
