<?xml version="1.0" encoding="UTF-8" standalone="no"?>
<!DOCTYPE svg SYSTEM "http://www.w3.org/Graphics/SVG/1.1/DTD/svg11.dtd" [
<!ENTITY % SVG.External.attrib
"xmlns:vm2d CDATA #FIXED 'http://www.cortona3d.com/vm2d'
vm2d:name CDATA #IMPLIED
vm2d:type CDATA #IMPLIED">
]>
<svg xmlns="http://www.w3.org/2000/svg" xmlns:vm2d="http://www.cortona3d.com/vm2d" xmlns:xlink="http://www.w3.org/1999/xlink" version="1.1" width="170mm" height="210mm" viewBox="0 0 643 794" fill="none" fill-rule="evenodd" stroke-miterlimit="5">
  <title>Untitled</title>
  <desc>"Generator:ParallelGraphics Cortona2D","ProfileId:WebCGM""ProfileEd:2.1""ColourClass:colour""Source:Cortona2D Editor Pro 14.2.0.142""Date:20250514"</desc>
  <rect width="643" height="794" fill="#fff"/>
  <defs/>
  <g id="C3DB0001" vm2d:name="Background" vm2d:type="layer"/>
  <g id="AUTOID_008" vm2d:name="Схема" vm2d:type="layer">
    <g transform="matrix(3.78095,0,0,3.78095,0.119049,794)" stroke-width="0.18" stroke-linecap="round" stroke-linejoin="round" stroke-miterlimit="10">
      <path stroke="#000" d="M79.043,-114.9 L89.043,-114.9 89.043,-84.897 79.043,-84.897 Z"/>
    </g>
    <g id="AUTOID_228" vm2d:name="" vm2d:type="grnode">
      <g transform="matrix(-0,-3.78095,3.78095,0,314.3,439.011)">
        <text font-family="Arial" font-size="3.21" x="0" y="0" fill="#000" xml:space="preserve">ШКАФЫ </text>
      </g>
      <g transform="matrix(-0,-3.78095,3.78095,0,328.144,463.63)">
        <text font-family="Arial" font-size="3.21" x="0" y="0" fill="#000">ПОДКЛЮЧЕНИЯ</text>
      </g>
    </g>
    <g id="AUTOID_003" vm2d:name="" vm2d:type="grnode">
      <g id="AUTOID_197" vm2d:name="" vm2d:type="grnode">
        <g transform="matrix(-0,-3.78095,3.78095,0,206.374,527.472)">
          <text font-family="Arial" font-size="3.21" x="0" y="0" fill="#000" xml:space="preserve">ЦЕНТРАЛЬНЫЙ </text>
        </g>
        <g transform="matrix(-0,-3.78095,3.78095,0,220.339,498.964)">
          <text font-family="Arial" font-size="3.21" x="0" y="0" fill="#000">ШКАФ</text>
        </g>
        <g transform="matrix(-0,-3.78095,3.78095,0,234.184,521.588)">
          <text font-family="Arial" font-size="3.21" x="0" y="0" fill="#000">УПРАВЛЕНИЯ</text>
        </g>
      </g>
      <g transform="matrix(3.78095,0,0,3.78095,0.119049,794)" stroke-width="0.18" stroke-linecap="round" stroke-linejoin="round" stroke-miterlimit="10">
        <path stroke="#000" d="M49.337,-159.9 L64.337,-159.9 64.337,-5.5006 49.337,-5.5006 Z"/>
      </g>
    </g>
    <g id="AUTOID_226" vm2d:name="" vm2d:type="grnode">
      <g transform="matrix(3.78095,0,0,3.78095,0.119049,794)" stroke-width="0.18" stroke-linecap="round" stroke-linejoin="round" stroke-miterlimit="10">
        <path stroke="#000" d="M14.043,-149.9 L29.043,-149.9 29.043,-119.9 14.043,-119.9 Z"/>
      </g>
      <g id="AUTOID_227" vm2d:name="" vm2d:type="grnode">
        <g transform="matrix(-0,-3.78095,3.78095,0,72.9901,335.602)">
          <text font-family="Arial" font-size="3.21" x="0" y="0" fill="#000" xml:space="preserve">СВЕТОДИОДНЫЕ </text>
        </g>
        <g transform="matrix(-0,-3.78095,3.78095,0,86.9547,327.579)">
          <text font-family="Arial" font-size="3.21" x="0" y="0" fill="#000">ПРОЖЕКТОРЫ</text>
        </g>
        <g transform="matrix(-0,-3.78095,3.78095,0,100.919,306.196)">
          <text font-family="Arial" font-size="3.21" x="0" y="0" fill="#000">БАШНИ</text>
        </g>
      </g>
    </g>
    <g id="WRAP_001" vm2d:name="" vm2d:type="grnode">
      <g transform="matrix(3.78095,0,0,3.78095,0.119049,794)" stroke-width="0.9" stroke-linecap="butt" stroke-linejoin="round" stroke-miterlimit="10">
        <path stroke="#fff" d="M68.206,-104.92 L78.593,-104.99"/>
        <path stroke="#fff" stroke-width="0.3" stroke-linecap="round" stroke-linejoin="miter" stroke-miterlimit="1000" d="M68.5,-105.72 L64.506,-104.9 68.511,-104.13 Z"/>
        <path stroke="#000" stroke-width="0.6" d="M68.206,-104.92 L79.043,-105"/>
        <path fill="#000" d="M68.5,-105.72 L64.506,-104.9 68.511,-104.13 Z"/>
      </g>
    </g>
    <g id="WRAP_002" vm2d:name="" vm2d:type="grnode">
      <g transform="matrix(3.78095,0,0,3.78095,0.119049,794)" stroke-width="0.9" stroke-linecap="butt" stroke-linejoin="round" stroke-miterlimit="10">
        <path stroke="#fff" d="M45.706,-24.922 L46.026,-24.924 48.904,-24.944"/>
        <path stroke="#fff" stroke-width="0.3" stroke-linecap="round" stroke-linejoin="miter" stroke-miterlimit="1000" d="M46,-25.724 L42.006,-24.897 46.011,-24.125 Z"/>
        <path stroke="#000" stroke-width="0.6" d="M45.706,-24.922 L46.026,-24.924 49.354,-24.947"/>
        <path fill="#000" d="M46,-25.724 L42.006,-24.897 46.011,-24.125 Z"/>
      </g>
    </g>
    <g id="AUTOID_002" vm2d:name="" vm2d:type="grnode">
      <g transform="matrix(3.78095,0,0,3.78095,0.119049,794)" stroke-width="0.18" stroke-linecap="round" stroke-linejoin="round" stroke-miterlimit="10">
        <path stroke="#000" d="M14.043,-39.898 L24.043,-39.898 24.043,-9.8975 14.043,-9.8975 Z"/>
      </g>
      <g transform="matrix(-0,-3.78095,3.78095,0,76.3563,730.062)">
        <text font-family="Arial" font-size="3.21" x="0" y="0" fill="#000">ПЛАНШЕТ</text>
      </g>
    </g>
    <a id="AUTOID_078" vm2d:name="" vm2d:type="grobject" xlink:href="#"/>
    <g transform="matrix(3.78095,0,0,3.78095,0.119049,794)" stroke-width="0.18" stroke-linecap="round" stroke-linejoin="round" stroke-miterlimit="10">
      <path stroke="#000" d="M99.043,-149.9 L109.04,-149.9 109.04,-109.9 99.043,-109.9 Z"/>
    </g>
    <g id="AUTOID_187" vm2d:name="" vm2d:type="grnode">
      <g transform="matrix(-0,-3.78095,3.78095,0,390.851,325.566)">
        <text font-family="Arial" font-size="3.21" x="0" y="0" fill="#000">ШКАФЫ</text>
      </g>
      <g transform="matrix(-0,-3.78095,3.78095,0,404.695,375.572)">
        <text font-family="Arial" font-size="3.21" x="0" y="0" fill="#000">УПРАВЛЕНИЯ № 1 И № 2</text>
      </g>
    </g>
    <g transform="matrix(3.78095,0,0,3.78095,0.119049,794)" stroke-width="0.18" stroke-linecap="round" stroke-linejoin="round" stroke-miterlimit="10">
      <path stroke="#000" d="M14.043,-114.9 L29.043,-114.9 29.043,-49.897 14.043,-49.897 Z"/>
    </g>
    <g transform="matrix(-0,-3.78095,3.78095,0,67.0601,533.123)">
      <text font-family="Arial" font-size="3.21" x="0" y="0" fill="#000">СИСТЕМА СВЯЗИ</text>
    </g>
    <g id="AUTOID_079" vm2d:name="" vm2d:type="grnode">
      <g transform="matrix(3.78095,0,0,3.78095,0.119049,794)" stroke-width="0.18" stroke-linecap="round" stroke-linejoin="round" stroke-miterlimit="10">
        <path stroke="#000" d="M19.043,-73.403 L29.043,-73.403 29.043,-56.393 19.043,-56.393 Z"/>
      </g>
      <g id="AUTOID_080" vm2d:name="" vm2d:type="grnode">
        <g transform="matrix(-0,-3.78095,3.78095,0,88.3899,577.64)">
          <text font-family="Arial" font-size="3.21" x="0" y="0" fill="#000">АНТЕННА</text>
        </g>
        <g transform="matrix(-0,-3.78095,3.78095,0,102.355,562.991)">
          <text font-family="Arial" font-size="3.21" x="0" y="0" fill="#000">WI-FI</text>
        </g>
      </g>
    </g>
    <g id="AUTOID_081" vm2d:name="" vm2d:type="grnode">
      <g transform="matrix(3.78095,0,0,3.78095,0.119049,794)" stroke-width="0.18" stroke-linecap="round" stroke-linejoin="round" stroke-miterlimit="10">
        <path stroke="#000" d="M19.043,-110.9 L29.043,-110.9 29.043,-88.893 19.043,-88.893 Z"/>
      </g>
      <g id="AUTOID_082" vm2d:name="" vm2d:type="grnode">
        <g transform="matrix(-0,-3.78095,3.78095,0,88.3159,445.306)">
          <text font-family="Arial" font-size="3.21" x="0" y="0" fill="#000">АНТЕННА</text>
        </g>
        <g transform="matrix(-0,-3.78095,3.78095,0,102.281,452.072)">
          <text font-family="Arial" font-size="3.21" x="0" y="0" fill="#000">LTE С GPRS</text>
        </g>
      </g>
    </g>
    <g transform="matrix(3.78095,0,0,3.78095,0.119049,794)" stroke-width="0.35" stroke-linecap="round" stroke-linejoin="round" stroke-miterlimit="10">
      <path stroke="#000" d="M11.048,-24.897 L14.043,-24.897 M16.048,-63.897 L19.043,-63.897 M16.048,-99.897 L19.043,-99.897 M9.5497,-26.397 L11.048,-24.898 9.5497,-23.397 M14.55,-65.397 L16.048,-63.898 14.55,-62.397 M14.55,-101.4 L16.048,-99.898 14.55,-98.397"/>
    </g>
    <g id="WRAP_003" vm2d:name="" vm2d:type="grnode">
      <g transform="matrix(3.78095,0,0,3.78095,0.119049,794)" stroke-width="0.45" stroke-linecap="butt" stroke-linejoin="round" stroke-miterlimit="10">
        <path stroke="#fff" d="M11.225,-42.05 L8.6914,-44.584 11.543,-44.584 8.6153,-47.511"/>
        <path stroke="#fff" stroke-width="0.3" stroke-linecap="round" stroke-linejoin="miter" stroke-miterlimit="1000" d="M9.2335,-48.023 L5.8395,-50.286 8.1033,-46.893 Z"/>
        <path stroke="#000" stroke-width="0.15" d="M11.543,-41.732 L8.6914,-44.584 11.543,-44.584 8.6153,-47.511"/>
        <path fill="#000" d="M9.2335,-48.023 L5.8395,-50.286 8.1033,-46.893 Z"/>
      </g>
    </g>
    <g id="WRAP_004" vm2d:name="" vm2d:type="grnode">
      <g transform="matrix(3.78095,0,0,3.78095,0.119049,794)" stroke-width="0.65" stroke-linecap="butt" stroke-linejoin="round" stroke-miterlimit="10">
        <path stroke="#fff" d="M29.498,-62.397 L45.512,-62.397"/>
        <path stroke="#fff" stroke-width="0.3" stroke-linecap="round" stroke-linejoin="miter" stroke-miterlimit="1000" d="M45.337,-61.598 L49.337,-62.397 45.337,-63.197 Z"/>
        <path stroke="#000" stroke-width="0.35" stroke-dasharray="0.35,0.7" d="M29.048,-62.397 L45.512,-62.397"/>
        <path fill="#000" d="M45.337,-61.598 L49.337,-62.397 45.337,-63.197 Z"/>
      </g>
    </g>
    <g id="WRAP_005" vm2d:name="" vm2d:type="grnode">
      <g transform="matrix(3.78095,0,0,3.78095,0.119049,794)" stroke-width="0.65" stroke-linecap="butt" stroke-linejoin="round" stroke-miterlimit="10">
        <path stroke="#fff" d="M29.498,-97.55 L45.512,-97.55"/>
        <path stroke="#fff" stroke-width="0.3" stroke-linecap="round" stroke-linejoin="miter" stroke-miterlimit="1000" d="M45.337,-96.75 L49.337,-97.55 45.337,-98.349 Z"/>
        <path stroke="#000" stroke-width="0.35" stroke-dasharray="0.35,0.7" d="M29.048,-97.55 L45.512,-97.55"/>
        <path fill="#000" d="M45.337,-96.75 L49.337,-97.55 45.337,-98.349 Z"/>
      </g>
    </g>
    <g id="WRAP_006" vm2d:name="" vm2d:type="grnode">
      <g transform="matrix(3.78095,0,0,3.78095,0.119049,794)" stroke-width="0.65" stroke-linecap="butt" stroke-linejoin="round" stroke-miterlimit="10">
        <path stroke="#fff" d="M48.887,-66.897 L32.984,-66.897"/>
        <path stroke="#fff" stroke-width="0.3" stroke-linecap="round" stroke-linejoin="miter" stroke-miterlimit="1000" d="M33.159,-67.697 L29.159,-66.897 33.159,-66.098 Z"/>
        <path stroke="#000" stroke-width="0.35" stroke-dasharray="0.35,0.7" d="M49.337,-66.897 L32.984,-66.897"/>
        <path fill="#000" d="M33.159,-67.697 L29.159,-66.897 33.159,-66.098 Z"/>
      </g>
    </g>
    <g id="WRAP_007" vm2d:name="" vm2d:type="grnode">
      <g transform="matrix(3.78095,0,0,3.78095,0.119049,794)" stroke-width="0.65" stroke-linecap="butt" stroke-linejoin="round" stroke-miterlimit="10">
        <path stroke="#fff" d="M48.887,-102.05 L32.984,-102.05"/>
        <path stroke="#fff" stroke-width="0.3" stroke-linecap="round" stroke-linejoin="miter" stroke-miterlimit="1000" d="M33.159,-102.85 L29.159,-102.05 33.159,-101.25 Z"/>
        <path stroke="#000" stroke-width="0.35" stroke-dasharray="0.35,0.7" d="M49.337,-102.05 L32.984,-102.05"/>
        <path fill="#000" d="M33.159,-102.85 L29.159,-102.05 33.159,-101.25 Z"/>
      </g>
    </g>
    <g transform="matrix(3.78095,0,0,3.78095,0.119049,794)" stroke-width="0.18" stroke-linecap="round" stroke-linejoin="round" stroke-miterlimit="10">
      <path stroke="#000" d="M79.043,-44.544 L94.043,-44.544 94.043,-4.5436 79.043,-4.5436 Z"/>
    </g>
    <g id="AUTOID_195" vm2d:name="" vm2d:type="grnode">
      <g transform="matrix(-0,-3.78095,3.78095,0,349.933,776.083)">
        <text font-family="Arial" font-size="3.21" x="0" y="0" fill="#000">СИСТЕМА НАБЛЮДЕНИЯ</text>
      </g>
      <g id="AUTOID_196" vm2d:name="" vm2d:type="grnode">
        <g transform="matrix(3.78095,0,0,3.78095,0.119049,794)" stroke-width="0.18" stroke-linecap="round" stroke-linejoin="round" stroke-miterlimit="10">
          <path stroke="#000" d="M79.043,-37.953 L89.043,-37.953 89.043,-11.135 79.043,-11.135 Z"/>
        </g>
        <g transform="matrix(-0,-3.78095,3.78095,0,321.292,748.563)">
          <text font-family="Arial" font-size="3.21" x="0" y="0" fill="#000">ВИДЕОКАМЕРЫ</text>
        </g>
      </g>
    </g>
    <g id="AUTOID_089" vm2d:name="" vm2d:type="grnode">
      <g transform="matrix(3.78095,0,0,3.78095,0.119049,794)" stroke-width="0.15" stroke-linecap="round" stroke-linejoin="round" stroke-miterlimit="10">
        <path fill="#fff" stroke="#000" d="M76.363,-22.044 L79.043,-24.543 76.363,-27.043 76.363,-25.793 66.913,-25.793 66.913,-27.043 64.233,-24.543 66.913,-22.044 66.913,-23.293 76.363,-23.293 Z"/>
        <path fill="#000" stroke="#000" d="M70.183,-25.776 L71.184,-25.776 71.184,-23.276 70.183,-23.276 Z"/>
        <path fill="#000" stroke="#000" d="M68.184,-25.776 L69.184,-25.776 69.184,-23.276 68.184,-23.276 Z"/>
        <path fill="#000" stroke="#000" d="M72.183,-25.776 L73.183,-25.776 73.183,-23.276 72.183,-23.276 Z"/>
        <path fill="#000" stroke="#000" d="M74.183,-25.776 L75.183,-25.776 75.183,-23.276 74.183,-23.276 Z"/>
      </g>
    </g>
    <g transform="matrix(3.78095,0,0,3.78095,0.119049,794)" stroke-width="0.18" stroke-linecap="round" stroke-linejoin="round" stroke-miterlimit="10">
      <path fill="#fff" stroke="#000" d="M50.399,-179.92 L52.899,-177.24 55.398,-179.92 54.149,-179.92 54.149,-191.56 55.398,-191.56 52.899,-194.24 50.399,-191.56 51.649,-191.56 51.649,-179.92 Z"/>
      <path fill="#fff" stroke="#000" d="M67.227,-62.202 L64.547,-59.703 67.227,-57.203 67.227,-58.453 121.36,-58.453 121.36,-57.203 124.04,-59.703 121.36,-62.202 121.36,-60.953 67.227,-60.953 Z"/>
      <path fill="#fff" stroke="#000" d="M67.018,-147.4 L64.337,-144.9 67.018,-142.4 67.018,-143.65 96.363,-143.65 96.363,-142.4 99.043,-144.9 96.363,-147.4 96.363,-146.15 67.018,-146.15 Z"/>
    </g>
    <g transform="matrix(-0,-3.78095,3.78095,0,224.374,132.337)">
      <text font-family="Arial" font-size="2.86" x="0" y="0" fill="#000">РАДИОСИГНАЛ</text>
    </g>
    <g transform="matrix(-0,-3.78095,3.78095,0,183.612,129.114)">
      <text font-family="Arial" font-size="2.86" x="0" y="0" fill="#000">ETHERNET/ IP</text>
    </g>
    <g transform="matrix(-0,-3.78095,3.78095,0,142.854,135.357)">
      <text font-family="Arial" font-size="2.86" x="0" y="0" fill="#000">ETHERNET/ POE</text>
    </g>
    <g transform="matrix(-0,-3.78095,3.78095,0,17.4356,161.411)">
      <text font-family="Arial" font-size="2.86" x="0" y="0" fill="#000">СИЛОВОЕ ПИТАНИЕ 380 В</text>
    </g>
    <g transform="matrix(-0,-3.78095,3.78095,0,42.0007,152.69)">
      <text font-family="Arial" font-size="2.85" x="0" y="0" fill="#000">ЦИФРОВАЯ ШИНА 24 В</text>
    </g>
    <g transform="matrix(-0,-3.78095,3.78095,0,66.8663,148.414)">
      <text font-family="Arial" font-size="2.85" x="0" y="0" fill="#000">СИЛОВАЯ ШИНА 24 В</text>
    </g>
    <g id="WRAP_008" vm2d:name="" vm2d:type="grnode">
      <g transform="matrix(3.78095,0,0,3.78095,0.119049,794)" stroke-width="0.9" stroke-linecap="butt" stroke-linejoin="round" stroke-miterlimit="10">
        <path stroke="#fff" d="M6.8096,-192.04 L6.8096,-176.19"/>
        <path stroke="#fff" stroke-width="0.3" stroke-linecap="round" stroke-linejoin="miter" stroke-miterlimit="1000" d="M7.6089,-191.74 L6.8096,-195.74 6.0104,-191.74 Z"/>
        <path stroke="#000" stroke-width="0.6" d="M6.8096,-192.04 L6.8096,-175.74"/>
        <path fill="#000" d="M7.6089,-191.74 L6.8096,-195.74 6.0104,-191.74 Z"/>
      </g>
    </g>
    <g id="WRAP_009" vm2d:name="" vm2d:type="grnode">
      <g transform="matrix(3.78095,0,0,3.78095,0.119049,794)" stroke-width="0.45" stroke-linecap="butt" stroke-linejoin="round" stroke-miterlimit="10">
        <path stroke="#fff" d="M13.611,-191.81 L13.611,-175.74"/>
        <path stroke="#fff" stroke-width="0.3" stroke-linecap="round" stroke-linejoin="miter" stroke-miterlimit="1000" d="M14.41,-191.74 L13.611,-195.74 12.812,-191.74 Z"/>
        <path stroke="#009300" stroke-width="0.15" stroke-dasharray="0.9,0.3,0.15,0.3" d="M13.611,-191.81 L13.611,-175.74"/>
        <path fill="#009300" d="M14.41,-191.74 L13.611,-195.74 12.812,-191.74 Z"/>
      </g>
    </g>
    <g id="WRAP_010" vm2d:name="" vm2d:type="grnode">
      <g transform="matrix(3.78095,0,0,3.78095,0.119049,794)" stroke-width="0.45" stroke-linecap="butt" stroke-linejoin="round" stroke-miterlimit="10">
        <path stroke="#fff" d="M19.657,-191.81 L19.657,-175.74"/>
        <path stroke="#fff" stroke-width="0.3" stroke-linecap="round" stroke-linejoin="miter" stroke-miterlimit="1000" d="M20.456,-191.74 L19.657,-195.74 18.857,-191.74 Z"/>
        <path stroke="#00f" stroke-width="0.15" d="M19.657,-191.81 L19.657,-175.74"/>
        <path fill="#00f" d="M20.456,-191.74 L19.657,-195.74 18.857,-191.74 Z"/>
      </g>
    </g>
    <g id="WRAP_011" vm2d:name="" vm2d:type="grnode">
      <g transform="matrix(3.78095,0,0,3.78095,0.119049,794)" stroke-width="0.45" stroke-linecap="butt" stroke-linejoin="round" stroke-miterlimit="10">
        <path stroke="#fff" d="M120.12,-67.397 L64.337,-67.397"/>
        <path stroke="#fff" stroke-width="0.3" stroke-linecap="round" stroke-linejoin="miter" stroke-miterlimit="1000" d="M120.04,-66.598 L124.04,-67.397 120.04,-68.197 Z"/>
        <path stroke="#00f" stroke-width="0.15" d="M120.12,-67.397 L64.337,-67.397"/>
        <path fill="#00f" d="M120.04,-66.598 L124.04,-67.397 120.04,-68.197 Z"/>
      </g>
    </g>
    <g id="WRAP_012" vm2d:name="" vm2d:type="grnode">
      <g transform="matrix(3.78095,0,0,3.78095,0.119049,794)" stroke-width="0.45" stroke-linecap="butt" stroke-linejoin="round" stroke-miterlimit="10">
        <path stroke="#fff" d="M95.118,-124.9 L64.337,-124.9"/>
        <path stroke="#fff" stroke-width="0.3" stroke-linecap="round" stroke-linejoin="miter" stroke-miterlimit="1000" d="M95.043,-124.1 L99.043,-124.9 95.043,-125.7 Z"/>
        <path stroke="#00f" stroke-width="0.15" d="M95.118,-124.9 L64.337,-124.9"/>
        <path fill="#00f" d="M95.043,-124.1 L99.043,-124.9 95.043,-125.7 Z"/>
      </g>
    </g>
    <g id="WRAP_013" vm2d:name="" vm2d:type="grnode">
      <g transform="matrix(3.78095,0,0,3.78095,0.119049,794)" stroke-width="0.45" stroke-linecap="butt" stroke-linejoin="round" stroke-miterlimit="10">
        <path stroke="#fff" d="M32.968,-134.9 L49.337,-134.9"/>
        <path stroke="#fff" stroke-width="0.3" stroke-linecap="round" stroke-linejoin="miter" stroke-miterlimit="1000" d="M33.043,-135.7 L29.043,-134.9 33.043,-134.1 Z"/>
        <path stroke="#00f" stroke-width="0.15" d="M32.968,-134.9 L49.337,-134.9"/>
        <path fill="#00f" d="M33.043,-135.7 L29.043,-134.9 33.043,-134.1 Z"/>
      </g>
    </g>
    <g id="WRAP_014" vm2d:name="" vm2d:type="grnode">
      <g transform="matrix(3.78095,0,0,3.78095,0.119049,794)" stroke-width="0.65" stroke-linecap="butt" stroke-linejoin="round" stroke-miterlimit="10">
        <path stroke="#fff" d="M61.857,-176.19 L61.857,-191.91"/>
        <path stroke="#fff" stroke-width="0.3" stroke-linecap="round" stroke-linejoin="miter" stroke-miterlimit="1000" d="M62.656,-191.74 L61.857,-195.74 61.058,-191.74 Z"/>
        <path stroke="#000" stroke-width="0.35" stroke-dasharray="0.35,0.7" d="M61.857,-175.74 L61.857,-191.91"/>
        <path fill="#000" d="M62.656,-191.74 L61.857,-195.74 61.058,-191.74 Z"/>
      </g>
    </g>
    <g id="AUTOID_090" vm2d:name="" vm2d:type="grnode">
      <g transform="matrix(3.78095,0,0,3.78095,0.119049,794)" stroke-width="0.18" stroke-linecap="round" stroke-linejoin="round" stroke-miterlimit="10">
        <path fill="#fff" stroke="#000" d="M39.619,-183.38 L42.119,-180.7 44.619,-183.38 43.369,-183.38 43.369,-188.09 44.619,-188.09 42.119,-190.78 39.62,-188.09 40.869,-188.09 40.869,-183.38 Z"/>
        <path fill="#000" stroke="#000" stroke-width="0.15" d="M40.852,-185.2 L43.352,-185.2 43.352,-184.2 40.852,-184.2 Z"/>
        <path fill="#000" stroke="#000" stroke-width="0.15" d="M40.852,-187.2 L43.352,-187.2 43.352,-186.2 40.852,-186.2 Z"/>
      </g>
    </g>
    <g transform="matrix(-0,-3.78095,3.78095,0,91.4496,165.037)">
      <text font-family="Arial" font-size="2.86" x="0" y="0" fill="#000" xml:space="preserve">ДИСКРЕТНЫЙ СИГНАЛ 24 В </text>
    </g>
    <g transform="matrix(-0,-3.78095,3.78095,0,119.406,165.433)">
      <text font-family="Arial" font-size="2.86" x="0" y="0" fill="#000" xml:space="preserve">АНАЛОГОВЫЙ СИГНАЛ 24 В </text>
    </g>
    <g id="WRAP_015" vm2d:name="" vm2d:type="grnode">
      <g transform="matrix(3.78095,0,0,3.78095,0.119049,794)" stroke-width="0.9" stroke-linecap="butt" stroke-linejoin="round" stroke-miterlimit="10">
        <path stroke="#fff" d="M26.826,-176.19 L26.826,-192.04"/>
        <path stroke="#fff" stroke-width="0.3" stroke-linecap="round" stroke-linejoin="miter" stroke-miterlimit="1000" d="M27.625,-191.74 L26.826,-195.74 26.026,-191.74 Z"/>
        <path stroke="#000" stroke-width="0.6" stroke-dasharray="3,1" d="M26.826,-175.74 L26.826,-192.04"/>
        <path fill="#000" d="M27.625,-191.74 L26.826,-195.74 26.026,-191.74 Z"/>
      </g>
    </g>
    <g id="WRAP_016" vm2d:name="" vm2d:type="grnode">
      <g transform="matrix(3.78095,0,0,3.78095,0.119049,794)" stroke-width="0.6" stroke-linecap="butt" stroke-linejoin="round" stroke-miterlimit="10">
        <path stroke="#fff" d="M33.628,-176.19 L33.628,-191.89"/>
        <path stroke="#fff" stroke-width="0.3" stroke-linecap="round" stroke-linejoin="miter" stroke-miterlimit="1000" d="M34.427,-191.74 L33.628,-195.74 32.828,-191.74 Z"/>
        <path stroke="#000" stroke-width="0.3" stroke-dasharray="3,1" d="M33.628,-175.74 L33.628,-191.89"/>
        <path fill="#000" d="M34.427,-191.74 L33.628,-195.74 32.828,-191.74 Z"/>
      </g>
    </g>
    <g id="WRAP_017" vm2d:name="" vm2d:type="grnode">
      <g transform="matrix(3.78095,0,0,3.78095,0.119049,794)" stroke-width="0.45" stroke-linecap="butt" stroke-linejoin="round" stroke-miterlimit="10">
        <path stroke="#fff" d="M120.33,-52.397 L64.547,-52.397"/>
        <path stroke="#fff" stroke-width="0.3" stroke-linecap="round" stroke-linejoin="miter" stroke-miterlimit="1000" d="M120.25,-51.598 L124.25,-52.397 120.25,-53.197 Z"/>
        <path stroke="#009300" stroke-width="0.15" stroke-dasharray="0.9,0.3,0.15,0.3" d="M120.33,-52.397 L64.547,-52.397"/>
        <path fill="#009300" d="M120.25,-51.598 L124.25,-52.397 120.25,-53.197 Z"/>
      </g>
    </g>
    <g id="WRAP_018" vm2d:name="" vm2d:type="grnode">
      <g transform="matrix(3.78095,0,0,3.78095,0.119049,794)" stroke-width="0.45" stroke-linecap="butt" stroke-linejoin="round" stroke-miterlimit="10">
        <path stroke="#fff" d="M95.118,-134.9 L64.337,-134.9"/>
        <path stroke="#fff" stroke-width="0.3" stroke-linecap="round" stroke-linejoin="miter" stroke-miterlimit="1000" d="M95.043,-134.1 L99.043,-134.9 95.043,-135.7 Z"/>
        <path stroke="#009300" stroke-width="0.15" stroke-dasharray="0.9,0.3,0.15,0.3" d="M95.118,-134.9 L64.337,-134.9"/>
        <path fill="#009300" d="M95.043,-134.1 L99.043,-134.9 95.043,-135.7 Z"/>
      </g>
    </g>
    <g id="AUTOID_101" vm2d:name="" vm2d:type="grnode">
      <g transform="matrix(3.78095,0,0,3.78095,0.119049,794)" stroke-width="0.18" stroke-linecap="round" stroke-linejoin="round" stroke-miterlimit="10">
        <path stroke="#000" d="M144.04,-164.9 L159.04,-164.9 159.04,-124.9 144.04,-124.9 Z"/>
      </g>
      <g id="AUTOID_102" vm2d:name="" vm2d:type="grnode">
        <g transform="matrix(-0,-3.78095,3.78095,0,563.602,262.854)">
          <text font-family="Arial" font-size="3.21" x="0" y="0" fill="#000">БЛОК</text>
        </g>
        <g transform="matrix(-0,-3.78095,3.78095,0,577.446,307.223)">
          <text font-family="Arial" font-size="3.21" x="0" y="0" fill="#000">РАСПРЕДЕЛИТЕЛЕЙ</text>
        </g>
        <g transform="matrix(-0,-3.78095,3.78095,0,591.29,320.233)">
          <text font-family="Arial" font-size="3.21" x="0" y="0" fill="#000">ТЕЛЕСКОПОВ И ЗАМКОВ</text>
        </g>
      </g>
    </g>
    <g transform="matrix(3.78095,0,0,3.78095,0.119049,794)" stroke-width="0.18" stroke-linecap="round" stroke-linejoin="round" stroke-miterlimit="10">
      <path stroke="#000" d="M144.04,-174.9 L164.04,-174.9 164.04,-114.9 144.04,-114.9 Z"/>
    </g>
    <g transform="matrix(-0,-3.78095,3.78095,0,616.189,347.583)">
      <text font-family="Arial" font-size="3.21" x="0" y="0" fill="#000">РАСПРЕДЕЛИТЕЛЬНАЯ СИСТЕМА</text>
    </g>
    <g id="AUTOID_114" vm2d:name="" vm2d:type="grnode">
      <g transform="matrix(3.78095,0,0,3.78095,0.119049,794)" stroke-width="0.18" stroke-linecap="round" stroke-linejoin="round" stroke-miterlimit="10">
        <path stroke="#000" d="M144.04,-104.84 L159.04,-104.84 159.04,-64.838 144.04,-64.838 Z"/>
      </g>
      <g id="AUTOID_113" vm2d:name="" vm2d:type="grnode">
        <g transform="matrix(-0,-3.78095,3.78095,0,563.602,489.936)">
          <text font-family="Arial" font-size="3.21" x="0" y="0" fill="#000">БЛОК</text>
        </g>
        <g transform="matrix(-0,-3.78095,3.78095,0,577.446,534.305)">
          <text font-family="Arial" font-size="3.21" x="0" y="0" fill="#000">РАСПРЕДЕЛИТЕЛЕЙ</text>
        </g>
        <g transform="matrix(-0,-3.78095,3.78095,0,591.29,514.559)">
          <text font-family="Arial" font-size="3.21" x="0" y="0" fill="#000">ТЕЛЕСКОПОВ</text>
        </g>
      </g>
    </g>
    <g transform="matrix(3.78095,0,0,3.78095,0.119049,794)" stroke-width="0.18" stroke-linecap="round" stroke-linejoin="round" stroke-miterlimit="10">
      <path stroke="#000" d="M144.04,-109.84 L169.04,-109.84 169.04,-59.838 144.04,-59.838 Z"/>
    </g>
    <g id="AUTOID_121" vm2d:name="" vm2d:type="grnode">
      <g transform="matrix(3.78095,0,0,3.78095,0.119049,794)" stroke-width="0.18" stroke-linecap="round" stroke-linejoin="round" stroke-miterlimit="10">
        <path stroke="#000" d="M144.04,-49.897 L159.04,-49.897 159.04,-9.8974 144.04,-9.8974 Z"/>
      </g>
      <g id="AUTOID_120" vm2d:name="" vm2d:type="grnode">
        <g transform="matrix(-0,-3.78095,3.78095,0,562.469,697.664)">
          <text font-family="Arial" font-size="3.21" x="0" y="0" fill="#000">БЛОК</text>
        </g>
        <g transform="matrix(-0,-3.78095,3.78095,0,576.313,742.032)">
          <text font-family="Arial" font-size="3.21" x="0" y="0" fill="#000">РАСПРЕДЕЛИТЕЛЕЙ</text>
        </g>
        <g transform="matrix(-0,-3.78095,3.78095,0,590.158,727.514)">
          <text font-family="Arial" font-size="3.21" x="0" y="0" fill="#000">ЦЕНТРАЛЬНЫЙ</text>
        </g>
      </g>
    </g>
    <g transform="matrix(3.78095,0,0,3.78095,0.119049,794)" stroke-width="0.18" stroke-linecap="round" stroke-linejoin="round" stroke-miterlimit="10">
      <path stroke="#000" d="M144.04,-54.897 L169.04,-54.897 169.04,-4.8974 144.04,-4.8974 Z"/>
    </g>
    <g id="WRAP_019" vm2d:name="" vm2d:type="grnode">
      <g transform="matrix(3.78095,0,0,3.78095,0.119049,794)" stroke-width="0.45" stroke-linecap="butt" stroke-linejoin="round" stroke-miterlimit="10">
        <path stroke="#fff" d="M120.12,-114.9 L109.04,-114.9"/>
        <path stroke="#fff" stroke-width="0.3" stroke-linecap="round" stroke-linejoin="miter" stroke-miterlimit="1000" d="M120.04,-114.1 L124.04,-114.9 120.04,-115.7 Z"/>
        <path stroke="#00f" stroke-width="0.15" d="M120.12,-114.9 L109.04,-114.9"/>
        <path fill="#00f" d="M120.04,-114.1 L124.04,-114.9 120.04,-115.7 Z"/>
      </g>
    </g>
    <g id="WRAP_020" vm2d:name="" vm2d:type="grnode">
      <g transform="matrix(3.78095,0,0,3.78095,0.119049,794)" stroke-width="0.45" stroke-linecap="butt" stroke-linejoin="round" stroke-miterlimit="10">
        <path stroke="#fff" d="M140.12,-129.9 L109.04,-129.9"/>
        <path stroke="#fff" stroke-width="0.3" stroke-linecap="round" stroke-linejoin="miter" stroke-miterlimit="1000" d="M140.04,-129.1 L144.04,-129.9 140.04,-130.7 Z"/>
        <path stroke="#00f" stroke-width="0.15" d="M140.12,-129.9 L109.04,-129.9"/>
        <path fill="#00f" d="M140.04,-129.1 L144.04,-129.9 140.04,-130.7 Z"/>
      </g>
    </g>
    <g id="WRAP_021" vm2d:name="" vm2d:type="grnode">
      <g transform="matrix(3.78095,0,0,3.78095,0.119049,794)" stroke-width="0.45" stroke-linecap="butt" stroke-linejoin="round" stroke-miterlimit="10">
        <path stroke="#fff" d="M140.12,-44.897 L134.04,-44.897"/>
        <path stroke="#fff" stroke-width="0.3" stroke-linecap="round" stroke-linejoin="miter" stroke-miterlimit="1000" d="M140.04,-44.098 L144.04,-44.897 140.04,-45.697 Z"/>
        <path stroke="#00f" stroke-width="0.15" d="M140.12,-44.897 L134.04,-44.897"/>
        <path fill="#00f" d="M140.04,-44.098 L144.04,-44.897 140.04,-45.697 Z"/>
      </g>
    </g>
    <g id="WRAP_022" vm2d:name="" vm2d:type="grnode">
      <g transform="matrix(3.78095,0,0,3.78095,0.119049,794)" stroke-width="0.45" stroke-linecap="butt" stroke-linejoin="round" stroke-miterlimit="10">
        <path stroke="#fff" d="M140.12,-69.897 L134.04,-69.897"/>
        <path stroke="#fff" stroke-width="0.3" stroke-linecap="round" stroke-linejoin="miter" stroke-miterlimit="1000" d="M140.04,-69.098 L144.04,-69.897 140.04,-70.697 Z"/>
        <path stroke="#00f" stroke-width="0.15" d="M140.12,-69.897 L134.04,-69.897"/>
        <path fill="#00f" d="M140.04,-69.098 L144.04,-69.897 140.04,-70.697 Z"/>
      </g>
    </g>
    <g id="AUTOID_111" vm2d:name="" vm2d:type="grnode">
      <g transform="matrix(-0,-3.78095,3.78095,0,619.268,542.693)">
        <text font-family="Arial" font-size="3.21" x="0" y="0" fill="#000">РАСПРЕДЕЛИТЕЛЬНАЯ</text>
      </g>
      <g transform="matrix(-0,-3.78095,3.78095,0,633.232,503.343)">
        <text font-family="Arial" font-size="3.21" x="0" y="0" fill="#000">СИСТЕМА</text>
      </g>
    </g>
    <g id="AUTOID_119" vm2d:name="" vm2d:type="grnode">
      <g transform="matrix(-0,-3.78095,3.78095,0,619.268,750.42)">
        <text font-family="Arial" font-size="3.21" x="0" y="0" fill="#000">РАСПРЕДЕЛИТЕЛЬНАЯ</text>
      </g>
      <g transform="matrix(-0,-3.78095,3.78095,0,633.232,711.071)">
        <text font-family="Arial" font-size="3.21" x="0" y="0" fill="#000">СИСТЕМА</text>
      </g>
    </g>
    <g id="WRAP_023" vm2d:name="" vm2d:type="grnode">
      <g transform="matrix(3.78095,0,0,3.78095,0.119049,794)" stroke-width="0.45" stroke-linecap="butt" stroke-linejoin="round" stroke-miterlimit="10">
        <path stroke="#fff" d="M125.45,-28.822 L125.45,-39.897"/>
        <path stroke="#fff" stroke-width="0.3" stroke-linecap="round" stroke-linejoin="miter" stroke-miterlimit="1000" d="M124.65,-28.897 L125.45,-24.897 126.25,-28.897 Z"/>
        <path stroke="#009300" stroke-width="0.15" stroke-dasharray="0.9,0.3,0.15,0.3" d="M125.45,-28.822 L125.45,-39.897"/>
        <path fill="#009300" d="M124.65,-28.897 L125.45,-24.897 126.25,-28.897 Z"/>
      </g>
    </g>
    <g id="WRAP_024" vm2d:name="" vm2d:type="grnode">
      <g transform="matrix(3.78095,0,0,3.78095,0.119049,794)" stroke-width="0.6" stroke-linecap="butt" stroke-linejoin="round" stroke-miterlimit="10">
        <path stroke="#fff" d="M132.7,-25.347 L132.7,-36.047"/>
        <path stroke="#fff" stroke-width="0.3" stroke-linecap="round" stroke-linejoin="miter" stroke-miterlimit="1000" d="M133.5,-35.897 L132.7,-39.897 131.91,-35.897 Z"/>
        <path stroke="#000" stroke-width="0.3" stroke-dasharray="3,1" d="M132.7,-24.897 L132.7,-36.047"/>
        <path fill="#000" d="M133.5,-35.897 L132.7,-39.897 131.91,-35.897 Z"/>
      </g>
    </g>
    <g transform="matrix(3.78095,0,0,3.78095,0.119049,794)" stroke-width="0.18" stroke-linecap="round" stroke-linejoin="round" stroke-miterlimit="10">
      <path stroke="#000" d="M124.04,-24.897 L134.04,-24.897 134.04,-4.8974 124.04,-4.8974 Z"/>
    </g>
    <g id="AUTOID_116" vm2d:name="" vm2d:type="grnode">
      <g transform="matrix(-0,-3.78095,3.78095,0,484.875,764.909)">
        <text font-family="Arial" font-size="3.21" x="0" y="0" fill="#000">ДАТЧИКИ</text>
      </g>
      <g transform="matrix(-0,-3.78095,3.78095,0,498.84,770.51)">
        <text font-family="Arial" font-size="3.21" x="0" y="0" fill="#000">ДАВЛЕНИЯ</text>
      </g>
    </g>
    <g transform="matrix(3.78095,0,0,3.78095,0.119049,794)" stroke-width="0.18" stroke-linecap="round" stroke-linejoin="round" stroke-miterlimit="10">
      <path stroke="#000" d="M124.04,-119.9 L139.04,-119.9 139.04,-89.897 124.04,-89.897 Z"/>
    </g>
    <g id="AUTOID_138" vm2d:name="" vm2d:type="grnode">
      <g transform="matrix(-0,-3.78095,3.78095,0,487.862,448.864)">
        <text font-family="Arial" font-size="3.21" x="0" y="0" fill="#000" xml:space="preserve">СВЕТОДИОДНЫЕ </text>
      </g>
      <g transform="matrix(-0,-3.78095,3.78095,0,501.827,441.007)">
        <text font-family="Arial" font-size="3.21" x="0" y="0" fill="#000">ПРОЖЕКТОРЫ</text>
      </g>
      <g transform="matrix(-0,-3.78095,3.78095,0,515.791,422.314)">
        <text font-family="Arial" font-size="3.21" x="0" y="0" fill="#000">ЗАМКОВ</text>
      </g>
    </g>
    <g transform="matrix(3.78095,0,0,3.78095,0.119049,794)" stroke-width="0.18" stroke-linecap="round" stroke-linejoin="round" stroke-miterlimit="10">
      <path stroke="#000" d="M124.04,-79.838 L134.04,-79.838 134.04,-39.838 124.04,-39.838 Z"/>
    </g>
    <g transform="matrix(-0,-3.78095,3.78095,0,485.762,585.4)">
      <text font-family="Arial" font-size="3.21" x="0" y="0" fill="#000">ШКАФ</text>
    </g>
    <g transform="matrix(-0,-3.78095,3.78095,0,499.606,621.374)">
      <text font-family="Arial" font-size="3.21" x="0" y="0" fill="#000">УПРАВЛЕНИЯ № 3</text>
    </g>
    <g transform="matrix(3.78095,0,0,3.78095,0.119049,794)" stroke-width="0.18" stroke-linecap="round" stroke-linejoin="round" stroke-miterlimit="10">
      <path stroke="#000" d="M124.04,-172.4 L134.04,-172.4 134.04,-142.4 124.04,-142.4 Z"/>
    </g>
    <g id="AUTOID_190" vm2d:name="" vm2d:type="grnode">
      <g transform="matrix(-0,-3.78095,3.78095,0,484.48,232.16)">
        <text font-family="Arial" font-size="3.21" x="0" y="0" fill="#000">ЛАЗЕРНЫЕ</text>
      </g>
      <g transform="matrix(-0,-3.78095,3.78095,0,498.324,242.291)">
        <text font-family="Arial" font-size="3.21" x="0" y="0" fill="#000">ДАЛЬНОМЕРЫ</text>
      </g>
    </g>
    <g transform="matrix(3.78095,0,0,3.78095,0.119049,794)" stroke-width="0.18" stroke-linecap="round" stroke-linejoin="round" stroke-miterlimit="10">
      <path stroke="#000" d="M79.043,-189.9 L89.043,-189.9 89.043,-159.9 79.043,-159.9 Z"/>
    </g>
    <g id="AUTOID_191" vm2d:name="" vm2d:type="grnode">
      <g transform="matrix(-0,-3.78095,3.78095,0,314.908,179.13)">
        <text font-family="Arial" font-size="3.21" x="0" y="0" fill="#000">ИНДУКТИВНЫЕ</text>
      </g>
      <g transform="matrix(-0,-3.78095,3.78095,0,328.752,159.957)">
        <text font-family="Arial" font-size="3.21" x="0" y="0" fill="#000">ДАТЧИКИ</text>
      </g>
    </g>
    <g transform="matrix(3.78095,0,0,3.78095,0.119049,794)" stroke-width="0.18" stroke-linecap="round" stroke-linejoin="round" stroke-miterlimit="10">
      <path stroke="#000" d="M124.04,-207.4 L139.04,-207.4 139.04,-177.4 124.04,-177.4 Z"/>
    </g>
    <g id="AUTOID_192" vm2d:name="" vm2d:type="grnode">
      <g transform="matrix(-0,-3.78095,3.78095,0,486.73,92.3643)">
        <text font-family="Arial" font-size="3.21" x="0" y="0" fill="#000">МОДУЛИ</text>
      </g>
      <g transform="matrix(-0,-3.78095,3.78095,0,500.694,97.3748)">
        <text font-family="Arial" font-size="3.21" x="0" y="0" fill="#000">ВНЕШНЕЙ</text>
      </g>
      <g transform="matrix(-0,-3.78095,3.78095,0,514.659,104.591)">
        <text font-family="Arial" font-size="3.21" x="0" y="0" fill="#000">ИНДИКАЦИИ</text>
      </g>
    </g>
    <g transform="matrix(3.78095,0,0,3.78095,0.119049,794)" stroke-width="0.18" stroke-linecap="round" stroke-linejoin="round" stroke-miterlimit="10">
      <path fill="#fff" stroke="#000" d="M99.044,-157.22 L101.54,-159.9 104.04,-157.22 102.79,-157.22 102.79,-152.58 104.04,-152.58 101.54,-149.9 99.044,-152.58 100.29,-152.58 100.29,-157.22 Z"/>
      <path stroke="#000" d="M99.043,-189.9 L109.04,-189.9 109.04,-159.9 99.043,-159.9 Z"/>
    </g>
    <g transform="matrix(-0,-3.78095,3.78095,0,390.869,155.206)">
      <text font-family="Arial" font-size="3.21" x="0" y="0" fill="#000" xml:space="preserve">IO-LINK  </text>
    </g>
    <g transform="matrix(-0,-3.78095,3.78095,0,404.834,179.527)">
      <text font-family="Arial" font-size="3.21" x="0" y="0" fill="#000">КОММУТАТОРЫ</text>
    </g>
    <g id="WRAP_025" vm2d:name="" vm2d:type="grnode">
      <g transform="matrix(3.78095,0,0,3.78095,0.119049,794)" stroke-width="0.45" stroke-linecap="butt" stroke-linejoin="round" stroke-miterlimit="10">
        <path stroke="#fff" d="M92.964,-179.4 L99.043,-179.4"/>
        <path stroke="#fff" stroke-width="0.3" stroke-linecap="round" stroke-linejoin="miter" stroke-miterlimit="1000" d="M93.039,-180.2 L89.039,-179.4 93.039,-178.6 Z"/>
        <path stroke="#009300" stroke-width="0.15" stroke-dasharray="0.9,0.3,0.15,0.3" d="M92.964,-179.4 L99.043,-179.4"/>
        <path fill="#009300" d="M93.039,-180.2 L89.039,-179.4 93.039,-178.6 Z"/>
      </g>
    </g>
    <g id="WRAP_026" vm2d:name="" vm2d:type="grnode">
      <g transform="matrix(3.78095,0,0,3.78095,0.119049,794)" stroke-width="0.45" stroke-linecap="butt" stroke-linejoin="round" stroke-miterlimit="10">
        <path stroke="#fff" d="M106.54,-155.97 L106.54,-149.9"/>
        <path stroke="#fff" stroke-width="0.3" stroke-linecap="round" stroke-linejoin="miter" stroke-miterlimit="1000" d="M107.34,-155.9 L106.54,-159.9 105.74,-155.9 Z"/>
        <path stroke="#009300" stroke-width="0.15" stroke-dasharray="0.9,0.3,0.15,0.3" d="M106.54,-155.97 L106.54,-149.9"/>
        <path fill="#009300" d="M107.34,-155.9 L106.54,-159.9 105.74,-155.9 Z"/>
      </g>
    </g>
    <g id="WRAP_027" vm2d:name="" vm2d:type="grnode">
      <g transform="matrix(3.78095,0,0,3.78095,0.119049,794)" stroke-width="0.9" stroke-linecap="butt" stroke-linejoin="round" stroke-miterlimit="10">
        <path stroke="#fff" d="M89.489,-171.9 L95.343,-171.9"/>
        <path stroke="#fff" stroke-width="0.3" stroke-linecap="round" stroke-linejoin="miter" stroke-miterlimit="1000" d="M95.043,-171.1 L99.043,-171.9 95.043,-172.7 Z"/>
        <path stroke="#000" stroke-width="0.6" stroke-dasharray="3,1" d="M89.039,-171.9 L95.343,-171.9"/>
        <path fill="#000" d="M95.043,-171.1 L99.043,-171.9 95.043,-172.7 Z"/>
      </g>
    </g>
    <g id="WRAP_028" vm2d:name="" vm2d:type="grnode">
      <g transform="matrix(3.78095,0,0,3.78095,0.119049,794)" stroke-width="0.6" stroke-linecap="butt" stroke-linejoin="round" stroke-miterlimit="10">
        <path stroke="#fff" d="M112.89,-184.9 L120.19,-184.9"/>
        <path stroke="#fff" stroke-width="0.3" stroke-linecap="round" stroke-linejoin="miter" stroke-miterlimit="1000" d="M113.04,-185.7 L109.04,-184.9 113.04,-184.1 Z"/>
        <path stroke="#fff" stroke-width="0.3" stroke-linecap="round" stroke-linejoin="miter" stroke-miterlimit="1000" d="M120.04,-184.1 L124.04,-184.9 120.04,-185.7 Z"/>
        <path stroke="#800080" stroke-width="0.3" stroke-dasharray="3,1" d="M112.89,-184.9 L120.19,-184.9"/>
        <path fill="#800080" d="M113.04,-185.7 L109.04,-184.9 113.04,-184.1 Z"/>
        <path fill="#800080" d="M120.04,-184.1 L124.04,-184.9 120.04,-185.7 Z"/>
      </g>
    </g>
    <g id="WRAP_029" vm2d:name="" vm2d:type="grnode">
      <g transform="matrix(3.78095,0,0,3.78095,0.119049,794)" stroke-width="0.6" stroke-linecap="butt" stroke-linejoin="round" stroke-miterlimit="10">
        <path stroke="#fff" d="M112.89,-164.9 L120.19,-164.9"/>
        <path stroke="#fff" stroke-width="0.3" stroke-linecap="round" stroke-linejoin="miter" stroke-miterlimit="1000" d="M113.04,-165.7 L109.04,-164.9 113.04,-164.1 Z"/>
        <path stroke="#fff" stroke-width="0.3" stroke-linecap="round" stroke-linejoin="miter" stroke-miterlimit="1000" d="M120.04,-164.1 L124.04,-164.9 120.04,-165.7 Z"/>
        <path stroke="#800080" stroke-width="0.3" stroke-dasharray="3,1" d="M112.89,-164.9 L120.19,-164.9"/>
        <path fill="#800080" d="M113.04,-165.7 L109.04,-164.9 113.04,-164.1 Z"/>
        <path fill="#800080" d="M120.04,-164.1 L124.04,-164.9 120.04,-165.7 Z"/>
      </g>
    </g>
    <g transform="matrix(-0,-3.78095,3.78095,0,251.385,149.196)">
      <text font-family="Arial" font-size="2.86" x="0" y="0" fill="#000">АВАРИЙНЫЙ СИГНАЛ</text>
    </g>
    <g id="WRAP_030" vm2d:name="" vm2d:type="grnode">
      <g transform="matrix(3.78095,0,0,3.78095,0.119049,794)" stroke-width="0.6" stroke-linecap="butt" stroke-linejoin="round" stroke-miterlimit="10">
        <path stroke="#fff" d="M68.534,-191.89 L68.534,-176.19"/>
        <path stroke="#fff" stroke-width="0.3" stroke-linecap="round" stroke-linejoin="miter" stroke-miterlimit="1000" d="M69.333,-191.74 L68.534,-195.74 67.735,-191.74 Z"/>
        <path stroke="#f00" stroke-width="0.3" d="M68.534,-191.89 L68.534,-175.74"/>
        <path fill="#f00" d="M69.333,-191.74 L68.534,-195.74 67.735,-191.74 Z"/>
      </g>
    </g>
    <g id="WRAP_031" vm2d:name="" vm2d:type="grnode">
      <g transform="matrix(3.78095,0,0,3.78095,0.119049,794)" stroke-width="0.6" stroke-linecap="butt" stroke-linejoin="round" stroke-miterlimit="10">
        <path stroke="#fff" d="M95.193,-117.4 L64.64,-117.4"/>
        <path stroke="#fff" stroke-width="0.3" stroke-linecap="round" stroke-linejoin="miter" stroke-miterlimit="1000" d="M95.043,-116.6 L99.043,-117.4 95.043,-118.2 Z"/>
        <path stroke="#f00" stroke-width="0.3" d="M95.193,-117.4 L64.19,-117.4"/>
        <path fill="#f00" d="M95.043,-116.6 L99.043,-117.4 95.043,-118.2 Z"/>
      </g>
    </g>
    <g id="WRAP_032" vm2d:name="" vm2d:type="grnode">
      <g transform="matrix(3.78095,0,0,3.78095,0.119049,794)" stroke-width="0.6" stroke-linecap="butt" stroke-linejoin="round" stroke-miterlimit="10">
        <path stroke="#fff" d="M84.034,-81.047 L84.025,-77.664 123.59,-77.4"/>
        <path stroke="#fff" stroke-width="0.3" stroke-linecap="round" stroke-linejoin="miter" stroke-miterlimit="1000" d="M84.833,-80.895 L84.043,-84.897 83.234,-80.899 Z"/>
        <path stroke="#f00" stroke-width="0.3" d="M84.034,-81.047 L84.025,-77.664 124.04,-77.397"/>
        <path fill="#f00" d="M84.833,-80.895 L84.043,-84.897 83.234,-80.899 Z"/>
      </g>
    </g>
    <g id="WRAP_033" vm2d:name="" vm2d:type="grnode">
      <g transform="matrix(3.78095,0,0,3.78095,0.119049,794)" stroke-width="0.6" stroke-linecap="butt" stroke-linejoin="round" stroke-miterlimit="10">
        <path stroke="#fff" d="M68.04,-94.897 L78.593,-94.897"/>
        <path stroke="#fff" stroke-width="0.3" stroke-linecap="round" stroke-linejoin="miter" stroke-miterlimit="1000" d="M68.19,-95.697 L64.19,-94.897 68.19,-94.098 Z"/>
        <path stroke="#f00" stroke-width="0.3" d="M68.04,-94.897 L79.043,-94.897"/>
        <path fill="#f00" d="M68.19,-95.697 L64.19,-94.897 68.19,-94.098 Z"/>
      </g>
    </g>
    <g id="WRAP_034" vm2d:name="" vm2d:type="grnode">
      <g transform="matrix(3.78095,0,0,3.78095,0.119049,794)" stroke-width="0.6" stroke-linecap="butt" stroke-linejoin="round" stroke-miterlimit="10">
        <path stroke="#fff" d="M128.56,-83.688 L128.54,-84.897 103.54,-84.897 103.54,-109.45"/>
        <path stroke="#fff" stroke-width="0.3" stroke-linecap="round" stroke-linejoin="miter" stroke-miterlimit="1000" d="M127.76,-83.825 L128.62,-79.838 129.36,-83.85 Z"/>
        <path stroke="#f00" stroke-width="0.3" d="M128.56,-83.688 L128.54,-84.897 103.54,-84.897 103.54,-109.9"/>
        <path fill="#f00" d="M127.76,-83.825 L128.62,-79.838 129.36,-83.85 Z"/>
      </g>
    </g>
    <g transform="matrix(3.78095,0,0,3.78095,0.119049,794)" stroke-width="0.15" stroke-linecap="round" stroke-linejoin="round" stroke-miterlimit="10">
      <path stroke="#000" stroke-dasharray="6.35,0.635,1.27,0.635,1.27,0.635" d="M32.043,-39.883 L42.043,-39.883 42.043,-9.8825 32.043,-9.8825 Z"/>
    </g>
    <g id="AUTOID_339" vm2d:name="" vm2d:type="grnode">
      <g transform="matrix(-0,-3.78095,3.78095,0,136.369,733.984)">
        <text font-family="Arial" font-size="3.21" x="0" y="0" fill="#000">ДВИГАТЕЛЬ</text>
      </g>
      <g transform="matrix(-0,-3.78095,3.78095,0,150.213,749.245)">
        <text font-family="Arial" font-size="3.21" x="0" y="0" fill="#000" xml:space="preserve">ГИДРОСТАНЦИИ </text>
      </g>
    </g>
    <g id="WRAP_035" vm2d:name="" vm2d:type="grnode">
      <g transform="matrix(3.78095,0,0,3.78095,0.119049,794)" stroke-width="0.6" stroke-linecap="butt" stroke-linejoin="round" stroke-miterlimit="10">
        <path stroke="#fff" d="M75,-182.01 L75,-189.31"/>
        <path stroke="#fff" stroke-width="0.3" stroke-linecap="round" stroke-linejoin="miter" stroke-miterlimit="1000" d="M74.201,-182.16 L75,-178.16 75.799,-182.16 Z"/>
        <path stroke="#fff" stroke-width="0.3" stroke-linecap="round" stroke-linejoin="miter" stroke-miterlimit="1000" d="M75.799,-189.16 L75,-193.16 74.201,-189.16 Z"/>
        <path stroke="#800080" stroke-width="0.3" stroke-dasharray="3,1" d="M75,-182.01 L75,-189.31"/>
        <path fill="#800080" d="M74.201,-182.16 L75,-178.16 75.799,-182.16 Z"/>
        <path fill="#800080" d="M75.799,-189.16 L75,-193.16 74.201,-189.16 Z"/>
      </g>
    </g>
    <g transform="matrix(-0,-3.78095,3.78095,0,275.816,114.221)">
      <text font-family="Arial" font-size="3.21" x="0" y="0" fill="#000" xml:space="preserve">IO-LINK  </text>
    </g>
  </g>
  <g id="C3DG0001" vm2d:name="Drawing" vm2d:type="layer"/>
  <g id="C3DA0001" vm2d:name="Axials" vm2d:type="layer"/>
  <g id="C3DC0001" vm2d:name="Callouts" vm2d:type="layer"/>
  <g id="C3DP0001" vm2d:name="Panels" vm2d:type="layer"/>
  <g id="AUTOID_001" vm2d:name="" vm2d:type="layer"/>
</svg>
