<svg xmlns="http://www.w3.org/2000/svg" width="170mm" height="102mm" fill="none" fill-rule="evenodd" stroke-miterlimit="5" viewBox="0 0 964 579"><desc>&quot;Generator:ParallelGraphics Cortona2D&quot;,&quot;ProfileId:WebCGM&quot;&quot;ProfileEd:2.1&quot;&quot;ColourClass:colour&quot;&quot;Source:Cortona2D Editor Pro 14.2.0.142&quot;&quot;Date:20241122&quot;&quot;Company:PIK&quot;</desc><path fill="#fff" d="M0 0h964v579H0z"/><g stroke-linecap="round" stroke-linejoin="round" stroke-miterlimit="10" stroke-width=".18"><text x="89.797" y="-79.467" fill="#000" font-family="Arial" font-size="3.49" transform="translate(0 578.7)scale(5.67059)">IСN-MTPM-A-A11000-A-UNITS-000XC-A-001-01</text><path stroke="#000" stroke-width="1.0207062" d="M511.555 132.283h28.603m11.607 0h54.705m8.279 0h13.099m80.012 0h13.156m139.723 0h13.156m-238.789 0h64.588m29.714 0h56.366m96.116 0h27.956m11.795 0h16.104m-142.842 0h57.84m-326.887 0v28.211H27.443"/><text x="4.907" y="-75.133" fill="#000" font-family="Arial" font-size="3.03" transform="translate(0 578.7)scale(5.67059)">Префикс</text><text x="4.999" y="-69.134" fill="#000" font-family="Arial" font-size="3.03" transform="translate(0 578.7)scale(5.67059)">Код основного изделия</text><text x="4.999" y="-45.286" fill="#000" font-family="Arial" font-size="3.03" transform="translate(0 578.7)scale(5.67059)">Код разработчика</text><text x="4.999" y="-63.172" fill="#000" font-family="Arial" font-size="3.03" transform="translate(0 578.7)scale(5.67059)">Отличительный код СЧ изделия (системы)</text><text x="4.999" y="-39.324" fill="#000" font-family="Arial" font-size="3.03" transform="translate(0 578.7)scale(5.67059)">Уникальный идентификатор (порядковый номер)</text><text x="4.999" y="-57.21" fill="#000" font-family="Arial" font-size="3.03" transform="translate(0 578.7)scale(5.67059)">Код изделия (системы) по СНК</text><text x="4.999" y="-21.439" fill="#000" font-family="Arial" font-size="3.03" transform="translate(0 578.7)scale(5.67059)">Гриф секретности</text><text x="4.999" y="-33.362" fill="#000" font-family="Arial" font-size="3.03" transform="translate(0 578.7)scale(5.67059)">Код варианта</text><text x="4.999" y="-51.248" fill="#000" font-family="Arial" font-size="3.03" transform="translate(0 578.7)scale(5.67059)">Код ответсвенной компании-контрагента</text><text x="4.999" y="-27.401" fill="#000" font-family="Arial" font-size="3.03" transform="translate(0 578.7)scale(5.67059)">Номер издания</text><path stroke="#000" stroke-width="1.0207062" d="M579.137 132.283v62.019H27.443m730.148-62.02V329.53H27.443M621.27 132.283v95.827H27.443m796.38-95.827v231.054H27.443m639.929-231.054v129.63H27.443m686.995-129.63V295.72H27.443m902.25-163.438V464.76H27.443m839.874-332.478v264.862H27.443M895.84 132.283v298.67H27.443"/></g></svg>