<?xml version="1.0" encoding="UTF-8" standalone="no"?>
<!DOCTYPE svg SYSTEM "http://www.w3.org/Graphics/SVG/1.1/DTD/svg11.dtd" [
<!ENTITY % SVG.External.attrib
"xmlns:vm2d CDATA #FIXED 'http://www.cortona3d.com/vm2d'
vm2d:name CDATA #IMPLIED
vm2d:type CDATA #IMPLIED">
]>
<svg xmlns="http://www.w3.org/2000/svg" xmlns:vm2d="http://www.cortona3d.com/vm2d" xmlns:xlink="http://www.w3.org/1999/xlink" version="1.1" width="170mm" height="222mm" viewBox="0 0 643 840" fill="none" fill-rule="evenodd" stroke-miterlimit="5">
  <title>Untitled</title>
  <desc>"Generator:ParallelGraphics Cortona2D","ProfileId:WebCGM""ProfileEd:2.1""ColourClass:colour""Source:Cortona2D Editor Pro 14.2.0.142""Date:20250507""Grid:isometric"</desc>
  <rect width="643" height="840" fill="#fff"/>
  <defs/>
  <g id="C3DB0001" vm2d:name="Background" vm2d:type="layer"/>
  <g id="C3DG0001" vm2d:name="Drawing" vm2d:type="layer">
    <g transform="matrix(3.78235,0,0,3.78235,-0,839.841)" stroke-width="0.18" stroke-linecap="round" stroke-linejoin="round" stroke-miterlimit="10">
      <path stroke="#000" d="M76.108,-43.26 C75.911,-43.169 75.854,-42.779 75.982,-42.387 76.034,-42.228 76.111,-42.091 76.206,-41.988 76.253,-41.938 76.306,-41.894 76.365,-41.859 76.408,-41.835 76.506,-41.808 76.506,-41.808 M76.997,-50.73 C76.793,-48.017 76.59,-45.321 76.385,-42.609 76.471,-42.477 76.535,-42.315 76.555,-42.181 76.562,-42.138 76.566,-42.034 76.558,-41.972 76.53,-41.774 76.411,-41.627 76.244,-41.584 75.994,-41.519 75.673,-41.772 75.512,-42.159 75.351,-42.546 75.407,-42.932 75.64,-43.039 75.796,-43.113 75.951,-43.186 76.108,-43.26 76.3,-45.805 76.49,-48.335 76.682,-50.88 M82.224,-54.188 L82.469,-54.069 M73.575,-29.358 L75.292,-52.151 M82.161,-27.799 L83.945,-51.49 M76.558,-41.972 L76.555,-42.181 M76.077,-43.234 L76.009,-42.326 M76.231,-44.203 C76.231,-44.203 76.198,-44.153 76.187,-44.125 76.179,-44.106 76.168,-44.066 76.168,-44.066 M76.179,-44.203 C76.179,-44.203 76.233,-44.207 76.259,-44.203 76.304,-44.197 76.349,-44.184 76.391,-44.168 76.429,-44.154 76.499,-44.116 76.499,-44.116 M81.604,-51.868 C81.657,-52.57 81.71,-53.268 81.763,-53.97 81.863,-54.017 81.963,-54.065 82.064,-54.112 82.164,-54.159 82.264,-54.207 82.364,-54.254 82.376,-54.403 82.387,-54.553 82.398,-54.702 82.4,-54.73 82.4,-54.759 82.397,-54.787 82.388,-54.877 82.348,-54.962 82.259,-54.996 82.184,-55.025 82.11,-55.059 82.035,-55.088 81.674,-55.228 81.301,-55.334 80.923,-55.412 80.133,-55.575 79.295,-55.619 78.508,-55.539 77.614,-55.447 76.79,-55.187 76.222,-54.817 75.864,-54.583 75.582,-54.3 75.413,-54.003 75.21,-53.646 75.187,-53.276 75.157,-52.872 75.067,-52.019 75.868,-51.158 77.251,-50.622 78.635,-50.086 80.385,-49.959 81.825,-50.289 83.266,-50.619 84.172,-51.356 84.195,-52.214 84.232,-52.71 84.239,-53.089 84.021,-53.541 83.882,-53.828 83.583,-54.17 83.243,-54.43 83.179,-54.48 83.087,-54.482 82.988,-54.435 82.818,-54.355 82.648,-54.275 82.478,-54.194 82.428,-53.524 82.378,-52.858 82.327,-52.187 M82.259,-54.996 C82.201,-55.016 82.13,-55.008 82.056,-54.973 81.887,-54.893 81.716,-54.812 81.547,-54.732 80.557,-55.128 79.292,-55.233 78.238,-55.007 77.184,-54.78 76.503,-54.257 76.456,-53.638 76.385,-52.696 77.78,-51.82 79.582,-51.676 81.383,-51.532 82.919,-52.173 83.022,-53.112 83.062,-53.483 82.872,-53.862 82.478,-54.194 M86.275,-97.228 C86.275,-97.228 86.31,-97.245 86.327,-97.253 86.335,-97.257 86.343,-97.26 86.352,-97.263 86.36,-97.266 86.368,-97.269 86.377,-97.272 86.409,-97.283 86.441,-97.289 86.475,-97.292 86.545,-97.298 86.616,-97.287 86.682,-97.265 86.802,-97.225 86.926,-97.139 87.029,-97.024 87.219,-96.812 87.338,-96.513 87.339,-96.246 87.341,-95.991 87.236,-95.788 87.059,-95.705 86.749,-95.558 86.127,-95.264 86.127,-95.264 M97.618,-153.5 C97.618,-153.5 97.673,-153.41 97.696,-153.37 97.719,-153.33 97.738,-153.28 97.755,-153.24 97.771,-153.2 97.778,-153.15 97.793,-153.11 97.801,-153.09 97.86,-153.01 97.861,-153.01 97.908,-152.96 97.965,-152.94 98.028,-152.94 98.151,-152.93 98.274,-152.93 98.397,-152.93 98.424,-152.92 98.451,-152.93 98.478,-152.94 98.483,-152.94 98.488,-152.94 98.493,-152.94 98.521,-152.95 98.552,-152.96 98.577,-152.98 98.64,-153.03 98.665,-153.11 98.671,-153.19 98.686,-153.37 98.712,-153.73 98.712,-153.73 M82.912,-158.64 C82.912,-158.64 82.839,-158.7 82.799,-158.72 82.643,-158.82 82.483,-158.91 82.32,-159 82.234,-159.05 82.143,-159.08 82.052,-159.12 81.958,-159.16 81.767,-159.23 81.767,-159.23 81.767,-159.23 81.587,-159.28 81.496,-159.31 81.39,-159.34 81.283,-159.37 81.175,-159.39 80.958,-159.44 80.734,-159.47 80.508,-159.5 80.177,-159.54 79.846,-159.55 79.518,-159.61 78.638,-159.75 77.832,-160.06 77.29,-160.47 77.102,-160.61 76.946,-160.77 76.8,-160.95 76.72,-161.05 76.64,-161.19 76.581,-161.32 76.523,-161.45 76.492,-161.56 76.496,-161.63 76.54,-162.29 76.594,-162.95 76.645,-163.6 76.651,-163.68 76.676,-163.76 76.74,-163.81 76.765,-163.82 76.795,-163.84 76.824,-163.85 76.828,-163.85 76.834,-163.85 76.839,-163.85 76.865,-163.86 76.892,-163.86 76.919,-163.86 77.042,-163.86 77.165,-163.86 77.288,-163.85 77.404,-163.84 77.487,-163.78 77.523,-163.68 77.534,-163.65 77.539,-163.62 77.548,-163.59 77.559,-163.55 77.57,-163.52 77.584,-163.49 77.597,-163.46 77.612,-163.43 77.629,-163.4 77.646,-163.37 77.684,-163.31 77.684,-163.31 M83.363,-158.95 C83.363,-158.95 83.248,-158.85 83.186,-158.81 83.121,-158.76 83.052,-158.71 82.982,-158.67 82.907,-158.63 82.83,-158.59 82.751,-158.55 81.991,-158.19 81.224,-157.83 80.464,-157.47 80.39,-157.44 80.329,-157.34 80.321,-157.25 80.288,-156.89 80.261,-156.54 80.24,-156.18 80.238,-156.14 80.249,-156.09 80.272,-156.04 80.295,-156 80.326,-155.96 80.359,-155.94 81.14,-155.49 81.924,-155.04 82.707,-154.59 82.788,-154.54 82.89,-154.54 82.969,-154.57 83.069,-154.61 83.163,-154.66 83.263,-154.7 83.358,-154.73 83.455,-154.76 83.552,-154.79 83.646,-154.82 83.836,-154.85 83.836,-154.85 M93.692,-154 C93.692,-154 93.802,-153.97 93.857,-153.95 93.913,-153.94 93.97,-153.92 94.026,-153.91 94.084,-153.9 94.141,-153.88 94.199,-153.87 94.315,-153.85 94.434,-153.83 94.554,-153.81 94.675,-153.79 94.817,-153.8 94.906,-153.7 94.998,-153.59 94.969,-153.44 94.96,-153.31 94.912,-152.66 94.867,-152 94.811,-151.34 94.808,-151.31 94.792,-151.28 94.782,-151.24 94.782,-151.24 94.782,-151.24 94.782,-151.24 94.732,-151.15 94.632,-151.09 94.522,-151.1 94.414,-151.11 94.306,-151.13 94.199,-151.15 93.986,-151.18 93.775,-151.22 93.572,-151.27 93.144,-151.39 92.746,-151.54 92.412,-151.71 92.043,-151.91 91.721,-152.15 91.459,-152.48 91.358,-152.6 91.266,-152.76 91.213,-152.89 91.168,-153.01 91.16,-153.05 91.145,-153.16 91.137,-153.22 91.129,-153.28 91.121,-153.34 91.115,-153.38 91.105,-153.47 91.105,-153.47 M92.339,-154.85 C92.339,-154.85 92.315,-154.88 92.304,-154.9 92.286,-154.93 92.269,-154.96 92.253,-154.99 92.238,-155.02 92.224,-155.05 92.212,-155.08 92.2,-155.11 92.19,-155.14 92.181,-155.17 92.173,-155.2 92.16,-155.26 92.16,-155.26 M96.149,-154.37 C96.149,-154.37 96.039,-154.4 95.984,-154.41 95.927,-154.43 95.87,-154.44 95.812,-154.45 95.754,-154.47 95.696,-154.48 95.637,-154.49 95.46,-154.52 95.28,-154.55 95.098,-154.56 94.916,-154.58 94.734,-154.59 94.553,-154.59 94.432,-154.59 94.312,-154.58 94.194,-154.57 94.136,-154.57 94.077,-154.56 94.018,-154.56 93.962,-154.55 93.85,-154.54 93.85,-154.54 M92.163,-155.33 L92.167,-155.23 M86.129,-158.08 C86.129,-158.08 86.332,-158.01 86.435,-157.99 86.54,-157.96 86.647,-157.93 86.754,-157.91 86.863,-157.89 86.972,-157.86 87.082,-157.85 87.304,-157.81 87.529,-157.79 87.755,-157.78 87.981,-157.76 88.206,-157.76 88.428,-157.78 88.537,-157.78 88.647,-157.79 88.756,-157.8 88.863,-157.81 89.075,-157.84 89.075,-157.84 M91.113,-153.41 C91.113,-153.41 91.112,-153.42 91.11,-153.42 91.097,-153.48 91.078,-153.54 91.055,-153.6 91.031,-153.66 91.002,-153.71 90.969,-153.77 90.935,-153.83 90.854,-153.93 90.854,-153.93 M85.457,-157.51 C85.457,-157.51 85.437,-157.49 85.426,-157.48 85.413,-157.47 85.398,-157.46 85.383,-157.46 84.643,-157.11 83.899,-156.75 83.157,-156.41 83.14,-156.4 83.123,-156.39 83.105,-156.39 83.091,-156.38 83.06,-156.38 83.06,-156.38 M85.415,-157.48 L85.411,-157.47 M84.66,-159.01 C84.66,-159.01 84.601,-159.09 84.577,-159.13 84.546,-159.19 84.519,-159.24 84.497,-159.3 84.476,-159.36 84.449,-159.47 84.449,-159.47 M84.446,-159.56 L84.457,-159.44 M83.083,-156.38 C83.083,-156.38 83.03,-156.37 83.004,-156.37 82.976,-156.37 82.948,-156.37 82.921,-156.37 82.893,-156.37 82.865,-156.37 82.838,-156.38 82.811,-156.38 82.758,-156.4 82.758,-156.4 82.763,-156.39 82.739,-156.4 82.728,-156.41 82.71,-156.41 82.693,-156.42 82.676,-156.43 82.223,-156.69 81.768,-156.95 81.316,-157.22 81.301,-157.23 81.287,-157.23 81.274,-157.25 81.262,-157.26 81.242,-157.28 81.242,-157.28 M83.644,-159.38 L83.649,-159.39 M83.658,-159.42 L83.679,-159.54 M83.695,-159.55 C83.695,-159.55 83.667,-159.44 83.646,-159.38 83.623,-159.32 83.596,-159.27 83.564,-159.21 83.531,-159.16 83.492,-159.1 83.451,-159.05 83.419,-159.01 83.348,-158.94 83.348,-158.94 M83.765,-154.84 C83.765,-154.84 83.946,-154.87 84.037,-154.87 84.125,-154.88 84.213,-154.88 84.302,-154.88 84.387,-154.88 84.472,-154.87 84.556,-154.86 84.638,-154.85 84.799,-154.81 84.799,-154.81 M81.272,-157.25 L81.267,-157.27 M79.116,-162.44 C79.116,-162.44 79.227,-162.41 79.283,-162.39 79.34,-162.38 79.397,-162.36 79.454,-162.35 79.569,-162.32 79.687,-162.3 79.805,-162.28 79.984,-162.25 80.165,-162.23 80.347,-162.22 80.528,-162.2 80.71,-162.2 80.891,-162.2 80.951,-162.21 81.011,-162.21 81.07,-162.21 81.129,-162.22 81.188,-162.22 81.247,-162.23 81.305,-162.23 81.363,-162.24 81.421,-162.24 81.478,-162.25 81.591,-162.27 81.591,-162.27 M80.347,-163.3 C80.347,-163.3 80.346,-163.29 80.346,-163.28 80.347,-163.25 80.349,-163.21 80.359,-163.18 80.37,-163.15 80.388,-163.12 80.41,-163.09 80.46,-163.04 80.511,-163.02 80.583,-163 80.667,-162.99 80.752,-162.98 80.837,-162.97 80.877,-162.96 80.958,-162.95 80.958,-162.95 M81.984,-162.36 C81.984,-162.36 81.91,-162.34 81.873,-162.33 81.821,-162.31 81.769,-162.3 81.717,-162.29 81.665,-162.28 81.56,-162.26 81.56,-162.26 M77.636,-163.38 C77.636,-163.38 77.679,-163.32 77.702,-163.29 77.726,-163.26 77.751,-163.23 77.778,-163.2 77.831,-163.14 77.891,-163.09 77.957,-163.03 78.056,-162.95 78.168,-162.87 78.291,-162.8 78.414,-162.72 78.549,-162.66 78.692,-162.59 78.741,-162.57 78.79,-162.55 78.839,-162.53 78.89,-162.51 78.941,-162.5 78.992,-162.48 79.037,-162.46 79.13,-162.43 79.13,-162.43 M92.317,-154.87 C92.317,-154.87 92.364,-154.81 92.389,-154.78 92.415,-154.75 92.442,-154.72 92.47,-154.7 92.528,-154.64 92.591,-154.58 92.66,-154.53 92.764,-154.45 92.88,-154.37 93.008,-154.3 93.136,-154.23 93.274,-154.16 93.422,-154.1 93.471,-154.08 93.521,-154.06 93.572,-154.05 93.621,-154.03 93.721,-154 93.721,-154 M89.047,-157.84 C89.047,-157.84 89.241,-157.87 89.336,-157.9 89.422,-157.92 89.592,-157.96 89.592,-157.96 M84.639,-159.03 C84.639,-159.03 84.731,-158.92 84.781,-158.87 84.835,-158.81 84.892,-158.76 84.951,-158.71 85.074,-158.6 85.215,-158.51 85.371,-158.42 85.527,-158.33 85.698,-158.24 85.881,-158.17 85.973,-158.13 86.161,-158.07 86.161,-158.07 M96.12,-154.38 C96.374,-154.3 96.696,-154.17 96.86,-154.08 97.046,-153.98 97.157,-153.92 97.312,-153.8 97.359,-153.76 97.405,-153.72 97.449,-153.68 97.49,-153.64 97.529,-153.6 97.567,-153.56 97.59,-153.53 97.631,-153.47 97.631,-153.47 M93.878,-154.54 C93.878,-154.54 93.769,-154.53 93.714,-154.52 93.606,-154.5 93.5,-154.48 93.398,-154.45 93.348,-154.44 93.298,-154.42 93.248,-154.41 93.2,-154.4 93.152,-154.38 93.104,-154.36 93.062,-154.35 92.978,-154.32 92.978,-154.32 M90.887,-153.89 C90.887,-153.89 90.801,-153.99 90.754,-154.04 90.699,-154.09 90.64,-154.15 90.58,-154.2 90.515,-154.25 90.45,-154.3 90.379,-154.35 90.042,-154.56 89.704,-154.73 89.326,-154.85 89.33,-154.85 89.14,-154.91 89.043,-154.94 88.934,-154.97 88.822,-155 88.711,-155.02 88.598,-155.04 88.483,-155.07 88.369,-155.08 88.138,-155.12 87.903,-155.14 87.668,-155.16 87.432,-155.17 87.198,-155.17 86.967,-155.16 86.853,-155.15 86.738,-155.14 86.625,-155.13 86.523,-155.12 86.32,-155.09 86.32,-155.09 86.329,-155.09 86.121,-155.06 86.018,-155.03 85.919,-155.01 85.821,-154.98 85.723,-154.96 85.63,-154.93 85.538,-154.9 85.447,-154.86 85.361,-154.83 85.277,-154.79 85.193,-154.76 85.135,-154.73 85.116,-154.73 85.044,-154.73 85.038,-154.73 85.034,-154.73 85.029,-154.73 85.029,-154.73 85.029,-154.73 85.029,-154.73 85.022,-154.73 85.015,-154.74 85.008,-154.74 85.002,-154.74 84.995,-154.74 84.988,-154.74 84.988,-154.74 84.948,-154.75 84.948,-154.75 84.89,-154.78 84.769,-154.82 84.769,-154.82 M93.998,-169.87 L93.631,-170.27 M92.512,-169.15 L92.855,-168.78 M84.557,-173.75 C84.81,-173.5 85.266,-173.56 85.575,-173.86 85.883,-174.17 85.928,-174.62 85.675,-174.86 85.422,-175.11 84.966,-175.05 84.657,-174.74 84.348,-174.44 84.303,-173.99 84.557,-173.75 Z M86.042,-174.47 L85.675,-174.86 M84.557,-173.75 L84.899,-173.38 M93.595,-170.54 L94.646,-169.93 M95.275,-166.62 C95.275,-166.62 95.297,-166.62 95.307,-166.62 95.321,-166.62 95.335,-166.62 95.349,-166.62 95.355,-166.62 95.362,-166.62 95.368,-166.62 95.382,-166.62 95.397,-166.63 95.411,-166.63 95.425,-166.63 95.439,-166.64 95.453,-166.64 95.497,-166.65 95.551,-166.67 95.601,-166.69 95.704,-166.73 95.809,-166.8 95.91,-166.88 96.09,-167.03 96.246,-167.22 96.37,-167.44 96.484,-167.64 96.56,-167.85 96.598,-168.07 96.622,-168.2 96.628,-168.32 96.616,-168.43 96.61,-168.48 96.599,-168.54 96.587,-168.59 96.58,-168.62 96.57,-168.64 96.56,-168.67 96.555,-168.68 96.549,-168.69 96.543,-168.71 96.54,-168.71 96.538,-168.72 96.535,-168.73 96.528,-168.74 96.522,-168.75 96.515,-168.76 96.515,-168.76 96.515,-168.76 96.515,-168.76 M85.64,-175.13 L86.69,-174.52 M88.041,-171.56 C88.041,-171.56 88.041,-171.56 88.041,-171.56 88.055,-171.58 88.069,-171.59 88.083,-171.6 88.096,-171.62 88.11,-171.63 88.123,-171.65 88.15,-171.67 88.176,-171.7 88.201,-171.74 88.252,-171.8 88.3,-171.86 88.345,-171.93 88.423,-172.05 88.488,-172.18 88.539,-172.32 88.598,-172.47 88.637,-172.63 88.653,-172.77 88.66,-172.84 88.662,-172.91 88.658,-172.98 88.656,-173.02 88.651,-173.06 88.645,-173.09 88.642,-173.11 88.64,-173.12 88.637,-173.14 88.634,-173.15 88.63,-173.17 88.626,-173.18 88.622,-173.2 88.618,-173.21 88.613,-173.23 88.613,-173.23 88.611,-173.23 88.611,-173.23 M92.442,-170 C92.442,-170 92.441,-170 92.441,-170 M92.369,-169.9 C92.369,-169.9 92.368,-169.9 92.368,-169.9 92.368,-169.9 92.367,-169.9 92.367,-169.9 M92.301,-169.79 C92.301,-169.79 92.3,-169.79 92.299,-169.79 92.299,-169.79 92.298,-169.78 92.298,-169.78 M92.237,-169.67 C92.237,-169.67 92.237,-169.67 92.237,-169.67 92.237,-169.67 92.237,-169.67 92.237,-169.67 M92.182,-169.56 C92.182,-169.56 92.182,-169.56 92.181,-169.56 92.181,-169.56 92.181,-169.56 92.181,-169.56 M92.135,-169.44 C92.135,-169.44 92.134,-169.44 92.133,-169.44 92.133,-169.44 92.132,-169.44 92.132,-169.44 M92.094,-169.32 C92.094,-169.32 92.093,-169.32 92.093,-169.32 92.093,-169.32 92.092,-169.32 92.092,-169.32 M92.521,-170.1 C92.52,-170.1 92.519,-170.1 92.519,-170.1 M92.443,-170 C92.443,-170 92.442,-170 92.442,-170 M96.766,-167.17 C96.943,-167.47 97.044,-167.8 97.048,-168.08 97.051,-168.37 96.956,-168.59 96.784,-168.7 96.612,-168.8 96.376,-168.78 96.129,-168.65 95.882,-168.51 95.644,-168.26 95.466,-167.96 95.289,-167.66 95.188,-167.33 95.185,-167.04 95.181,-166.75 95.276,-166.53 95.448,-166.43 95.621,-166.32 95.856,-166.34 96.103,-166.48 96.35,-166.62 96.588,-166.86 96.766,-167.17 Z M94.106,-171.08 C93.546,-171.4 92.989,-171.72 92.429,-172.05 91.734,-172.42 90.822,-171.77 90.103,-170.37 89.126,-170.93 88.155,-171.5 87.178,-172.06 87.897,-173.45 88.809,-174.11 89.504,-173.74 89.872,-173.54 90.031,-173.03 89.928,-172.39 89.89,-172.16 89.817,-171.92 89.714,-171.67 89.645,-171.51 89.563,-171.36 89.471,-171.21 89.424,-171.13 89.376,-171.06 89.324,-170.99 89.296,-170.95 89.235,-170.87 89.235,-170.87 M92.604,-170.19 C92.603,-170.19 92.602,-170.19 92.602,-170.19 M92.523,-170.1 C92.523,-170.1 92.522,-170.1 92.521,-170.1 M92.691,-170.28 C92.69,-170.28 92.69,-170.27 92.69,-170.27"/>
      <path stroke="#000" d="M92.606,-170.19 C92.606,-170.19 92.605,-170.19 92.604,-170.19 M92.78,-170.35 C92.779,-170.35 92.778,-170.35 92.778,-170.35 M92.692,-170.28 C92.692,-170.28 92.691,-170.28 92.691,-170.28 M92.87,-170.42 C92.869,-170.42 92.868,-170.42 92.868,-170.42 M92.782,-170.35 C92.782,-170.35 92.78,-170.35 92.78,-170.35 M93.616,-170.53 C93.553,-170.57 93.479,-170.59 93.399,-170.59 93.346,-170.6 93.29,-170.59 93.231,-170.58 93.202,-170.57 93.172,-170.56 93.143,-170.55 93.141,-170.55 93.138,-170.55 93.138,-170.55 M93.057,-170.52 C93.057,-170.52 93.054,-170.52 93.053,-170.52 93.051,-170.52 93.047,-170.52 93.047,-170.52 M92.966,-170.48 C92.966,-170.48 92.963,-170.47 92.962,-170.47 92.959,-170.47 92.954,-170.47 92.954,-170.47 M92.872,-170.42 C92.872,-170.42 92.871,-170.42 92.87,-170.42 M89.504,-173.74 C88.944,-174.06 88.388,-174.38 87.827,-174.7 87.132,-175.08 86.22,-174.42 85.501,-173.03 84.941,-173.35 84.384,-173.67 83.824,-174 84.544,-175.39 85.455,-176.05 86.151,-175.67 86.331,-175.58 86.465,-175.4 86.539,-175.17 86.576,-175.05 86.598,-174.92 86.603,-174.78 86.606,-174.71 86.601,-174.58 86.601,-174.58 M84.136,-173.91 C84.136,-173.91 84.137,-173.91 84.137,-173.92 84.138,-173.92 84.138,-173.92 84.138,-173.92 M84.176,-174.03 C84.176,-174.03 84.177,-174.03 84.178,-174.03 84.178,-174.03 84.179,-174.04 84.179,-174.04 M84.225,-174.15 C84.225,-174.15 84.225,-174.15 84.226,-174.15 84.226,-174.15 84.226,-174.15 84.226,-174.15 M84.281,-174.27 C84.281,-174.27 84.281,-174.27 84.281,-174.27 84.281,-174.27 84.282,-174.27 84.282,-174.27 M84.342,-174.38 C84.342,-174.38 84.343,-174.38 84.343,-174.38 84.344,-174.38 84.345,-174.38 84.345,-174.38 M84.411,-174.49 C84.411,-174.49 84.412,-174.49 84.412,-174.49 84.413,-174.49 84.414,-174.49 84.414,-174.49 M84.485,-174.59 C84.485,-174.59 84.486,-174.59 84.486,-174.59 84.487,-174.59 84.487,-174.6 84.487,-174.6 M84.563,-174.69 C84.563,-174.69 84.564,-174.69 84.565,-174.69 84.566,-174.69 84.568,-174.7 84.568,-174.7 M84.646,-174.78 C84.646,-174.78 84.648,-174.78 84.648,-174.78 84.649,-174.79 84.65,-174.79 84.65,-174.79 M84.734,-174.87 C84.734,-174.87 84.735,-174.87 84.735,-174.87 84.736,-174.87 84.737,-174.87 84.737,-174.87 M84.822,-174.94 C84.822,-174.94 84.823,-174.94 84.824,-174.94 84.825,-174.94 84.827,-174.95 84.827,-174.95 M84.912,-175.01 C84.912,-175.01 84.914,-175.01 84.915,-175.01 84.915,-175.01 84.917,-175.01 84.917,-175.01 M84.998,-175.06 C84.998,-175.06 85.003,-175.07 85.006,-175.07 85.008,-175.07 85.011,-175.07 85.011,-175.07 M85.091,-175.11 C85.091,-175.11 85.095,-175.11 85.097,-175.11 85.099,-175.11 85.102,-175.11 85.102,-175.11 M85.661,-175.12 C85.597,-175.16 85.524,-175.18 85.443,-175.19 85.39,-175.19 85.334,-175.18 85.276,-175.17 85.246,-175.17 85.216,-175.16 85.187,-175.15 85.185,-175.15 85.181,-175.15 85.181,-175.15 M90.315,-157.55 C86.102,-159.98 81.915,-162.4 77.702,-164.83 77.698,-164.83 77.694,-164.83 77.691,-164.83 77.647,-164.89 77.603,-164.94 77.559,-164.99 77.549,-165.01 77.553,-165.03 77.568,-165.06 77.649,-165.17 77.725,-165.29 77.794,-165.42 77.932,-165.67 78.044,-165.93 78.123,-166.19 78.261,-166.64 78.324,-167.09 78.544,-167.51 79.857,-170.06 81.174,-172.61 82.488,-175.16 82.754,-175.67 83.139,-176.11 83.551,-176.37 83.962,-176.64 84.364,-176.69 84.66,-176.53 85.158,-176.25 85.653,-175.96 86.151,-175.67 M100.1,-166 C100.1,-166 100.14,-166 100.15,-165.99 100.2,-165.97 100.22,-165.91 100.22,-165.83 100.21,-165.75 100.18,-165.66 100.12,-165.58 99.495,-164.72 98.865,-163.85 98.236,-162.98 98.2,-162.93 98.157,-162.89 98.112,-162.86 98.092,-162.85 98.07,-162.84 98.047,-162.83 98.03,-162.83 97.996,-162.83 97.996,-162.83 M100.15,-165.99 L100.11,-166.01 M123.36,-147.51 C123.77,-146.41 123.31,-144.7 122.27,-143.4 121.22,-142.09 119.86,-141.52 118.98,-142.03 111.97,-146.07 104.94,-150.13 97.93,-154.18 97.57,-154.39 97.353,-154.72 97.212,-155.1 96.807,-156.2 97.259,-157.91 98.305,-159.22 99.35,-160.52 100.71,-161.09 101.59,-160.59 108.61,-156.54 115.64,-152.48 122.64,-148.43 123,-148.22 123.22,-147.89 123.36,-147.51 Z M92.829,-158.04 L97.106,-155.57 M95.727,-163.05 L99.996,-160.59 M76.14,-167.68 C76.14,-167.68 76.102,-167.66 76.082,-167.65 76.002,-167.62 75.92,-167.6 75.838,-167.57 75.814,-167.56 75.79,-167.56 75.767,-167.56 75.57,-167.51 75.491,-167.49 75.291,-167.49 75.182,-167.49 75.046,-167.51 74.913,-167.54 74.78,-167.57 74.662,-167.61 74.586,-167.66 67.57,-171.7 60.542,-175.76 53.532,-179.81 52.416,-180.46 52.331,-182.26 53.332,-184.06 53.81,-184.92 54.487,-185.65 55.202,-186.06 55.917,-186.48 56.608,-186.55 57.112,-186.26 64.127,-182.22 71.156,-178.15 78.165,-174.1 78.442,-173.94 78.669,-173.72 78.814,-173.43 78.868,-173.32 78.898,-173.25 78.928,-173.14 78.952,-173.06 78.978,-172.98 78.996,-172.9 79.012,-172.83 79.031,-172.7 79.031,-172.7 M77.044,-173.46 C77.044,-173.46 77.134,-173.48 77.181,-173.49 77.242,-173.5 77.304,-173.5 77.366,-173.5 77.425,-173.5 77.484,-173.5 77.543,-173.49 77.599,-173.48 77.709,-173.45 77.709,-173.45 M74.765,-168.49 C74.765,-168.49 74.689,-168.57 74.656,-168.62 74.622,-168.67 74.591,-168.72 74.564,-168.78 74.538,-168.83 74.496,-168.94 74.496,-168.94 M74.753,-168.5 C74.753,-168.5 74.802,-168.45 74.83,-168.43 74.874,-168.4 74.969,-168.35 74.969,-168.35 M77.059,-173.47 C77.059,-173.47 76.923,-173.43 76.857,-173.4 76.788,-173.38 76.719,-173.34 76.652,-173.31 76.582,-173.28 76.513,-173.24 76.446,-173.2 76.239,-173.07 76.034,-172.91 75.838,-172.72 75.51,-172.4 75.214,-172.02 74.977,-171.59 74.443,-170.63 74.268,-169.6 74.513,-168.88 M80.717,-171.72 L77.782,-173.41 77.656,-173.47 M78.199,-166.49 L74.841,-168.43 M92.588,-160.37 C92.623,-160.35 92.658,-160.33 92.693,-160.31 92.536,-159.83 92.469,-159.37 92.499,-158.96 92.392,-158.88 92.304,-158.74 92.273,-158.61 92.241,-158.47 92.272,-158.36 92.351,-158.32 92.423,-158.29 92.524,-158.32 92.618,-158.4 M97.665,-161.93 C97.665,-161.93 98.084,-163.07 98.293,-163.64 98.376,-163.86 98.481,-164.09 98.603,-164.3 99.056,-165.1 99.766,-165.67 100.42,-166.3 100.31,-166.42 100.2,-166.53 100.1,-166.65 99.676,-166.89 99.257,-167.13 98.837,-167.38 M86.532,-175.18 L87.251,-174.77 M89.886,-173.25 L91.853,-172.11 M94.488,-170.59 L95.206,-170.18 M93,-157.87 C93.077,-157.83 93.154,-157.78 93.231,-157.74 93.148,-157.56 93.16,-157.39 93.26,-157.33 93.315,-157.3 93.39,-157.31 93.468,-157.36 93.506,-157.38 93.543,-157.42 93.578,-157.46 93.595,-157.47 93.611,-157.5 93.626,-157.52 93.636,-157.53 93.652,-157.56 93.652,-157.56 M92.273,-158.6 C92.388,-158.53 92.502,-158.47 92.618,-158.4 92.726,-158.12 92.902,-157.91 93.13,-157.78 93.163,-157.77 93.197,-157.75 93.231,-157.74 M94.409,-162.67 C94.4,-162.73 94.374,-162.78 94.334,-162.8 94.245,-162.86 94.104,-162.8 93.993,-162.66 93.882,-162.52 93.829,-162.34 93.865,-162.22 93.528,-161.88 93.229,-161.47 92.996,-161.02 92.876,-161.06 92.706,-160.93 92.612,-160.74 92.518,-160.55 92.533,-160.36 92.646,-160.32 92.661,-160.31 92.677,-160.31 92.693,-160.31 M97.655,-168.76 C98.007,-168.56 98.356,-168.36 98.707,-168.15 98.814,-168.04 98.92,-167.92 99.026,-167.81 98.838,-167.38 98.651,-166.95 98.463,-166.52 97.647,-165.33 96.835,-164.15 96.019,-162.96 95.585,-163.18 95,-163.07 94.409,-162.67 94.331,-162.72 94.254,-162.76 94.177,-162.81 M92.638,-156.93 L90.664,-158.07 M90.575,-154.2 C88.989,-133.19 87.412,-112.3 85.827,-91.283 85.644,-90.413 84.198,-89.835 82.512,-89.958 80.826,-90.081 79.471,-90.863 79.406,-91.751 79.398,-91.856 79.409,-91.964 79.439,-92.065 M79.406,-91.751 L84.166,-154.88 M84.499,-159.3 L84.615,-160.84 M94.189,-61.88 C93.847,-62.077 93.506,-62.274 93.164,-62.471 92.816,-62.675 92.25,-62.35 91.899,-61.745 91.731,-61.455 91.636,-61.138 91.635,-60.864 91.635,-60.589 91.728,-60.38 91.896,-60.283 92.238,-60.085 92.578,-59.889 92.92,-59.691 M92.432,-62.346 C92.432,-62.346 89.056,-64.29 87.374,-65.266 87.269,-65.328 87.128,-65.314 86.979,-65.229 86.671,-65.052 86.42,-64.619 86.419,-64.262 86.418,-64.09 86.477,-63.959 86.581,-63.899 88.264,-62.922 91.641,-60.977 91.641,-60.977 M86.979,-65.229 C86.623,-65.023 86.42,-64.711 86.419,-64.369 86.419,-64.333 86.419,-64.298 86.419,-64.262 M61.895,-92.552 C61.831,-92.146 61.211,-91.874 60.498,-91.94 59.786,-92.006 59.243,-92.385 59.273,-92.794 59.38,-94.212 59.487,-95.633 59.594,-97.05 59.595,-97.062 59.597,-97.073 59.599,-97.084 59.664,-97.49 60.284,-97.762 60.996,-97.696 61.708,-97.63 62.252,-97.251 62.221,-96.842 62.114,-95.424 62.007,-94.003 61.9,-92.586 61.899,-92.574 61.897,-92.563 61.895,-92.552 Z M60.624,-79.083 C60.624,-79.083 60.61,-79.095 60.602,-79.1 60.574,-79.119 60.544,-79.137 60.514,-79.154 60.483,-79.172 60.45,-79.189 60.418,-79.204 60.35,-79.236 60.278,-79.265 60.201,-79.29 60.048,-79.34 59.881,-79.374 59.709,-79.392 59.537,-79.409 59.363,-79.408 59.199,-79.39 59.117,-79.38 59.037,-79.367 58.962,-79.349 58.887,-79.332 58.816,-79.31 58.75,-79.284 58.718,-79.272 58.686,-79.258 58.655,-79.243 58.649,-79.24 58.637,-79.233 58.637,-79.233 M60.802,-81.435 C60.802,-81.435 60.787,-81.447 60.78,-81.452 60.751,-81.471 60.722,-81.489 60.692,-81.506 60.66,-81.524 60.628,-81.541 60.595,-81.556 60.528,-81.588 60.455,-81.617 60.379,-81.642 60.226,-81.692 60.058,-81.726 59.886,-81.744 59.714,-81.761 59.541,-81.76 59.376,-81.742 59.294,-81.732 59.215,-81.719 59.139,-81.701 59.064,-81.684 58.993,-81.662 58.927,-81.636 58.895,-81.624 58.863,-81.61 58.833,-81.595 58.826,-81.592 58.814,-81.585 58.814,-81.585 M54.082,-87.787 C54.092,-87.794 54.101,-87.802 54.108,-87.812 54.113,-87.821 54.116,-87.832 54.115,-87.842 54.113,-87.867 54.092,-87.892 54.055,-87.91 54.018,-87.929 53.97,-87.939 53.922,-87.938 53.904,-87.938 53.886,-87.936 53.868,-87.932 53.857,-87.93 53.845,-87.93 53.834,-87.932 53.822,-87.934 53.812,-87.938 53.804,-87.943 53.791,-87.952 53.777,-87.961 53.763,-87.971 M53.751,-87.988 C53.751,-87.982 53.755,-87.976 53.763,-87.971 M54.405,-87.569 C54.415,-87.575 54.424,-87.584 54.43,-87.594 54.435,-87.602 54.438,-87.613 54.438,-87.623 54.436,-87.648 54.414,-87.673 54.377,-87.692 54.341,-87.71 54.293,-87.72 54.245,-87.719 54.227,-87.719 54.208,-87.717 54.191,-87.714 54.18,-87.712 54.168,-87.711 54.156,-87.713 54.145,-87.715 54.134,-87.719 54.127,-87.724 54.113,-87.734 54.098,-87.743 54.084,-87.753 M54.072,-87.771 C54.072,-87.764 54.077,-87.758 54.084,-87.753 M54.394,-87.552 C54.395,-87.546 54.399,-87.54 54.407,-87.534 M54.407,-87.534 C54.467,-87.494 54.527,-87.453 54.587,-87.412 54.65,-87.37 54.683,-87.318 54.68,-87.267 54.648,-86.793 54.572,-85.843 54.572,-85.843 M53.684,-85.948 C53.603,-84.863 53.521,-83.785 53.439,-82.7 53.397,-81.934 53.895,-81.157 54.839,-80.517 55.967,-79.752 57.099,-78.985 58.227,-78.221 58.782,-77.844 59.683,-77.662 60.501,-77.76 61.318,-77.858 61.887,-78.218 61.936,-78.666 61.959,-78.966 61.981,-79.263 62.004,-79.562 M54.68,-87.267 C54.679,-87.25 54.674,-87.233 54.665,-87.219 54.637,-87.167 54.61,-87.113 54.587,-87.058 54.564,-87.005 54.544,-86.951 54.527,-86.895 54.493,-86.785 54.472,-86.674 54.462,-86.562 54.363,-85.344 55.722,-84.143 57.87,-83.549 58.687,-83.323 59.5,-83.273 60.335,-83.174 61.436,-83.043 62.244,-82.492 62.181,-81.915 62.132,-81.466 61.563,-81.107 60.746,-81.008 59.928,-80.91 59.027,-81.093 58.472,-81.469 57.344,-82.233 56.212,-83 55.084,-83.765 54.14,-84.405 53.642,-85.182 53.684,-85.948 53.696,-86.165 53.752,-86.378 53.849,-86.584 53.898,-86.687 53.957,-86.788 54.027,-86.887 54.05,-86.92 54.074,-86.952 54.099,-86.984 54.125,-87.017 54.151,-87.049 54.179,-87.08 54.201,-87.105 54.212,-87.133 54.212,-87.162 54.211,-87.211 54.178,-87.259 54.119,-87.3 53.699,-87.584 53.278,-87.869 52.858,-88.154 52.723,-88.162 52.593,-88.2 52.501,-88.257 52.409,-88.315 52.361,-88.387 52.369,-88.458 52.384,-88.597 52.608,-88.694 52.876,-88.677 53.144,-88.66 53.361,-88.535 53.367,-88.394 53.369,-88.351 53.351,-88.31 53.315,-88.274 53.371,-88.236 53.427,-88.198 53.483,-88.16 53.499,-88.15 53.525,-88.145 53.547,-88.15 53.599,-88.161 53.661,-88.156 53.711,-88.138 53.761,-88.119 53.792,-88.09 53.794,-88.059 53.795,-88.049 53.792,-88.039 53.786,-88.03 53.78,-88.02 53.771,-88.011 53.761,-88.005 M59.086,-80.257 C59.086,-80.257 59.048,-80.25 59.03,-80.245 58.993,-80.237 58.956,-80.227 58.92,-80.216 58.885,-80.205 58.851,-80.193 58.817,-80.18 58.751,-80.155 58.691,-80.126 58.637,-80.093 58.475,-79.996 58.376,-79.872 58.354,-79.737 58.292,-79.36 58.829,-78.997 59.552,-78.925 60.276,-78.853 60.912,-79.099 60.974,-79.476 60.996,-79.61 60.941,-79.75 60.816,-79.876 60.774,-79.918 60.725,-79.958 60.67,-79.996 60.641,-80.015 60.612,-80.033 60.582,-80.05 60.553,-80.066 60.494,-80.096 60.494,-80.096 M54.43,-87.519 L54.438,-87.623 M54.107,-87.737 L54.115,-87.842 M53.786,-87.955 L53.794,-88.059 M53.557,-84.266 C53.242,-84.48 52.929,-84.692 52.613,-84.906 52.478,-84.914 52.348,-84.952 52.256,-85.009 52.164,-85.067 52.116,-85.139 52.124,-85.21 52.206,-86.295 52.287,-87.373 52.369,-88.458 M53.356,-88.247 L53.367,-88.394 M67.633,-74.914 C67.633,-74.914 67.668,-74.916 67.684,-74.919 67.703,-74.923 67.722,-74.927 67.741,-74.933 67.759,-74.939 67.778,-74.947 67.796,-74.955 67.796,-74.955 67.796,-74.955 67.797,-74.955 67.851,-74.981 67.904,-75.018 67.952,-75.066 68.029,-75.142 68.096,-75.244 68.151,-75.369 68.2,-75.479 68.239,-75.605 68.265,-75.739 68.275,-75.788 68.283,-75.837 68.288,-75.885 68.294,-75.932 68.297,-75.976 68.298,-76.018 68.299,-76.038 68.299,-76.058 68.298,-76.078 68.298,-76.084 68.297,-76.096 68.297,-76.096 M66.447,-74.165 C66.505,-74.935 66.539,-75.709 66.621,-76.476 66.634,-76.594 66.73,-76.652 66.822,-76.704 66.9,-76.748 66.98,-76.792 67.061,-76.837 67.219,-76.923 67.382,-77.009 67.54,-77.09 68.129,-77.391 68.485,-77.54 68.537,-77.506 L68.988,-77.245 C69.003,-77.234 69.013,-77.221 69.021,-77.205 69.026,-77.195 69.03,-77.18 69.034,-77.166 69.037,-77.152 69.038,-77.141 69.037,-77.137 68.988,-76.495 68.94,-75.857 68.892,-75.215 68.891,-75.15 68.87,-75.026 68.837,-74.883 68.804,-74.74 68.763,-74.597 68.728,-74.502 68.63,-74.24 68.497,-74.034 68.331,-73.887 67.966,-73.564 67.452,-73.551 66.96,-73.854 66.872,-73.908 66.787,-73.972 66.707,-74.043 66.666,-74.08 66.628,-74.12 66.587,-74.158 66.565,-74.177 66.542,-74.198 66.516,-74.211 66.504,-74.217 66.494,-74.219 66.488,-74.217 66.486,-74.216 66.484,-74.214 66.482,-74.212 66.48,-74.207 66.477,-74.202 66.474,-74.197 66.471,-74.193 66.468,-74.189 66.465,-74.185 66.463,-74.181 66.46,-74.178 66.457,-74.175 66.454,-74.173 66.451,-74.171 66.448,-74.169 66.447,-74.168 66.447,-74.166 66.447,-74.165 66.451,-74.153 66.488,-74.126 66.55,-74.09 66.687,-74.011 66.823,-73.933 66.96,-73.854 M68.578,-76.118 C68.498,-76.163 68.36,-76.138 68.203,-76.049 68.046,-75.961 67.887,-75.82 67.772,-75.665 67.503,-75.306 67.513,-74.905 67.793,-74.746 68.064,-74.593 68.388,-74.791 68.567,-75.218 68.646,-75.406 68.692,-75.611 68.694,-75.782 68.696,-75.954 68.654,-76.076 68.578,-76.118 Z M84.233,-72.041 C84.233,-72.041 84.229,-72.043 84.228,-72.044 84.184,-72.071 84.141,-72.098 84.096,-72.123 84.051,-72.149 84.005,-72.175 83.959,-72.199 83.912,-72.224 83.865,-72.249 83.817,-72.272 83.671,-72.344 83.518,-72.411 83.358,-72.473 83.092,-72.576 82.807,-72.665 82.51,-72.737 81.974,-72.868 81.405,-72.944 80.836,-72.96 80.203,-72.979 79.585,-72.924 79.025,-72.8 78.69,-72.725 78.379,-72.626 78.101,-72.506 77.963,-72.446 77.832,-72.381 77.711,-72.311 77.672,-72.288 77.633,-72.264 77.594,-72.24 77.557,-72.216 77.52,-72.191 77.483,-72.165 77.448,-72.14 77.413,-72.115 77.379,-72.088 77.353,-72.067 77.302,-72.024 77.302,-72.024"/>
      <path stroke="#000" d="M84.201,-73.859 C84.201,-73.859 84.19,-73.808 84.188,-73.782 84.185,-73.747 84.186,-73.712 84.189,-73.678 84.193,-73.641 84.2,-73.604 84.209,-73.568 84.228,-73.495 84.259,-73.422 84.299,-73.352 84.338,-73.284 84.385,-73.22 84.438,-73.164 84.464,-73.138 84.491,-73.113 84.52,-73.09 84.539,-73.074 84.582,-73.047 84.582,-73.047 M76.822,-70.609 C76.742,-69.546 76.663,-68.49 76.582,-67.428 76.583,-67.382 76.617,-67.337 76.679,-67.301 77.017,-67.106 77.357,-66.91 77.695,-66.715 78.678,-67.179 79.656,-67.64 80.639,-68.105 81.974,-67.974 83.296,-68.13 84.306,-68.536 85.317,-68.942 85.93,-69.564 86.006,-70.262 86.086,-71.324 86.166,-72.38 86.246,-73.443 M75.407,-70.744 C75.407,-70.744 75.426,-70.764 75.436,-70.774 75.453,-70.795 75.469,-70.816 75.485,-70.837 75.501,-70.859 75.516,-70.882 75.53,-70.905 75.559,-70.951 75.585,-71.001 75.61,-71.054 75.633,-71.105 75.655,-71.158 75.674,-71.215 75.683,-71.242 75.692,-71.27 75.701,-71.298 75.709,-71.326 75.716,-71.354 75.723,-71.382 75.724,-71.384 75.725,-71.389 75.725,-71.389 M76.449,-71.681 C76.331,-71.747 76.172,-71.729 76.006,-71.632 75.841,-71.535 75.682,-71.367 75.566,-71.163 75.45,-70.96 75.386,-70.739 75.387,-70.549 75.388,-70.358 75.455,-70.214 75.573,-70.148 75.818,-70.01 76.214,-70.242 76.455,-70.665 76.572,-70.868 76.636,-71.09 76.635,-71.28 76.634,-71.47 76.567,-71.615 76.449,-71.681 Z M76.756,-69.732 C76.756,-69.732 75.331,-69.06 74.62,-68.724 74.497,-68.666 74.297,-68.676 74.174,-68.748 73.906,-68.902 73.638,-69.057 73.37,-69.212 73.317,-69.242 73.289,-69.283 73.293,-69.322 73.373,-70.384 73.453,-71.44 73.533,-72.503 M92.815,-76.551 C93.306,-76.782 93.448,-77.501 93.133,-78.156 92.819,-78.811 92.166,-79.154 91.676,-78.923 M90.918,-77.113 C90.878,-77.195 90.82,-77.263 90.756,-77.303 90.692,-77.344 90.628,-77.352 90.577,-77.327 90.525,-77.301 90.492,-77.245 90.484,-77.169 90.475,-77.093 90.493,-77.005 90.532,-76.923 90.614,-76.752 90.767,-76.657 90.873,-76.709 90.924,-76.734 90.958,-76.791 90.966,-76.867 90.974,-76.943 90.957,-77.031 90.918,-77.113 Z M91.112,-77.871 C91.391,-78.003 91.668,-78.133 91.947,-78.265 92.135,-78.358 92.405,-78.189 92.55,-77.887 92.62,-77.742 92.651,-77.586 92.636,-77.452 92.621,-77.318 92.562,-77.217 92.472,-77.173 92.193,-77.041 91.916,-76.91 91.637,-76.778 M90.577,-77.327 C90.762,-77.414 90.947,-77.502 91.133,-77.59 91.24,-77.642 91.392,-77.546 91.474,-77.376 91.556,-77.205 91.536,-77.025 91.43,-76.972 91.244,-76.884 91.059,-76.797 90.873,-76.709 M75.64,-43.039 L76.25,-51.132 M82.434,-53.608 C82.434,-53.608 82.327,-53.688 82.27,-53.721 82.107,-53.815 81.761,-53.969 81.761,-53.969 M81.325,-51.792 L81.547,-54.732 M76.829,-48.497 C76.829,-48.497 76.78,-48.533 76.761,-48.556 76.728,-48.595 76.702,-48.638 76.681,-48.684 76.66,-48.73 76.644,-48.78 76.634,-48.83 76.604,-48.983 76.637,-49.112 76.717,-49.159 76.744,-49.174 76.777,-49.18 76.808,-49.177 76.833,-49.174 76.878,-49.152 76.878,-49.152 M98.452,-152.97 C98.438,-152.97 98.424,-152.97 98.411,-152.97 98.409,-152.96 98.408,-152.94 98.404,-152.93"/>
      <path stroke="#000" d="M93.419,-169.34 C93.717,-169.61 93.779,-170.03 93.558,-170.27 93.337,-170.51 92.917,-170.48 92.619,-170.2 92.321,-169.93 92.259,-169.51 92.48,-169.27 92.701,-169.03 93.122,-169.06 93.419,-169.34 Z"/>
      <path stroke="#000" d="M92.512,-169.15 C92.676,-169 92.934,-168.96 93.189,-169.05 93.444,-169.15 93.657,-169.36 93.748,-169.61 93.84,-169.86 93.795,-170.11 93.631,-170.27 93.378,-170.51 92.922,-170.46 92.613,-170.15 92.304,-169.84 92.259,-169.4 92.512,-169.15 Z"/>
      <path stroke="#000" d="M85.418,-173.98 C85.682,-174.22 85.736,-174.59 85.54,-174.8 85.344,-175.02 84.972,-174.99 84.709,-174.75 84.445,-174.5 84.39,-174.13 84.586,-173.92 84.782,-173.71 85.155,-173.74 85.418,-173.98 Z"/>
      <path stroke="#000" d="M93.314,-168.63 C93.363,-168.62 93.412,-168.61 93.459,-168.6 93.484,-168.6 93.509,-168.6 93.533,-168.6 93.536,-168.6 93.542,-168.6 93.542,-168.6 M94.23,-169.59 C94.23,-169.59 94.212,-169.62 94.203,-169.63 94.189,-169.65 94.174,-169.66 94.159,-169.68 94.13,-169.71 94.096,-169.75 94.059,-169.78 M85.588,-173.2 C85.588,-173.2 85.577,-173.2 85.572,-173.2 85.547,-173.2 85.522,-173.2 85.498,-173.2 85.449,-173.21 85.401,-173.21 85.353,-173.23 M86.272,-174.18 C86.272,-174.18 86.252,-174.21 86.241,-174.23 86.228,-174.24 86.213,-174.26 86.198,-174.28 86.168,-174.31 86.135,-174.34 86.097,-174.37 M96.212,-165.68 C94.828,-164.91 93.615,-164.38 92.863,-162.97 92.367,-162.01 91.867,-161.05 91.375,-160.09 91.152,-159.65 91.119,-159.16 90.953,-158.7 90.867,-158.47 90.759,-158.23 90.633,-158.01 90.591,-157.93 90.547,-157.86 90.501,-157.79 90.455,-157.71 90.407,-157.64 90.358,-157.57 90.345,-157.55 90.328,-157.54 90.315,-157.55 90.311,-157.55 90.307,-157.55 90.305,-157.55 90.261,-157.6 90.217,-157.66 90.173,-157.71 90.162,-157.72 90.166,-157.75 90.182,-157.77 90.263,-157.89 90.338,-158.01 90.408,-158.13 90.546,-158.38 90.658,-158.65 90.737,-158.91 90.875,-159.36 90.938,-159.8 91.158,-160.23 92.471,-162.77 93.788,-165.33 95.101,-167.87 95.368,-168.39 95.753,-168.83 96.164,-169.09 96.576,-169.35 96.977,-169.41 97.274,-169.25 97.714,-169.01 97.849,-168.34 97.615,-167.55 97.38,-166.76 96.824,-166.02 96.212,-165.68 Z M94.556,-169.98 C94.556,-169.98 94.562,-170.12 94.559,-170.19 94.553,-170.33 94.532,-170.46 94.495,-170.57 94.421,-170.81 94.287,-170.98 94.106,-171.08 93.411,-171.45 92.499,-170.8 91.78,-169.4 92.34,-169.08 92.896,-168.76 93.456,-168.43 94.176,-169.83 95.088,-170.49 95.783,-170.11 96.281,-169.82 96.776,-169.54 97.274,-169.25 M93.616,-170.53 C93.617,-170.53 93.619,-170.52 93.619,-170.52 M88.652,-171.21 C88.652,-171.21 88.678,-171.23 88.691,-171.25 88.72,-171.28 88.748,-171.31 88.774,-171.34 88.802,-171.37 88.828,-171.4 88.853,-171.44 88.905,-171.51 88.952,-171.58 88.996,-171.65 89.084,-171.8 89.154,-171.96 89.202,-172.12 89.351,-172.6 89.277,-173.02 89.014,-173.18 88.752,-173.34 88.352,-173.21 88.002,-172.85 87.889,-172.73 87.785,-172.59 87.697,-172.44 87.653,-172.37 87.614,-172.29 87.579,-172.21 87.562,-172.18 87.546,-172.14 87.531,-172.1 87.517,-172.06 87.503,-172.02 87.491,-171.98 87.482,-171.95 87.467,-171.89 87.467,-171.89 M85.664,-175.12 C85.664,-175.12 85.662,-175.12 85.661,-175.12 M77.716,-164.83 C77.711,-164.83 77.706,-164.83 77.702,-164.83 M98.707,-168.15 C98.195,-167.13 97.759,-165.96 96.801,-165.26 96.104,-164.74 94.736,-163.84 93.854,-163.05 92.886,-162.19 92.134,-160.88 91.882,-159.61 91.631,-158.35 91.92,-157.32 92.638,-156.93 92.894,-156.79 93.196,-156.73 93.526,-156.77 93.691,-156.78 93.862,-156.82 94.037,-156.88 94.096,-156.9 94.155,-156.93 94.212,-156.95 94.272,-156.98 94.331,-157 94.389,-157.03 94.421,-157.05 94.483,-157.08 94.483,-157.08 M98.299,-166.28 L99.122,-165.81 M96.617,-162.54 L99.122,-165.81 100.1,-166.65 M93.099,-60.852 L93.079,-60.22 93.535,-60.154 94.01,-60.719 94.03,-61.351 93.574,-61.417 93.099,-60.852 M94.01,-60.719 L93.321,-61.117 M92.92,-59.691 C93.268,-59.488 93.835,-59.813 94.185,-60.417 94.535,-61.021 94.537,-61.676 94.189,-61.88 93.841,-62.083 93.274,-61.758 92.924,-61.154 92.574,-60.549 92.572,-59.895 92.92,-59.691 Z M93.535,-60.154 L93.085,-60.413 M87.411,-65.241 C87.399,-65.25 87.387,-65.259 87.374,-65.266 M86.581,-63.899 C86.594,-63.891 86.608,-63.885 86.622,-63.879 M62.037,-94.633 C62.046,-94.813 62.003,-94.935 61.913,-94.981 61.789,-95.045 61.578,-94.967 61.381,-94.785 61.184,-94.602 61.04,-94.352 61.017,-94.152 61.016,-94.137 61.014,-94.122 61.014,-94.106 61.006,-93.931 61.078,-93.785 61.205,-93.717 61.361,-93.634 61.556,-93.689 61.723,-93.864 61.89,-94.039 62.007,-94.311 62.034,-94.588 M61.017,-94.152 C61.057,-94.576 61.303,-94.994 61.648,-95.226 61.771,-95.308 61.874,-95.341 61.94,-95.318 62.037,-95.284 62.044,-95.142 62.049,-95.057 62.056,-94.923 62.045,-94.69 62.019,-94.42 61.986,-94.085 61.967,-93.495 61.636,-93.287 61.489,-93.195 61.321,-93.241 61.193,-93.409 61.066,-93.577 60.997,-93.842 61.014,-94.106 M59.273,-92.794 C59.274,-92.805 59.276,-92.817 59.278,-92.828 M61.901,-92.619 C61.901,-92.608 61.901,-92.597 61.9,-92.586 M59.954,-82.64 C59.606,-82.674 59.261,-82.636 58.995,-82.532 58.728,-82.429 58.561,-82.27 58.532,-82.089 58.47,-81.713 59.006,-81.349 59.73,-81.277 60.453,-81.205 61.09,-81.452 61.152,-81.828 61.213,-82.204 60.677,-82.568 59.954,-82.64 Z M52.613,-84.906 L52.858,-88.154 M53.761,-88.005 C53.754,-88 53.75,-87.994 53.751,-87.988 M54.082,-87.787 C54.075,-87.783 54.071,-87.777 54.072,-87.771 M54.405,-87.569 C54.398,-87.564 54.394,-87.558 54.394,-87.552 M56.794,-80.133 L57.996,-80.849 M61.531,-80.349 C61.531,-80.349 61.577,-80.318 61.599,-80.301 61.624,-80.281 61.649,-80.261 61.673,-80.24 61.745,-80.177 61.805,-80.112 61.855,-80.045 61.97,-79.888 62.021,-79.724 62.004,-79.562 61.968,-79.236 61.656,-78.951 61.152,-78.783 60.648,-78.616 60.005,-78.584 59.397,-78.696 58.378,-78.885 57.649,-79.554 56.794,-80.133 56.831,-80.62 56.868,-81.103 56.904,-81.589 57.759,-81.01 58.488,-80.341 59.507,-80.152 60.115,-80.04 60.758,-80.072 61.262,-80.239 61.766,-80.407 62.078,-80.692 62.113,-81.018 62.136,-81.318 62.158,-81.615 62.181,-81.915 M68.988,-77.245 C68.856,-77.343 68.277,-77.103 67.561,-76.654 67.336,-76.512 67.132,-76.37 66.96,-76.232 66.929,-76.207 66.898,-76.182 66.867,-76.156 66.837,-76.13 66.807,-76.104 66.777,-76.077 66.715,-76.021 66.661,-76.017 66.638,-76.067 66.632,-76.08 66.625,-76.158 66.621,-76.256 66.617,-76.354 66.617,-76.445 66.621,-76.476 M83.897,-73.865 C83.779,-73.798 83.721,-73.633 83.747,-73.432 83.773,-73.23 83.879,-73.024 84.024,-72.891 84.168,-72.757 84.33,-72.718 84.448,-72.786 84.631,-72.893 84.656,-73.219 84.504,-73.516 84.352,-73.812 84.081,-73.969 83.897,-73.865 Z M77.383,-73.096 C76.543,-72.699 75.7,-72.301 74.86,-71.905 74.737,-71.846 74.537,-71.857 74.414,-71.928 74.146,-72.083 73.878,-72.238 73.61,-72.392 73.557,-72.423 73.528,-72.463 73.533,-72.503 73.541,-72.57 73.641,-72.619 73.77,-72.619 73.841,-72.619 73.913,-72.62 73.985,-72.623 74.127,-72.629 74.267,-72.641 74.403,-72.659 74.745,-72.705 75.057,-72.789 75.321,-72.905 75.691,-73.069 75.951,-73.291 76.07,-73.545 76.086,-73.58 76.101,-73.617 76.112,-73.654 76.198,-73.945 76.285,-74.237 76.372,-74.528 76.653,-75.471 77.924,-76.199 79.672,-76.418 81.238,-76.614 82.968,-76.373 84.287,-75.777 85.605,-75.18 86.34,-74.305 86.246,-73.443 86.169,-72.745 85.557,-72.123 84.546,-71.717 83.536,-71.311 82.214,-71.155 80.879,-71.286 79.895,-70.821 78.918,-70.36 77.935,-69.895 77.597,-70.091 77.257,-70.287 76.919,-70.482 76.857,-70.518 76.822,-70.563 76.822,-70.609 76.822,-70.654 76.856,-70.696 76.918,-70.725 77.755,-71.121 78.595,-71.517 79.432,-71.913 80.742,-71.515 82.275,-71.472 83.516,-71.796 84.757,-72.121 85.542,-72.77 85.605,-73.526 85.673,-74.335 84.908,-75.147 83.598,-75.654 82.289,-76.161 80.635,-76.285 79.265,-75.981 77.894,-75.676 77.015,-74.988 76.961,-74.178 76.937,-73.814 77.081,-73.442 77.383,-73.096 77.326,-72.351 77.271,-71.61 77.214,-70.865 M80.879,-71.286 L80.639,-68.105 M79.747,-69.777 C79.629,-69.843 79.47,-69.825 79.304,-69.728 79.139,-69.631 78.98,-69.463 78.864,-69.259 78.622,-68.836 78.625,-68.382 78.871,-68.244 79.116,-68.106 79.511,-68.338 79.753,-68.761 79.869,-68.964 79.934,-69.186 79.933,-69.376 79.932,-69.566 79.865,-69.711 79.747,-69.777 Z M77.935,-69.895 L77.695,-66.715 M91.637,-76.778 C91.825,-76.871 91.86,-77.191 91.715,-77.493 91.57,-77.794 91.3,-77.964 91.112,-77.871 91.01,-77.821 90.948,-77.7 90.944,-77.541 90.944,-77.528 90.944,-77.514 90.945,-77.5 90.95,-77.503 90.952,-77.52 90.953,-77.528 90.956,-77.54 90.959,-77.552 90.962,-77.563 90.966,-77.574 90.97,-77.585 90.975,-77.596 90.993,-77.637 91.019,-77.671 91.051,-77.693 91.108,-77.733 91.181,-77.739 91.259,-77.709 91.371,-77.667 91.48,-77.555 91.548,-77.412 91.617,-77.27 91.637,-77.114 91.601,-76.998 91.576,-76.918 91.526,-76.863 91.46,-76.842 91.422,-76.831 91.38,-76.831 91.337,-76.842 91.326,-76.845 91.315,-76.848 91.304,-76.852 91.293,-76.857 91.282,-76.861 91.271,-76.867 91.261,-76.872 91.242,-76.883 91.242,-76.883 91.237,-76.881 91.263,-76.859 91.277,-76.848 91.291,-76.838 91.304,-76.828 91.319,-76.819 91.347,-76.802 91.375,-76.788 91.403,-76.777 91.488,-76.745 91.569,-76.745 91.637,-76.778 Z M91.805,-76.858 C91.805,-76.858 91.818,-76.844 91.824,-76.837 91.838,-76.823 91.852,-76.809 91.867,-76.795 91.881,-76.781 91.895,-76.768 91.91,-76.755 91.924,-76.743 91.939,-76.73 91.954,-76.718 91.968,-76.706 91.983,-76.694 91.998,-76.683 92.088,-76.616 92.18,-76.563 92.272,-76.528 92.472,-76.452 92.663,-76.46 92.815,-76.551 93.195,-76.777 93.255,-77.451 92.951,-78.084 92.646,-78.718 92.086,-79.087 91.676,-78.923 91.511,-78.857 91.387,-78.71 91.323,-78.503 91.299,-78.424 91.283,-78.338 91.277,-78.245 91.273,-78.19 91.273,-78.133 91.276,-78.075 91.277,-78.055 91.278,-78.035 91.28,-78.016 91.282,-77.996 91.284,-77.976 91.287,-77.956 91.287,-77.955 91.287,-77.954 91.287,-77.954"/>
    </g>
  </g>
  <g id="C3DA0001" vm2d:name="Axials" vm2d:type="layer">
    <g id="WRAP_001" vm2d:name="" vm2d:type="grnode">
      <g transform="matrix(3.78235,0,0,3.78235,-0,839.841)" stroke-width="0.55" stroke-linecap="round" stroke-linejoin="round" stroke-miterlimit="10">
        <path stroke="#fff" d="M81.176,-72 L82.489,-89.503"/>
        <path stroke="#000" stroke-width="0.15" stroke-dasharray="6.35,0.635,1.27,0.635" d="M81.146,-71.601 L82.519,-89.902"/>
      </g>
    </g>
    <g id="WRAP_002" vm2d:name="" vm2d:type="grnode">
      <g transform="matrix(3.78235,0,0,3.78235,-0,839.841)" stroke-width="0.55" stroke-linecap="round" stroke-linejoin="round" stroke-miterlimit="10">
        <path stroke="#fff" d="M79.669,-51.919 L80.852,-67.685"/>
        <path stroke="#000" stroke-width="0.15" stroke-dasharray="6.35,0.635,1.27,0.635" d="M79.639,-51.52 L80.882,-68.084"/>
      </g>
    </g>
    <g id="WRAP_003" vm2d:name="" vm2d:type="grnode">
      <g transform="matrix(3.78235,0,0,3.78235,-0,839.841)" stroke-width="0.55" stroke-linecap="round" stroke-linejoin="round" stroke-miterlimit="10">
        <path stroke="#fff" d="M86.134,-65.13 L79.239,-69.111"/>
        <path stroke="#000" stroke-width="0.15" stroke-dasharray="6.35,0.635,1.27,0.635" d="M86.481,-64.93 L78.892,-69.311"/>
      </g>
    </g>
    <g id="WRAP_004" vm2d:name="" vm2d:type="grnode">
      <g transform="matrix(3.78235,0,0,3.78235,-0,839.841)" stroke-width="0.15" stroke-linecap="round" stroke-linejoin="round" stroke-miterlimit="10">
        <path fill="#fff" d="M78.18,-69.881 C78.18,-69.729 78.057,-69.606 77.905,-69.606 77.753,-69.606 77.63,-69.729 77.63,-69.881 77.63,-70.033 77.753,-70.156 77.905,-70.156 78.057,-70.156 78.18,-70.033 78.18,-69.881 Z"/>
        <path stroke="#000" stroke-dasharray="6.35,0.635,1.27,0.635" d="M77.933,-69.865 L77.905,-69.881"/>
      </g>
    </g>
    <g id="WRAP_005" vm2d:name="" vm2d:type="grnode">
      <g transform="matrix(3.78235,0,0,3.78235,-0,839.841)" stroke-width="0.55" stroke-linecap="round" stroke-linejoin="round" stroke-miterlimit="10">
        <path stroke="#fff" d="M76.468,-70.71 L75.941,-71.015"/>
        <path stroke="#000" stroke-width="0.15" stroke-dasharray="6.35,0.635,1.27,0.635" d="M76.815,-70.51 L75.595,-71.215"/>
      </g>
    </g>
    <g id="WRAP_006" vm2d:name="" vm2d:type="grnode">
      <g transform="matrix(3.78235,0,0,3.78235,-0,839.841)" stroke-width="0.55" stroke-linecap="round" stroke-linejoin="round" stroke-miterlimit="10">
        <path stroke="#fff" d="M73.18,-72.609 L68.152,-75.512"/>
        <path stroke="#000" stroke-width="0.15" stroke-dasharray="6.35,0.635,1.27,0.635" d="M73.526,-72.409 L67.806,-75.712"/>
      </g>
    </g>
    <g id="WRAP_007" vm2d:name="" vm2d:type="grnode">
      <g transform="matrix(3.78235,0,0,3.78235,-0,839.841)" stroke-width="0.55" stroke-linecap="round" stroke-linejoin="round" stroke-miterlimit="10">
        <path stroke="#fff" d="M66.271,-76.598 L60.576,-79.886"/>
        <path stroke="#000" stroke-width="0.15" stroke-dasharray="6.35,0.635,1.27,0.635" d="M66.618,-76.398 L60.23,-80.086"/>
      </g>
    </g>
    <g id="WRAP_008" vm2d:name="" vm2d:type="grnode">
      <g transform="matrix(3.78235,0,0,3.78235,-0,839.841)" stroke-width="0.55" stroke-linecap="round" stroke-linejoin="round" stroke-miterlimit="10">
        <path stroke="#fff" d="M59.87,-81.668 L60.546,-91.42"/>
        <path stroke="#000" stroke-width="0.15" stroke-dasharray="6.35,0.635,1.27,0.635" d="M59.842,-81.268 L60.574,-91.819"/>
      </g>
    </g>
    <g id="WRAP_009" vm2d:name="" vm2d:type="grnode">
      <g transform="matrix(3.78235,0,0,3.78235,-0,839.841)" stroke-width="0.55" stroke-linecap="round" stroke-linejoin="round" stroke-miterlimit="10">
        <path stroke="#fff" d="M86.412,-74.511 L90.481,-76.861"/>
        <path stroke="#000" stroke-width="0.15" stroke-dasharray="6.35,0.635,1.27,0.635" d="M86.066,-74.311 L90.827,-77.061"/>
      </g>
    </g>
    <g id="WRAP_010" vm2d:name="" vm2d:type="grnode">
      <g transform="matrix(3.78235,0,0,3.78235,-0,839.841)" stroke-width="0.15" stroke-linecap="round" stroke-linejoin="round" stroke-miterlimit="10">
        <path fill="#fff" d="M84.779,-73.41 C84.779,-73.258 84.656,-73.135 84.504,-73.135 84.353,-73.135 84.229,-73.258 84.229,-73.41 84.229,-73.562 84.353,-73.685 84.504,-73.685 84.656,-73.685 84.779,-73.562 84.779,-73.41 Z"/>
        <path stroke="#000" stroke-dasharray="6.35,0.635,1.27,0.635" d="M84.158,-73.21 L84.542,-73.432"/>
      </g>
    </g>
  </g>
  <g id="C3DC0001" vm2d:name="Callouts" vm2d:type="layer">
    <g>
      <g transform="matrix(3.78235,0,0,3.78235,-0,839.841)" stroke-width="0.85" stroke-linecap="round" stroke-linejoin="miter" stroke-miterlimit="10">
        <path stroke="#fff" d="M113.3,-86.682 L85.97,-70.673"/>
        <path stroke="#fff" stroke-width="0.7" stroke-linecap="butt" stroke-linejoin="round" d="M86.44,-70.673 C86.44,-70.414 86.23,-70.203 85.97,-70.203 85.711,-70.203 85.5,-70.414 85.5,-70.673 85.5,-70.933 85.711,-71.143 85.97,-71.143 86.23,-71.143 86.44,-70.933 86.44,-70.673 Z"/>
        <path stroke="#000" stroke-width="0.15" d="M113.3,-86.682 L85.97,-70.673"/>
        <path fill="#000" d="M86.44,-70.673 C86.44,-70.414 86.23,-70.203 85.97,-70.203 85.711,-70.203 85.5,-70.414 85.5,-70.673 85.5,-70.933 85.711,-71.143 85.97,-71.143 86.23,-71.143 86.44,-70.933 86.44,-70.673 Z"/>
        <text font-family="Arial" font-size="3.93" x="113.91" y="-87.3371" fill="#000">15</text>
      </g>
    </g>
    <a id="_3da08b52e8ade65ba9a07c02013f68dd" vm2d:name="15" vm2d:type="grobject" xlink:href="#">
      <path d="M428.55,496.73 L449.66,496.73 449.66,511.98 428.55,511.98 Z" fill="#fff" fill-opacity="0"/>
    </a>
    <g>
      <g transform="matrix(3.78235,0,0,3.78235,-0,839.841)" stroke-width="0.85" stroke-linecap="round" stroke-linejoin="miter" stroke-miterlimit="10">
        <path stroke="#fff" d="M38.321,-94.263 L51.538,-86.789"/>
        <path stroke="#fff" stroke-width="0.7" stroke-linecap="butt" stroke-linejoin="round" d="M52.008,-86.789 C52.008,-86.53 51.798,-86.319 51.538,-86.319 51.279,-86.319 51.068,-86.53 51.068,-86.789 51.068,-87.049 51.279,-87.259 51.538,-87.259 51.798,-87.259 52.008,-87.049 52.008,-86.789 Z"/>
        <path stroke="#000" stroke-width="0.15" d="M38.321,-94.263 L51.538,-86.789"/>
        <path fill="#000" d="M52.008,-86.789 C52.008,-86.53 51.798,-86.319 51.538,-86.319 51.279,-86.319 51.068,-86.53 51.068,-86.789 51.068,-87.049 51.279,-87.259 51.538,-87.259 51.798,-87.259 52.008,-87.049 52.008,-86.789 Z"/>
        <text font-family="Arial" font-size="3.93" x="33.3477" y="-94.9182" fill="#000">20</text>
      </g>
    </g>
    <a id="a30c0bb02dfa99a82eb77702b757452e" vm2d:name="20" vm2d:type="grobject" xlink:href="#">
      <path d="M123.84,468.05 L144.94,468.05 144.94,483.31 123.84,483.31 Z" fill="#fff" fill-opacity="0"/>
    </a>
    <g>
      <g transform="matrix(3.78235,0,0,3.78235,-0,839.841)" stroke-width="0.85" stroke-linecap="round" stroke-linejoin="miter" stroke-miterlimit="10">
        <path stroke="#fff" d="M113.3,-73.262 L93.475,-62.012"/>
        <path stroke="#fff" stroke-width="0.7" stroke-linecap="butt" stroke-linejoin="round" d="M93.945,-62.012 C93.945,-61.753 93.735,-61.542 93.475,-61.542 93.216,-61.542 93.005,-61.753 93.005,-62.012 93.005,-62.272 93.216,-62.482 93.475,-62.482 93.735,-62.482 93.945,-62.272 93.945,-62.012 Z"/>
        <path stroke="#000" stroke-width="0.15" d="M113.3,-73.262 L93.475,-62.012"/>
        <path fill="#000" d="M93.945,-62.012 C93.945,-61.753 93.735,-61.542 93.475,-61.542 93.216,-61.542 93.005,-61.753 93.005,-62.012 93.005,-62.272 93.216,-62.482 93.475,-62.482 93.735,-62.482 93.945,-62.272 93.945,-62.012 Z"/>
        <text font-family="Arial" font-size="3.93" x="113.91" y="-73.9171" fill="#000">25</text>
      </g>
    </g>
    <a id="_91701ff73d904e4d347e8a7f1776a25f" vm2d:name="25" vm2d:type="grobject" xlink:href="#">
      <path d="M428.55,547.49 L449.66,547.49 449.66,562.74 428.55,562.74 Z" fill="#fff" fill-opacity="0"/>
    </a>
    <g>
      <g transform="matrix(3.78235,0,0,3.78235,-0,839.841)" stroke-width="0.85" stroke-linecap="round" stroke-linejoin="miter" stroke-miterlimit="10">
        <path stroke="#fff" d="M49.418,-63.282 L66.263,-73.261"/>
        <path stroke="#fff" stroke-width="0.7" stroke-linecap="butt" stroke-linejoin="round" d="M66.733,-73.261 C66.733,-73.001 66.523,-72.791 66.263,-72.791 66.004,-72.791 65.793,-73.001 65.793,-73.261 65.793,-73.52 66.004,-73.731 66.263,-73.731 66.523,-73.731 66.733,-73.52 66.733,-73.261 Z"/>
        <path stroke="#000" stroke-width="0.15" d="M49.418,-63.282 L66.263,-73.261"/>
        <path fill="#000" d="M66.733,-73.261 C66.733,-73.001 66.523,-72.791 66.263,-72.791 66.004,-72.791 65.793,-73.001 65.793,-73.261 65.793,-73.52 66.004,-73.731 66.263,-73.731 66.523,-73.731 66.733,-73.52 66.733,-73.261 Z"/>
        <text font-family="Arial" font-size="3.93" x="44.4447" y="-59.9048" fill="#000">30</text>
      </g>
    </g>
    <a id="c85a607acdbc16e814b7fabe5fed7931" vm2d:name="30" vm2d:type="grobject" xlink:href="#">
      <path d="M165.81,600.49 L186.92,600.49 186.92,615.74 165.81,615.74 Z" fill="#fff" fill-opacity="0"/>
    </a>
    <g>
      <g transform="matrix(3.78235,0,0,3.78235,-0,839.841)" stroke-width="0.85" stroke-linecap="round" stroke-linejoin="miter" stroke-miterlimit="10">
        <path stroke="#fff" d="M38.321,-105.42 L58.873,-93.719"/>
        <path stroke="#fff" stroke-width="0.7" stroke-linecap="butt" stroke-linejoin="round" d="M59.343,-93.719 C59.343,-93.459 59.133,-93.249 58.873,-93.249 58.614,-93.249 58.403,-93.459 58.403,-93.719 58.403,-93.978 58.614,-94.189 58.873,-94.189 59.133,-94.189 59.343,-93.978 59.343,-93.719 Z"/>
        <path stroke="#000" stroke-width="0.15" d="M38.321,-105.42 L58.873,-93.719"/>
        <path fill="#000" d="M59.343,-93.719 C59.343,-93.459 59.133,-93.249 58.873,-93.249 58.614,-93.249 58.403,-93.459 58.403,-93.719 58.403,-93.978 58.614,-94.189 58.873,-94.189 59.133,-94.189 59.343,-93.978 59.343,-93.719 Z"/>
        <text font-family="Arial" font-size="3.93" x="33.3477" y="-106.074" fill="#000">35</text>
      </g>
    </g>
    <a id="a2b5541697c9e12ee9ab8dc7928f614e" vm2d:name="35" vm2d:type="grobject" xlink:href="#">
      <path d="M123.84,425.86 L144.94,425.86 144.94,441.11 123.84,441.11 Z" fill="#fff" fill-opacity="0"/>
    </a>
    <g>
      <g transform="matrix(3.78235,0,0,3.78235,-0,839.841)" stroke-width="0.85" stroke-linecap="round" stroke-linejoin="miter" stroke-miterlimit="10">
        <path stroke="#fff" d="M113.3,-91.417 L91.385,-78.78"/>
        <path stroke="#fff" stroke-width="0.7" stroke-linecap="butt" stroke-linejoin="round" d="M91.855,-78.78 C91.855,-78.521 91.644,-78.31 91.385,-78.31 91.125,-78.31 90.915,-78.521 90.915,-78.78 90.915,-79.04 91.125,-79.25 91.385,-79.25 91.644,-79.25 91.855,-79.04 91.855,-78.78 Z"/>
        <path stroke="#000" stroke-width="0.15" d="M113.3,-91.417 L91.385,-78.78"/>
        <path fill="#000" d="M91.855,-78.78 C91.855,-78.521 91.644,-78.31 91.385,-78.31 91.125,-78.31 90.915,-78.521 90.915,-78.78 90.915,-79.04 91.125,-79.25 91.385,-79.25 91.644,-79.25 91.855,-79.04 91.855,-78.78 Z"/>
        <text font-family="Arial" font-size="3.93" x="113.91" y="-92.0723" fill="#000">40</text>
      </g>
    </g>
    <a id="_0c325b3a0f28bcfe308c2864b04418ef" vm2d:name="40" vm2d:type="grobject" xlink:href="#">
      <path d="M428.55,478.82 L449.66,478.82 449.66,494.07 428.55,494.07 Z" fill="#fff" fill-opacity="0"/>
    </a>
    <g>
      <g transform="matrix(3.78235,0,0,3.78235,-0,839.841)" stroke-width="0.85" stroke-linecap="round" stroke-linejoin="miter" stroke-miterlimit="10">
        <path stroke="#fff" d="M113.3,-60.272 L81.919,-40.708"/>
        <path stroke="#fff" stroke-width="0.7" stroke-linecap="butt" stroke-linejoin="round" d="M82.389,-40.708 C82.389,-40.448 82.179,-40.238 81.919,-40.238 81.66,-40.238 81.449,-40.448 81.449,-40.708 81.449,-40.967 81.66,-41.178 81.919,-41.178 82.179,-41.178 82.389,-40.967 82.389,-40.708 Z"/>
        <path stroke="#000" stroke-width="0.15" d="M113.3,-60.272 L81.919,-40.708"/>
        <path fill="#000" d="M82.389,-40.708 C82.389,-40.448 82.179,-40.238 81.919,-40.238 81.66,-40.238 81.449,-40.448 81.449,-40.708 81.449,-40.967 81.66,-41.178 81.919,-41.178 82.179,-41.178 82.389,-40.967 82.389,-40.708 Z"/>
        <text font-family="Arial" font-size="3.93" x="113.91" y="-60.9269" fill="#000">45</text>
      </g>
    </g>
    <a id="_4963b3bed2e7fbef86c0ac7f3d782a1b" vm2d:name="45" vm2d:type="grobject" xlink:href="#">
      <path d="M428.55,596.62 L449.66,596.62 449.66,611.87 428.55,611.87 Z" fill="#fff" fill-opacity="0"/>
    </a>
    <g>
      <g transform="matrix(3.78235,0,0,3.78235,-0,839.841)" stroke-width="0.85" stroke-linecap="round" stroke-linejoin="miter" stroke-miterlimit="10">
        <path stroke="#fff" d="M115.26,-163.45 L105.08,-157.46"/>
        <path stroke="#fff" stroke-width="0.7" stroke-linecap="butt" stroke-linejoin="round" d="M105.55,-157.46 C105.55,-157.2 105.34,-156.99 105.08,-156.99 104.82,-156.99 104.61,-157.2 104.61,-157.46 104.61,-157.72 104.82,-157.93 105.08,-157.93 105.34,-157.93 105.55,-157.72 105.55,-157.46 Z"/>
        <path stroke="#000" stroke-width="0.15" d="M115.26,-163.45 L105.08,-157.46"/>
        <path fill="#000" d="M105.55,-157.46 C105.55,-157.2 105.34,-156.99 105.08,-156.99 104.82,-156.99 104.61,-157.2 104.61,-157.46 104.61,-157.72 104.82,-157.93 105.08,-157.93 105.34,-157.93 105.55,-157.72 105.55,-157.46 Z"/>
        <text font-family="Arial" font-size="3.93" x="115.869" y="-164.109" fill="#000">5</text>
      </g>
    </g>
    <a id="be926ad3a2cc13de84d172efcf3bfd0b" vm2d:name="5" vm2d:type="grobject" xlink:href="#">
      <path d="M435.96,206.35 L448.81,206.35 448.81,221.6 435.96,221.6 Z" fill="#fff" fill-opacity="0"/>
    </a>
    <g transform="matrix(3.78235,0,0,3.78235,-0,839.841)" stroke-width="0.15" stroke-linecap="round" stroke-linejoin="round" stroke-miterlimit="10">
      <path stroke="#000" d="M73.559,-29.382 C74.189,-28.427 74.848,-27.68 76,-27.534 77.152,-27.387 79.473,-28.653 80.5,-28.711 81.527,-28.77 82.195,-28.182 82.185,-27.883 82.175,-27.584 81.118,-26.915 80.44,-26.919 79.763,-26.923 78.929,-27.417 78.096,-27.911"/>
    </g>
  </g>
  <g id="C3DP0001" vm2d:name="Panels" vm2d:type="layer"/>
  <g id="IsoG212" vm2d:name="" vm2d:type="grnode">
    <g id="g41" vm2d:name="" vm2d:type="grnode">
      <g transform="matrix(3.78235,0,0,3.78235,-0,839.841)">
        <path fill="#fff" d="M83.109,-203.19 L89.11,-203.19 89.11,-197.19 83.109,-197.19 83.109,-203.19 Z"/>
        <path fill="#000" d="M83.309,-202.99 L88.911,-202.99 88.911,-197.39 83.309,-197.39 83.309,-202.99 Z"/>
        <path fill="#fff" d="M83.509,-202.79 L88.71,-202.79 88.71,-197.59 83.509,-197.59 83.509,-202.79 Z"/>
        <path fill="#000" d="M86.568,-199.82 L86.082,-201.13 85.604,-199.82 85.385,-199.23 85.094,-198.42 84.335,-198.42 85.713,-201.96 86.469,-201.96 87.882,-198.42 87.107,-198.42 86.798,-199.23 85.385,-199.23 85.604,-199.82 86.568,-199.82 Z"/>
      </g>
    </g>
  </g>
</svg>
