<svg xmlns="http://www.w3.org/2000/svg" xmlns:vm2d="http://www.cortona3d.com/vm2d" width="170mm" height="210mm" fill="none" fill-rule="evenodd" stroke-miterlimit="5" viewBox="0 0 964 1191"><desc>&quot;Generator:ParallelGraphics Cortona2D&quot;,&quot;ProfileId:WebCGM&quot;&quot;ProfileEd:2.1&quot;&quot;ColourClass:colour&quot;&quot;Source:Cortona2D Editor Pro 14.2.0.142&quot;&quot;Date:20241122&quot;&quot;Company:PIK&quot;</desc><path fill="#fff" d="M0 0h964v1191H0z"/><g stroke-linecap="round" stroke-linejoin="round" stroke-miterlimit="10" stroke-width=".18"><text x="114.506" y="-131.711" fill="#000" font-family="Arial" font-size="3.49" transform="translate(0 1190.91)scale(5.67059)">MTPM-A-B0-21-01-00A-040A-A</text><path stroke="#000" stroke-width="1.0207062" d="M651.324 448.233h54.494m8.903 0h12.135m190.078 0h12.135m-193.31 0h75.702m11.795 0h33.627m-178.34 0v28.24H34.927"/><text x="6.227" y="-127.377" fill="#000" font-family="Arial" font-size="3.03" transform="translate(0 1190.91)scale(5.67059)">Код основного изделия</text><text x="6.312" y="-123.108" fill="#000" font-family="Arial" font-size="2.07" transform="translate(0 1190.91)scale(5.67059)">MTGA — Подъемник модулей</text><text x="6.312" y="-118.359" fill="#000" font-family="Arial" font-size="2.07" transform="translate(0 1190.91)scale(5.67059)">MTPM — Линейная траверса</text><text x="6.312" y="-120.733" fill="#000" font-family="Arial" font-size="2.07" transform="translate(0 1190.91)scale(5.67059)">MTPA — Механизированная траверса</text><path stroke="#000" stroke-width="1.0207062" d="M865.049 448.233h44.514m-188.774 0V555.35H34.927"/><text xml:space="preserve" x="6.319" y="-113.422" fill="#000" font-family="Arial" font-size="3.03" transform="translate(0 1190.91)scale(5.67059)">Отличительный код изделия (системы) </text><text x="6.292" y="-109.117" fill="#000" font-family="Arial" font-size="2.2" transform="translate(0 1190.91)scale(5.67059)">Используется в случае применения изделия того же функционального назначения, но отличающегося составом</text><text xml:space="preserve" x="6.379" y="-106.584" fill="#000" font-family="Arial" font-size="2.2" transform="translate(0 1190.91)scale(5.67059)">сборочных единиц </text><text x="8.109" y="-100.249" fill="#000" font-family="Arial" font-size="3.49" transform="translate(0 1190.91)scale(5.67059)">Код изделия (системы) по СНК</text><text x="9.225" y="-74.297" fill="#000" font-family="Arial" font-size="3.03" transform="translate(0 1190.91)scale(5.67059)">Пример структуры СНК:</text><path stroke="#000" stroke-width="1.0207062" d="M840.098 448.233v554.408H34.928"/><text xml:space="preserve" x="6.227" y="-34.584" fill="#000" font-family="Arial" font-size="3.03" transform="translate(0 1190.91)scale(5.67059)">Код демонтажа и вариант кода демонтажа </text><path stroke="#000" stroke-width="1.0207062" d="M887.334 448.233v607.116H34.927"/><text x="6.227" y="-25.29" fill="#000" font-family="Arial" font-size="3.03" transform="translate(0 1190.91)scale(5.67059)">Информационный код и вариант информационного кода</text><text x="6.358" y="-20.919" fill="#000" font-family="Arial" font-size="2.2" transform="translate(0 1190.91)scale(5.67059)">Определяет тип информации, содержащийся в модуле данных, например:</text><text x="6.358" y="-17.507" fill="#000" font-family="Arial" font-size="2.2" transform="translate(0 1190.91)scale(5.67059)">028А — Общие сведения</text><text x="6.358" y="-14.974" fill="#000" font-family="Arial" font-size="2.2" transform="translate(0 1190.91)scale(5.67059)">041А — Описание</text><text x="6.358" y="-12.441" fill="#000" font-family="Arial" font-size="2.2" transform="translate(0 1190.91)scale(5.67059)">311А — Осмотр</text><text x="6.358" y="-9.907" fill="#000" font-family="Arial" font-size="2.2" transform="translate(0 1190.91)scale(5.67059)">922А — Демонтаж и монтаж</text><path stroke="#000" stroke-width="1.0207062" d="M923.002 448.233v721.879H34.927"/><text xml:space="preserve" x="6.227" y="-5.05" fill="#000" font-family="Arial" font-size="3.03" transform="translate(0 1190.91)scale(5.67059)">Код расположения изделия </text><text x="6.468" y="-.708" fill="#000" font-family="Arial" font-size="2.2" transform="translate(0 1190.91)scale(5.67059)">А — информация относится к изделиям, установленным на основном изделии</text><text xml:space="preserve" x="6.292" y="-30.242" fill="#000" font-family="Arial" font-size="2.2" transform="translate(0 1190.91)scale(5.67059)">Используется для кодирования компонента внутри изделия и указания на альтернативные составные части изделия </text><path stroke="#000" stroke-width="1.9847064999999997" d="M35.551 631.5h306.21v-28.347m-306.21 0v365.198h514.791V603.153z"/><path stroke="#000" stroke-width="1.0207062" d="M550.342 785.746H773.64V448.233"/><text x="80.55" y="-100.196" fill="#000" font-family="Arial" font-size="3.49" transform="translate(0 1190.91)scale(5.67059)">B0-21-01</text><path stroke="#000" stroke-width="1.0207062" d="M458.728 626.941h21.605m8.024 0h8.982m3.6 0h5.615m10.808 0h16.615"/><text xml:space="preserve" x="9.352" y="-94.662" fill="#000" font-family="Arial" font-size="2.2" transform="translate(0 1190.91)scale(5.67059)">Система (Раздел) </text><text xml:space="preserve" x="9.29" y="-89.748" fill="#000" font-family="Arial" font-size="2.2" transform="translate(0 1190.91)scale(5.67059)">Подсистема (Подраздел) </text><text xml:space="preserve" x="9.352" y="-84.824" fill="#000" font-family="Arial" font-size="2.2" transform="translate(0 1190.91)scale(5.67059)">Субподсистема (Подподраздел) </text><text xml:space="preserve" x="9.288" y="-79.922" fill="#000" font-family="Arial" font-size="2.2" transform="translate(0 1190.91)scale(5.67059)">Изделие (Компонент) </text><path stroke="#000" stroke-width="1.0207062" d="M469.53 626.941v32.913H51.92m440.928-32.913v60.772H51.92m451.827-60.772v88.632H51.92m473.75-88.643v116.502H51.92M238.755 783.28h95.044v33.847h-95.044ZM182.134 828.826h95.044v33.842h-95.044Z"/><text x="45.576" y="-68.878" fill="#000" font-family="Arial" font-size="2.34" font-weight="bold" transform="translate(0 1190.91)scale(5.67059)">B0</text><text x="48.568" y="-68.878" fill="#000" font-family="Arial" font-size="2.34" transform="translate(0 1190.91)scale(5.67059)">-00-00</text><text x="46.461" y="-67.501" fill="#000" font-family="Arial" font-size="1.24" transform="translate(0 1190.91)scale(5.67059)">(Конструкция)</text><text x="35.656" y="-60.847" fill="#000" font-family="Arial" font-size="2.34" transform="translate(0 1190.91)scale(5.67059)">B0-</text><text x="39.298" y="-60.847" fill="#000" font-family="Arial" font-size="2.34" font-weight="bold" transform="translate(0 1190.91)scale(5.67059)">20</text><text x="41.901" y="-60.847" fill="#000" font-family="Arial" font-size="2.34" transform="translate(0 1190.91)scale(5.67059)">-00</text><text x="33.016" y="-59.47" fill="#000" font-family="Arial" font-size="1.24" transform="translate(0 1190.91)scale(5.67059)">(Подвижные конструкции)</text><text x="25.67" y="-52.815" fill="#000" font-family="Arial" font-size="2.34" transform="translate(0 1190.91)scale(5.67059)">B0-</text><text x="29.313" y="-52.815" fill="#000" font-family="Arial" font-size="2.34" font-weight="bold" transform="translate(0 1190.91)scale(5.67059)">21</text><text x="31.916" y="-52.815" fill="#000" font-family="Arial" font-size="2.34" transform="translate(0 1190.91)scale(5.67059)">-00</text><text x="25.267" y="-51.438" fill="#000" font-family="Arial" font-size="1.24" transform="translate(0 1190.91)scale(5.67059)">(Рама подвижная)</text><text x="45.705" y="-52.815" fill="#000" font-family="Arial" font-size="2.34" transform="translate(0 1190.91)scale(5.67059)">B0-</text><text x="49.347" y="-52.815" fill="#000" font-family="Arial" font-size="2.34" font-weight="bold" transform="translate(0 1190.91)scale(5.67059)">22</text><text x="51.951" y="-52.815" fill="#000" font-family="Arial" font-size="2.34" transform="translate(0 1190.91)scale(5.67059)">-00</text><text x="45.451" y="-51.438" fill="#000" font-family="Arial" font-size="1.24" transform="translate(0 1190.91)scale(5.67059)">(Опора колесная)</text><text x="55.626" y="-60.847" fill="#000" font-family="Arial" font-size="2.34" transform="translate(0 1190.91)scale(5.67059)">B0-</text><text x="59.268" y="-60.847" fill="#000" font-family="Arial" font-size="2.34" font-weight="bold" transform="translate(0 1190.91)scale(5.67059)">30</text><text x="61.872" y="-60.847" fill="#000" font-family="Arial" font-size="2.34" transform="translate(0 1190.91)scale(5.67059)">-00</text><text x="56.864" y="-59.47" fill="#000" font-family="Arial" font-size="1.24" transform="translate(0 1190.91)scale(5.67059)">(Основание)</text><path stroke="#000" stroke-width="1.0207062" d="M286.28 817.127v5.847m-56.627 39.694v5.852m-56.62 39.694v5.852M68.892 919.913h95.04v33.847h-95.04Z"/><text x="15.819" y="-44.783" fill="#000" font-family="Arial" font-size="2.34" transform="translate(0 1190.91)scale(5.67059)">B0-21-</text><text x="22.845" y="-44.783" fill="#000" font-family="Arial" font-size="2.34" font-weight="bold" transform="translate(0 1190.91)scale(5.67059)">01</text><text x="18.359" y="-43.406" fill="#000" font-family="Arial" font-size="1.24" transform="translate(0 1190.91)scale(5.67059)">(Балка)</text><text x="35.753" y="-44.783" fill="#000" font-family="Arial" font-size="2.34" transform="translate(0 1190.91)scale(5.67059)">B0-21-</text><text x="42.778" y="-44.783" fill="#000" font-family="Arial" font-size="2.34" font-weight="bold" transform="translate(0 1190.91)scale(5.67059)">02</text><text x="35.498" y="-43.406" fill="#000" font-family="Arial" font-size="1.24" transform="translate(0 1190.91)scale(5.67059)">(Сварной подвес)</text><path stroke="#000" stroke-width="1.0207062" d="M295.381 828.826h95.04v33.842h-95.04ZM239.123 874.372h95.04v33.842h-95.04ZM125.513 874.372h95.039v33.842h-95.04ZM182.672 919.913h95.04v33.847h-95.04Z"/><path stroke="#000" stroke-dasharray="8.1656496,2.0414124" stroke-width="1.0207062" d="m358.54 823.615 158.465-.641M358.54 868.52h158.465M358.54 914.066h158.465"/><text xml:space="preserve" x="75.029" y="-53.523" fill="#000" font-family="Arial" font-size="2.2" transform="translate(0 1190.91)scale(5.67059)">Субподсистема </text><text xml:space="preserve" x="74.88" y="-51.001" fill="#000" font-family="Arial" font-size="2.2" transform="translate(0 1190.91)scale(5.67059)">(Подподраздел) </text><text xml:space="preserve" x="78.643" y="-45.529" fill="#000" font-family="Arial" font-size="2.2" transform="translate(0 1190.91)scale(5.67059)">Изделие </text><text xml:space="preserve" x="76.731" y="-42.969" fill="#000" font-family="Arial" font-size="2.2" transform="translate(0 1190.91)scale(5.67059)">(Компонент) </text><text xml:space="preserve" x="76.792" y="-61.592" fill="#000" font-family="Arial" font-size="2.2" transform="translate(0 1190.91)scale(5.67059)">Подсистема </text><text xml:space="preserve" x="76.707" y="-59.032" fill="#000" font-family="Arial" font-size="2.2" transform="translate(0 1190.91)scale(5.67059)">(Подраздел) </text><text xml:space="preserve" x="78.602" y="-69.597" fill="#000" font-family="Arial" font-size="2.2" transform="translate(0 1190.91)scale(5.67059)">Система </text><text xml:space="preserve" x="78.644" y="-67.064" fill="#000" font-family="Arial" font-size="2.2" transform="translate(0 1190.91)scale(5.67059)">(Раздел) </text><path stroke="#000" stroke-width="1.0207062" d="M116.412 919.913v-5.847h113.78v5.847m-57.16-45.541v-5.852h113.61v5.852m-56.989-45.546v-5.852h113.248v5.852"/><text x="114.506" y="-196.259" fill="#000" font-family="Arial" font-size="3.49" transform="translate(0 1190.91)scale(5.67059)">MTPM-UNITS-MM000-00</text><path stroke="#000" stroke-width="1.0207062" d="M651.324 82.026h54.494m10.774 0h54.552m10.717 0h63.284m9.13 0H873.1m-194.558 0v28.183H34.927"/><text x="6.227" y="-191.958" fill="#000" font-family="Arial" font-size="3.03" transform="translate(0 1190.91)scale(5.67059)">Код основного изделия</text><text x="6.312" y="-187.689" fill="#000" font-family="Arial" font-size="2.07" transform="translate(0 1190.91)scale(5.67059)">MTGA — Подъемник модулей</text><text x="6.312" y="-167.81" fill="#000" font-family="Arial" font-size="2.07" transform="translate(0 1190.91)scale(5.67059)">LOAP0 — Ведомость эксплуатационных документов (List Of Applicable Publications)</text><text x="6.312" y="-182.94" fill="#000" font-family="Arial" font-size="2.07" transform="translate(0 1190.91)scale(5.67059)">MTPM — Линейная траверса</text><text x="6.312" y="-163.06" fill="#000" font-family="Arial" font-size="2.07" transform="translate(0 1190.91)scale(5.67059)">MS005 — Регламент технического обслуживания (Maintenance Management System)</text><text x="6.312" y="-160.686" fill="#000" font-family="Arial" font-size="2.07" transform="translate(0 1190.91)scale(5.67059)">IPС00 — Каталог сборочных деталей и единиц (Illustrated Parts Catalog)</text><text x="6.312" y="-185.315" fill="#000" font-family="Arial" font-size="2.07" transform="translate(0 1190.91)scale(5.67059)">MTPA — Механизированная траверса</text><text x="6.312" y="-165.435" fill="#000" font-family="Arial" font-size="2.07" transform="translate(0 1190.91)scale(5.67059)">MM000 — Руководство по технической эксплуатации (Maintenance Manual)</text><path stroke="#000" stroke-width="1.0207062" d="M743.868 82.026v107.118H34.928"/><text x="6.227" y="-178.003" fill="#000" font-family="Arial" font-size="3.03" transform="translate(0 1190.91)scale(5.67059)">Код издающей организации</text><text x="6.469" y="-172.041" fill="#000" font-family="Arial" font-size="3.03" transform="translate(0 1190.91)scale(5.67059)">Аббревиатура документа</text><path stroke="#000" stroke-width="1.0207062" d="M813.503 82.026V222.94H34.928m828.76-140.914v233.458H34.928"/><text x="6.227" y="-155.761" fill="#000" font-family="Arial" font-size="3.03" transform="translate(0 1190.91)scale(5.67059)">Код основного изделия</text><text x="6.351" y="-151.493" fill="#000" font-family="Arial" font-size="2.07" transform="translate(0 1190.91)scale(5.67059)">Номер книг используется в тех случаях, когда документ разбит на книги:</text><text x="6.351" y="-149.118" fill="#000" font-family="Arial" font-size="2.07" transform="translate(0 1190.91)scale(5.67059)">00 — Устанавливается в том случае, если книга содержит только одну часть</text><text x="6.351" y="-146.743" fill="#000" font-family="Arial" font-size="2.07" transform="translate(0 1190.91)scale(5.67059)">01 — Устанавливается для первой части книги, состоящей из нескольких частей</text><text x="6.351" y="-144.369" fill="#000" font-family="Arial" font-size="2.07" transform="translate(0 1190.91)scale(5.67059)">99 — Используется для листа утверждения</text></g><g vm2d:type="grnode"><g vm2d:type="grnode" stroke-miterlimit="10" stroke-width=".5"><path fill="#fff" stroke="#000" stroke-width="2.835295" d="M462.153 7.174h39.694v39.694h-39.694Z"/><text x="83.353" y="-203.48" fill="#000" font-family="Arial" font-size="4.88" transform="translate(0 1190.91)scale(5.67059)">А</text></g><text x="72.274" y="-197.988" fill="#000" font-family="Arial" font-size="2.79" transform="translate(0 1190.91)scale(5.67059)">(КОД ДОКУМЕНТА)</text></g><g vm2d:type="grnode"><g vm2d:type="grnode" stroke-miterlimit="10" stroke-width=".5"><path fill="#fff" stroke="#000" stroke-width="2.835295" d="M462.153 383.872h39.694v39.694h-39.694Z"/><text x="83.265" y="-137.048" fill="#000" font-family="Arial" font-size="4.88" transform="translate(0 1190.91)scale(5.67059)">Б</text></g><text x="68.472" y="-131.556" fill="#000" font-family="Arial" font-size="2.79" transform="translate(0 1190.91)scale(5.67059)">(КОД МОДУЛЯ ДАННЫХ)</text></g></svg>