<?xml version="1.0" encoding="UTF-8" standalone="no"?>
<!DOCTYPE svg SYSTEM "http://www.w3.org/Graphics/SVG/1.1/DTD/svg11.dtd" [
<!ENTITY % SVG.External.attrib
"xmlns:vm2d CDATA #FIXED 'http://www.cortona3d.com/vm2d'
vm2d:name CDATA #IMPLIED
vm2d:type CDATA #IMPLIED">
]>
<svg xmlns="http://www.w3.org/2000/svg" xmlns:vm2d="http://www.cortona3d.com/vm2d" xmlns:xlink="http://www.w3.org/1999/xlink" version="1.1" width="170mm" height="222mm" viewBox="0 0 643 840" fill="none" fill-rule="evenodd" stroke-miterlimit="5">
  <title>Untitled</title>
  <desc>"Generator:ParallelGraphics Cortona2D","ProfileId:WebCGM""ProfileEd:2.1""ColourClass:colour""Source:Cortona2D Editor Pro 14.2.0.142""Date:20250507"</desc>
  <rect width="643" height="840" fill="#fff"/>
  <defs/>
  <g id="C3DB0001" vm2d:name="Background" vm2d:type="layer"/>
  <g id="C3DG0001" vm2d:name="Drawing" vm2d:type="layer">
    <g transform="matrix(3.78235,0,0,3.78235,-0,839.841)" stroke-width="0.18" stroke-linecap="round" stroke-linejoin="round" stroke-miterlimit="10">
      <path stroke="#000" d="M84.526,-41.342 C84.526,-41.342 82.953,-39.901 82.167,-39.183 81.943,-38.978 81.607,-38.913 81.246,-39.003 80.886,-39.093 80.536,-39.331 80.289,-39.654 79.834,-40.248 79.817,-40.955 80.25,-41.351 81.104,-42.133 82.816,-43.699 82.816,-43.699 M83.129,-145.63 C83.129,-146.14 82.885,-146.71 82.468,-147.16 82.052,-147.62 81.508,-147.91 80.995,-147.96 80.127,-148.03 79.571,-147.39 79.716,-146.48 79.861,-145.57 80.659,-144.7 81.55,-144.48 82.442,-144.26 83.128,-144.76 83.129,-145.63 Z M81.656,-146.21 L81.506,-146.07 81.506,-145.23 81.315,-145.3 81.316,-146.13 81.507,-146.31 M81.316,-146.13 L80.457,-146.42 80.457,-146.6 81.316,-146.32 81.507,-146.49 M83.126,-145.93 L83.129,-145.63 M81.314,-147.92 L80.995,-147.96 M66.529,-156.02 C66.529,-156.02 66.44,-156.14 66.393,-156.2 66.365,-156.23 66.334,-156.27 66.303,-156.3 66.199,-156.41 66.065,-156.43 65.923,-156.41 65.722,-156.38 65.521,-156.35 65.321,-156.31 65.232,-156.3 65.141,-156.25 65.072,-156.17 65.003,-156.09 64.962,-155.99 64.961,-155.9 64.951,-154.81 64.95,-153.72 64.96,-152.63 64.961,-152.42 65.182,-152.1 65.56,-151.75 65.938,-151.41 66.434,-151.08 66.912,-150.85 67.946,-150.36 69.248,-150.07 70.613,-150.02 71.399,-149.99 72.161,-150.1 72.942,-150.15 73.14,-150.16 73.339,-150.17 73.537,-150.17 73.736,-150.18 73.935,-150.17 74.134,-150.16 74.327,-150.16 74.713,-150.12 74.713,-150.12 M94.453,-143.33 C94.453,-143.33 94.614,-143.14 94.684,-143.04 94.751,-142.94 94.804,-142.84 94.863,-142.74 95.017,-142.48 95.169,-142.24 95.381,-142.02 95.804,-141.59 96.275,-141.25 96.818,-140.98 97.748,-140.52 98.746,-140.3 99.764,-140.16 100.17,-140.11 100.83,-140.08 101.35,-140.1 101.53,-140.1 101.7,-140.12 101.87,-140.13 101.88,-140.13 101.89,-140.13 101.89,-140.13 102.03,-140.16 102.1,-140.16 102.19,-140.28 102.23,-140.33 102.25,-140.38 102.27,-140.44 102.29,-140.46 102.29,-140.49 102.29,-140.51 102.29,-141.6 102.29,-142.7 102.29,-143.79 102.29,-143.83 102.29,-143.94 102.26,-143.98 102.26,-144 102.2,-144.17 102.12,-144.36 102.12,-144.37 102.11,-144.38 102.11,-144.38 102.07,-144.43 102.04,-144.48 102,-144.51 101.8,-144.67 101.48,-144.59 101.26,-144.59 101.12,-144.58 100.97,-144.58 100.83,-144.58 100.68,-144.59 100.54,-144.59 100.39,-144.6 100.25,-144.61 99.965,-144.64 99.965,-144.64 M70.071,-154.55 C70.071,-154.55 70.274,-154.53 70.376,-154.52 70.478,-154.52 70.581,-154.51 70.683,-154.51 70.785,-154.5 70.888,-154.5 70.991,-154.5 71.094,-154.5 71.197,-154.5 71.299,-154.51 71.401,-154.51 71.504,-154.51 71.606,-154.52 71.708,-154.53 71.911,-154.54 71.911,-154.54 M75.729,-156.35 C75.729,-156.35 75.704,-156.3 75.689,-156.28 75.657,-156.23 75.623,-156.18 75.587,-156.13 75.557,-156.09 75.492,-156.01 75.492,-156.01 M85.294,-148.54 C85.296,-148.5 85.293,-148.46 85.291,-148.41 85.288,-148.37 85.286,-148.33 85.286,-148.29 85.285,-147.2 85.285,-146.11 85.284,-145.02 85.284,-144.99 85.286,-144.96 85.289,-144.92 85.291,-144.9 85.294,-144.88 85.292,-144.85 85.293,-144.61 85.295,-144.37 85.29,-144.13 85.289,-144.07 85.258,-144.02 85.204,-143.97 84.87,-143.66 84.535,-143.35 84.196,-143.04 84.146,-143 84.06,-142.99 83.98,-143.01 82.454,-143.52 80.924,-144.02 79.4,-144.53 79.31,-144.56 79.261,-144.64 79.26,-144.75 79.26,-146.45 79.258,-148.15 79.263,-149.85 79.264,-149.9 79.295,-149.96 79.349,-150.01 79.683,-150.31 80.02,-150.62 80.357,-150.93 80.377,-150.95 80.446,-150.97 80.46,-150.97 80.485,-150.98 80.511,-150.97 80.536,-150.96 80.549,-150.96 80.561,-150.96 80.573,-150.96 82.099,-150.46 83.63,-149.95 85.154,-149.44 85.222,-149.42 85.227,-149.39 85.265,-149.34 85.289,-149.3 85.292,-149.26 85.293,-149.22 85.294,-148.99 85.295,-148.77 85.294,-148.54 Z M69.935,-156.41 C69.935,-156.41 69.989,-156.33 70.026,-156.3 70.069,-156.26 70.121,-156.24 70.175,-156.22 70.224,-156.21 70.278,-156.21 70.33,-156.21 70.378,-156.21 70.474,-156.21 70.474,-156.21 M80.455,-151.9 L80.492,-151.69 M80.923,-150.91 C80.923,-150.91 80.795,-151.07 80.74,-151.15 80.68,-151.24 80.627,-151.34 80.581,-151.44 80.538,-151.54 80.502,-151.64 80.475,-151.74 M79.262,-147.98 C79.262,-147.98 79.245,-148.02 79.234,-148.04 79.172,-148.14 79.027,-148.33 79.027,-148.33 M91.316,-151.2 C91.316,-151.2 91.296,-151.16 91.284,-151.14 91.229,-151.06 91.101,-150.9 91.101,-150.9 M85.292,-144.82 C85.292,-144.82 85.366,-144.82 85.404,-144.82 85.528,-144.82 85.652,-144.81 85.776,-144.81 85.9,-144.81 86.025,-144.81 86.149,-144.81 86.398,-144.81 86.646,-144.82 86.893,-144.84 87.145,-144.86 87.476,-144.89 87.659,-144.92 87.847,-144.95 88.227,-144.99 88.227,-144.99 M88.214,-144.99 C88.214,-144.99 88.601,-145.02 88.795,-145.03 88.993,-145.03 89.193,-145.04 89.391,-145.03 89.59,-145.03 89.789,-145.02 89.987,-145.01 90.172,-144.99 90.544,-144.95 90.544,-144.95 90.542,-144.95 90.918,-144.9 91.104,-144.87 91.286,-144.83 91.467,-144.8 91.647,-144.75 92.002,-144.66 92.341,-144.56 92.658,-144.43 92.976,-144.31 93.271,-144.17 93.538,-144.02 93.668,-143.94 93.795,-143.86 93.918,-143.77 94.034,-143.69 94.146,-143.6 94.253,-143.51 94.34,-143.43 94.5,-143.27 94.5,-143.27 M96.118,-147.03 C96.118,-147.03 96.126,-146.9 96.136,-146.84 96.139,-146.83 96.145,-146.8 96.145,-146.8 M96.529,-146.1 C96.529,-146.1 96.457,-146.19 96.424,-146.24 96.389,-146.28 96.356,-146.34 96.325,-146.39 96.238,-146.53 96.17,-146.69 96.128,-146.86 M100.21,-146.28 C100.21,-146.28 100.41,-146.29 100.51,-146.3 100.61,-146.3 100.71,-146.31 100.82,-146.31 100.92,-146.31 101.02,-146.31 101.12,-146.31 101.23,-146.31 101.33,-146.31 101.43,-146.3 101.53,-146.3 101.64,-146.29 101.74,-146.28 101.83,-146.28 102.02,-146.26 102.02,-146.26 102.01,-146.26 102.21,-146.23 102.31,-146.22 102.5,-146.19 102.69,-146.16 102.87,-146.11 103.25,-146.03 103.6,-145.93 103.92,-145.8 104.25,-145.67 104.55,-145.52 104.81,-145.36 104.94,-145.27 105.06,-145.19 105.17,-145.1 105.23,-145.05 105.28,-145.01 105.34,-144.96 105.38,-144.92 105.47,-144.83 105.47,-144.83 M107.07,-147.01 C107.07,-147.01 107.07,-145.61 107.06,-144.91 107.06,-144.82 107.02,-144.73 106.96,-144.65 106.89,-144.57 106.8,-144.51 106.71,-144.5 106.51,-144.46 106.3,-144.44 106.1,-144.41 105.96,-144.38 105.83,-144.41 105.72,-144.51 105.69,-144.54 105.66,-144.58 105.63,-144.61 105.59,-144.66 105.56,-144.72 105.52,-144.76 105.48,-144.81 105.39,-144.91 105.39,-144.91 M79.036,-148.32 C79.036,-148.32 78.918,-148.45 78.853,-148.52 78.754,-148.61 78.65,-148.7 78.541,-148.79 78.426,-148.88 78.306,-148.96 78.182,-149.04 77.801,-149.28 77.356,-149.49 76.863,-149.67 76.534,-149.78 76.186,-149.88 75.823,-149.95 75.64,-149.99 75.455,-150.03 75.27,-150.06 75.081,-150.08 74.701,-150.13 74.701,-150.13 M99.99,-144.64 C99.99,-144.64 99.719,-144.67 99.584,-144.7 99.45,-144.72 99.316,-144.74 99.184,-144.77 99.054,-144.8 98.924,-144.83 98.797,-144.86 98.588,-144.93 98.38,-144.99 98.173,-145.07 97.925,-145.15 97.539,-145.34 97.274,-145.5 97.14,-145.58 97.016,-145.67 96.901,-145.76 96.845,-145.8 96.79,-145.85 96.736,-145.89 96.685,-145.94 96.635,-145.99 96.586,-146.04 96.54,-146.08 96.452,-146.18 96.452,-146.18 M66.467,-156.09 C66.467,-156.09 66.595,-155.95 66.664,-155.88 66.736,-155.81 66.812,-155.75 66.891,-155.68 66.973,-155.62 67.059,-155.56 67.147,-155.5 67.416,-155.32 67.79,-155.13 68.072,-155.02 68.275,-154.95 68.48,-154.88 68.686,-154.82 68.775,-154.79 68.866,-154.77 68.956,-154.74 69.137,-154.7 69.326,-154.66 69.516,-154.63 69.612,-154.61 69.708,-154.59 69.805,-154.58 69.899,-154.57 70.089,-154.55 70.089,-154.55 M71.897,-154.54 C71.897,-154.54 72.086,-154.56 72.18,-154.58 72.276,-154.59 72.373,-154.6 72.469,-154.62 72.564,-154.63 72.659,-154.65 72.753,-154.67 73.128,-154.75 73.486,-154.85 73.818,-154.97 74.57,-155.25 75.157,-155.62 75.557,-156.08 M80.863,-150.97 L81.018,-150.81 M91.161,-150.96 C90.688,-150.43 90.06,-150.05 89.403,-149.79 88.953,-149.6 88.456,-149.46 87.928,-149.35 87.751,-149.32 87.572,-149.29 87.393,-149.27 87.217,-149.24 86.861,-149.21 86.866,-149.21 86.866,-149.21 86.486,-149.18 86.296,-149.18 86.105,-149.17 85.913,-149.17 85.722,-149.18 85.579,-149.18 85.293,-149.2 85.293,-149.2 M100.23,-146.28 C100.23,-146.28 100.03,-146.26 99.931,-146.25 99.834,-146.24 99.737,-146.22 99.641,-146.21 99.352,-146.16 99.071,-146.1 98.802,-146.03 98.533,-145.96 98.276,-145.87 98.034,-145.78 97.955,-145.74 97.876,-145.71 97.798,-145.67 97.723,-145.64 97.647,-145.6 97.574,-145.57 97.502,-145.53 97.431,-145.49 97.361,-145.45 97.361,-145.45 97.361,-145.45 97.361,-145.45 M73.433,-155.89 C73.433,-155.89 73.495,-155.87 73.525,-155.86 73.61,-155.83 73.696,-155.8 73.78,-155.77 73.862,-155.74 73.944,-155.71 74.025,-155.68 74.104,-155.65 74.182,-155.61 74.259,-155.58 74.335,-155.54 74.409,-155.5 74.482,-155.47 74.544,-155.43 74.665,-155.36 74.665,-155.36 M78.414,-173.88 C78.48,-174.07 78.545,-174.26 78.61,-174.44 78.566,-174.54 78.521,-174.64 78.476,-174.73 78.454,-174.76 77.997,-174.94 77.437,-175.14 76.878,-175.34 76.411,-175.48 76.378,-175.47 76.283,-175.42 76.189,-175.38 76.094,-175.33 75.943,-174.9 75.792,-174.47 75.641,-174.04 M78.612,-174.45 C78.613,-174.45 78.612,-174.44 78.61,-174.44 M74.328,-170.31 L73.906,-169.11 M72.922,-166.31 C72.619,-165.44 72.317,-164.58 72.014,-163.72 72.015,-163.72 71.954,-163.74 71.923,-163.75 71.781,-163.8 71.72,-163.82 71.743,-163.81 71.788,-163.8 72.061,-163.71 72.484,-163.57 72.526,-163.55 72.571,-163.53 72.616,-163.52 72.664,-163.5 72.712,-163.49 72.759,-163.47 73.236,-163.32 73.757,-163.15 74.164,-163.01 74.571,-162.88 74.817,-162.8 74.825,-162.79 74.833,-162.79 74.809,-162.8 74.801,-162.8 74.775,-162.81 74.749,-162.82 74.723,-162.83 74.68,-162.84 74.636,-162.86 74.593,-162.87 74.578,-162.88 74.549,-162.89 74.548,-162.89 74.841,-163.72 75.131,-164.54 75.423,-165.37 M73.242,-155.34 C73.685,-156.61 74.126,-157.86 74.569,-159.12 74.608,-159.14 74.387,-159.24 73.955,-159.41 73.522,-159.59 72.914,-159.81 72.263,-160.04 71.613,-160.27 70.973,-160.49 70.486,-160.64 69.998,-160.79 69.702,-160.87 69.663,-160.86 69.22,-159.59 68.779,-158.34 68.336,-157.08 M94.712,-168.5 C94.778,-168.68 94.843,-168.87 94.909,-169.06 94.864,-169.15 94.819,-169.25 94.774,-169.34 94.752,-169.38 94.296,-169.55 93.736,-169.75 93.176,-169.95 92.709,-170.09 92.676,-170.08 92.581,-170.03 92.487,-169.99 92.393,-169.94 92.241,-169.51 92.091,-169.09 91.94,-168.66 M94.91,-169.06 C94.911,-169.06 94.91,-169.06 94.909,-169.06 M90.626,-164.92 L90.204,-163.72 M89.22,-160.92 C88.917,-160.05 88.615,-159.2 88.312,-158.33 88.313,-158.33 88.252,-158.35 88.221,-158.36 88.083,-158.41 88.019,-158.43 88.041,-158.42 88.085,-158.41 88.357,-158.32 88.782,-158.18 88.824,-158.16 88.869,-158.15 88.914,-158.13 88.962,-158.11 89.01,-158.1 89.057,-158.09 89.526,-157.93 90.048,-157.76 90.458,-157.62 90.868,-157.49 91.116,-157.41 91.123,-157.41 91.125,-157.41 91.088,-157.42 91.019,-157.44 90.978,-157.45 90.934,-157.47 90.891,-157.48 90.876,-157.49 90.847,-157.5 90.846,-157.5 91.139,-158.33 91.429,-159.15 91.721,-159.98 M84.634,-151.69 C85.077,-152.95 85.518,-154.2 85.961,-155.47 86,-155.48 86.296,-155.4 86.784,-155.25 87.271,-155.1 87.911,-154.89 88.562,-154.66 89.212,-154.43 89.821,-154.2 90.253,-154.03 90.685,-153.85 90.906,-153.75 90.867,-153.73 90.424,-152.47 89.983,-151.22 89.54,-149.95 M77.811,-173.41 C77.811,-173.41 77.785,-173.41 77.772,-173.41 77.719,-173.42 77.666,-173.43 77.613,-173.43 77.5,-173.45 77.394,-173.47 77.296,-173.48 77.142,-173.51 76.988,-173.54 76.835,-173.57 M75.662,-169.98 C75.662,-169.98 75.706,-169.96 75.728,-169.95 75.774,-169.93 75.821,-169.91 75.867,-169.88 75.913,-169.86 75.96,-169.84 76.006,-169.81 76.053,-169.78 76.099,-169.76 76.145,-169.73 76.162,-169.72 76.194,-169.7 76.194,-169.7 M75.307,-174.37 C75.307,-174.37 75.315,-174.37 75.318,-174.37 75.333,-174.36 75.348,-174.35 75.363,-174.34 75.392,-174.32 75.427,-174.3 75.465,-174.28 75.484,-174.26 75.503,-174.25 75.522,-174.24 75.541,-174.23 75.561,-174.22 75.58,-174.2 75.601,-174.19 75.621,-174.18 75.641,-174.16 75.652,-174.15 75.675,-174.14 75.675,-174.14 M74.259,-170.11 L74.23,-170.11 C74.23,-170.11 74.175,-170.12 74.147,-170.12 74.124,-170.13 74.101,-170.13 74.078,-170.13 74.056,-170.14 74.034,-170.14 74.012,-170.14 73.992,-170.15 73.972,-170.15 73.952,-170.16 73.947,-170.16 73.937,-170.16 73.937,-170.16 M80.446,-169.25 C80.446,-169.25 80.462,-169.28 80.47,-169.29 80.473,-169.29 80.476,-169.3 80.479,-169.3 80.495,-169.33 80.511,-169.36 80.527,-169.39 80.543,-169.41 80.558,-169.44 80.573,-169.47 80.619,-169.55 80.662,-169.64 80.703,-169.73 80.772,-169.89 80.834,-170.05 80.887,-170.21 80.941,-170.37 80.985,-170.54 81.02,-170.7 81.041,-170.8 81.058,-170.89 81.071,-170.99 81.076,-171.02 81.08,-171.05 81.083,-171.08 81.087,-171.11 81.09,-171.15 81.093,-171.18 81.094,-171.18 81.094,-171.19 81.095,-171.19 81.095,-171.2 81.097,-171.22 81.097,-171.22 M94.107,-168.02 C94.107,-168.02 94.09,-168.02 94.082,-168.02 94.029,-168.03 93.976,-168.03 93.923,-168.04 93.81,-168.06 93.704,-168.07 93.606,-168.09 93.451,-168.11 93.297,-168.14 93.145,-168.18 M91.899,-164.63 C91.99,-164.58 92.083,-164.54 92.177,-164.49 92.223,-164.47 92.27,-164.44 92.316,-164.42 92.362,-164.39 92.409,-164.37 92.455,-164.34 92.468,-164.33 92.492,-164.32 92.492,-164.32 M91.61,-168.98 C91.61,-168.98 91.622,-168.98 91.628,-168.97 91.643,-168.96 91.658,-168.96 91.673,-168.95 91.702,-168.93 91.737,-168.91 91.775,-168.88 91.794,-168.87 91.813,-168.86 91.832,-168.85 91.851,-168.84 91.871,-168.82 91.89,-168.81 91.91,-168.8 91.931,-168.78 91.951,-168.77 91.959,-168.76 91.974,-168.75 91.974,-168.75 M90.556,-164.72 C90.556,-164.72 90.538,-164.72 90.529,-164.72 90.505,-164.73 90.481,-164.73 90.457,-164.73 90.434,-164.74 90.41,-164.74 90.387,-164.74 90.366,-164.75 90.344,-164.75 90.322,-164.75 90.302,-164.76 90.282,-164.76 90.262,-164.76 90.254,-164.76 90.24,-164.77 90.24,-164.77 M96.363,-163.35 C96.363,-163.35 96.364,-163.35 96.364,-163.35 96.382,-163.37 96.4,-163.39 96.418,-163.41 96.436,-163.43 96.454,-163.45 96.471,-163.47 96.489,-163.49 96.507,-163.51 96.524,-163.53 96.56,-163.57 96.595,-163.62 96.629,-163.67 96.715,-163.79 96.805,-163.93 96.883,-164.08 97.005,-164.3 97.112,-164.56 97.197,-164.82 97.283,-165.08 97.345,-165.34 97.381,-165.6 97.399,-165.73 97.412,-165.87 97.417,-165.99 97.42,-166.07 97.419,-166.16 97.414,-166.25 97.413,-166.27 97.411,-166.3 97.409,-166.33 97.406,-166.35 97.403,-166.38 97.4,-166.4 97.397,-166.42 97.391,-166.46 97.391,-166.46 M75.669,-175.11 C74.649,-175.45 73.635,-175.78 72.615,-176.12 71.876,-176.39 70.816,-175.3 70.162,-173.6 69.893,-172.9 69.719,-172.16 69.665,-171.49 69.644,-171.22 69.641,-170.97 69.659,-170.74 69.676,-170.51 69.713,-170.3 69.767,-170.11 69.793,-170.03 69.825,-169.94 69.863,-169.86 69.885,-169.81 69.943,-169.72 69.943,-169.72 M73.706,-170.41 C73.706,-170.41 73.705,-170.41 73.705,-170.41 73.705,-170.42 73.704,-170.42 73.704,-170.42 M73.656,-170.53 C73.656,-170.53 73.655,-170.53 73.655,-170.53 73.654,-170.53 73.653,-170.54 73.653,-170.54 M74.803,-174.18 C74.803,-174.18 74.797,-174.18 74.794,-174.17 74.755,-174.14 74.717,-174.11 74.681,-174.08 74.642,-174.04 74.605,-174 74.569,-173.96 74.531,-173.92 74.494,-173.87 74.458,-173.83 74.385,-173.74 74.313,-173.63 74.245,-173.52 74.072,-173.24 73.921,-172.91 73.804,-172.56 73.687,-172.22 73.609,-171.86 73.576,-171.53 73.563,-171.4 73.557,-171.27 73.559,-171.15 73.559,-171.09 73.562,-171.04 73.567,-170.98 73.571,-170.92 73.577,-170.87 73.585,-170.81 73.593,-170.76 73.603,-170.71 73.615,-170.67 73.615,-170.66 73.616,-170.66 73.616,-170.66"/>
      <path stroke="#000" d="M74.904,-174.25 C74.904,-174.25 74.905,-174.25 74.905,-174.25 74.906,-174.25 74.907,-174.25 74.907,-174.25 M75.012,-174.31 C75.012,-174.31 75.014,-174.31 75.015,-174.31 75.016,-174.31 75.017,-174.31 75.017,-174.31 M75.121,-174.35 C75.121,-174.35 75.121,-174.35 75.122,-174.35 75.122,-174.35 75.122,-174.35 75.122,-174.35 M79.867,-166.44 C79.867,-166.44 79.809,-166.53 79.787,-166.58 79.749,-166.66 79.717,-166.75 79.691,-166.83 79.636,-167.02 79.6,-167.23 79.583,-167.46 79.565,-167.69 79.567,-167.94 79.589,-168.21 79.643,-168.88 79.817,-169.62 80.086,-170.32 80.74,-172.02 81.8,-173.1 82.539,-172.84 82.79,-172.75 82.927,-172.52 83.074,-172.31 84.653,-171.79 86.223,-171.27 87.801,-170.75 M85.644,-166.73 L82.869,-167.65 M91.967,-169.72 C90.819,-170.1 89.679,-170.48 88.532,-170.86 87.792,-171.12 86.732,-170.03 86.079,-168.34 85.809,-167.64 85.635,-166.9 85.581,-166.23 85.56,-165.96 85.558,-165.71 85.575,-165.48 85.592,-165.24 85.629,-165.03 85.684,-164.85 85.71,-164.76 85.741,-164.68 85.779,-164.6 85.802,-164.55 85.859,-164.46 85.859,-164.46 M90.004,-165.02 C90.004,-165.02 90.003,-165.03 90.003,-165.03 90.003,-165.03 90.002,-165.03 90.002,-165.03 M89.954,-165.14 C89.954,-165.14 89.953,-165.14 89.953,-165.14 89.952,-165.14 89.952,-165.15 89.952,-165.15 M91.102,-168.79 C91.102,-168.79 91.095,-168.79 91.092,-168.79 91.053,-168.76 91.015,-168.72 90.979,-168.69 90.94,-168.65 90.903,-168.61 90.867,-168.57 90.829,-168.53 90.792,-168.49 90.756,-168.44 90.683,-168.35 90.611,-168.24 90.543,-168.13 90.37,-167.85 90.219,-167.52 90.102,-167.18 89.986,-166.83 89.907,-166.47 89.874,-166.14 89.861,-166.01 89.855,-165.88 89.857,-165.76 89.858,-165.7 89.86,-165.65 89.865,-165.59 89.869,-165.53 89.875,-165.48 89.883,-165.43 89.891,-165.38 89.901,-165.33 89.913,-165.28 89.913,-165.28 89.913,-165.27 89.913,-165.27 M91.201,-168.86 C91.201,-168.86 91.203,-168.86 91.203,-168.86 91.204,-168.87 91.206,-168.87 91.206,-168.87 M91.309,-168.92 C91.309,-168.92 91.312,-168.92 91.313,-168.92 91.314,-168.93 91.316,-168.93 91.316,-168.93 M91.418,-168.96 C91.418,-168.96 91.419,-168.96 91.42,-168.96 91.42,-168.96 91.421,-168.96 91.421,-168.96 M98.455,-167.58 C97.436,-167.91 96.422,-168.25 95.402,-168.59 94.731,-168.83 93.785,-167.95 93.119,-166.47 92.878,-165.94 92.69,-165.36 92.572,-164.79 92.513,-164.5 92.473,-164.22 92.452,-163.96 92.441,-163.83 92.435,-163.7 92.434,-163.57 92.433,-163.45 92.437,-163.33 92.446,-163.2 92.451,-163.13 92.474,-162.97 92.474,-162.97 M98.392,-164.38 C98.783,-165.55 98.698,-166.64 98.2,-166.82 97.961,-166.9 97.658,-166.76 97.356,-166.43 97.054,-166.09 96.779,-165.59 96.591,-165.03 96.199,-163.86 96.285,-162.77 96.782,-162.6 97.28,-162.42 98,-163.22 98.392,-164.38 Z M82.539,-172.84 C81.392,-173.22 80.251,-173.59 79.104,-173.97 78.433,-174.22 77.487,-173.34 76.821,-171.86 76.58,-171.33 76.392,-170.75 76.274,-170.18 76.215,-169.89 76.175,-169.61 76.154,-169.35 76.143,-169.22 76.137,-169.09 76.136,-168.96 76.135,-168.84 76.138,-168.71 76.147,-168.59 76.153,-168.51 76.176,-168.36 76.176,-168.36 M96.135,-160.84 L95.075,-161.19 M77.232,-167.31 C77.232,-167.31 77.182,-167.36 77.158,-167.39 77.13,-167.42 77.102,-167.45 77.074,-167.48 77.045,-167.51 77.017,-167.54 76.989,-167.57 76.933,-167.63 76.876,-167.7 76.816,-167.77 76.76,-167.83 76.702,-167.91 76.642,-167.98 76.612,-168.02 76.583,-168.05 76.554,-168.09 76.539,-168.11 76.509,-168.15 76.509,-168.15 M76.293,-168.32 L72.162,-169.68 M88.517,-163.58 C88.517,-163.58 88.538,-163.6 88.546,-163.61 88.557,-163.63 88.566,-163.64 88.574,-163.65 88.59,-163.69 88.599,-163.72 88.6,-163.75 88.602,-163.81 88.576,-163.87 88.56,-163.92 88.543,-163.98 88.529,-164.05 88.518,-164.11 88.511,-164.15 88.514,-164.27 88.46,-164.29 88.438,-164.31 88.412,-164.3 88.385,-164.27 88.366,-164.24 88.347,-164.22 88.328,-164.2 88.311,-164.18 88.294,-164.16 88.277,-164.13 88.211,-164.04 88.164,-163.96 88.135,-163.88 88.117,-163.83 88.099,-163.78 88.081,-163.73 M92.807,-162.76 C92.807,-162.76 92.837,-162.72 92.852,-162.7 92.881,-162.67 92.911,-162.63 92.94,-162.59 92.969,-162.56 92.998,-162.52 93.028,-162.48 93.056,-162.45 93.085,-162.41 93.115,-162.38 93.143,-162.34 93.172,-162.31 93.201,-162.28 93.229,-162.24 93.258,-162.21 93.287,-162.18 93.315,-162.15 93.343,-162.12 93.372,-162.09 93.4,-162.06 93.428,-162.03 93.456,-162 93.48,-161.97 93.53,-161.93 93.53,-161.93 M88.46,-164.29 L92.591,-162.93 M66.731,-163.26 C66.731,-163.26 66.664,-163.21 66.632,-163.18 66.555,-163.11 66.481,-163.04 66.41,-162.96 66.356,-162.91 66.305,-162.83 66.263,-162.74 66.2,-162.6 66.162,-162.44 66.161,-162.31 66.16,-162.17 66.195,-162.08 66.257,-162.05 66.978,-161.73 67.701,-161.41 68.422,-161.09 68.817,-160.95 69.211,-160.82 69.606,-160.69 M94.3,-152.53 L90.846,-153.67 M85.904,-155.3 L74.548,-159.06 M94.059,-155 C94.059,-155 94.09,-154.98 94.103,-154.97 94.157,-154.94 94.207,-154.89 94.251,-154.84 94.3,-154.79 94.344,-154.73 94.383,-154.67 94.423,-154.61 94.49,-154.47 94.49,-154.47 M65.386,-171.96 C65.386,-171.96 65.378,-172.01 65.373,-172.04 65.344,-172.16 65.31,-172.29 65.269,-172.41 65.18,-172.68 65.121,-172.79 64.979,-173.03 64.775,-173.38 64.427,-173.69 64.134,-173.78 49.776,-178.55 35.367,-183.3 21.003,-188.04 19.378,-188.58 17.395,-186.59 16.243,-183.26 15.691,-181.67 15.452,-180.02 15.581,-178.71 15.71,-177.39 16.195,-176.51 16.927,-176.27 31.284,-171.5 45.694,-166.75 60.057,-162.01 60.493,-161.86 60.881,-161.9 61.312,-162.04 61.491,-162.11 61.555,-162.13 61.749,-162.25 61.855,-162.31 61.957,-162.38 62.054,-162.45 62.161,-162.53 62.264,-162.62 62.362,-162.71 62.376,-162.72 62.402,-162.75 62.402,-162.75 M60.428,-163.31 L60.494,-163.27 M60.444,-163.29 C60.444,-163.29 60.328,-163.38 60.277,-163.44 60.24,-163.48 60.176,-163.57 60.176,-163.57 M63.697,-172.52 L63.528,-172.57 M63.101,-172.5 C63.101,-172.5 63.176,-172.53 63.215,-172.54 63.289,-172.56 63.365,-172.57 63.44,-172.58 63.511,-172.58 63.584,-172.57 63.654,-172.56 M62.189,-171.84 C62.189,-171.84 62.014,-171.64 61.931,-171.54 61.843,-171.43 61.758,-171.32 61.677,-171.21 61.51,-170.97 61.349,-170.71 61.195,-170.44 60.886,-169.89 60.613,-169.28 60.391,-168.64 60.169,-167.99 60.002,-167.34 59.9,-166.7 59.85,-166.38 59.815,-166.07 59.798,-165.78 59.79,-165.63 59.785,-165.49 59.785,-165.34 59.785,-165.2 59.798,-164.93 59.798,-164.93 M62.122,-171.76 C62.122,-171.76 62.282,-171.93 62.368,-172.01 62.449,-172.08 62.533,-172.15 62.621,-172.22 62.702,-172.28 62.786,-172.34 62.873,-172.39 62.952,-172.43 63.119,-172.51 63.119,-172.51 M59.797,-164.96 C59.797,-164.96 59.813,-164.76 59.826,-164.66 59.842,-164.55 59.862,-164.43 59.887,-164.32 59.911,-164.22 59.939,-164.11 59.973,-164.01 60.004,-163.92 60.039,-163.83 60.081,-163.74 60.119,-163.66 60.212,-163.5 60.212,-163.5 M60.998,-163.21 L69.102,-160.53 M84.093,-161.95 C84.093,-161.95 83.998,-161.75 83.954,-161.65 83.904,-161.54 83.856,-161.42 83.811,-161.31 83.765,-161.19 83.721,-161.08 83.679,-160.96 83.638,-160.84 83.598,-160.72 83.561,-160.6 83.524,-160.48 83.489,-160.36 83.457,-160.24 83.433,-160.15 83.39,-159.97 83.39,-159.97 M63.605,-172.55 L69.683,-170.54 M60.153,-163.61 L69.056,-160.67 M156.5,-141.31 C156.5,-141.31 156.53,-141.01 156.54,-140.86 156.55,-140.7 156.55,-140.54 156.55,-140.38 156.55,-140.21 156.54,-140.04 156.53,-139.87 156.49,-139.35 156.41,-138.8 156.29,-138.25 156.09,-137.31 155.77,-136.37 155.37,-135.5 154.23,-132.99 152.5,-131.45 151.29,-131.85 136.92,-136.58 122.52,-141.36 108.16,-146.11 107.15,-146.44 106.75,-147.44 106.64,-148.43 106.4,-150.37 107,-153.02 108.14,-155.12 109.29,-157.23 110.75,-158.37 111.84,-158.01 126.21,-153.28 140.61,-148.5 154.97,-143.75 155.56,-143.55 155.96,-143.14 156.2,-142.58 156.3,-142.36 156.37,-142.12 156.43,-141.85 156.46,-141.71 156.48,-141.57 156.5,-141.42 156.51,-141.33 156.52,-141.13 156.52,-141.13 M84.574,-159.58 C84.574,-159.58 84.636,-159.82 84.67,-159.94 84.708,-160.08 84.749,-160.21 84.792,-160.34 84.836,-160.48 84.882,-160.61 84.93,-160.74 84.978,-160.87 85.029,-161 85.083,-161.13 85.135,-161.26 85.191,-161.38 85.248,-161.51 85.257,-161.53 85.275,-161.56 85.275,-161.56 M98.275,-150.89 L106.69,-148.11 M99.993,-160.52 L109.78,-157.29 M96.8,-151.48 L106.67,-148.22 M98.269,-151 C98.269,-151 98.289,-150.66 98.299,-150.5 98.309,-150.34 98.364,-150.24 98.448,-150.23 98.533,-150.21 98.639,-150.28 98.737,-150.42 98.757,-150.44 98.776,-150.47 98.793,-150.5 98.812,-150.53 98.829,-150.57 98.845,-150.6 98.859,-150.63 98.885,-150.69 98.885,-150.69 M74.551,-162.89 L88.315,-158.34 M90.849,-157.5 C92.946,-156.81 95.031,-156.12 97.129,-155.43 96.791,-154.08 96.736,-152.81 96.977,-151.93 96.864,-151.75 96.785,-151.5 96.772,-151.29 96.759,-151.08 96.812,-150.93 96.913,-150.91 96.979,-150.89 97.06,-150.93 97.141,-151.01 97.227,-151.1 97.4,-151.29 97.4,-151.29 M69.324,-159.89 L68.974,-160.9 M102.03,-159.85 C102.03,-159.85 102.04,-159.92 102.03,-159.95 102.03,-159.98 102.03,-160.02 102.02,-160.05 102,-160.14 101.96,-160.2 101.91,-160.23 101.85,-160.25 101.78,-160.23 101.71,-160.17 101.69,-160.15 101.66,-160.13 101.64,-160.1 101.62,-160.07 101.6,-160.04 101.57,-160.01 101.57,-160.01 101.57,-160 101.57,-160 M100.52,-160.35 C100.57,-160.62 100.53,-160.83 100.42,-160.89 100.33,-160.93 100.21,-160.86 100.09,-160.7 99.979,-160.54 99.891,-160.31 99.862,-160.09 99.144,-159.64 98.404,-158.67 97.827,-157.41 95.729,-158.11 93.644,-158.8 91.547,-159.49 M89.013,-160.33 L75.249,-164.88 M101.37,-160.07 C101.37,-160.07 101.33,-160.11 101.3,-160.13 101.27,-160.16 101.23,-160.19 101.19,-160.21 101.11,-160.26 101.03,-160.3 100.94,-160.33 100.81,-160.36 100.66,-160.37 100.52,-160.35 100.34,-160.41 100.17,-160.46 99.993,-160.52 M99.807,-150.39 C99.807,-150.39 99.786,-150.36 99.775,-150.35 99.704,-150.27 99.631,-150.2 99.556,-150.12 99.485,-150.05 99.412,-149.99 99.337,-149.92 99.118,-149.73 98.899,-149.57 98.685,-149.45 98.183,-149.16 97.711,-149.08 97.305,-149.22 96.84,-149.38 96.475,-149.81 96.245,-150.47 95.823,-151.69 95.401,-152.91 94.979,-154.13 94.838,-154.54 94.621,-154.81 94.345,-154.93 94.18,-155.01 93.996,-155.03 93.799,-154.99 93.373,-154.9 92.945,-154.82 92.519,-154.73 83.595,-157.68 74.725,-160.62 65.801,-163.57 65.949,-163.99 66.096,-164.41 66.243,-164.83 66.633,-164.97 67.021,-165.1 67.41,-165.24 68.413,-164.92 69.409,-164.59 70.411,-164.26 70.947,-164.08 71.48,-163.91 72.017,-163.73 M72.715,-165.72 C72.178,-165.89 71.645,-166.07 71.109,-166.25 70.179,-166.78 69.255,-167.31 68.325,-167.85 68.126,-168.25 67.928,-168.65 67.728,-169.05 67.876,-169.47 68.023,-169.89 68.171,-170.31 77.095,-167.36 85.965,-164.43 94.889,-161.48 95.148,-161.09 95.408,-160.69 95.668,-160.3 95.787,-160.12 95.932,-159.99 96.097,-159.92 96.373,-159.8 96.699,-159.83 97.05,-160.02 98.096,-160.58 99.146,-161.14 100.19,-161.71 100.69,-161.97 101.16,-162.03 101.56,-161.88 101.96,-161.73 102.28,-161.36 102.51,-160.82 102.57,-160.66 102.62,-160.49 102.67,-160.31 102.69,-160.21 102.72,-160.12 102.73,-160.02 102.75,-159.92 102.77,-159.82 102.78,-159.72 102.79,-159.68 102.8,-159.6 102.8,-159.6 M91.673,-159.85 C91.673,-159.85 91.702,-159.84 91.718,-159.84 91.762,-159.82 91.808,-159.81 91.853,-159.81 91.928,-159.8 91.967,-159.8 91.97,-159.82 91.976,-159.86 91.745,-159.99 91.349,-160.16 90.952,-160.33 90.439,-160.53 89.972,-160.69 89.877,-160.72 89.784,-160.76 89.694,-160.78 89.266,-160.92 88.982,-160.98 88.931,-160.96 88.901,-160.94 88.955,-160.9 89.086,-160.82 89.114,-160.81 89.172,-160.78 89.172,-160.78 M75.374,-165.24 C75.374,-165.24 75.404,-165.23 75.419,-165.22 75.464,-165.21 75.51,-165.2 75.555,-165.2 75.63,-165.19 75.669,-165.19 75.672,-165.2 75.678,-165.25 75.447,-165.37 75.051,-165.55 74.654,-165.72 74.141,-165.92 73.674,-166.08 73.578,-166.11 73.486,-166.14 73.396,-166.17 72.968,-166.31 72.684,-166.37 72.633,-166.35 72.603,-166.33 72.657,-166.29 72.788,-166.21 72.816,-166.2 72.874,-166.17 72.874,-166.17 M97.305,-149.22 L90.117,-151.6 M80.806,-154.67 L73.819,-156.99 M99.153,-162.68 L101.56,-161.88 M85.226,-153.37 C85.226,-153.37 85.015,-153.47 84.91,-153.52 84.747,-153.59 84.584,-153.67 84.42,-153.74 84.256,-153.82 84.091,-153.89 83.926,-153.96 83.925,-152.59 83.924,-151.22 83.923,-149.85 M83.86,-37.211 C83.86,-37.211 83.84,-37.217 83.83,-37.221 83.715,-37.258 83.601,-37.296 83.486,-37.334 83.257,-37.41 83.028,-37.486 82.799,-37.561 M83.925,-153.73 C83.571,-153.85 83.219,-153.96 82.864,-154.08 82.778,-154.15 82.624,-154.31 82.551,-154.41 81.994,-154.54 81.413,-154.53 80.861,-154.66 M83.919,-143.03 C83.901,-109.61 83.882,-76.383 83.863,-42.957 84.27,-42.646 84.532,-42.245 84.588,-41.848 84.645,-41.452 84.489,-41.098 84.16,-40.869 84.069,-40.806 83.968,-40.757 83.862,-40.724 M82.6,-43.512 L82.597,-43.499 M83.864,-43.478 C83.864,-43.478 83.853,-43.487 83.846,-43.491 83.734,-43.558 83.614,-43.615 83.49,-43.656 83.248,-43.736 83.01,-43.75 82.803,-43.698 82.698,-43.602 82.594,-43.507 82.489,-43.411 82.405,-43.395 82.322,-43.365 82.249,-43.319 82.18,-43.275 82.118,-43.215 82.072,-43.147 82.028,-43.082 81.978,-42.932 81.978,-42.932 M80.505,-41.584 L80.558,-144.15 M80.561,-151.5 L80.563,-154.76 M91.443,-144.8 C91.422,-109.56 91.402,-74.542 91.381,-39.309 91.22,-38.361 90.25,-37.511 88.765,-37.02 87.281,-36.528 85.46,-36.454 83.86,-36.82 83.861,-38.124 83.861,-39.42 83.862,-40.724 83.967,-40.82 84.071,-40.915 84.176,-41.011 M81.315,-145.3 L81.506,-145.47 M81.316,-146.32 L81.316,-147.16 81.507,-147.09 81.507,-146.26 82.365,-145.97 82.365,-145.79 81.506,-146.07 M80.457,-146.42 L80.606,-146.55 M102.25,-144.03 C102.22,-144.06 102.2,-144.11 102.16,-144.13 M79.483,-151.42 C79.402,-151.34 79.356,-151.24 79.356,-151.14 79.356,-150.77 79.356,-150.01 79.356,-150.01 M87.659,-144.92 C87.68,-144.95 87.692,-145.01 87.692,-145.11 87.694,-146.2 87.692,-147.3 87.694,-148.39 87.694,-148.48 87.682,-148.61 87.661,-148.72 M68.336,-157.08 C68.254,-157.05 69.287,-156.63 70.641,-156.15 71.996,-155.68 73.16,-155.31 73.242,-155.34 73.281,-155.36 73.06,-155.46 72.627,-155.64 72.195,-155.81 71.586,-156.04 70.936,-156.27 70.286,-156.5 69.646,-156.71 69.158,-156.86 68.671,-157.02 68.375,-157.09 68.336,-157.08 Z M78.612,-174.45 C78.585,-174.49 78,-174.72 77.305,-174.96 76.657,-175.19 76.133,-175.35 76.094,-175.33 M70.113,-156.49 L70.088,-156.41 M71.996,-155.78 C71.762,-155.85 71.529,-155.92 71.295,-155.98 70.893,-156.13 70.484,-156.25 70.088,-156.41 69.916,-156.48 69.75,-156.56 69.581,-156.64 69.815,-156.57 70.048,-156.5 70.282,-156.44 70.685,-156.29 71.086,-156.15 71.49,-156.01 71.659,-155.93 71.827,-155.86 71.996,-155.78 Z M71.295,-155.98 L71.324,-156.07 M84.634,-151.69 C84.594,-151.67 84.815,-151.57 85.248,-151.4 85.68,-151.22 86.289,-151 86.939,-150.77 88.294,-150.29 89.458,-149.92 89.54,-149.95 89.579,-149.97 89.358,-150.08 88.926,-150.25 88.493,-150.42 87.885,-150.65 87.234,-150.88 86.584,-151.11 85.944,-151.32 85.456,-151.47 84.969,-151.63 84.673,-151.7 84.634,-151.69 Z M94.91,-169.06 C94.883,-169.1 94.298,-169.33 93.602,-169.57 92.955,-169.8 92.432,-169.96 92.393,-169.94 M86.411,-151.1 L86.386,-151.02 M88.294,-150.39 C88.06,-150.46 87.827,-150.53 87.593,-150.6 87.191,-150.74 86.782,-150.87 86.386,-151.02 86.214,-151.09 86.048,-151.18 85.879,-151.25 86.113,-151.18 86.346,-151.12 86.58,-151.05 86.983,-150.9 87.384,-150.76 87.788,-150.62 87.957,-150.54 88.125,-150.47 88.294,-150.39 Z"/>
      <path stroke="#000" d="M87.593,-150.6 L87.622,-150.68 M75.65,-174.16 C75.65,-174.16 75.646,-174.16 75.644,-174.17 75.624,-174.19 75.601,-174.22 75.576,-174.25 75.527,-174.29 75.473,-174.33 75.414,-174.35 75.384,-174.36 75.353,-174.37 75.322,-174.37 75.29,-174.38 75.257,-174.38 75.224,-174.37 75.21,-174.37 75.183,-174.36 75.179,-174.37 75.179,-174.37 75.188,-174.35 75.192,-174.35 75.199,-174.34 75.206,-174.33 75.213,-174.33 75.221,-174.32 75.229,-174.31 75.237,-174.3 75.264,-174.28 75.296,-174.25 75.333,-174.22 75.382,-174.18 75.439,-174.14 75.5,-174.1 75.629,-174.02 75.776,-173.94 75.936,-173.87 M74.689,-170.32 C74.514,-170.35 74.346,-170.37 74.193,-170.38 74.117,-170.38 74.045,-170.38 73.981,-170.37 73.933,-170.37 73.889,-170.36 73.85,-170.35 73.838,-170.35 73.826,-170.35 73.814,-170.34 73.803,-170.34 73.792,-170.34 73.781,-170.33 73.774,-170.33 73.758,-170.32 73.758,-170.32 73.759,-170.32 73.763,-170.32 73.765,-170.31 73.785,-170.29 73.808,-170.26 73.834,-170.23 73.882,-170.19 73.937,-170.15 73.996,-170.13 74.025,-170.12 74.056,-170.11 74.087,-170.11 74.12,-170.1 74.153,-170.1 74.185,-170.11 74.199,-170.11 74.227,-170.12 74.227,-170.12 M91.944,-168.77 C91.944,-168.77 91.943,-168.78 91.942,-168.78 91.922,-168.81 91.899,-168.83 91.874,-168.86 91.825,-168.91 91.771,-168.94 91.712,-168.96 91.682,-168.97 91.651,-168.98 91.62,-168.98 91.588,-168.99 91.555,-168.99 91.522,-168.98 91.511,-168.98 91.488,-168.98 91.485,-168.98 91.485,-168.98 91.486,-168.98 91.486,-168.98 91.491,-168.97 91.497,-168.96 91.502,-168.96 91.509,-168.95 91.516,-168.94 91.523,-168.93 91.531,-168.93 91.539,-168.92 91.547,-168.91 91.574,-168.88 91.606,-168.86 91.643,-168.83 91.692,-168.79 91.749,-168.75 91.81,-168.71 91.939,-168.63 92.086,-168.55 92.246,-168.48 M90.932,-164.94 C90.932,-164.94 90.889,-164.95 90.868,-164.95 90.826,-164.96 90.783,-164.96 90.741,-164.97 90.658,-164.98 90.579,-164.98 90.503,-164.99 90.427,-164.99 90.355,-164.99 90.291,-164.98 90.243,-164.98 90.199,-164.97 90.16,-164.96 90.148,-164.96 90.136,-164.96 90.124,-164.95 90.113,-164.95 90.102,-164.95 90.091,-164.94 90.082,-164.94 90.073,-164.93 90.064,-164.93 90.063,-164.93 90.061,-164.93 90.061,-164.93 90.062,-164.93 90.062,-164.93 90.063,-164.93 90.083,-164.9 90.106,-164.87 90.132,-164.84 90.18,-164.8 90.235,-164.76 90.294,-164.74 90.323,-164.73 90.354,-164.72 90.385,-164.72 90.418,-164.72 90.451,-164.72 90.483,-164.72 90.495,-164.72 90.517,-164.72 90.517,-164.72 M100.09,-163.23 L101.21,-162.86 M75.948,-174.92 C75.948,-174.92 75.913,-174.96 75.892,-174.98 75.823,-175.04 75.749,-175.08 75.669,-175.11 74.998,-175.35 74.052,-174.48 73.386,-173 73.145,-172.46 72.957,-171.88 72.839,-171.31 72.78,-171.03 72.74,-170.75 72.718,-170.48 72.708,-170.35 72.702,-170.22 72.701,-170.09 72.7,-169.97 72.703,-169.85 72.712,-169.73 72.718,-169.65 72.741,-169.49 72.741,-169.49 M82.284,-172.08 C82.045,-172.16 81.741,-172.02 81.439,-171.69 81.138,-171.35 80.862,-170.85 80.674,-170.29 80.283,-169.13 80.369,-168.04 80.866,-167.86 81.363,-167.68 82.084,-168.48 82.476,-169.64 82.664,-170.2 82.749,-170.78 82.713,-171.23 82.677,-171.69 82.523,-171.99 82.284,-172.08 Z M83.074,-172.31 C83.006,-170.75 82.938,-169.2 82.869,-167.65 82.336,-167.22 81.802,-166.8 81.269,-166.37 81.197,-166.31 81.12,-166.26 81.04,-166.21 80.978,-166.18 80.844,-166.12 80.844,-166.12 M92.246,-169.53 C92.246,-169.53 92.211,-169.57 92.19,-169.59 92.121,-169.65 92.047,-169.69 91.967,-169.72 91.296,-169.96 90.35,-169.09 89.684,-167.61 89.443,-167.08 89.255,-166.49 89.137,-165.92 89.078,-165.64 89.038,-165.36 89.016,-165.09 89.006,-164.96 89,-164.83 88.999,-164.7 88.998,-164.58 89.001,-164.46 89.01,-164.34 89.016,-164.26 89.039,-164.1 89.039,-164.1 M103.68,-159.3 C103.68,-159.3 103.63,-159.43 103.6,-159.5 103.58,-159.57 103.56,-159.64 103.54,-159.72 103.5,-159.87 103.47,-160.04 103.46,-160.23 103.42,-160.68 103.3,-161.04 103.13,-161.28 101.7,-163.28 100.26,-165.28 98.822,-167.28 98.72,-167.43 98.596,-167.53 98.455,-167.58 97.67,-167.86 96.534,-166.61 95.901,-164.78 95.269,-162.94 95.373,-161.19 96.135,-160.84 96.431,-160.71 96.799,-160.8 97.185,-161.11 97.899,-161.68 98.615,-162.25 99.329,-162.82 99.841,-163.22 100.33,-163.36 100.73,-163.22 100.91,-163.15 101.08,-163.03 101.21,-162.86 101.75,-162.1 102.3,-161.35 102.84,-160.59 102.93,-160.46 103,-160.27 103.04,-160.05 103.05,-159.98 103.06,-159.9 103.07,-159.82 103.08,-159.71 103.09,-159.6 103.11,-159.5 103.11,-159.5 103.11,-159.49 103.11,-159.49 M75.43,-167.91 C75.43,-167.91 75.415,-167.94 75.411,-167.96 75.408,-167.96 75.406,-167.97 75.405,-167.98 75.402,-168.01 75.407,-168.04 75.419,-168.06 75.441,-168.1 75.486,-168.13 75.549,-168.15 75.593,-168.16 75.638,-168.17 75.682,-168.18 75.727,-168.19 75.772,-168.21 75.816,-168.22 75.906,-168.25 75.996,-168.28 76.086,-168.31 76.148,-168.33 76.223,-168.34 76.293,-168.32 76.327,-168.31 76.359,-168.29 76.388,-168.28 76.403,-168.27 76.416,-168.26 76.429,-168.25 76.442,-168.23 76.454,-168.22 76.465,-168.21 76.475,-168.19 76.496,-168.17 76.496,-168.17 M72.219,-168.97 C72.219,-168.97 72.24,-168.99 72.248,-169 72.259,-169.01 72.268,-169.03 72.276,-169.04 72.292,-169.07 72.301,-169.11 72.302,-169.14 72.304,-169.2 72.278,-169.26 72.262,-169.31 72.253,-169.34 72.245,-169.37 72.239,-169.4 72.232,-169.44 72.225,-169.47 72.22,-169.5 72.213,-169.54 72.216,-169.66 72.162,-169.68 72.14,-169.69 72.114,-169.68 72.087,-169.65 72.068,-169.63 72.049,-169.61 72.03,-169.59 72.013,-169.57 71.996,-169.54 71.979,-169.52 71.913,-169.43 71.866,-169.35 71.837,-169.27 71.819,-169.22 71.801,-169.17 71.783,-169.12 M91.728,-162.52 C91.728,-162.52 91.713,-162.55 91.709,-162.57 91.706,-162.58 91.704,-162.58 91.703,-162.59 91.7,-162.62 91.705,-162.65 91.717,-162.67 91.739,-162.71 91.785,-162.74 91.847,-162.76 91.891,-162.77 91.936,-162.78 91.98,-162.79 92.025,-162.81 92.07,-162.82 92.115,-162.83 92.204,-162.86 92.294,-162.89 92.384,-162.92 92.446,-162.95 92.521,-162.95 92.591,-162.93 92.643,-162.91 92.69,-162.89 92.727,-162.86 92.74,-162.84 92.753,-162.83 92.763,-162.82 92.774,-162.8 92.795,-162.78 92.795,-162.78 M92.687,-154.77 C92.687,-154.77 92.567,-154.67 92.51,-154.62 92.434,-154.55 92.359,-154.48 92.288,-154.41 92.235,-154.35 92.184,-154.27 92.142,-154.18 92.078,-154.04 92.04,-153.88 92.039,-153.75 92.038,-153.62 92.073,-153.52 92.136,-153.49 92.856,-153.17 93.579,-152.85 94.3,-152.53 94.386,-152.49 94.507,-152.58 94.605,-152.76 94.704,-152.93 94.762,-153.16 94.751,-153.33 94.736,-153.55 94.707,-153.76 94.665,-153.95 94.644,-154.05 94.62,-154.14 94.59,-154.23 94.573,-154.28 94.53,-154.38 94.53,-154.38 M17.179,-176.2 C17.093,-176.21 17.008,-176.24 16.927,-176.27 M83.241,-160.02 C83.241,-160.02 83.308,-160.28 83.346,-160.41 83.384,-160.55 83.426,-160.68 83.47,-160.82 83.513,-160.95 83.56,-161.08 83.609,-161.21 83.657,-161.34 83.709,-161.47 83.762,-161.6 83.815,-161.73 83.871,-161.85 83.929,-161.98 83.933,-161.99 83.942,-162 83.942,-162 M82.958,-160.11 C82.958,-160.11 83.022,-160.36 83.058,-160.49 83.099,-160.63 83.142,-160.77 83.188,-160.91 83.234,-161.05 83.282,-161.19 83.334,-161.32 83.385,-161.46 83.438,-161.6 83.495,-161.73 83.546,-161.85 83.657,-162.1 83.657,-162.1 M85.371,-161.53 C85.371,-161.53 85.37,-161.53 85.369,-161.53 85.309,-161.4 85.251,-161.26 85.196,-161.13 85.14,-161 85.087,-160.86 85.036,-160.72 84.985,-160.59 84.937,-160.45 84.891,-160.31 84.846,-160.17 84.803,-160.03 84.763,-159.89 84.731,-159.77 84.673,-159.54 84.673,-159.54 M98.275,-150.9 L106.68,-148.12 M92.519,-154.73 L92.961,-155.99 94.129,-156.41 M66.243,-164.83 L92.961,-155.99 M97.129,-155.43 L94.129,-156.41 89.057,-158.09 M97.827,-157.41 L95.043,-159.01 89.972,-160.69 M94.446,-160.22 L94.889,-161.48 M95.043,-159.01 L94.446,-160.22 67.728,-169.05 M88.78,-158.18 L72.759,-163.47 M89.694,-160.78 L73.674,-166.08 M72.482,-163.57 L67.41,-165.24 M73.396,-166.17 L68.325,-167.85 M82.549,-150.3 L82.551,-154.41 M80.861,-154.66 C80.855,-154.66 80.845,-154.67 80.845,-154.67 M82.864,-154.08 L82.862,-150.2 M82.489,-43.411 L82.545,-143.49 M82.858,-143.39 L82.803,-43.698 M82.801,-39.763 C82.8,-39.028 82.8,-38.297 82.799,-37.561 82.695,-37.466 82.591,-37.37 82.486,-37.275 81.959,-37.513 81.518,-37.804 81.186,-38.132 81.03,-38.286 80.888,-38.458 80.775,-38.645 80.673,-38.814 80.592,-38.999 80.545,-39.191 80.529,-39.257 80.531,-39.393 80.531,-39.393 M82.486,-37.275 L82.487,-39.476 M84.176,-41.011 C84.171,-41.01 84.163,-41.01 84.163,-41.01"/>
    </g>
  </g>
  <g id="C3DA0001" vm2d:name="Axials" vm2d:type="layer"/>
  <g id="C3DC0001" vm2d:name="Callouts" vm2d:type="layer"/>
  <g id="C3DP0001" vm2d:name="Panels" vm2d:type="layer"/>
  <g id="AUTOID_003" vm2d:name="" vm2d:type="grnode">
    <g transform="matrix(3.78235,0,0,3.78235,-0,839.841)" stroke-width="0.40008" stroke-linecap="round" stroke-linejoin="round" stroke-miterlimit="2">
      <path fill="#fff" stroke="#fff" d="M94.579,-181.78 L93.294,-179.46 94.318,-178.9 90.575,-177.43 89.856,-181.37 90.871,-180.81 92.156,-183.13 Z"/>
      <path fill="#fff" stroke="#000" stroke-width="0.18004" d="M94.579,-181.78 L93.294,-179.46 94.318,-178.9 90.575,-177.43 89.856,-181.37 90.871,-180.81 92.156,-183.13 Z"/>
    </g>
  </g>
  <g id="AUTOID_161" vm2d:name="" vm2d:type="grnode">
    <g transform="matrix(3.78235,0,0,3.78235,-0,839.841)" stroke-width="0.01" stroke-linecap="round" stroke-linejoin="round" stroke-miterlimit="10">
      <path fill="#fff" stroke="#fff" d="M92.5,-187.16 L96,-187.16 96,-183.66 92.5,-183.66 92.5,-187.16 92.5,-187.16 Z"/>
      <path fill="#000" d="M94.644,-185.1 L94.644,-185.1 94.225,-186.22 93.817,-185.1 93.629,-184.58 93.379,-183.9 92.73,-183.9 93.91,-186.93 94.557,-186.93 95.769,-183.9 95.769,-183.9 95.105,-183.9 94.839,-184.58 93.629,-184.58 93.817,-185.1 94.644,-185.1 94.644,-185.1 Z"/>
    </g>
  </g>
</svg>
