<?xml version="1.0" encoding="UTF-8" standalone="no"?>
<!DOCTYPE svg SYSTEM "http://www.w3.org/Graphics/SVG/1.1/DTD/svg11.dtd" [
<!ENTITY % SVG.External.attrib
"xmlns:vm2d CDATA #FIXED 'http://www.cortona3d.com/vm2d'
vm2d:name CDATA #IMPLIED
vm2d:type CDATA #IMPLIED">
]>
<svg xmlns="http://www.w3.org/2000/svg" xmlns:vm2d="http://www.cortona3d.com/vm2d" xmlns:xlink="http://www.w3.org/1999/xlink" version="1.1" width="170mm" height="222mm" viewBox="0 0 643 840" fill="none" fill-rule="evenodd" stroke-miterlimit="5">
  <title>ICN-SCOOTER-A-0101000-0-ECIAS-00000-A-002-01</title>
  <desc>"Generator:ParallelGraphics Cortona2D","ProfileId:WebCGM""ProfileEd:2.1""ColourClass:colour""Source:Cortona2D Editor Pro 14.2.0.142""Date:20250507"</desc>
  <rect width="643" height="840" fill="#fff"/>
  <defs/>
  <g id="C3DB0001" vm2d:name="Background" vm2d:type="layer"/>
  <g id="C3DG0001" vm2d:name="Drawing" vm2d:type="layer">
    <g transform="matrix(3.78235,0,0,3.78235,-0,839.841)" stroke-width="0.18" stroke-linecap="round" stroke-linejoin="round" stroke-miterlimit="10">
      <path stroke="#000" d="M85.088,-35.111 C85.088,-35.111 83.99,-34.106 83.442,-33.604 83.285,-33.462 83.051,-33.416 82.799,-33.479 82.548,-33.542 82.304,-33.708 82.132,-33.933 81.814,-34.348 81.803,-34.84 82.104,-35.117 82.7,-35.662 83.894,-36.755 83.894,-36.755 84.03,-36.791 84.196,-36.781 84.365,-36.725 84.451,-36.696 84.535,-36.657 84.613,-36.61 84.618,-36.607 84.626,-36.601 84.626,-36.601 M84.113,-107.87 C84.113,-108.23 83.943,-108.62 83.652,-108.94 83.361,-109.26 82.982,-109.46 82.624,-109.49 82.019,-109.54 81.631,-109.1 81.732,-108.46 81.833,-107.83 82.39,-107.22 83.012,-107.07 83.633,-106.91 84.112,-107.26 84.113,-107.87 Z M84.111,-108.08 L84.113,-107.87 M82.847,-109.47 L82.624,-109.49 M72.531,-115.12 C72.531,-115.12 72.469,-115.2 72.437,-115.24 72.417,-115.27 72.396,-115.29 72.374,-115.31 72.301,-115.39 72.208,-115.4 72.108,-115.39 71.969,-115.37 71.828,-115.35 71.689,-115.32 71.626,-115.31 71.563,-115.28 71.515,-115.22 71.467,-115.17 71.439,-115.1 71.438,-115.04 71.431,-114.27 71.43,-113.51 71.437,-112.75 71.438,-112.61 71.592,-112.38 71.855,-112.14 72.119,-111.9 72.465,-111.67 72.798,-111.51 73.52,-111.17 74.429,-110.97 75.381,-110.93 75.929,-110.91 76.461,-110.99 77.006,-111.02 77.144,-111.03 77.282,-111.04 77.421,-111.04 77.559,-111.04 77.699,-111.04 77.837,-111.03 77.972,-111.03 78.242,-111.01 78.242,-111.01 78.233,-111.01 78.498,-110.98 78.63,-110.96 78.759,-110.94 78.888,-110.91 79.016,-110.89 79.269,-110.83 79.512,-110.77 79.741,-110.69 80.085,-110.57 80.396,-110.42 80.662,-110.25 80.748,-110.19 80.832,-110.14 80.912,-110.07 80.988,-110.01 81.061,-109.95 81.13,-109.88 81.175,-109.84 81.258,-109.74 81.251,-109.75 81.251,-109.75 81.353,-109.62 81.396,-109.55 81.403,-109.54 81.415,-109.51 81.415,-109.51 M78.208,-114.66 C78.208,-114.66 78.123,-114.71 78.08,-114.73 78.029,-114.76 77.977,-114.78 77.925,-114.81 77.871,-114.83 77.816,-114.86 77.761,-114.88 77.594,-114.95 77.416,-115.01 77.228,-115.06 77.041,-115.11 76.846,-115.16 76.645,-115.19 76.578,-115.2 76.511,-115.21 76.443,-115.22 76.375,-115.23 76.238,-115.24 76.248,-115.24 76.248,-115.24 76.11,-115.25 76.042,-115.25 75.97,-115.26 75.899,-115.26 75.827,-115.26 75.685,-115.27 75.54,-115.27 75.397,-115.26 75.257,-115.25 75.093,-115.21 74.971,-115.31 74.941,-115.34 74.921,-115.37 74.897,-115.4 74.893,-115.41 74.89,-115.41 74.887,-115.42 74.833,-115.56 74.789,-115.67 74.787,-115.68 74.768,-115.71 74.77,-115.79 74.77,-115.82 74.77,-116.24 74.771,-117.08 74.771,-117.08 M92.013,-106.26 C92.013,-106.26 92.126,-106.13 92.175,-106.06 92.221,-106 92.258,-105.92 92.3,-105.85 92.407,-105.67 92.513,-105.5 92.661,-105.35 92.956,-105.05 93.284,-104.81 93.664,-104.62 94.312,-104.3 95.008,-104.15 95.719,-104.06 95.999,-104.02 96.461,-104 96.827,-104.01 96.948,-104.01 97.069,-104.02 97.19,-104.03 97.195,-104.03 97.2,-104.03 97.204,-104.03 97.301,-104.05 97.346,-104.05 97.415,-104.14 97.44,-104.17 97.453,-104.21 97.471,-104.25 97.478,-104.26 97.478,-104.28 97.478,-104.3 97.48,-105.06 97.48,-105.82 97.48,-106.58 97.48,-106.61 97.482,-106.69 97.463,-106.72 97.461,-106.73 97.417,-106.85 97.363,-106.98 97.36,-106.99 97.357,-107 97.353,-107 97.329,-107.03 97.309,-107.07 97.279,-107.09 97.142,-107.2 96.913,-107.14 96.764,-107.14 96.663,-107.14 96.562,-107.14 96.461,-107.14 96.36,-107.14 96.259,-107.15 96.158,-107.15 96.058,-107.16 95.859,-107.18 95.859,-107.18 M78.95,-115.35 C78.95,-115.35 78.932,-115.32 78.922,-115.3 78.9,-115.26 78.876,-115.23 78.851,-115.19 78.83,-115.17 78.785,-115.11 78.785,-115.11 M85.624,-109.9 C85.625,-109.87 85.623,-109.84 85.621,-109.81 85.62,-109.78 85.618,-109.76 85.618,-109.73 85.617,-108.97 85.617,-108.21 85.617,-107.45 85.617,-107.42 85.618,-107.4 85.62,-107.38 85.621,-107.36 85.624,-107.34 85.622,-107.33 85.623,-107.16 85.624,-106.99 85.62,-106.82 85.62,-106.78 85.598,-106.74 85.561,-106.71 85.328,-106.49 85.094,-106.28 84.857,-106.07 84.823,-106.03 84.763,-106.03 84.707,-106.05 83.642,-106.4 82.574,-106.75 81.511,-107.1 81.449,-107.12 81.414,-107.18 81.414,-107.26 81.414,-108.44 81.412,-109.63 81.416,-110.81 81.416,-110.85 81.438,-110.89 81.476,-110.92 81.709,-111.14 81.944,-111.35 82.179,-111.57 82.193,-111.58 82.241,-111.6 82.251,-111.6 82.268,-111.6 82.286,-111.59 82.304,-111.59 82.313,-111.59 82.322,-111.59 82.33,-111.59 83.394,-111.24 84.463,-110.89 85.525,-110.53 85.573,-110.51 85.577,-110.5 85.603,-110.46 85.62,-110.43 85.622,-110.4 85.622,-110.37 85.624,-110.22 85.624,-110.06 85.624,-109.9 Z M82.247,-112.24 L82.273,-112.1 M82.574,-111.55 C82.574,-111.55 82.485,-111.66 82.446,-111.72 82.405,-111.79 82.367,-111.85 82.336,-111.92 82.305,-111.99 82.28,-112.06 82.261,-112.13 M89.825,-111.76 C89.825,-111.76 89.811,-111.73 89.803,-111.72 89.764,-111.66 89.675,-111.55 89.675,-111.55 M85.622,-107.31 C85.622,-107.31 85.674,-107.31 85.7,-107.31 85.786,-107.3 85.873,-107.3 85.96,-107.3 86.046,-107.3 86.133,-107.3 86.22,-107.3 86.394,-107.3 86.567,-107.31 86.739,-107.32 86.915,-107.33 87.146,-107.36 87.274,-107.37 87.405,-107.39 87.669,-107.42 87.661,-107.42 87.661,-107.42 87.931,-107.44 88.066,-107.45 88.204,-107.45 88.344,-107.46 88.482,-107.45 88.62,-107.45 88.759,-107.45 88.897,-107.44 89.027,-107.43 89.286,-107.4 89.286,-107.4 89.285,-107.4 89.547,-107.36 89.677,-107.34 89.804,-107.31 89.93,-107.29 90.056,-107.26 90.303,-107.2 90.54,-107.12 90.761,-107.04 90.983,-106.95 91.189,-106.85 91.375,-106.74 91.466,-106.69 91.555,-106.63 91.64,-106.57 91.721,-106.52 91.799,-106.46 91.874,-106.39 91.934,-106.34 92.047,-106.22 92.047,-106.22 M93.175,-108.85 C93.175,-108.85 93.181,-108.76 93.188,-108.72 93.19,-108.71 93.194,-108.69 93.194,-108.69 M93.462,-108.2 C93.462,-108.2 93.412,-108.26 93.389,-108.29 93.364,-108.33 93.341,-108.36 93.32,-108.4 93.259,-108.5 93.212,-108.61 93.182,-108.73 M99.647,-107.37 C99.647,-107.37 99.708,-107.3 99.736,-107.27 99.763,-107.23 99.786,-107.19 99.813,-107.16 99.833,-107.14 99.854,-107.11 99.876,-107.09 99.949,-107.02 100.04,-107 100.14,-107.02 100.28,-107.04 100.42,-107.06 100.56,-107.08 100.63,-107.09 100.69,-107.13 100.74,-107.18 100.78,-107.24 100.81,-107.31 100.81,-107.37 100.82,-108.13 100.82,-108.89 100.81,-109.65 100.81,-109.8 100.66,-110.01 100.37,-110.28 99.906,-110.72 99.193,-111.07 98.341,-111.28 97.979,-111.36 97.495,-111.44 97.19,-111.45 97.062,-111.46 96.933,-111.47 96.805,-111.47 96.677,-111.48 96.548,-111.48 96.419,-111.48 96.291,-111.47 96.163,-111.47 96.035,-111.46 96.013,-111.46 95.969,-111.45 95.969,-111.45 M96.029,-108.32 C96.029,-108.32 96.169,-108.33 96.238,-108.34 96.31,-108.34 96.382,-108.34 96.453,-108.34 96.525,-108.35 96.596,-108.35 96.668,-108.34 96.74,-108.34 96.811,-108.34 96.883,-108.34 96.954,-108.34 97.025,-108.33 97.097,-108.33 97.161,-108.32 97.289,-108.31 97.289,-108.31 97.288,-108.31 97.424,-108.29 97.492,-108.28 97.626,-108.26 97.76,-108.24 97.889,-108.21 98.148,-108.15 98.394,-108.08 98.621,-107.99 98.849,-107.9 99.056,-107.8 99.239,-107.68 99.331,-107.62 99.416,-107.56 99.494,-107.5 99.532,-107.47 99.57,-107.43 99.606,-107.4 99.637,-107.37 99.698,-107.31 99.698,-107.31 M95.877,-107.18 C95.877,-107.18 95.687,-107.2 95.593,-107.22 95.5,-107.23 95.407,-107.25 95.314,-107.27 95.224,-107.29 95.133,-107.31 95.044,-107.34 94.898,-107.38 94.753,-107.43 94.609,-107.48 94.436,-107.54 94.166,-107.67 93.982,-107.78 93.888,-107.84 93.802,-107.9 93.721,-107.96 93.682,-107.99 93.644,-108.02 93.606,-108.05 93.57,-108.09 93.535,-108.12 93.502,-108.15 93.47,-108.19 93.408,-108.26 93.408,-108.26 M72.488,-115.17 C72.488,-115.17 72.577,-115.07 72.625,-115.02 72.676,-114.97 72.729,-114.93 72.784,-114.88 72.842,-114.84 72.902,-114.8 72.963,-114.76 73.15,-114.63 73.412,-114.5 73.608,-114.42 73.749,-114.37 73.893,-114.32 74.037,-114.28 74.099,-114.26 74.162,-114.24 74.225,-114.23 74.352,-114.2 74.483,-114.17 74.616,-114.15 74.683,-114.13 74.75,-114.12 74.817,-114.12 74.883,-114.11 75.016,-114.09 75.016,-114.09 M75.003,-114.09 C75.003,-114.09 75.145,-114.08 75.215,-114.07 75.287,-114.07 75.358,-114.07 75.43,-114.06 75.501,-114.06 75.573,-114.06 75.645,-114.06 75.716,-114.06 75.788,-114.06 75.86,-114.06 75.931,-114.06 76.003,-114.07 76.074,-114.07 76.145,-114.08 76.287,-114.09 76.287,-114.09 76.277,-114.09 76.408,-114.1 76.474,-114.11 76.541,-114.12 76.609,-114.13 76.676,-114.14 76.742,-114.15 76.808,-114.16 76.874,-114.18 77.136,-114.23 77.385,-114.3 77.617,-114.39 78.141,-114.58 78.551,-114.84 78.83,-115.16 M82.532,-111.6 L82.64,-111.48 M89.717,-111.59 C89.387,-111.22 88.948,-110.96 88.49,-110.77 88.176,-110.64 87.829,-110.54 87.461,-110.47 87.338,-110.44 87.213,-110.42 87.088,-110.41 86.965,-110.39 86.717,-110.37 86.72,-110.37 86.72,-110.37 86.455,-110.35 86.322,-110.35 86.189,-110.34 86.055,-110.34 85.922,-110.35 85.822,-110.35 85.622,-110.36 85.622,-110.36 M96.041,-108.32 C96.041,-108.32 95.904,-108.31 95.836,-108.3 95.768,-108.29 95.7,-108.28 95.633,-108.27 95.432,-108.24 95.236,-108.2 95.048,-108.15 94.86,-108.1 94.681,-108.04 94.512,-107.97 94.457,-107.95 94.402,-107.93 94.347,-107.9 94.295,-107.88 94.242,-107.85 94.191,-107.83 94.141,-107.8 94.091,-107.77 94.042,-107.74 94.042,-107.74 94.042,-107.74 94.042,-107.74 M57.884,-62.309 C57.885,-62.308 57.884,-62.306 57.883,-62.306 M52.494,-52.587 C53.708,-56.04 54.914,-59.473 56.128,-62.926 56.194,-62.958 56.26,-62.989 56.326,-63.021 56.349,-63.03 56.674,-62.929 57.065,-62.792 57.456,-62.654 57.774,-62.529 57.789,-62.507 57.821,-62.441 57.852,-62.375 57.883,-62.306 56.67,-58.853 55.464,-55.422 54.251,-51.969 M54.138,-48.98 C54.447,-49.86 54.754,-50.735 55.064,-51.615 55.121,-51.637 54.4,-51.925 53.455,-52.259 53.001,-52.42 52.555,-52.57 52.215,-52.676 51.875,-52.782 51.668,-52.836 51.641,-52.825 51.332,-51.945 51.024,-51.07 50.715,-50.19 M82.627,-188.68 C82.659,-188.67 82.691,-188.66 82.723,-188.65 82.756,-188.63 82.788,-188.62 82.82,-188.61 82.853,-188.59 82.886,-188.58 82.918,-188.57 83.119,-188.47 83.311,-188.37 83.498,-188.25 83.677,-188.14 83.865,-187.96 84.067,-187.9 84.513,-187.74 84.963,-187.6 85.41,-187.45 85.844,-187.31 86.401,-187.93 86.656,-188.83 86.88,-189.63 86.766,-190.27 86.378,-190.4 85.936,-190.55 85.492,-190.69 85.051,-190.84 85.017,-190.85 84.983,-190.86 84.948,-190.87 84.46,-190.96 83.965,-190.97 83.486,-191.13 M82.706,-188.65 C82.706,-188.65 82.726,-188.64 82.736,-188.64 82.744,-188.64 82.759,-188.63 82.759,-188.63 M83.247,-188.4 C83.247,-188.4 83.246,-188.4 83.245,-188.4 M83.56,-191.1 C83.535,-191.11 83.511,-191.12 83.486,-191.13 83.468,-191.13 83.45,-191.14 83.432,-191.15 83.337,-191.18 83.246,-191.21 83.16,-191.25 83.049,-191.3 82.946,-191.36 82.856,-191.41 82.792,-191.45 82.736,-191.5 82.693,-191.53 82.653,-191.57 82.626,-191.6 82.619,-191.62 82.612,-191.64 82.625,-191.64 82.656,-191.63 82.795,-191.58 82.922,-191.48 83.043,-191.4 83.105,-191.36 83.167,-191.32 83.229,-191.28 83.261,-191.26 83.293,-191.24 83.325,-191.22 83.357,-191.2 83.39,-191.18 83.422,-191.16 83.44,-191.15 83.475,-191.13 83.475,-191.13 M83.245,-188.4 C83.006,-188.48 82.758,-188.53 82.509,-188.56 82.24,-188.6 81.932,-188.6 81.672,-188.69 81.583,-188.72 81.576,-188.76 81.654,-188.78 81.733,-188.81 81.881,-188.82 82.025,-188.81 82.167,-188.8 82.32,-188.77 82.477,-188.73 82.509,-188.72 82.541,-188.71 82.573,-188.7 82.591,-188.69 82.609,-188.69 82.627,-188.68 82.651,-188.67 82.675,-188.66 82.699,-188.65 82.707,-188.65 82.715,-188.65 82.723,-188.65 M82.919,-188.56 L82.891,-188.58 M82.844,-188.6 L82.783,-188.62 M82.656,-191.63 C82.211,-191.78 81.764,-191.93 81.319,-192.08 81.252,-192.1 81.173,-192.1 81.096,-192.09 80.73,-192.01 80.338,-191.51 80.114,-190.83 79.897,-190.17 79.91,-189.55 80.147,-189.26 80.201,-189.2 80.27,-189.15 80.351,-189.12 80.791,-188.98 81.232,-188.83 81.672,-188.69 M116.39,-178.41 C116.77,-177.88 117.15,-177.36 117.52,-176.83 117.89,-176.3 117.57,-175.42 118.26,-175.06 118.27,-175.06 118.28,-175.06 118.29,-175.07 118.3,-175.08 118.3,-175.1 118.31,-175.11 118.35,-175.24 118.39,-175.37 118.44,-175.49 118.45,-175.53 118.45,-175.55 118.43,-175.56 118.27,-175.65 118.14,-175.82 118.06,-176.07 117.92,-176.47 117.99,-176.95 117.73,-177.31 116.73,-178.71 115.72,-180.11 114.72,-181.5 114.65,-181.6 114.57,-181.67 114.47,-181.7 113.92,-181.9 113.13,-181.03 112.69,-179.75 112.24,-178.47 112.32,-177.25 112.85,-177.01 113.06,-176.91 113.31,-176.98 113.58,-177.19 114.08,-177.59 114.58,-177.99 115.08,-178.38 115.43,-178.67 115.77,-178.77 116.06,-178.66 116.18,-178.62 116.3,-178.53 116.39,-178.41 Z M99.963,-181.27 C99.963,-181.27 99.998,-181.22 100.02,-181.19 100.05,-181.16 100.08,-181.13 100.12,-181.1 100.16,-181.07 100.19,-181.04 100.23,-181.02 106.26,-179.03 112.24,-177.05 118.26,-175.06 M98.57,-186.96 C97.858,-187.2 97.151,-187.43 96.439,-187.66 95.891,-187.86 95.099,-186.99 94.657,-185.71 94.216,-184.43 94.289,-183.21 94.821,-182.97 95.532,-182.73 96.239,-182.5 96.951,-182.26 M98.952,-183.29 L98.8,-183.34 M103.36,-185.38 C102.56,-185.64 101.77,-185.9 100.97,-186.17 100.42,-186.37 99.626,-185.5 99.184,-184.22 98.743,-182.94 98.816,-181.72 99.348,-181.47 100.15,-181.21 100.94,-180.94 101.74,-180.68 M103.18,-184.85 C103.02,-184.91 102.81,-184.81 102.6,-184.57 102.39,-184.34 102.19,-183.99 102.06,-183.6 101.79,-182.79 101.85,-182.03 102.2,-181.9 102.54,-181.78 103.05,-182.33 103.32,-183.15 103.59,-183.96 103.53,-184.72 103.18,-184.85 Z M105.53,-181.11 L103.59,-181.75 M109.94,-183.2 C109.14,-183.47 108.34,-183.73 107.54,-183.99 107,-184.19 106.2,-183.32 105.76,-182.04 105.32,-180.76 105.39,-179.54 105.93,-179.3 106.73,-179.03 107.52,-178.77 108.32,-178.5 M109.76,-182.67 C109.42,-182.8 108.91,-182.24 108.64,-181.42 108.37,-180.61 108.43,-179.85 108.77,-179.73 109.12,-179.6 109.62,-180.16 109.9,-180.97 110.17,-181.79 110.11,-182.55 109.76,-182.67 Z M110.32,-179.53 L110.17,-179.58 M114.47,-181.7 C113.76,-181.94 113.05,-182.17 112.34,-182.41 111.79,-182.61 111,-181.74 110.56,-180.46 110.11,-179.18 110.19,-177.96 110.72,-177.71 111.43,-177.48 112.14,-177.24 112.85,-177.01 M114.42,-179.48 C114.55,-179.87 114.61,-180.26 114.59,-180.58 114.56,-180.9 114.46,-181.11 114.29,-181.17 113.94,-181.3 113.44,-180.74 113.17,-179.93 113.04,-179.54 112.98,-179.14 113,-178.82 113.03,-178.5 113.13,-178.29 113.3,-178.23 113.47,-178.17 113.68,-178.27 113.89,-178.5 114.1,-178.73 114.29,-179.09 114.42,-179.48 Z M89.306,-151.82 C89.298,-151.82 89.289,-151.83 89.281,-151.83 88.992,-151.94 88.736,-152.14 88.457,-152.27 88.327,-152.33 88.192,-152.39 88.052,-152.43 87.83,-152.49 87.621,-152.5 87.582,-152.45 87.56,-152.42 87.617,-152.38 87.739,-152.34 87.907,-152.29 88.082,-152.26 88.254,-152.23 88.343,-152.21 88.432,-152.19 88.521,-152.17 88.551,-152.16 88.581,-152.16 88.61,-152.15 88.639,-152.14 88.668,-152.14 88.697,-152.13 88.723,-152.12 88.774,-152.11 88.774,-152.11 M86.552,-152.73 C86.54,-152.74 86.529,-152.74 86.517,-152.74 86.342,-152.8 86.269,-152.9 86.307,-153.02 86.349,-153.16 86.522,-153.32 86.756,-153.43 86.804,-153.45 86.84,-153.5 86.853,-153.54 86.867,-153.6 86.845,-153.65 86.83,-153.7 86.818,-153.74 86.808,-153.78 86.801,-153.83 86.796,-153.86 86.798,-153.94 86.76,-153.96 86.745,-153.96 86.727,-153.96 86.708,-153.94 86.695,-153.92 86.681,-153.91 86.668,-153.89 86.656,-153.87 86.644,-153.86 86.633,-153.84 86.587,-153.78 86.554,-153.72 86.534,-153.67 86.458,-153.45 86.383,-153.24 86.307,-153.02"/>
      <path stroke="#000" d="M86.517,-152.74 L87.739,-152.34 M89.281,-151.83 L90.507,-151.42 M89.643,-153 L86.76,-153.96 M64.542,-87.37 C63.776,-87.622 63.015,-87.873 62.25,-88.125 62.01,-88.23 61.717,-88.166 61.407,-87.939 61.158,-87.758 60.927,-87.532 60.924,-87.204 60.923,-87.112 60.948,-87.047 60.991,-87.027 61.494,-86.803 61.998,-86.578 62.501,-86.353 68.531,-84.359 74.525,-82.377 80.556,-80.384 M66.175,-85.201 C66.211,-85.214 65.749,-85.399 65.143,-85.613 64.537,-85.828 64.017,-85.99 63.981,-85.976 63.944,-85.962 64.406,-85.777 65.012,-85.563 65.618,-85.349 66.138,-85.187 66.175,-85.201 Z M77.572,-81.432 C77.608,-81.446 77.147,-81.631 76.541,-81.845 75.935,-82.059 75.414,-82.221 75.378,-82.208 75.342,-82.194 75.803,-82.009 76.409,-81.795 77.015,-81.581 77.536,-81.418 77.572,-81.432 Z M76.643,-83.189 C76.643,-83.189 76.588,-83.222 76.561,-83.238 76.531,-83.257 76.501,-83.276 76.47,-83.295 76.441,-83.313 76.412,-83.332 76.383,-83.35 76.355,-83.368 76.328,-83.385 76.301,-83.402 76.186,-83.474 76.068,-83.556 75.939,-83.602 75.891,-83.618 75.865,-83.616 75.866,-83.596 75.867,-83.562 75.922,-83.507 76.015,-83.447 76.107,-83.386 76.23,-83.325 76.349,-83.28 76.52,-83.215 76.697,-83.171 76.876,-83.136 77.221,-83.068 77.593,-83.059 77.927,-82.944 78.721,-82.681 79.511,-82.419 80.305,-82.156 M65.245,-86.957 C65.245,-86.957 65.19,-86.99 65.163,-87.007 65.133,-87.026 65.102,-87.045 65.072,-87.064 65.043,-87.083 65.014,-87.101 64.985,-87.119 64.957,-87.136 64.93,-87.154 64.903,-87.171 64.789,-87.242 64.67,-87.325 64.542,-87.37 64.494,-87.387 64.468,-87.385 64.469,-87.365 64.47,-87.33 64.524,-87.276 64.617,-87.215 64.71,-87.154 64.832,-87.093 64.952,-87.048 65.122,-86.984 65.3,-86.94 65.478,-86.904 65.823,-86.836 66.195,-86.828 66.529,-86.713 69.672,-85.674 72.796,-84.641 75.939,-83.602 M53.426,-132.3 C53.426,-132.3 53.421,-132.33 53.417,-132.35 53.397,-132.44 53.373,-132.52 53.344,-132.61 53.282,-132.8 53.241,-132.87 53.142,-133.04 52.999,-133.28 52.757,-133.5 52.552,-133.57 42.535,-136.89 32.482,-140.2 22.461,-143.51 21.327,-143.89 19.943,-142.5 19.14,-140.18 18.755,-139.07 18.589,-137.92 18.678,-137 18.768,-136.08 19.107,-135.47 19.617,-135.3 29.634,-131.98 39.687,-128.66 49.708,-125.35 50.012,-125.25 50.283,-125.27 50.584,-125.38 50.708,-125.42 50.753,-125.44 50.889,-125.52 50.962,-125.56 51.033,-125.61 51.102,-125.66 51.176,-125.72 51.248,-125.78 51.316,-125.84 51.326,-125.85 51.344,-125.87 51.344,-125.87 M49.967,-126.26 L50.013,-126.23 M49.978,-126.25 C49.978,-126.25 49.897,-126.31 49.862,-126.35 49.836,-126.38 49.791,-126.44 49.791,-126.44 M52.247,-132.69 L52.13,-132.72 M51.832,-132.67 C51.832,-132.67 51.884,-132.69 51.911,-132.7 51.963,-132.71 52.016,-132.72 52.069,-132.72 52.118,-132.72 52.168,-132.72 52.218,-132.71 M51.196,-132.21 C51.196,-132.21 51.073,-132.07 51.015,-132 50.954,-131.92 50.895,-131.85 50.838,-131.77 50.722,-131.6 50.609,-131.42 50.502,-131.23 50.287,-130.85 50.096,-130.42 49.941,-129.97 49.786,-129.53 49.67,-129.07 49.599,-128.62 49.563,-128.4 49.539,-128.19 49.527,-127.98 49.522,-127.88 49.518,-127.78 49.518,-127.68 49.518,-127.58 49.527,-127.39 49.527,-127.39 M51.148,-132.15 C51.148,-132.15 51.261,-132.27 51.32,-132.33 51.377,-132.38 51.436,-132.43 51.497,-132.47 51.553,-132.52 51.612,-132.56 51.672,-132.59 51.728,-132.62 51.844,-132.68 51.844,-132.68 M49.526,-127.41 C49.526,-127.41 49.537,-127.27 49.547,-127.2 49.558,-127.12 49.572,-127.04 49.59,-126.96 49.606,-126.89 49.626,-126.82 49.649,-126.75 49.671,-126.68 49.696,-126.62 49.725,-126.56 49.751,-126.5 49.816,-126.39 49.816,-126.39 M68.911,-126.6 C68.89,-126.65 68.871,-126.71 68.85,-126.76 68.743,-127.06 68.565,-127.28 68.375,-127.35 67.508,-127.69 66.611,-127.95 65.725,-128.23 65.6,-128.27 65.472,-128.3 65.347,-128.34 65.281,-128.35 65.215,-128.37 65.15,-128.4 65.096,-128.41 65.043,-128.43 64.99,-128.45 64.973,-128.46 64.957,-128.47 64.94,-128.48 64.932,-128.48 64.924,-128.48 64.916,-128.49 64.907,-128.49 64.899,-128.49 64.891,-128.5 64.886,-128.5 64.882,-128.5 64.878,-128.51 64.875,-128.51 64.873,-128.51 64.871,-128.51 64.87,-128.51 64.867,-128.51 64.868,-128.51 64.868,-128.51 64.863,-128.51 64.864,-128.51 64.89,-128.51 64.956,-128.48 64.971,-128.47 64.99,-128.46 65.009,-128.45 65.028,-128.44 65.032,-128.44 65.038,-128.44 65.038,-128.44 M64.864,-128.51 C64.623,-128.59 64.384,-128.67 64.142,-128.75 63.844,-128.84 63.53,-128.87 63.227,-128.94 63.033,-128.98 62.839,-129.04 62.655,-129.11 62.556,-129.15 62.45,-129.21 62.374,-129.26 62.299,-129.31 62.264,-129.34 62.282,-129.36 62.291,-129.36 62.304,-129.36 62.315,-129.36 62.418,-129.33 62.521,-129.26 62.611,-129.21 62.661,-129.18 62.711,-129.15 62.761,-129.12 62.817,-129.09 62.874,-129.06 62.93,-129.02 62.938,-129.02 62.955,-129.01 62.955,-129.01 M66.454,-120.89 C66.449,-120.9 66.447,-120.91 66.446,-120.92 L66.658,-120.97 C66.795,-120.99 66.94,-121.05 67.089,-121.14 67.7,-121.53 68.319,-122.48 68.7,-123.63 69.081,-124.77 69.162,-125.91 68.911,-126.6 68.692,-127.2 68.25,-127.37 67.722,-127.07 67.195,-126.76 66.646,-126.02 66.247,-125.07 65.984,-124.44 65.803,-123.76 65.731,-123.13 65.69,-122.77 65.686,-122.43 65.717,-122.14 65.733,-121.99 65.758,-121.86 65.791,-121.73 65.807,-121.67 65.826,-121.61 65.847,-121.56 65.867,-121.5 65.89,-121.45 65.916,-121.4 65.94,-121.36 65.967,-121.31 65.996,-121.27 65.952,-121.23 65.899,-121.2 65.846,-121.16 65.838,-121.16 65.828,-121.16 65.819,-121.16 65.81,-121.16 65.803,-121.17 65.798,-121.18 65.766,-121.22 65.738,-121.27 65.713,-121.32 65.686,-121.37 65.662,-121.43 65.641,-121.48 65.619,-121.54 65.599,-121.6 65.582,-121.67 65.547,-121.79 65.522,-121.94 65.505,-122.09 65.472,-122.4 65.477,-122.75 65.52,-123.13 65.584,-123.69 65.732,-124.29 65.948,-124.87 66.585,-126.58 67.654,-127.67 68.375,-127.35 M66.491,-120.86 C66.716,-120.9 66.903,-121.02 67.089,-121.14 M66.491,-120.86 C66.485,-120.86 66.479,-120.86 66.474,-120.86 M50.365,-126.19 C55.745,-124.41 61.093,-122.64 66.474,-120.86 66.535,-120.9 66.597,-120.93 66.658,-120.97 L66.47,-120.87 C66.471,-120.87 66.472,-120.86 66.474,-120.86 M66.005,-121.27 C66.008,-121.27 66.011,-121.27 66.015,-121.28 M52.183,-132.71 L62.315,-129.36 M66.572,-121.8 L65.886,-122.03 M49.775,-126.47 L65.819,-121.16 M156.78,-97.754 C156.78,-97.754 156.8,-97.545 156.81,-97.44 156.81,-97.328 156.82,-97.216 156.81,-97.104 156.81,-96.987 156.81,-96.869 156.8,-96.751 156.77,-96.389 156.72,-96.007 156.63,-95.616 156.49,-94.964 156.27,-94.306 155.99,-93.7 155.19,-91.947 153.99,-90.873 153.14,-91.153 143.12,-94.453 133.07,-97.788 123.05,-101.1 122.35,-101.33 122.07,-102.03 121.99,-102.72 121.83,-104.08 122.24,-105.92 123.04,-107.39 123.84,-108.86 124.86,-109.65 125.62,-109.4 135.65,-106.1 145.69,-102.77 155.71,-99.454 156.12,-99.319 156.4,-99.03 156.57,-98.638 156.64,-98.49 156.69,-98.32 156.73,-98.131 156.75,-98.033 156.76,-97.934 156.78,-97.834 156.78,-97.766 156.79,-97.63 156.79,-97.63 M113.42,-112.46 C113.18,-112.54 112.94,-112.62 112.7,-112.7 112.57,-112.74 112.45,-112.77 112.32,-112.8 112.25,-112.82 112.19,-112.84 112.12,-112.87 112.07,-112.88 112.02,-112.9 111.96,-112.92 111.93,-112.94 111.9,-112.95 111.87,-112.96 111.85,-112.98 111.83,-112.98 111.84,-112.98 111.85,-112.98 111.85,-112.98 111.86,-112.97 111.87,-112.97 111.88,-112.97 111.89,-112.96 111.93,-112.95 111.96,-112.93 112,-112.91 112.01,-112.91 112.01,-112.91 112.01,-112.91 M111.84,-112.98 C111.01,-113.26 110.18,-113.53 109.35,-113.8 108.99,-113.96 108.64,-113.74 108.35,-113.55 107.74,-113.15 107.12,-112.18 106.75,-111.03 106.38,-109.89 106.31,-108.75 106.57,-108.08 106.63,-107.92 106.68,-107.76 106.79,-107.62 M106.79,-107.62 C106.79,-107.61 106.8,-107.61 106.8,-107.61 106.8,-107.61 106.8,-107.61 106.81,-107.6 M107.42,-107.4 L107.44,-107.34 M107.43,-107.4 C107.43,-107.4 107.43,-107.39 107.43,-107.38 107.43,-107.37 107.43,-107.35 107.44,-107.34 107.45,-107.33 107.45,-107.32 107.46,-107.32 112.33,-105.71 117.16,-104.11 122.02,-102.5 M114.06,-112.11 C114.06,-112.11 114.04,-112.12 114.03,-112.13 113.97,-112.16 113.92,-112.19 113.86,-112.23 113.82,-112.25 113.79,-112.27 113.75,-112.29 113.65,-112.35 113.53,-112.43 113.42,-112.46 113.41,-112.46 113.41,-112.46 113.41,-112.46 113.41,-112.46 113.41,-112.46 113.41,-112.46 113.4,-112.46 113.4,-112.46 113.4,-112.46 113.4,-112.46 113.39,-112.46 113.39,-112.46 113.39,-112.46 113.39,-112.46 113.39,-112.46 113.39,-112.46 113.38,-112.46 113.38,-112.46 113.37,-112.46 113.38,-112.44 113.4,-112.42 113.43,-112.4 113.46,-112.37 113.5,-112.34 113.57,-112.3 113.66,-112.26 113.76,-112.22 113.94,-112.14 114.13,-112.09 114.33,-112.04 114.63,-111.98 114.95,-111.95 115.24,-111.86 118.23,-110.87 121.2,-109.89 124.18,-108.9 M106.81,-107.6 L122.01,-102.58 M75.487,-116.51 C75.445,-116.51 75.403,-116.52 75.363,-116.54 75.038,-116.65 74.784,-116.95 74.623,-117.41 74.348,-118.21 73.797,-119.8 73.797,-119.8 M96.243,-118.14 C96.28,-118.33 96.254,-118.48 96.178,-118.51 96.115,-118.55 96.028,-118.5 95.949,-118.38 95.869,-118.27 95.808,-118.11 95.787,-117.96 95.286,-117.64 94.77,-116.97 94.367,-116.09 88.141,-118.15 81.953,-120.2 75.727,-122.25 75.078,-122.63 74.433,-123 73.785,-123.37 73.646,-123.65 73.507,-123.93 73.368,-124.21 73.471,-124.5 73.574,-124.8 73.677,-125.09 79.903,-123.03 86.092,-120.98 92.318,-118.93 92.498,-118.65 92.68,-118.38 92.861,-118.11 92.945,-117.98 93.045,-117.89 93.16,-117.84 93.353,-117.75 93.58,-117.78 93.825,-117.91 94.555,-118.3 95.287,-118.69 96.018,-119.09 96.366,-119.27 96.692,-119.31 96.972,-119.21 97.998,-118.81 98.169,-116.54 97.355,-114.12 96.54,-111.69 95.045,-110.02 94.003,-110.37 93.679,-110.48 93.424,-110.78 93.263,-111.25 92.97,-112.1 92.675,-112.95 92.381,-113.8 92.282,-114.08 92.131,-114.28 91.938,-114.36 91.823,-114.41 91.695,-114.42 91.557,-114.4 91.26,-114.34 90.962,-114.28 90.664,-114.22 84.438,-116.28 78.25,-118.33 72.024,-120.38 72.127,-120.68 72.229,-120.97 72.332,-121.26 72.604,-121.36 72.875,-121.46 73.147,-121.55 73.846,-121.32 74.541,-121.1 75.24,-120.87 81.466,-118.81 87.655,-116.76 93.881,-114.7 93.645,-113.77 93.606,-112.88 93.775,-112.27 93.695,-112.14 93.641,-111.97 93.631,-111.82 93.622,-111.67 93.66,-111.57 93.73,-111.55 93.776,-111.54 93.832,-111.57 93.889,-111.63 94.004,-111.75 94.12,-111.87 94.235,-111.99 94.34,-112.1 94.443,-112.14 94.524,-112.1 94.604,-112.07 94.654,-111.96 94.664,-111.8 94.675,-111.62 94.686,-111.44 94.697,-111.27 94.704,-111.16 94.742,-111.09 94.801,-111.08 94.866,-111.06 94.949,-111.12 95.022,-111.24 95.096,-111.35 95.151,-111.5 95.169,-111.64 95.475,-111.84 95.788,-112.17 96.08,-112.61 M78.051,-119.94 C78.051,-119.94 78.104,-120.07 78.129,-120.13 78.156,-120.2 78.182,-120.27 78.207,-120.35 78.232,-120.42 78.256,-120.49 78.279,-120.56 78.348,-120.78 78.408,-120.99 78.458,-121.21 78.474,-121.22 78.49,-121.22 78.505,-121.23 78.523,-121.24 78.539,-121.26 78.554,-121.27 78.565,-121.28 78.586,-121.31 78.586,-121.31 M94.003,-110.37 L86.872,-112.73 M82.492,-114.18 L75.363,-116.54 M92.884,-120.45 C92.884,-120.45 92.863,-120.46 92.853,-120.47 92.823,-120.49 92.793,-120.5 92.763,-120.52 92.735,-120.53 92.707,-120.55 92.679,-120.56 92.653,-120.58 92.626,-120.59 92.6,-120.61 92.498,-120.66 92.393,-120.72 92.282,-120.76 92.255,-120.77 92.242,-120.77 92.245,-120.76 92.25,-120.74 92.298,-120.7 92.377,-120.66 92.457,-120.62 92.559,-120.57 92.659,-120.53 92.822,-120.47 92.99,-120.42 93.159,-120.37 93.517,-120.28 93.887,-120.22 94.24,-120.11 95.152,-119.81 96.059,-119.51 96.972,-119.21 M81.566,-124.19 C81.566,-124.19 81.546,-124.21 81.535,-124.21 81.505,-124.23 81.475,-124.24 81.446,-124.26 81.418,-124.27 81.389,-124.29 81.361,-124.31 81.335,-124.32 81.309,-124.33 81.282,-124.35 81.181,-124.4 81.075,-124.47 80.964,-124.5 80.938,-124.51 80.925,-124.51 80.927,-124.5 80.932,-124.48 80.981,-124.45 81.06,-124.4 81.139,-124.36 81.242,-124.31 81.342,-124.27 81.505,-124.21 81.672,-124.16 81.841,-124.11 82.199,-124.02 82.57,-123.97 82.922,-123.85 86.048,-122.82 89.156,-121.79 92.282,-120.76 M80.964,-124.5 C80.085,-124.79 79.211,-125.08 78.331,-125.37 78.052,-125.48 77.726,-125.44 77.377,-125.25 76.846,-124.96 75.782,-124.39 75.782,-124.39 M93.755,-112.36 L94.524,-112.1 M86.746,-112.78 C86.746,-112.78 86.716,-112.79 86.701,-112.79 86.004,-113.04 85.352,-113.4 84.669,-113.68 84.668,-112.72 84.668,-111.77 84.667,-110.81 M84.623,-32.228 C84.623,-32.228 84.609,-32.233 84.602,-32.235 84.522,-32.262 84.442,-32.288 84.362,-32.315 84.203,-32.367 84.043,-32.42 83.883,-32.473 M84.669,-113.52 C84.421,-113.6 84.176,-113.68 83.928,-113.77 83.868,-113.81 83.76,-113.93 83.71,-114 83.321,-114.09 82.916,-114.08 82.53,-114.17 M84.664,-106.06 C84.651,-82.739 84.638,-59.558 84.625,-36.237 84.909,-36.02 85.092,-35.74 85.131,-35.464 85.17,-35.188 85.062,-34.94 84.832,-34.78 84.769,-34.737 84.698,-34.702 84.625,-34.68 M83.744,-36.625 L83.742,-36.615 M82.282,-35.28 L82.319,-106.83 M82.322,-111.96 L82.323,-114.24 M89.913,-107.29 C89.899,-82.707 89.885,-58.273 89.87,-33.693 89.758,-33.031 89.081,-32.438 88.045,-32.095 87.01,-31.752 85.74,-31.701 84.623,-31.956 84.624,-32.866 84.624,-33.77 84.625,-34.68 84.698,-34.746 84.77,-34.813 84.843,-34.88 M82.847,-107.64 L82.981,-107.76 M83.085,-108.27 L82.981,-108.18 82.981,-107.59 82.847,-107.64 82.848,-108.22 82.981,-108.34 M82.848,-108.35 L82.848,-108.93 82.981,-108.89 82.981,-108.31 83.58,-108.11 83.58,-107.98 82.981,-108.18 M82.848,-108.22 L82.249,-108.42 82.249,-108.55 82.848,-108.35 82.981,-108.47 M82.249,-108.42 L82.353,-108.51 M97.452,-106.75 C97.432,-106.78 97.416,-106.81 97.39,-106.83 M100.56,-109.73 C100.57,-109.69 100.57,-109.65 100.58,-109.62 100.6,-109.62 100.61,-109.62 100.63,-109.62 M81.569,-111.91 C81.513,-111.86 81.481,-111.79 81.481,-111.72 81.481,-111.45 81.48,-110.93 81.48,-110.93 M87.274,-107.37 C87.288,-107.39 87.297,-107.44 87.297,-107.51 87.298,-108.27 87.297,-109.03 87.298,-109.79 87.298,-109.86 87.29,-109.95 87.275,-110.02 M50.715,-50.19 C50.658,-50.168 51.378,-49.88 52.323,-49.546 53.269,-49.212 54.081,-48.958 54.138,-48.98 54.194,-49.002 53.474,-49.29 52.529,-49.624 52.075,-49.784 51.629,-49.934 51.289,-50.04 50.948,-50.146 50.742,-50.2 50.715,-50.19 Z M57.884,-62.309 C57.866,-62.337 57.457,-62.497 56.972,-62.666 56.52,-62.824 56.155,-62.936 56.128,-62.926 M51.955,-49.777 L51.937,-49.726 M53.269,-49.286 C53.105,-49.333 52.943,-49.38 52.78,-49.427 52.499,-49.527 52.213,-49.616 51.937,-49.726 51.817,-49.774 51.701,-49.831 51.584,-49.884 51.747,-49.837 51.909,-49.79 52.073,-49.743 52.354,-49.643 52.634,-49.543 52.915,-49.444 53.033,-49.391 53.151,-49.339 53.269,-49.286 Z M52.78,-49.427 L52.8,-49.485 M83.245,-188.4 C83.042,-188.46 82.834,-188.52 82.627,-188.57 82.536,-188.59 82.446,-188.61 82.356,-188.63 82.174,-188.68 82.085,-188.73 82.106,-188.76 82.122,-188.78 82.209,-188.78 82.324,-188.76 82.343,-188.76 82.361,-188.76 82.38,-188.75 82.4,-188.75 82.42,-188.74 82.44,-188.74 82.451,-188.73 82.462,-188.73 82.473,-188.73 82.482,-188.73 82.502,-188.72 82.502,-188.72 M83.427,-191.15 C83.427,-191.15 83.399,-191.16 83.385,-191.17 83.365,-191.18 83.345,-191.19 83.325,-191.2 83.306,-191.21 83.287,-191.22 83.268,-191.23 83.251,-191.24 83.234,-191.25 83.217,-191.26 83.201,-191.26 83.185,-191.27 83.169,-191.28 83.156,-191.29 83.142,-191.29 83.128,-191.3 83.054,-191.33 83.01,-191.35 83.013,-191.34 83.015,-191.33 83.039,-191.31 83.075,-191.29 83.086,-191.29 83.097,-191.28 83.108,-191.28 83.121,-191.27 83.135,-191.26 83.148,-191.26 83.156,-191.25 83.173,-191.25 83.173,-191.25"/>
      <path stroke="#000" d="M84.083,-187.89 C84.078,-187.89 84.072,-187.89 84.067,-187.9 M115.61,-178.67 L116.39,-178.41 M98.525,-184.73 C98.799,-185.55 98.739,-186.31 98.392,-186.43 98.225,-186.49 98.013,-186.39 97.803,-186.16 97.592,-185.93 97.4,-185.57 97.269,-185.18 97.138,-184.79 97.078,-184.4 97.103,-184.08 97.128,-183.76 97.236,-183.55 97.402,-183.49 97.749,-183.36 98.252,-183.92 98.525,-184.73 Z M100.46,-186.09 C99.951,-186.26 99.449,-186.43 98.943,-186.59 98.84,-186.74 98.745,-186.9 98.57,-186.96 98.022,-187.16 97.229,-186.29 96.788,-185.01 96.346,-183.73 96.419,-182.51 96.951,-182.26 97.157,-182.17 97.414,-182.23 97.684,-182.45 98.055,-182.75 98.428,-183.04 98.8,-183.34 98.848,-184.43 98.895,-185.51 98.943,-186.59 M107.03,-183.92 C105.93,-184.28 104.84,-184.64 103.74,-185.01 103.63,-185.15 103.54,-185.31 103.36,-185.38 102.81,-185.57 102.02,-184.7 101.58,-183.42 101.14,-182.14 101.21,-180.92 101.74,-180.68 101.95,-180.58 102.21,-180.65 102.48,-180.86 102.85,-181.16 103.22,-181.46 103.59,-181.75 103.64,-182.84 103.69,-183.92 103.74,-185.01 M111.83,-182.33 C111.32,-182.5 110.82,-182.67 110.31,-182.83 110.21,-182.98 110.12,-183.14 109.94,-183.2 109.39,-183.4 108.6,-182.53 108.16,-181.25 107.72,-179.97 107.79,-178.75 108.32,-178.5 108.53,-178.41 108.78,-178.47 109.05,-178.69 109.43,-178.99 109.8,-179.28 110.17,-179.58 110.22,-180.67 110.27,-181.75 110.31,-182.83 M90.929,-152.12 C90.854,-151.91 90.785,-151.69 90.704,-151.48 90.677,-151.41 90.607,-151.39 90.507,-151.42 90.105,-151.55 89.766,-151.98 89.485,-152.26 89.453,-152.29 89.421,-152.33 89.389,-152.36 89.356,-152.39 89.323,-152.43 89.29,-152.46 89.257,-152.49 89.223,-152.52 89.189,-152.56 89.139,-152.61 89.033,-152.68 89.023,-152.77 89.017,-152.82 89.054,-152.87 89.123,-152.88 89.154,-152.89 89.185,-152.9 89.216,-152.91 89.248,-152.92 89.279,-152.93 89.31,-152.94 89.372,-152.96 89.436,-152.98 89.498,-153 89.541,-153.02 89.593,-153.02 89.643,-153 89.692,-152.99 89.735,-152.96 89.763,-152.93 89.783,-152.9 89.804,-152.87 89.824,-152.85 89.845,-152.82 89.865,-152.79 89.886,-152.77 89.964,-152.67 90.044,-152.57 90.128,-152.48 90.362,-152.22 90.555,-152.06 90.697,-152.02 90.813,-151.98 90.893,-152.01 90.929,-152.12 90.944,-152.17 90.952,-152.22 90.952,-152.29 90.952,-152.31 90.951,-152.33 90.95,-152.34 90.949,-152.36 90.954,-152.42 90.926,-152.43 90.575,-152.55 90.227,-152.66 89.876,-152.78 M79.046,-81.058 C79.549,-80.833 80.053,-80.608 80.556,-80.384 80.608,-80.36 80.679,-80.404 80.743,-80.499 80.807,-80.595 80.854,-80.726 80.867,-80.846 80.879,-80.949 80.853,-81.184 80.81,-81.378 80.72,-81.78 80.544,-82.05 80.305,-82.156 80.065,-82.261 79.772,-82.196 79.462,-81.97 79.213,-81.788 78.981,-81.563 78.978,-81.235 78.978,-81.142 79.002,-81.077 79.046,-81.058 Z M62.25,-88.125 L62.253,-88.124 M19.793,-135.25 C19.733,-135.26 19.673,-135.28 19.617,-135.3 M65.996,-121.27 C65.998,-121.27 66.001,-121.26 66.005,-121.27 M66.771,-121.48 C66.783,-121.42 66.79,-121.36 66.792,-121.3 66.794,-121.26 66.806,-121.24 66.825,-121.23 66.831,-121.23 66.838,-121.23 66.845,-121.24 66.889,-121.25 66.932,-121.27 66.974,-121.29 67.019,-121.31 67.063,-121.33 67.106,-121.36 67.152,-121.39 67.197,-121.42 67.24,-121.46 67.33,-121.53 67.42,-121.61 67.51,-121.7 67.691,-121.89 67.867,-122.13 68.031,-122.41 68.278,-122.82 68.49,-123.3 68.646,-123.81 69.108,-125.3 68.99,-126.65 68.374,-126.93 67.759,-127.2 66.85,-126.31 66.28,-124.86 66.055,-124.29 65.904,-123.69 65.849,-123.13 65.817,-122.81 65.817,-122.51 65.848,-122.25 65.863,-122.12 65.887,-122 65.917,-121.89 65.932,-121.84 65.949,-121.79 65.969,-121.74 65.987,-121.69 66.008,-121.64 66.031,-121.6 66.035,-121.59 66.041,-121.58 66.049,-121.58 66.066,-121.57 66.087,-121.58 66.109,-121.61 66.147,-121.65 66.188,-121.69 66.233,-121.72 66.358,-121.82 66.476,-121.84 66.572,-121.8 66.668,-121.76 66.738,-121.65 66.771,-121.48 Z M66.491,-120.86 C66.547,-120.9 66.602,-120.93 66.658,-120.97 66.706,-121.44 66.532,-121.69 66.267,-121.53 66.22,-121.51 66.178,-121.47 66.14,-121.43 66.093,-121.38 66.052,-121.33 66.015,-121.28 M66.47,-120.87 C66.463,-120.87 66.457,-120.88 66.454,-120.89 L66.658,-120.97 66.446,-120.96 M66.446,-120.92 C66.445,-120.93 66.445,-120.95 66.446,-120.96 66.452,-121.02 66.455,-121.08 66.451,-121.14 66.443,-121.31 66.391,-121.42 66.309,-121.46 66.282,-121.47 66.25,-121.48 66.22,-121.47 66.203,-121.47 66.172,-121.46 66.172,-121.46 M108.5,-113.65 C107.54,-113.01 106.64,-111.12 106.49,-109.43 106.43,-108.82 106.48,-108.29 106.63,-107.92 M109.36,-113.8 L109.35,-113.8 M95.169,-111.64 L94.662,-111.81 M96.505,-113.36 C96.761,-113.88 96.965,-114.47 97.098,-115.05 M93.679,-113.4 C94.481,-113.14 95.278,-112.88 96.08,-112.61 96.093,-112.57 96.112,-112.55 96.136,-112.53 96.224,-112.48 96.358,-112.6 96.451,-112.81 96.544,-113.01 96.567,-113.25 96.505,-113.36 95.596,-113.66 94.693,-113.96 93.784,-114.26 M94.718,-116.75 C95.561,-116.48 96.399,-116.2 97.243,-115.92 97.275,-115.94 97.305,-115.94 97.331,-115.93 97.426,-115.9 97.454,-115.71 97.395,-115.49 97.336,-115.27 97.21,-115.08 97.098,-115.05 90.872,-117.11 84.684,-119.15 78.458,-121.21 M97.243,-115.92 C97.297,-116.47 97.269,-116.96 97.16,-117.35 97.237,-117.47 97.29,-117.64 97.301,-117.78 97.312,-117.92 97.279,-118.03 97.214,-118.05 97.135,-118.08 97.024,-117.99 96.938,-117.83 96.574,-117.95 96.213,-118.07 95.849,-118.19 M97.16,-117.35 L95.635,-117.85 M96.938,-117.83 C96.827,-117.98 96.692,-118.08 96.538,-118.12 96.446,-118.15 96.347,-118.15 96.243,-118.14 96.122,-118.18 96.001,-118.22 95.879,-118.26 M90.664,-114.22 L90.973,-115.1 91.787,-115.39 M72.332,-121.26 L90.973,-115.1 M93.881,-114.7 L91.787,-115.39 88.249,-116.56 M88.056,-116.62 C88.086,-116.61 88.118,-116.6 88.149,-116.59 88.182,-116.58 88.216,-116.57 88.249,-116.56 88.573,-116.45 88.938,-116.33 89.225,-116.24 89.512,-116.14 89.685,-116.09 89.69,-116.09 89.697,-116.08 89.486,-116.15 89.14,-116.27 88.795,-116.38 88.371,-116.52 88.036,-116.63 87.702,-116.74 87.511,-116.81 87.54,-116.8 87.569,-116.79 87.76,-116.72 88.056,-116.62 Z M94.367,-116.09 L92.425,-117.21 88.887,-118.38 M92.009,-118.05 L92.318,-118.93 M92.425,-117.21 L92.009,-118.05 73.368,-124.21 M90.281,-117.77 C90.286,-117.8 90.124,-117.89 89.848,-118.01 89.571,-118.13 89.213,-118.26 88.887,-118.38 88.821,-118.4 88.756,-118.42 88.693,-118.44 88.395,-118.54 88.197,-118.58 88.161,-118.56 88.12,-118.54 88.297,-118.44 88.62,-118.3 88.944,-118.16 89.362,-118.01 89.709,-117.9 90.056,-117.78 90.276,-117.73 90.281,-117.77 Z M88.055,-116.62 L76.878,-120.32 M88.693,-118.44 L77.516,-122.14 M76.684,-120.38 C76.716,-120.37 76.747,-120.36 76.779,-120.35 76.812,-120.34 76.845,-120.33 76.878,-120.32 77.21,-120.21 77.573,-120.09 77.858,-120 78.143,-119.9 78.315,-119.85 78.319,-119.85 78.324,-119.84 78.111,-119.92 77.765,-120.03 77.419,-120.14 76.996,-120.28 76.663,-120.39 76.329,-120.5 76.14,-120.57 76.169,-120.56 76.195,-120.55 76.388,-120.48 76.684,-120.38 Z M78.91,-121.53 C78.915,-121.56 78.753,-121.64 78.477,-121.77 78.2,-121.89 77.843,-122.02 77.516,-122.14 77.45,-122.16 77.385,-122.18 77.323,-122.2 77.024,-122.29 76.826,-122.34 76.79,-122.32 76.75,-122.3 76.926,-122.2 77.25,-122.06 77.573,-121.92 77.991,-121.77 78.338,-121.65 78.685,-121.54 78.905,-121.49 78.91,-121.53 Z M76.685,-120.38 L73.147,-121.55 M77.323,-122.2 L73.785,-123.37 M83.708,-111.13 L83.71,-114 M82.53,-114.17 C82.527,-114.17 82.52,-114.17 82.52,-114.17 M83.928,-113.77 L83.927,-111.06 M83.667,-36.554 L83.706,-106.38 M83.924,-106.3 C83.911,-83.074 83.898,-59.984 83.885,-36.754 83.812,-36.687 83.74,-36.621 83.667,-36.554 83.608,-36.543 83.55,-36.522 83.499,-36.49 83.451,-36.46 83.408,-36.417 83.376,-36.37 83.345,-36.325 83.31,-36.22 83.31,-36.22 M83.884,-34.009 C83.884,-33.496 83.883,-32.986 83.883,-32.473 83.81,-32.406 83.737,-32.34 83.664,-32.273 83.297,-32.439 82.989,-32.642 82.757,-32.871 82.649,-32.978 82.55,-33.098 82.471,-33.229 82.4,-33.347 82.343,-33.476 82.31,-33.61 82.299,-33.656 82.3,-33.751 82.3,-33.751 M83.664,-32.273 L83.665,-33.809 M84.843,-34.88 C84.84,-34.879 84.834,-34.879 84.834,-34.879"/>
    </g>
  </g>
  <g id="C3DA0001" vm2d:name="Axials" vm2d:type="layer">
    <g id="WRAP_001" vm2d:name="" vm2d:type="grnode">
      <g transform="matrix(3.78235,0,0,3.78235,-0,839.841)" stroke-width="0.55" stroke-linecap="round" stroke-linejoin="round" stroke-miterlimit="10">
        <path stroke="#fff" d="M57.208,-63.178 L64.974,-85.249"/>
        <path stroke="#000" stroke-width="0.15" stroke-dasharray="6.35,0.635,1.27,0.635" d="M57.076,-62.801 L65.106,-85.627"/>
      </g>
    </g>
    <g id="WRAP_002" vm2d:name="" vm2d:type="grnode">
      <g transform="matrix(3.78235,0,0,3.78235,-0,839.841)" stroke-width="0.55" stroke-linecap="round" stroke-linejoin="round" stroke-miterlimit="10">
        <path stroke="#fff" d="M65.684,-87.268 L76.648,-118.43"/>
        <path stroke="#000" stroke-width="0.15" stroke-dasharray="6.35,0.635,1.27,0.635" d="M65.551,-86.891 L76.781,-118.81"/>
      </g>
    </g>
    <g id="WRAP_003" vm2d:name="" vm2d:type="grnode">
      <g transform="matrix(3.78235,0,0,3.78235,-0,839.841)" stroke-width="0.55" stroke-linecap="round" stroke-linejoin="round" stroke-miterlimit="10">
        <path stroke="#fff" d="M77.4,-120.57 L77.773,-121.63"/>
        <path stroke="#000" stroke-width="0.15" stroke-dasharray="6.35,0.635,1.27,0.635" d="M77.267,-120.19 L77.906,-122.01"/>
      </g>
    </g>
    <g id="WRAP_004" vm2d:name="" vm2d:type="grnode">
      <g transform="matrix(3.78235,0,0,3.78235,-0,839.841)" stroke-width="0.55" stroke-linecap="round" stroke-linejoin="round" stroke-miterlimit="10">
        <path stroke="#fff" d="M78.569,-123.89 L88.406,-151.85"/>
        <path stroke="#000" stroke-width="0.15" stroke-dasharray="6.35,0.635,1.27,0.635" d="M78.436,-123.51 L88.539,-152.23"/>
      </g>
    </g>
    <g id="WRAP_005" vm2d:name="" vm2d:type="grnode">
      <g transform="matrix(3.78235,0,0,3.78235,-0,839.841)" stroke-width="0.55" stroke-linecap="round" stroke-linejoin="round" stroke-miterlimit="10">
        <path stroke="#fff" d="M89.03,-153.63 L98.859,-181.56"/>
        <path stroke="#000" stroke-width="0.15" stroke-dasharray="6.35,0.635,1.27,0.635" d="M88.898,-153.25 L98.991,-181.94"/>
      </g>
    </g>
    <g id="WRAP_006" vm2d:name="" vm2d:type="grnode">
      <g transform="matrix(3.78235,0,0,3.78235,-0,839.841)" stroke-width="0.55" stroke-linecap="round" stroke-linejoin="round" stroke-miterlimit="10">
        <path stroke="#fff" d="M98.901,-184.6 L97.634,-185.01"/>
        <path stroke="#000" stroke-width="0.15" stroke-dasharray="6.35,0.635,1.27,0.635" d="M99.281,-184.48 L97.253,-185.14"/>
      </g>
    </g>
    <g id="WRAP_007" vm2d:name="" vm2d:type="grnode">
      <g transform="matrix(3.78235,0,0,3.78235,-0,839.841)" stroke-width="0.55" stroke-linecap="round" stroke-linejoin="round" stroke-miterlimit="10">
        <path stroke="#fff" d="M94.365,-186.07 L86.38,-188.67"/>
        <path stroke="#000" stroke-width="0.15" stroke-dasharray="6.35,0.635,1.27,0.635" d="M94.745,-185.95 L86,-188.79"/>
      </g>
    </g>
    <g id="WRAP_008" vm2d:name="" vm2d:type="grnode">
      <g transform="matrix(3.78235,0,0,3.78235,-0,839.841)" stroke-width="0.55" stroke-linecap="round" stroke-linejoin="round" stroke-miterlimit="10">
        <path stroke="#fff" d="M66.663,-124.55 L106.4,-111.26"/>
        <path stroke="#000" stroke-width="0.15" stroke-dasharray="6.35,0.635,1.27,0.635" d="M66.284,-124.67 L106.78,-111.13"/>
      </g>
    </g>
  </g>
  <g id="C3DC0001" vm2d:name="Callouts" vm2d:type="layer">
    <g>
      <g transform="matrix(3.78235,0,0,3.78235,-0,839.841)" stroke-width="0.85" stroke-linecap="round" stroke-linejoin="miter" stroke-miterlimit="10">
        <path stroke="#fff" d="M150,-124.84 L130.12,-105.41"/>
        <path stroke="#fff" stroke-width="0.7" stroke-linecap="butt" stroke-linejoin="round" d="M130.59,-105.41 C130.59,-105.15 130.38,-104.94 130.12,-104.94 129.86,-104.94 129.65,-105.15 129.65,-105.41 129.65,-105.66 129.86,-105.88 130.12,-105.88 130.38,-105.88 130.59,-105.66 130.59,-105.41 Z"/>
        <path stroke="#000" stroke-width="0.15" d="M150,-124.84 L130.12,-105.41"/>
        <path fill="#000" d="M130.59,-105.41 C130.59,-105.15 130.38,-104.94 130.12,-104.94 129.86,-104.94 129.65,-105.15 129.65,-105.41 129.65,-105.66 129.86,-105.88 130.12,-105.88 130.38,-105.88 130.59,-105.66 130.59,-105.41 Z"/>
        <text font-family="Arial" font-size="3.93" x="150.607" y="-125.499" fill="#000">10</text>
      </g>
    </g>
    <a id="_5699cb970242f76b4a922d1b21deb2f5" vm2d:name="10" vm2d:type="grobject" xlink:href="#">
      <path d="M567.35,352.38 L588.46,352.38 588.46,367.64 567.35,367.64 Z" fill="#fff" fill-opacity="0"/>
    </a>
    <g>
      <g transform="matrix(3.78235,0,0,3.78235,-0,839.841)" stroke-width="0.85" stroke-linecap="round" stroke-linejoin="miter" stroke-miterlimit="10">
        <path stroke="#fff" d="M12.768,-117.75 L32.944,-135.41"/>
        <path stroke="#fff" stroke-width="0.7" stroke-linecap="butt" stroke-linejoin="round" d="M33.414,-135.41 C33.414,-135.15 33.203,-134.94 32.944,-134.94 32.684,-134.94 32.474,-135.15 32.474,-135.41 32.474,-135.66 32.684,-135.88 32.944,-135.88 33.203,-135.88 33.414,-135.66 33.414,-135.41 Z"/>
        <path stroke="#000" stroke-width="0.15" d="M12.768,-117.75 L32.944,-135.41"/>
        <path fill="#000" d="M33.414,-135.41 C33.414,-135.15 33.203,-134.94 32.944,-134.94 32.684,-134.94 32.474,-135.15 32.474,-135.41 32.474,-135.66 32.684,-135.88 32.944,-135.88 33.203,-135.88 33.414,-135.66 33.414,-135.41 Z"/>
        <text font-family="Arial" font-size="3.93" x="7.79458" y="-114.373" fill="#000">10</text>
      </g>
    </g>
    <a id="_5699cb970242f76b4a922d1b21deb2f6" vm2d:name="10" vm2d:type="grobject" xlink:href="#">
      <path d="M27.186,394.47 L48.294,394.47 48.294,409.72 27.186,409.72 Z" fill="#fff" fill-opacity="0"/>
    </a>
    <g>
      <g transform="matrix(3.78235,0,0,3.78235,-0,839.841)" stroke-width="0.85" stroke-linecap="round" stroke-linejoin="miter" stroke-miterlimit="10">
        <path stroke="#fff" d="M40,-107.07 L59.295,-88.876"/>
        <path stroke="#fff" stroke-width="0.7" stroke-linecap="butt" stroke-linejoin="round" d="M59.765,-88.876 C59.765,-88.617 59.555,-88.406 59.295,-88.406 59.036,-88.406 58.825,-88.617 58.825,-88.876 58.825,-89.136 59.036,-89.346 59.295,-89.346 59.555,-89.346 59.765,-89.136 59.765,-88.876 Z"/>
        <path stroke="#000" stroke-width="0.15" d="M40,-107.07 L59.295,-88.876"/>
        <path fill="#000" d="M59.765,-88.876 C59.765,-88.617 59.555,-88.406 59.295,-88.406 59.036,-88.406 58.825,-88.617 58.825,-88.876 58.825,-89.136 59.036,-89.346 59.295,-89.346 59.555,-89.346 59.765,-89.136 59.765,-88.876 Z"/>
        <text font-family="Arial" font-size="3.93" x="35.0265" y="-107.725" fill="#000">25</text>
      </g>
    </g>
    <a id="_17a926e763dd82ddf0f896f62fb1effc" vm2d:name="25" vm2d:type="grobject" xlink:href="#">
      <path d="M130.19,419.61 L151.29,419.61 151.29,434.87 130.19,434.87 Z" fill="#fff" fill-opacity="0"/>
    </a>
    <g>
      <g transform="matrix(3.78235,0,0,3.78235,-0,839.841)" stroke-width="0.85" stroke-linecap="round" stroke-linejoin="miter" stroke-miterlimit="10">
        <path stroke="#fff" d="M60,-163.15 L84.155,-153.5"/>
        <path stroke="#fff" stroke-width="0.7" stroke-linecap="butt" stroke-linejoin="round" d="M84.625,-153.5 C84.625,-153.24 84.415,-153.03 84.155,-153.03 83.896,-153.03 83.685,-153.24 83.685,-153.5 83.685,-153.76 83.896,-153.97 84.155,-153.97 84.415,-153.97 84.625,-153.76 84.625,-153.5 Z"/>
        <path stroke="#000" stroke-width="0.15" d="M60,-163.15 L84.155,-153.5"/>
        <path fill="#000" d="M84.625,-153.5 C84.625,-153.24 84.415,-153.03 84.155,-153.03 83.896,-153.03 83.685,-153.24 83.685,-153.5 83.685,-153.76 83.896,-153.97 84.155,-153.97 84.415,-153.97 84.625,-153.76 84.625,-153.5 Z"/>
        <text font-family="Arial" font-size="3.93" x="55.0265" y="-163.804" fill="#000">30</text>
      </g>
    </g>
    <a id="_12cbb4f7ee2d4c75222432d8d5373912" vm2d:name="30" vm2d:type="grobject" xlink:href="#">
      <path d="M205.83,207.5 L226.94,207.5 226.94,222.76 205.83,222.76 Z" fill="#fff" fill-opacity="0"/>
    </a>
    <g>
      <g transform="matrix(3.78235,0,0,3.78235,-0,839.841)" stroke-width="0.85" stroke-linecap="round" stroke-linejoin="miter" stroke-miterlimit="10">
        <path stroke="#fff" d="M119.17,-195.78 L106.93,-185.08"/>
        <path stroke="#fff" stroke-width="0.7" stroke-linecap="butt" stroke-linejoin="round" d="M107.4,-185.08 C107.4,-184.82 107.19,-184.61 106.93,-184.61 106.67,-184.61 106.46,-184.82 106.46,-185.08 106.46,-185.34 106.67,-185.55 106.93,-185.55 107.19,-185.55 107.4,-185.34 107.4,-185.08 Z"/>
        <path stroke="#000" stroke-width="0.15" d="M119.17,-195.78 L106.93,-185.08"/>
        <path fill="#000" d="M107.4,-185.08 C107.4,-184.82 107.19,-184.61 106.93,-184.61 106.67,-184.61 106.46,-184.82 106.46,-185.08 106.46,-185.34 106.67,-185.55 106.93,-185.55 107.19,-185.55 107.4,-185.34 107.4,-185.08 Z"/>
        <text font-family="Arial" font-size="3.93" x="119.776" y="-196.433" fill="#000">35</text>
      </g>
    </g>
    <a id="a519a5f1aac2a9473566bb097a2ced70" vm2d:name="35" vm2d:type="grobject" xlink:href="#">
      <path d="M450.74,84.087 L471.85,84.087 471.85,99.339 450.74,99.339 Z" fill="#fff" fill-opacity="0"/>
    </a>
    <g>
      <g transform="matrix(3.78235,0,0,3.78235,-0,839.841)" stroke-width="0.85" stroke-linecap="round" stroke-linejoin="miter" stroke-miterlimit="10">
        <path stroke="#fff" d="M61.476,-198.85 L78.528,-191.85"/>
        <path stroke="#fff" stroke-width="0.7" stroke-linecap="butt" stroke-linejoin="round" d="M78.998,-191.85 C78.998,-191.59 78.787,-191.38 78.528,-191.38 78.268,-191.38 78.058,-191.59 78.058,-191.85 78.058,-192.11 78.268,-192.32 78.528,-192.32 78.787,-192.32 78.998,-192.11 78.998,-191.85 Z"/>
        <path stroke="#000" stroke-width="0.15" d="M61.476,-198.85 L78.528,-191.85"/>
        <path fill="#000" d="M78.998,-191.85 C78.998,-191.59 78.787,-191.38 78.528,-191.38 78.268,-191.38 78.058,-191.59 78.058,-191.85 78.058,-192.11 78.268,-192.32 78.528,-192.32 78.787,-192.32 78.998,-192.11 78.998,-191.85 Z"/>
        <text font-family="Arial" font-size="3.93" x="56.5026" y="-199.507" fill="#000">40</text>
      </g>
    </g>
    <a id="_686c8ca93d1eb80bc01b51e4a5754e96" vm2d:name="40" vm2d:type="grobject" xlink:href="#">
      <path d="M211.42,72.461 L232.52,72.461 232.52,87.713 211.42,87.713 Z" fill="#fff" fill-opacity="0"/>
    </a>
    <g>
      <g transform="matrix(3.78235,0,0,3.78235,-0,839.841)" stroke-width="0.85" stroke-linecap="round" stroke-linejoin="miter" stroke-miterlimit="10">
        <path stroke="#fff" d="M40,-67.069 L51.855,-56.239"/>
        <path stroke="#fff" stroke-width="0.7" stroke-linecap="butt" stroke-linejoin="round" d="M52.325,-56.239 C52.325,-55.979 52.114,-55.769 51.855,-55.769 51.595,-55.769 51.385,-55.979 51.385,-56.239 51.385,-56.498 51.595,-56.709 51.855,-56.709 52.114,-56.709 52.325,-56.498 52.325,-56.239 Z"/>
        <path stroke="#000" stroke-width="0.15" d="M40,-67.069 L51.855,-56.239"/>
        <path fill="#000" d="M52.325,-56.239 C52.325,-55.979 52.114,-55.769 51.855,-55.769 51.595,-55.769 51.385,-55.979 51.385,-56.239 51.385,-56.498 51.595,-56.709 51.855,-56.709 52.114,-56.709 52.325,-56.498 52.325,-56.239 Z"/>
        <text font-family="Arial" font-size="3.93" x="35.0265" y="-67.7247" fill="#000">45</text>
      </g>
    </g>
    <a id="_0546997871b6983b74abb79739f23caf" vm2d:name="45" vm2d:type="grobject" xlink:href="#">
      <path d="M130.19,570.91 L151.29,570.91 151.29,586.16 130.19,586.16 Z" fill="#fff" fill-opacity="0"/>
    </a>
  </g>
  <g id="C3DP0001" vm2d:name="Panels" vm2d:type="layer"/>
  <g id="AUTOID_111" vm2d:name="" vm2d:type="grnode">
    <g transform="matrix(3.78235,0,0,3.78235,-0,839.841)">
      <path fill="#fff" d="M82.357,-217.69 L88.357,-217.69 88.357,-211.69 82.357,-211.69 82.357,-217.69 82.357,-217.69 Z"/>
      <path fill="#000" d="M82.557,-217.49 L88.157,-217.49 88.157,-211.89 82.557,-211.89 82.557,-217.49 82.557,-217.49 Z"/>
      <path fill="#fff" d="M82.757,-217.29 L87.956,-217.29 87.956,-212.09 82.757,-212.09 82.757,-217.29 82.757,-217.29 Z"/>
      <path fill="#000" d="M85.815,-214.32 L85.815,-214.32 85.328,-215.64 84.852,-214.32 84.632,-213.73 84.339,-212.93 83.583,-212.93 84.959,-216.46 85.714,-216.46 87.131,-212.93 87.131,-212.93 86.353,-212.93 86.044,-213.73 84.632,-213.73 84.852,-214.32 85.815,-214.32 85.815,-214.32 Z"/>
    </g>
  </g>
</svg>
