<?xml version="1.0" encoding="UTF-8" standalone="no"?>
<!DOCTYPE svg SYSTEM "http://www.w3.org/Graphics/SVG/1.1/DTD/svg11.dtd" [
<!ENTITY % SVG.External.attrib
"xmlns:vm2d CDATA #FIXED 'http://www.cortona3d.com/vm2d'
vm2d:name CDATA #IMPLIED
vm2d:type CDATA #IMPLIED">
]>
<svg xmlns="http://www.w3.org/2000/svg" xmlns:vm2d="http://www.cortona3d.com/vm2d" xmlns:xlink="http://www.w3.org/1999/xlink" version="1.1" width="170mm" height="222mm" viewBox="0 0 643 840" fill="none" fill-rule="evenodd" stroke-miterlimit="5">
  <title>Untitled-0001</title>
  <desc>"Generator:ParallelGraphics Cortona2D","ProfileId:WebCGM""ProfileEd:2.1""ColourClass:colour""Source:Cortona2D Editor Pro 14.2.0.142""Date:20250507"</desc>
  <rect width="643" height="840" fill="#fff"/>
  <defs/>
  <g id="C3DB0001" vm2d:name="Background" vm2d:type="layer"/>
  <g id="C3DG0001" vm2d:name="Drawing" vm2d:type="layer">
    <g transform="matrix(3.78235,0,0,3.78235,-0,839.841)" stroke-width="0.18" stroke-linecap="round" stroke-linejoin="round" stroke-miterlimit="10">
      <path stroke="#000" d="M151.49,-63.931 C151.43,-63.902 151.38,-63.872 151.33,-63.842 150.16,-63.292 148.96,-62.818 147.74,-62.386 145.89,-63.372 144.05,-64.353 142.2,-65.34 141.46,-66.159 140.73,-66.99 140.03,-67.848 139.37,-68.75 138.71,-69.645 138.06,-70.547 137.66,-71.165 137.31,-71.804 136.99,-72.465 137.21,-73.898 137.48,-75.323 137.85,-76.725 138.43,-78.339 139,-79.944 139.58,-81.558 140.16,-82.821 140.82,-84.042 141.55,-85.227 142.33,-85.965 143.15,-86.652 144.03,-87.273 145.26,-87.986 146.49,-88.695 147.72,-89.408 148.89,-89.957 150.09,-90.432 151.31,-90.864 153.16,-89.877 155,-88.897 156.85,-87.91 157.6,-87.091 158.33,-86.259 159.03,-85.401 159.68,-84.5 160.34,-83.604 161,-82.703 161.39,-82.085 161.75,-81.445 162.06,-80.784 162.01,-80.467 161.96,-80.152 161.91,-79.835 M159.78,-103.16 C158.58,-103.8 157.38,-104.43 156.19,-105.07 148.08,-109.74 135.44,-102.44 127.94,-88.767 120.44,-75.09 120.93,-60.218 129.03,-55.547 130.23,-54.908 131.42,-54.273 132.62,-53.634 M106.9,-126.7 C106.9,-126.7 106.87,-126.8 106.85,-126.85 106.75,-127.11 106.63,-127.37 106.51,-127.63 106.51,-127.63 106.26,-128.12 106.12,-128.35 106.12,-128.35 105.84,-128.81 105.69,-129.03 105.24,-129.66 104.9,-130.35 104.38,-130.93 103.92,-131.45 103.44,-131.94 102.9,-132.37 102.24,-132.89 101.35,-133.45 100.48,-133.88 99.612,-134.31 98.863,-134.57 98.442,-134.59 96.838,-134.93 95.269,-135.09 93.626,-134.89 91.979,-134.7 89.984,-134.1 88.384,-133.32 85.294,-131.82 82.873,-129.44 80.681,-126.84 76.685,-122.08 73.567,-115.25 72.313,-108.5 70.965,-101.25 71.823,-93.818 74.565,-89.001 76.271,-86.005 78.455,-83.63 81.384,-81.799 82.837,-80.89 84.48,-80.36 86.122,-79.922 86.757,-79.753 87.61,-79.608 88.278,-79.556 88.78,-79.517 89.283,-79.458 89.787,-79.444 90.066,-79.436 90.625,-79.458 90.625,-79.458 M92.405,-123.54 L92.622,-123.66 M91.069,-122.52 L91.982,-123.29 M94.587,-124.41 C94.587,-124.41 94.093,-124.26 93.849,-124.18 93.685,-124.13 93.522,-124.06 93.361,-124 93.249,-123.95 93.138,-123.91 93.029,-123.85 92.878,-123.78 92.577,-123.64 92.577,-123.64 M95.669,-124.43 L96.125,-124.35 M97.651,-134.73 C97.651,-134.73 97.776,-134.75 97.837,-134.74 97.987,-134.72 98.134,-134.67 98.282,-134.63 98.335,-134.62 98.39,-134.61 98.442,-134.59 M97.542,-134.76 L97.837,-134.74 M96.629,-123.77 C96.565,-123.92 96.497,-124.03 96.358,-124.13 96.268,-124.2 96.094,-124.34 96.094,-124.34 M96.596,-123.84 C96.596,-123.84 96.643,-123.76 96.671,-123.72 96.766,-123.58 96.879,-123.45 96.996,-123.33 97.102,-123.2 97.376,-122.99 97.376,-122.99 97.443,-122.94 97.589,-122.85 97.589,-122.85 M97.085,-123.12 C97.085,-123.12 96.992,-123.22 96.952,-123.28 96.867,-123.4 96.724,-123.65 96.724,-123.65 M96.701,-123.68 C96.721,-123.64 96.741,-123.61 96.761,-123.57 96.812,-123.47 96.865,-123.38 96.913,-123.28 96.922,-123.26 96.929,-123.24 96.937,-123.22 96.943,-123.21 96.953,-123.19 96.953,-123.19 M96.962,-123.18 C96.962,-123.18 96.944,-123.21 96.937,-123.22 M86.513,-91.024 L86.481,-92.08 M136.2,-110.24 C136.2,-110.24 136.17,-110.4 136.14,-110.49 136.03,-110.85 135.92,-111.21 135.79,-111.58 135.66,-111.96 135.32,-112.75 135.2,-112.97 134.76,-113.84 134.21,-114.66 133.6,-115.42 132.49,-116.79 130.68,-118.01 129,-118.53 125.15,-119.72 121.44,-118.78 117.99,-116.87 112.67,-113.94 107.41,-106.99 104.5,-99.045 101.72,-91.446 101.23,-83.674 103.12,-77.247 104.35,-73.073 106.58,-69.57 109.55,-67.136 110.81,-66.108 112.41,-65.159 113.93,-64.553 114.99,-64.125 115.98,-63.875 117.1,-63.624 117.21,-63.598 117.33,-63.579 117.44,-63.562 117.94,-63.491 118.43,-63.403 118.93,-63.359 119.12,-63.342 119.5,-63.335 119.5,-63.335 M120.52,-105.55 C120.52,-105.55 119.97,-104.96 119.7,-104.66 119.43,-104.34 119.17,-104.02 118.91,-103.69 118.64,-103.35 118.39,-103.01 118.14,-102.66 117.89,-102.3 117.64,-101.94 117.41,-101.58 117.18,-101.22 116.75,-100.49 116.75,-100.49 M116.79,-100.57 C116.79,-100.57 116.34,-99.76 116.13,-99.35 115.91,-98.933 115.7,-98.51 115.51,-98.084 115.31,-97.654 115.12,-97.218 114.93,-96.779 114.57,-95.897 114.24,-94.994 113.94,-94.077 113.8,-93.62 113.66,-93.158 113.53,-92.694 113.41,-92.244 113.29,-91.79 113.19,-91.334 113.09,-90.881 113,-90.424 112.92,-89.967 112.84,-89.513 112.77,-89.057 112.72,-88.6 112.66,-88.149 112.59,-87.241 112.59,-87.241 M149.45,-106.44 C149.45,-106.44 149.27,-106.68 149.18,-106.81 149.1,-106.93 149.02,-107.05 148.92,-107.17 148.83,-107.29 148.72,-107.39 148.62,-107.5 148.4,-107.74 148.17,-107.98 147.94,-108.21 147.83,-108.32 147.72,-108.42 147.6,-108.51 146.93,-109.05 146.37,-109.42 145.62,-109.83 144.21,-110.6 142.34,-111.05 140.58,-111.04 137.42,-111.01 133.96,-109.67 130.93,-107.29 M121.06,-118.3 C121.06,-118.3 120.98,-118.63 120.93,-118.79 120.9,-118.93 120.85,-119.06 120.8,-119.19 120.67,-119.55 120.55,-119.91 120.41,-120.27 120.36,-120.4 120.29,-120.53 120.23,-120.65 119.78,-121.56 119.31,-122.45 118.65,-123.23 117.13,-125.01 115.43,-126.18 113.64,-126.69 109.88,-127.76 106.04,-127.04 102.2,-124.57 96.601,-120.95 91.823,-114.37 89.105,-106.51 86.221,-98.184 86.077,-90.163 88.686,-83.182 89.88,-79.987 92.18,-76.883 94.872,-74.835 96.632,-73.496 98.628,-72.621 100.73,-71.989 101.38,-71.794 102.19,-71.628 102.86,-71.555 103.36,-71.501 103.85,-71.431 104.35,-71.402 104.83,-71.375 105.79,-71.384 105.79,-71.384 M124.6,-108.4 C124.6,-108.4 124.06,-108.17 123.8,-108.04 123.61,-107.95 123.24,-107.74 123.24,-107.74 M112.59,-87.317 C112.59,-87.317 112.54,-86.481 112.54,-86.063 112.53,-85.631 112.53,-85.198 112.55,-84.766 112.56,-84.344 112.59,-83.92 112.63,-83.498 112.67,-83.087 112.72,-82.674 112.78,-82.266 112.84,-81.871 113,-81.087 113,-81.087 M102.8,-110.53 C102.8,-110.53 102.31,-109.79 102.07,-109.41 101.83,-109.02 101.6,-108.63 101.38,-108.23 101.16,-107.83 100.94,-107.42 100.73,-107.01 100.1,-105.74 99.537,-104.41 99.082,-103.1 98.617,-101.77 98.241,-100.39 97.961,-99.015 97.775,-98.096 97.631,-97.175 97.532,-96.262 97.483,-95.81 97.445,-95.354 97.418,-94.9 97.391,-94.453 97.37,-93.556 97.37,-93.556 M105.86,-114.1 C105.86,-114.1 105.29,-113.54 105.02,-113.26 104.74,-112.97 104.47,-112.67 104.21,-112.36 103.95,-112.05 103.69,-111.72 103.44,-111.39 103.19,-111.08 102.73,-110.42 102.73,-110.42 M88.923,-120.28 C88.923,-120.28 88.391,-119.6 88.137,-119.26 87.876,-118.9 87.623,-118.54 87.379,-118.17 86.883,-117.43 86.392,-116.62 85.959,-115.83 85.067,-114.2 84.328,-112.49 83.745,-110.73 83.154,-108.95 82.72,-107.1 82.467,-105.29 82.405,-104.84 82.353,-104.39 82.313,-103.94 82.274,-103.49 82.245,-103.05 82.229,-102.6 82.213,-102.16 82.208,-101.72 82.215,-101.29 82.223,-100.86 82.273,-99.997 82.273,-99.997 M125.91,-108.34 L125.61,-108.55 M115.21,-76.319 L115.67,-75.812 M110.52,-116.69 L109.9,-116.6 M92.444,-123.57 C92.444,-123.57 92.096,-123.35 91.927,-123.23 91.886,-123.21 91.808,-123.14 91.808,-123.14 M98.508,-87.007 C98.508,-87.007 98.709,-86.532 98.823,-86.301 98.976,-85.994 99.318,-85.396 99.318,-85.396 M94.198,-124.29 C94.198,-124.29 94.474,-124.36 94.614,-124.38 94.801,-124.42 95.179,-124.47 95.179,-124.47 M82.271,-100.05 C82.271,-100.05 82.333,-99.325 82.38,-98.967 82.433,-98.568 82.497,-98.169 82.574,-97.774 82.649,-97.389 82.736,-97.005 82.836,-96.625 82.932,-96.257 83.163,-95.529 83.163,-95.529 M94.924,-124.43 C94.924,-124.43 95.174,-124.45 95.3,-124.46 95.474,-124.46 95.823,-124.46 95.823,-124.46 M110.77,-116.12 L110.48,-116.56 M86.167,-91.246 L86.918,-90.765 M114.37,-77.521 C114.37,-77.521 114.04,-78.135 113.89,-78.451 113.77,-78.714 113.56,-79.256 113.56,-79.256 M112.95,-81.331 C112.95,-81.331 113.13,-80.592 113.23,-80.228 113.34,-79.871 113.46,-79.515 113.59,-79.166 M115.32,-76.166 C115.32,-76.166 114.92,-76.679 114.74,-76.949 114.59,-77.159 114.33,-77.599 114.33,-77.599 M121.91,-106.81 C121.91,-106.81 122.3,-107.12 122.51,-107.26 122.77,-107.45 123.32,-107.79 123.32,-107.79 M120.35,-105.37 C120.35,-105.37 120.87,-105.89 121.13,-106.13 121.4,-106.38 121.96,-106.85 121.96,-106.85 M125.81,-108.46 C125.75,-108.49 125.62,-108.55 125.62,-108.55 M125.67,-108.54 L126.13,-108.4 M125.76,-108.33 L125.59,-108.55 126,-108.49 M125.44,-108.56 L125.82,-108.55 M125.19,-108.53 L125.6,-108.58 M124.83,-108.45 L125.33,-108.56 M124.34,-108.28 L125,-108.5 M126,-107.6 L126.08,-107.25 M125.86,-108.03 L126.04,-107.48 M125.95,-107.83 L125.74,-108.32 M125.86,-108.11 C125.79,-108.25 125.63,-108.5 125.63,-108.5 M125.6,-108.55 L125.66,-108.5 M100.29,-84.092 C100.29,-84.092 99.875,-84.587 99.685,-84.847 99.548,-85.035 99.3,-85.429 99.3,-85.429 M101.43,-83.074 C101.43,-83.074 100.94,-83.464 100.72,-83.675 100.53,-83.849 100.19,-84.222 100.19,-84.222 M101.9,-82.787 L101.16,-83.302 M101.73,-82.905 L102.12,-82.693 M97.896,-88.873 C97.896,-88.873 97.723,-89.644 97.656,-90.032 97.587,-90.43 97.531,-90.832 97.487,-91.233 97.443,-91.643 97.411,-92.057 97.391,-92.469 97.374,-92.834 97.371,-93.567 97.371,-93.567 M98.512,-86.996 C98.512,-86.996 98.251,-87.686 98.139,-88.037 98.038,-88.355 97.87,-89.002 97.87,-89.002 M109.5,-116.49 C109.5,-116.49 109.98,-116.63 110.22,-116.68 M108.53,-116.06 C108.53,-116.06 108.9,-116.25 109.09,-116.34 109.35,-116.45 109.87,-116.63 109.87,-116.63 M107.26,-115.25 C107.26,-115.25 107.64,-115.53 107.84,-115.66 108.1,-115.83 108.65,-116.13 108.65,-116.13 M105.69,-113.93 C105.69,-113.93 106.21,-114.4 106.47,-114.63 106.74,-114.86 107.31,-115.29 107.31,-115.29 M110.68,-116.33 C110.6,-116.44 110.41,-116.64 110.41,-116.64 110.49,-116.62 110.56,-116.61 110.64,-116.59 M110.41,-116.64 C110.41,-116.64 110.53,-116.55 110.58,-116.5 M110.44,-116.63 L110.47,-116.62 110.45,-116.63 M110.44,-116.64 L110.76,-116.5 M110.39,-116.65 L110.94,-116.59 M110.76,-116.66 L110.2,-116.64 M110.92,-115.38 L110.93,-115.32 110.8,-115.86 M110.68,-116.2 C110.68,-116.2 110.85,-115.76 110.92,-115.53 M110.57,-116.42 L110.85,-115.86 M102.11,-82.783 L102.04,-82.739 M86.955,-90.769 L86.751,-90.872 M83.082,-95.8 C83.082,-95.8 83.322,-95.129 83.461,-94.802 83.598,-94.48 83.911,-93.854 83.911,-93.854 M84.849,-92.459 C84.849,-92.459 84.456,-92.989 84.278,-93.266 84.108,-93.531 83.802,-94.084 83.802,-94.084 M85.276,-92.007 L84.653,-92.735 M85.182,-92.117 C85.182,-92.117 85.525,-91.769 85.708,-91.608 85.94,-91.406 86.433,-91.035 86.433,-91.035 M88.79,-120.11 C88.79,-120.11 89.297,-120.72 89.561,-121.01 89.823,-121.3 90.094,-121.59 90.371,-121.87 90.638,-122.13 91.195,-122.64 91.195,-122.64 M95.312,-124.46 L95.795,-124.42 M106.51,-127.63 C106.45,-127.78 106.38,-127.93 106.3,-128.07 106.25,-128.17 106.11,-128.37 106.11,-128.37 M106.12,-128.35 C106.06,-128.51 105.99,-128.66 105.91,-128.81 105.83,-128.95 105.74,-129.09 105.64,-129.22 105.61,-129.26 105.55,-129.33 105.55,-129.33 M105.69,-129.03 C105.69,-129.03 105.56,-129.34 105.47,-129.49 105.39,-129.64 105.3,-129.78 105.2,-129.91 105.11,-130.03 104.92,-130.24 104.92,-130.24 M96.761,-123.57 C96.766,-123.56 96.788,-123.55 96.788,-123.55 M96.782,-123.56 C96.782,-123.56 96.764,-123.56 96.761,-123.57 M149.68,-106.43 C149.68,-106.43 149.58,-106.44 149.53,-106.44 149.25,-106.45 148.97,-106.47 148.69,-106.47 148.3,-106.46 147.91,-106.43 147.52,-106.4 147.38,-106.39 147.23,-106.37 147.09,-106.35 146.77,-106.3 146.44,-106.26 146.12,-106.2 144.94,-105.97 143.83,-105.58 142.72,-105.13 141.86,-104.79 140.89,-104.29 140.03,-103.76 139.57,-103.46 138.97,-103.17 138.6,-102.71 138.44,-102.5 138.31,-102.25 138.22,-102 138.19,-101.93 138.16,-101.85 138.14,-101.78 138.13,-101.73 138.12,-101.68 138.11,-101.63 138.09,-101.55 138.07,-101.48 138.06,-101.4 138.05,-101.35 138.05,-101.29 138.04,-101.23 138.04,-101.2 138.03,-101.16 138.03,-101.16 M130.94,-107.3 C130.49,-106.94 129.49,-106.12 129.08,-105.76 127.83,-104.67 126.62,-103.48 125.62,-102.34 122.11,-98.345 119.19,-93.168 117.49,-87.876 115.64,-82.142 115.17,-76.238 116.17,-71.291 116.77,-68.296 117.87,-65.642 119.43,-63.433 120.23,-62.294 121.34,-61.098 122.34,-60.293 122.88,-59.859 123.44,-59.444 124.04,-59.087 124.28,-58.942 124.52,-58.801 124.77,-58.667 124.88,-58.605 125,-58.553 125.12,-58.497 125.37,-58.374 125.62,-58.242 125.88,-58.128 125.96,-58.09 126.14,-58.023 126.14,-58.023 M98.713,-121.83 C98.435,-121.97 98.159,-122.12 97.882,-122.27 96.79,-122.9 95.51,-123.16 94.115,-123.03 93.42,-122.97 92.7,-122.82 91.967,-122.57 91.782,-122.5 91.598,-122.43 91.416,-122.36 91.23,-122.29 91.045,-122.21 90.863,-122.12 90.709,-122.05 90.407,-121.9 90.407,-121.9 M115.65,-76.539 L114.66,-77.068 M102.05,-83.787 L99.482,-85.154 M86.873,-91.871 L84.292,-93.246 M129,-105.69 L124.23,-108.23 M113.86,-113.76 L109.05,-116.32 M92.93,-137.43 C84.222,-138.47 73.349,-129.72 67.569,-117.01 61.789,-104.31 62.91,-91.624 70.185,-87.43 70.985,-87.004 71.78,-86.58 72.58,-86.154 M84.51,-93.13 L84.357,-93.155 M98.062,-122.6 L94.689,-124.4 M114.95,-126.17 L114.58,-137.39 90.097,-150.43 80.954,-145.16 M96.993,-136.61 C88.817,-140.97 80.689,-145.3 72.513,-149.65 67.427,-152.49 60.316,-150.74 53.69,-145.01 47.063,-139.28 41.852,-130.38 39.895,-121.45 35.761,-119.06 31.652,-116.69 27.518,-114.3 27.793,-105.94 28.066,-97.617 28.341,-89.249 36.517,-84.893 44.645,-80.563 52.821,-76.207 58.825,-79.673 64.792,-83.119 70.796,-86.585 71.264,-86.37 71.751,-86.19 72.252,-86.046 72.504,-85.973 72.759,-85.91 73.016,-85.857 73.081,-85.843 73.214,-85.822 73.214,-85.822 M48.561,-156.14 C48.561,-156.14 48.464,-156.3 48.412,-156.37 48.176,-156.72 47.929,-157.06 47.673,-157.38 47.164,-158.04 46.625,-158.65 46.065,-159.21 45.223,-160.06 44.341,-160.78 43.445,-161.36 42.25,-162.13 41.052,-162.64 39.92,-162.84 39.355,-162.94 38.811,-162.96 38.296,-162.91 38.044,-162.89 37.792,-162.84 37.546,-162.78 37.308,-162.72 37.073,-162.63 36.849,-162.53 36.8,-162.51 36.709,-162.46 36.709,-162.46 M7.3299,-130.29 C8.3665,-128.58 9.7418,-127.2 11.153,-126.45 12.565,-125.7 13.897,-125.64 14.856,-126.28 16.854,-127.62 16.724,-131.58 14.565,-135.14 13.529,-136.84 12.153,-138.23 10.742,-138.98 9.3304,-139.73 7.9984,-139.79 7.039,-139.15 5.041,-137.81 5.1712,-133.84 7.3299,-130.29 Z M4.2541,-143.73 C0.83259,-141.44 1.0556,-134.65 4.7523,-128.56 8.4489,-122.48 14.219,-119.4 17.641,-121.7 21.062,-123.99 20.839,-130.78 17.143,-136.87 13.446,-142.95 7.6757,-146.02 4.2541,-143.73 Z M60.869,-149.59 C50.984,-154.85 41.159,-160.09 31.274,-165.35 30.458,-165.17 29.696,-164.88 29,-164.46 22.774,-160.87 16.585,-157.3 10.359,-153.7 M28.947,-115.13 L17.141,-121.42 M158.44,-76.9 C158.44,-77.146 158.44,-77.392 158.44,-77.638 158.42,-78.239 158.33,-78.793 158.16,-79.282 158.05,-79.608 157.91,-79.903 157.74,-80.163 157.65,-80.291 157.56,-80.413 157.46,-80.526 157.36,-80.634 157.15,-80.826 157.15,-80.826 M149,-71.063 C149,-71.063 149,-70.921 149.01,-70.85 149.01,-70.754 149.02,-70.658 149.04,-70.562 149.05,-70.469 149.06,-70.375 149.08,-70.282 149.14,-69.916 149.23,-69.574 149.36,-69.264 149.65,-68.563 150.09,-68.031 150.65,-67.706 151.66,-67.123 153.01,-67.242 154.38,-68.037 155.76,-68.832 157.06,-70.238 158,-71.946 159.95,-75.501 159.82,-79.368 157.71,-80.583 157.15,-80.908 156.48,-81.018 155.74,-80.904 155.42,-80.854 155.09,-80.761 154.75,-80.625 154.58,-80.557 154.41,-80.479 154.24,-80.391 154.15,-80.347 154.07,-80.3 153.98,-80.251 153.94,-80.226 153.85,-80.171 153.85,-80.171"/>
      <path stroke="#000" d="M148.99,-70.75 C148.96,-67.804 150.46,-65.96 152.75,-66.124 155.04,-66.289 157.63,-68.428 159.25,-71.488 160.87,-74.548 161.17,-77.884 160.01,-79.852 158.86,-81.819 156.48,-82.004 154.05,-80.315 151.17,-78.312 149.02,-74.243 148.99,-70.75 Z M147.09,-82.274 C146.88,-80.841 146.6,-79.416 146.23,-78.014 145.65,-76.4 145.08,-74.795 144.51,-73.181 143.93,-71.918 143.26,-70.697 142.54,-69.511 L136.99,-72.465 M144.51,-73.181 C144.03,-70.857 144.1,-68.698 144.71,-67.003 M146.99,-78.235 C143.99,-72.765 144.18,-66.816 147.42,-64.948 148.56,-64.342 149.62,-63.867 150.93,-63.894 152.17,-63.92 153.54,-64.336 154.75,-65.06 156.87,-66.323 158.69,-68.283 160.06,-70.774 161.42,-73.26 162.14,-75.988 162.06,-78.385 162.01,-79.711 161.73,-81.016 161.1,-82.19 160.45,-83.394 159.46,-84.13 158.28,-84.758 155.04,-86.626 149.99,-83.706 146.99,-78.235 Z M150.68,-83.73 C148.94,-82.268 147.39,-80.27 146.23,-78.014 M156.85,-87.91 C156.08,-87.173 155.25,-86.485 154.37,-85.864 151.88,-84.423 149.75,-83.218 147.09,-82.274 145.24,-83.26 143.4,-84.241 141.55,-85.227 M142.54,-69.511 C143.28,-68.692 144.01,-67.861 144.71,-67.003 L146.68,-64.304 C147.07,-63.686 147.43,-63.047 147.74,-62.386 M146.68,-64.304 C147.94,-63.442 149.56,-63.281 151.33,-63.842 M159.03,-85.401 C157.77,-86.263 156.14,-86.425 154.37,-85.864 M161,-82.703 C161.04,-82.597 161.07,-82.49 161.11,-82.382 161.14,-82.272 161.17,-82.161 161.2,-82.05 161.21,-82.013 161.23,-81.939 161.23,-81.939 M132.62,-53.634 C140.72,-48.964 153.37,-56.264 160.87,-69.941 168.37,-83.617 167.88,-98.49 159.78,-103.16 151.68,-107.83 139.03,-100.53 131.53,-86.853 124.03,-73.177 124.52,-58.304 132.62,-53.634 Z M139.08,-103.15 C139.34,-103.33 139.65,-103.45 139.98,-103.49 140.24,-103.53 140.46,-103.53 140.72,-103.5 140.84,-103.48 140.96,-103.46 141.08,-103.44 141.09,-103.43 141.11,-103.43 141.12,-103.43 141.14,-103.42 141.19,-103.41 141.19,-103.41 M100.94,-133.65 C100.94,-133.65 100.74,-133.84 100.63,-133.92 100.42,-134.1 100.2,-134.26 99.972,-134.42 99.748,-134.57 99.517,-134.72 99.281,-134.85 91.315,-139.45 78.88,-132.27 71.507,-118.82 64.134,-105.37 64.614,-90.747 72.58,-86.154 73.288,-85.746 74.043,-85.426 74.84,-85.198 75.38,-85.043 75.928,-84.933 76.484,-84.863 76.769,-84.828 77.055,-84.803 77.341,-84.789 77.431,-84.784 77.61,-84.785 77.61,-84.785 M98.91,-122 C98.91,-122 98.876,-122.03 98.858,-122.05 98.733,-122.15 98.603,-122.25 98.47,-122.34 98.338,-122.43 98.201,-122.52 98.062,-122.6 97.085,-123.16 95.96,-123.44 94.736,-123.41 94.212,-123.4 93.673,-123.34 93.122,-123.22 92.755,-123.13 92.384,-123.03 92.009,-122.9 91.819,-122.84 91.631,-122.77 91.445,-122.69 91.325,-122.65 91.09,-122.54 91.09,-122.54 M92.124,-137.5 C93.863,-137.41 95.467,-136.95 96.886,-136.13 97.686,-135.7 98.481,-135.28 99.288,-134.85 99.288,-134.85 99.179,-134.98 99.119,-135.03 98.798,-135.34 98.457,-135.63 98.1,-135.89 97.748,-136.16 97.377,-136.4 96.993,-136.61 91.907,-139.45 84.797,-137.7 78.17,-131.97 71.544,-126.24 66.332,-117.34 64.375,-108.41 60.241,-106.02 56.132,-103.65 51.999,-101.26 M104.04,-131.31 L114.58,-137.39 M40.518,-99.645 C40.518,-99.645 40.428,-99.69 40.382,-99.71 40.277,-99.754 40.169,-99.793 40.061,-99.825 39.849,-99.889 39.642,-99.926 39.444,-99.935 39.047,-99.953 38.689,-99.86 38.393,-99.661 37.793,-99.259 37.475,-98.45 37.509,-97.412 37.543,-96.374 37.927,-95.191 38.574,-94.125 39.222,-93.058 40.082,-92.195 40.964,-91.725 41.846,-91.255 42.679,-91.217 43.278,-91.619 43.575,-91.818 43.806,-92.119 43.958,-92.505 43.996,-92.603 44.029,-92.705 44.056,-92.808 44.084,-92.917 44.106,-93.027 44.123,-93.138 44.134,-93.21 44.145,-93.356 44.145,-93.356 M64.375,-108.41 L39.895,-121.45 M52.821,-76.207 L51.999,-101.26 27.518,-114.3 M40.016,-99.953 C37.811,-101.13 36.093,-99.976 36.178,-97.382 36.264,-94.787 38.12,-91.732 40.324,-90.558 42.528,-89.383 44.246,-90.535 44.161,-93.129 44.12,-94.375 43.66,-95.794 42.883,-97.074 42.106,-98.354 41.074,-99.39 40.016,-99.953 Z M17.641,-121.7 C19.864,-122.98 22.075,-124.25 24.298,-125.54 27.72,-127.83 27.497,-134.62 23.8,-140.71 20.103,-146.79 14.333,-149.87 10.911,-147.57 8.6879,-146.29 6.4777,-145.01 4.2541,-143.73 M12.634,-154.59 L46.406,-136.6 M31.274,-165.35 C25.048,-161.76 18.859,-158.19 12.634,-154.59 11.817,-154.41 11.056,-154.11 10.359,-153.7 8.9635,-152.87 7.848,-151.59 7.0714,-149.93 6.6839,-149.1 6.3835,-148.18 6.1741,-147.18 6.1031,-146.84 6.0438,-146.5 5.9954,-146.16 5.9452,-145.8 5.9064,-145.44 5.8782,-145.09 5.8669,-144.94 5.8568,-144.66 5.8568,-144.66 M150.28,-67.971 C150.28,-67.971 150.45,-67.915 150.53,-67.897 150.68,-67.867 150.83,-67.849 150.98,-67.841 151.14,-67.833 151.29,-67.837 151.45,-67.851 151.61,-67.865 151.78,-67.891 151.94,-67.926 152.1,-67.963 152.44,-68.066 152.44,-68.066 152.44,-68.066 152.78,-68.193 152.94,-68.269 153.12,-68.349 153.29,-68.438 153.45,-68.533 153.63,-68.633 153.8,-68.742 153.96,-68.856 156.84,-70.827 158.54,-73.876 158.44,-76.9 158.37,-79.149 157.1,-80.461 155.28,-80.18 153.45,-79.898 151.46,-78.082 150.31,-75.643 149.15,-73.205 149.08,-70.668 150.12,-69.307 151.17,-67.946 153.11,-68.052 154.97,-69.574"/>
    </g>
  </g>
  <g id="C3DA0001" vm2d:name="Axials" vm2d:type="layer"/>
  <g id="C3DC0001" vm2d:name="Callouts" vm2d:type="layer"/>
  <g id="C3DP0001" vm2d:name="Panels" vm2d:type="layer"/>
  <g id="AUTOID_003" vm2d:name="" vm2d:type="grnode">
    <g transform="matrix(3.78235,0,0,3.78235,-0,839.841)" stroke-width="0.40008" stroke-linecap="round" stroke-linejoin="round" stroke-miterlimit="2">
      <path fill="#fff" stroke="#fff" d="M111.6,-152.11 L109.9,-150.08 110.79,-149.33 106.84,-148.6 106.89,-152.61 107.78,-151.87 109.48,-153.9 Z"/>
      <path fill="#fff" stroke="#000" stroke-width="0.18004" d="M111.6,-152.11 L109.9,-150.08 110.79,-149.33 106.84,-148.6 106.89,-152.61 107.78,-151.87 109.48,-153.9 Z"/>
    </g>
  </g>
  <g id="AUTOID_161" vm2d:name="" vm2d:type="grnode">
    <g transform="matrix(3.78235,0,0,3.78235,-0,839.841)" stroke-width="0.01" stroke-linecap="round" stroke-linejoin="round" stroke-miterlimit="10">
      <path fill="#fff" stroke="#fff" d="M110.54,-158.6 L114.04,-158.6 114.04,-155.1 110.54,-155.1 110.54,-158.6 110.54,-158.6 Z"/>
      <path fill="#000" d="M112.68,-156.53 L112.68,-156.53 112.26,-157.65 111.85,-156.53 111.67,-156.02 111.42,-155.33 110.77,-155.33 111.95,-158.36 112.59,-158.36 113.81,-155.33 113.81,-155.33 113.14,-155.33 112.88,-156.02 111.67,-156.02 111.85,-156.53 112.68,-156.53 112.68,-156.53 Z"/>
    </g>
  </g>
</svg>
