<?xml version="1.0" encoding="UTF-8" standalone="no"?>
<!DOCTYPE svg SYSTEM "http://www.w3.org/Graphics/SVG/1.1/DTD/svg11.dtd" [
<!ENTITY % SVG.External.attrib
"xmlns:vm2d CDATA #FIXED 'http://www.cortona3d.com/vm2d'
vm2d:name CDATA #IMPLIED
vm2d:type CDATA #IMPLIED">
]>
<svg xmlns="http://www.w3.org/2000/svg" xmlns:vm2d="http://www.cortona3d.com/vm2d" xmlns:xlink="http://www.w3.org/1999/xlink" version="1.1" width="170mm" height="210mm" viewBox="0 0 643 794" fill="none" fill-rule="evenodd" stroke-miterlimit="5">
  <title>Untitled</title>
  <desc>"Generator:ParallelGraphics Cortona2D","ProfileId:WebCGM""ProfileEd:2.1""ColourClass:colour""Source:Cortona2D Editor Pro 14.2.0.142""Date:20250415"</desc>
  <rect width="643" height="794" fill="#fff"/>
  <defs/>
  <g id="C3DB0001" vm2d:name="Background" vm2d:type="layer"/>
  <g id="AUTOID_008" vm2d:name="Схема" vm2d:type="layer">
    <g transform="matrix(3.78095,0,0,3.78095,0.119049,794)" stroke-width="0.18" stroke-linecap="round" stroke-linejoin="round" stroke-miterlimit="10">
      <path stroke="#000" d="M80.117,-142.49 L91.117,-142.49 91.117,-107.49 80.117,-107.49 Z"/>
    </g>
    <g transform="matrix(-0,-3.78095,3.78095,0,314.48,346.864)">
      <text font-family="Arial" font-size="3.21" x="0" y="0" fill="#000">МОДУЛЬ</text>
    </g>
    <g id="AUTOID_004" vm2d:name="" vm2d:type="grnode">
      <g transform="matrix(3.78095,0,0,3.78095,0.119049,794)" stroke-width="0.18" stroke-linecap="round" stroke-linejoin="round" stroke-miterlimit="10">
        <path stroke="#000" d="M55.117,-202.36 L65.117,-202.36 65.117,-177.36 55.117,-177.36 Z"/>
      </g>
      <g id="AUTOID_183" vm2d:name="" vm2d:type="grnode">
        <g transform="matrix(-0,-3.78095,3.78095,0,225.744,115.464)">
          <text font-family="Arial" font-size="3.21" x="0" y="0" fill="#000">СДВОЕННЫЙ</text>
        </g>
        <g transform="matrix(-0,-3.78095,3.78095,0,239.708,112.659)">
          <text font-family="Arial" font-size="3.21" x="0" y="0" fill="#000">ТЕРМОСТАТ</text>
        </g>
      </g>
    </g>
    <g transform="matrix(-0,-3.78095,3.78095,0,328.324,378.714)">
      <text font-family="Arial" font-size="3.21" x="0" y="0" fill="#000">РЕЗЕРВИРОВАНИЯ</text>
    </g>
    <g transform="matrix(-0,-3.78095,3.78095,0,342.169,350.564)">
      <text font-family="Arial" font-size="3.21" x="0" y="0" fill="#000">ПИТАНИЯ</text>
    </g>
    <g id="AUTOID_006" vm2d:name="" vm2d:type="grnode">
      <g id="AUTOID_005" vm2d:name="" vm2d:type="grnode">
        <g transform="matrix(-0,-3.78095,3.78095,0,226.216,296.99)">
          <text font-family="Arial" font-size="3.21" x="0" y="0" fill="#000">ПРЕОБРАЗОВАТЕЛЬ</text>
        </g>
        <g transform="matrix(-0,-3.78095,3.78095,0,240.06,268.181)">
          <text font-family="Arial" font-size="3.21" x="0" y="0" fill="#000">230 В / 24 В</text>
        </g>
        <g transform="matrix(-0,-3.78095,3.78095,0,253.905,292.766)">
          <text font-family="Arial" font-size="3.21" x="0" y="0" fill="#000">ЦИФРОВОЙ ШИНЫ</text>
        </g>
      </g>
      <g transform="matrix(3.78095,0,0,3.78095,0.119049,794)" stroke-width="0.18" stroke-linecap="round" stroke-linejoin="round" stroke-miterlimit="10">
        <path stroke="#000" d="M55.117,-164.85 L70.117,-164.85 70.117,-129.85 55.117,-129.85 Z"/>
      </g>
    </g>
    <g id="AUTOID_007" vm2d:name="" vm2d:type="grnode">
      <g transform="matrix(-0,-3.78095,3.78095,0,226.216,467.104)">
        <text font-family="Arial" font-size="3.21" x="0" y="0" fill="#000">ПРЕОБРАЗОВАТЕЛЬ</text>
      </g>
      <g transform="matrix(-0,-3.78095,3.78095,0,240.06,438.295)">
        <text font-family="Arial" font-size="3.21" x="0" y="0" fill="#000">230 В / 24 В</text>
      </g>
      <g transform="matrix(-0,-3.78095,3.78095,0,253.905,462.88)">
        <text font-family="Arial" font-size="3.21" x="0" y="0" fill="#000">ЦИФРОВОЙ ШИНЫ</text>
      </g>
      <g transform="matrix(3.78095,0,0,3.78095,0.119049,794)" stroke-width="0.18" stroke-linecap="round" stroke-linejoin="round" stroke-miterlimit="10">
        <path stroke="#000" d="M55.117,-119.86 L70.117,-119.86 70.117,-84.862 55.117,-84.862 Z"/>
      </g>
    </g>
    <g transform="matrix(3.78095,0,0,3.78095,0.119049,794)" stroke-width="0.15" stroke-linecap="round" stroke-linejoin="round" stroke-miterlimit="10">
      <path stroke="#000" stroke-dasharray="6.35,0.635,1.27,0.635,1.27,0.635" d="M151.12,-77.354 L166.12,-77.354 166.12,-37.354 151.12,-37.354 Z"/>
      <path stroke="#000" stroke-dasharray="6.35,0.635,1.27,0.635,1.27,0.635" d="M151.12,-122.35 L166.12,-122.35 166.12,-82.354 151.12,-82.354 Z"/>
      <path stroke="#000" stroke-dasharray="6.35,0.635,1.27,0.635,1.27,0.635" d="M151.12,-167.35 L166.12,-167.35 166.12,-127.35 151.12,-127.35 Z"/>
    </g>
    <g transform="matrix(-0,-3.78095,3.78095,0,622.823,648.625)">
      <text font-family="Arial" font-size="3.21" x="0" y="0" fill="#000">ШКАФ УПРАВЛЕНИЯ №3</text>
    </g>
    <g transform="matrix(-0,-3.78095,3.78095,0,622.823,478.437)">
      <text font-family="Arial" font-size="3.21" x="0" y="0" fill="#000">ШКАФ УПРАВЛЕНИЯ №2</text>
    </g>
    <g id="AUTOID_032" vm2d:name="" vm2d:type="grnode">
      <g transform="matrix(3.78095,0,0,3.78095,0.119049,794)" stroke-width="0.15" stroke-linecap="round" stroke-linejoin="round" stroke-miterlimit="10">
        <path stroke="#000" d="M7.6171,-207.36 L12.617,-207.36 12.617,-195.36 7.6171,-195.36 Z"/>
      </g>
      <g transform="matrix(-0,-3.78095,3.78095,0,41.5139,50.8188)">
        <text font-family="Arial" font-size="3.21" x="0" y="0" fill="#000">A (л.2)</text>
      </g>
    </g>
    <g id="AUTOID_031" vm2d:name="" vm2d:type="grnode">
      <g transform="matrix(3.78095,0,0,3.78095,0.119049,794)" stroke-width="0.15" stroke-linecap="round" stroke-linejoin="round" stroke-miterlimit="10">
        <path stroke="#000" d="M151.12,-195.86 L156.12,-195.86 156.12,-183.86 151.12,-183.86 Z"/>
      </g>
      <g transform="matrix(-0,-3.78095,3.78095,0,584.08,94.7389)">
        <text font-family="Arial" font-size="3.21" x="0" y="0" fill="#000">Б (л.2)</text>
      </g>
    </g>
    <g transform="matrix(-0,-3.78095,3.78095,0,622.823,307.507)">
      <text font-family="Arial" font-size="3.21" x="0" y="0" fill="#000">ШКАФ УПРАВЛЕНИЯ №1</text>
    </g>
    <g id="WRAP_001" vm2d:name="" vm2d:type="grnode">
      <g transform="matrix(3.78095,0,0,3.78095,0.119049,794)" stroke-width="0.45" stroke-linecap="butt" stroke-linejoin="round" stroke-miterlimit="10">
        <path stroke="#fff" d="M76.192,-134.87 L70.117,-134.86"/>
        <path stroke="#fff" stroke-width="0.3" stroke-linecap="round" stroke-linejoin="miter" stroke-miterlimit="1000" d="M76.118,-134.07 L80.117,-134.87 76.116,-135.67 Z"/>
        <path stroke="#009300" stroke-width="0.15" stroke-dasharray="0.9,0.3,0.15,0.3" d="M76.192,-134.87 L70.117,-134.86"/>
        <path fill="#009300" d="M76.118,-134.07 L80.117,-134.87 76.116,-135.67 Z"/>
      </g>
    </g>
    <g id="WRAP_002" vm2d:name="" vm2d:type="grnode">
      <g transform="matrix(3.78095,0,0,3.78095,0.119049,794)" stroke-width="0.45" stroke-linecap="butt" stroke-linejoin="round" stroke-miterlimit="10">
        <path stroke="#fff" d="M97.192,-125 L91.117,-124.99"/>
        <path stroke="#fff" stroke-width="0.3" stroke-linecap="round" stroke-linejoin="miter" stroke-miterlimit="1000" d="M97.118,-124.2 L101.12,-125 97.116,-125.8 Z"/>
        <path stroke="#009300" stroke-width="0.15" stroke-dasharray="0.9,0.3,0.15,0.3" d="M97.192,-125 L91.117,-124.99"/>
        <path fill="#009300" d="M97.118,-124.2 L101.12,-125 97.116,-125.8 Z"/>
      </g>
    </g>
    <g id="WRAP_003" vm2d:name="" vm2d:type="grnode">
      <g transform="matrix(3.78095,0,0,3.78095,0.119049,794)" stroke-width="0.45" stroke-linecap="butt" stroke-linejoin="round" stroke-miterlimit="10">
        <path stroke="#fff" d="M76.192,-114.9 L70.117,-114.9"/>
        <path stroke="#fff" stroke-width="0.3" stroke-linecap="round" stroke-linejoin="miter" stroke-miterlimit="1000" d="M76.118,-114.1 L80.117,-114.91 76.116,-115.7 Z"/>
        <path stroke="#009300" stroke-width="0.15" stroke-dasharray="0.9,0.3,0.15,0.3" d="M76.192,-114.9 L70.117,-114.9"/>
        <path fill="#009300" d="M76.118,-114.1 L80.117,-114.91 76.116,-115.7 Z"/>
      </g>
    </g>
    <g id="AUTOID_115" vm2d:name="" vm2d:type="grnode">
      <g id="AUTOID_114" vm2d:name="" vm2d:type="grnode">
        <g transform="matrix(-0,-3.78095,3.78095,0,587.831,625.076)">
          <text font-family="Arial" font-size="3.21" x="0" y="0" fill="#000">СТАБИЛИЗАТОР</text>
        </g>
        <g transform="matrix(-0,-3.78095,3.78095,0,601.795,635.31)">
          <text font-family="Arial" font-size="3.21" x="0" y="0" fill="#000" xml:space="preserve">НАПРЯЖЕНИЯ 24 В </text>
        </g>
      </g>
      <g transform="matrix(3.78095,0,0,3.78095,0.119049,794)" stroke-width="0.18" stroke-linecap="round" stroke-linejoin="round" stroke-miterlimit="10">
        <path stroke="#000" d="M151.12,-73.97 L161.12,-73.97 161.12,-40.739 151.12,-40.739 Z"/>
      </g>
    </g>
    <g id="AUTOID_116" vm2d:name="" vm2d:type="grnode">
      <g id="AUTOID_117" vm2d:name="" vm2d:type="grnode">
        <g transform="matrix(-0,-3.78095,3.78095,0,587.831,454.932)">
          <text font-family="Arial" font-size="3.21" x="0" y="0" fill="#000">СТАБИЛИЗАТОР</text>
        </g>
        <g transform="matrix(-0,-3.78095,3.78095,0,601.795,465.167)">
          <text font-family="Arial" font-size="3.21" x="0" y="0" fill="#000" xml:space="preserve">НАПРЯЖЕНИЯ 24 В </text>
        </g>
      </g>
      <g transform="matrix(3.78095,0,0,3.78095,0.119049,794)" stroke-width="0.18" stroke-linecap="round" stroke-linejoin="round" stroke-miterlimit="10">
        <path stroke="#000" d="M151.12,-118.97 L161.12,-118.97 161.12,-85.739 151.12,-85.739 Z"/>
      </g>
    </g>
    <g id="AUTOID_118" vm2d:name="" vm2d:type="grnode">
      <g id="AUTOID_119" vm2d:name="" vm2d:type="grnode">
        <g transform="matrix(-0,-3.78095,3.78095,0,587.831,284.789)">
          <text font-family="Arial" font-size="3.21" x="0" y="0" fill="#000">СТАБИЛИЗАТОР</text>
        </g>
        <g transform="matrix(-0,-3.78095,3.78095,0,601.795,295.024)">
          <text font-family="Arial" font-size="3.21" x="0" y="0" fill="#000" xml:space="preserve">НАПРЯЖЕНИЯ 24 В </text>
        </g>
      </g>
      <g transform="matrix(3.78095,0,0,3.78095,0.119049,794)" stroke-width="0.18" stroke-linecap="round" stroke-linejoin="round" stroke-miterlimit="10">
        <path stroke="#000" d="M151.12,-163.97 L161.12,-163.97 161.12,-130.74 151.12,-130.74 Z"/>
      </g>
    </g>
    <g transform="matrix(3.78095,0,0,3.78095,0.119049,794)" stroke-width="0.18" stroke-linecap="round" stroke-linejoin="round" stroke-miterlimit="10">
      <path stroke="#000" d="M5,-35 L15,-35 15,-5 5,-5 Z"/>
    </g>
    <g id="AUTOID_170" vm2d:name="" vm2d:type="grnode">
      <g transform="matrix(3.78095,0,0,3.78095,0.119049,794)" stroke-width="0.18" stroke-linecap="round" stroke-linejoin="round" stroke-miterlimit="10">
        <path stroke="#000" d="M5,-117.36 L15,-117.36 15,-87.362 5,-87.362 Z"/>
      </g>
      <g id="AUTOID_171" vm2d:name="" vm2d:type="grnode">
        <g transform="matrix(-0,-3.78095,3.78095,0,35.2554,453.029)">
          <text font-family="Arial" font-size="3.21" x="0" y="0" fill="#000">ВЫКЛЮЧАТЕЛЬ</text>
        </g>
        <g transform="matrix(-0,-3.78095,3.78095,0,49.2199,437.65)">
          <text font-family="Arial" font-size="3.21" x="0" y="0" fill="#000">НАГРУЗКИ</text>
        </g>
      </g>
    </g>
    <g id="AUTOID_172" vm2d:name="" vm2d:type="grnode">
      <g transform="matrix(3.78095,0,0,3.78095,0.119049,794)" stroke-width="0.18" stroke-linecap="round" stroke-linejoin="round" stroke-miterlimit="10">
        <path stroke="#000" d="M5,-72.354 L15,-72.354 15,-42.354 5,-42.354 Z"/>
      </g>
      <g id="AUTOID_173" vm2d:name="" vm2d:type="grnode">
        <g transform="matrix(-0,-3.78095,3.78095,0,35.2958,615.245)">
          <text font-family="Arial" font-size="3.21" x="0" y="0" fill="#000">ПРОХОДНАЯ</text>
        </g>
        <g transform="matrix(-0,-3.78095,3.78095,0,49.2602,603.473)">
          <text font-family="Arial" font-size="3.21" x="0" y="0" fill="#000">КЛЕММА</text>
        </g>
      </g>
    </g>
    <g id="AUTOID_009" vm2d:name="" vm2d:type="grnode">
      <g transform="matrix(3.78095,0,0,3.78095,0.119049,794)" stroke-width="0.18" stroke-linecap="round" stroke-linejoin="round" stroke-miterlimit="10">
        <path stroke="#000" d="M2.6171,-165 L17.617,-165 17.617,-130 2.6171,-130 Z"/>
      </g>
      <g id="AUTOID_174" vm2d:name="" vm2d:type="grnode">
        <g transform="matrix(-0,-3.78095,3.78095,0,29.7884,266.092)">
          <text font-family="Arial" font-size="3.21" x="0" y="0" fill="#000">ВВОДНОЙ</text>
        </g>
        <g transform="matrix(-0,-3.78095,3.78095,0,43.6325,292.643)">
          <text font-family="Arial" font-size="3.21" x="0" y="0" fill="#000">АВТОМАТИЧЕСКИЙ</text>
        </g>
        <g transform="matrix(-0,-3.78095,3.78095,0,57.4767,282.364)">
          <text font-family="Arial" font-size="3.21" x="0" y="0" fill="#000" xml:space="preserve">ВЫКЛЮЧАТЕЛЬ </text>
        </g>
      </g>
    </g>
    <g id="WRAP_004" vm2d:name="" vm2d:type="grnode">
      <g transform="matrix(3.78095,0,0,3.78095,0.119049,794)" stroke-width="0.9" stroke-linecap="butt" stroke-linejoin="round" stroke-miterlimit="10">
        <path stroke="#fff" d="M10,-38.654 L10,-35.45"/>
        <path stroke="#fff" stroke-width="0.3" stroke-linecap="round" stroke-linejoin="miter" stroke-miterlimit="1000" d="M10.799,-38.354 L10,-42.354 9.2007,-38.354 Z"/>
        <path stroke="#000" stroke-width="0.6" d="M10,-38.654 L10,-35"/>
        <path fill="#000" d="M10.799,-38.354 L10,-42.354 9.2007,-38.354 Z"/>
      </g>
    </g>
    <g id="WRAP_005" vm2d:name="" vm2d:type="grnode">
      <g transform="matrix(3.78095,0,0,3.78095,0.119049,794)" stroke-width="0.9" stroke-linecap="butt" stroke-linejoin="round" stroke-miterlimit="10">
        <path stroke="#fff" d="M10,-83.662 L10,-72.804"/>
        <path stroke="#fff" stroke-width="0.3" stroke-linecap="round" stroke-linejoin="miter" stroke-miterlimit="1000" d="M10.799,-83.362 L10,-87.362 9.2007,-83.362 Z"/>
        <path stroke="#000" stroke-width="0.6" d="M10,-83.662 L10,-72.354"/>
        <path fill="#000" d="M10.799,-83.362 L10,-87.362 9.2007,-83.362 Z"/>
      </g>
    </g>
    <g id="WRAP_006" vm2d:name="" vm2d:type="grnode">
      <g transform="matrix(3.78095,0,0,3.78095,0.119049,794)" stroke-width="0.9" stroke-linecap="butt" stroke-linejoin="round" stroke-miterlimit="10">
        <path stroke="#fff" d="M10,-126.3 L10,-117.81"/>
        <path stroke="#fff" stroke-width="0.3" stroke-linecap="round" stroke-linejoin="miter" stroke-miterlimit="1000" d="M10.799,-126 L10,-130 9.2007,-126 Z"/>
        <path stroke="#000" stroke-width="0.6" d="M10,-126.3 L10,-117.36"/>
        <path fill="#000" d="M10.799,-126 L10,-130 9.2007,-126 Z"/>
      </g>
    </g>
    <g id="WRAP_007" vm2d:name="" vm2d:type="grnode">
      <g transform="matrix(3.78095,0,0,3.78095,0.119049,794)" stroke-width="0.9" stroke-linecap="butt" stroke-linejoin="round" stroke-miterlimit="10">
        <path stroke="#fff" d="M10.117,-191.66 L10.117,-165.45"/>
        <path stroke="#fff" stroke-width="0.3" stroke-linecap="round" stroke-linejoin="miter" stroke-miterlimit="1000" d="M10.916,-191.36 L10.117,-195.36 9.3178,-191.36 Z"/>
        <path stroke="#000" stroke-width="0.6" d="M10.117,-191.66 L10.117,-165"/>
        <path fill="#000" d="M10.916,-191.36 L10.117,-195.36 9.3178,-191.36 Z"/>
      </g>
    </g>
    <g id="AUTOID_175" vm2d:name="" vm2d:type="grnode">
      <g transform="matrix(-0,-3.78095,3.78095,0,34.3144,736.179)">
        <text font-family="Arial" font-size="3.21" x="0" y="0" fill="#000">ШКАФ</text>
      </g>
      <g transform="matrix(-0,-3.78095,3.78095,0,48.2789,766.13)">
        <text font-family="Arial" font-size="3.21" x="0" y="0" fill="#000" xml:space="preserve">ПОДКЛЮЧЕНИЯ </text>
      </g>
    </g>
    <g id="AUTOID_180" vm2d:name="" vm2d:type="grnode">
      <g transform="matrix(3.78095,0,0,3.78095,0.119049,794)" stroke-width="0.18" stroke-linecap="round" stroke-linejoin="round" stroke-miterlimit="10">
        <path stroke="#000" d="M30.117,-74.854 L45.117,-74.854 45.117,-39.854 30.117,-39.854 Z"/>
      </g>
      <g id="AUTOID_179" vm2d:name="" vm2d:type="grnode">
        <g transform="matrix(-0,-3.78095,3.78095,0,133.764,631.652)">
          <text font-family="Arial" font-size="3.21" x="0" y="0" fill="#000">ДВУХ-ПОЛЮСНЫЙ</text>
        </g>
        <g transform="matrix(-0,-3.78095,3.78095,0,147.608,633.481)">
          <text font-family="Arial" font-size="3.21" x="0" y="0" fill="#000">АВТОМАТИЧЕСКИЙ</text>
        </g>
        <g transform="matrix(-0,-3.78095,3.78095,0,161.453,623.112)">
          <text font-family="Arial" font-size="3.21" x="0" y="0" fill="#000" xml:space="preserve">ВЫКЛЮЧАТЕЛЬ </text>
        </g>
      </g>
    </g>
    <g id="AUTOID_192" vm2d:name="" vm2d:type="grnode">
      <g transform="matrix(3.78095,0,0,3.78095,0.119049,794)" stroke-width="0.18" stroke-linecap="round" stroke-linejoin="round" stroke-miterlimit="10">
        <path stroke="#000" d="M128.62,-74.854 L143.62,-74.854 143.62,-39.854 128.62,-39.854 Z"/>
      </g>
      <g id="AUTOID_193" vm2d:name="" vm2d:type="grnode">
        <g transform="matrix(-0,-3.78095,3.78095,0,506.188,631.652)">
          <text font-family="Arial" font-size="3.21" x="0" y="0" fill="#000">ДВУХ-ПОЛЮСНЫЙ</text>
        </g>
        <g transform="matrix(-0,-3.78095,3.78095,0,520.032,633.481)">
          <text font-family="Arial" font-size="3.21" x="0" y="0" fill="#000">АВТОМАТИЧЕСКИЙ</text>
        </g>
        <g transform="matrix(-0,-3.78095,3.78095,0,533.876,623.112)">
          <text font-family="Arial" font-size="3.21" x="0" y="0" fill="#000" xml:space="preserve">ВЫКЛЮЧАТЕЛЬ </text>
        </g>
      </g>
    </g>
    <g id="AUTOID_184" vm2d:name="" vm2d:type="grnode">
      <g transform="matrix(3.78095,0,0,3.78095,0.119049,794)" stroke-width="0.18" stroke-linecap="round" stroke-linejoin="round" stroke-miterlimit="10">
        <path stroke="#000" d="M30.117,-207.36 L45.117,-207.36 45.117,-172.36 30.117,-172.36 Z"/>
      </g>
      <g id="AUTOID_185" vm2d:name="" vm2d:type="grnode">
        <g transform="matrix(-0,-3.78095,3.78095,0,133.764,130.646)">
          <text font-family="Arial" font-size="3.21" x="0" y="0" fill="#000">ДВУХ-ПОЛЮСНЫЙ</text>
        </g>
        <g transform="matrix(-0,-3.78095,3.78095,0,147.608,132.475)">
          <text font-family="Arial" font-size="3.21" x="0" y="0" fill="#000">АВТОМАТИЧЕСКИЙ</text>
        </g>
        <g transform="matrix(-0,-3.78095,3.78095,0,161.453,122.107)">
          <text font-family="Arial" font-size="3.21" x="0" y="0" fill="#000" xml:space="preserve">ВЫКЛЮЧАТЕЛЬ </text>
        </g>
      </g>
    </g>
    <g id="AUTOID_194" vm2d:name="" vm2d:type="grnode">
      <g transform="matrix(3.78095,0,0,3.78095,0.119049,794)" stroke-width="0.18" stroke-linecap="round" stroke-linejoin="round" stroke-miterlimit="10">
        <path stroke="#000" d="M128.62,-119.85 L143.62,-119.85 143.62,-84.854 128.62,-84.854 Z"/>
      </g>
      <g id="AUTOID_195" vm2d:name="" vm2d:type="grnode">
        <g transform="matrix(-0,-3.78095,3.78095,0,506.188,461.508)">
          <text font-family="Arial" font-size="3.21" x="0" y="0" fill="#000">ДВУХ-ПОЛЮСНЫЙ</text>
        </g>
        <g transform="matrix(-0,-3.78095,3.78095,0,520.032,463.338)">
          <text font-family="Arial" font-size="3.21" x="0" y="0" fill="#000">АВТОМАТИЧЕСКИЙ</text>
        </g>
        <g transform="matrix(-0,-3.78095,3.78095,0,533.876,452.969)">
          <text font-family="Arial" font-size="3.21" x="0" y="0" fill="#000" xml:space="preserve">ВЫКЛЮЧАТЕЛЬ </text>
        </g>
      </g>
    </g>
    <g id="AUTOID_186" vm2d:name="" vm2d:type="grnode">
      <g transform="matrix(3.78095,0,0,3.78095,0.119049,794)" stroke-width="0.18" stroke-linecap="round" stroke-linejoin="round" stroke-miterlimit="10">
        <path stroke="#000" d="M30.117,-119.86 L45.117,-119.86 45.117,-84.862 30.117,-84.862 Z"/>
      </g>
      <g id="AUTOID_187" vm2d:name="" vm2d:type="grnode">
        <g transform="matrix(-0,-3.78095,3.78095,0,133.764,461.479)">
          <text font-family="Arial" font-size="3.21" x="0" y="0" fill="#000">ДВУХ-ПОЛЮСНЫЙ</text>
        </g>
        <g transform="matrix(-0,-3.78095,3.78095,0,147.608,463.309)">
          <text font-family="Arial" font-size="3.21" x="0" y="0" fill="#000">АВТОМАТИЧЕСКИЙ</text>
        </g>
        <g transform="matrix(-0,-3.78095,3.78095,0,161.453,452.94)">
          <text font-family="Arial" font-size="3.21" x="0" y="0" fill="#000" xml:space="preserve">ВЫКЛЮЧАТЕЛЬ </text>
        </g>
      </g>
    </g>
    <g id="AUTOID_196" vm2d:name="" vm2d:type="grnode">
      <g transform="matrix(3.78095,0,0,3.78095,0.119049,794)" stroke-width="0.18" stroke-linecap="round" stroke-linejoin="round" stroke-miterlimit="10">
        <path stroke="#000" d="M128.62,-164.85 L143.62,-164.85 143.62,-129.85 128.62,-129.85 Z"/>
      </g>
      <g id="AUTOID_197" vm2d:name="" vm2d:type="grnode">
        <g transform="matrix(-0,-3.78095,3.78095,0,506.188,291.366)">
          <text font-family="Arial" font-size="3.21" x="0" y="0" fill="#000">ДВУХ-ПОЛЮСНЫЙ</text>
        </g>
        <g transform="matrix(-0,-3.78095,3.78095,0,520.032,293.195)">
          <text font-family="Arial" font-size="3.21" x="0" y="0" fill="#000">АВТОМАТИЧЕСКИЙ</text>
        </g>
        <g transform="matrix(-0,-3.78095,3.78095,0,533.876,282.826)">
          <text font-family="Arial" font-size="3.21" x="0" y="0" fill="#000" xml:space="preserve">ВЫКЛЮЧАТЕЛЬ </text>
        </g>
      </g>
    </g>
    <g id="AUTOID_188" vm2d:name="" vm2d:type="grnode">
      <g transform="matrix(3.78095,0,0,3.78095,0.119049,794)" stroke-width="0.18" stroke-linecap="round" stroke-linejoin="round" stroke-miterlimit="10">
        <path stroke="#000" d="M30.117,-164.85 L45.117,-164.85 45.117,-129.85 30.117,-129.85 Z"/>
      </g>
      <g id="AUTOID_189" vm2d:name="" vm2d:type="grnode">
        <g transform="matrix(-0,-3.78095,3.78095,0,133.764,291.366)">
          <text font-family="Arial" font-size="3.21" x="0" y="0" fill="#000">ДВУХ-ПОЛЮСНЫЙ</text>
        </g>
        <g transform="matrix(-0,-3.78095,3.78095,0,147.608,293.195)">
          <text font-family="Arial" font-size="3.21" x="0" y="0" fill="#000">АВТОМАТИЧЕСКИЙ</text>
        </g>
        <g transform="matrix(-0,-3.78095,3.78095,0,161.453,282.826)">
          <text font-family="Arial" font-size="3.21" x="0" y="0" fill="#000" xml:space="preserve">ВЫКЛЮЧАТЕЛЬ </text>
        </g>
      </g>
    </g>
    <g id="AUTOID_198" vm2d:name="" vm2d:type="grnode">
      <g transform="matrix(3.78095,0,0,3.78095,0.119049,794)" stroke-width="0.18" stroke-linecap="round" stroke-linejoin="round" stroke-miterlimit="10">
        <path stroke="#000" d="M128.62,-207.36 L143.62,-207.36 143.62,-172.36 128.62,-172.36 Z"/>
      </g>
      <g id="AUTOID_199" vm2d:name="" vm2d:type="grnode">
        <g transform="matrix(-0,-3.78095,3.78095,0,506.188,130.645)">
          <text font-family="Arial" font-size="3.21" x="0" y="0" fill="#000">ДВУХ-ПОЛЮСНЫЙ</text>
        </g>
        <g transform="matrix(-0,-3.78095,3.78095,0,520.032,132.475)">
          <text font-family="Arial" font-size="3.21" x="0" y="0" fill="#000">АВТОМАТИЧЕСКИЙ</text>
        </g>
        <g transform="matrix(-0,-3.78095,3.78095,0,533.876,122.106)">
          <text font-family="Arial" font-size="3.21" x="0" y="0" fill="#000" xml:space="preserve">ВЫКЛЮЧАТЕЛЬ </text>
        </g>
      </g>
    </g>
    <g id="AUTOID_181" vm2d:name="" vm2d:type="grnode">
      <g transform="matrix(3.78095,0,0,3.78095,0.119049,794)" stroke-width="0.18" stroke-linecap="round" stroke-linejoin="round" stroke-miterlimit="10">
        <path stroke="#000" d="M55.117,-69.854 L65.117,-69.854 65.117,-44.854 55.117,-44.854 Z"/>
      </g>
      <g id="AUTOID_182" vm2d:name="" vm2d:type="grnode">
        <g transform="matrix(-0,-3.78095,3.78095,0,224.809,615.064)">
          <text font-family="Arial" font-size="3.21" x="0" y="0" fill="#000">МОДУЛЬНАЯ</text>
        </g>
        <g transform="matrix(-0,-3.78095,3.78095,0,238.653,605.035)">
          <text font-family="Arial" font-size="3.21" x="0" y="0" fill="#000">РОЗЕТКА</text>
        </g>
      </g>
    </g>
    <g id="WRAP_008" vm2d:name="" vm2d:type="grnode">
      <g transform="matrix(3.78095,0,0,3.78095,0.119049,794)" stroke-width="0.6" stroke-linecap="butt" stroke-linejoin="round" stroke-miterlimit="10">
        <path stroke="#fff" d="M51.267,-57.354 L45.567,-57.354"/>
        <path stroke="#fff" stroke-width="0.3" stroke-linecap="round" stroke-linejoin="miter" stroke-miterlimit="1000" d="M51.117,-56.555 L55.117,-57.354 51.117,-58.153 Z"/>
        <path stroke="#000" stroke-width="0.3" d="M51.267,-57.354 L45.117,-57.354"/>
        <path fill="#000" d="M51.117,-56.555 L55.117,-57.354 51.117,-58.153 Z"/>
      </g>
    </g>
    <g id="WRAP_009" vm2d:name="" vm2d:type="grnode">
      <g transform="matrix(3.78095,0,0,3.78095,0.119049,794)" stroke-width="0.6" stroke-linecap="butt" stroke-linejoin="round" stroke-miterlimit="10">
        <path stroke="#fff" d="M51.267,-189.86 L45.567,-189.86"/>
        <path stroke="#fff" stroke-width="0.3" stroke-linecap="round" stroke-linejoin="miter" stroke-miterlimit="1000" d="M51.117,-189.06 L55.117,-189.86 51.117,-190.66 Z"/>
        <path stroke="#000" stroke-width="0.3" d="M51.267,-189.86 L45.117,-189.86"/>
        <path fill="#000" d="M51.117,-189.06 L55.117,-189.86 51.117,-190.66 Z"/>
      </g>
    </g>
    <g id="WRAP_010" vm2d:name="" vm2d:type="grnode">
      <g transform="matrix(3.78095,0,0,3.78095,0.119049,794)" stroke-width="0.45" stroke-linecap="butt" stroke-linejoin="round" stroke-miterlimit="10">
        <path stroke="#fff" d="M147.19,-57.354 L143.62,-57.354"/>
        <path stroke="#fff" stroke-width="0.3" stroke-linecap="round" stroke-linejoin="miter" stroke-miterlimit="1000" d="M147.12,-56.555 L151.12,-57.354 147.12,-58.153 Z"/>
        <path stroke="#009300" stroke-width="0.15" stroke-dasharray="0.9,0.3,0.15,0.3" d="M147.19,-57.354 L143.62,-57.354"/>
        <path fill="#009300" d="M147.12,-56.555 L151.12,-57.354 147.12,-58.153 Z"/>
      </g>
    </g>
    <g id="WRAP_011" vm2d:name="" vm2d:type="grnode">
      <g transform="matrix(3.78095,0,0,3.78095,0.119049,794)" stroke-width="0.45" stroke-linecap="butt" stroke-linejoin="round" stroke-miterlimit="10">
        <path stroke="#fff" d="M147.19,-102.35 L143.62,-102.35"/>
        <path stroke="#fff" stroke-width="0.3" stroke-linecap="round" stroke-linejoin="miter" stroke-miterlimit="1000" d="M147.12,-101.56 L151.12,-102.35 147.12,-103.15 Z"/>
        <path stroke="#009300" stroke-width="0.15" stroke-dasharray="0.9,0.3,0.15,0.3" d="M147.19,-102.35 L143.62,-102.35"/>
        <path fill="#009300" d="M147.12,-101.56 L151.12,-102.35 147.12,-103.15 Z"/>
      </g>
    </g>
    <g id="WRAP_012" vm2d:name="" vm2d:type="grnode">
      <g transform="matrix(3.78095,0,0,3.78095,0.119049,794)" stroke-width="0.45" stroke-linecap="butt" stroke-linejoin="round" stroke-miterlimit="10">
        <path stroke="#fff" d="M147.19,-147.35 L143.62,-147.35"/>
        <path stroke="#fff" stroke-width="0.3" stroke-linecap="round" stroke-linejoin="miter" stroke-miterlimit="1000" d="M147.12,-146.56 L151.12,-147.35 147.12,-148.15 Z"/>
        <path stroke="#009300" stroke-width="0.15" stroke-dasharray="0.9,0.3,0.15,0.3" d="M147.19,-147.35 L143.62,-147.35"/>
        <path fill="#009300" d="M147.12,-146.56 L151.12,-147.35 147.12,-148.15 Z"/>
      </g>
    </g>
    <g id="WRAP_013" vm2d:name="" vm2d:type="grnode">
      <g transform="matrix(3.78095,0,0,3.78095,0.119049,794)" stroke-width="0.45" stroke-linecap="butt" stroke-linejoin="round" stroke-miterlimit="10">
        <path stroke="#fff" d="M147.19,-189.86 L143.62,-189.86"/>
        <path stroke="#fff" stroke-width="0.3" stroke-linecap="round" stroke-linejoin="miter" stroke-miterlimit="1000" d="M147.12,-189.06 L151.12,-189.86 147.12,-190.66 Z"/>
        <path stroke="#009300" stroke-width="0.15" stroke-dasharray="0.9,0.3,0.15,0.3" d="M147.19,-189.86 L143.62,-189.86"/>
        <path fill="#009300" d="M147.12,-189.06 L151.12,-189.86 147.12,-190.66 Z"/>
      </g>
    </g>
    <g id="WRAP_014" vm2d:name="" vm2d:type="grnode">
      <g transform="matrix(3.78095,0,0,3.78095,0.119049,794)" stroke-width="0.6" stroke-linecap="butt" stroke-linejoin="round" stroke-miterlimit="10">
        <path stroke="#fff" d="M51.267,-102.36 L45.567,-102.36"/>
        <path stroke="#fff" stroke-width="0.3" stroke-linecap="round" stroke-linejoin="miter" stroke-miterlimit="1000" d="M51.117,-101.56 L55.117,-102.36 51.117,-103.16 Z"/>
        <path stroke="#000" stroke-width="0.3" d="M51.267,-102.36 L45.117,-102.36"/>
        <path fill="#000" d="M51.117,-101.56 L55.117,-102.36 51.117,-103.16 Z"/>
      </g>
    </g>
    <g id="WRAP_015" vm2d:name="" vm2d:type="grnode">
      <g transform="matrix(3.78095,0,0,3.78095,0.119049,794)" stroke-width="0.6" stroke-linecap="butt" stroke-linejoin="round" stroke-miterlimit="10">
        <path stroke="#fff" d="M51.267,-147.35 L45.567,-147.35"/>
        <path stroke="#fff" stroke-width="0.3" stroke-linecap="round" stroke-linejoin="miter" stroke-miterlimit="1000" d="M51.117,-146.55 L55.117,-147.35 51.117,-148.15 Z"/>
        <path stroke="#000" stroke-width="0.3" d="M51.267,-147.35 L45.117,-147.35"/>
        <path fill="#000" d="M51.117,-146.55 L55.117,-147.35 51.117,-148.15 Z"/>
      </g>
    </g>
    <g id="WRAP_016" vm2d:name="" vm2d:type="grnode">
      <g transform="matrix(3.78095,0,0,3.78095,0.119049,794)" stroke-width="0.6" stroke-linecap="butt" stroke-linejoin="round" stroke-miterlimit="10">
        <path stroke="#fff" d="M26.267,-57.354 L22.617,-57.354 22.617,-147.35 18.067,-147.35"/>
        <path stroke="#fff" stroke-width="0.3" stroke-linecap="round" stroke-linejoin="miter" stroke-miterlimit="1000" d="M26.117,-56.555 L30.117,-57.354 26.117,-58.153 Z"/>
        <path stroke="#000" stroke-width="0.3" d="M26.267,-57.354 L22.617,-57.354 22.617,-147.35 17.617,-147.35"/>
        <path fill="#000" d="M26.117,-56.555 L30.117,-57.354 26.117,-58.153 Z"/>
      </g>
    </g>
    <g id="WRAP_017" vm2d:name="" vm2d:type="grnode">
      <g transform="matrix(3.78095,0,0,3.78095,0.119049,794)" stroke-width="0.6" stroke-linecap="butt" stroke-linejoin="round" stroke-miterlimit="10">
        <path stroke="#fff" d="M26.267,-189.82 L22.616,-189.78 22.618,-147.8"/>
        <path stroke="#fff" stroke-width="0.3" stroke-linecap="round" stroke-linejoin="miter" stroke-miterlimit="1000" d="M26.126,-189.02 L30.117,-189.86 26.108,-190.62 Z"/>
        <path stroke="#000" stroke-width="0.3" d="M26.267,-189.82 L22.616,-189.78 22.618,-147.35"/>
        <path fill="#000" d="M26.126,-189.02 L30.117,-189.86 26.108,-190.62 Z"/>
      </g>
    </g>
    <g id="WRAP_018" vm2d:name="" vm2d:type="grnode">
      <g transform="matrix(3.78095,0,0,3.78095,0.119049,794)" stroke-width="0.6" stroke-linecap="butt" stroke-linejoin="round" stroke-miterlimit="10">
        <path stroke="#fff" d="M26.267,-147.35 L23.067,-147.35"/>
        <path stroke="#fff" stroke-width="0.3" stroke-linecap="round" stroke-linejoin="miter" stroke-miterlimit="1000" d="M26.117,-146.55 L30.117,-147.35 26.117,-148.15 Z"/>
        <path stroke="#000" stroke-width="0.3" d="M26.267,-147.35 L22.617,-147.35"/>
        <path fill="#000" d="M26.117,-146.55 L30.117,-147.35 26.117,-148.15 Z"/>
      </g>
    </g>
    <g id="WRAP_019" vm2d:name="" vm2d:type="grnode">
      <g transform="matrix(3.78095,0,0,3.78095,0.119049,794)" stroke-width="0.6" stroke-linecap="butt" stroke-linejoin="round" stroke-miterlimit="10">
        <path stroke="#fff" d="M26.267,-102.36 L23.067,-102.36"/>
        <path stroke="#fff" stroke-width="0.3" stroke-linecap="round" stroke-linejoin="miter" stroke-miterlimit="1000" d="M26.117,-101.56 L30.117,-102.36 26.117,-103.16 Z"/>
        <path stroke="#000" stroke-width="0.3" d="M26.267,-102.36 L22.617,-102.36"/>
        <path fill="#000" d="M26.117,-101.56 L30.117,-102.36 26.117,-103.16 Z"/>
      </g>
    </g>
    <g transform="matrix(3.78095,0,0,3.78095,0.119049,794)" stroke-width="0.18" stroke-linecap="round" stroke-linejoin="round" stroke-miterlimit="10">
      <path fill="#fff" stroke="#000" d="M133.34,-14.088 L135.84,-11.407 138.34,-14.088 137.09,-14.088 137.09,-25.724 138.34,-25.724 135.84,-28.404 133.34,-25.724 134.59,-25.724 134.59,-14.088 Z"/>
    </g>
    <g transform="matrix(-0,-3.78095,3.78095,0,542.577,758.989)">
      <text font-family="Arial" font-size="2.86" x="0" y="0" fill="#000">РАДИОСИГНАЛ</text>
    </g>
    <g transform="matrix(-0,-3.78095,3.78095,0,492.514,755.793)">
      <text font-family="Arial" font-size="2.86" x="0" y="0" fill="#000">ETHERNET/ IP</text>
    </g>
    <g transform="matrix(-0,-3.78095,3.78095,0,442.455,761.983)">
      <text font-family="Arial" font-size="2.86" x="0" y="0" fill="#000">ETHERNET/ POE</text>
    </g>
    <g transform="matrix(-0,-3.78095,3.78095,0,238.602,787.812)">
      <text font-family="Arial" font-size="2.86" x="0" y="0" fill="#000">СИЛОВОЕ ПИТАНИЕ 380 В</text>
    </g>
    <g transform="matrix(-0,-3.78095,3.78095,0,272.49,787.812)">
      <text font-family="Arial" font-size="2.86" x="0" y="0" fill="#000">СИЛОВОЕ ПИТАНИЕ 220 В</text>
    </g>
    <g transform="matrix(-0,-3.78095,3.78095,0,305.217,779.166)">
      <text font-family="Arial" font-size="2.85" x="0" y="0" fill="#000">ЦИФРОВАЯ ШИНА 24 В</text>
    </g>
    <g transform="matrix(-0,-3.78095,3.78095,0,339.366,774.927)">
      <text font-family="Arial" font-size="2.85" x="0" y="0" fill="#000">СИЛОВАЯ ШИНА 24 В</text>
    </g>
    <g id="WRAP_020" vm2d:name="" vm2d:type="grnode">
      <g transform="matrix(3.78095,0,0,3.78095,0.119049,794)" stroke-width="0.9" stroke-linecap="butt" stroke-linejoin="round" stroke-miterlimit="10">
        <path stroke="#fff" d="M66.543,-26.206 L66.543,-10.356"/>
        <path stroke="#fff" stroke-width="0.3" stroke-linecap="round" stroke-linejoin="miter" stroke-miterlimit="1000" d="M67.343,-25.906 L66.543,-29.906 65.744,-25.906 Z"/>
        <path stroke="#000" stroke-width="0.6" d="M66.543,-26.206 L66.543,-9.9057"/>
        <path fill="#000" d="M67.343,-25.906 L66.543,-29.906 65.744,-25.906 Z"/>
      </g>
    </g>
    <g id="WRAP_021" vm2d:name="" vm2d:type="grnode">
      <g transform="matrix(3.78095,0,0,3.78095,0.119049,794)" stroke-width="0.6" stroke-linecap="butt" stroke-linejoin="round" stroke-miterlimit="10">
        <path stroke="#fff" d="M75.355,-26.056 L75.355,-10.356"/>
        <path stroke="#fff" stroke-width="0.3" stroke-linecap="round" stroke-linejoin="miter" stroke-miterlimit="1000" d="M76.154,-25.906 L75.355,-29.906 74.556,-25.906 Z"/>
        <path stroke="#000" stroke-width="0.3" d="M75.355,-26.056 L75.355,-9.9057"/>
        <path fill="#000" d="M76.154,-25.906 L75.355,-29.906 74.556,-25.906 Z"/>
      </g>
    </g>
    <g id="WRAP_022" vm2d:name="" vm2d:type="grnode">
      <g transform="matrix(3.78095,0,0,3.78095,0.119049,794)" stroke-width="0.45" stroke-linecap="butt" stroke-linejoin="round" stroke-miterlimit="10">
        <path stroke="#fff" d="M84.462,-25.981 L84.462,-9.9057"/>
        <path stroke="#fff" stroke-width="0.3" stroke-linecap="round" stroke-linejoin="miter" stroke-miterlimit="1000" d="M85.261,-25.906 L84.462,-29.906 83.662,-25.906 Z"/>
        <path stroke="#009300" stroke-width="0.15" stroke-dasharray="0.9,0.3,0.15,0.3" d="M84.462,-25.981 L84.462,-9.9057"/>
        <path fill="#009300" d="M85.261,-25.906 L84.462,-29.906 83.662,-25.906 Z"/>
      </g>
    </g>
    <g id="WRAP_023" vm2d:name="" vm2d:type="grnode">
      <g transform="matrix(3.78095,0,0,3.78095,0.119049,794)" stroke-width="0.45" stroke-linecap="butt" stroke-linejoin="round" stroke-miterlimit="10">
        <path stroke="#fff" d="M92.967,-25.981 L92.967,-9.9057"/>
        <path stroke="#fff" stroke-width="0.3" stroke-linecap="round" stroke-linejoin="miter" stroke-miterlimit="1000" d="M93.766,-25.906 L92.967,-29.906 92.168,-25.906 Z"/>
        <path stroke="#00f" stroke-width="0.15" d="M92.967,-25.981 L92.967,-9.9057"/>
        <path fill="#00f" d="M93.766,-25.906 L92.967,-29.906 92.168,-25.906 Z"/>
      </g>
    </g>
    <g id="WRAP_024" vm2d:name="" vm2d:type="grnode">
      <g transform="matrix(3.78095,0,0,3.78095,0.119049,794)" stroke-width="0.65" stroke-linecap="butt" stroke-linejoin="round" stroke-miterlimit="10">
        <path stroke="#fff" d="M147.25,-10.356 L147.25,-26.081"/>
        <path stroke="#fff" stroke-width="0.3" stroke-linecap="round" stroke-linejoin="miter" stroke-miterlimit="1000" d="M148.05,-25.906 L147.25,-29.906 146.45,-25.906 Z"/>
        <path stroke="#000" stroke-width="0.35" stroke-dasharray="0.35,0.7" d="M147.25,-9.9058 L147.25,-26.081"/>
        <path fill="#000" d="M148.05,-25.906 L147.25,-29.906 146.45,-25.906 Z"/>
      </g>
    </g>
    <g id="AUTOID_028" vm2d:name="" vm2d:type="grnode">
      <g transform="matrix(3.78095,0,0,3.78095,0.119049,794)" stroke-width="0.18" stroke-linecap="round" stroke-linejoin="round" stroke-miterlimit="10">
        <path fill="#fff" stroke="#000" d="M120.1,-17.548 L122.6,-14.868 125.1,-17.548 123.85,-17.548 123.85,-22.263 125.1,-22.263 122.6,-24.944 120.1,-22.263 121.35,-22.263 121.35,-17.548 Z"/>
        <path fill="#000" stroke="#000" stroke-width="0.15" d="M121.33,-19.368 L123.83,-19.368 123.83,-18.368 121.33,-18.368 Z"/>
        <path fill="#000" stroke="#000" stroke-width="0.15" d="M121.33,-21.368 L123.83,-21.368 123.83,-20.368 121.33,-20.368 Z"/>
      </g>
    </g>
    <g transform="matrix(-0,-3.78095,3.78095,0,373.235,791.407)">
      <text font-family="Arial" font-size="2.86" x="0" y="0" fill="#000" xml:space="preserve">ДИСКРЕТНЫЙ СИГНАЛ 24 В </text>
    </g>
    <g transform="matrix(-0,-3.78095,3.78095,0,409.517,791.799)">
      <text font-family="Arial" font-size="2.86" x="0" y="0" fill="#000" xml:space="preserve">АНАЛОГОВЫЙ СИГНАЛ 24 В </text>
    </g>
    <g id="WRAP_025" vm2d:name="" vm2d:type="grnode">
      <g transform="matrix(3.78095,0,0,3.78095,0.119049,794)" stroke-width="0.9" stroke-linecap="butt" stroke-linejoin="round" stroke-miterlimit="10">
        <path stroke="#fff" d="M102.46,-10.356 L102.46,-26.206"/>
        <path stroke="#fff" stroke-width="0.3" stroke-linecap="round" stroke-linejoin="miter" stroke-miterlimit="1000" d="M103.26,-25.906 L102.46,-29.906 101.66,-25.906 Z"/>
        <path stroke="#000" stroke-width="0.6" stroke-dasharray="3,1" d="M102.46,-9.9057 L102.46,-26.206"/>
        <path fill="#000" d="M103.26,-25.906 L102.46,-29.906 101.66,-25.906 Z"/>
      </g>
    </g>
    <g id="WRAP_026" vm2d:name="" vm2d:type="grnode">
      <g transform="matrix(3.78095,0,0,3.78095,0.119049,794)" stroke-width="0.6" stroke-linecap="butt" stroke-linejoin="round" stroke-miterlimit="10">
        <path stroke="#fff" d="M111.62,-10.356 L111.62,-26.056"/>
        <path stroke="#fff" stroke-width="0.3" stroke-linecap="round" stroke-linejoin="miter" stroke-miterlimit="1000" d="M112.42,-25.906 L111.62,-29.906 110.82,-25.906 Z"/>
        <path stroke="#000" stroke-width="0.3" stroke-dasharray="3,1" d="M111.62,-9.9057 L111.62,-26.056"/>
        <path fill="#000" d="M112.42,-25.906 L111.62,-29.906 110.82,-25.906 Z"/>
      </g>
    </g>
    <g id="WRAP_027" vm2d:name="" vm2d:type="grnode">
      <g transform="matrix(3.78095,0,0,3.78095,0.119049,794)" stroke-width="0.45" stroke-linecap="butt" stroke-linejoin="round" stroke-miterlimit="10">
        <path stroke="#fff" d="M124.69,-189.93 L121.12,-189.93 121.14,-125.01"/>
        <path stroke="#fff" stroke-width="0.3" stroke-linecap="round" stroke-linejoin="miter" stroke-miterlimit="1000" d="M124.62,-189.14 L128.62,-189.93 124.62,-190.73 Z"/>
        <path stroke="#009300" stroke-width="0.15" stroke-dasharray="0.9,0.3,0.15,0.3" d="M124.69,-189.93 L121.12,-189.93 121.14,-125.01"/>
        <path fill="#009300" d="M124.62,-189.14 L128.62,-189.93 124.62,-190.73 Z"/>
      </g>
    </g>
    <g id="AUTOID_190" vm2d:name="" vm2d:type="grnode">
      <g transform="matrix(3.78095,0,0,3.78095,0.119049,794)" stroke-width="0.18" stroke-linecap="round" stroke-linejoin="round" stroke-miterlimit="10">
        <path stroke="#000" d="M101.12,-142.49 L116.12,-142.49 116.12,-107.49 101.12,-107.49 Z"/>
      </g>
      <g id="AUTOID_191" vm2d:name="" vm2d:type="grnode">
        <g transform="matrix(-0,-3.78095,3.78095,0,401.336,354.477)">
          <text font-family="Arial" font-size="3.21" x="0" y="0" fill="#000">ИСТОЧНИК</text>
        </g>
        <g transform="matrix(-0,-3.78095,3.78095,0,415.181,379.831)">
          <text font-family="Arial" font-size="3.21" x="0" y="0" fill="#000">БЕСПЕРЕБОЙНОГО</text>
        </g>
        <g transform="matrix(-0,-3.78095,3.78095,0,429.025,350.564)">
          <text font-family="Arial" font-size="3.21" x="0" y="0" fill="#000">ПИТАНИЯ</text>
        </g>
      </g>
    </g>
    <g id="WRAP_028" vm2d:name="" vm2d:type="grnode">
      <g transform="matrix(3.78095,0,0,3.78095,0.119049,794)" stroke-width="0.45" stroke-linecap="butt" stroke-linejoin="round" stroke-miterlimit="10">
        <path stroke="#fff" d="M124.69,-57.434 L121.12,-57.434 121.14,-125.01 116.12,-124.99"/>
        <path stroke="#fff" stroke-width="0.3" stroke-linecap="round" stroke-linejoin="miter" stroke-miterlimit="1000" d="M124.62,-56.635 L128.62,-57.434 124.62,-58.233 Z"/>
        <path stroke="#009300" stroke-width="0.15" stroke-dasharray="0.9,0.3,0.15,0.3" d="M124.69,-57.434 L121.12,-57.434 121.14,-125.01 116.12,-124.99"/>
        <path fill="#009300" d="M124.62,-56.635 L128.62,-57.434 124.62,-58.233 Z"/>
      </g>
    </g>
    <g id="WRAP_029" vm2d:name="" vm2d:type="grnode">
      <g transform="matrix(3.78095,0,0,3.78095,0.119049,794)" stroke-width="0.45" stroke-linecap="butt" stroke-linejoin="round" stroke-miterlimit="10">
        <path stroke="#fff" d="M124.69,-147.35 L121.12,-147.35"/>
        <path stroke="#fff" stroke-width="0.3" stroke-linecap="round" stroke-linejoin="miter" stroke-miterlimit="1000" d="M124.62,-146.56 L128.62,-147.35 124.62,-148.15 Z"/>
        <path stroke="#009300" stroke-width="0.15" stroke-dasharray="0.9,0.3,0.15,0.3" d="M124.69,-147.35 L121.12,-147.35"/>
        <path fill="#009300" d="M124.62,-146.56 L128.62,-147.35 124.62,-148.15 Z"/>
      </g>
    </g>
    <g id="WRAP_030" vm2d:name="" vm2d:type="grnode">
      <g transform="matrix(3.78095,0,0,3.78095,0.119049,794)" stroke-width="0.45" stroke-linecap="butt" stroke-linejoin="round" stroke-miterlimit="10">
        <path stroke="#fff" d="M124.69,-102.35 L121.12,-102.35"/>
        <path stroke="#fff" stroke-width="0.3" stroke-linecap="round" stroke-linejoin="miter" stroke-miterlimit="1000" d="M124.62,-101.56 L128.62,-102.35 124.62,-103.15 Z"/>
        <path stroke="#009300" stroke-width="0.15" stroke-dasharray="0.9,0.3,0.15,0.3" d="M124.69,-102.35 L121.12,-102.35"/>
        <path fill="#009300" d="M124.62,-101.56 L128.62,-102.35 124.62,-103.15 Z"/>
      </g>
    </g>
    <g transform="matrix(-0,-3.78095,3.78095,0,587.077,775.702)">
      <text font-family="Arial" font-size="2.86" x="0" y="0" fill="#000">АВАРИЙНЫЙ СИГНАЛ</text>
    </g>
    <g id="WRAP_031" vm2d:name="" vm2d:type="grnode">
      <g transform="matrix(3.78095,0,0,3.78095,0.119049,794)" stroke-width="0.6" stroke-linecap="butt" stroke-linejoin="round" stroke-miterlimit="10">
        <path stroke="#fff" d="M158.62,-26.056 L158.62,-10.356"/>
        <path stroke="#fff" stroke-width="0.3" stroke-linecap="round" stroke-linejoin="miter" stroke-miterlimit="1000" d="M159.42,-25.906 L158.62,-29.906 157.82,-25.906 Z"/>
        <path stroke="#f00" stroke-width="0.3" d="M158.62,-26.056 L158.62,-9.9057"/>
        <path fill="#f00" d="M159.42,-25.906 L158.62,-29.906 157.82,-25.906 Z"/>
      </g>
    </g>
    <g transform="matrix(3.78095,0,0,3.78095,0.119049,794)" stroke-width="0.4" stroke-linecap="round" stroke-linejoin="round" stroke-miterlimit="10">
      <path fill="#000" stroke="#000" d="M23.117,-102.36 C23.117,-102.09 22.893,-101.86 22.617,-101.86 22.341,-101.86 22.117,-102.09 22.117,-102.36 22.117,-102.64 22.341,-102.86 22.617,-102.86 22.893,-102.86 23.117,-102.64 23.117,-102.36 Z"/>
      <path fill="#000" stroke="#000" d="M23.116,-147.35 C23.116,-147.08 22.893,-146.85 22.616,-146.85 22.34,-146.85 22.116,-147.08 22.116,-147.35 22.116,-147.63 22.34,-147.85 22.616,-147.85 22.893,-147.85 23.116,-147.63 23.116,-147.35 Z"/>
      <path fill="#000" stroke="#000" d="M121.62,-102.35 C121.62,-102.08 121.39,-101.85 121.12,-101.85 120.84,-101.85 120.62,-102.08 120.62,-102.35 120.62,-102.63 120.84,-102.85 121.12,-102.85 121.39,-102.85 121.62,-102.63 121.62,-102.35 Z"/>
      <path fill="#000" stroke="#000" d="M121.64,-125.01 C121.64,-124.74 121.42,-124.51 121.14,-124.51 120.86,-124.51 120.64,-124.74 120.64,-125.01 120.64,-125.29 120.86,-125.51 121.14,-125.51 121.42,-125.51 121.64,-125.29 121.64,-125.01 Z"/>
      <path fill="#000" stroke="#000" d="M121.62,-147.35 C121.62,-147.08 121.39,-146.85 121.12,-146.85 120.84,-146.85 120.62,-147.08 120.62,-147.35 120.62,-147.63 120.84,-147.85 121.12,-147.85 121.39,-147.85 121.62,-147.63 121.62,-147.35 Z"/>
    </g>
  </g>
  <g id="C3DG0001" vm2d:name="Drawing" vm2d:type="layer"/>
  <g id="C3DA0001" vm2d:name="Axials" vm2d:type="layer"/>
  <g id="C3DC0001" vm2d:name="Callouts" vm2d:type="layer"/>
  <g id="C3DP0001" vm2d:name="Panels" vm2d:type="layer"/>
</svg>
