<?xml version="1.0" encoding="UTF-8" standalone="no"?>
<!DOCTYPE svg SYSTEM "http://www.w3.org/Graphics/SVG/1.1/DTD/svg11.dtd" [
<!ENTITY % SVG.External.attrib
"xmlns:vm2d CDATA #FIXED 'http://www.cortona3d.com/vm2d'
vm2d:name CDATA #IMPLIED
vm2d:type CDATA #IMPLIED">
]>
<svg xmlns="http://www.w3.org/2000/svg" xmlns:vm2d="http://www.cortona3d.com/vm2d" xmlns:xlink="http://www.w3.org/1999/xlink" version="1.1" width="170mm" height="210mm" viewBox="0 0 643 794" fill="none" fill-rule="evenodd" stroke-miterlimit="5">
  <title>Untitled-0019</title>
  <desc>"Generator:ParallelGraphics Cortona2D","ProfileId:WebCGM""ProfileEd:2.1""ColourClass:colour""Source:Cortona2D Editor Pro 14.2.0.142""Date:20250311""Grid:isometric"</desc>
  <rect width="643" height="794" fill="#fff"/>
  <defs/>
  <g id="AUTOID_003" vm2d:name="" vm2d:type="layer">
    <g transform="matrix(3.78095,0,0,3.78095,0.119049,794)" stroke-width="0.5" stroke-linecap="round" stroke-linejoin="round" stroke-miterlimit="10">
      <path fill="#c0c0c0" stroke="#000" d="M161.57,-101.45 L162.89,-101.06 163.34,-101.17 163.52,-101.58 163.56,-101.76 163.56,-102.59 163.22,-103.02 162.9,-103.12 162.9,-103.57 162.31,-103.57 162.31,-103.3 161.9,-103.42 161.4,-103.26 161.16,-102.75 161.14,-102.69 161.14,-101.86 Z"/>
      <path fill="#c0c0c0" stroke="#000" d="M102.07,-135.94 L103.47,-135.94 103.9,-136.03 103.94,-136.11 103.94,-136.99 103.81,-137.33 103.69,-137.41 103.62,-137.44 103.08,-137.65 103.08,-138.05 102.93,-138.17 102.61,-138.17 102.47,-138.05 102.47,-137.65 101.92,-137.44 101.86,-137.41 101.6,-137.05 101.6,-136.11 101.64,-136.03 Z"/>
      <path fill="#c0c0c0" stroke="#000" d="M67.596,-45.932 L67.826,-45.982 68.066,-46.332 68.066,-47.491 68.016,-48.011 67.596,-48.251 67.207,-48.251 67.197,-48.281 67.067,-48.371 66.737,-48.371 66.597,-48.281 66.597,-48.251 66.197,-48.251 65.767,-47.971 65.727,-47.491 65.727,-46.332 66.197,-45.932 Z"/>
      <path fill="#c0c0c0" stroke="#000" d="M6.3291,-80.459 L6.779,-80.349 8.0985,-80.739 8.5283,-81.149 8.5283,-81.958 8.5183,-82.018 8.5183,-82.038 8.2784,-82.538 7.7786,-82.698 7.3623,-82.576 7.3588,-82.798 7.3588,-82.858 6.779,-82.858 6.7825,-82.406 6.4491,-82.308 6.1092,-81.859 6.1092,-81.029 6.1492,-80.859 Z"/>
      <path fill="#c0c0c0" stroke="#000" d="M86.299,-147.95 L87.919,-147.02 88.139,-147.09 88.199,-147.15 88.564,-147.41 88.791,-147.28 89.788,-148.78 89.748,-148.83 89.987,-149.19 87.919,-150.28 87.899,-150.28 87.739,-150.08 87.611,-149.91 87.469,-149.67 87.359,-149.44 87.447,-149.4 86.22,-148.52 86.16,-148.46 86.13,-148.42 86.11,-148.37 86.11,-148.3 86.14,-148.27 Z"/>
      <path fill="#c0c0c0" stroke="#000" d="M81.953,-143.87 L82.321,-143.66 82.471,-143.95 83.301,-144.33 83.361,-144.33 83.511,-144.84 83.54,-144.84 83.56,-144.85 83.54,-144.9 81.881,-145.84 81.711,-145.88 81.691,-145.88 81.631,-145.87 81.681,-145.85 81.339,-145.7 81.011,-145.89 80.941,-145.94 80.522,-146.01 79.814,-144.81 81.197,-144.02 Z"/>
    </g>
  </g>
  <g id="AUTOID_001" vm2d:name="" vm2d:type="layer">
    <g transform="matrix(3.78095,0,0,3.78095,0.119049,794)" stroke-width="0.18" stroke-linecap="round" stroke-linejoin="round" stroke-miterlimit="10">
      <path stroke="#000" d="M161.41,-102.75 L161.36,-102.74 161.32,-102.73 161.29,-102.71 161.27,-102.64 161.27,-101.82 161.58,-101.54 162.9,-101.15 163.21,-101.25 163.21,-102.06 163.21,-102.09 163.2,-102.12 163.17,-102.15 163.15,-102.18 162.89,-102.33 161.57,-102.72 161.45,-102.75 161.41,-102.75 M161.14,-102.69 L161.16,-102.75 161.4,-103.26 161.9,-103.42 163.22,-103.02 163.56,-102.59 163.56,-101.76 163.52,-101.58 163.34,-101.17 162.89,-101.06 161.57,-101.45 161.14,-101.86 161.14,-102.69 M103.05,-137.66 L103.62,-137.44 103.69,-137.41 103.75,-137.37 103.81,-137.33 103.94,-136.99 103.94,-136.49 103.94,-136.11 103.9,-136.03 103.47,-135.94 102.07,-135.94 101.64,-136.03 101.6,-136.11 101.6,-136.49 101.6,-136.99 101.6,-137.05 101.86,-137.41 101.92,-137.44 102.49,-137.66 M103.8,-136.47 L103.76,-136.49 103.47,-136.52 102.07,-136.52 101.78,-136.49 101.74,-136.47 M101.76,-136.48 L101.73,-136.46 101.73,-136.09 102.07,-136 103.47,-136 103.81,-136.09 103.81,-136.46 103.78,-136.48 M102.47,-137.65 L102.47,-138.05 102.61,-138.17 102.93,-138.17 103.08,-138.05 103.08,-137.65 102.66,-137.68 102.46,-137.65 M6.4591,-81.379 L6.4591,-81.349 6.4591,-80.539 6.769,-80.439 8.0885,-80.829 8.4084,-81.109 8.4084,-81.918 8.3484,-82.018 8.3084,-82.028 8.2684,-82.038 8.2184,-82.028 8.1085,-82.008 6.779,-81.619 6.5191,-81.469 6.4891,-81.429 6.4691,-81.399 6.4591,-81.369 M8.5183,-82.018 L8.5283,-81.958 8.5283,-81.149 8.0985,-80.739 6.779,-80.349 6.3291,-80.459 6.1492,-80.859 6.1092,-81.029 6.1092,-81.859 6.4491,-82.308 7.7786,-82.698 8.2784,-82.538 8.5183,-82.038 M65.867,-47.471 L65.977,-47.681 66.197,-47.741 67.596,-47.741 67.816,-47.681 67.936,-47.471 67.936,-46.322 67.816,-46.112 67.596,-46.042 66.197,-46.042 65.867,-46.322 65.867,-47.471 M66.197,-45.932 L65.727,-46.332 65.727,-47.491 65.767,-47.971 66.197,-48.251 67.596,-48.251 68.016,-48.011 68.066,-47.491 68.066,-46.332 67.826,-45.982 67.596,-45.932 66.197,-45.932 M81.171,-144.63 L81.091,-144.68 80.692,-144.84 80.522,-144.9 M81.231,-144.76 L81.141,-144.64 80.941,-144.73 M81.411,-145.29 L81.251,-144.64 M81.201,-144.62 L81.361,-145.24 M82.421,-143.92 L82.611,-144.84 82.161,-145.25 82.141,-145.26 M82.651,-144.82 L82.471,-143.94 M87.919,-150.28 L89.987,-149.19 89.748,-148.83 89.788,-148.78 88.791,-147.28 87.339,-148.12 87.299,-148.16 87.289,-148.2 87.289,-148.26 87.299,-148.31 87.329,-148.35 88.219,-149.7 M87.339,-148.74 L87.189,-148.52 87.169,-148.49 87.149,-148.43 87.086,-148.31 87.248,-148.18 87.298,-148.16 M88.819,-147.46 L89.718,-148.83 M7.3588,-82.588 L7.3588,-82.798 7.3588,-82.858 6.779,-82.858 6.779,-82.818 6.779,-82.418 M162.9,-103.13 L162.9,-103.51 162.9,-103.57 162.31,-103.57 162.31,-103.54 162.31,-103.51 162.31,-103.3 M67.207,-48.251 L67.197,-48.281 67.067,-48.371 66.737,-48.371 66.597,-48.281 66.597,-48.251 M82.591,-144.73 L82.361,-144.13 82.321,-144.04 M82.191,-144.11 L82.221,-144.16 82.471,-144.85 M87.429,-149.4 L87.359,-149.44 87.469,-149.67 87.611,-149.91 87.739,-150.08 87.899,-150.28 M81.201,-145.66 L80.941,-145.94 80.522,-146.01 79.814,-144.81 81.197,-144.02 81.953,-143.87 M80.302,-144.92 L80.262,-144.93 80.232,-144.95 80.202,-144.99 80.192,-145.02 80.192,-145.06 80.202,-145.09 80.212,-145.13 80.242,-145.16 80.272,-145.2 80.312,-145.23 80.362,-145.25 81.681,-145.85 81.521,-145.35 80.592,-144.93 80.352,-144.92 M87.749,-149.33 L87.719,-149.27 87.359,-148.83 86.419,-148.17 86.269,-148.49 86.22,-148.52 M81.001,-145.12 L81.291,-145.02 M81.581,-145.38 L81.511,-144.91 M83.441,-144.91 L81.861,-145.81 81.721,-145.84 M81.711,-145.88 L81.881,-145.84 83.54,-144.9 M81.721,-144.69 L81.371,-144.81 81.341,-144.82 81.311,-144.82 M87.809,-147.42 L87.859,-147.42 87.899,-147.43 87.949,-147.46 87.989,-147.5 88.039,-147.47 M81.921,-144.67 L81.991,-145.15 81.891,-145.21 81.841,-145.24 M81.581,-145.32 L81.781,-145.28 81.811,-145.26 M80.901,-145.05 L80.931,-145.05 80.961,-145.05 81.281,-144.94 81.231,-144.88 81.141,-144.72 81.111,-144.67 M81.331,-144.92 L81.741,-144.77 M88.139,-147.09 L87.919,-147.02 86.299,-147.95 86.14,-148.27 86.319,-148.17 M86.449,-148.19 L87.769,-147.43 87.929,-147.11 86.409,-147.99 86.249,-148.31 M88.839,-147.49 L87.429,-148.3 88.309,-149.63 89.718,-148.82 M81.261,-144.65 L81.621,-144.45 81.511,-144.23 81.541,-144.21 81.641,-144.44 81.821,-145.31 81.851,-145.29 81.671,-144.42 M81.651,-144.43 L82.021,-144.21 81.911,-143.99 81.941,-143.98 82.051,-144.19 82.431,-143.98 82.321,-143.76 82.351,-143.74 M82.601,-144.44 L83.451,-144.83 83.511,-144.84 83.361,-144.33 83.301,-144.33 82.471,-143.95 82.321,-143.66 81.061,-144.4 80.782,-144.58 79.882,-144.9 M81.061,-144.4 L81.201,-144.69 M87.829,-147.32 L87.869,-147.33 87.919,-147.35 87.959,-147.38 87.979,-147.41 88.039,-147.47 88.219,-147.59 M87.399,-148.88 L87.419,-148.84 87.529,-148.76 87.929,-149.36 87.819,-149.45 87.739,-149.45 M87.839,-149.43 L87.939,-149.57 88.059,-149.75 88.109,-149.83 88.139,-149.89 88.179,-149.92 88.209,-149.94 M82.641,-144.84 L82.191,-145.24 M81.901,-145.2 L81.951,-145.29 82.171,-145.07 82.221,-145.03 M81.591,-145.54 L82.151,-145.23 82.101,-145.14 M86.11,-148.3 L86.11,-148.33 86.11,-148.37 86.13,-148.42 86.16,-148.46 86.22,-148.52 87.529,-149.45 87.589,-149.42 86.269,-148.49 M80.592,-144.93 L80.542,-144.96 81.471,-145.37 81.521,-145.35 M83.451,-144.83 L83.401,-144.86 82.611,-144.5 M88.499,-147.43 L88.429,-147.38 88.149,-147.18 88.199,-147.15 M87.979,-147.41 L88.139,-147.09 88.199,-147.15 88.559,-147.4 M81.341,-145.69 L81.011,-145.89"/>
    </g>
  </g>
  <g id="AUTOID_002" vm2d:name="" vm2d:type="layer">
    <g transform="matrix(3.78095,0,0,3.78095,0.119049,794)" stroke-width="0.14994" stroke-linecap="round" stroke-linejoin="round" stroke-miterlimit="10">
      <path stroke="#000" d="M1.7308,-80.899 L1.7308,-81.609 1.7308,-82.318 1.7608,-82.618 M1.7608,-82.648 L1.7808,-82.678 1.8108,-82.708 1.8508,-82.728 1.8908,-82.748 1.9708,-82.758 4.4298,-82.758 4.5098,-82.748 4.5498,-82.728 4.5898,-82.708 4.6198,-82.678 4.6298,-82.648 M4.6398,-82.618 L4.6598,-82.318 4.6598,-81.609 4.6598,-80.899 M65.467,-45.872 L65.477,-45.902 65.507,-45.932 65.547,-45.952 65.587,-45.972 65.667,-45.982 67.806,-45.982 68.126,-45.982 68.206,-45.972 68.336,-45.842 68.366,-45.542 68.366,-44.832 68.366,-44.113 68.256,-43.673 68.256,-43.603 68.236,-43.523 68.026,-43.443 67.886,-43.463 67.796,-43.463 M101.38,-140.2 L101.42,-140.22 101.46,-140.24 101.54,-140.25 104,-140.25 104.08,-140.24 104.12,-140.22 104.16,-140.2 104.19,-140.18 M104.19,-140.17 L104.21,-140.14 104.21,-140.11 104.24,-139.82 104.24,-139.1 104.24,-138.39 M165.01,-101.61 L165.01,-102.32 165.01,-103.04 165.03,-103.33 M165.06,-103.4 L165.08,-103.42 165.12,-103.44 165.16,-103.46 165.24,-103.47 167.7,-103.47 167.78,-103.46 167.82,-103.44 167.86,-103.42 167.89,-103.4 M167.91,-103.33 L167.94,-103.04 167.94,-102.32 167.94,-101.6 167.83,-101.16 M1.8008,-82.418 L1.9708,-82.458 3.2003,-82.458 4.4298,-82.458 4.5998,-82.418 4.6598,-82.308 4.6498,-82.358 M1.7308,-82.228 L1.7308,-80.969 1.7408,-80.869 1.7608,-80.759 1.7908,-80.629 1.8408,-80.399 M4.6598,-82.228 L4.6598,-80.969 M4.6098,-80.629 L4.5598,-80.399 M4.5598,-81.779 L4.5898,-81.918 4.6098,-82.038 M165.01,-102.95 L165.01,-101.68 165.01,-101.58 165.04,-101.47 165.06,-101.34 165.11,-101.11 M167.94,-102.95 L167.94,-101.68 M101.31,-140.15 L101.31,-138.46 101.31,-138.36 101.33,-138.25 101.36,-138.12 101.41,-137.9 M101.31,-139.79 L101.32,-139.85 101.43,-139.92 101.68,-139.94 102.77,-139.94 104,-139.95 104.18,-139.89 104.24,-139.82 104.17,-139.91 M65.457,-45.842 L65.427,-45.542 65.497,-45.642 65.667,-45.682 66.897,-45.682 68.126,-45.682 68.316,-45.622 68.366,-45.542 M65.427,-45.462 L65.427,-44.192 65.437,-44.093 65.457,-43.983 65.487,-43.853 65.537,-43.623 M101.87,-137.73 L101.78,-137.73 101.64,-137.71 101.53,-137.71 101.43,-137.8 101.41,-137.87 M101.49,-139.34 L101.77,-139.34 103.77,-139.34 104.05,-139.34 M67.986,-44.252 L67.976,-44.302 67.956,-44.352 67.926,-44.402 67.706,-44.622 67.376,-44.762 66.977,-44.822 66.547,-44.792 66.157,-44.662 65.897,-44.452 65.867,-44.402 65.837,-44.362 65.817,-44.302 M65.997,-43.463 L65.907,-43.463 65.767,-43.443 65.657,-43.443 65.557,-43.533 65.537,-43.603 M65.617,-45.072 L65.897,-45.072 67.896,-45.072 68.366,-45.072 M167.55,-101.8 L167.53,-101.85 167.51,-101.89 167.29,-102.11 166.95,-102.25 166.55,-102.32 166.12,-102.28 165.73,-102.15 165.47,-101.94 165.44,-101.89 M167.83,-101.12 L167.83,-101.09 167.82,-101.01 167.71,-100.93 167.6,-100.93 167.46,-100.95 167.37,-100.95 M165.57,-100.95 L165.49,-100.95 165.34,-100.93 165.23,-100.93 165.13,-101.02 165.11,-101.09 M165.11,-102.47 L165.12,-102.5 165.22,-102.57 165.47,-102.56 167.47,-102.56 167.7,-102.57 167.82,-102.51 M4.2899,-81.029 L4.2599,-81.129 4.2299,-81.179 4.1999,-81.229 3.95,-81.429 3.6002,-81.559 3.1803,-81.609 2.7605,-81.549 2.4306,-81.419 2.2007,-81.229 2.1607,-81.179 2.1407,-81.129 2.1207,-81.079 2.1207,-80.999 2.1307,-80.739 2.1707,-80.519 2.2507,-80.329 2.3606,-80.149 2.5006,-79.999 2.6605,-79.879 2.8504,-79.799 3.0604,-79.749 3.2703,-79.739 3.6501,-79.839 3.95,-80.059 4.1699,-80.359 4.2599,-80.739 4.2799,-80.999 4.2699,-81.079 M4.5598,-80.409 L4.5598,-80.379 4.5398,-80.299 4.4398,-80.219 4.3299,-80.219 4.1899,-80.239 4.1,-80.239 M2.3006,-80.239 L2.2107,-80.239 2.0707,-80.219 1.9608,-80.219 1.8508,-80.309 1.8408,-80.379 M80.742,-90.745 L80.772,-90.875 81.201,-91.585 M104.38,-107.62 L104.38,-107.36 104.34,-107.31 104.21,-107.23 104.21,-107.04 106.85,-105.52 107.2,-105.31 M107.29,-105.36 L106.73,-105.68 106.3,-105.93 105.55,-106.39 105.41,-106.55 105.3,-106.74 105.23,-106.94 105.2,-107.13 M83.79,-120.32 L83.79,-119.24 83.76,-119.19 83.62,-119.11 83.62,-118.92 84.67,-118.32 85.2,-118.02 85.46,-117.87 M85.91,-121.96 L85.53,-121.74 85.53,-121.59 85.5,-121.53 83.91,-120.61 M84.04,-120.69 L83.87,-120.79 83.79,-120.74 83.62,-120.45 83.62,-120.26 83.79,-120.16 M57.68,-96.793 L57.77,-96.743 63.568,-100.09 63.568,-100.28 63.438,-100.36 63.408,-100.41 63.408,-101.45 M56.73,-96.633 L56.98,-96.493 57.12,-96.493 57.27,-96.553 57.87,-96.893 58.3,-97.143 59.459,-97.813 59.889,-98.062 61.049,-98.732 61.479,-98.982 62.078,-99.322 62.228,-99.442 62.368,-99.602 62.518,-99.892 62.578,-100.18 62.578,-100.57 62.608,-100.62 62.658,-100.61 63.568,-100.09 M77.473,-108.22 L77.563,-108.17 83.361,-111.52 83.361,-111.71 83.231,-111.79 83.191,-111.84 83.191,-112.92 M83.081,-113.21 L81.491,-114.13 81.451,-114.19 81.451,-114.34 81.071,-114.56 M83.191,-112.76 L83.361,-112.86 83.361,-113.05 83.191,-113.34 83.111,-113.39 82.951,-113.29 M76.513,-108.06 L76.773,-107.92 76.913,-107.92 77.063,-107.98 77.663,-108.32 78.093,-108.57 79.252,-109.24 81.871,-110.75 82.021,-110.87 82.161,-111.03 82.311,-111.32 82.361,-111.61 82.361,-112 82.401,-112.06 82.451,-112.05 83.361,-111.52 M165.39,-101.76 L165.62,-100.87 165.79,-100.7 166,-100.57 166.23,-100.48 166.47,-100.45 166.72,-100.48 166.95,-100.57 167.16,-100.7 167.32,-100.87 167.55,-101.76 M101.74,-138.03 L101.82,-137.82 101.93,-137.64 102.07,-137.49 102.24,-137.37 102.43,-137.28 102.63,-137.23 102.85,-137.23 103.21,-137.34 103.52,-137.56 103.73,-137.87 103.84,-138.25 103.85,-138.52 103.83,-138.62 103.8,-138.67 103.77,-138.72 103.52,-138.92 103.17,-139.05 102.76,-139.1 102.33,-139.04 102,-138.91 101.77,-138.72 101.74,-138.67 101.71,-138.62 101.7,-138.58 101.68,-138.52 101.71,-138.25 101.74,-138.03 M65.827,-44.312 L65.817,-44.252 66.027,-43.413 66.177,-43.243 66.357,-43.113 66.567,-43.013 66.797,-42.973 67.017,-42.973 67.227,-43.013 67.416,-43.103 67.586,-43.223 67.736,-43.373 67.846,-43.553 67.926,-43.763 67.966,-43.983 67.976,-44.252 M13.177,-89.006 L13.167,-88.916 13.247,-88.716 13.277,-88.666 M13.177,-89.036 L13.087,-89.236 13.017,-89.436 12.957,-89.636 12.917,-89.746 13.027,-89.926 13.217,-90.025 13.626,-90.195 13.816,-90.235 13.906,-90.185 13.956,-90.095 14.066,-89.906 14.166,-89.716 14.266,-89.516 14.296,-89.506 14.356,-89.446 14.426,-89.316 14.436,-89.266 M100.24,-138.87 L100.19,-138.95 100.17,-138.99 100.11,-139.12 100.12,-139.19 100.12,-139.25 100.04,-139.44 99.974,-139.64 99.904,-139.85 99.874,-139.95 99.904,-140.06 100.01,-140.15 100.21,-140.26 100.69,-140.44 M14.186,-80.489 L14.406,-80.369 14.506,-80.329 14.726,-80.169 14.946,-80.059 15.196,-79.979 15.786,-79.909 16.405,-79.969 16.985,-80.149 17.265,-80.309 17.475,-80.479 17.555,-80.579 M17.045,-80.899 L16.545,-80.609 16.485,-80.549 16.465,-80.459 16.465,-79.979 M101.26,-130.61 L101.46,-130.53 101.68,-130.37 101.89,-130.26 102.15,-130.18 102.73,-130.11 103.35,-130.17 103.94,-130.36 104.22,-130.51 104.43,-130.68 104.5,-130.78 M101.35,-130.57 L101.13,-130.7 M103.99,-131.1 L103.5,-130.81 103.44,-130.75 103.41,-130.67 103.41,-130.19 M149.02,-100.6 L149.06,-100.57 149.32,-100.41 M70.575,-53.529 L70.025,-54.299 69.156,-54.929 67.516,-55.788 67.436,-55.838 67.317,-55.858 67.317,-53.449 67.436,-53.449 68.496,-52.829 69.556,-52.22 69.956,-51.95 70.265,-51.65 70.495,-51.33 70.625,-50.98 70.655,-50.77 70.665,-53.079 70.645,-53.309 70.575,-53.529 M62.358,-50.21 L62.098,-50.36 62.068,-50.4 M103.18,-135.28 L103.14,-135.24 103.07,-135.22 102.89,-135.23 102.61,-135.23 102.46,-135.22 102.43,-135.22 102.35,-135.28 M106.91,-130.01 L107.28,-130.22 107.31,-130.27 107.31,-130.75 M153.91,-100.64 L153.91,-100.93 153.95,-101.01 154.06,-101.04 154.39,-101.07 154.56,-101.1 M152.95,-101.64 L153.88,-101.52 154.23,-101.55 154.44,-101.58 154.51,-101.58 154.56,-101.51 154.56,-100.82 154.53,-100.75 154.44,-100.7 154.23,-100.67 153.88,-100.64 152.72,-100.89 152.51,-101.05 152.31,-101.13 152.14,-101.27 M66.957,-50.44 L66.957,-50.73 67.007,-50.8 67.107,-50.84 67.446,-50.87 67.616,-50.9 M65.997,-51.44 L66.927,-51.32 67.287,-51.35 67.496,-51.38 67.566,-51.38 67.616,-51.31 67.616,-50.62 67.576,-50.54 67.496,-50.5 67.287,-50.46 66.927,-50.44 65.767,-50.69 65.557,-50.85 65.357,-50.93 65.177,-51.07 M20.654,-80.429 L20.654,-82.818 M20.584,-82.888 L20.664,-82.928 20.704,-82.988 20.704,-89.406 M153.66,-112.13 L154.07,-112.37 154.12,-112.38 154.15,-112.32 154.15,-111.54 154.13,-111.45 154.07,-111.39 153.66,-111.15 153.6,-111.09 153.57,-111.01 153.57,-108.23 M154.12,-112.34 L153.7,-112.1 153.64,-112.1 M154.1,-106.17 L154.1,-106.03 154.12,-106 154.15,-106 154.22,-106.04 154.28,-106.06 154.38,-106.04 154.47,-105.99 156.13,-105.12 156.96,-104.52 157.51,-103.77 157.59,-103.54 157.61,-103.32 157.61,-100.98 157.34,-101.7 156.79,-102.25 155.45,-103.04 154.38,-103.65 154.3,-103.67 154.22,-103.65 153.7,-103.35 153.64,-103.35 M66.787,-55.808 C66.93,-55.892 67.073,-55.975 67.217,-56.058 67.247,-56.065 67.276,-56.071 67.307,-56.078 67.333,-56.071 67.36,-56.065 67.386,-56.058 67.75,-55.848 68.112,-55.639 68.476,-55.428 68.837,-55.218 69.195,-55.009 69.556,-54.799 69.699,-54.702 69.842,-54.605 69.986,-54.509 70.096,-54.395 70.205,-54.282 70.315,-54.169 70.392,-54.049 70.469,-53.929 70.545,-53.809 70.582,-53.682 70.619,-53.556 70.655,-53.429 70.659,-55.005 70.662,-56.571 70.665,-58.147 70.659,-58.281 70.652,-58.414 70.645,-58.547 70.622,-58.687 70.599,-58.827 70.575,-58.967 70.539,-59.107 70.502,-59.247 70.465,-59.387 70.413,-59.59 70.369,-59.704 70.325,-59.817 70.232,-60.012 70.139,-60.207 70.046,-60.402 M69.515,-61.271 L69.647,-61.074 70.055,-60.386 M66.627,-58.027 L66.627,-61.686 M151,-101.69 L151.22,-101.82 151.48,-101.97 M152.1,-102.33 L151.67,-102.08 151.44,-101.94 M151.03,-101.71 L150.85,-101.6 150.69,-101.51 M153.64,-103.03 L153.58,-103.02 153.25,-103 M153.71,-103.31 L153.67,-103.24 153.25,-103 151.91,-102.22 M150.78,-101.56 L150.54,-101.43 150.19,-101.22 150.09,-101.17 150.04,-101.2 M149.46,-99.912 L149.35,-99.972 149.32,-100.01 149.32,-100.49 149.35,-100.55 M55.711,-96.933 L55.411,-96.763 55.351,-96.803 M79.612,-110.73 L81.071,-111.58 81.071,-113.2 81.071,-114.68 M75.503,-108.36 L75.204,-108.19 75.144,-108.23 M86.03,-120.66 L86.03,-120.37 85.91,-120.3 85.91,-118.98 86.649,-118.55 M83.231,-123.84 L83.351,-124.05 83.55,-124.28 83.77,-124.46 84,-124.59 84.24,-124.68 84.48,-124.73 84.73,-124.72 84.98,-124.66 85.22,-124.55 85.81,-123.79 85.95,-122.82 85.85,-122.34 85.85,-122.12 85.91,-122.08 85.91,-120.6 86.03,-120.54 M107.31,-130.43 L107.57,-130.58 107.6,-130.64 107.6,-133.03 107.57,-133.07 107.49,-133.12 105.49,-134.26 103.33,-134.91 102.6,-134.93 101.9,-134.87 101.23,-134.74 100.63,-134.55 100.1,-134.29 99.655,-133.98 99.315,-133.62 99.095,-133.22 99.005,-132.75 99.005,-130.43 M107.54,-133.09 L107.62,-133.14 107.65,-133.2 107.65,-139.61 107.62,-139.65 106.55,-140.26 105.51,-140.86 105.42,-140.88 104.85,-140.73 M99.015,-132.91 L99.015,-133.09 99.015,-137.87 M100.7,-139.13 L100.45,-139 99.774,-138.6 99.285,-138.27 99.025,-138 98.985,-137.9 M19.964,-79.809 L20.324,-80.009 20.364,-80.069 20.364,-80.549 M162.88,-103.76 L164.48,-103.76 M157.59,-103.51 L162.31,-103.51 M162.9,-103.51 L164.48,-103.52 164.48,-103.94 M157.52,-103.75 L157.59,-103.75 157.59,-103.8 157.59,-104.41 158.93,-104.41 M103.12,-135.23 L103.12,-135.94 M102.42,-135.23 L102.42,-135.94 M6.789,-83.048 L5.1896,-83.048 M0.97113,-82.798 L1.211,-82.798 M5.1896,-82.798 L6.779,-82.798 M7.3588,-82.798 L12.077,-82.798 M149.98,-100.92 L149.93,-100.88 149.27,-100.5 M63.044,-50.726 L62.968,-50.68 62.388,-50.35 62.358,-50.29 62.358,-49.81 62.388,-49.77 62.498,-49.71 M153.57,-111.89 L153.57,-111.49 153.57,-108.52 M129.05,-97.943 L128.83,-97.823 M126.71,-96.593 L126.35,-96.383 M99.015,-110.72 L125.06,-95.683 M124.33,-102.15 L116.16,-106.87 108.47,-111.31 M64.867,-44.003 L64.867,-47.081 M68.326,-43.953 L68.856,-43.953 68.926,-44.003 68.926,-47.091 M0.91115,-84.757 L0.99112,-84.777 0.99112,-84.877 12.567,-87.946 12.677,-87.976 12.717,-87.956 12.957,-87.816 12.987,-87.756 12.987,-84.697 12.957,-84.617 12.717,-84.108 12.567,-84.008 12.177,-83.718 10.797,-83.718 10.638,-83.668 10.568,-83.528 10.568,-83.238 0.99112,-83.238 M12.127,-82.988 L12.137,-83.038 12.087,-83.038 12.077,-83.088 12.077,-83.698 M10.568,-81.139 L10.568,-80.849 8.3284,-80.849 M0.92114,-84.787 L0.87116,-84.707 0.87116,-83.178 0.87116,-80.919 0.91115,-80.869 0.99112,-80.849 1.211,-80.849 1.211,-83.218 M5.1896,-80.849 L6.1592,-80.849 M1.211,-82.528 L0.97113,-82.458 M168.76,-105.48 L168.68,-105.49 168.68,-105.6 157.1,-108.67 M156.95,-108.68 L156.71,-108.54 M156.69,-108.48 L156.69,-105.42 M156.71,-105.34 L156.95,-104.83 157.1,-104.73 157.49,-104.41 158.87,-104.41 M157.61,-102.07 L158.87,-102.07 159.03,-102.02 159.1,-101.88 159.1,-101.59 M159.1,-101.57 L161.33,-101.57 M168.72,-105.52 L168.75,-105.5 168.8,-105.43 168.8,-103.9 168.8,-101.63 168.76,-101.59 167.94,-101.6 M164.48,-101.57 L163.51,-101.57 M80.712,-91.875 L82.311,-90.945 M97.405,-105.09 L102.1,-102.37 M73.324,-91.185 L77.523,-88.756 M104.85,-134.87 L104.92,-134.87 105.26,-135.07 105.29,-135.13 105.29,-138.19 105.26,-138.27 104.95,-138.74 104.91,-138.79 104.85,-138.82 M100.7,-138.84 L100.64,-138.79 100.59,-138.74 100.28,-138.27 100.25,-138.19 100.25,-135.13 100.28,-135.07 100.59,-134.89 100.67,-134.9 M104.8,-134.83 L104.85,-134.83 104.85,-135.29 104.85,-140.82 104.85,-142.35 104.85,-142.45 104.8,-142.46 104.73,-142.47 100.81,-142.47 100.74,-142.46 100.7,-142.45 100.7,-135.67 100.7,-134.93 M54.921,-97.713 L54.921,-96.893 55.211,-96.723 55.651,-96.973 M58.81,-99.962 L59.819,-99.382 68.046,-104.13 75.433,-108.4 M87.559,-97.403 L87.909,-97.663 88.609,-98.062 M97.865,-103.41 L99.085,-104.11 M86.08,-119.07 L86.379,-119.24 87.849,-119.24 M87.499,-121.84 L86.399,-122.48 86.249,-122.57 M73.124,-112.9 L72.095,-112.31 M70.046,-111.12 L68.936,-110.48 M61.249,-104.33 L62.558,-105.09 M66.397,-110.61 L66.127,-110.77 M86.689,-98.902 L87.589,-98.382 87.689,-98.252 87.689,-98.102 87.469,-97.853 87.379,-97.753 87.339,-97.623 87.339,-97.523 M77.563,-90.575 L77.563,-91.675 M57.17,-80.239 L59.389,-79.669 M55.711,-81.019 L56.211,-80.729 M102.25,-124.02 L102.47,-124.15 102.47,-126.46 M1.7508,-80.799 L1.291,-80.799 1.291,-80.839 M5.1096,-80.799 L4.6498,-80.799 M5.1096,-83.068 L1.291,-83.068 1.291,-83.218 M124.01,-111.47 L124.22,-111.6 124.22,-113.87 M22.083,-88.526 L23.623,-89.416 26.112,-87.986 26.112,-87.756 25.972,-87.676 M23.993,-77.57 L26.112,-76.351 26.112,-76.58 23.623,-78.01 17.825,-74.661 17.825,-74.431 M23.623,-77.78 L23.623,-78.01 M19.114,-73.692 L20.314,-73.002 22.083,-74.021 M109.03,-138.74 L110.58,-139.63 113.06,-138.19 113.06,-137.96 112.92,-137.88 M108.17,-125.1 L110.33,-123.86 110.33,-124.97 113.06,-126.55 113.06,-126.78 110.58,-128.21 104.77,-124.86 104.77,-124.63 M106.07,-123.89 L107.26,-123.2 109.03,-124.22 M102.57,-114.98 L102.57,-114.62 102.73,-114.33 M104.92,-113.07 L104.97,-113.1 105.14,-113.19 105.14,-113.56 105.12,-113.61 102.6,-115.07 102.52,-115.07 M102.52,-115.01 L102.52,-115.07 102.47,-115.16 102.47,-117.91 102.42,-117.94 102.25,-117.85 M124.17,-105.38 L124.17,-102.63 124.2,-102.53 124.27,-102.45 124.3,-102.46 124.32,-102.42 124.32,-102.06 124.49,-101.77 M126.67,-100.51 L126.72,-100.54 126.88,-100.63 126.88,-101 126.86,-101.05 124.35,-102.51 124.27,-102.51"/>
      <path stroke="#000" d="M124.27,-102.45 L124.27,-102.51 124.22,-102.6 124.22,-105.35 124.17,-105.38 124.01,-105.29 M126.88,-101.06 L126.88,-101.47 M154.15,-111.76 L153.64,-112.06 M111.03,-87.846 L111.31,-87.686 114.66,-89.616 114.66,-89.936 M55.021,-97.773 L55.021,-97.333 56.481,-96.493 59.819,-98.422 59.819,-99.382 M78.982,-89.016 L78.982,-89.606 77.523,-88.756 77.523,-88.176 M74.804,-109.2 L74.804,-108.76 76.263,-107.92 79.612,-109.85 79.612,-110.81 78.252,-111.6 M91.238,-76.421 L91.518,-76.261 94.866,-78.2 94.866,-78.51 M104.76,-138.29 L104.22,-138.29 M101.32,-138.29 L100.78,-138.29 M104.76,-140.85 L104.76,-140.58 M104.76,-140.56 L100.78,-140.56 M164.56,-103.94 L164.56,-103.78 168.38,-103.78 168.38,-103.82 168.38,-103.94 M165.03,-101.51 L164.56,-101.51 M56.511,-80.409 L56.201,-80.809 56.201,-81.299 M108.47,-115.95 L108.47,-111.14 108.44,-111.09 108.4,-111.1 108.07,-111.29 107.19,-111.8 106.36,-112.28 105.39,-112.84 105.32,-112.95 105.32,-114.13 M130.22,-103.39 L130.22,-98.582 130.19,-98.532 130.15,-98.512 130.12,-98.522 M82.701,-154.44 L83.021,-154.66 83.341,-154.81 83.65,-154.88 83.93,-154.87 84.08,-154.83 84.41,-154.66 84.66,-154.46 84.81,-154.22 84.91,-153.93 85.9,-149.11 M82.921,-151.44 L82.761,-151.37 82.671,-151.35 M81.401,-152.21 L81.071,-150.26 M104.29,-131.01 L104.54,-130.74 104.65,-130.44 104.66,-130.33 104.6,-130.09 104.49,-129.91 104.31,-129.73 104.08,-129.58 103.79,-129.45 103.47,-129.35 103.12,-129.29 102.74,-129.28 102.36,-129.3 102.01,-129.37 101.7,-129.48 101.43,-129.61 101.2,-129.78 101.04,-129.96 100.94,-130.17 100.91,-130.39 101,-130.69 101.23,-130.97 101.36,-131.06 M105.75,-127.18 L106.1,-127.42 106.52,-127.83 106.79,-128.27 106.86,-128.5 106.9,-128.73 106.86,-129.18 106.66,-129.62 106.33,-130.04 105.85,-130.42 105.23,-130.74 104.97,-130.84 104.46,-131 103.92,-131.11 103.36,-131.18 102.79,-131.2 102.23,-131.18 101.67,-131.12 101.13,-131 100.61,-130.85 99.954,-130.55 99.425,-130.2 99.035,-129.8 98.775,-129.37 98.675,-128.92 98.675,-128.69 98.715,-128.46 98.805,-128.23 98.925,-128.01 99.295,-127.57 99.565,-127.35 100.14,-127 100.81,-126.74 101.54,-126.56 102.31,-126.47 103.1,-126.46 103.88,-126.54 104.64,-126.7 105.34,-126.96 105.75,-127.18 M106.4,-127.68 L106.66,-127.95 106.87,-128.21 107.02,-128.49 107.13,-128.76 107.18,-129.03 107.19,-129.29 107.15,-129.55 107.07,-129.81 106.93,-130.05 106.75,-130.29 106.52,-130.52 106.24,-130.73 105.92,-130.93 105.13,-131.28 104.54,-131.46 103.91,-131.59 103.27,-131.66 102.62,-131.67 101.97,-131.63 101.34,-131.53 100.73,-131.38 100.16,-131.17 99.545,-130.85 99.045,-130.48 98.675,-130.05 98.445,-129.59 98.385,-128.9 98.615,-128.31 99.565,-127.35 M14.066,-80.529 L13.976,-80.319 13.956,-80.119 13.996,-79.909 14.116,-79.709 14.296,-79.529 14.536,-79.369 14.836,-79.229 15.186,-79.14 15.546,-79.08 15.906,-79.07 16.265,-79.1 16.605,-79.17 16.915,-79.269 17.205,-79.409 17.435,-79.579 17.645,-79.869 17.715,-80.179 17.635,-80.479 17.395,-80.759 17.275,-80.849 M11.963,-77.808 L11.667,-78.11 11.427,-78.7 11.487,-79.389 11.727,-79.849 12.097,-80.279 12.597,-80.649 13.207,-80.969 13.776,-81.179 13.926,-81.229 14.486,-81.379 15.076,-81.469 15.676,-81.509 16.285,-81.489 16.885,-81.429 17.465,-81.309 18.015,-81.139 18.964,-80.729 19.284,-80.529 19.564,-80.319 19.794,-80.089 19.974,-79.849 20.114,-79.599 20.204,-79.349 20.244,-79.09 20.234,-78.82 20.174,-78.56 20.074,-78.29 19.914,-78.01 19.704,-77.74 19.454,-77.48 M18.795,-76.97 L19.144,-77.21 19.574,-77.63 19.834,-78.07 19.914,-78.3 19.944,-78.53 19.904,-78.98 19.714,-79.419 19.374,-79.839 18.894,-80.209 18.275,-80.539 18.025,-80.639 17.505,-80.799 16.965,-80.909 16.415,-80.979 15.846,-80.999 15.276,-80.979 14.716,-80.919 14.176,-80.799 13.666,-80.649 12.997,-80.349 12.477,-79.999 12.077,-79.599 11.827,-79.17 11.717,-78.71 11.727,-78.49 11.767,-78.26 11.847,-78.03 11.967,-77.8 12.337,-77.37 12.607,-77.15 13.187,-76.8 13.856,-76.54 14.586,-76.361 15.366,-76.261 16.145,-76.261 16.935,-76.331 17.685,-76.501 18.395,-76.76 18.795,-76.97 M155.26,-101.58 L155.43,-101.45 155.64,-101.16 155.69,-101.01 155.71,-100.86 155.67,-100.65 155.56,-100.46 155.4,-100.29 155.19,-100.13 154.93,-100 154.64,-99.902 154.32,-99.832 153.97,-99.802 153.59,-99.812 153.23,-99.862 152.9,-99.942 152.6,-100.06 152.36,-100.21 152.17,-100.39 152.04,-100.59 151.97,-100.8 151.98,-101.01 152.06,-101.21 152.2,-101.4 152.39,-101.57 M157.45,-98.202 L157.71,-98.472 157.92,-98.742 158.07,-99.012 158.18,-99.282 158.24,-99.552 158.24,-99.822 158.2,-100.08 158.12,-100.33 157.98,-100.58 157.8,-100.81 157.57,-101.04 157.29,-101.25 156.97,-101.45 156.18,-101.81 155.59,-101.99 154.96,-102.11 154.32,-102.18 153.67,-102.19 153.02,-102.15 152.39,-102.06 151.79,-101.9 151.22,-101.7 150.53,-101.34 150.01,-100.94 149.81,-100.72 149.65,-100.49 149.53,-100.25 149.46,-100.01 149.43,-99.772 149.44,-99.522 149.5,-99.272 149.59,-99.022 149.74,-98.762 149.92,-98.512 150.43,-98.023 150.96,-97.653 151.6,-97.363 152.29,-97.153 153.05,-97.023 153.84,-96.973 154.63,-97.023 155.4,-97.153 156.14,-97.383 156.68,-97.643 157.15,-97.943 157.57,-98.352 157.84,-98.802 157.91,-99.022 157.95,-99.252 157.91,-99.712 157.71,-100.15 157.38,-100.56 156.9,-100.94 156.28,-101.26 156.02,-101.36 155.47,-101.53 154.89,-101.65 154.29,-101.71 153.69,-101.73 153.09,-101.69 152.5,-101.6 151.94,-101.46 151.41,-101.27 150.8,-100.96 150.33,-100.59 149.99,-100.19 149.79,-99.762 149.73,-99.312 149.81,-98.872 150.04,-98.432 M68.316,-51.37 L68.486,-51.24 68.696,-50.96 68.756,-50.65 68.716,-50.45 68.616,-50.26 68.446,-50.08 68.236,-49.93 67.986,-49.8 67.696,-49.7 67.366,-49.63 67.017,-49.6 66.637,-49.61 66.277,-49.65 65.947,-49.74 65.657,-49.86 65.407,-50.01 65.207,-50.19 65.077,-50.39 65.017,-50.6 65.027,-50.81 65.097,-51.01 65.237,-51.2 65.437,-51.37 M70.505,-48.001 L70.755,-48.271 70.965,-48.541 71.125,-48.811 71.225,-49.081 71.285,-49.351 71.295,-49.61 71.255,-49.87 71.165,-50.13 71.025,-50.38 70.845,-50.61 70.615,-50.84 70.335,-51.05 70.016,-51.25 69.236,-51.6 68.636,-51.79 68.016,-51.91 67.366,-51.98 66.717,-51.99 66.067,-51.95 65.437,-51.86 64.837,-51.7 64.258,-51.5 63.578,-51.14 63.048,-50.73 62.848,-50.51 62.688,-50.29 62.578,-50.05 62.498,-49.81 62.468,-49.57 62.488,-49.321 62.538,-49.071 62.638,-48.811 62.778,-48.561 62.968,-48.311 63.478,-47.821 64.008,-47.451 64.638,-47.161 65.347,-46.941 66.097,-46.822 66.887,-46.772 67.676,-46.822 68.456,-46.951 69.186,-47.181 69.736,-47.431 70.195,-47.741 70.625,-48.151 70.885,-48.591 70.965,-48.821 70.995,-49.051 70.955,-49.501 70.765,-49.95 70.425,-50.36 69.946,-50.74 69.326,-51.06 69.076,-51.16 68.526,-51.33 67.946,-51.45 67.346,-51.51 66.737,-51.53 66.137,-51.49 65.547,-51.4 64.987,-51.26 64.448,-51.07 63.848,-50.75 63.378,-50.39 63.028,-49.99 62.828,-49.561 62.768,-49.111 62.848,-48.671 63.088,-48.231 M157.64,-108.53 L157.62,-108.75 157.5,-109.42 157.28,-110.11 156.95,-110.78 156.54,-111.44 156.48,-111.5 155.41,-112.11 154.34,-112.73 154.25,-112.75 154.17,-112.73 153.61,-112.41 M20.704,-89.456 L20.674,-89.496 19.604,-90.115 18.525,-90.735 18.475,-90.745 18.125,-90.655 17.735,-90.545 17.325,-90.415 16.875,-90.265 16.425,-90.105 14.956,-89.496 13.656,-88.876 12.657,-88.296 12.317,-88.046 12.097,-87.836 M70.775,-117.93 L58.1,-110.6 58.03,-110.49 58,-110.32 58,-108.6 58.03,-108.41 58.1,-108.2 58.21,-108.02 58.34,-107.86 58.5,-107.74 59.489,-107.16 59.719,-107.1 59.809,-107.11 59.889,-107.17 59.929,-107.19 M71.435,-113.83 L63.568,-109.29 M81.391,-152.28 L81.411,-152.2 81.521,-151.9 81.721,-151.71 81.901,-151.6 M82.611,-154.39 L82.651,-154.4 82.971,-154.47 83.241,-154.4 83.964,-153.99 M41.376,-73.841 L43.795,-72.912 M43.835,-72.912 L43.915,-72.952 43.945,-73.012 43.945,-73.122 43.965,-73.202 44.025,-73.262 44.935,-73.792 44.975,-73.851 44.975,-73.951 M44.935,-73.981 L43.285,-74.941 M162.32,-103.75 C162.32,-103.73 162.32,-103.72 162.32,-103.7 162.34,-103.59 162.35,-103.49 162.37,-103.38 162.4,-103.34 162.43,-103.3 162.46,-103.26 162.5,-103.23 162.57,-103.23 162.63,-103.22 162.68,-103.24 162.72,-103.25 162.77,-103.27 162.79,-103.31 162.82,-103.34 162.84,-103.38 162.85,-103.49 162.87,-103.59 162.88,-103.7 162.88,-103.72 162.88,-103.73 162.88,-103.75 M154.15,-111.72 L153.64,-112.02 M66.587,-53.529 L66.787,-53.419 66.887,-53.359 66.887,-55.518 67.317,-55.268 M66.807,-62.226 L66.687,-62.166 66.687,-61.726 M66.667,-61.716 L66.537,-61.636 65.137,-62.446 M151.85,-109.23 L153.64,-108.2 153.64,-107.76 153.62,-107.73 153.49,-107.65 151.85,-108.6 M151.85,-113.42 L153.64,-112.39 153.64,-111.95 153.62,-111.92 153.49,-111.84 151.85,-112.79 M81.361,-153.12 L81.301,-152.76 81.361,-152.35 81.651,-152.06 81.781,-151.98 81.941,-151.96 82.101,-151.98 82.451,-152.15 82.781,-152.46 83.061,-152.89 83.231,-153.36 83.251,-153.77 83.221,-153.95 83.151,-154.1 83.051,-154.21 82.921,-154.28 82.781,-154.36 82.631,-154.39 82.461,-154.37 82.121,-154.21 81.781,-153.91 81.511,-153.51 81.361,-153.12 M86.771,-151.93 L85.12,-152.88 M102.02,-124.62 L99.854,-125.88 99.854,-125.5 M40.676,-88.826 L41.026,-89.026 41.256,-88.896 41.346,-88.946 M54.561,-99.352 L37.198,-89.325 M38.557,-88.386 L37.198,-89.176 37.198,-89.326 37.198,-89.706 37.358,-89.806 37.857,-90.085 54.391,-99.632 M82.801,-96.653 L93.447,-90.505 93.507,-90.335 93.507,-89.916 93.407,-89.866 82.221,-96.323 M80.662,-95.423 L91.847,-88.956 91.947,-89.016 91.947,-89.436 92.007,-89.636 92.147,-89.786 92.837,-90.185 M64.847,-129.19 L64.847,-129.42 66.967,-130.65 67.297,-130.65 67.536,-130.51 M69.126,-130.51 L69.126,-132.62 M69.126,-130.7 L69.616,-130.99 69.786,-131.28 69.786,-132.23 69.126,-132.62 68.926,-132.73 68.756,-132.83 67.796,-132.27 M67.157,-131.91 L66.637,-131.6 66.467,-131.32 66.467,-131.02 M46.384,-118.53 L46.384,-118.76 48.503,-119.98 48.833,-119.98 48.833,-119.75 M48.793,-120.04 L48.833,-119.98 50.063,-119.27 50.213,-119.22 50.343,-119.24 50.423,-119.34 50.463,-119.5 50.463,-122.07 M50.303,-118.9 L50.433,-118.98 50.533,-119.03 50.603,-119.12 50.663,-119.39 50.663,-121.95 M50.663,-120.04 L51.153,-120.33 51.322,-120.61 51.322,-121.57 50.663,-121.95 50.463,-122.07 50.293,-122.16 49.333,-121.61 49.163,-121.7 48.963,-121.59 48.743,-121.31 M76.943,-139.7 L75.983,-138.69 74.004,-137.54 73.874,-137.66 77.233,-143.11 79.222,-144.26 79.502,-144.25 79.822,-144.32 80.182,-144.46 80.562,-144.66 80.961,-144.91 81.371,-145.22 82.201,-145.97 84.19,-147.12 84.31,-147 84.89,-143.83 82.911,-142.69 82.631,-142.78 82.321,-142.81 81.971,-142.79 81.601,-142.73 80.772,-142.45 79.862,-141.99 78.912,-141.37 77.923,-140.6 76.943,-139.7 M86.249,-132.07 L85.41,-131.58 M88.339,-139.49 L88.749,-139.63 89.208,-139.89 89.638,-140.26 90.008,-140.71 90.328,-141.24 90.478,-141.33 M48.953,-119.94 L48.863,-120.06 48.833,-120.19 48.833,-120.86 48.364,-123.31 48.304,-123.39 48.224,-123.43 48.114,-123.42 47.064,-122.81 46.954,-122.7 46.904,-122.56 46.434,-119.57 46.434,-118.9 46.444,-118.8 M85.74,-149.89 L85.84,-149.89 86.16,-150.02 86.469,-150.29 86.729,-150.65 86.899,-151.08 86.949,-151.35 86.939,-151.59 86.869,-151.79 86.759,-151.94 M100.78,-137.27 L100.81,-137.34 100.88,-137.36 101.78,-137.36 M104.76,-137.27 L104.73,-137.34 104.66,-137.36 103.76,-137.36 M104.73,-136.89 L104.66,-136.93 103.94,-136.93 M101.6,-136.93 L100.88,-136.93 100.82,-136.89 M151.85,-113.79 L153.57,-112.79 M153.57,-112.43 L153.57,-112.79 153.57,-113.02 151.85,-114.02 M37.198,-89.176 L38.287,-89.806 38.397,-89.836 38.477,-89.826 38.537,-89.756 38.557,-89.646 38.557,-88.196 40.217,-87.237 40.347,-87.316 40.676,-87.506 40.676,-89.416 39.027,-90.375 39.027,-88.466 M64.897,-54.399 L66.538,-53.445 M10.298,-82.798 L10.298,-82.438 10.298,-81.549 10.258,-81.479 10.178,-81.449 9.7079,-81.449 9.6179,-81.489 9.5979,-81.569 9.5979,-82.358 9.5979,-82.388 M9.5979,-82.798 L9.5979,-82.448 9.5979,-82.368 M160.08,-103.51 L160.08,-103.16 160.08,-102.28 160.04,-102.21 M58.76,-50.8 L57.57,-51.49 M57.02,-51.8 L56.61,-52.04 56.61,-52.269 56.67,-52.299 M148.97,-117 L149.37,-117.23 151.85,-115.8 151.85,-115.57 151.72,-115.49 M145.72,-101 L144.53,-101.69 M143.97,-102.01 L143.56,-102.24 143.56,-102.47 143.62,-102.51 M65.987,-128.18 L64.677,-128.94 64.677,-129.09 67.137,-130.51 69.786,-130.51 69.906,-130.44 M33.589,-82.898 L33.589,-79.629 33.589,-73.682 33.589,-72.572 M55.331,-68.853 L55.331,-67.074 55.331,-61.136 55.331,-60.027 M20.704,-89.326 L23.423,-87.756 M107.65,-139.53 L110.38,-137.96 M107.49,-130.21 L107.82,-130.01 M104.38,-126.64 L106.03,-125.69 M110.38,-128.54 L108.47,-129.64 M20.024,-79.709 L20.544,-79.999 20.874,-79.809 M17.425,-76.441 L19.084,-75.481 M23.423,-78.34 L21.524,-79.439 M55.491,-115.92 L48.673,-119.85 46.214,-118.43 46.214,-118.29 46.214,-116.76 M58.29,-114.3 L61.389,-112.51 M85.82,-98.402 L90.528,-95.683 M68.506,-88.406 L83.421,-79.799 83.421,-79.679 82.391,-79.09 82.251,-78.94 82.191,-78.74 82.191,-78.32 82.091,-78.27 66.517,-87.257 M53.242,-79.589 L68.256,-70.923 68.916,-71.312 M53.911,-79.979 L69.476,-70.983 69.576,-71.043 69.576,-71.462 69.526,-71.632 54.491,-80.309 M39.797,-78.23 L39.797,-78.03 39.847,-77.76 39.957,-77.56 40.187,-77.43 40.327,-77.34 40.486,-77.31 40.666,-77.33 40.856,-77.42 41.956,-78.05 41.726,-78.18 40.626,-77.55 40.436,-77.47 40.257,-77.44 40.097,-77.47 M41.506,-84.398 L41.366,-84.518 41.286,-84.707 41.256,-84.937 41.256,-88.896 M41.256,-92.055 L41.256,-92.575 M41.576,-92.535 L41.256,-92.575 41.026,-92.714 39.367,-91.755 39.367,-90.955 M39.367,-84.098 L39.367,-87.726 M100.2,-106.7 L115.77,-97.713 115.87,-97.773 115.87,-98.192 115.93,-98.382 116.07,-98.532 117.1,-99.132 117.1,-99.242 102.19,-107.85 M86.919,-99.032 L101.93,-90.375 102.59,-90.755 M87.589,-99.422 L103.16,-90.425 103.26,-90.485 103.26,-90.905 103.2,-91.075 88.169,-99.752 M79.332,-145.99 L78.302,-144.33 78.063,-144.31 M64.278,-116.33 L65.647,-118.54 M72.675,-129.93 L80.222,-142.18 M77.853,-144.7 L69.786,-131.61 M69.276,-130.79 L69.126,-130.54 M65.987,-125.46 L62.658,-120.05 M125.19,-95.004 L125.23,-94.974 125.44,-94.954 125.68,-95.064 125.91,-95.264 126.11,-95.553 126.23,-95.863 126.27,-96.143 126.22,-96.373 126.09,-96.533 125.89,-96.573 125.65,-96.503 125.41,-96.313 125.21,-96.033 125.07,-95.713 125.02,-95.413 125.06,-95.164 125.19,-95.004 M126.29,-94.364 L126.41,-94.294 126.63,-94.274 126.87,-94.374 127.1,-94.574 127.3,-94.864 127.32,-94.894 127.36,-94.974 M67.996,-62.296 L68.086,-62.186 68.226,-62.156 68.396,-62.216 68.556,-62.346 68.696,-62.536 68.796,-62.756 68.826,-62.956 68.796,-63.125 68.696,-63.235 68.556,-63.265 68.396,-63.205 68.226,-63.075 68.086,-62.886 67.996,-62.666 67.966,-62.466 67.996,-62.296 M68.956,-63.415 L68.846,-63.475 68.646,-63.525 68.406,-63.445 68.166,-63.255 67.956,-62.986 67.816,-62.666 67.766,-62.366 67.806,-62.106 67.936,-61.946 67.976,-61.926 68.196,-61.906 68.426,-62.006 68.666,-62.216 68.866,-62.496 68.986,-62.806 69.026,-63.085 68.976,-63.325 68.846,-63.475 M69.046,-61.306 L69.166,-61.236 69.366,-61.216 69.586,-61.296 69.806,-61.466 70.006,-61.716 70.065,-61.826 M97.145,-111.19 L97.185,-111.17 97.395,-111.15 97.635,-111.25 97.875,-111.46 98.075,-111.75 98.195,-112.05 98.225,-112.34 98.185,-112.57 98.055,-112.73 97.845,-112.77 97.615,-112.69 97.375,-112.51 97.165,-112.23 97.015,-111.91 96.966,-111.61 97.015,-111.36 97.145,-111.19"/>
      <path stroke="#000" d="M98.255,-110.56 L98.375,-110.48 98.595,-110.46 98.825,-110.57 99.065,-110.77 99.265,-111.06 99.275,-111.09 99.315,-111.17 M42.376,-79.569 L42.416,-79.549 42.636,-79.529 42.876,-79.629 43.105,-79.839 43.305,-80.129 43.425,-80.429 43.465,-80.719 43.415,-80.949 43.285,-81.099 43.086,-81.149 42.846,-81.069 42.606,-80.889 42.396,-80.609 42.256,-80.289 42.206,-79.989 42.246,-79.739 42.376,-79.569 M43.485,-78.93 L43.605,-78.86 43.825,-78.84 44.065,-78.95 44.295,-79.15 44.495,-79.439 44.605,-79.679 44.655,-79.909 44.645,-80.119 44.595,-80.289 44.555,-80.349 M70.425,-63.385 L70.465,-63.355 70.675,-63.345 70.915,-63.445 71.155,-63.645 71.355,-63.935 71.475,-64.245 71.505,-64.525 71.465,-64.755 71.335,-64.915 71.125,-64.955 70.895,-64.885 70.655,-64.695 70.445,-64.415 70.305,-64.095 70.245,-63.795 70.285,-63.545 70.425,-63.385 M71.535,-62.746 L71.655,-62.676 71.875,-62.656 72.115,-62.756 72.345,-62.956 72.545,-63.245 72.645,-63.485 72.695,-63.715 72.695,-63.925 72.645,-64.095 72.595,-64.155 M99.635,-112.63 L99.665,-112.61 99.884,-112.59 100.12,-112.69 100.35,-112.9 100.55,-113.18 100.67,-113.49 100.71,-113.77 100.66,-114.01 100.53,-114.16 100.33,-114.21 100.09,-114.13 99.854,-113.94 99.645,-113.67 99.505,-113.35 99.455,-113.05 99.495,-112.8 99.635,-112.63 M100.73,-111.99 L100.86,-111.92 101.07,-111.9 101.31,-112 101.55,-112.21 101.75,-112.5 101.85,-112.73 101.9,-112.96 101.9,-113.17 101.84,-113.35 101.8,-113.41 M39.947,-78.48 L40.047,-78.37 40.187,-78.35 40.347,-78.4 40.506,-78.54 40.656,-78.73 40.746,-78.95 40.776,-79.15 40.746,-79.319 40.656,-79.429 40.506,-79.459 40.347,-79.399 40.187,-79.269 40.047,-79.08 39.947,-78.86 39.917,-78.65 39.947,-78.48 M41.186,-79.449 L40.806,-79.669 40.596,-79.709 40.357,-79.639 40.127,-79.449 39.917,-79.18 39.767,-78.86 39.717,-78.55 39.757,-78.3 39.897,-78.14 39.927,-78.12 40.147,-78.1 40.387,-78.2 40.616,-78.4 40.816,-78.69 40.936,-79 40.976,-79.279 40.926,-79.509 40.806,-79.669 M40.996,-77.5 L41.126,-77.43 41.336,-77.41 41.576,-77.51 41.816,-77.71 42.016,-78 42.026,-78.04 42.076,-78.14 M127.67,-96.433 L127.71,-96.413 127.92,-96.393 128.16,-96.493 128.4,-96.703 128.6,-96.993 128.72,-97.293 128.76,-97.583 128.71,-97.813 128.58,-97.963 128.37,-98.013 128.14,-97.933 127.9,-97.753 127.69,-97.473 127.55,-97.153 127.5,-96.853 127.54,-96.603 127.67,-96.433 M128.78,-95.793 L128.9,-95.723 129.12,-95.703 129.36,-95.803 129.59,-96.013 129.79,-96.303 129.89,-96.533 129.94,-96.773 129.94,-96.973 129.89,-97.153 129.85,-97.213 M79.662,-93.104 L81.201,-93.994 81.401,-93.884 81.401,-92.555 81.361,-92.325 81.231,-92.175 79.142,-90.965 78.952,-90.925 78.722,-91.005 75.863,-92.655 M81.201,-93.994 L81.201,-92.675 81.191,-92.545 81.131,-92.445 80.991,-92.395 80.812,-92.445 78.152,-93.974 M102.95,-105.11 L102.95,-105 102.9,-104.76 102.77,-104.61 100.69,-103.41 100.49,-103.37 100.26,-103.45 M102.75,-105.23 L102.75,-105.11 102.73,-104.98 102.67,-104.89 102.53,-104.83 102.35,-104.88 99.704,-106.42 M101.21,-105.55 L101.71,-105.83 M101.82,-113.67 L101.82,-113.58 101.78,-113.25 101.66,-112.92 101.48,-112.61 101.25,-112.34 100.99,-112.14 99.904,-111.51 99.675,-111.64 99.675,-112.61 M100.36,-125.58 L100.36,-126.91 M102.25,-126.47 L102.25,-114.59 M129.87,-97.383 L129.83,-97.063 129.71,-96.723 129.53,-96.413 129.29,-96.143 129.04,-95.943 127.94,-95.314 127.71,-95.443 127.71,-96.413 M89.958,-130.62 L86.809,-147.81 86.729,-147.95 86.589,-148.08 85.53,-148.85 85.23,-149.01 84.88,-149.09 84.1,-148.92 M83.57,-148.07 L83.451,-147.67 83.471,-147.25 83.56,-146.75 M84.17,-143.42 L86.299,-131.83 M88.339,-147.25 L88.649,-146.61 88.919,-146.46 89.268,-147.17 89.128,-147.81 M88.699,-149.89 L88.269,-151.98 88.179,-152.28 88.019,-152.52 87.769,-152.71 87.439,-152.88 87.299,-152.93 87.009,-152.94 86.709,-152.87 86.389,-152.72 86.06,-152.5 85.96,-152.4 M86.569,-149.67 L86.389,-149.54 86.12,-149.42 86.03,-149.41 M99.015,-134.78 L91.568,-145.37 91.468,-145.42 90.628,-145.75 90.228,-145.84 88.839,-145.87 89.928,-144.34 89.688,-144.07 M98.555,-129.83 L88.689,-143.87 88.519,-144.3 88.499,-144.58 M93.107,-97.173 L93.047,-97.273 92.887,-97.443 92.707,-97.563 88.539,-99.972 M56.511,-99.462 L56.511,-99.762 M55.001,-98.582 L53.192,-101.72 53.192,-102.5 M79.512,-111.86 L79.512,-114.46 79.612,-114.83 79.612,-115.34 M107.63,-126.61 L107.49,-126.61 106.17,-125.84 106.17,-125.76 M96.866,-99.342 L96.646,-99.732 M52.642,-79.249 L54.641,-75.781 M83.66,-142.6 L83.491,-140.49 83.251,-140.48 M82.761,-140.57 L81.581,-126.32 M85.28,-129.94 L85.7,-135.08 M168.3,-101.6 L168.31,-101.6 168.35,-101.68 168.35,-103.78 M112.74,-118.41 L114.32,-117.84 121.33,-113.8 121.58,-113.6 122.89,-111.89 123.81,-111.3 M112.49,-118.27 L114.25,-117.64 114.51,-117.5 121.33,-113.57 121.58,-113.37 122.89,-111.66 123.81,-111.07 122.15,-110.11 110.25,-116.98 M86.03,-149.31 L86.06,-149.39 85.81,-149.54 M83.431,-146.78 L81.861,-145.87 81.731,-145.83 81.261,-145.8 81.001,-145.95 81.331,-147.02 82.691,-151.34 82.161,-151.64 81.921,-151.63 77.943,-145.18 77.863,-144.98 77.843,-144.75 77.903,-144.54 78.013,-144.36 M84.07,-140.32 L82.131,-140.69 82.011,-140.73 80.732,-141.47 80.632,-141.55 80.152,-142.06 M124.55,-113.68 L124.22,-113.49 M104.77,-113.82 L114.55,-119.45 M112.01,-120.91 L102.47,-115.42 M111.75,-121.07 L102.47,-115.72 M103.21,-126.47 L102.47,-126.04 M126.52,-101.26 L136.29,-106.9 M133.76,-108.36 L124.22,-102.86 M133.49,-108.52 L124.22,-103.16 M86.899,-149 L86.449,-149.92 M84.86,-149.4 L83.59,-151.98 83.061,-152.28 82.811,-152.02 83.501,-148.26 83.67,-147.98 84,-147.68 M86.729,-148.9 L85.83,-149.42 M88.799,-144.41 L88.689,-144.47 87.419,-145.2 87.299,-145.27 M90.208,-146.08 L89.188,-147.53 M53.092,-78.48 L56.82,-76.321 57.17,-76.181 60.119,-75.421 61.149,-74.891 61.269,-74.961 M54.981,-80.599 L62.808,-76.081 62.808,-75.851 62.508,-75.681 M75.533,-91.745 L75.533,-92.465 M111.54,-116.24 L111.54,-110.66 111.05,-109.82 M59.689,-72.862 L61.149,-73.702 M59.22,-73.132 L61.149,-74.251 M39.367,-86.787 L33.379,-83.328 33.379,-83.018 33.589,-82.898 39.367,-86.247 M90.628,-129.68 L90.708,-129.75 92.337,-128.82 93.437,-128.19 93.737,-127.94 93.957,-127.59 94.087,-127.15 94.137,-126.64 94.137,-122.87 M119.82,-104.75 L120.58,-105.19 120.58,-105.78 120.52,-105.95 120.44,-106.05 120.33,-106.09 120.21,-106.06 118.88,-105.3 M65.707,-73.831 L65.707,-74.111 65.657,-74.271 65.567,-74.371 65.457,-74.411 65.337,-74.381 65.047,-74.211 M63.798,-73.492 L61.199,-71.992 M62.138,-71.452 L64.737,-72.952 M108.52,-115.04 L108.92,-115.27 109.07,-115.4 109.2,-115.57 109.29,-115.76 109.32,-115.96 109.32,-116.44 M94.137,-126.67 L97.415,-124.77 M59.729,-101.48 L59.729,-103.03 59.819,-103.4 59.819,-103.91 M58.22,-100.44 L56.411,-103.57 56.411,-104.36 M50.143,-118.63 L55.171,-115.74 M57.97,-114.12 L61.079,-112.33 M85.51,-98.222 L90.218,-95.503 M76.303,-110.89 L76.303,-111.19 M74.794,-110.02 L72.984,-113.15 72.984,-114.01 M44.035,-75.371 L35.918,-70.683 M65.787,-62.816 L57.66,-58.127 M87.409,-122.33 L87.409,-122.21 87.499,-121.84 87.499,-119.24 M60.559,-115.61 L60.989,-115 61.129,-114.88 M60.489,-115.57 L60.819,-115.1 61.029,-114.9 61.229,-114.83 61.459,-114.82 61.709,-114.88 61.968,-115 69.836,-119.53 M80.262,-125.55 L83.77,-127.58 84.53,-128.3 85.08,-129.29 85.8,-131.28 86.589,-132.14 90.088,-130.12 90.628,-129.67 90.768,-129.43 90.868,-129.15 90.928,-128.83 90.948,-128.48 90.948,-122.54 89.648,-120.28 M114.72,-114.4 L114.72,-109.65 M72.235,-115.39 L68.646,-108.38 M70.565,-109.31 L72.904,-113.89 M114.39,-114.59 L114.39,-109.8 M90.718,-129.49 L93.167,-128.07 93.437,-127.84 93.637,-127.53 93.757,-127.14 93.807,-126.67 93.807,-122.68 M80.871,-111.54 L80.871,-111.69 80.572,-111.86 78.912,-111.86 78.252,-111.86 78.123,-111.94 73.824,-109.46 73.424,-109.28 73.054,-109.23 70.265,-109.32 62.638,-104.91 59.849,-101.61 59.479,-101.23 59.08,-100.94 54.781,-98.462 54.781,-97.793 54.921,-97.713 78.252,-111.19 78.252,-111.86 M64.028,-110.03 L63.948,-109.88 62.358,-107.42 62.228,-107.5 60.659,-108.75 63.618,-110.47 63.758,-110.51 63.858,-110.47 63.998,-110.39 64.048,-110.3 64.058,-110.17 64.028,-110.03 M123.05,-111.75 L123.05,-114.55 M62.048,-76.521 L62.048,-79.469 M62.878,-79.949 L62.048,-79.469 58.83,-81.319 58.7,-81.249 58.7,-80.989 58.94,-80.649 59.14,-80.299 59.309,-79.929 59.429,-79.569 59.499,-79.209 59.529,-78.87 59.499,-78.54 59.429,-78.26 59.339,-78.08 M86.869,-147.46 L86.969,-147.5 87.069,-147.58 87.149,-147.73 87.159,-147.82 87.109,-147.93 86.879,-148.17 85.56,-149.13 85.2,-149.32 84.84,-149.4 84.66,-149.38 84.05,-149.17 83.98,-149.01 84.1,-148.92 84.29,-147.9 84.05,-147.64 M83.481,-148.39 L83.171,-147.75 83.101,-147.5 83.121,-147.23 83.231,-146.99 83.421,-146.79 83.511,-146.73 M80.212,-144.48 L79.942,-144.77 79.692,-145.08 79.492,-145.4 79.282,-146.18 79.432,-146.28 80.812,-144.81 M84.49,-141.56 L84.22,-141.76 84.02,-142 83.55,-142.79 83.65,-142.93 84.28,-142.81 M91.677,-145.22 L91.747,-145.23 91.827,-145.25 91.837,-145.29 91.867,-145.47 91.717,-145.57 90.678,-145.97 90.358,-146.06 88.769,-146.09 88.749,-145.9 90.328,-145.88 90.658,-145.79 91.697,-145.38 91.837,-145.29 M103.28,-83.338 L103.51,-83.208 M103.51,-83.478 L103.51,-83.058 99.734,-80.869 99.375,-81.089 M123.05,-94.784 L123.31,-94.634 123.31,-94.484 119.53,-92.305 M52.812,-106.49 L52.772,-106.63 52.632,-106.91 51.872,-108.23 51.702,-108.48 51.602,-108.59 M53.262,-102.54 L53.012,-102.4 52.882,-102.47 52.882,-103.21 M88.239,-144.73 L88.209,-144.49 88.209,-144.21 88.269,-143.96 88.389,-143.76 88.539,-143.65 88.958,-143.49 M73.054,-113.97 L72.804,-113.83 72.675,-113.9 72.675,-114.64 M92.707,-101.71 L93.377,-97.323 M72.365,-110.31 L71.105,-110.37 M69.696,-110.45 L65.897,-110.64 M63.048,-108.49 L68.366,-108.22 M91.088,-96.003 L90.138,-97.183 M62.718,-104.96 L58.85,-108.05 60.489,-109 60.879,-109.14 61.079,-109.15 61.259,-109.13 M65.067,-106.32 L62.818,-108.12 M93.237,-98.222 L90.868,-101.13 90.808,-101.24 90.798,-101.27 M91.358,-101.6 L92.857,-100.73 M95.886,-98.772 L95.866,-98.802 95.606,-99.092 95.316,-99.312 94.886,-99.562 M78.282,-145.73 L78.083,-145.58 77.943,-145.45 77.843,-145.29 77.813,-145.13 77.833,-144.94 M90.438,-129.86 L90.428,-129.93 90.328,-130.26 90.108,-130.51 88.799,-131.47 88.659,-131.55 88.509,-131.59 88.369,-131.58 88.229,-131.54 88.129,-131.5 87.949,-131.36 M41.026,-89.026 L41.026,-85.067 41.086,-84.737 41.166,-84.617 41.266,-84.538 44.095,-82.898 44.465,-82.648 44.545,-82.458 44.575,-82.228 44.575,-80.519 44.555,-80.279 44.485,-80.029 44.375,-79.789 44.235,-79.549 44.005,-79.279 43.745,-79.09 42.216,-78.2 41.986,-78.34 41.986,-80.059 41.986,-82.928 41.576,-83.168 41.406,-83.078 41.146,-82.918 41.146,-79.569 41.556,-78.28 41.936,-78.06 42.206,-78.21 41.826,-78.43 41.406,-79.729 41.406,-83.078 M70.565,-62.186 L70.435,-61.916 70.165,-61.766 69.786,-61.986 68.876,-63.565 42.866,-78.58 M72.615,-65.665 L72.615,-64.325 72.555,-63.915 72.375,-63.515 72.115,-63.155 71.795,-62.896 70.265,-62.016 70.036,-62.146 70.036,-63.865 43.995,-78.9 M99.675,-113.7 L99.675,-116.24 99.255,-116.48 99.095,-116.38 98.825,-116.23 98.825,-112.88 99.245,-111.59 99.625,-111.37 99.884,-111.52 99.505,-111.74 99.095,-113.03 99.095,-116.38 M128.25,-95.493 L128.11,-95.224 127.84,-95.064 127.46,-95.284 126.55,-96.863 100.54,-111.88 M103.65,-111.07 L105.93,-109.75 107.28,-110.52 M106.78,-109.26 L121.42,-100.81 122.76,-101.58 M122.27,-100.32 L124.55,-99.002 125.89,-99.772 M125.39,-98.512 L127.58,-97.243 M70.835,-124.77 L47.264,-111.17 M46.494,-111.92 L46.364,-111.84 46.364,-111.69 47.264,-111.17 47.264,-111.02 48.264,-110.44 48.444,-110.24 49.153,-109.03 M49.243,-109.08 L72.814,-122.68 72.115,-123.9 72.025,-124.02 71.835,-124.2 M46.464,-112.51 L44.175,-113.84 44.175,-114.12 45.135,-114.68 M148.11,-100.88 L148.11,-100.6 148.36,-100.45 148.55,-100.34 153.49,-103.19 153.73,-103.62 153.73,-107.45 153.54,-107.57 153.29,-107.71 153.04,-107.57 153.04,-103.74 M130.13,-98.302 L101.85,-114.63 101.85,-119.69 101.44,-119.93 101.27,-119.84 101.01,-119.68 101.01,-114.33 101.17,-114.05 130.28,-97.233 130.55,-97.393 130.71,-97.483 130.71,-102.85 130.55,-103.13 130.3,-103.28 M39.837,-77.8 L39.117,-78.21 38.957,-78.5 38.957,-83.858 39.217,-84.008 39.387,-84.108 39.797,-83.868 39.797,-78.94 M40.646,-77.33 L67.876,-61.606 M43.775,-76.501 L46.064,-75.181 47.414,-75.951 M46.914,-74.691 L61.549,-66.244 62.888,-67.014 M62.388,-65.754 L64.677,-64.435 66.027,-65.205 M65.527,-63.945 L67.806,-62.626 M20.164,-78.43 L21.324,-79.09 21.573,-79.529 21.573,-83.348 21.374,-83.468 21.124,-83.608 20.874,-83.468 20.874,-79.639 M61.149,-50.68 L61.149,-50.39 61.399,-50.25 61.599,-50.14 66.537,-52.989 66.787,-53.419 66.787,-57.248 66.587,-57.358 66.337,-57.508 66.087,-57.358 66.087,-53.707 M107.12,-128.63 L108.27,-129.3 108.52,-129.73 108.52,-133.56 108.32,-133.67 108.07,-133.81 107.82,-133.67 107.82,-129.84 M69.556,-128.39 L69.966,-128.63 70.036,-128.76 72.125,-129.97 72.125,-130.25 85.85,-122.33 M119.14,-92.525 L119.53,-92.305 119.7,-92.205 123.21,-94.234 123.21,-94.424 M70.945,-129.71 L69.506,-128.87 69.506,-125.24 70.535,-124.6 M71.115,-129.61 L70.945,-129.71 70.945,-129.9 69.946,-130.47 65.987,-128.19 65.987,-123.21 66.157,-123.11 67.057,-122.59 M101.46,-97.693 L97.275,-100.11 M24.402,-71.232 L55.464,-53.288 M55.839,-53.124 L56.636,-52.664 M70.016,-76.211 L69.516,-76.491 66.197,-78.4 65.837,-78.62 M70.665,-76.59 L66.487,-79 M45.025,-114.75 L46.464,-115.58 46.464,-111.94 46.634,-111.84 M46.364,-111.69 L50.143,-113.87 50.143,-118.84 M100,-81.029 L100.16,-80.929 103.68,-82.958 103.68,-83.568 M65.807,-129.98 L65.807,-130.17 67.426,-132.25 67.626,-132.37 67.796,-132.27 67.796,-130.51 M104.77,-126.41 L104.77,-125.02 104.94,-124.96 M49.333,-121.61 L49.333,-119.71 M23.423,-77.9 L23.423,-89.076 M23.453,-89.096 L23.623,-89.026 26.112,-87.596 26.112,-76.74 26.032,-76.62 M142.64,-103.24 L143.43,-102.78 144.1,-101.83 144.43,-101.63 148.5,-103.98 149.17,-105.71 149.17,-116.89 149.37,-117 151.85,-115.57 151.85,-104.55 151.78,-104.43 M110.38,-128.1 L110.38,-139.28 M109.23,-138.62 L110.41,-139.3 110.58,-139.24 113.06,-137.8 113.06,-126.94 112.99,-126.82 M111.48,-109.57 L112.96,-110.43 112.96,-109.83 112.48,-108.99 M113.13,-110.33 L113.13,-109.74 112.64,-108.9 M90.038,-120.96 L92.377,-122.31 92.377,-121.86 M56.64,-99.532 L54.821,-102.69 54.821,-103.29 54.981,-103.38 57.29,-102.05 M58.1,-100.38 L58.1,-100.64 M17.825,-76.211 L17.825,-74.821 17.985,-74.761 M64.897,-62.306 L64.897,-54.349 64.817,-54.229 M57.89,-53.348 L56.481,-52.579 57.14,-51.62 57.48,-51.43 61.539,-53.779 62.208,-55.508 62.208,-60.756 M76.433,-110.96 L74.614,-114.12 74.614,-114.72 74.774,-114.81 77.083,-113.48 M92.767,-122.08 L90.948,-123.13 M90.948,-123.32 L92.937,-122.18 M30.21,-70.933 L57.06,-55.438 59.53,-56.864 M23.423,-88.886 L22.443,-88.316 M52.882,-102.47 L53.132,-102.62 53.132,-102.77 56.141,-104.51 56.411,-104.36 56.79,-104.58 56.79,-108.2 56.72,-108.66 56.511,-109.14 55.921,-110.23 55.061,-111.18 53.981,-111.81 M110.38,-139.09 L109.4,-138.52 M117.17,-121.13 L144.01,-105.64 M78.003,-111.87 L76.203,-115 76.203,-115.79 76.583,-116.01 76.583,-119.62 76.503,-120.08 76.303,-120.56 75.533,-121.89 75.334,-122.18 75.104,-122.42 74.854,-122.6 69.936,-125.45 69.936,-124.97"/>
      <path stroke="#000" d="M71.085,-109.29 L74.174,-111.08 M81.111,-115.08 L99.794,-125.86 M113.2,-126.47 L112.53,-124.74 108.46,-122.4 108.13,-122.59 107.57,-123.38 M146.63,-102.9 L148.79,-101.66 148.79,-102.77 151.59,-104.39 151.92,-104.2 151.37,-102.76 146.54,-99.982 146.21,-100.17 145.65,-100.96 147.49,-102.02 M116.56,-120.26 L112.95,-122.35 M112.62,-122.15 L116.22,-120.07 116.56,-120.26 117.23,-121.22 M111.83,-124.34 L112.62,-123.88 112.62,-122.54 110.66,-123.67 M112.62,-123.88 L115.14,-125.34 M110.33,-123.48 L112.28,-122.35 M110.42,-126.4 L110.97,-127.83 110.64,-128.02 104.71,-124.6 105.26,-123.81 105.59,-123.61 110.42,-126.4 M115.48,-125.15 L114.81,-123.42 110.75,-121.08 110.42,-121.27 109.75,-122.22 108.95,-122.68 M109.75,-122.22 L111.06,-123.06 M26.112,-87.526 L33.382,-83.33 M82.661,-118.75 L69.916,-126.11 69.916,-128.41 70.006,-128.45 83.68,-120.55 M92.147,-102.05 L96.256,-99.522 99.894,-101.62 99.904,-101.77 95.926,-104.23 M104.21,-99.282 L111.34,-95.344 111.34,-95.194 107.69,-93.084 100.56,-97.023 100.56,-97.173 104.21,-99.282 M73.414,-78.18 L69.766,-76.071 69.776,-75.921 74.014,-73.642 77.663,-75.741 77.653,-75.901 73.414,-78.18 M58.47,-82.608 L65.457,-78.4 69.106,-80.509 69.106,-80.659 62.248,-84.787 M113.06,-137.73 L149.17,-116.88 M102.57,-114.79 L102.25,-114.97 M70.025,-130.43 L71.235,-129.74 M103.08,-108.37 L50.643,-78.09 M41.256,-92.345 L54.271,-99.862 M61.269,-103.9 L62.278,-104.48 M70.625,-109.31 L74.054,-111.29 M81.061,-115.33 L100.36,-126.47 M142.51,-104.9 L141.14,-104.1 M100.36,-120.72 L41.426,-86.697 41.346,-86.737 41.346,-89.036 54.931,-96.883 M83.251,-113.24 L98.695,-122.14 M147.59,-103.46 L148.79,-102.77 M148.46,-101.47 L146.3,-102.71 M107.84,-124.91 L110,-123.67 M110.33,-124.97 L109.13,-125.66 M118.83,-105.32 L118.83,-112.03 113.03,-108.68 M66.317,-78.33 L66.317,-73.482 M61.149,-72.022 L61.149,-74.891 M67.207,-82.218 L71.225,-84.538 M73.214,-85.687 L85.37,-92.704 M87.509,-93.934 L91.627,-96.323 M92.877,-97.043 L97.075,-99.462 M100.88,-101.66 L104.91,-103.98 M106.9,-105.13 L107.79,-105.65 M124.84,-95.813 L72.385,-65.535 44.575,-81.589 97.006,-111.87 M72.385,-65.535 L72.385,-64.465 72.325,-64.055 72.145,-63.645 71.885,-63.285 71.555,-63.026 70.036,-62.146 M44.275,-77.76 L42.936,-76.99 41.766,-77.66 M43.195,-76.171 L45.125,-77.28 M44.855,-77.43 L42.936,-76.321 42.936,-76.99 M124.82,-98.172 L126.73,-99.282 M126.47,-99.442 L124.55,-98.332 124.55,-99.002 M144.79,-103.58 L143.43,-102.78 M61.809,-65.415 L63.738,-66.534 M63.468,-66.684 L61.549,-65.575 61.549,-66.244 M46.334,-74.361 L48.254,-75.471 M47.994,-75.621 L46.064,-74.511 46.064,-75.181 M121.69,-99.982 L123.61,-101.09 M123.34,-101.25 L121.42,-100.14 121.42,-100.81 M104.14,-112.33 L102.8,-111.56 101.59,-112.26 M103.07,-110.73 L104.99,-111.84 M104.72,-112 L102.8,-110.89 102.8,-111.56 M16.465,-80.239 L16.765,-80.059 M64.947,-63.605 L66.867,-64.725 M66.607,-64.875 L64.677,-63.765 64.677,-64.435 M106.2,-108.92 L108.12,-110.03 M107.86,-110.19 L105.93,-109.08 105.93,-109.75 M38.687,-88.276 L39.027,-88.466 40.676,-87.506 M98.025,-124.44 L98.025,-122.53 99.685,-121.57 100.01,-121.76 100.15,-121.84 100.15,-123.29 100.18,-123.47 100.28,-123.64 100.41,-123.75 101.51,-124.38 101.51,-124.54 M143.68,-104.22 L140.07,-106.31 139.4,-108.03 M25.662,-73.606 L24.805,-74.1 M23.373,-73.272 L25.332,-72.142 M29.601,-70.063 L25.992,-72.142 M25.662,-71.952 L29.271,-69.873 29.601,-70.063 30.27,-71.013 M145.97,-102.9 L144.01,-104.03 M144.34,-104.22 L146.3,-103.09 146.3,-104.43 M145.5,-104.89 L146.3,-104.43 148.73,-105.83 M26.242,-76.271 L25.572,-74.541 21.504,-72.202 21.174,-72.392 20.619,-73.178 M59.01,-52.699 L57.06,-53.829 M59.339,-54.229 L58.542,-54.689 M54.301,-53.969 L54.191,-53.899 54.861,-52.939 55.191,-52.749 59.25,-55.098 59.919,-56.828 M56.72,-54.019 L53.122,-56.108 52.452,-57.827 52.682,-57.967 M27.861,-73.222 L27.531,-73.412 M28.531,-74.951 L27.861,-73.222 23.793,-70.873 23.463,-71.073 22.793,-72.022 24.159,-72.819 M61.829,-52.569 L64.628,-54.179 64.957,-53.989 64.408,-52.559 59.579,-49.78 59.25,-49.97 58.7,-50.76 60.539,-51.82 M23.463,-76.201 L24.023,-77.63 23.693,-77.82 17.755,-74.391 18.315,-73.602 18.645,-73.412 23.463,-76.201 M61.499,-51.27 L59.339,-52.509 M59.669,-52.699 L61.829,-51.46 61.829,-52.569 60.639,-53.259 M22.183,-75.461 L23.373,-74.771 23.373,-73.662 21.224,-74.901 M20.884,-74.711 L23.043,-73.462 M146.88,-107.03 L146.21,-105.3 142.14,-102.95 141.81,-103.15 141.14,-104.1 111.24,-121.36 M52.642,-111.04 L56.281,-104.75 56.481,-104.86 56.481,-107.57 54.361,-111.22 53.662,-111.63 M49.423,-109.18 L53.062,-102.89 53.262,-103 53.262,-105.71 51.153,-109.37 50.443,-109.77 M38.557,-89.046 L38.187,-88.836 38.557,-88.616 M69.219,-120.61 L72.854,-114.32 73.054,-114.43 73.054,-117.14 70.945,-120.79 70.235,-121.19 M72.434,-122.46 L76.063,-116.18 76.263,-116.29 76.263,-118.99 74.154,-122.65 72.175,-123.79 M100.52,-124.72 L100.44,-124.77 99.495,-124.23 99.285,-123.85 99.285,-122.76 99.365,-122.71 100.52,-124.72 M104.24,-138.42 L104.23,-138.36 104.21,-138.25 104.18,-138.12 104.14,-137.9 104.13,-137.87 104.11,-137.79 104.01,-137.71 103.9,-137.71 103.76,-137.73 103.67,-137.73 M165.01,-103.04 L165.08,-103.13 165.24,-103.16 166.47,-103.17 167.7,-103.17 167.87,-103.13 167.94,-103.04 M4.5598,-80.449 L4.6598,-80.889 M167.61,-102.6 L167.7,-103.16 M103.91,-139.38 L104,-139.94 M1.9108,-80.339 L1.9308,-80.399 1.9308,-80.709 1.9308,-81.229 1.9308,-81.539 M4.4898,-81.599 L4.4698,-81.539 4.4698,-81.229 4.4698,-80.709 4.4698,-80.399 4.4798,-80.349 4.4998,-80.319 4.5298,-80.349 M1.8508,-81.669 L1.8908,-81.739 2.0107,-81.769 2.2107,-81.749 4.1899,-81.749 4.3999,-81.769 4.5098,-81.739 4.5398,-81.669 4.5598,-81.749 M79.752,-91.285 L80.342,-90.945 80.772,-90.695 81.331,-90.375 M80.941,-91.735 L80.512,-91.025 80.422,-90.945 80.342,-90.945 M104.21,-107.04 L104.8,-107.38 M85.78,-120.2 L85.78,-120.47 85.8,-120.5 85.95,-120.58 M83.62,-118.92 L84.54,-119.44 84.59,-119.45 84.62,-119.4 84.62,-119.01 84.64,-118.82 84.72,-118.62 84.83,-118.43 84.96,-118.28 85.12,-118.16 85.54,-117.92 M14.356,-89.456 L14.126,-89.426 13.686,-89.246 13.307,-89.046 13.167,-88.916 M100.69,-139.48 L100.42,-139.35 100.19,-139.21 100.11,-139.12 M149.32,-100.47 L149.11,-100.59 149.1,-100.61 M20.624,-80.479 L19.554,-81.089 18.495,-81.699 18.035,-81.928 17.515,-82.108 16.955,-82.238 16.355,-82.318 15.596,-82.338 14.856,-82.268 14.176,-82.118 13.556,-81.899 13.027,-81.619 12.587,-81.279 12.277,-80.889 12.087,-80.459 M20.624,-82.868 L20.534,-82.918 18.505,-84.068 16.315,-84.707 15.596,-84.727 14.896,-84.667 14.246,-84.528 13.646,-84.328 13.127,-84.078 12.687,-83.768 12.357,-83.408 12.137,-83.008 12.057,-82.508 12.067,-80.239 M107.6,-130.64 L107.57,-130.68 106.51,-131.29 105.45,-131.9 104.91,-132.16 104.3,-132.36 103.65,-132.48 102.95,-132.54 102.21,-132.52 101.51,-132.42 100.87,-132.24 100.29,-132 99.814,-131.71 99.425,-131.36 99.165,-130.98 99.025,-130.55 M153.83,-103.37 L153.83,-103.14 M20.704,-82.988 L20.664,-83.028 19.584,-83.658 18.495,-84.288 17.985,-84.528 17.405,-84.727 16.775,-84.847 16.106,-84.917 15.446,-84.907 14.796,-84.837 14.176,-84.697 13.606,-84.508 13.037,-84.208 12.587,-83.858 12.347,-83.588 12.187,-83.308 12.097,-83.058 M153.73,-106.01 L154.17,-106.26 154.25,-106.28 154.33,-106.26 155.42,-105.63 156.51,-105.01 156.92,-104.72 157.25,-104.4 157.44,-104.12 157.56,-103.82 157.58,-103.77 M153.65,-102.56 L154.41,-103 154.5,-103.02 154.58,-103 156.45,-101.92 155.83,-102.2 155.13,-102.41 154.37,-102.52 153.58,-102.54 M66.707,-52.359 L67.466,-52.799 67.546,-52.819 67.626,-52.799 69.506,-51.72 68.886,-52 68.186,-52.21 67.426,-52.319 66.627,-52.339 M62.568,-49.97 L62.388,-49.87 62.358,-49.81 M60.949,-102.91 L60.949,-103.21 60.949,-103.74 61.049,-104.11 61.249,-103.99 M81.041,-115.42 L80.841,-115.54 80.742,-115.17 80.742,-111.77 81.071,-111.58 M85.91,-118.98 L86.249,-119.17 86.249,-122.57 86.15,-122.94 86,-123.98 85.36,-124.79 85.1,-124.91 84.83,-124.97 84.56,-124.98 84.3,-124.94 84.03,-124.84 83.79,-124.7 83.55,-124.51 83.351,-124.27 83.121,-123.9 M103.17,-135.92 L103.19,-135.86 103.19,-135.21 M103.2,-135.18 L103.39,-135.1 103.91,-135.03 104.63,-134.85 105.27,-134.58 105.45,-134.49 106.54,-133.86 107.62,-133.23 107.65,-133.2 M102.39,-135.94 L102.35,-135.86 102.35,-135.21 102.31,-135.14 102.23,-135.1 101.8,-135.05 101.31,-134.95 100.84,-134.82 100.12,-134.49 99.824,-134.3 99.565,-134.08 99.355,-133.85 99.185,-133.61 99.075,-133.35 99.015,-133.09 M20.324,-80.109 L18.455,-81.189 18.825,-80.939 19.134,-80.649 M107.28,-130.31 L105.4,-131.39 M162.32,-103.78 L162.88,-103.78 162.88,-103.71 M5.1896,-82.868 L6.789,-82.868 M6.789,-83.058 L7.3488,-83.058 7.3488,-82.998 7.2988,-82.708 7.2288,-82.598 7.0889,-82.538 6.9189,-82.578 6.8389,-82.708 6.789,-82.998 6.789,-83.058 M7.3488,-83.048 L9.488,-83.048 9.5979,-83.018 9.6379,-82.958 9.5979,-82.898 9.488,-82.868 7.3488,-82.858 M154.5,-103.52 L154.38,-103.46 153.83,-103.14 153.65,-103.04 M67.546,-53.319 L67.426,-53.259 66.887,-52.939 66.707,-52.829 66.627,-52.819 66.307,-52.789 M151.85,-104.6 L153.04,-103.91 M102.09,-114.5 L102.25,-114.59 130.07,-98.532 129.9,-98.432 M130.3,-98.392 L130.3,-103.44 M64.877,-43.983 L64.937,-43.953 65.467,-43.953 M10.568,-81.159 L10.638,-81.299 10.797,-81.349 12.057,-81.349 M157.05,-108.68 L156.99,-108.7 156.74,-108.55 M168.68,-103.96 L159.1,-103.96 159.1,-104.25 159.03,-104.39 158.87,-104.44 157.49,-104.44 157.1,-104.76 M59.818,-103.4 L61.049,-104.11 61.109,-105.33 61.329,-106.07 M61.349,-103.38 L61.349,-103.51 61.249,-103.99 61.299,-105.18 61.529,-105.91 M60.949,-103.74 L59.729,-103.03 M84.53,-117.33 L84.09,-117.92 83.71,-118.46 83.111,-118.76 82.741,-118.77 82.351,-118.69 81.981,-118.53 81.651,-118.3 80.951,-117.02 80.841,-115.54 79.612,-114.83 M80.742,-115.17 L79.512,-114.45 M79.492,-89.306 L74.784,-92.025 M104.73,-140.88 L100.81,-140.88 M85.95,-122.82 L86.15,-122.94 88.219,-121.74 M4.6498,-80.839 L5.1096,-80.839 M5.1296,-80.799 L5.1896,-80.799 5.1896,-83.098 M124.17,-113.9 L124.17,-111.62 M124.22,-111.6 L124.17,-111.62 124.01,-111.53 M105.09,-114 L105.09,-113.64 M58.36,-99.272 L55.021,-97.333 M59.819,-98.422 L58.36,-99.272 58.36,-99.702 M78.152,-110.7 L74.804,-108.76 M79.612,-109.85 L78.152,-110.7 78.152,-111.14 M94.866,-78.2 L94.586,-78.35 M64.907,-46.322 L68.066,-46.322 68.886,-46.322 M164.48,-103.82 L164.48,-101.51 164.54,-101.51 M127.07,-101.57 L127.07,-100.39 127.13,-100.28 128.11,-99.722 128.94,-99.242 129.81,-98.732 130.15,-98.542 M85.63,-149.26 L84.64,-154.08 84.57,-154.31 84.47,-154.5 84.34,-154.66 84.18,-154.78 M81.001,-145.95 L81.461,-145.98 81.601,-146.03 83.241,-146.98 M81.721,-151.71 L81.901,-151.65 82.091,-151.65 82.291,-151.7 82.501,-151.81 82.911,-152.14 83.271,-152.64 83.501,-153.19 83.56,-153.46 83.58,-153.71 83.55,-153.94 83.491,-154.14 83.381,-154.29 M83.628,-151.91 L83.898,-152.28 84.128,-152.83 84.188,-153.1 84.208,-153.35 84.178,-153.58 84.118,-153.78 84.008,-153.93 M64.897,-58.587 L66.687,-57.548 66.687,-57.997 64.897,-59.027 M64.897,-58.397 L66.537,-57.448 66.667,-57.528 M151.85,-108.79 L153.64,-107.76 M81.371,-152.42 L81.451,-152.3 81.551,-152.21 81.681,-152.17 81.821,-152.16 81.981,-152.19 82.151,-152.27 82.481,-152.54 82.751,-152.9 82.931,-153.32 83.001,-153.74 82.981,-153.92 82.931,-154.08 82.851,-154.2 82.751,-154.28 82.621,-154.33 82.481,-154.34 82.321,-154.3 M71.745,-109.27 L74.354,-110.78 M81.071,-114.66 L99.185,-125.11 99.854,-125.5 102.02,-124.24 100.36,-123.28 100.36,-119.32 100.3,-118.92 100.12,-118.51 97.295,-113.61 97.115,-113.2 97.055,-112.8 97.055,-112 M68.926,-130.51 L68.926,-132.73 M93.887,-136.48 L93.817,-136.43 93.687,-136.46 93.077,-136.71 92.567,-136.82 92.107,-136.87 91.617,-136.85 91.118,-136.77 90.618,-136.63 90.128,-136.42 89.648,-136.16 89.178,-135.83 89.028,-135.7 M85.42,-131.69 L86.239,-132.16 M98.025,-122.53 L98.365,-122.72 M85.81,-149.57 L85.87,-149.58 86.09,-149.67 86.309,-149.82 86.699,-150.21 87.009,-150.72 87.109,-151 87.189,-151.28 87.219,-151.63 87.169,-151.92 87.059,-152.15 86.879,-152.3 86.609,-152.37 86.289,-152.3 86.2,-152.26 M153.39,-103.48 L151.85,-104.37 M159.37,-103.51 L159.37,-103.16 159.37,-103.1 M159.37,-103.06 L159.37,-102.28 159.41,-102.21 159.49,-102.19 159.96,-102.19 M96.186,-104.38 L111.09,-95.773 111.09,-95.583 111.09,-95.483 M111.09,-95.583 L96.016,-104.29 M64.568,-54.149 L62.408,-55.388 M62.098,-55.208 L62.408,-55.388 62.408,-55.618 M149.37,-117 L149.37,-117.23 M149.05,-105.41 L149.37,-105.59 149.37,-105.82 M23.423,-87.526 L20.704,-89.096 M110.38,-137.73 L107.65,-139.3 M107.49,-130.53 L107.49,-130.21 107.49,-129.98 107.07,-129.73 M110.38,-128.31 L108.37,-129.47 M20.544,-80.459 L20.544,-79.999 20.544,-79.769 20.114,-79.529 M23.423,-78.11 L21.414,-79.269 M62.498,-84.937 L77.413,-76.331 77.413,-76.141 77.413,-76.031 M41.986,-78.34 L43.515,-79.219 43.705,-79.359 43.895,-79.539 44.055,-79.759 44.185,-79.999 44.305,-80.339 44.345,-80.649 44.345,-82.368 44.275,-82.698 44.205,-82.818 M41.026,-91.915 L41.026,-92.714 M68.136,-61.276 L68.296,-61.246 68.476,-61.276 68.676,-61.356 69.766,-61.996 70.006,-61.856 68.906,-61.226 68.716,-61.146 68.536,-61.116 68.366,-61.146 68.236,-61.236 68.006,-61.366 67.886,-61.566 67.846,-61.836 67.846,-62.036 M117.1,-99.132 L102.09,-107.79 M100.3,-106.76 L115.87,-97.773 M51.153,-120.33 L50.663,-120.61 M50.663,-121 L51.322,-120.61 M69.616,-130.99 L69.126,-131.28 M69.126,-131.66 L69.786,-131.28 M125.25,-95.344 L125.33,-95.234 125.48,-95.214 125.64,-95.264 125.8,-95.393 125.94,-95.583 126.04,-95.813 126.07,-96.013 126.04,-96.183 125.94,-96.293 125.8,-96.323 125.64,-96.263 125.48,-96.133 125.33,-95.943 125.25,-95.723 125.22,-95.513 125.25,-95.344 M97.195,-111.54 L97.295,-111.43 97.435,-111.4 97.595,-111.46 97.765,-111.59 97.905,-111.78 97.995,-112 98.025,-112.21 97.995,-112.38 97.905,-112.49 97.765,-112.51 97.595,-112.46 97.435,-112.33 97.295,-112.14 97.195,-111.92 97.165,-111.71 97.195,-111.54 M42.436,-79.919 L42.526,-79.809 42.676,-79.779 42.836,-79.839 42.996,-79.969 43.135,-80.159 43.235,-80.379 43.265,-80.589 43.235,-80.759 43.135,-80.869 42.996,-80.889 42.836,-80.839 42.676,-80.709 42.526,-80.509 42.436,-80.299 42.406,-80.089 42.436,-79.919 M70.475,-63.725 L70.575,-63.615 70.715,-63.595 70.875,-63.645 71.045,-63.775 71.185,-63.965 71.275,-64.185 71.315,-64.395 71.275,-64.565 71.185,-64.675 71.045,-64.705 70.875,-64.645 70.715,-64.515 70.575,-64.325 70.475,-64.105 70.445,-63.895 70.475,-63.725 M99.685,-112.98 L99.784,-112.87 99.924,-112.84 100.08,-112.9 100.24,-113.03 100.39,-113.22 100.48,-113.44 100.51,-113.64 100.48,-113.81 100.39,-113.92 100.24,-113.95 100.08,-113.89 99.924,-113.76 99.784,-113.57 99.685,-113.35 99.655,-113.15 99.685,-112.98 M127.73,-96.783 L127.82,-96.673 127.96,-96.643 128.13,-96.703 128.29,-96.833 128.43,-97.023 128.53,-97.243 128.56,-97.453 128.53,-97.613 128.43,-97.723 128.29,-97.753 128.13,-97.693 127.96,-97.563 127.82,-97.373 127.73,-97.153 127.7,-96.953 127.73,-96.783 M77.953,-93.864 L80.812,-92.215 81.031,-92.135 81.231,-92.175 M99.505,-106.3 L102.35,-104.65 102.58,-104.58 102.77,-104.61 M99.675,-111.64 L100.76,-112.28 101.02,-112.47 101.25,-112.74 101.43,-113.06 101.55,-113.39 101.59,-113.71 101.59,-113.81 M97.395,-110.51 L97.625,-110.51 97.885,-110.61 99.405,-111.49 M99.63,-111.37 L99.635,-111.36 98.115,-110.48 97.855,-110.37 97.625,-110.38 97.395,-110.51 97.205,-110.62 97.095,-110.82 97.055,-111.09 97.055,-111.28"/>
      <path stroke="#000" d="M101.85,-114.63 L102.02,-114.73 102.02,-126.5 M127.71,-95.443 L128.81,-96.083 129.06,-96.273 129.3,-96.553 129.48,-96.863 129.59,-97.193 129.64,-97.513 M125.43,-94.314 L125.66,-94.314 125.92,-94.414 127.45,-95.294 127.73,-95.443 128.11,-95.224 M127.45,-95.294 L127.68,-95.164 126.15,-94.284 125.9,-94.184 125.67,-94.184 125.43,-94.314 125.29,-94.384 125.19,-94.514 125.12,-94.684 125.1,-94.894 125.1,-95.084 M88.649,-146.61 L88.998,-147.32 88.948,-147.54 M88.439,-150.02 L88.009,-152.14 87.939,-152.37 87.839,-152.56 87.709,-152.72 M88.879,-100.16 L88.958,-100.14 89.508,-100.07 90.028,-100.13 90.488,-100.3 90.668,-100.42 90.808,-100.56 90.918,-100.82 90.898,-101.02 90.808,-101.2 90.758,-101.25 M53.392,-102.47 L53.392,-101.83 55.201,-98.702 M76.403,-115.9 L76.403,-115.12 78.282,-111.86 M51.093,-78.35 L51.542,-77.57 M52.322,-79.06 L53.991,-76.151 M84.56,-141.31 L83.411,-127.37 M82.981,-127.13 L84.19,-141.79 M82.161,-151.64 L78.182,-145.2 78.103,-144.99 78.093,-144.77 78.143,-144.55 78.252,-144.37 M87.179,-145.8 L87.539,-145.54 87.659,-145.46 88.938,-144.73 89.038,-144.68 M87.309,-149.32 L86.949,-150.03 86.689,-150.19 87.179,-149.2 M83.061,-152.28 L83.75,-148.52 83.91,-148.25 84.24,-147.94 M62.808,-75.851 L54.781,-80.479 M111.37,-116.33 L111.37,-110.75 110.89,-109.91 M59.479,-72.982 L61.149,-73.941 M33.379,-83.018 L39.367,-86.477 M56.61,-104.47 L56.61,-103.69 58.42,-100.56 M73.184,-113.89 L73.184,-113.26 74.994,-110.13 M41.496,-76.84 L33.379,-72.152 33.379,-72.452 41.236,-76.99 M63.248,-64.285 L55.121,-59.597 55.121,-59.897 62.978,-64.435 M89.318,-120.09 L90.788,-122.63 90.788,-128.58 90.738,-129.09 90.608,-129.53 90.388,-129.87 M114.56,-109.56 L114.56,-114.5 M120.65,-114.29 L120.58,-114.79 120.41,-115.31 120.15,-115.82 119.83,-116.29 M94.726,-100.46 L95.056,-98.292 M93.547,-97.423 L92.917,-101.58 M88.229,-131.54 L88.049,-131.39 88.009,-131.32 M43.135,-78.73 L69.136,-63.715 70.036,-62.166 M69.136,-63.715 L68.876,-63.565 M70.435,-61.916 L70.055,-62.136 69.786,-61.986 M41.406,-79.729 L41.146,-79.569 M41.826,-78.43 L41.556,-78.28 M101.05,-111.9 L126.82,-97.023 127.71,-95.463 M126.82,-97.023 L126.55,-96.863 M99.095,-113.03 L98.825,-112.88 M99.505,-111.74 L99.245,-111.59 M44.175,-113.84 L46.264,-115.04 46.334,-115 M148.36,-100.45 L153.29,-103.3 153.54,-103.74 153.54,-107.57 M101.01,-114.33 L101.27,-114.49 M101.44,-114.2 L101.17,-114.05 M101.27,-119.84 L101.27,-114.49 101.44,-114.2 130.55,-97.393 M38.957,-78.5 L39.217,-78.65 M39.387,-78.37 L39.117,-78.21 M67.846,-61.941 L40.946,-77.47 M39.217,-84.008 L39.217,-78.65 39.387,-78.37 39.797,-78.13 M20.224,-78.69 L21.124,-79.209 21.374,-79.639 21.374,-83.468 M61.399,-50.25 L66.337,-53.099 66.587,-53.529 66.587,-57.358 M107.17,-128.89 L108.07,-129.41 108.32,-129.84 108.32,-133.67 M72.125,-129.97 L85.91,-122 M65.987,-123.21 L69.506,-125.24 M99.774,-101.55 L100.16,-101.32 103.47,-99.402 103.31,-99.312 99.994,-101.22 99.615,-101.46 M96.796,-99.832 L97.175,-99.592 100.49,-97.683 100.32,-97.583 97.015,-99.502 96.626,-99.732 M65.997,-78.71 L66.367,-78.5 69.676,-76.58 70.185,-76.311 M68.816,-80.339 L69.176,-80.119 72.495,-78.21 72.665,-78.31 69.346,-80.219 68.986,-80.439 M46.464,-111.94 L49.983,-113.97 M46.464,-115.39 L45.185,-114.65 45.025,-114.75 45.025,-114.94 46.014,-116.66 49.983,-118.94 49.983,-113.97 50.143,-113.87 51.043,-113.35 M103.68,-82.958 L103.51,-83.058 103.15,-83.268 M104.97,-124.98 L104.97,-126.3 M23.453,-77.92 L23.623,-78.17 23.623,-89.026 23.623,-89.416 M151.85,-104.55 L149.37,-105.98 M149.2,-105.73 L149.37,-105.98 149.37,-116.84 M110.41,-128.12 L110.58,-128.37 110.58,-139.24 M54.981,-103.38 L54.981,-102.79 56.81,-99.632 M18.025,-74.781 L18.025,-76.101 M62.238,-55.528 L62.408,-55.778 62.408,-60.876 M74.774,-114.81 L74.774,-114.22 76.593,-111.06 M23.423,-88.576 L22.713,-88.166 M53.132,-102.62 L55.731,-101.11 M114.51,-109.53 L111.54,-111.25 M111.54,-111.44 L114.56,-109.7 M110.38,-138.78 L109.66,-138.37 M76.203,-115.64 L75.933,-115.79 72.914,-114.05 75.523,-112.54 M112.53,-124.74 L112.19,-124.94 M108.13,-122.59 L112.19,-124.94 112.75,-126.37 M151.37,-102.76 L151.03,-102.96 M146.21,-100.17 L151.03,-102.96 151.59,-104.39 M110.42,-126.4 L110.09,-126.59 M105.26,-123.81 L110.09,-126.59 110.64,-128.02 M114.81,-123.42 L114.48,-123.61 M110.42,-121.27 L114.48,-123.61 115.15,-125.34 115.02,-125.27 M66.438,-53.273 L64.897,-54.169 62.408,-55.618 62.208,-55.508 26.112,-76.351 23.373,-74.771 M84.91,-117.55 L84.01,-118.08 M151.49,-104.37 L113.06,-126.55 110.95,-127.77 M100.1,-110.09 L47.654,-79.809 M127.03,-100.59 L126.98,-100.61 126.98,-101.52 M69.306,-67.314 L121.75,-97.593 M71.585,-64.765 L72.385,-65.225 44.575,-81.289 M141.81,-103.15 L145.88,-105.49 146.55,-107.22 143.99,-105.65 M145.88,-105.49 L146.21,-105.3 M123.81,-114.11 L123.81,-102.45 M124.01,-102.34 L124.01,-114 M66.117,-78.45 L66.117,-73.592 M66.117,-72.152 L66.117,-69.153 M66.317,-72.042 L66.317,-69.033 118.77,-99.312 M144.1,-101.83 L148.17,-104.17 148.84,-105.9 148.7,-105.82 M148.17,-104.17 L148.5,-103.98 M98.365,-124.63 L98.365,-122.72 100.01,-121.76 M140.4,-106.5 L140.07,-106.31 M139.73,-108.23 L140.4,-106.5 144.01,-104.42 144.01,-105.76 M25.572,-74.541 L25.242,-74.731 M21.174,-72.392 L25.242,-74.731 25.792,-76.171 M54.861,-52.939 L58.92,-55.288 59.589,-57.018 M58.92,-55.288 L59.25,-55.098 M53.452,-56.298 L53.122,-56.108 M52.837,-57.875 L53.452,-56.298 57.06,-54.209 57.06,-55.438 M23.463,-71.073 L27.531,-73.412 28.201,-75.141 25.662,-73.682 25.662,-72.342 23.703,-73.462 M64.408,-52.559 L64.078,-52.749 M59.25,-49.97 L64.078,-52.749 64.628,-54.179 M23.463,-76.201 L23.133,-76.391 M18.315,-73.602 L23.133,-76.391 23.693,-77.82 M57.14,-51.62 L61.209,-53.969 61.879,-55.698 59.339,-54.229 59.339,-52.889 57.39,-54.019 M61.209,-53.969 L61.539,-53.779 M105.27,-125.15 L105.27,-126.13 M52.842,-111.16 L56.481,-104.86 M49.623,-109.3 L53.262,-103 M69.417,-120.72 L73.054,-114.43 M72.635,-122.58 L76.263,-116.29"/>
    </g>
  </g>
  <g id="AUTOID_004" vm2d:name="" vm2d:type="layer">
    <g>
      <g transform="matrix(3.78095,0,0,3.78095,0.119049,794)" stroke-width="0.95" stroke-linecap="round" stroke-linejoin="miter" stroke-miterlimit="10">
        <path stroke="#fff" d="M81.426,-162.15 L88.111,-149.73"/>
        <path stroke="#fff" stroke-width="0.8" stroke-linejoin="round" d="M88.581,-149.73 C88.581,-149.47 88.371,-149.26 88.111,-149.26 87.852,-149.26 87.641,-149.47 87.641,-149.73 87.641,-149.99 87.852,-150.2 88.111,-150.2 88.371,-150.2 88.581,-149.99 88.581,-149.73 Z"/>
        <path stroke="#fff" d="M81.426,-162.15 L80.632,-145.83"/>
        <path stroke="#fff" stroke-width="0.8" stroke-linejoin="round" d="M81.102,-145.83 C81.102,-145.57 80.892,-145.36 80.632,-145.36 80.373,-145.36 80.162,-145.57 80.162,-145.83 80.162,-146.09 80.373,-146.3 80.632,-146.3 80.892,-146.3 81.102,-146.09 81.102,-145.83 Z"/>
        <path stroke="#000" stroke-width="0.15" d="M81.426,-162.15 L88.111,-149.73"/>
        <path fill="#000" d="M88.581,-149.73 C88.581,-149.47 88.371,-149.26 88.111,-149.26 87.852,-149.26 87.641,-149.47 87.641,-149.73 87.641,-149.99 87.852,-150.2 88.111,-150.2 88.371,-150.2 88.581,-149.99 88.581,-149.73 Z"/>
        <path stroke="#000" stroke-width="0.15" d="M81.426,-162.15 L80.632,-145.83"/>
        <path fill="#000" d="M81.102,-145.83 C81.102,-145.57 80.892,-145.36 80.632,-145.36 80.373,-145.36 80.162,-145.57 80.162,-145.83 80.162,-146.09 80.373,-146.3 80.632,-146.3 80.892,-146.3 81.102,-146.09 81.102,-145.83 Z"/>
        <text font-family="Arial" font-size="2.86" x="69.1183" y="-166.072" fill="#000">СВЕТОДИОДНЫЙ</text>
        <text font-family="Arial" font-size="2.86" x="66.6508" y="-162.789" fill="#000">ПРОЖЕКТОР БАШНИ</text>
      </g>
    </g>
    <a id="AUTOID_005" vm2d:name="СВЕТОДИОДНЫЙ ПРОЖЕКТОР БАШНИ" vm2d:type="grobject" xlink:href="#">
      <path d="M248.74,156.18 L367.24,156.18 367.24,180.93 248.74,180.93 Z" fill="#fff" fill-opacity="0"/>
    </a>
    <g>
      <g transform="matrix(3.78095,0,0,3.78095,0.119049,794)" stroke-width="0.95" stroke-linecap="round" stroke-linejoin="miter" stroke-miterlimit="10">
        <path stroke="#fff" d="M74.611,-34.958 L67.44,-47.253"/>
        <path stroke="#fff" stroke-width="0.8" stroke-linejoin="round" d="M67.91,-47.253 C67.91,-46.994 67.699,-46.783 67.44,-46.783 67.18,-46.783 66.97,-46.994 66.97,-47.253 66.97,-47.513 67.18,-47.723 67.44,-47.723 67.699,-47.723 67.91,-47.513 67.91,-47.253 Z"/>
        <path stroke="#000" stroke-width="0.15" d="M74.611,-34.958 L67.44,-47.253"/>
        <path fill="#000" d="M67.91,-47.253 C67.91,-46.994 67.699,-46.783 67.44,-46.783 67.18,-46.783 66.97,-46.994 66.97,-47.253 66.97,-47.513 67.18,-47.723 67.44,-47.723 67.699,-47.723 67.91,-47.513 67.91,-47.253 Z"/>
        <text font-family="Arial" font-size="2.86" x="62.3033" y="-32.3366" fill="#000">СВЕТОДИОДНЫЙ</text>
        <text font-family="Arial" font-size="2.86" x="60.3028" y="-29.0536" fill="#000">ПРОЖЕКТОР ЗАМКА</text>
      </g>
    </g>
    <a id="AUTOID_006" vm2d:name="СВЕТОДИОДНЫЙ ПРОЖЕКТОР ЗАМКА" vm2d:type="grobject" xlink:href="#">
      <path d="M222.97,661.82 L341.47,661.82 341.47,686.58 222.97,686.58 Z" fill="#fff" fill-opacity="0"/>
    </a>
    <g>
      <g transform="matrix(3.78095,0,0,3.78095,0.119049,794)" stroke-width="0.95" stroke-linecap="round" stroke-linejoin="miter" stroke-miterlimit="10">
        <path stroke="#fff" d="M17.479,-66.377 L8.499,-80.287"/>
        <path stroke="#fff" stroke-width="0.8" stroke-linejoin="round" d="M8.969,-80.287 C8.969,-80.027 8.7586,-79.817 8.499,-79.817 8.2394,-79.817 8.029,-80.027 8.029,-80.287 8.029,-80.546 8.2394,-80.757 8.499,-80.757 8.7586,-80.757 8.969,-80.546 8.969,-80.287 Z"/>
        <path stroke="#000" stroke-width="0.15" d="M17.479,-66.377 L8.499,-80.287"/>
        <path fill="#000" d="M8.969,-80.287 C8.969,-80.027 8.7586,-79.817 8.499,-79.817 8.2394,-79.817 8.029,-80.027 8.029,-80.287 8.029,-80.546 8.2394,-80.757 8.499,-80.757 8.7586,-80.757 8.969,-80.546 8.969,-80.287 Z"/>
        <text font-family="Arial" font-size="2.86" x="5.17098" y="-63.7557" fill="#000">СВЕТОДИОДНЫЙ</text>
        <text font-family="Arial" font-size="2.86" x="3.1705" y="-60.4727" fill="#000">ПРОЖЕКТОР ЗАМКА</text>
      </g>
    </g>
    <a id="AUTOID_007" vm2d:name="СВЕТОДИОДНЫЙ ПРОЖЕКТОР ЗАМКА" vm2d:type="grobject" xlink:href="#">
      <path d="M6.9563,543.03 L125.46,543.03 125.46,567.78 6.9563,567.78 Z" fill="#fff" fill-opacity="0"/>
    </a>
    <g>
      <g transform="matrix(3.78095,0,0,3.78095,0.119049,794)" stroke-width="0.95" stroke-linecap="round" stroke-linejoin="miter" stroke-miterlimit="10">
        <path stroke="#fff" d="M152.87,-126.35 L163.3,-103.11"/>
        <path stroke="#fff" stroke-width="0.8" stroke-linejoin="round" d="M163.77,-103.11 C163.77,-102.85 163.56,-102.64 163.3,-102.64 163.04,-102.64 162.83,-102.85 162.83,-103.11 162.83,-103.37 163.04,-103.58 163.3,-103.58 163.56,-103.58 163.77,-103.37 163.77,-103.11 Z"/>
        <path stroke="#000" stroke-width="0.15" d="M152.87,-126.35 L163.3,-103.11"/>
        <path fill="#000" d="M163.77,-103.11 C163.77,-102.85 163.56,-102.64 163.3,-102.64 163.04,-102.64 162.83,-102.85 162.83,-103.11 162.83,-103.37 163.04,-103.58 163.3,-103.58 163.56,-103.58 163.77,-103.37 163.77,-103.11 Z"/>
        <text font-family="Arial" font-size="2.86" x="140.561" y="-130.272" fill="#000">СВЕТОДИОДНЫЙ</text>
        <text font-family="Arial" font-size="2.86" x="138.561" y="-126.989" fill="#000">ПРОЖЕКТОР ЗАМКА</text>
      </g>
    </g>
    <a id="AUTOID_008" vm2d:name="СВЕТОДИОДНЫЙ ПРОЖЕКТОР ЗАМКА" vm2d:type="grobject" xlink:href="#">
      <path d="M518.86,291.54 L637.36,291.54 637.36,316.29 518.86,316.29 Z" fill="#fff" fill-opacity="0"/>
    </a>
    <g>
      <g transform="matrix(3.78095,0,0,3.78095,0.119049,794)" stroke-width="0.95" stroke-linecap="round" stroke-linejoin="miter" stroke-miterlimit="10">
        <path stroke="#fff" d="M115.74,-152.62 L102.69,-138.11"/>
        <path stroke="#fff" stroke-width="0.8" stroke-linejoin="round" d="M103.16,-138.11 C103.16,-137.85 102.95,-137.64 102.69,-137.64 102.43,-137.64 102.22,-137.85 102.22,-138.11 102.22,-138.37 102.43,-138.58 102.69,-138.58 102.95,-138.58 103.16,-138.37 103.16,-138.11 Z"/>
        <path stroke="#000" stroke-width="0.15" d="M115.74,-152.62 L102.69,-138.11"/>
        <path fill="#000" d="M103.16,-138.11 C103.16,-137.85 102.95,-137.64 102.69,-137.64 102.43,-137.64 102.22,-137.85 102.22,-138.11 102.22,-138.37 102.43,-138.58 102.69,-138.58 102.95,-138.58 103.16,-138.37 103.16,-138.11 Z"/>
        <text font-family="Arial" font-size="2.86" x="103.436" y="-156.545" fill="#000">СВЕТОДИОДНЫЙ</text>
        <text font-family="Arial" font-size="2.86" x="101.435" y="-153.262" fill="#000">ПРОЖЕКТОР ЗАМКА</text>
      </g>
    </g>
    <a id="AUTOID_009" vm2d:name="СВЕТОДИОДНЫЙ ПРОЖЕКТОР ЗАМКА" vm2d:type="grobject" xlink:href="#">
      <path d="M378.49,192.2 L496.99,192.2 496.99,216.95 378.49,216.95 Z" fill="#fff" fill-opacity="0"/>
    </a>
  </g>
</svg>
