<?xml version="1.0" encoding="UTF-8" standalone="no"?>
<!DOCTYPE svg SYSTEM "http://www.w3.org/Graphics/SVG/1.1/DTD/svg11.dtd" [
<!ENTITY % SVG.External.attrib
"xmlns:vm2d CDATA #FIXED 'http://www.cortona3d.com/vm2d'
vm2d:name CDATA #IMPLIED
vm2d:type CDATA #IMPLIED">
]>
<svg xmlns="http://www.w3.org/2000/svg" xmlns:vm2d="http://www.cortona3d.com/vm2d" xmlns:xlink="http://www.w3.org/1999/xlink" version="1.1" width="170mm" height="222mm" viewBox="0 0 643 840" fill="none" fill-rule="evenodd" stroke-miterlimit="5">
  <title>ICN-SCOOTER-A-0101000-0-ECIAS-00000-A-003-01</title>
  <desc>"Generator:ParallelGraphics Cortona2D","ProfileId:WebCGM""ProfileEd:2.1""ColourClass:colour""Source:Cortona2D Editor Pro 14.2.0.142""Date:20250507"</desc>
  <rect width="643" height="840" fill="#fff"/>
  <defs/>
  <g id="C3DB0001" vm2d:name="Background" vm2d:type="layer"/>
  <g id="C3DG0001" vm2d:name="Drawing" vm2d:type="layer">
    <g transform="matrix(3.78235,0,0,3.78235,-0,839.841)" stroke-width="0.18" stroke-linecap="round" stroke-linejoin="round" stroke-miterlimit="10">
      <path stroke="#000" d="M84.274,-87.092 C84.274,-87.092 84.268,-87.096 84.265,-87.098 84.237,-87.116 84.208,-87.134 84.179,-87.15 84.12,-87.182 84.061,-87.208 84.001,-87.228 83.881,-87.267 83.762,-87.281 83.653,-87.268 83.628,-87.245 83.603,-87.222 83.578,-87.199 83.465,-87.197 83.377,-87.164 83.313,-87.102 83.267,-87.057 83.234,-86.996 83.213,-86.919 83.205,-86.889 83.199,-86.856 83.195,-86.821 83.193,-86.803 83.191,-86.785 83.19,-86.767 83.189,-86.748 83.189,-86.729 83.189,-86.71 83.189,-86.696 83.19,-86.667 83.19,-86.667 M87.34,-85.376 L87.343,-89.177 C87.348,-89.206 87.352,-89.236 87.353,-89.265 87.381,-89.735 86.929,-90.174 86.181,-90.401 85.433,-90.629 84.517,-90.607 83.808,-90.345 83.739,-89.977 83.375,-89.644 82.816,-89.437 82.806,-89.388 82.803,-89.338 82.804,-89.288 82.814,-88.935 83.095,-88.6 83.578,-88.367 M84.273,-85.503 C84.41,-85.53 84.538,-85.597 84.639,-85.694 85.022,-86.061 84.867,-86.605 84.274,-86.969 84.274,-87.359 84.274,-87.747 84.274,-88.137 84.3,-88.16 84.324,-88.182 84.349,-88.205 84.117,-88.282 83.886,-88.359 83.653,-88.436 83.628,-88.413 83.603,-88.39 83.578,-88.367 83.578,-87.977 83.578,-87.589 83.578,-87.199 M83.651,-84.634 L84.272,-84.429 M82.802,-85.512 C82.802,-85.503 82.802,-85.495 82.802,-85.487 82.812,-85.134 83.093,-84.799 83.576,-84.566 83.601,-84.589 83.626,-84.611 83.651,-84.634 83.651,-84.802 83.651,-84.969 83.651,-85.136 M82.802,-86.313 L82.804,-89.288 M87.353,-89.265 C87.353,-87.996 87.352,-86.734 87.351,-85.464 87.35,-85.434 87.346,-85.405 87.34,-85.376 86.781,-85.169 86.417,-84.836 86.348,-84.467 85.736,-84.241 84.962,-84.192 84.272,-84.336 84.273,-84.726 84.273,-85.113 84.273,-85.503 84.298,-85.526 84.323,-85.549 84.348,-85.572 84.32,-85.568 84.292,-85.567 84.265,-85.567 84.237,-85.567 84.183,-85.572 84.183,-85.572 M84.846,-86.179 C84.846,-86.179 84.147,-85.539 83.798,-85.22 83.694,-85.124 83.54,-85.088 83.373,-85.118 83.205,-85.149 83.037,-85.243 82.906,-85.381 82.613,-85.689 82.575,-86.105 82.818,-86.328 83.159,-86.64 83.842,-87.264 83.842,-87.264 M75.98,-66.47 C75.98,-66.733 75.856,-67.023 75.643,-67.256 75.43,-67.488 75.152,-67.638 74.89,-67.66 74.446,-67.699 74.162,-67.371 74.236,-66.907 74.31,-66.443 74.718,-65.998 75.174,-65.884 75.629,-65.77 75.98,-66.025 75.98,-66.47 Z M75.054,-66.824 L75.054,-67.251 75.151,-67.219 75.151,-66.792 75.59,-66.646 75.59,-66.551 75.151,-66.697 M75.054,-66.729 L74.615,-66.874 74.615,-66.969 75.054,-66.824 75.151,-66.913 M75.976,-66.866 C75.976,-66.866 76.921,-67.746 77.404,-68.173 77.413,-68.181 77.422,-68.189 77.43,-68.198 77.438,-68.207 77.445,-68.217 77.452,-68.227 77.459,-68.237 77.465,-68.247 77.47,-68.258 77.476,-68.27 77.481,-68.281 77.485,-68.293 77.489,-68.305 77.492,-68.318 77.495,-68.33 77.498,-68.343 77.5,-68.357 77.502,-68.37 77.503,-68.384 77.504,-68.397 77.504,-68.411 77.504,-68.425 77.503,-68.44 77.502,-68.454 77.5,-68.468 77.498,-68.483 77.495,-68.497 77.492,-68.512 77.489,-68.527 77.485,-68.541 77.481,-68.556 77.476,-68.571 77.47,-68.586 77.465,-68.601 77.459,-68.615 77.452,-68.63 77.445,-68.645 77.438,-68.659 77.43,-68.673 77.422,-68.687 77.413,-68.702 77.404,-68.715 77.395,-68.729 77.385,-68.743 77.375,-68.756 77.365,-68.769 77.354,-68.782 77.343,-68.795 77.332,-68.807 77.321,-68.819 77.309,-68.831 77.297,-68.843 77.285,-68.854 77.272,-68.865 77.259,-68.876 77.246,-68.886 77.233,-68.896 77.22,-68.905 77.206,-68.915 77.192,-68.923 77.179,-68.932 77.165,-68.94 77.151,-68.947 77.137,-68.955 77.123,-68.961 77.108,-68.968 77.094,-68.974 77.08,-68.979 77.065,-68.984 77.051,-68.989 77.036,-68.993 77.022,-68.996 77.008,-68.999 76.994,-69.002 76.979,-69.004 76.966,-69.006 76.952,-69.007 76.938,-69.008 76.924,-69.008 76.911,-69.008 76.897,-69.007 76.884,-69.006 76.871,-69.004 76.858,-69.002 76.846,-68.999 76.833,-68.996 76.821,-68.992 76.809,-68.989 76.798,-68.984 76.787,-68.979 76.776,-68.974 76.765,-68.968 76.755,-68.961 76.744,-68.955 76.735,-68.948 76.726,-68.94 76.239,-68.509 75.285,-67.621 75.285,-67.621 M75.116,-78.757 C75.116,-78.757 75.07,-78.817 75.046,-78.847 75.032,-78.865 75.016,-78.882 75,-78.899 74.947,-78.953 74.879,-78.964 74.806,-78.953 74.703,-78.938 74.601,-78.922 74.498,-78.906 74.453,-78.899 74.406,-78.871 74.371,-78.831 74.336,-78.79 74.315,-78.74 74.315,-78.694 74.309,-78.137 74.309,-77.579 74.314,-77.022 74.315,-76.915 74.427,-76.751 74.62,-76.575 74.814,-76.399 75.067,-76.23 75.311,-76.114 75.84,-75.864 76.506,-75.714 77.203,-75.689 77.605,-75.674 77.994,-75.728 78.393,-75.755 78.494,-75.762 78.596,-75.766 78.697,-75.767 78.799,-75.768 78.901,-75.767 79.002,-75.763 79.101,-75.759 79.299,-75.742 79.299,-75.742 79.293,-75.743 79.487,-75.722 79.583,-75.707 79.678,-75.693 79.772,-75.676 79.866,-75.656 80.051,-75.616 80.229,-75.567 80.397,-75.509 80.649,-75.421 80.877,-75.313 81.072,-75.189 81.135,-75.148 81.196,-75.105 81.255,-75.059 81.311,-75.016 81.364,-74.97 81.415,-74.921 81.448,-74.889 81.508,-74.819 81.504,-74.826 81.504,-74.826 81.578,-74.728 81.609,-74.675 81.615,-74.666 81.624,-74.647 81.624,-74.647 M79.274,-78.42 C79.274,-78.42 79.212,-78.456 79.181,-78.472 79.143,-78.492 79.105,-78.511 79.067,-78.529 79.027,-78.547 78.987,-78.565 78.947,-78.581 78.824,-78.632 78.694,-78.676 78.557,-78.714 78.419,-78.752 78.276,-78.783 78.129,-78.806 78.08,-78.814 78.031,-78.822 77.981,-78.828 77.931,-78.834 77.831,-78.844 77.838,-78.843 77.838,-78.843 77.738,-78.852 77.687,-78.855 77.635,-78.858 77.582,-78.86 77.53,-78.862 77.425,-78.864 77.32,-78.864 77.215,-78.859 77.112,-78.855 76.992,-78.825 76.903,-78.898 76.881,-78.916 76.866,-78.942 76.849,-78.964 76.846,-78.968 76.843,-78.972 76.842,-78.976 76.802,-79.075 76.769,-79.16 76.768,-79.17 76.754,-79.19 76.756,-79.248 76.756,-79.27 76.756,-79.827 76.756,-80.385 76.757,-80.942 76.757,-80.954 76.757,-80.97 76.762,-80.982 76.775,-81.009 76.785,-81.039 76.804,-81.062 76.854,-81.122 76.886,-81.122 76.957,-81.14 76.961,-81.141 76.964,-81.141 76.968,-81.141 77.062,-81.146 77.155,-81.153 77.249,-81.156 77.533,-81.163 77.811,-81.143 78.092,-81.116 78.598,-81.067 79.198,-80.892 79.622,-80.669 79.879,-80.535 80.1,-80.366 80.3,-80.157 80.402,-80.05 80.476,-79.931 80.55,-79.805 80.58,-79.755 80.606,-79.704 80.639,-79.656 80.667,-79.616 80.731,-79.54 80.731,-79.54 M89.387,-72.269 C89.387,-72.269 89.47,-72.173 89.506,-72.121 89.54,-72.072 89.567,-72.019 89.597,-71.968 89.676,-71.836 89.754,-71.711 89.862,-71.6 90.078,-71.379 90.319,-71.205 90.596,-71.068 91.071,-70.833 91.582,-70.721 92.102,-70.651 92.308,-70.623 92.646,-70.609 92.914,-70.618 93.003,-70.62 93.091,-70.627 93.18,-70.632 93.183,-70.632 93.187,-70.632 93.19,-70.633 93.261,-70.651 93.294,-70.65 93.344,-70.711 93.363,-70.734 93.372,-70.764 93.385,-70.791 93.391,-70.803 93.391,-70.818 93.391,-70.83 93.392,-71.387 93.392,-71.946 93.392,-72.503 93.392,-72.525 93.394,-72.583 93.38,-72.603 93.378,-72.613 93.346,-72.697 93.306,-72.796 93.304,-72.801 93.302,-72.805 93.299,-72.809 93.281,-72.831 93.267,-72.857 93.245,-72.875 93.144,-72.957 92.976,-72.914 92.868,-72.911 92.794,-72.909 92.72,-72.909 92.645,-72.911 92.572,-72.912 92.498,-72.915 92.424,-72.92 92.351,-72.925 92.204,-72.94 92.204,-72.94 M79.902,-79.129 C79.902,-79.129 79.886,-79.075 79.876,-79.048 79.865,-79.021 79.854,-78.994 79.841,-78.968 79.828,-78.941 79.813,-78.914 79.797,-78.889 79.781,-78.862 79.764,-78.836 79.745,-78.811 79.73,-78.79 79.697,-78.75 79.697,-78.75 M79.896,-79.11 C79.896,-79.11 79.905,-79.162 79.908,-79.188 79.911,-79.22 79.91,-79.284 79.91,-79.284 M84.706,-74.934 C84.707,-74.912 84.706,-74.89 84.705,-74.868 84.704,-74.847 84.702,-74.827 84.702,-74.807 84.702,-74.25 84.702,-73.691 84.701,-73.134 84.701,-73.117 84.702,-73.101 84.704,-73.084 84.705,-73.072 84.707,-73.061 84.705,-73.049 84.706,-72.925 84.707,-72.8 84.704,-72.676 84.704,-72.65 84.688,-72.621 84.661,-72.596 84.49,-72.438 84.319,-72.279 84.145,-72.124 84.12,-72.101 84.076,-72.095 84.035,-72.109 83.255,-72.366 82.473,-72.623 81.694,-72.883 81.648,-72.898 81.623,-72.939 81.623,-72.997 81.623,-73.864 81.621,-74.734 81.624,-75.601 81.624,-75.626 81.64,-75.656 81.668,-75.682 81.839,-75.84 82.011,-75.997 82.183,-76.153 82.193,-76.163 82.229,-76.175 82.236,-76.176 82.249,-76.177 82.262,-76.173 82.275,-76.172 82.281,-76.171 82.288,-76.171 82.294,-76.169 83.074,-75.912 83.856,-75.655 84.635,-75.395 84.67,-75.383 84.672,-75.369 84.691,-75.341 84.704,-75.323 84.706,-75.302 84.706,-75.28 84.707,-75.165 84.707,-75.049 84.706,-74.934 Z M82.233,-76.648 L82.252,-76.543 M82.472,-76.143 C82.472,-76.143 82.407,-76.224 82.379,-76.268 82.348,-76.315 82.321,-76.364 82.298,-76.415 82.276,-76.464 82.257,-76.515 82.243,-76.567 M80.708,-79.563 C80.708,-79.563 80.799,-79.467 80.848,-79.424 80.901,-79.377 80.955,-79.334 81.012,-79.293 81.072,-79.249 81.134,-79.209 81.197,-79.171 81.329,-79.092 81.52,-78.998 81.627,-78.959 81.936,-78.845 82.109,-78.788 82.405,-78.73 82.5,-78.711 82.595,-78.695 82.69,-78.682 82.784,-78.669 82.974,-78.651 82.971,-78.651 82.971,-78.651 83.174,-78.637 83.275,-78.634 83.377,-78.631 83.479,-78.631 83.58,-78.634 83.681,-78.636 83.884,-78.65 83.882,-78.65 83.882,-78.65 84.071,-78.668 84.165,-78.681 84.261,-78.694 84.356,-78.709 84.451,-78.728 84.638,-78.764 84.818,-78.811 84.989,-78.867 85.418,-79.008 85.769,-79.2 86.034,-79.44 86.518,-79.877 86.996,-80.324 87.48,-80.762 87.535,-80.812 87.633,-80.814 87.701,-80.792 88.52,-80.524 89.341,-80.252 90.159,-79.979 90.245,-79.951 90.301,-79.861 90.301,-79.751 90.302,-79.448 90.306,-79.144 90.3,-78.841 90.298,-78.707 90.091,-78.561 90.028,-78.495 89.975,-78.439 89.874,-78.322 89.879,-78.33 89.879,-78.33 89.754,-78.177 89.694,-78.099 89.631,-78.016 89.571,-77.933 89.512,-77.848 89.451,-77.76 89.392,-77.67 89.334,-77.579 89.275,-77.485 89.218,-77.39 89.162,-77.294 89.105,-77.195 89.05,-77.094 88.997,-76.993 88.952,-76.909 88.867,-76.737 88.867,-76.737 M87.948,-78.363 C87.948,-78.363 87.9,-78.358 87.876,-78.357 87.852,-78.357 87.804,-78.359 87.804,-78.359 87.809,-78.359 87.776,-78.363 87.759,-78.366 87.742,-78.369 87.724,-78.374 87.707,-78.38 87.233,-78.535 86.757,-78.693 86.283,-78.85 86.267,-78.856 86.252,-78.862 86.237,-78.869 86.223,-78.876 86.21,-78.884 86.198,-78.893 86.187,-78.901 86.169,-78.92 86.169,-78.92 M86.198,-78.893 C86.198,-78.893 86.197,-78.894 86.197,-78.895 86.193,-78.903 86.19,-78.921 86.19,-78.921 M87.905,-76.562 C87.905,-76.562 87.872,-76.459 87.85,-76.411 87.826,-76.359 87.799,-76.31 87.768,-76.263 87.74,-76.22 87.675,-76.139 87.675,-76.139 M87.896,-76.539 C87.896,-76.539 87.912,-76.608 87.915,-76.643 87.92,-76.694 87.915,-76.797 87.915,-76.797 M82.887,-75.972 C82.887,-75.972 82.908,-75.986 82.918,-75.993 82.984,-76.032 83.051,-76.069 83.12,-76.104 83.192,-76.14 83.266,-76.173 83.341,-76.203 83.494,-76.265 83.659,-76.319 83.831,-76.364 84.003,-76.409 84.184,-76.444 84.368,-76.469 84.461,-76.482 84.649,-76.5 84.64,-76.499 84.64,-76.499 84.833,-76.512 84.929,-76.514 85.027,-76.517 85.125,-76.517 85.222,-76.514 85.319,-76.511 85.511,-76.498 85.511,-76.498 85.503,-76.499 85.69,-76.481 85.783,-76.468 85.874,-76.455 85.966,-76.44 86.056,-76.422 86.236,-76.387 86.409,-76.342 86.572,-76.288 86.735,-76.233 86.889,-76.171 87.03,-76.1 87.099,-76.066 87.166,-76.029 87.232,-75.989 87.285,-75.957 87.387,-75.885 87.387,-75.885 M87.933,-78.362 C87.933,-78.362 87.967,-78.368 87.984,-78.372 88.001,-78.376 88.018,-78.382 88.034,-78.388 88.065,-78.401 88.091,-78.416 88.111,-78.435 88.58,-78.862 89.517,-79.722 89.517,-79.722 M88.659,-76.931 C88.659,-76.931 88.591,-77.016 88.561,-77.062 88.529,-77.111 88.5,-77.163 88.476,-77.216 88.453,-77.267 88.434,-77.32 88.422,-77.365 88.422,-77.365 88.41,-77.436 88.407,-77.472 88.404,-77.512 88.406,-77.591 88.406,-77.591 M84.705,-73.033 C84.705,-73.033 84.743,-73.033 84.762,-73.033 84.826,-73.031 84.889,-73.027 84.953,-73.026 85.016,-73.025 85.08,-73.024 85.143,-73.025 85.27,-73.027 85.397,-73.032 85.523,-73.041 85.653,-73.051 85.822,-73.069 85.915,-73.083 86.011,-73.097 86.205,-73.118 86.199,-73.117 86.199,-73.117 86.397,-73.133 86.496,-73.137 86.597,-73.141 86.699,-73.142 86.801,-73.14 86.902,-73.139 87.004,-73.134 87.105,-73.127 87.2,-73.121 87.389,-73.1 87.389,-73.1 87.389,-73.1 87.581,-73.073 87.676,-73.056 87.769,-73.039 87.861,-73.019 87.953,-72.996 88.135,-72.952 88.308,-72.897 88.47,-72.834 88.633,-72.771 88.783,-72.699 88.92,-72.62 88.986,-72.582 89.051,-72.54 89.114,-72.496 89.173,-72.454 89.231,-72.409 89.285,-72.362 89.33,-72.323 89.412,-72.238 89.412,-72.238 M87.636,-79.201 C87.636,-79.201 87.533,-79.084 87.484,-79.024 87.433,-78.961 87.384,-78.898 87.335,-78.833 87.285,-78.767 87.236,-78.699 87.188,-78.63 87.173,-78.609 87.145,-78.566 87.145,-78.566 M90.238,-74.161 C90.238,-74.161 90.243,-74.097 90.248,-74.065 90.249,-74.058 90.252,-74.045 90.252,-74.045 M90.448,-73.686 C90.448,-73.686 90.412,-73.731 90.395,-73.755 90.377,-73.78 90.36,-73.806 90.344,-73.832 90.3,-73.908 90.265,-73.989 90.244,-74.074 M89.507,-79.723 L89.498,-79.704 M88.72,-78.992 C88.72,-78.992 88.235,-79.153 87.993,-79.233 87.937,-79.251 87.861,-79.256 87.786,-79.246 87.752,-79.241 87.72,-79.233 87.688,-79.221 87.681,-79.218 87.67,-79.213 87.658,-79.206 87.647,-79.199 87.635,-79.192 87.627,-79.185 87.618,-79.178 87.603,-79.163 87.603,-79.163 M94.98,-73.077 C94.98,-73.077 95.024,-73.028 95.045,-73.002 95.065,-72.978 95.082,-72.951 95.101,-72.926 95.116,-72.908 95.131,-72.89 95.148,-72.874 95.201,-72.82 95.269,-72.808 95.342,-72.819 95.444,-72.835 95.547,-72.849 95.649,-72.867 95.696,-72.875 95.743,-72.903 95.778,-72.943 95.813,-72.983 95.833,-73.032 95.833,-73.079 95.838,-73.635 95.839,-74.194 95.834,-74.751 95.833,-74.845 95.737,-74.993 95.572,-75.154 95.407,-75.315 95.19,-75.474 94.979,-75.587 94.42,-75.886 93.678,-76.064 92.898,-76.086 92.515,-76.096 92.144,-76.045 91.763,-76.019 91.665,-76.012 91.567,-76.008 91.468,-76.006 91.37,-76.005 91.271,-76.006 91.173,-76.009 91.074,-76.013 90.879,-76.027 90.879,-76.027 90.883,-76.027 90.699,-76.046 90.608,-76.059 90.515,-76.073 90.423,-76.088 90.332,-76.107 90.041,-76.165 89.867,-76.223 89.563,-76.335 89.451,-76.376 89.257,-76.474 89.123,-76.555 89.058,-76.594 88.995,-76.637 88.934,-76.682 88.877,-76.725 88.821,-76.77 88.769,-76.818 88.719,-76.864 88.628,-76.963 88.628,-76.963 M90.874,-73.353 C90.874,-73.353 90.874,-73.353 90.874,-73.353 90.909,-73.374 90.946,-73.394 90.982,-73.413 91.02,-73.432 91.059,-73.451 91.097,-73.468 91.137,-73.486 91.177,-73.504 91.218,-73.52 91.341,-73.57 91.473,-73.614 91.61,-73.651 91.748,-73.688 91.891,-73.718 92.039,-73.741 92.088,-73.748 92.138,-73.755 92.187,-73.761 92.237,-73.767 92.338,-73.777 92.329,-73.776 92.329,-73.776 92.431,-73.784 92.483,-73.787 92.535,-73.789 92.587,-73.791 92.64,-73.792 92.692,-73.793 92.745,-73.794 92.797,-73.793 92.85,-73.792 92.902,-73.791 92.955,-73.788 93.007,-73.786 93.059,-73.783 93.111,-73.779 93.158,-73.775 93.253,-73.765 93.253,-73.765 93.252,-73.765 93.351,-73.753 93.401,-73.746 93.499,-73.732 93.597,-73.714 93.691,-73.693 93.881,-73.651 94.062,-73.597 94.228,-73.532 94.395,-73.467 94.547,-73.391 94.681,-73.306 94.748,-73.264 94.81,-73.219 94.867,-73.173 94.895,-73.15 94.923,-73.126 94.949,-73.101 94.973,-73.08 95.017,-73.035 95.017,-73.035"/>
      <path stroke="#000" d="M92.218,-72.939 C92.218,-72.939 92.079,-72.956 92.01,-72.968 91.942,-72.979 91.873,-72.992 91.805,-73.006 91.739,-73.021 91.673,-73.035 91.608,-73.054 91.501,-73.086 91.394,-73.121 91.289,-73.157 91.162,-73.2 90.965,-73.296 90.829,-73.379 90.761,-73.42 90.697,-73.464 90.639,-73.51 90.61,-73.533 90.582,-73.556 90.554,-73.581 90.528,-73.604 90.502,-73.628 90.478,-73.654 90.454,-73.678 90.409,-73.729 90.409,-73.729 M75.084,-78.79 C75.084,-78.79 75.149,-78.718 75.184,-78.684 75.222,-78.649 75.261,-78.616 75.301,-78.584 75.343,-78.551 75.387,-78.519 75.432,-78.489 75.569,-78.399 75.76,-78.3 75.904,-78.247 76.008,-78.208 76.113,-78.173 76.218,-78.14 76.264,-78.125 76.31,-78.114 76.356,-78.103 76.449,-78.08 76.545,-78.06 76.643,-78.043 76.691,-78.035 76.741,-78.027 76.79,-78.021 76.838,-78.014 76.935,-78.003 76.926,-78.004 76.926,-78.004 77.03,-77.994 77.082,-77.991 77.134,-77.987 77.186,-77.984 77.239,-77.983 77.291,-77.981 77.344,-77.98 77.396,-77.979 77.449,-77.979 77.501,-77.98 77.554,-77.982 77.606,-77.983 77.658,-77.986 77.711,-77.989 77.763,-77.992 77.867,-78.001 77.86,-78.001 77.86,-78.001 77.956,-78.011 78.004,-78.017 78.053,-78.024 78.102,-78.031 78.152,-78.039 78.2,-78.047 78.249,-78.056 78.297,-78.066 78.489,-78.105 78.671,-78.156 78.841,-78.218 79.225,-78.36 79.526,-78.552 79.73,-78.786 M82.442,-76.175 L82.521,-76.093 M87.705,-76.17 C87.463,-75.896 87.142,-75.706 86.806,-75.57 86.576,-75.476 86.322,-75.402 86.053,-75.349 85.962,-75.331 85.871,-75.316 85.779,-75.304 85.689,-75.291 85.507,-75.274 85.51,-75.274 85.51,-75.274 85.315,-75.261 85.218,-75.259 85.121,-75.256 85.023,-75.256 84.925,-75.259 84.852,-75.261 84.706,-75.271 84.706,-75.271 M11.739,-184.46 C10.949,-184.72 9.8418,-183.58 9.2667,-181.92 8.6915,-180.26 8.8656,-178.7 9.6556,-178.44 16.994,-176 24.358,-173.58 31.699,-171.15 32.49,-170.89 33.596,-172.02 34.172,-173.69 34.747,-175.35 34.573,-176.91 33.783,-177.17 26.445,-179.6 19.08,-182.03 11.739,-184.46 Z M31.923,-171.79 C31.911,-171.8 31.9,-171.81 31.889,-171.81 31.897,-171.81 31.838,-171.85 31.812,-171.88 31.793,-171.9 31.76,-171.95 31.76,-171.95 M33.559,-176.52 L33.473,-176.55 M32.789,-176.17 C32.789,-176.17 32.699,-176.07 32.657,-176.02 32.612,-175.97 32.569,-175.91 32.527,-175.85 32.442,-175.73 32.359,-175.6 32.281,-175.46 32.123,-175.18 31.983,-174.87 31.87,-174.54 31.756,-174.21 31.671,-173.87 31.619,-173.55 31.593,-173.39 31.576,-173.23 31.567,-173.08 31.563,-173 31.56,-172.93 31.56,-172.85 31.56,-172.78 31.567,-172.64 31.567,-172.64 M32.754,-176.13 C32.754,-176.13 32.837,-176.22 32.88,-176.26 32.922,-176.3 32.965,-176.33 33.01,-176.37 33.051,-176.4 33.094,-176.43 33.138,-176.45 33.179,-176.48 33.264,-176.52 33.255,-176.51 33.255,-176.51 33.293,-176.53 33.313,-176.53 33.351,-176.54 33.39,-176.55 33.428,-176.55 33.465,-176.55 33.502,-176.55 33.538,-176.54 M31.566,-172.66 C31.566,-172.66 31.574,-172.56 31.581,-172.51 31.589,-172.45 31.6,-172.39 31.613,-172.33 31.625,-172.28 31.639,-172.23 31.656,-172.17 31.672,-172.13 31.69,-172.08 31.712,-172.03 31.731,-171.99 31.778,-171.91 31.778,-171.91 M72.506,-163.22 C72.492,-163.26 72.477,-163.3 72.462,-163.34 72.383,-163.56 72.253,-163.72 72.114,-163.77 71.479,-164.02 70.822,-164.21 70.173,-164.42 70.082,-164.45 69.987,-164.47 69.896,-164.5 69.848,-164.51 69.799,-164.52 69.752,-164.54 69.712,-164.55 69.673,-164.57 69.634,-164.58 69.622,-164.59 69.61,-164.59 69.598,-164.6 69.592,-164.6 69.586,-164.6 69.58,-164.61 69.574,-164.61 69.568,-164.61 69.562,-164.61 69.558,-164.62 69.555,-164.62 69.552,-164.62 69.55,-164.62 69.548,-164.62 69.547,-164.62 69.546,-164.62 69.544,-164.62 69.545,-164.63 69.545,-164.63 69.541,-164.63 69.542,-164.63 69.561,-164.63 69.609,-164.6 69.62,-164.59 69.634,-164.59 69.649,-164.58 69.663,-164.57 69.665,-164.57 69.669,-164.57 69.669,-164.57 M69.542,-164.63 C69.366,-164.68 69.19,-164.74 69.013,-164.8 68.795,-164.87 68.565,-164.89 68.343,-164.94 68.201,-164.97 68.059,-165.01 67.924,-165.06 67.851,-165.09 67.774,-165.13 67.718,-165.17 67.663,-165.21 67.637,-165.23 67.65,-165.24 67.657,-165.25 67.667,-165.25 67.675,-165.24 67.75,-165.23 67.826,-165.17 67.892,-165.14 67.928,-165.12 67.965,-165.09 68.002,-165.07 68.043,-165.05 68.084,-165.02 68.125,-165 68.131,-165 68.144,-164.99 68.144,-164.99 M37.258,-170.15 C37.262,-170.15 37.268,-170.14 37.274,-170.14 M38.525,-174.57 C38.025,-174.24 37.54,-173.53 37.248,-172.69 36.955,-171.86 36.899,-171.03 37.099,-170.5 37.114,-170.45 37.129,-170.41 37.143,-170.37 M37.75,-169.92 C37.751,-169.92 37.752,-169.92 37.753,-169.92 M37.739,-169.94 C37.741,-169.93 37.745,-169.93 37.75,-169.92 M70.707,-159.04 C70.703,-159.05 70.702,-159.05 70.701,-159.06 L70.856,-159.1 C70.957,-159.11 71.063,-159.16 71.172,-159.22 71.619,-159.51 72.073,-160.21 72.352,-161.05 72.631,-161.88 72.691,-162.72 72.506,-163.22 72.346,-163.66 72.022,-163.79 71.636,-163.57 71.249,-163.34 70.847,-162.8 70.555,-162.1 70.362,-161.64 70.23,-161.14 70.177,-160.68 70.148,-160.42 70.144,-160.17 70.167,-159.96 70.179,-159.85 70.197,-159.75 70.221,-159.66 70.233,-159.62 70.246,-159.57 70.262,-159.53 70.277,-159.49 70.294,-159.45 70.313,-159.42 70.33,-159.38 70.35,-159.35 70.372,-159.32 M70.734,-159.02 C70.73,-159.02 70.725,-159.02 70.721,-159.02 M37.739,-169.94 C37.732,-169.96 37.725,-169.98 37.718,-169.99 37.731,-169.97 37.741,-169.95 37.753,-169.92 48.764,-166.28 59.71,-162.66 70.721,-159.02 70.766,-159.05 70.811,-159.07 70.856,-159.1 L70.718,-159.02 C70.719,-159.02 70.72,-159.02 70.721,-159.02 M70.378,-159.32 C70.38,-159.32 70.383,-159.32 70.385,-159.32 M37.258,-170.15 C37.235,-170.19 37.214,-170.22 37.196,-170.26 37.176,-170.29 37.159,-170.33 37.143,-170.37 36.947,-170.9 37.004,-171.77 37.293,-172.65 37.582,-173.52 38.056,-174.26 38.525,-174.57 38.717,-174.69 38.899,-174.74 39.058,-174.7 48.616,-171.54 58.117,-168.4 67.675,-165.24 M70.794,-159.71 L70.29,-159.87 M37.274,-170.14 C48.285,-166.5 59.23,-162.88 70.242,-159.24 70.248,-159.24 70.255,-159.24 70.262,-159.24 70.3,-159.27 70.339,-159.29 70.378,-159.32 70.412,-159.36 70.443,-159.4 70.477,-159.44 70.505,-159.47 70.536,-159.49 70.57,-159.51 70.764,-159.63 70.891,-159.44 70.856,-159.1 70.815,-159.07 70.775,-159.05 70.734,-159.02 M165.46,-132.64 C165.46,-132.64 165.47,-132.49 165.48,-132.41 165.48,-132.33 165.48,-132.25 165.48,-132.17 165.48,-132.08 165.47,-131.99 165.47,-131.91 165.45,-131.64 165.41,-131.36 165.35,-131.08 165.24,-130.6 165.08,-130.12 164.88,-129.67 164.29,-128.39 163.41,-127.6 162.79,-127.81 155.45,-130.23 148.09,-132.67 140.75,-135.1 140.23,-135.27 140.03,-135.78 139.97,-136.28 139.85,-137.28 140.15,-138.63 140.74,-139.7 141.32,-140.78 142.07,-141.36 142.63,-141.18 149.97,-138.76 157.33,-136.32 164.67,-133.89 164.97,-133.79 165.18,-133.58 165.3,-133.29 165.35,-133.18 165.39,-133.06 165.42,-132.92 165.43,-132.85 165.44,-132.77 165.45,-132.7 165.46,-132.65 165.46,-132.55 165.46,-132.55 M105.11,-152.87 C104.93,-152.92 104.76,-152.98 104.58,-153.04 104.49,-153.07 104.4,-153.09 104.31,-153.12 104.26,-153.13 104.21,-153.15 104.16,-153.16 104.12,-153.18 104.08,-153.19 104.05,-153.2 104.02,-153.21 104,-153.22 103.98,-153.23 103.96,-153.24 103.95,-153.25 103.95,-153.25 103.96,-153.25 103.97,-153.24 103.97,-153.24 103.98,-153.24 103.98,-153.24 103.99,-153.24 104.02,-153.22 104.05,-153.21 104.07,-153.2 104.08,-153.19 104.08,-153.19 104.08,-153.19 M133.39,-138.73 C133.39,-138.73 133.39,-138.72 133.4,-138.72 M133.25,-138.41 C133.25,-138.41 133.24,-138.41 133.23,-138.41 M134.17,-138.4 C134.14,-138.38 134.1,-138.36 134.06,-138.33 134.03,-138.31 133.99,-138.29 133.95,-138.27 133.91,-138.25 133.88,-138.24 133.84,-138.22 133.8,-138.21 133.77,-138.2 133.73,-138.2 133.73,-138.19 133.72,-138.19 133.72,-138.2 133.7,-138.21 133.69,-138.24 133.69,-138.28 133.7,-138.32 133.7,-138.37 133.69,-138.41 133.69,-138.53 133.65,-138.61 133.59,-138.64 133.56,-138.64 133.54,-138.65 133.52,-138.64 133.51,-138.64 133.49,-138.63 133.49,-138.63 M103.95,-153.25 C103.34,-153.45 102.74,-153.65 102.13,-153.85 101.87,-153.96 101.61,-153.81 101.4,-153.67 100.95,-153.37 100.5,-152.66 100.23,-151.82 99.953,-150.98 99.902,-150.15 100.09,-149.66 100.14,-149.54 100.18,-149.42 100.25,-149.32 M100.25,-149.32 C100.26,-149.32 100.26,-149.31 100.26,-149.31 100.26,-149.31 100.27,-149.31 100.27,-149.31 M100.73,-149.12 C100.74,-149.11 100.74,-149.1 100.75,-149.1 M100.72,-149.16 L100.73,-149.12 M100.75,-149.1 L133.72,-138.2 M105.58,-152.61 C105.58,-152.61 105.57,-152.62 105.56,-152.62 105.52,-152.65 105.48,-152.67 105.44,-152.69 105.41,-152.71 105.38,-152.73 105.35,-152.74 105.28,-152.79 105.19,-152.85 105.11,-152.87 105.11,-152.87 105.11,-152.87 105.11,-152.87 105.11,-152.87 105.1,-152.87 105.1,-152.87 105.1,-152.87 105.1,-152.87 105.1,-152.87 105.1,-152.87 105.09,-152.87 105.09,-152.87 105.09,-152.87 105.09,-152.87 105.09,-152.87 105.09,-152.87 105.09,-152.87 105.08,-152.87 105.08,-152.86 105.08,-152.85 105.1,-152.83 105.12,-152.82 105.14,-152.8 105.17,-152.78 105.22,-152.75 105.29,-152.72 105.36,-152.69 105.49,-152.63 105.64,-152.59 105.78,-152.56 106,-152.51 106.23,-152.49 106.45,-152.42 116.02,-149.26 125.53,-146.11 135.1,-142.95 M133.28,-139.05 L133.78,-138.88 M100.27,-149.31 C111.28,-145.67 122.22,-142.05 133.23,-138.41 133.28,-138.43 133.32,-138.46 133.37,-138.48 133.32,-138.46 133.27,-138.44 133.22,-138.42 132.85,-138.93 132.93,-140.18 133.4,-141.32 133.88,-142.47 134.6,-143.17 135.1,-142.95 135.25,-142.88 135.37,-142.74 135.45,-142.53 135.66,-141.96 135.62,-141.1 135.36,-140.26 135.1,-139.42 134.65,-138.71 134.17,-138.4 134.1,-138.36 134.03,-138.32 133.96,-138.3 133.92,-138.29 133.89,-138.28 133.85,-138.27 M77.324,-155.83 C77.293,-155.84 77.263,-155.84 77.233,-155.85 76.995,-155.93 76.809,-156.15 76.691,-156.49 76.49,-157.08 76.086,-158.24 76.086,-158.24 M92.529,-157.03 C92.557,-157.16 92.537,-157.27 92.482,-157.3 92.436,-157.32 92.372,-157.29 92.313,-157.2 92.255,-157.12 92.21,-157 92.195,-156.89 91.828,-156.66 91.45,-156.17 91.155,-155.53 86.594,-157.03 82.061,-158.53 77.5,-160.04 77.025,-160.31 76.552,-160.58 76.077,-160.86 75.975,-161.06 75.874,-161.27 75.772,-161.47 75.847,-161.69 75.923,-161.9 75.998,-162.12 80.559,-160.61 85.093,-159.11 89.654,-157.6 89.786,-157.4 89.919,-157.2 90.052,-157 90.113,-156.91 90.187,-156.84 90.271,-156.81 90.412,-156.74 90.579,-156.76 90.758,-156.86 91.293,-157.14 91.829,-157.43 92.364,-157.72 92.619,-157.86 92.858,-157.89 93.063,-157.81 93.815,-157.52 93.94,-155.86 93.344,-154.08 92.747,-152.3 91.651,-151.08 90.888,-151.34 90.651,-151.42 90.464,-151.64 90.347,-151.98 90.131,-152.6 89.915,-153.22 89.7,-153.85 89.628,-154.05 89.517,-154.2 89.376,-154.26 89.291,-154.3 89.197,-154.31 89.097,-154.29 88.879,-154.24 88.66,-154.2 88.442,-154.16 83.881,-155.66 79.348,-157.16 74.787,-158.67 74.862,-158.89 74.937,-159.1 75.013,-159.31 75.212,-159.39 75.41,-159.46 75.61,-159.53 76.122,-159.36 76.631,-159.19 77.143,-159.03 81.704,-157.52 86.238,-156.02 90.798,-154.51 90.626,-153.82 90.598,-153.18 90.721,-152.72 90.663,-152.63 90.623,-152.51 90.616,-152.4 90.609,-152.29 90.637,-152.21 90.688,-152.2 90.722,-152.19 90.763,-152.21 90.804,-152.25 90.889,-152.34 90.974,-152.43 91.058,-152.52 91.135,-152.6 91.211,-152.63 91.27,-152.6 91.328,-152.58 91.365,-152.5 91.373,-152.38 91.381,-152.25 91.389,-152.12 91.397,-151.99 91.401,-151.91 91.429,-151.86 91.473,-151.85 91.52,-151.84 91.581,-151.89 91.635,-151.97 91.689,-152.05 91.729,-152.16 91.742,-152.27 91.966,-152.41 92.196,-152.66 92.41,-152.98 M79.203,-158.34 C79.203,-158.34 79.241,-158.44 79.26,-158.49 79.279,-158.54 79.298,-158.59 79.317,-158.64 79.335,-158.69 79.353,-158.75 79.369,-158.8 79.42,-158.96 79.464,-159.12 79.5,-159.28 79.513,-159.28 79.524,-159.29 79.535,-159.29 79.548,-159.3 79.56,-159.31 79.571,-159.32 79.579,-159.33 79.594,-159.35 79.594,-159.35 M90.888,-151.34 L85.665,-153.06 M82.456,-154.13 L77.233,-155.85 M90.068,-158.72 C90.068,-158.72 90.053,-158.73 90.046,-158.73 90.024,-158.74 90.002,-158.76 89.98,-158.77 89.959,-158.78 89.939,-158.79 89.918,-158.8 89.899,-158.81 89.88,-158.82 89.86,-158.83 89.786,-158.87 89.709,-158.92 89.627,-158.94 89.608,-158.95 89.598,-158.95 89.6,-158.94 89.604,-158.93 89.639,-158.9 89.697,-158.87 89.756,-158.84 89.831,-158.81 89.904,-158.78 90.023,-158.73 90.146,-158.69 90.27,-158.66 90.532,-158.59 90.803,-158.55 91.062,-158.47 91.73,-158.25 92.395,-158.03 93.063,-157.81 M81.777,-161.46 C81.777,-161.46 81.762,-161.47 81.755,-161.47 81.733,-161.49 81.711,-161.5 81.689,-161.51 81.669,-161.52 81.648,-161.53 81.627,-161.54 81.608,-161.55 81.589,-161.56 81.57,-161.57 81.495,-161.61 81.418,-161.66 81.337,-161.69 81.317,-161.69 81.307,-161.69 81.309,-161.68 81.313,-161.67 81.349,-161.65 81.407,-161.61 81.465,-161.58 81.54,-161.55 81.613,-161.52 81.733,-161.47 81.855,-161.44 81.979,-161.4 82.241,-161.33 82.513,-161.29 82.771,-161.21 85.061,-160.45 87.337,-159.7 89.627,-158.94 M81.337,-161.69 C80.692,-161.9 80.052,-162.11 79.408,-162.32 79.203,-162.4 78.964,-162.37 78.709,-162.23 78.32,-162.03 77.54,-161.61 77.54,-161.61 M90.706,-152.79 L91.27,-152.6 M83.373,-97.311 C83.373,-97.311 83.335,-97.186 83.335,-97.121 83.335,-97.047 83.35,-96.973 83.374,-96.903 83.401,-96.828 83.44,-96.757 83.486,-96.692 83.566,-96.58 83.734,-96.431 83.863,-96.358 83.863,-96.303 83.863,-96.249 83.863,-96.195 M84.017,-94.091 C84.017,-94.091 84.007,-94.094 84.001,-94.096 83.943,-94.115 83.884,-94.135 83.826,-94.154 83.709,-94.193 83.592,-94.231 83.475,-94.27 M84.05,-153.64 C83.869,-153.7 83.689,-153.76 83.508,-153.82 83.464,-153.86 83.385,-153.94 83.348,-153.99 83.063,-154.06 82.766,-154.05 82.484,-154.12 M83.67,-151.22 C83.67,-151.22 83.656,-151.16 83.656,-151.13 83.656,-151.09 83.662,-151.05 83.673,-151.02 83.684,-150.98 83.7,-150.94 83.721,-150.9 83.762,-150.83 83.822,-150.76 83.893,-150.71 83.893,-150.65 83.893,-150.59 83.893,-150.53 M84.049,-151.09 C84.049,-151.09 83.992,-151.14 83.961,-151.15 83.893,-151.19 83.822,-151.22 83.755,-151.22 83.652,-151.23 83.564,-151.2 83.506,-151.13 M85.572,-153.1 C85.572,-153.1 85.55,-153.1 85.539,-153.11 85.029,-153.29 84.551,-153.55 84.05,-153.76 84.05,-152.76 84.049,-151.76 84.049,-150.75 84.148,-150.59 84.148,-150.42 84.048,-150.31 84.038,-132.51 84.028,-114.82 84.019,-97.028 84.226,-96.869 84.36,-96.664 84.389,-96.461 84.418,-96.259 84.338,-96.077 84.17,-95.96 84.124,-95.928 84.072,-95.903 84.018,-95.887 M83.893,-150.71 C83.891,-150.7 83.888,-150.7 83.886,-150.7 83.873,-150.69 83.862,-150.67 83.857,-150.65 83.838,-150.58 83.886,-150.51 83.964,-150.48 83.992,-150.47 84.022,-150.47 84.052,-150.47 84.075,-150.47 84.119,-150.49 84.119,-150.49 M83.863,-96.358 C83.828,-96.331 83.815,-96.289 83.828,-96.247 83.848,-96.186 83.919,-96.144 84.01,-96.14 84.101,-96.136 84.196,-96.171 84.252,-96.229 84.283,-96.227 84.314,-96.235 84.345,-96.238 84.354,-96.239 84.37,-96.24 84.37,-96.24 M83.758,-96.433 C83.758,-96.433 83.924,-96.492 84.008,-96.515 84.122,-96.546 84.355,-96.589 84.355,-96.589"/>
      <path stroke="#000" d="M82.332,-154.17 C82.322,-134.54 82.312,-115.02 82.302,-95.389 82.255,-94.903 82.63,-94.433 83.314,-94.123 83.368,-94.172 83.421,-94.221 83.475,-94.27 83.475,-94.936 83.475,-95.599 83.476,-96.265 M87.894,-152.33 C87.883,-133.23 87.872,-114.26 87.861,-95.163 87.779,-94.678 87.282,-94.244 86.524,-93.993 85.765,-93.742 84.835,-93.704 84.017,-93.891 84.017,-94.558 84.018,-95.22 84.018,-95.887 84.071,-95.936 84.125,-95.984 84.178,-96.033 83.962,-95.978 83.692,-96.068 83.476,-96.265 83.422,-96.216 83.369,-96.168 83.316,-96.119 M84.274,-88.137 C84.964,-87.993 85.738,-88.042 86.35,-88.269 M86.348,-84.467 C86.349,-85.737 86.349,-86.999 86.35,-88.268 86.42,-88.637 86.783,-88.97 87.343,-89.177 M83.653,-88.436 L83.653,-87.268 M83.576,-84.566 L83.576,-85.116 M75.98,-66.47 C75.978,-66.651 75.977,-66.831 75.975,-67.012 75.975,-67.14 75.916,-67.281 75.815,-67.395 75.713,-67.51 75.579,-67.587 75.451,-67.605 75.263,-67.623 75.077,-67.642 74.89,-67.66 M75.053,-66.301 L75.151,-66.39 M75.227,-66.766 L75.151,-66.697 75.151,-66.269 75.053,-66.301 75.054,-66.729 75.151,-66.818 M74.615,-66.874 L74.691,-66.944 M76.726,-68.94 C76.717,-68.932 76.708,-68.923 76.7,-68.914 M93.372,-72.627 C93.357,-72.645 93.345,-72.667 93.326,-72.681 M95.651,-74.808 C95.656,-74.781 95.659,-74.752 95.663,-74.725 95.675,-74.724 95.686,-74.724 95.697,-74.724 M81.737,-76.406 C81.695,-76.365 81.672,-76.313 81.672,-76.263 81.672,-76.071 81.671,-75.685 81.671,-75.685"/>
      <path stroke="#000" d="M83.268,-74.234 C82.971,-74.558 82.542,-74.649 82.31,-74.436 82.078,-74.223 82.13,-73.788 82.427,-73.464 82.725,-73.14 83.154,-73.049 83.386,-73.262 83.618,-73.475 83.565,-73.91 83.268,-74.234 Z"/>
      <path stroke="#000" d="M82.56,-74.354 C82.463,-74.245 82.451,-74.069 82.528,-73.891 82.605,-73.713 82.759,-73.561 82.933,-73.493 83.107,-73.424 83.274,-73.449 83.37,-73.558 83.52,-73.727 83.46,-74.042 83.236,-74.262 83.012,-74.482 82.709,-74.523 82.56,-74.354 Z M85.915,-73.083 C85.926,-73.096 85.932,-73.131 85.932,-73.182 85.933,-73.739 85.932,-74.297 85.933,-74.854 85.933,-74.904 85.927,-74.966 85.916,-75.024 M9.7848,-178.4 C9.7407,-178.41 9.6969,-178.42 9.6556,-178.44 M72.114,-163.77 C71.586,-164.01 70.802,-163.21 70.336,-161.96 70.178,-161.54 70.07,-161.09 70.022,-160.68 69.991,-160.4 69.987,-160.15 70.012,-159.92 70.024,-159.81 70.043,-159.7 70.068,-159.61 70.081,-159.56 70.095,-159.52 70.112,-159.47 70.127,-159.43 70.144,-159.39 70.164,-159.35 70.183,-159.32 70.203,-159.29 70.226,-159.25 M70.226,-159.25 C70.23,-159.25 70.236,-159.24 70.242,-159.24 M70.372,-159.32 C70.373,-159.32 70.375,-159.32 70.378,-159.32 M37.721,-169.99 L37.733,-169.96 M37.733,-169.99 C37.733,-169.99 37.732,-169.97 37.733,-169.96 37.734,-169.95 37.735,-169.95 37.739,-169.94 M70.939,-159.47 C70.948,-159.43 70.953,-159.39 70.955,-159.34 70.956,-159.32 70.965,-159.3 70.978,-159.29 70.983,-159.29 70.988,-159.29 70.993,-159.29 71.025,-159.3 71.057,-159.32 71.088,-159.33 71.121,-159.35 71.153,-159.37 71.184,-159.39 71.218,-159.41 71.251,-159.43 71.283,-159.46 71.348,-159.51 71.415,-159.57 71.481,-159.64 71.613,-159.78 71.742,-159.95 71.862,-160.15 72.043,-160.45 72.198,-160.81 72.313,-161.18 72.651,-162.27 72.564,-163.26 72.113,-163.46 71.663,-163.66 70.997,-163.01 70.58,-161.95 70.415,-161.53 70.304,-161.09 70.263,-160.68 70.24,-160.45 70.24,-160.23 70.263,-160.04 70.274,-159.94 70.291,-159.86 70.314,-159.78 70.324,-159.74 70.337,-159.7 70.351,-159.66 70.365,-159.63 70.38,-159.59 70.397,-159.56 70.4,-159.55 70.404,-159.55 70.41,-159.55 70.422,-159.54 70.438,-159.55 70.454,-159.57 70.482,-159.6 70.512,-159.62 70.545,-159.65 70.636,-159.72 70.723,-159.74 70.794,-159.71 70.864,-159.68 70.915,-159.59 70.939,-159.47 Z M70.718,-159.02 C70.713,-159.03 70.709,-159.03 70.707,-159.04 L70.856,-159.1 70.701,-159.09 M70.701,-159.06 C70.7,-159.07 70.7,-159.08 70.701,-159.09 70.706,-159.14 70.707,-159.18 70.705,-159.22 70.698,-159.35 70.661,-159.43 70.601,-159.46 70.581,-159.47 70.557,-159.47 70.535,-159.47 70.523,-159.47 70.5,-159.46 70.5,-159.46 M37.766,-169.92 C48.777,-166.28 59.723,-162.66 70.734,-159.02 70.899,-159.05 71.036,-159.14 71.172,-159.22 M133.85,-138.29 C133.85,-138.28 133.85,-138.27 133.85,-138.27 M133.85,-138.29 C133.85,-138.34 133.85,-138.39 133.85,-138.44 133.83,-138.68 133.71,-138.78 133.55,-138.68 133.49,-138.64 133.43,-138.57 133.37,-138.48 133.33,-138.46 133.29,-138.43 133.25,-138.41 M135.49,-142.41 C135.3,-142.92 134.88,-142.99 134.42,-142.59 133.95,-142.19 133.51,-141.38 133.29,-140.51 133.07,-139.64 133.1,-138.86 133.37,-138.48 133.32,-138.46 133.28,-138.43 133.23,-138.41 M133.4,-138.72 C133.41,-138.71 133.43,-138.72 133.44,-138.74 133.47,-138.77 133.5,-138.8 133.53,-138.82 133.63,-138.89 133.71,-138.91 133.78,-138.88 133.85,-138.85 133.9,-138.77 133.93,-138.65 133.94,-138.6 133.94,-138.56 133.94,-138.52 133.95,-138.49 133.95,-138.47 133.97,-138.47 133.97,-138.47 133.98,-138.47 133.98,-138.47 134.02,-138.48 134.05,-138.49 134.08,-138.51 134.11,-138.52 134.14,-138.54 134.17,-138.56 134.21,-138.58 134.24,-138.6 134.27,-138.63 134.34,-138.68 134.4,-138.74 134.47,-138.81 134.6,-138.95 134.73,-139.12 134.85,-139.33 135.03,-139.63 135.19,-139.98 135.3,-140.35 135.64,-141.44 135.55,-142.44 135.1,-142.64 134.65,-142.84 133.99,-142.18 133.57,-141.12 133.4,-140.71 133.29,-140.26 133.25,-139.85 133.23,-139.62 133.23,-139.4 133.25,-139.21 133.26,-139.12 133.28,-139.03 133.3,-138.95 133.31,-138.91 133.33,-138.87 133.34,-138.83 133.35,-138.8 133.37,-138.77 133.39,-138.73 M133.23,-138.41 C133.23,-138.41 133.22,-138.41 133.22,-138.42 M133.23,-138.41 C133.23,-138.41 133.23,-138.41 133.23,-138.41 M101.51,-153.74 C100.8,-153.27 100.14,-151.89 100.03,-150.64 99.994,-150.2 100.03,-149.81 100.14,-149.54 M100.72,-149.16 C100.72,-149.16 100.72,-149.15 100.72,-149.14 100.73,-149.13 100.73,-149.12 100.73,-149.12 M102.14,-153.85 L102.13,-153.85 M100.76,-149.1 L133.73,-138.2 M91.742,-152.27 L91.371,-152.39 M92.721,-153.52 C92.908,-153.91 93.058,-154.34 93.156,-154.76 M90.651,-153.56 C91.238,-153.36 91.822,-153.17 92.41,-152.98 92.419,-152.95 92.433,-152.93 92.451,-152.92 92.515,-152.88 92.614,-152.97 92.682,-153.12 92.75,-153.27 92.766,-153.44 92.721,-153.52 92.055,-153.74 91.393,-153.96 90.728,-154.18 M91.412,-156.01 C92.03,-155.81 92.644,-155.6 93.261,-155.4 93.285,-155.41 93.307,-155.42 93.326,-155.41 93.396,-155.39 93.416,-155.25 93.373,-155.09 93.33,-154.92 93.237,-154.78 93.156,-154.76 88.595,-156.27 84.061,-157.77 79.5,-159.28 M93.261,-155.4 C93.301,-155.81 93.28,-156.17 93.201,-156.44 93.257,-156.54 93.296,-156.66 93.304,-156.76 93.312,-156.87 93.288,-156.94 93.24,-156.96 93.182,-156.99 93.102,-156.92 93.038,-156.8 92.772,-156.89 92.507,-156.97 92.24,-157.06 M93.201,-156.44 L92.084,-156.81 M93.038,-156.8 C92.957,-156.91 92.858,-156.98 92.745,-157.01 92.678,-157.03 92.605,-157.04 92.529,-157.03 92.44,-157.06 92.352,-157.09 92.262,-157.11 M88.442,-154.16 L88.668,-154.8 89.265,-155.01 M75.013,-159.31 L88.668,-154.8 M90.798,-154.51 L89.265,-155.01 86.673,-155.87 M86.529,-155.92 C86.554,-155.91 86.577,-155.9 86.6,-155.89 86.624,-155.88 86.649,-155.88 86.673,-155.87 86.911,-155.79 87.176,-155.7 87.385,-155.63 87.593,-155.57 87.721,-155.52 87.729,-155.52 87.733,-155.52 87.578,-155.57 87.325,-155.66 87.072,-155.74 86.761,-155.84 86.516,-155.92 86.272,-156 86.132,-156.05 86.152,-156.04 86.168,-156.04 86.303,-155.99 86.529,-155.92 Z M91.155,-155.53 L89.732,-156.34 87.141,-157.2 M89.427,-156.96 L89.654,-157.6 M89.732,-156.34 L89.427,-156.96 75.772,-161.47 M88.162,-156.75 C88.165,-156.77 88.047,-156.84 87.844,-156.93 87.642,-157.02 87.379,-157.12 87.14,-157.2 87.092,-157.22 87.044,-157.23 86.999,-157.25 86.78,-157.32 86.635,-157.35 86.609,-157.34 86.579,-157.32 86.708,-157.25 86.945,-157.15 87.182,-157.04 87.488,-156.93 87.743,-156.85 87.997,-156.77 88.158,-156.73 88.162,-156.75 Z M86.531,-155.92 L78.343,-158.62 M86.999,-157.25 L78.811,-159.95 M78.202,-158.67 C78.224,-158.66 78.247,-158.65 78.27,-158.65 78.294,-158.64 78.319,-158.63 78.343,-158.62 78.577,-158.55 78.844,-158.46 79.055,-158.39 79.267,-158.32 79.396,-158.28 79.399,-158.28 79.404,-158.27 79.25,-158.33 78.997,-158.41 78.745,-158.49 78.435,-158.6 78.19,-158.68 77.945,-158.76 77.804,-158.8 77.824,-158.8 77.847,-158.79 77.985,-158.74 78.202,-158.67 Z M79.832,-159.51 C79.835,-159.53 79.717,-159.59 79.514,-159.68 79.312,-159.77 79.05,-159.87 78.811,-159.95 78.762,-159.97 78.714,-159.99 78.669,-160 78.45,-160.07 78.305,-160.1 78.279,-160.09 78.249,-160.08 78.378,-160 78.615,-159.9 78.852,-159.8 79.159,-159.68 79.413,-159.6 79.667,-159.52 79.828,-159.48 79.832,-159.51 Z M78.201,-158.67 L75.61,-159.53 M78.669,-160 L76.077,-160.86 M83.346,-150.98 L83.348,-153.99 M82.484,-154.12 C82.481,-154.12 82.476,-154.12 82.476,-154.12 M83.316,-97.26 C83.326,-115.05 83.336,-132.74 83.346,-150.54 83.264,-150.71 83.264,-150.89 83.346,-150.98 83.4,-151.03 83.453,-151.08 83.506,-151.13 83.507,-152.03 83.507,-152.92 83.508,-153.82 M83.346,-150.54 C83.4,-150.59 83.453,-150.64 83.506,-150.68 83.564,-150.58 83.652,-150.49 83.754,-150.43 83.822,-150.39 83.892,-150.37 83.96,-150.36 83.992,-150.36 84.025,-150.36 84.057,-150.37 84.069,-150.37 84.092,-150.38 84.092,-150.38 M83.506,-150.68 L83.476,-97.406 M83.315,-94.123 C83.315,-94.79 83.315,-95.452 83.316,-96.119 83.164,-96.284 83.059,-96.516 83.034,-96.736 83.01,-96.956 83.07,-97.135 83.194,-97.213 83.231,-97.236 83.273,-97.252 83.316,-97.26 83.37,-97.309 83.423,-97.357 83.476,-97.406 83.583,-97.433 83.704,-97.426 83.828,-97.385 83.891,-97.364 83.952,-97.335 84.01,-97.301 84.013,-97.299 84.019,-97.294 84.019,-97.294"/>
    </g>
  </g>
  <g id="C3DA0001" vm2d:name="Axials" vm2d:type="layer">
    <g id="WRAP_001" vm2d:name="" vm2d:type="grnode">
      <g transform="matrix(3.78235,0,0,3.78235,-0,839.841)" stroke-width="0.55" stroke-linecap="round" stroke-linejoin="round" stroke-miterlimit="10">
        <path stroke="#fff" d="M77.678,-69.13 L82.942,-74"/>
        <path stroke="#000" stroke-width="0.15" stroke-dasharray="6.35,0.635,1.27,0.635" d="M77.385,-68.859 L83.236,-74.271"/>
      </g>
    </g>
    <g id="WRAP_002" vm2d:name="" vm2d:type="grnode">
      <g transform="matrix(3.78235,0,0,3.78235,-0,839.841)" stroke-width="0.55" stroke-linecap="round" stroke-linejoin="round" stroke-miterlimit="10">
        <path stroke="#fff" d="M84.793,-75.711 L84.975,-75.88 84.986,-83.856"/>
        <path stroke="#000" stroke-width="0.15" stroke-dasharray="6.35,0.635,1.27,0.635" d="M84.499,-75.44 L84.975,-75.88 84.986,-84.256"/>
      </g>
    </g>
    <g id="WRAP_003" vm2d:name="" vm2d:type="grnode">
      <g transform="matrix(3.78235,0,0,3.78235,-0,839.841)" stroke-width="0.55" stroke-linecap="round" stroke-linejoin="round" stroke-miterlimit="10">
        <path stroke="#fff" d="M84.994,-89.747 L84.998,-93.357"/>
        <path stroke="#000" stroke-width="0.15" stroke-dasharray="6.35,0.635,1.27,0.635" d="M84.993,-89.347 L84.999,-93.757"/>
      </g>
    </g>
    <g id="WRAP_004" vm2d:name="" vm2d:type="grnode">
      <g transform="matrix(3.78235,0,0,3.78235,-0,839.841)" stroke-width="0.55" stroke-linecap="round" stroke-linejoin="round" stroke-miterlimit="10">
        <path stroke="#fff" d="M133.65,-140.86 L139.86,-138.8"/>
        <path stroke="#000" stroke-width="0.15" stroke-dasharray="6.35,0.635,1.27,0.635" d="M133.27,-140.98 L140.24,-138.67"/>
      </g>
    </g>
    <g id="WRAP_005" vm2d:name="" vm2d:type="grnode">
      <g transform="matrix(3.78235,0,0,3.78235,-0,839.841)" stroke-width="0.55" stroke-linecap="round" stroke-linejoin="round" stroke-miterlimit="10">
        <path stroke="#fff" d="M70.684,-161.75 L99.936,-152.04"/>
        <path stroke="#000" stroke-width="0.15" stroke-dasharray="6.35,0.635,1.27,0.635" d="M70.304,-161.87 L100.32,-151.92"/>
      </g>
    </g>
    <g id="WRAP_006" vm2d:name="" vm2d:type="grnode">
      <g transform="matrix(3.78235,0,0,3.78235,-0,839.841)" stroke-width="0.55" stroke-linecap="round" stroke-linejoin="round" stroke-miterlimit="10">
        <path stroke="#fff" d="M32.271,-174.49 L36.968,-172.93"/>
        <path stroke="#000" stroke-width="0.15" stroke-dasharray="6.35,0.635,1.27,0.635" d="M31.892,-174.61 L37.348,-172.8"/>
      </g>
    </g>
  </g>
  <g id="C3DC0001" vm2d:name="Callouts" vm2d:type="layer">
    <g>
      <g transform="matrix(3.78235,0,0,3.78235,-0,839.841)" stroke-width="0.85" stroke-linecap="round" stroke-linejoin="miter" stroke-miterlimit="10">
        <path stroke="#fff" d="M125,-165.2 L111.66,-149.38"/>
        <path stroke="#fff" stroke-width="0.7" stroke-linecap="butt" stroke-linejoin="round" d="M112.13,-149.38 C112.13,-149.12 111.92,-148.91 111.66,-148.91 111.4,-148.91 111.19,-149.12 111.19,-149.38 111.19,-149.64 111.4,-149.85 111.66,-149.85 111.92,-149.85 112.13,-149.64 112.13,-149.38 Z"/>
        <path stroke="#000" stroke-width="0.15" d="M125,-165.2 L111.66,-149.38"/>
        <path fill="#000" d="M112.13,-149.38 C112.13,-149.12 111.92,-148.91 111.66,-148.91 111.4,-148.91 111.19,-149.12 111.19,-149.38 111.19,-149.64 111.4,-149.85 111.66,-149.85 111.92,-149.85 112.13,-149.64 112.13,-149.38 Z"/>
        <text font-family="Arial" font-size="3.93" x="125.609" y="-165.853" fill="#000">15</text>
      </g>
    </g>
    <a id="ed4f996e88506a57d5b2119e96d3d760" vm2d:name="15" vm2d:type="grobject" xlink:href="#">
      <path d="M472.8,199.75 L493.91,199.75 493.91,215 472.8,215 Z" fill="#fff" fill-opacity="0"/>
    </a>
    <g>
      <g transform="matrix(3.78235,0,0,3.78235,-0,839.841)" stroke-width="0.85" stroke-linecap="round" stroke-linejoin="miter" stroke-miterlimit="10">
        <path stroke="#fff" d="M72.434,-182.6 L59.089,-166.78"/>
        <path stroke="#fff" stroke-width="0.7" stroke-linecap="butt" stroke-linejoin="round" d="M59.559,-166.78 C59.559,-166.52 59.348,-166.31 59.089,-166.31 58.829,-166.31 58.619,-166.52 58.619,-166.78 58.619,-167.04 58.829,-167.25 59.089,-167.25 59.348,-167.25 59.559,-167.04 59.559,-166.78 Z"/>
        <path stroke="#000" stroke-width="0.15" d="M72.434,-182.6 L59.089,-166.78"/>
        <path fill="#000" d="M59.559,-166.78 C59.559,-166.52 59.348,-166.31 59.089,-166.31 58.829,-166.31 58.619,-166.52 58.619,-166.78 58.619,-167.04 58.829,-167.25 59.089,-167.25 59.348,-167.25 59.559,-167.04 59.559,-166.78 Z"/>
        <text font-family="Arial" font-size="3.93" x="73.0413" y="-183.255" fill="#000">15</text>
      </g>
    </g>
    <a id="ed4f996e88506a57d5b2119e96d3d761" vm2d:name="15" vm2d:type="grobject" xlink:href="#">
      <path d="M273.97,133.93 L295.08,133.93 295.08,149.18 273.97,149.18 Z" fill="#fff" fill-opacity="0"/>
    </a>
    <g>
      <g transform="matrix(3.78235,0,0,3.78235,-0,839.841)" stroke-width="0.85" stroke-linecap="round" stroke-linejoin="miter" stroke-miterlimit="10">
        <path stroke="#fff" d="M156.66,-155.05 L143.21,-140.09"/>
        <path stroke="#fff" stroke-width="0.7" stroke-linecap="butt" stroke-linejoin="round" d="M143.68,-140.09 C143.68,-139.83 143.47,-139.62 143.21,-139.62 142.95,-139.62 142.74,-139.83 142.74,-140.09 142.74,-140.35 142.95,-140.56 143.21,-140.56 143.47,-140.56 143.68,-140.35 143.68,-140.09 Z"/>
        <path stroke="#000" stroke-width="0.15" d="M156.66,-155.05 L143.21,-140.09"/>
        <path fill="#000" d="M143.68,-140.09 C143.68,-139.83 143.47,-139.62 143.21,-139.62 142.95,-139.62 142.74,-139.83 142.74,-140.09 142.74,-140.35 142.95,-140.56 143.21,-140.56 143.47,-140.56 143.68,-140.35 143.68,-140.09 Z"/>
        <text font-family="Arial" font-size="3.93" x="157.271" y="-155.702" fill="#000">20</text>
      </g>
    </g>
    <a id="c01602c4af2bbef133cfc0e478d9c83e_1" vm2d:name="20" vm2d:type="grobject" xlink:href="#">
      <path d="M592.56,238.15 L613.67,238.15 613.67,253.4 592.56,253.4 Z" fill="#fff" fill-opacity="0"/>
    </a>
    <g>
      <g transform="matrix(3.78235,0,0,3.78235,-0,839.841)" stroke-width="0.85" stroke-linecap="round" stroke-linejoin="miter" stroke-miterlimit="10">
        <path stroke="#fff" d="M38.024,-193.91 L25.538,-178.47"/>
        <path stroke="#fff" stroke-width="0.7" stroke-linecap="butt" stroke-linejoin="round" d="M26.008,-178.47 C26.008,-178.21 25.798,-178 25.538,-178 25.279,-178 25.068,-178.21 25.068,-178.47 25.068,-178.73 25.279,-178.94 25.538,-178.94 25.798,-178.94 26.008,-178.73 26.008,-178.47 Z"/>
        <path stroke="#000" stroke-width="0.15" d="M38.024,-193.91 L25.538,-178.47"/>
        <path fill="#000" d="M26.008,-178.47 C26.008,-178.21 25.798,-178 25.538,-178 25.279,-178 25.068,-178.21 25.068,-178.47 25.068,-178.73 25.279,-178.94 25.538,-178.94 25.798,-178.94 26.008,-178.73 26.008,-178.47 Z"/>
        <text font-family="Arial" font-size="3.93" x="38.6312" y="-194.566" fill="#000">20</text>
      </g>
    </g>
    <a id="c01602c4af2bbef133cfc0e478d9c83e_2" vm2d:name="20" vm2d:type="grobject" xlink:href="#">
      <path d="M143.82,91.151 L164.93,91.151 164.93,106.4 143.82,106.4 Z" fill="#fff" fill-opacity="0"/>
    </a>
    <g>
      <g transform="matrix(3.78235,0,0,3.78235,-0,839.841)" stroke-width="0.85" stroke-linecap="round" stroke-linejoin="miter" stroke-miterlimit="10">
        <path stroke="#fff" d="M110.58,-112.83 L86.4,-122.94"/>
        <path stroke="#fff" stroke-width="0.7" stroke-linecap="butt" stroke-linejoin="round" d="M86.87,-122.94 C86.87,-122.68 86.659,-122.47 86.4,-122.47 86.14,-122.47 85.93,-122.68 85.93,-122.94 85.93,-123.19 86.14,-123.41 86.4,-123.41 86.659,-123.41 86.87,-123.19 86.87,-122.94 Z"/>
        <path stroke="#000" stroke-width="0.15" d="M110.58,-112.83 L86.4,-122.94"/>
        <path fill="#000" d="M86.87,-122.94 C86.87,-122.68 86.659,-122.47 86.4,-122.47 86.14,-122.47 85.93,-122.68 85.93,-122.94 85.93,-123.19 86.14,-123.41 86.4,-123.41 86.659,-123.41 86.87,-123.19 86.87,-122.94 Z"/>
        <text font-family="Arial" font-size="3.93" x="111.191" y="-109.448" fill="#000">5</text>
      </g>
    </g>
    <a id="_1d1da78c7f0acc392981312142aec49a" vm2d:name="5" vm2d:type="grobject" xlink:href="#">
      <path d="M418.27,413.1 L431.12,413.1 431.12,428.35 418.27,428.35 Z" fill="#fff" fill-opacity="0"/>
    </a>
    <g>
      <g transform="matrix(3.78235,0,0,3.78235,-0,839.841)" stroke-width="0.85" stroke-linecap="round" stroke-linejoin="miter" stroke-miterlimit="10">
        <path stroke="#fff" d="M109.84,-65.182 L91.713,-72.252"/>
        <path stroke="#fff" stroke-width="0.7" stroke-linecap="butt" stroke-linejoin="round" d="M92.183,-72.252 C92.183,-71.992 91.972,-71.782 91.713,-71.782 91.453,-71.782 91.243,-71.992 91.243,-72.252 91.243,-72.512 91.453,-72.722 91.713,-72.722 91.972,-72.722 92.183,-72.512 92.183,-72.252 Z"/>
        <path stroke="#000" stroke-width="0.15" d="M109.84,-65.182 L91.713,-72.252"/>
        <path fill="#000" d="M92.183,-72.252 C92.183,-71.992 91.972,-71.782 91.713,-71.782 91.453,-71.782 91.243,-71.992 91.243,-72.252 91.243,-72.512 91.453,-72.722 91.713,-72.722 91.972,-72.722 92.183,-72.512 92.183,-72.252 Z"/>
        <text font-family="Arial" font-size="3.93" x="110.449" y="-61.8044" fill="#000">50</text>
      </g>
    </g>
    <a id="_1146bcd98e6ad2babfc21d7488a0e378" vm2d:name="50" vm2d:type="grobject" xlink:href="#">
      <path d="M415.46,593.3 L436.57,593.3 436.57,608.55 415.46,608.55 Z" fill="#fff" fill-opacity="0"/>
    </a>
    <g>
      <g transform="matrix(3.78235,0,0,3.78235,-0,839.841)" stroke-width="0.85" stroke-linecap="round" stroke-linejoin="miter" stroke-miterlimit="10">
        <path stroke="#fff" d="M110.58,-52.931 L76.68,-65.07"/>
        <path stroke="#fff" stroke-width="0.7" stroke-linecap="butt" stroke-linejoin="round" d="M77.15,-65.07 C77.15,-64.811 76.94,-64.6 76.68,-64.6 76.421,-64.6 76.21,-64.811 76.21,-65.07 76.21,-65.33 76.421,-65.54 76.68,-65.54 76.94,-65.54 77.15,-65.33 77.15,-65.07 Z"/>
        <path stroke="#000" stroke-width="0.15" d="M110.58,-52.931 L76.68,-65.07"/>
        <path fill="#000" d="M77.15,-65.07 C77.15,-64.811 76.94,-64.6 76.68,-64.6 76.421,-64.6 76.21,-64.811 76.21,-65.07 76.21,-65.33 76.421,-65.54 76.68,-65.54 76.94,-65.54 77.15,-65.33 77.15,-65.07 Z"/>
        <text font-family="Arial" font-size="3.93" x="111.191" y="-49.5534" fill="#000">55</text>
      </g>
    </g>
    <a id="d28834feb7fc49713cc83b3b30cddda2" vm2d:name="55" vm2d:type="grobject" xlink:href="#">
      <path d="M418.27,639.64 L439.38,639.64 439.38,654.89 418.27,654.89 Z" fill="#fff" fill-opacity="0"/>
    </a>
    <g>
      <g transform="matrix(3.78235,0,0,3.78235,-0,839.841)" stroke-width="0.85" stroke-linecap="round" stroke-linejoin="miter" stroke-miterlimit="10">
        <path stroke="#fff" d="M110.58,-78.613 L88.709,-87.358"/>
        <path stroke="#fff" stroke-width="0.7" stroke-linecap="butt" stroke-linejoin="round" d="M89.179,-87.358 C89.179,-87.098 88.968,-86.888 88.709,-86.888 88.449,-86.888 88.239,-87.098 88.239,-87.358 88.239,-87.617 88.449,-87.828 88.709,-87.828 88.968,-87.828 89.179,-87.617 89.179,-87.358 Z"/>
        <path stroke="#000" stroke-width="0.15" d="M110.58,-78.613 L88.709,-87.358"/>
        <path fill="#000" d="M89.179,-87.358 C89.179,-87.098 88.968,-86.888 88.709,-86.888 88.449,-86.888 88.239,-87.098 88.239,-87.358 88.239,-87.617 88.449,-87.828 88.709,-87.828 88.968,-87.828 89.179,-87.617 89.179,-87.358 Z"/>
        <text font-family="Arial" font-size="3.93" x="111.191" y="-75.2361" fill="#000">60</text>
      </g>
    </g>
    <a id="_1f049ac6281fcf98f380f74e138b0a56" vm2d:name="60" vm2d:type="grobject" xlink:href="#">
      <path d="M418.27,542.5 L439.38,542.5 439.38,557.75 418.27,557.75 Z" fill="#fff" fill-opacity="0"/>
    </a>
    <g id="AUTOID_113" vm2d:name="" vm2d:type="grnode">
      <g transform="matrix(3.78235,0,0,3.78235,-0,839.841)">
        <path fill="#fff" d="M81.617,-198.23 L87.617,-198.23 87.617,-192.23 81.617,-192.23 81.617,-198.23 81.617,-198.23 Z"/>
        <path fill="#000" d="M81.817,-198.03 L87.417,-198.03 87.417,-192.43 81.817,-192.43 81.817,-198.03 81.817,-198.03 Z"/>
        <path fill="#fff" d="M82.017,-197.83 L87.216,-197.83 87.216,-192.63 82.017,-192.63 82.017,-197.83 82.017,-197.83 Z"/>
        <path fill="#000" d="M83.849,-196.41 L83.849,-196.41 83.849,-195.59 84.317,-195.59 C84.594,-195.59 84.769,-195.59 84.836,-195.6 84.958,-195.61 85.053,-195.66 85.123,-195.73 L85.426,-195.34 C85.642,-195.27 85.808,-195.17 85.924,-195.02 86.04,-194.86 86.097,-194.69 86.097,-194.48 86.097,-194.32 86.059,-194.17 85.984,-194.01 85.908,-193.86 85.808,-193.74 85.677,-193.65 85.549,-193.56 85.391,-193.51 85.2,-193.48 85.081,-193.47 84.794,-193.46 84.339,-193.46 L83.136,-193.46 83.136,-196.99 83.136,-196.99 84.549,-196.99 C84.828,-196.99 85.035,-196.98 85.174,-196.96 85.311,-196.94 85.434,-196.89 85.543,-196.81 85.651,-196.74 85.742,-196.64 85.815,-196.52 85.888,-196.39 85.924,-196.26 85.924,-196.11 85.924,-195.94 85.877,-195.79 85.789,-195.65 85.7,-195.51 85.578,-195.41 85.426,-195.34 L85.057,-194.95 C84.961,-194.98 84.751,-195 84.426,-195 L83.849,-195 83.849,-195 83.849,-194.05 84.511,-194.05 C84.769,-194.05 84.929,-194.06 85,-194.08 85.105,-194.1 85.192,-194.14 85.258,-194.22 85.325,-194.29 85.36,-194.39 85.36,-194.52 85.36,-194.62 85.333,-194.71 85.282,-194.79 85.232,-194.86 85.157,-194.92 85.057,-194.95 L85.426,-195.34 85.123,-195.73 C85.192,-195.8 85.229,-195.89 85.229,-196 85.229,-196.11 85.197,-196.2 85.137,-196.27 85.077,-196.34 84.988,-196.38 84.87,-196.39 84.799,-196.4 84.594,-196.41 84.259,-196.41 L83.849,-196.41 83.849,-196.41 Z"/>
      </g>
    </g>
  </g>
  <g id="C3DP0001" vm2d:name="Panels" vm2d:type="layer"/>
</svg>
