<?xml version="1.0" encoding="UTF-8" standalone="no"?>
<!DOCTYPE svg SYSTEM "http://www.w3.org/Graphics/SVG/1.1/DTD/svg11.dtd" [
<!ENTITY % SVG.External.attrib
"xmlns:vm2d CDATA #FIXED 'http://www.cortona3d.com/vm2d'
vm2d:name CDATA #IMPLIED
vm2d:type CDATA #IMPLIED">
]>
<svg xmlns="http://www.w3.org/2000/svg" xmlns:vm2d="http://www.cortona3d.com/vm2d" xmlns:xlink="http://www.w3.org/1999/xlink" version="1.1" width="170mm" height="222mm" viewBox="0 0 643 840" fill="none" fill-rule="evenodd" stroke-miterlimit="5">
  <title>Untitled</title>
  <desc>"Generator:ParallelGraphics Cortona2D","ProfileId:WebCGM""ProfileEd:2.1""ColourClass:colour""Source:Cortona2D Editor Pro 14.2.0.142""Date:20250507"</desc>
  <rect width="643" height="840" fill="#fff"/>
  <defs/>
  <g id="C3DB0001" vm2d:name="Background" vm2d:type="layer"/>
  <g id="C3DG0001" vm2d:name="Drawing" vm2d:type="layer">
    <g transform="matrix(3.78235,0,0,3.78235,-0,839.841)" stroke-width="0.18" stroke-linecap="round" stroke-linejoin="round" stroke-miterlimit="10">
      <path stroke="#000" d="M54.524,-183.55 C54.392,-183.48 54.262,-183.4 54.13,-183.33 53.367,-182.87 53.375,-181.43 54.148,-180.1 54.921,-178.78 56.167,-178.07 56.93,-178.52 57.062,-178.59 57.192,-178.67 57.324,-178.75 M54.524,-183.55 C53.761,-183.1 53.769,-181.66 54.542,-180.33 55.315,-179 56.56,-178.29 57.324,-178.75 58.087,-179.2 58.079,-180.64 57.306,-181.97 56.532,-183.3 55.287,-184.01 54.524,-183.55 Z M54.283,-202.23 L75.1,-152.89 M56.928,-119.97 L57.136,-119.48 M28.385,-199.9 C28.385,-199.9 28.393,-200.03 28.394,-200.1 28.394,-200.24 28.389,-200.38 28.378,-200.52 28.368,-200.67 28.352,-200.81 28.33,-200.95 28.309,-201.09 28.277,-201.23 28.249,-201.37 28.237,-201.43 28.226,-201.5 28.211,-201.56 28.176,-201.7 28.141,-201.84 28.098,-201.98 28.072,-202.06 28.012,-202.23 28.012,-202.23 M28.208,-201.57 C28.208,-201.57 28.214,-201.58 28.217,-201.59 28.242,-201.65 28.263,-201.7 28.285,-201.76 28.335,-201.9 28.389,-202.03 28.434,-202.17 28.44,-202.19 28.45,-202.23 28.45,-202.23 M24.969,-202.23 C27.136,-200.75 29.29,-199.28 31.456,-197.8 31.589,-197.72 31.7,-197.62 31.787,-197.48 32.035,-197.16 32.19,-196.71 32.236,-196.2 32.625,-191.94 33.937,-185.98 32.54,-181.42 29.217,-170.59 25.883,-159.72 22.56,-148.89 22.281,-147.98 21.792,-147.28 21.13,-146.84 19.294,-145.64 16.412,-146.63 13.958,-149.32 11.504,-152 10.019,-155.79 10.263,-158.74 11.46,-173.22 13.856,-202.23 13.856,-202.23 M12.732,-202.23 C12.732,-202.23 10.298,-172.77 9.0831,-158.06 8.8392,-155.11 10.324,-151.32 12.778,-148.63 15.232,-145.95 18.114,-144.95 19.95,-146.16 20.344,-146.39 20.736,-146.62 21.13,-146.84 M13.368,-156.19 C13.158,-155.49 13.278,-154.53 13.695,-153.58 14.112,-152.63 14.782,-151.79 15.521,-151.29 16.26,-150.78 16.99,-150.67 17.511,-150.98 18.264,-151.41 18.982,-151.78 19.3,-152.63 19.586,-153.4 19.561,-154.28 19.23,-155.12 18.438,-157.1 16.748,-158.18 15.19,-157.68 14.779,-157.55 14.312,-157.23 13.98,-157.04 13.697,-156.87 13.484,-156.58 13.368,-156.19 Z M26.575,-154.36 L26.963,-154.74 M7.4114,-104.18 C7.4114,-104.18 7.503,-104.12 7.5496,-104.09 8.1738,-103.74 8.8075,-103.4 9.4465,-103.08 10.71,-102.44 11.969,-101.87 13.219,-101.38 15.094,-100.65 16.944,-100.08 18.755,-99.701 22.989,-98.803 26.96,-98.887 30.495,-99.949 42.748,-103.63 49.664,-118.86 47.579,-137.57 46.867,-143.95 44.773,-151.33 41.7,-158.28 40.376,-161.28 38.865,-164.22 37.189,-167.08 36.351,-168.51 35.474,-169.91 34.56,-171.29 34.105,-171.97 33.638,-172.65 33.164,-173.32 32.691,-173.99 32.208,-174.65 31.716,-175.3 31.47,-175.63 30.961,-176.28 30.961,-176.28 M36.493,-138.92 L36.583,-138.97 M36.681,-138.99 L36.165,-138.79 M26.634,-153.85 C26.634,-153.85 24.799,-151.99 23.943,-151.01 23.918,-150.98 23.895,-150.9 23.895,-150.9 23.896,-150.91 23.876,-150.65 23.888,-150.52 23.904,-150.36 23.938,-150.2 23.981,-150.05 24.031,-149.87 24.093,-149.69 24.167,-149.53 24.324,-149.16 24.53,-148.82 24.807,-148.53 26.365,-146.94 27.922,-145.34 29.535,-143.8 30.368,-143.01 31.259,-142.27 32.149,-141.55 33.044,-140.81 33.966,-140.11 34.894,-139.42 35.349,-139.08 35.849,-138.7 36.448,-138.81 M34.528,-124.86 L34.688,-124.9 M33.634,-124.98 C33.634,-124.98 34.06,-124.85 34.28,-124.84 34.402,-124.83 34.646,-124.87 34.646,-124.87 M22.712,-136.92 C22.712,-136.92 23.125,-136.19 23.343,-135.83 23.55,-135.49 23.765,-135.15 23.989,-134.82 24.209,-134.5 24.44,-134.18 24.677,-133.86 24.899,-133.57 25.127,-133.27 25.365,-132.99 25.889,-132.37 26.422,-131.76 26.966,-131.15 28.032,-129.97 29.163,-128.8 30.315,-127.7 30.891,-127.14 31.477,-126.59 32.075,-126.06 32.314,-125.85 32.563,-125.65 32.827,-125.47 33.08,-125.3 33.355,-125.16 33.624,-125.01 33.672,-124.98 33.775,-124.95 33.775,-124.95 M30.355,-157.35 C30.355,-157.35 29.974,-157.02 29.789,-156.85 29.204,-156.31 28.62,-155.76 28.045,-155.21 27.516,-154.7 26.991,-154.19 26.473,-153.67 26.386,-153.59 26.214,-153.41 26.214,-153.41 M28.425,-129.59 C28.425,-129.59 28.416,-129.83 28.401,-129.94 28.38,-130.11 28.308,-130.43 28.308,-130.43 M28.369,-130.3 C28.369,-130.3 28.241,-130.61 28.154,-130.76 28.032,-130.96 27.898,-131.16 27.746,-131.34 27.589,-131.53 27.415,-131.71 27.23,-131.88 26.642,-132.4 26.037,-132.91 25.427,-133.41 25.108,-133.67 24.454,-134.17 24.454,-134.17 M27.812,-131.25 L27.844,-130.21 M19.442,-145.41 C19.442,-145.41 19.357,-144.92 19.344,-144.67 19.331,-144.41 19.395,-144.08 19.524,-143.75 19.75,-143.18 19.995,-142.61 20.241,-142.04 20.493,-141.46 20.751,-140.88 21.018,-140.31 21.286,-139.73 21.566,-139.16 21.85,-138.59 22.14,-138.01 22.741,-136.86 22.741,-136.86 M23.929,-118.06 C23.929,-118.06 23.938,-118.14 23.937,-118.17 23.932,-118.31 23.916,-118.45 23.873,-118.59 23.832,-118.72 23.696,-118.96 23.696,-118.96 M23.723,-118.92 C23.723,-118.92 23.358,-119.42 23.148,-119.64 22.294,-120.54 21.422,-121.42 20.529,-122.28 20.341,-122.46 19.951,-122.81 19.951,-122.81 M19.681,-146.01 C19.681,-146.01 19.517,-145.54 19.439,-145.3 19.43,-145.27 19.416,-145.21 19.416,-145.21 M12.006,-193.44 C12.006,-193.44 11.491,-193.75 11.229,-193.9 10.642,-194.23 10.045,-194.55 9.4443,-194.86 8.8586,-195.15 8.258,-195.42 7.6653,-195.71 7.5809,-195.75 7.4114,-195.83 7.4114,-195.83 M7.4114,-172.67 C7.4114,-172.67 9.0634,-169.77 9.9069,-168.34 9.9134,-168.33 9.9296,-168.31 9.9296,-168.31 M11.277,-145.67 L11.046,-145.51 M11.17,-145.73 C10.571,-144.62 9.754,-142.83 8.802,-140.52 8.5812,-139.99 8.3578,-139.45 8.1523,-138.91 8.0317,-138.59 7.9231,-138.27 7.8231,-137.94 7.7187,-137.6 7.6221,-137.26 7.5386,-136.92 7.4897,-136.71 7.4114,-136.31 7.4114,-136.31 M7.8191,-160.54 C7.8191,-160.54 8.2876,-160.71 8.5223,-160.8 8.7702,-160.89 9.0193,-160.98 9.2684,-161.07 9.2901,-161.08 9.3338,-161.09 9.3338,-161.09 M7.4114,-101.9 C7.4114,-101.9 8.4501,-101.45 8.9766,-101.24 9.5643,-101.01 10.16,-100.8 10.759,-100.6 11.341,-100.4 11.933,-100.23 12.522,-100.06 14.584,-99.462 16.669,-99.05 18.804,-98.834 22.864,-98.423 27.435,-98.859 30.495,-99.949 M7.4114,-160.53 L7.682,-160.49 M7.8458,-160.54 L7.6525,-160.5 M8.7853,-170.28 C8.7853,-170.28 8.9663,-170.56 9.0536,-170.7 9.1491,-170.85 9.3091,-171.17 9.3091,-171.17 M7.7514,-172.73 C7.7514,-172.73 7.9523,-172.56 8.0508,-172.48 8.1496,-172.39 8.2481,-172.3 8.3438,-172.21 8.4352,-172.13 8.5259,-172.04 8.6127,-171.95 8.7117,-171.85 8.8186,-171.75 8.9014,-171.64 9.0314,-171.46 9.2515,-171.07 9.2515,-171.07 M8.5172,-170.75 L8.8705,-170.41 M7.4114,-129.05 C7.4114,-129.05 7.6312,-128.54 7.7318,-128.29 7.865,-127.94 7.9907,-127.6 8.1054,-127.25 8.2181,-126.91 8.3217,-126.56 8.4145,-126.21 8.4987,-125.89 8.572,-125.57 8.6367,-125.25 8.6806,-125.03 8.7602,-124.6 8.7602,-124.6 M9.2589,-171.08 C9.2589,-171.08 9.2827,-171.2 9.2798,-171.26 M46.536,-119 C46.536,-119 47.199,-119.18 47.523,-119.29 47.856,-119.4 48.185,-119.53 48.506,-119.68 49.135,-119.96 49.706,-120.29 50.205,-120.66 51.476,-121.6 52.239,-122.76 52.435,-124.04 52.638,-125.37 52.259,-126.71 51.99,-128.01 51.722,-129.3 51.723,-130.46 51.709,-131.78 51.683,-134.3 51.471,-136.91 51.075,-139.6 50.36,-144.44 49.054,-149.46 47.204,-154.5 45.561,-158.97 43.503,-163.4 41.092,-167.67 39.888,-169.8 38.598,-171.88 37.235,-173.9 36.551,-174.91 35.855,-175.9 35.137,-176.87 34.779,-177.36 34.416,-177.84 34.049,-178.32 33.684,-178.8 33.313,-179.27 32.938,-179.74 32.719,-180.01 32.272,-180.55 32.272,-180.55 M7.6819,-202.23 L8.0127,-202.13 M7.4114,-199.67 C7.4114,-199.67 7.4654,-199.65 7.4922,-199.64 7.6153,-199.59 7.7408,-199.55 7.8635,-199.5 8.3766,-199.31 8.887,-199.1 9.3915,-198.88 9.9075,-198.65 10.421,-198.42 10.927,-198.17 11.401,-197.94 12.338,-197.46 12.338,-197.46 M7.6282,-202.23 L7.7451,-202.18 M53.592,-124.57 C54.507,-133.07 52.477,-145.05 48.28,-155.9 46.506,-160.48 44.326,-165.01 41.799,-169.36 40.356,-171.84 38.806,-174.26 37.162,-176.58 36.753,-177.16 36.335,-177.74 35.913,-178.31 35.493,-178.87 35.065,-179.44 34.631,-180 34.201,-180.55 33.762,-181.1 33.319,-181.64 33.139,-181.87 32.769,-182.3 32.769,-182.3 M63.998,-137.06 C63.962,-138.13 64.671,-138.88 65.743,-138.9 67.59,-138.98 67.704,-135.42 65.865,-135.35 64.771,-135.32 64.035,-136 63.998,-137.06 Z M65.107,-137.1 C64.997,-137.09 64.889,-137.09 64.78,-137.09 64.607,-137.27 64.374,-137.48 64.257,-137.72 64.293,-137.78 64.353,-137.87 64.395,-137.93 64.513,-137.69 64.746,-137.49 64.918,-137.3 L65.207,-137.31 M64.918,-137.3 C65.089,-137.56 65.241,-137.82 65.463,-138.04 65.507,-137.99 65.58,-137.91 65.63,-137.86 65.408,-137.64 65.255,-137.38 65.085,-137.12 65.292,-136.9 65.483,-136.67 65.729,-136.49 65.688,-136.43 65.627,-136.34 65.591,-136.28 65.345,-136.46 65.154,-136.68 64.947,-136.91 M65.273,-136.92 C65.164,-136.91 65.056,-136.91 64.947,-136.91 64.801,-136.68 64.601,-136.44 64.523,-136.17 64.473,-136.22 64.4,-136.3 64.356,-136.35 64.434,-136.62 64.634,-136.86 64.78,-137.09 M56.483,-155.37 C56.207,-155.53 55.932,-155.69 55.656,-155.85 55.527,-155.93 55.352,-155.91 55.17,-155.8 54.987,-155.7 54.812,-155.51 54.683,-155.29 54.554,-155.07 54.481,-154.82 54.481,-154.61 54.481,-154.4 54.554,-154.24 54.683,-154.16 54.812,-154.09 54.987,-154.11 55.17,-154.21 55.352,-154.32 55.527,-154.5 55.656,-154.73 55.785,-154.95 55.858,-155.19 55.858,-155.41 55.858,-155.62 55.785,-155.78 55.656,-155.85 M55.109,-154.52 L54.715,-154.75 54.942,-155.33 55.397,-155.59 55.624,-155.27 55.397,-154.68 54.942,-154.42 54.715,-154.75 M55.509,-153.69 L54.683,-154.16 M52.548,-141.12 C55.21,-142.65 57.855,-144.18 60.517,-145.72 60.75,-145.72 60.982,-145.73 61.215,-145.74 61.448,-145.08 61.682,-144.43 61.915,-143.78 61.945,-143.7 61.978,-143.62 62.014,-143.54 62.158,-143.22 62.35,-142.94 62.577,-142.72 62.747,-142.55 62.935,-142.42 63.135,-142.32 63.201,-142.29 63.269,-142.26 63.338,-142.23 63.406,-142.21 63.476,-142.19 63.546,-142.17 63.564,-142.17 63.601,-142.17 63.601,-142.17 M53.002,-122.34 C53.002,-122.34 53.101,-122.27 53.148,-122.24 53.209,-122.19 53.268,-122.13 53.324,-122.08 53.437,-121.97 53.542,-121.84 53.636,-121.7 53.778,-121.5 53.896,-121.27 53.985,-121.02 54.219,-120.37 54.453,-119.71 54.686,-119.06 54.919,-119.07 55.15,-119.07 55.383,-119.08 59.641,-121.54 63.873,-123.98 68.13,-126.44 67.653,-127.77 66.95,-129.09 67.362,-130.52 67.56,-131.21 67.965,-131.77 68.487,-132.07 69.142,-132.45 69.799,-132.83 70.454,-133.2 69.22,-136.65 67.993,-140.07 66.76,-143.51 L66.062,-143.49 C65.407,-143.12 64.75,-142.74 64.095,-142.36 63.837,-142.21 63.557,-142.13 63.273,-142.12 61.433,-142.05 60.961,-144.48 60.517,-145.72 M69.142,-155.13 C69.142,-155.13 70.209,-154.89 70.742,-154.76 71.085,-154.68 71.434,-154.58 71.784,-154.47 72.485,-154.23 73.197,-153.93 73.913,-153.56 75.347,-152.83 76.784,-151.83 78.173,-150.6 80.437,-148.6 82.509,-146.05 84.193,-143.2 84.837,-142.11 85.42,-140.98 85.93,-139.84 88.066,-135.05 92.342,-125.46 92.342,-125.46 M85.738,-128.5 C85.738,-128.5 85.731,-128.49 85.73,-128.48 85.728,-128.47 85.727,-128.45 85.727,-128.45 M85.748,-127.72 C85.748,-127.72 85.786,-127.53 85.815,-127.43 85.853,-127.3 85.9,-127.17 85.953,-127.05 85.959,-127.04 85.974,-127.01 85.974,-127.01 M54.661,-154.18 C54.661,-154.18 54.646,-154.04 54.643,-153.98 54.64,-153.92 54.638,-153.85 54.638,-153.79 54.638,-153.75 54.639,-153.71 54.64,-153.67 54.643,-153.57 54.65,-153.46 54.66,-153.36 54.671,-153.25 54.686,-153.14 54.704,-153.03 54.722,-152.92 54.745,-152.81 54.77,-152.7 54.899,-152.14 55.12,-151.56 55.417,-151.01 55.956,-150.01 56.71,-149.16 57.513,-148.66 57.967,-148.37 60.169,-147.2 61.116,-146.3 61.611,-145.84 62.025,-145.2 62.265,-144.53 62.522,-143.81 63.037,-142.37 63.037,-142.37 M55.683,-155.84 L58.095,-157.23 M51.163,-120.26 L52.418,-116.75 55.054,-118.28 54.771,-119.06 M75.481,-81.433 C75.085,-81.788 74.691,-82.141 74.295,-82.495 73.616,-83.614 72.57,-85.055 71.213,-86.742 70.611,-87.321 69.43,-88.506 69.43,-88.506 M129.67,-111.05 C128.74,-111.9 127.35,-112.89 125.64,-113.91 117.19,-118.97 98.516,-124.67 74.52,-129.51 66.115,-124.66 57.761,-119.84 49.357,-114.99 49.357,-114.53 49.357,-114.08 49.357,-113.62 50.07,-112.45 50.807,-111.28 51.562,-110.13 52.216,-109.13 53.58,-107.17 53.58,-107.17 M95.158,-107.25 C95.158,-107.25 95.129,-107.56 95.085,-107.71 95.019,-107.94 94.923,-108.15 94.807,-108.35 94.691,-108.55 94.552,-108.74 94.393,-108.91 94.285,-109.03 94.026,-109.21 94.026,-109.21 M90.869,-109.74 C90.869,-109.74 90.841,-110.06 90.797,-110.21 90.73,-110.43 90.635,-110.64 90.519,-110.85 90.403,-111.05 90.264,-111.24 90.104,-111.41 89.997,-111.52 89.738,-111.7 89.738,-111.7 M90.088,-112.68 C89.588,-112.4 89.588,-111.46 90.088,-110.6 90.587,-109.73 91.397,-109.26 91.896,-109.55 92.396,-109.84 92.396,-110.78 91.896,-111.64 91.397,-112.51 90.587,-112.97 90.088,-112.68 Z M65.576,-90.731 C66.39,-90.531 67.206,-90.326 68.016,-90.111 68.472,-89.989 68.617,-90.129 68.443,-90.522 68.197,-91.079 67.254,-92.215 66.225,-93.194 64.032,-95.283 61.939,-97.637 59.998,-100.2 56.756,-104.47 53.996,-109.24 51.906,-114.19 51.906,-114.49 51.906,-114.79 51.906,-115.1 58.608,-118.96 65.269,-122.81 71.97,-126.68 71.97,-126.38 71.97,-126.07 71.97,-125.77 73.894,-121.22 76.892,-116.05 80.163,-111.64 83.434,-107.23 86.647,-104.03 88.945,-102.89 89.816,-102.46 90.254,-102.45 90.131,-102.88 89.962,-103.47 89.833,-104.07 89.732,-104.68 M81.821,-114.95 C81.821,-114.95 81.793,-115.26 81.748,-115.41 81.682,-115.64 81.587,-115.85 81.471,-116.05 81.355,-116.25 81.215,-116.44 81.056,-116.61 80.948,-116.73 80.689,-116.91 80.689,-116.91 M162.38,-92.701 L125.64,-113.91 M162.38,-27.471 C135.23,-43.145 108.25,-58.725 81.096,-74.4 80.917,-74.505 80.412,-75.026 79.734,-75.808 79.056,-76.589 78.283,-77.538 77.65,-78.369 77.275,-78.861 76.907,-79.36 76.547,-79.862 75.762,-80.956 75.007,-82.077 74.277,-83.208 73.47,-84.46 72.69,-85.734 71.934,-87.018 71.909,-87.06 71.859,-87.103 71.788,-87.144 69.719,-88.339 67.645,-89.537 65.576,-90.731 64.886,-91.341 64.211,-91.973 63.555,-92.619 63.639,-92.602 63.959,-92.484 64.066,-92.596 64.146,-92.681 64.097,-92.882 63.929,-93.159 63.77,-93.419 63.571,-93.656 63.359,-93.874 62.7,-94.553 62.056,-95.251 61.43,-95.961 60.794,-96.684 60.174,-97.425 59.573,-98.178 58.36,-99.697 57.207,-101.29 56.119,-102.94 53.94,-106.26 52.055,-109.78 50.529,-113.39 50.529,-113.7 50.529,-114 50.529,-114.3 50.138,-114.07 49.748,-113.85 49.357,-113.62 M162.38,-60.496 L88.945,-102.89 M126.89,-122.08 C126.89,-122.08 126.55,-122.27 126.38,-122.37 126.36,-122.39 126.33,-122.4 126.3,-122.41 126.09,-122.47 125.84,-122.35 125.71,-122.12 125.43,-121.64 125.15,-121.15 124.87,-120.67 124.8,-120.55 124.77,-120.4 124.79,-120.27 124.82,-120.13 124.89,-120.02 124.99,-119.96 125.16,-119.87 125.33,-119.77 125.5,-119.67 M129.36,-123.87 C129.2,-123.96 129.05,-124.04 128.89,-124.13 124.97,-126.4 120.79,-119.17 124.72,-116.91 124.88,-116.82 125.03,-116.73 125.19,-116.64 M125.5,-119.67 L124.99,-119.96 M121.76,-127.36 C121.76,-127.36 121.76,-127.38 121.76,-127.39 121.76,-127.4 121.75,-127.42 121.75,-127.43 121.74,-127.44 121.73,-127.45 121.73,-127.46 121.11,-127.83 120.33,-127.89 119.57,-127.63 118.81,-127.37 118.13,-126.8 117.68,-126.06 117.68,-126.06 117.68,-126.06 117.68,-126.05 117.67,-126.04 117.66,-126.03 117.66,-126.02 117.65,-126.01 117.64,-125.99 117.63,-125.98 117.62,-125.95 117.6,-125.92 117.58,-125.88 117.56,-125.86 117.55,-125.83 117.54,-125.81 117.52,-125.77 117.5,-125.74 117.49,-125.71 117.48,-125.69 117.46,-125.64 117.46,-125.64"/>
      <path stroke="#000" d="M126.9,-124.48 C126.9,-124.48 126.86,-124.51 126.84,-124.52 126.82,-124.52 126.81,-124.53 126.8,-124.54 126.76,-124.56 126.72,-124.58 126.68,-124.6 126.59,-124.63 126.51,-124.67 126.42,-124.69 126.24,-124.75 126.02,-124.78 125.82,-124.79 125.43,-124.8 125,-124.7 124.62,-124.52 123.98,-124.22 123.42,-123.69 123.03,-123.02 122.64,-122.35 122.44,-121.56 122.47,-120.8 122.48,-120.39 122.56,-119.99 122.71,-119.62 122.78,-119.47 122.86,-119.29 122.95,-119.15 123.01,-119.06 123.07,-118.97 123.14,-118.88 123.17,-118.84 123.2,-118.79 123.24,-118.75 123.27,-118.71 123.31,-118.67 123.35,-118.63 123.36,-118.62 123.37,-118.61 123.37,-118.61 M125.47,-124.1 C125.47,-124.1 125.54,-124.11 125.57,-124.11 125.61,-124.11 125.65,-124.12 125.69,-124.12 125.72,-124.12 125.79,-124.12 125.79,-124.12 M126.25,-124.73 C126.25,-124.73 126.21,-124.78 126.19,-124.8 126.16,-124.83 126.12,-124.87 126.09,-124.9 126.05,-124.93 126.02,-124.96 125.98,-124.99 125.9,-125.05 125.8,-125.12 125.72,-125.16 125.5,-125.28 125.27,-125.37 125.03,-125.41 124.61,-125.49 124.14,-125.45 123.7,-125.28 122.84,-124.96 122.11,-124.24 121.68,-123.29 121.27,-122.39 121.2,-121.4 121.48,-120.52 121.62,-120.08 121.85,-119.68 122.15,-119.35 122.33,-119.15 122.54,-118.99 122.77,-118.84 122.85,-118.79 122.97,-118.72 123.08,-118.68 123.13,-118.65 123.18,-118.63 123.23,-118.61 123.28,-118.59 123.33,-118.58 123.38,-118.56 123.38,-118.56 123.39,-118.56 123.39,-118.56 M125.49,-124.1 C125.49,-124.1 125.41,-124.09 125.37,-124.08 125.33,-124.07 125.29,-124.06 125.25,-124.05 125.21,-124.04 125.17,-124.02 125.13,-124.01 125.05,-123.98 124.97,-123.95 124.89,-123.91 124.85,-123.89 124.81,-123.88 124.77,-123.85 124.74,-123.84 124.68,-123.8 124.68,-123.8 124.68,-123.8 124.6,-123.76 124.57,-123.73 124.53,-123.7 124.49,-123.68 124.45,-123.65 124.38,-123.6 124.31,-123.54 124.24,-123.47 124.13,-123.38 124.03,-123.27 123.94,-123.16 123.72,-122.9 123.54,-122.6 123.4,-122.28 123.27,-121.96 123.18,-121.61 123.15,-121.27 123.13,-121.12 123.13,-120.97 123.13,-120.83 123.13,-120.78 123.14,-120.73 123.14,-120.68 123.14,-120.64 123.15,-120.59 123.16,-120.54 123.16,-120.49 123.17,-120.45 123.18,-120.4 123.18,-120.36 123.2,-120.3 123.2,-120.3 M125.1,-125.4 C125.1,-125.4 125.09,-125.41 125.09,-125.41 125.06,-125.44 125.03,-125.48 124.99,-125.51 124.96,-125.54 124.93,-125.57 124.89,-125.6 124.86,-125.63 124.82,-125.66 124.78,-125.69 124.71,-125.74 124.6,-125.81 124.52,-125.86 124.31,-125.97 124.06,-126.05 123.83,-126.09 123.39,-126.16 122.92,-126.1 122.46,-125.91 121.62,-125.57 120.88,-124.8 120.49,-123.88 120.1,-122.98 120.06,-121.97 120.35,-121.11 120.51,-120.67 120.74,-120.28 121.05,-119.96 121.24,-119.76 121.45,-119.6 121.69,-119.47 121.78,-119.41 121.9,-119.35 122,-119.31 122.05,-119.29 122.1,-119.27 122.15,-119.25 122.2,-119.24 122.29,-119.21 122.29,-119.21 M122.84,-125.34 C122.84,-125.34 122.9,-125.36 122.94,-125.37 122.98,-125.38 123.02,-125.39 123.06,-125.4 123.1,-125.41 123.14,-125.42 123.18,-125.43 123.22,-125.43 123.26,-125.44 123.3,-125.44 123.34,-125.44 123.38,-125.45 123.42,-125.45 123.46,-125.45 123.53,-125.45 123.53,-125.45 M123.94,-126.07 C123.94,-126.07 123.92,-126.1 123.9,-126.11 123.87,-126.15 123.84,-126.18 123.8,-126.21 123.77,-126.24 123.73,-126.27 123.7,-126.3 123.62,-126.36 123.53,-126.43 123.44,-126.48 123.24,-126.6 122.99,-126.69 122.76,-126.74 122.32,-126.82 121.86,-126.78 121.4,-126.61 120.53,-126.29 119.8,-125.57 119.38,-124.63 118.97,-123.73 118.9,-122.69 119.18,-121.85 119.34,-121.37 119.58,-120.95 119.94,-120.59 120.08,-120.44 120.28,-120.28 120.47,-120.17 120.51,-120.14 120.56,-120.11 120.61,-120.09 120.66,-120.06 120.7,-120.04 120.75,-120.02 120.8,-119.99 120.85,-119.97 120.9,-119.95 120.91,-119.95 120.92,-119.95 120.93,-119.94 120.98,-119.93 121.03,-119.91 121.08,-119.89 121.1,-119.88 121.14,-119.87 121.14,-119.87 M121.85,-124.71 C121.85,-124.71 121.78,-124.65 121.75,-124.61 121.71,-124.58 121.68,-124.54 121.65,-124.5 121.62,-124.46 121.59,-124.43 121.56,-124.39 121.46,-124.27 121.38,-124.15 121.3,-124.02 121.18,-123.81 121.07,-123.58 121,-123.34 120.92,-123.1 120.87,-122.85 120.84,-122.6 120.83,-122.45 120.82,-122.31 120.83,-122.16 120.83,-122.11 120.83,-122.06 120.84,-122.01 120.84,-121.96 120.85,-121.92 120.85,-121.87 120.86,-121.82 120.88,-121.73 120.88,-121.73 M123.83,-124.62 C123.83,-124.62 123.75,-124.58 123.71,-124.56 123.67,-124.54 123.63,-124.52 123.59,-124.5 123.55,-124.48 123.51,-124.45 123.47,-124.43 123.36,-124.36 123.25,-124.27 123.14,-124.18 123.04,-124.09 122.93,-123.99 122.84,-123.88 122.81,-123.85 122.78,-123.81 122.75,-123.77 122.72,-123.73 122.69,-123.69 122.66,-123.66 122.63,-123.62 122.58,-123.54 122.58,-123.55 122.58,-123.55 122.52,-123.46 122.5,-123.42 122.47,-123.38 122.45,-123.33 122.42,-123.29 122.4,-123.25 122.37,-123.2 122.35,-123.16 122.28,-123.02 122.22,-122.88 122.17,-122.74 122.12,-122.6 122.08,-122.45 122.05,-122.3 122.03,-122.2 122.01,-122.11 122,-122.01 121.99,-121.96 121.99,-121.91 121.98,-121.86 121.98,-121.81 121.98,-121.71 121.98,-121.71 M120.95,-125.6 C120.95,-125.6 121.02,-125.65 121.05,-125.68 121.09,-125.7 121.13,-125.73 121.16,-125.75 121.24,-125.8 121.32,-125.84 121.4,-125.88 121.44,-125.9 121.48,-125.92 121.52,-125.94 121.56,-125.95 121.6,-125.97 121.64,-125.99 121.68,-126 121.72,-126.01 121.76,-126.03 121.8,-126.04 121.88,-126.06 121.88,-126.06 M122.8,-126.73 C122.8,-126.73 122.77,-126.76 122.75,-126.78 122.73,-126.8 122.7,-126.83 122.67,-126.86 122.66,-126.87 122.65,-126.88 122.64,-126.88 122.61,-126.91 122.59,-126.93 122.56,-126.96 122.53,-126.98 122.5,-127 122.47,-127.03 122.38,-127.09 122.28,-127.15 122.18,-127.21 121.98,-127.31 121.76,-127.37 121.54,-127.41 121.11,-127.49 120.61,-127.42 120.15,-127.24 119.33,-126.9 118.62,-126.19 118.22,-125.28 117.81,-124.36 117.75,-123.32 118.05,-122.45 118.2,-122 118.45,-121.59 118.76,-121.27 118.94,-121.09 119.17,-120.92 119.39,-120.79 119.44,-120.76 119.48,-120.74 119.53,-120.71 119.58,-120.69 119.63,-120.67 119.68,-120.65 119.73,-120.62 119.78,-120.6 119.83,-120.59 119.88,-120.57 119.93,-120.55 119.98,-120.54 119.99,-120.54 119.99,-120.53 119.99,-120.53 M118.53,-126.11 C118.53,-126.11 118.6,-126.19 118.63,-126.23 118.67,-126.27 118.7,-126.3 118.74,-126.34 118.82,-126.42 118.9,-126.49 118.98,-126.55 119.02,-126.59 119.06,-126.62 119.1,-126.65 119.14,-126.68 119.19,-126.71 119.23,-126.73 119.28,-126.77 119.37,-126.82 119.37,-126.82 M120.96,-125.61 C120.96,-125.61 120.89,-125.55 120.85,-125.52 120.81,-125.49 120.78,-125.46 120.74,-125.43 120.68,-125.37 120.61,-125.3 120.54,-125.22 120.45,-125.12 120.36,-125 120.27,-124.88 120.08,-124.59 119.93,-124.27 119.83,-123.93 119.74,-123.64 119.69,-123.35 119.68,-123.05 119.68,-122.9 119.68,-122.76 119.7,-122.61 119.71,-122.52 119.72,-122.42 119.74,-122.33 119.75,-122.28 119.76,-122.23 119.77,-122.19 119.79,-122.14 119.81,-122.05 119.81,-122.05 119.81,-122.05 119.84,-121.98 119.85,-121.94 119.87,-121.9 119.88,-121.86 119.9,-121.81 119.92,-121.77 119.94,-121.73 119.96,-121.69 119.98,-121.65 120,-121.61 120.02,-121.57 120.07,-121.49 120.11,-121.41 120.17,-121.34 120.19,-121.31 120.22,-121.27 120.25,-121.24 120.27,-121.2 120.3,-121.17 120.33,-121.13 120.34,-121.13 120.35,-121.11 120.35,-121.11 M122.65,-119.79 C122.65,-119.79 122.64,-119.8 122.63,-119.81 122.6,-119.84 122.57,-119.88 122.54,-119.91 122.52,-119.95 122.49,-119.98 122.46,-120.02 122.44,-120.05 122.4,-120.11 122.4,-120.11 122.4,-120.11 122.35,-120.18 122.33,-120.22 122.31,-120.26 122.29,-120.3 122.27,-120.34 122.25,-120.38 122.23,-120.42 122.21,-120.47 122.15,-120.59 122.11,-120.73 122.07,-120.86 122.04,-121 122.01,-121.14 121.99,-121.28 121.99,-121.33 121.98,-121.38 121.98,-121.43 121.98,-121.48 121.98,-121.53 121.98,-121.57 121.97,-121.62 121.98,-121.72 121.98,-121.72 121.99,-121.73 122,-121.74 122.01,-121.75 M121.44,-126.76 C121.44,-126.76 121.3,-126.77 121.23,-126.78 121.16,-126.78 121.09,-126.78 121.02,-126.77 120.95,-126.76 120.82,-126.74 120.82,-126.74 120.83,-126.75 120.69,-126.71 120.61,-126.69 120.54,-126.67 120.46,-126.64 120.39,-126.61 120.32,-126.58 120.25,-126.55 120.18,-126.51 120.11,-126.48 119.99,-126.4 119.99,-126.4 119.99,-126.41 119.85,-126.31 119.79,-126.26 119.72,-126.21 119.65,-126.15 119.59,-126.09 119.47,-125.97 119.35,-125.84 119.24,-125.7 119.02,-125.41 118.85,-125.09 118.73,-124.75 118.6,-124.4 118.54,-124.04 118.53,-123.68 118.52,-123.5 118.54,-123.32 118.56,-123.15 118.57,-123.07 118.59,-122.98 118.61,-122.9 118.63,-122.82 118.65,-122.73 118.68,-122.65 118.71,-122.57 118.77,-122.42 118.77,-122.42 118.77,-122.42 118.84,-122.28 118.88,-122.22 118.92,-122.15 118.96,-122.08 119.01,-122.01 119.06,-121.95 119.11,-121.88 119.16,-121.82 119.18,-121.81 119.21,-121.78 119.21,-121.78 M124.54,-124.79 C124.54,-124.79 124.55,-124.76 124.55,-124.75 124.56,-124.7 124.56,-124.64 124.57,-124.59 124.57,-124.56 124.58,-124.5 124.58,-124.5 M118.53,-126.12 C118.53,-126.12 118.47,-126.03 118.43,-125.99 118.4,-125.94 118.37,-125.9 118.34,-125.85 118.31,-125.81 118.28,-125.76 118.25,-125.71 118.22,-125.66 118.19,-125.62 118.16,-125.57 118.06,-125.37 117.97,-125.16 117.9,-124.95 117.84,-124.75 117.79,-124.52 117.77,-124.31 117.75,-124.21 117.75,-124.1 117.75,-123.99 117.74,-123.94 117.75,-123.88 117.75,-123.83 117.75,-123.78 117.76,-123.67 117.76,-123.67 M117.45,-125.62 C117.45,-125.62 117.42,-125.56 117.41,-125.53 117.38,-125.47 117.36,-125.41 117.33,-125.35 117.31,-125.28 117.29,-125.22 117.27,-125.16 117.25,-125.1 117.23,-125.03 117.21,-124.97 117.16,-124.78 117.13,-124.59 117.1,-124.4 117.05,-123.94 117.08,-123.48 117.2,-123.06 117.32,-122.58 117.56,-122.13 117.88,-121.79 118.05,-121.62 118.23,-121.47 118.44,-121.34 118.54,-121.28 118.64,-121.22 118.75,-121.18 118.8,-121.15 118.86,-121.13 118.91,-121.11 118.92,-121.11 118.95,-121.1 118.95,-121.1 M120.22,-121.64 C120.22,-121.64 120.14,-121.63 120.1,-121.62 120.07,-121.62 120,-121.62 120,-121.62 M119.55,-126.91 C119.55,-126.91 119.51,-126.89 119.49,-126.88 119.45,-126.86 119.35,-126.81 119.35,-126.81 M117.49,-125.71 L117.41,-125.53 M117.76,-123.68 C117.76,-123.68 117.77,-123.59 117.78,-123.54 117.78,-123.49 117.79,-123.44 117.8,-123.39 117.81,-123.34 117.82,-123.29 117.84,-123.24 117.85,-123.19 117.86,-123.14 117.88,-123.09 117.89,-123.07 117.91,-123.03 117.91,-123.03 M121.34,-122.08 C121.34,-122.08 121.3,-122.05 121.28,-122.04 121.23,-122.01 121.18,-121.98 121.13,-121.95 121.09,-121.93 121.04,-121.9 120.99,-121.88 120.95,-121.86 120.86,-121.82 120.86,-121.82 M121.04,-121.18 C121.04,-121.18 121.07,-121.19 121.08,-121.19 121.14,-121.22 121.2,-121.25 121.26,-121.28 121.28,-121.29 121.32,-121.31 121.32,-121.31 M123.48,-124.43 C123.48,-124.43 123.47,-124.34 123.46,-124.29 123.45,-124.23 123.44,-124.16 123.43,-124.1 123.43,-124.09 123.42,-124.08 123.42,-124.08 M122.79,-125.32 C122.79,-125.32 122.79,-125.3 122.8,-125.29 122.81,-125.24 122.81,-125.19 122.82,-125.14 122.83,-125.09 122.84,-124.99 122.84,-124.99 M122.84,-124.8 C122.84,-124.8 122.84,-124.84 122.84,-124.86 122.84,-124.9 122.83,-125 122.83,-125 M123.44,-125.45 C123.44,-125.45 123.45,-125.44 123.45,-125.43 123.46,-125.37 123.47,-125.31 123.48,-125.25 123.48,-125.23 123.48,-125.19 123.48,-125.19 M122.45,-126.11 C122.45,-126.11 122.48,-126.06 122.5,-126.04 122.52,-126.01 122.53,-125.98 122.55,-125.95 122.55,-125.95 122.55,-125.95 122.55,-125.95 M121.67,-126.69 C121.67,-126.69 121.62,-126.71 121.6,-126.72 121.54,-126.74 121.42,-126.76 121.42,-126.76 M121.08,-121.09 C121.08,-121.09 121.09,-121.09 121.1,-121.09 121.14,-121.1 121.19,-121.11 121.23,-121.11 121.27,-121.12 121.34,-121.13 121.34,-121.13 M120.33,-121.13 L120.35,-121.13 M121.49,-120.48 C121.49,-120.48 121.49,-120.48 121.49,-120.48 121.49,-120.48 121.48,-120.48 121.48,-120.48 M121.99,-121.35 C121.99,-121.35 122.01,-121.36 122.02,-121.37 122.07,-121.39 122.11,-121.41 122.15,-121.43 122.2,-121.46 122.24,-121.48 122.28,-121.51 122.31,-121.52 122.35,-121.55 122.35,-121.55 M122.13,-120.68 C122.13,-120.68 122.15,-120.69 122.16,-120.7 122.22,-120.72 122.27,-120.74 122.32,-120.77 122.37,-120.79 122.46,-120.84 122.46,-120.84 M123.91,-124.07 C123.91,-124.07 123.92,-124.11 123.92,-124.13 123.92,-124.18 123.92,-124.22 123.92,-124.26 123.92,-124.31 123.92,-124.35 123.92,-124.4 123.91,-124.44 123.91,-124.49 123.91,-124.53 123.9,-124.57 123.89,-124.64 123.89,-124.64 M124.54,-123.71 C124.54,-123.71 124.53,-123.65 124.52,-123.62 124.52,-123.61 124.52,-123.6 124.52,-123.59 124.51,-123.55 124.49,-123.47 124.49,-123.47 M123.62,-125.39 L123.59,-125.44 M122.82,-126.03 C122.82,-126.03 122.76,-126.05 122.73,-126.06 122.7,-126.07 122.66,-126.08 122.62,-126.08 122.58,-126.09 122.55,-126.1 122.51,-126.1 122.48,-126.1 122.43,-126.11 122.43,-126.11 122.44,-126.11 122.36,-126.11 122.32,-126.11 122.28,-126.11 122.24,-126.11 122.2,-126.11 122.16,-126.11 122.12,-126.1 122.08,-126.1 122.04,-126.09 122,-126.08 121.97,-126.08 121.93,-126.07 121.86,-126.05 121.86,-126.05 M121.49,-120.47 L121.5,-120.47 M123.27,-120.75 C123.27,-120.75 123.26,-120.74 123.25,-120.74 123.21,-120.72 123.14,-120.68 123.14,-120.68 M122.23,-120.43 L122.33,-120.44 M122.49,-120.47 C122.49,-120.47 122.46,-120.46 122.44,-120.46 122.4,-120.45 122.31,-120.44 122.31,-120.44 M122.63,-119.82 L122.64,-119.82 M124.73,-124.79 C124.73,-124.79 124.77,-124.73 124.79,-124.7 124.81,-124.67 124.84,-124.61 124.84,-124.61 M125.07,-123.66 C125.07,-123.66 125.07,-123.66 125.07,-123.67 125.07,-123.71 125.07,-123.75 125.06,-123.8 125.06,-123.84 125.06,-123.88 125.05,-123.93 125.05,-123.94 125.04,-123.98 125.04,-123.98 M125.7,-124.12 L125.7,-124.07 M123.97,-125.37 C123.96,-125.37 123.95,-125.38 123.93,-125.38 123.94,-125.38 123.87,-125.4 123.83,-125.41 123.8,-125.42 123.76,-125.42 123.72,-125.43 123.68,-125.44 123.65,-125.44 123.61,-125.44 123.57,-125.45 123.5,-125.45 123.5,-125.45 M122.85,-125.35 C122.85,-125.35 122.77,-125.32 122.73,-125.3 122.69,-125.29 122.65,-125.27 122.61,-125.25 122.57,-125.23 122.54,-125.21 122.5,-125.19 122.42,-125.15 122.34,-125.1 122.27,-125.05 122.23,-125.03 122.19,-125 122.15,-124.97 122.12,-124.95 122.08,-124.92 122.04,-124.89 122.01,-124.86 121.97,-124.83 121.94,-124.8 121.9,-124.77 121.84,-124.7 121.84,-124.7 M120.87,-121.74 C120.87,-121.74 120.89,-121.65 120.9,-121.6 120.91,-121.56 120.93,-121.51 120.94,-121.47 120.98,-121.33 121.03,-121.2 121.09,-121.08 121.12,-120.99 121.17,-120.91 121.21,-120.84 121.24,-120.8 121.26,-120.76 121.29,-120.72 121.31,-120.69 121.34,-120.65 121.37,-120.61 121.39,-120.58 121.45,-120.51 121.45,-120.51 M121.5,-120.45 L121.44,-120.52 M122.63,-119.81 L122.64,-119.81 M125.25,-119.82 L125.29,-119.85 M123.8,-124.61 C123.8,-124.61 123.88,-124.64 123.91,-124.65 123.95,-124.67 123.99,-124.68 124.03,-124.69 124.07,-124.7 124.11,-124.72 124.15,-124.73 124.19,-124.74 124.23,-124.75 124.27,-124.75 124.31,-124.76 124.35,-124.77 124.39,-124.77 124.43,-124.78 124.47,-124.78 124.51,-124.78 124.55,-124.79 124.59,-124.79 124.63,-124.79 124.67,-124.79 124.75,-124.79 124.74,-124.79 124.74,-124.79 124.77,-124.78 124.78,-124.78 124.82,-124.78 124.86,-124.77 124.89,-124.77 124.93,-124.76 124.97,-124.75 125,-124.74 125.04,-124.73 125.08,-124.72 125.11,-124.71 125.11,-124.71 125.12,-124.7 125.12,-124.7"/>
      <path stroke="#000" d="M122.07,-128.07 C121.92,-128.16 121.76,-128.25 121.61,-128.34 117.68,-130.61 113.51,-123.38 117.43,-121.11 117.59,-121.02 117.74,-120.93 117.9,-120.85 M119.06,-126.6 C119.07,-126.59 119.08,-126.59 119.1,-126.58 119.1,-126.57 119.12,-126.56 119.12,-126.56 M119.73,-126.21 L120.27,-125.9 M120.88,-125.55 L121.43,-125.23 M119.06,-126.6 C119.05,-126.6 119.04,-126.6 119.04,-126.6 M123.68,-125.28 C123.68,-125.28 123.67,-125.31 123.66,-125.32 123.64,-125.35 123.61,-125.41 123.61,-125.41 123.61,-125.36 123.61,-125.3 123.62,-125.25 M123.57,-124.49 C123.57,-124.49 123.57,-124.46 123.57,-124.45 123.56,-124.39 123.54,-124.32 123.53,-124.26 123.52,-124.19 123.5,-124.13 123.49,-124.06 123.49,-124.06 123.48,-124.05 123.48,-124.05 M117.75,-124.14 L117.89,-124.06 M118.53,-123.69 L119.04,-123.4 M119.68,-123.03 L120.19,-122.74 M122.13,-121.68 C122.13,-121.68 122.1,-121.64 122.08,-121.63 122.05,-121.59 121.98,-121.53 121.98,-121.53 M117.24,-129.52 C117.05,-129.19 116.87,-128.87 116.68,-128.55 116.88,-128.44 117.07,-128.33 117.27,-128.21 117.34,-128.17 117.42,-128.12 117.5,-128.08 117.53,-128.06 117.56,-128.05 117.58,-128.03 117.61,-128.01 117.64,-128 117.67,-127.98 117.7,-127.96 117.73,-127.94 117.76,-127.93 117.78,-127.92 117.82,-127.9 117.82,-127.9 M118.96,-128.52 C118.96,-128.52 118.93,-128.54 118.91,-128.55 118.88,-128.57 118.84,-128.59 118.81,-128.61 118.77,-128.63 118.74,-128.65 118.71,-128.67 118.67,-128.69 118.64,-128.71 118.61,-128.72 118.57,-128.74 118.54,-128.76 118.51,-128.78 118.39,-128.85 118.26,-128.92 118.14,-128.99 117.84,-129.17 117.54,-129.34 117.24,-129.52 117.24,-129.52 117.24,-129.52 117.24,-129.52 117.24,-129.51 117.24,-129.51 117.24,-129.51 117.25,-129.51 117.25,-129.51 117.26,-129.5 117.26,-129.5 117.27,-129.5 117.27,-129.5 117.28,-129.49 117.29,-129.49 117.29,-129.48 117.3,-129.48 117.31,-129.47 117.32,-129.47 117.36,-129.45 117.39,-129.43 117.43,-129.4 117.5,-129.36 117.57,-129.32 117.64,-129.28 117.79,-129.2 117.94,-129.11 118.09,-129.03 118.24,-128.94 118.39,-128.85 118.54,-128.76 118.58,-128.74 118.61,-128.72 118.64,-128.7 118.68,-128.68 118.71,-128.67 118.74,-128.65 118.78,-128.63 118.81,-128.61 118.84,-128.59 118.88,-128.57 118.91,-128.55 118.95,-128.53 118.95,-128.53 118.96,-128.52 118.96,-128.52 M125.49,-119.74 L125.1,-119.97 124.85,-120.11 M123.32,-120.99 L123.13,-121.1 M122.5,-121.47 L121.98,-121.77 M121.34,-122.13 L120.83,-122.43 M120.19,-122.8 L119.68,-123.09 M119.04,-123.46 L118.53,-123.76 M117.9,-124.12 L117.76,-124.2 M142.37,-109.62 C142.37,-109.62 142.32,-109.6 142.3,-109.6 142.19,-109.58 142.07,-109.57 141.95,-109.58 141.72,-109.59 141.51,-109.66 141.31,-109.77 136.28,-112.67 131.28,-115.56 126.24,-118.47 125.81,-118.72 125.54,-119.18 125.49,-119.74 125.4,-120.7 126,-121.71 126.89,-122.08 127.38,-122.29 127.89,-122.27 128.3,-122.03 132.65,-119.53 136.96,-117.03 141.31,-114.53 M122.04,-124.88 L122.17,-124.81 122.58,-124.57 M123.19,-124.22 L123.73,-123.91 M124.33,-123.55 L124.7,-123.34 M115.16,-128.03 C115.16,-128.03 115.03,-127.89 114.97,-127.81 114.89,-127.71 114.83,-127.61 114.77,-127.51 114.7,-127.41 114.65,-127.3 114.6,-127.19 114.55,-127.08 114.48,-126.86 114.48,-126.86 M139.67,-111.17 C139.93,-111.02 140.46,-110.72 140.46,-110.72 M146.28,-117.44 C146.36,-117.49 146.47,-117.49 146.56,-117.44 147.88,-116.68 149.2,-115.92 150.52,-115.15 150.61,-115.1 150.66,-115.01 150.66,-114.91 150.66,-114.27 150.65,-113.63 150.65,-113 150.65,-112.9 150.59,-112.81 150.51,-112.76 148.31,-111.47 146.11,-110.17 143.91,-108.89 143.87,-108.86 143.82,-108.85 143.77,-108.85 143.73,-108.85 143.67,-108.86 143.63,-108.89 142.31,-109.65 140.99,-110.41 139.67,-111.17 139.6,-111.21 139.56,-111.27 139.54,-111.34 139.52,-111.41 139.53,-111.49 139.56,-111.55 140.13,-112.53 140.72,-113.5 141.26,-114.49 141.26,-114.5 141.27,-114.5 141.27,-114.51 142.94,-115.48 144.61,-116.46 146.28,-117.44 Z M115.03,-129.5 L115.03,-129.5 M113.39,-126.67 L113.14,-126.23 115.93,-124.63 M113.14,-126.23 L113.14,-126.23 M108.9,-131.89 C108.41,-132.74 107.61,-133.2 107.12,-132.92 106.63,-132.63 106.63,-131.71 107.12,-130.86 107.61,-130.01 108.41,-129.55 108.9,-129.83 109.39,-130.12 109.39,-131.04 108.9,-131.89 Z M105.2,-136.34 C104.96,-136.2 104.72,-136.06 104.49,-135.93 104.45,-135.91 104.43,-135.86 104.43,-135.8 104.43,-133.69 104.43,-131.56 104.43,-129.45 104.43,-129.41 104.44,-129.38 104.45,-129.35 104.48,-129.25 104.55,-129.15 104.63,-129.11 106.43,-128.07 108.23,-127.02 110.04,-125.98 110.09,-125.95 110.14,-125.95 110.18,-125.97 110.41,-126.11 110.65,-126.24 110.88,-126.38 M117.74,-127.94 L117.71,-127.96 115.03,-129.5 114.78,-129.07 111.14,-131.17 111.14,-131.75 117.64,-128 M108.47,-129.76 C108.47,-129.76 108.5,-129.82 108.51,-129.85 108.52,-129.89 108.53,-129.93 108.54,-129.97 108.55,-130.05 108.56,-130.14 108.56,-130.24 108.56,-130.38 108.54,-130.53 108.51,-130.69 108.45,-130.96 108.34,-131.23 108.19,-131.48 108.05,-131.73 107.87,-131.96 107.67,-132.15 107.55,-132.26 107.43,-132.35 107.3,-132.42 107.22,-132.47 107.14,-132.51 107.06,-132.53 107.02,-132.55 106.98,-132.56 106.94,-132.57 106.9,-132.58 106.84,-132.58 106.84,-132.58 M123.48,-118.32 C123.48,-118.32 123.46,-118.31 123.45,-118.3 123.43,-118.29 123.41,-118.29 123.39,-118.29 123.36,-118.29 123.34,-118.3 123.31,-118.32 122.07,-119.03 119.59,-120.47 119.59,-120.47 M117.7,-127.96 L117.71,-127.96 M111.14,-131.75 L117.64,-128 M111.14,-131.75 L117.64,-128 111.14,-131.75 111.14,-131.75 M117.8,-127.91 L117.8,-127.9 M118.53,-123.7 L119.04,-123.41 M119.68,-123.04 L120.19,-122.74 M115.4,-124.11 L110.94,-126.69 M115.03,-129.5 L117.82,-127.9 M114.78,-129.07 C114.78,-129.07 114.78,-129.07 114.78,-129.07 M115.82,-127.09 L115.75,-127.52 115.03,-129.5 117.81,-127.9 M115.03,-129.5 L117.75,-127.94 117.79,-127.91 M117.01,-127.11 L115.82,-127.09 115.41,-127.33 114.78,-129.07 115.03,-129.5 117.67,-127.98 117.7,-127.96 M120.19,-122.74 L119.68,-123.04 M119.04,-123.41 L118.53,-123.7 M120.19,-122.74 L119.68,-123.04 M119.04,-123.41 L118.53,-123.7 M114.78,-129.07 C114.78,-129.07 114.78,-129.07 114.78,-129.07 114.78,-129.07 114.78,-129.07 114.78,-129.07 Z M113.39,-126.67 L111.14,-127.97 113.39,-126.67 M115.72,-124.74 L111.13,-127.39 M117.89,-124.07 L117.75,-124.15 M115.93,-124.63 L113.14,-126.23 115.22,-126.6 115.63,-126.76 M113.39,-126.67 L113.39,-126.67 M113.39,-126.67 L113.39,-126.67 M113.39,-126.67 L113.39,-126.67 M118.53,-123.7 L119.04,-123.41 M119.68,-123.04 L120.19,-122.74 M111.14,-131.75 L117.64,-128 111.14,-131.75 M117.64,-128 C115.47,-129.25 113.31,-130.5 111.14,-131.75 111.02,-131.82 110.93,-131.97 110.93,-132.09 110.94,-132.35 110.94,-132.6 110.94,-132.86 110.94,-132.92 110.92,-132.99 110.88,-133.05 110.85,-133.12 110.8,-133.17 110.74,-133.2 108.94,-134.24 107.14,-135.28 105.33,-136.32 105.28,-136.35 105.23,-136.36 105.2,-136.34 105.16,-136.32 105.14,-136.27 105.14,-136.21 105.14,-134.09 105.14,-131.97 105.14,-129.86 105.14,-129.82 105.14,-129.79 105.15,-129.76 105.18,-129.66 105.26,-129.56 105.33,-129.51 107.14,-128.47 108.94,-127.43 110.74,-126.39 110.8,-126.36 110.85,-126.36 110.88,-126.38 110.92,-126.4 110.94,-126.45 110.94,-126.51 110.94,-126.76 110.94,-127.02 110.93,-127.28 110.93,-127.34 110.95,-127.38 110.99,-127.41 111.03,-127.43 111.08,-127.42 111.13,-127.39 112.68,-126.5 114.21,-125.61 115.75,-124.72 115.46,-124.21 115.16,-123.69 114.86,-123.18 115.08,-123.05 115.99,-122.49 116.21,-122.36 M117.82,-127.9 L115.03,-129.5 117.8,-127.9 M114.78,-129.07 C114.78,-129.07 114.78,-129.07 114.78,-129.07 M120.19,-122.74 L119.68,-123.04 M119.04,-123.41 L118.53,-123.7 M120.19,-122.74 L119.68,-123.04 M119.04,-123.41 L118.53,-123.7 M114.78,-129.07 C114.78,-129.07 114.78,-129.07 114.78,-129.07 M113.39,-126.67 L111.14,-127.97 113.39,-126.67 M115.71,-124.75 L111.13,-127.39 110.93,-127.28 M117.81,-124.12 L117.75,-124.15 M113.39,-126.67 L113.39,-126.67 113.39,-126.67 M113.39,-126.67 L113.39,-126.67 M118.53,-123.7 L119.04,-123.41 M119.68,-123.04 L120.19,-122.74 M138.49,-148.52 C138.5,-148.14 138.55,-147.72 138.46,-147.34 138.36,-147.4 138.18,-147.5 138.07,-147.55 138.16,-147.93 138.11,-148.35 138.1,-148.73 137.37,-149.13 136.79,-149.44 135.95,-149.25 135.93,-149.41 135.93,-149.56 135.94,-149.71 136.78,-149.9 137.36,-149.59 138.09,-149.19 M139.49,-147.85 C139.49,-147.85 139.5,-147.88 139.51,-147.89 139.52,-147.91 139.52,-147.93 139.53,-147.95 139.53,-147.97 139.54,-147.99 139.54,-148.01 139.55,-148.05 139.55,-148.08 139.54,-148.12 139.53,-148.23 139.51,-148.35 139.48,-148.45 139.43,-148.67 139.34,-148.91 139.24,-149.12 139.05,-149.51 138.77,-149.88 138.46,-150.16 137.69,-150.85 136.75,-150.99 135.95,-150.52 135.21,-150.14 135.18,-148.8 135.89,-147.54 136.59,-146.28 137.77,-145.57 138.5,-145.96 139.1,-146.31 139.48,-146.85 139.55,-147.55 139.62,-148.07 138.78,-148.36 138.49,-148.52 138.36,-148.44 138.24,-148.37 138.11,-148.3 M130.3,-146.11 L135.39,-149.05 M129.99,-145.35 C129.99,-145.27 129.99,-145.2 129.99,-145.13 130,-144.64 130.29,-144.06 130.73,-143.67 131.16,-143.27 131.65,-143.14 131.96,-143.34 133.64,-144.31 135.32,-145.28 137,-146.25 M72.356,-107.39 C72.828,-107.66 73.297,-107.93 73.769,-108.21 73.862,-109.12 73.816,-110.03 73.518,-110.91 72.999,-111.79 72.306,-112.51 71.477,-113.11 70.864,-113.02 70.27,-112.82 69.687,-112.62 69.215,-112.34 68.746,-112.07 68.274,-111.8 68.181,-110.88 68.227,-109.98 68.525,-109.1 69.045,-108.22 69.737,-107.5 70.566,-106.9 71.179,-106.98 71.774,-107.19 72.356,-107.39 Z M68.227,-111.02 C68.227,-111.02 68.227,-111.02 68.227,-111.02 68.219,-111 68.213,-110.98 68.206,-110.96 68.197,-110.94 68.187,-110.91 68.178,-110.89 68.169,-110.86 68.161,-110.83 68.154,-110.81 68.146,-110.78 68.14,-110.75 68.134,-110.72 68.109,-110.62 68.096,-110.51 68.087,-110.4 68.071,-110.21 68.082,-110.02 68.109,-109.84 68.161,-109.47 68.294,-109.08 68.486,-108.71 68.676,-108.35 68.928,-108.01 69.21,-107.75 69.365,-107.6 69.545,-107.46 69.717,-107.36 69.802,-107.31 69.91,-107.25 70.007,-107.21 70.034,-107.2 70.062,-107.19 70.09,-107.18 70.117,-107.17 70.144,-107.16 70.172,-107.15 70.188,-107.15 70.205,-107.14 70.222,-107.14 70.236,-107.13 70.263,-107.12 70.263,-107.12 M58.909,-157.48 C58.778,-157.41 58.647,-157.33 58.516,-157.26 57.298,-156.56 57.292,-154.29 58.502,-152.19 59.083,-151.18 59.872,-150.34 60.697,-149.86 61.521,-149.38 62.313,-149.3 62.897,-149.64 63.029,-149.71 63.159,-149.79 63.291,-149.86 M66.942,-157.97 C66.942,-157.97 66.913,-157.99 66.898,-158.01 66.861,-158.04 66.824,-158.07 66.785,-158.1 66.747,-158.13 66.709,-158.15 66.669,-158.18 66.553,-158.25 66.437,-158.31 66.325,-158.34 66.098,-158.41 65.893,-158.38 65.736,-158.28 65.525,-158.13 65.414,-157.84 65.429,-157.47 65.443,-157.1 65.581,-156.68 65.812,-156.31 66.044,-155.93 66.349,-155.62 66.662,-155.46 66.975,-155.3 67.269,-155.29 67.48,-155.43 67.637,-155.54 67.74,-155.73 67.775,-155.98 67.786,-156.06 67.79,-156.14 67.787,-156.24 67.785,-156.28 67.781,-156.33 67.776,-156.37 67.77,-156.42 67.763,-156.47 67.754,-156.52 67.747,-156.55 67.73,-156.62 67.73,-156.62 M60.241,-153.19 C59.745,-154.05 59.468,-154.99 59.47,-155.81 59.472,-156.62 59.754,-157.23 60.253,-157.52 61.681,-158.34 63.111,-159.17 64.539,-160 65.64,-160.63 67.353,-159.69 68.396,-157.87 69.44,-156.06 69.39,-154.12 68.283,-153.48 66.855,-152.66 65.421,-151.84 63.993,-151.01 63.494,-150.73 62.818,-150.8 62.114,-151.21 61.411,-151.61 60.737,-152.33 60.241,-153.19 Z M51.835,-144.47 L58.26,-148.18 M49.974,-151.1 L54.638,-153.79 M67.451,-155.48 L67.199,-155.33 M65.765,-158.23 L65.587,-158.13 M86.478,-126.89 C86.478,-126.89 86.677,-126.92 86.777,-126.94 86.805,-126.95 86.843,-126.92 86.87,-126.88 86.886,-126.85 86.904,-126.83 86.921,-126.8 86.926,-126.8 86.936,-126.78 86.936,-126.78 M85.351,-129.52 C85.246,-129.46 85.142,-129.4 85.036,-129.34 84.87,-129.24 84.92,-128.94 84.928,-128.79 84.939,-128.57 84.97,-128.34 85.021,-128.1 85.034,-128.04 85.047,-127.98 85.062,-127.92 85.077,-127.86 85.094,-127.8 85.111,-127.74 85.12,-127.71 85.138,-127.68 85.16,-127.66 85.182,-127.64 85.207,-127.63 85.226,-127.63 85.496,-127.68 85.766,-127.72 86.036,-127.77 86.042,-127.77 86.049,-127.77 86.054,-127.78 86.159,-127.84 86.264,-127.9 86.369,-127.96 M85.988,-128.87 C85.934,-128.97 85.859,-129.05 85.781,-129.1 85.703,-129.14 85.627,-129.15 85.571,-129.12 85.454,-129.06 85.451,-128.84 85.564,-128.64 85.618,-128.55 85.693,-128.47 85.771,-128.42 85.849,-128.37 85.925,-128.36 85.981,-128.39 86.037,-128.42 86.07,-128.49 86.071,-128.58 86.072,-128.67 86.043,-128.78 85.988,-128.87 Z M85.755,-128.43 C85.755,-128.43 85.755,-128.43 85.755,-128.43 85.755,-128.45 85.753,-128.46 85.752,-128.47 85.75,-128.48 85.748,-128.49 85.745,-128.51 85.74,-128.53 85.733,-128.55 85.724,-128.58 85.71,-128.62 85.694,-128.65 85.673,-128.69 85.646,-128.74 85.614,-128.78 85.579,-128.82 85.57,-128.83 85.561,-128.84 85.552,-128.85 85.543,-128.86 85.533,-128.86 85.524,-128.87 85.514,-128.88 85.505,-128.89 85.495,-128.89 85.491,-128.9 85.482,-128.9 85.482,-128.9 M86.335,-128.65 C86.335,-128.65 86.336,-128.66 86.336,-128.67 86.338,-128.69 86.34,-128.71 86.343,-128.74 86.346,-128.76 86.349,-128.78 86.353,-128.81 86.357,-128.83 86.362,-128.85 86.366,-128.88 86.368,-128.88 86.372,-128.9 86.372,-128.9 M86.375,-128.91 C86.375,-128.91 86.379,-128.93 86.382,-128.94 86.388,-128.96 86.394,-128.98 86.401,-129 86.408,-129.02 86.415,-129.04 86.423,-129.06 86.43,-129.08 86.438,-129.1 86.447,-129.12 86.448,-129.12 86.45,-129.13 86.45,-129.13 86.454,-129.13 86.467,-129.16 86.474,-129.17 86.483,-129.19 86.493,-129.21 86.503,-129.23 86.514,-129.24 86.524,-129.26 86.536,-129.27 86.547,-129.29 86.558,-129.3 86.57,-129.32 86.594,-129.35 86.62,-129.37 86.647,-129.4 86.661,-129.41 86.675,-129.42 86.689,-129.43 86.698,-129.44 86.716,-129.45 86.716,-129.45 86.725,-129.46 86.73,-129.46 86.733,-129.47 86.748,-129.48 86.764,-129.49 86.78,-129.49 86.795,-129.5 86.812,-129.51 86.828,-129.52 86.833,-129.52 86.843,-129.52 86.843,-129.52 M89.828,-126.09 C89.828,-126.09 89.833,-126.11 89.835,-126.12 89.842,-126.15 89.849,-126.19 89.855,-126.22 89.86,-126.26 89.865,-126.29 89.869,-126.33 89.877,-126.4 89.881,-126.48 89.882,-126.55 89.883,-126.67 89.876,-126.79 89.861,-126.92 89.827,-127.21 89.748,-127.51 89.631,-127.82 89.411,-128.39 89.064,-128.93 88.649,-129.35 88.136,-129.87 87.565,-130.16 87.08,-130.14 86.961,-130.14 86.849,-130.12 86.745,-130.08 86.291,-129.9 85.835,-129.72 85.381,-129.54 85.37,-129.53 85.361,-129.53 85.351,-129.52 85.184,-129.42 85.235,-129.12 85.243,-128.97 85.254,-128.75 85.285,-128.52 85.335,-128.28 85.348,-128.22 85.362,-128.16 85.377,-128.1 85.392,-128.04 85.408,-127.98 85.426,-127.93 85.434,-127.9 85.452,-127.87 85.475,-127.84 85.497,-127.82 85.522,-127.81 85.541,-127.82 85.811,-127.86 86.081,-127.91 86.35,-127.95 86.357,-127.95 86.364,-127.96 86.369,-127.96 86.408,-127.99 86.373,-128.08 86.368,-128.12 86.358,-128.17 86.35,-128.23 86.344,-128.28 86.341,-128.31 86.339,-128.33 86.337,-128.36 86.335,-128.39 86.333,-128.41 86.332,-128.44 86.331,-128.46 86.33,-128.49 86.33,-128.52 86.33,-128.54 86.331,-128.57 86.332,-128.59 86.332,-128.61 86.334,-128.64 86.334,-128.64"/>
      <path stroke="#000" d="M89.275,-126.23 C89.275,-126.23 89.331,-126.36 89.349,-126.42 89.371,-126.51 89.385,-126.6 89.392,-126.68 89.408,-126.86 89.396,-127.06 89.356,-127.27 89.277,-127.69 89.09,-128.14 88.827,-128.53 88.211,-129.44 87.326,-129.87 86.798,-129.5 86.515,-129.31 86.376,-128.91 86.416,-128.4 M86.798,-129.5 L86.72,-129.46 M73.776,-136.19 C73.606,-135.51 73.731,-134.6 74.119,-133.71 74.532,-132.76 75.199,-131.91 75.937,-131.4 76.676,-130.89 77.408,-130.77 77.933,-131.07 78.744,-131.54 79.437,-131.9 79.769,-132.81 80.031,-133.53 79.98,-134.43 79.624,-135.32 78.895,-137.15 77.209,-138.23 75.734,-137.82 75.568,-137.77 75.375,-137.69 75.215,-137.6 74.952,-137.45 74.428,-137.14 74.428,-137.14 74.428,-137.14 74.371,-137.11 74.344,-137.09 74.316,-137.07 74.29,-137.05 74.264,-137.03 74.239,-137.01 74.213,-136.98 74.19,-136.96 74.117,-136.89 74.052,-136.81 73.994,-136.72 73.899,-136.57 73.825,-136.39 73.776,-136.19 Z M11.115,-198.08 C11.115,-198.08 11.102,-198.02 11.102,-198 11.101,-197.72 11.187,-197.44 11.353,-197.18 11.44,-197.04 11.545,-196.92 11.66,-196.8 11.786,-196.68 11.926,-196.56 12.073,-196.46 12.128,-196.43 12.247,-196.36 12.247,-196.36 M18.743,-155.1 L17.332,-154.28 M17.815,-156.39 L18.743,-155.1 18.64,-153.85 17.609,-153.9 16.681,-155.19 16.784,-156.44 17.815,-156.39 16.729,-155.76 M20.593,-119.16 C20.848,-118.78 21.273,-118.57 21.665,-118.37 22.269,-118.06 22.689,-118.07 23.361,-118.07 23.602,-118.07 23.844,-118.05 24.085,-118.06 24.319,-118.07 24.552,-118.11 24.786,-118.13 26.925,-118.32 28.834,-118.94 30.509,-119.98 30.696,-120.09 30.871,-120.23 31.052,-120.35 31.233,-120.48 31.421,-120.6 31.595,-120.73 31.77,-120.87 31.932,-121.03 32.1,-121.17 32.268,-121.32 32.444,-121.46 32.605,-121.61 32.686,-121.69 32.726,-121.79 32.723,-121.9 32.717,-122.1 32.501,-122.45 32.422,-122.61 32.335,-122.8 32.155,-123.01 31.928,-123.19 31.532,-123.51 31.093,-123.75 30.713,-124.09 29.802,-124.91 28.908,-125.76 28.038,-126.62 27.611,-127.05 27.204,-127.49 26.787,-127.93 25.548,-129.22 24.339,-130.55 23.195,-131.93 22.82,-132.38 22.464,-132.85 22.099,-133.31 21.734,-133.77 21.358,-134.23 21.003,-134.69 20.721,-135.07 20.387,-135.23 20.108,-135.13 19.464,-134.9 19.619,-133.76 19.606,-133.31 19.597,-133.01 19.594,-132.72 19.588,-132.42 19.576,-131.82 19.553,-131.23 19.553,-130.63 19.552,-130.05 19.576,-129.46 19.588,-128.88 19.599,-128.3 19.598,-127.71 19.623,-127.13 19.716,-124.91 19.941,-122.42 20.234,-120.37 20.307,-119.85 20.45,-119.37 20.593,-119.16 Z M7.4114,-125.7 C7.4114,-125.7 7.4189,-125.7 7.4227,-125.69 7.8554,-125.32 8.2958,-124.96 8.7413,-124.61 9.6248,-123.91 10.516,-123.25 11.411,-122.65 13.204,-121.43 15.006,-120.42 16.794,-119.61 20.379,-118 23.85,-117.27 27.01,-117.45 37.174,-118.03 42.73,-127.96 40.892,-142.24 40.248,-147.24 38.724,-152.53 36.428,-157.72 35.411,-160.02 34.251,-162.29 32.964,-164.48 32.321,-165.58 31.647,-166.66 30.946,-167.71 30.596,-168.23 30.238,-168.76 29.873,-169.27 29.63,-169.62 29.126,-170.29 29.126,-170.29 M36.958,-129.29 C36.887,-129.28 36.816,-129.26 36.755,-129.23 35.094,-128.27 31.77,-126.35 31.77,-126.35 M9.1229,-158.54 C9.1229,-158.54 9.077,-158.46 9.0584,-158.42 8.9896,-158.26 8.9311,-158.09 8.8823,-157.93 8.8307,-157.75 8.7893,-157.57 8.7572,-157.39 8.6911,-157.02 8.6599,-156.62 8.6642,-156.2 8.6706,-155.57 8.7569,-154.9 8.9203,-154.21 9.1936,-153.06 9.6754,-151.88 10.324,-150.77 10.972,-149.67 11.766,-148.67 12.636,-147.88 13.156,-147.4 13.695,-147.01 14.237,-146.7 14.597,-146.5 14.958,-146.34 15.31,-146.22 15.481,-146.16 15.656,-146.11 15.833,-146.08 16,-146.04 16.17,-146.02 16.34,-146 16.368,-146 16.426,-146 16.426,-146 M11.378,-185.84 C11.378,-185.84 10.969,-186.04 10.762,-186.13 10.322,-186.33 9.8757,-186.52 9.4264,-186.69 8.9894,-186.86 8.5466,-187.03 8.1013,-187.17 7.8735,-187.25 7.4114,-187.38 7.4114,-187.38 M9.5917,-199.36 C10.066,-199.17 10.655,-199.52 11.242,-200.36 11.418,-200.61 11.579,-200.88 11.708,-201.16 11.753,-201.26 11.788,-201.36 11.827,-201.46 11.847,-201.51 11.869,-201.56 11.887,-201.62 11.906,-201.67 11.93,-201.72 11.947,-201.77 11.983,-201.88 12.006,-201.99 12.035,-202.1 12.046,-202.14 12.068,-202.23 12.068,-202.23 M7.4114,-200.17 C7.4114,-200.17 7.8162,-200.04 8.016,-199.97 8.3391,-199.85 8.6583,-199.72 8.9781,-199.6 9.1821,-199.52 9.3891,-199.44 9.5917,-199.36 10.108,-199.15 10.621,-198.93 11.128,-198.69 11.552,-198.5 12.39,-198.09 12.39,-198.09 M46.318,-118.19 C46.318,-118.19 46.396,-118.2 46.435,-118.21 46.779,-118.28 47.123,-118.37 47.461,-118.47 47.789,-118.56 48.115,-118.66 48.434,-118.78 49.379,-119.13 50.228,-119.57 50.951,-120.09 52.651,-121.3 53.584,-122.89 53.592,-124.57 53.599,-125.85 53.128,-127.11 52.786,-128.33 52.386,-129.76 52.345,-131 52.33,-132.48 52.306,-134.91 52.106,-137.43 51.733,-140.03 51.06,-144.7 49.83,-149.55 48.084,-154.41 44.77,-163.65 39.706,-172.64 33.493,-180.33 M32.551,-181.46 L33.493,-180.33 C33.338,-180.52 33.203,-180.73 33.08,-180.94 32.956,-181.16 32.842,-181.38 32.736,-181.6 32.704,-181.67 32.645,-181.8 32.645,-181.8 M64.356,-136.35 L64.598,-136.35 M64.529,-137.73 L64.257,-137.72 M65.094,-137.13 L64.94,-137.3 M65.629,-137.86 L65.626,-137.86 M65.119,-137.08 L65.006,-136.91 M65.713,-136.47 L65.583,-136.6 M55.518,-155 L54.942,-155.33 M55.497,-153.69 C55.626,-153.62 55.802,-153.63 55.984,-153.74 56.167,-153.84 56.342,-154.03 56.471,-154.25 56.6,-154.48 56.673,-154.72 56.673,-154.93 56.673,-155.14 56.6,-155.3 56.471,-155.38 M66.062,-143.49 L69.756,-133.19 M70.454,-133.2 L69.756,-133.19 C69.101,-132.81 68.444,-132.43 67.789,-132.05 67.267,-131.75 66.863,-131.19 66.665,-130.5 66.252,-129.07 66.955,-127.75 67.433,-126.42 M68.13,-126.44 L67.433,-126.42 54.686,-119.06 M69.667,-132.75 L71.459,-127.75 68.823,-126.23 67.33,-130.39 M58.87,-157.46 C58.87,-157.46 58.761,-157.46 58.708,-157.45 58.634,-157.44 58.56,-157.43 58.489,-157.41 58.347,-157.37 58.216,-157.31 58.095,-157.23 57.417,-156.79 57.135,-155.79 57.34,-154.55 57.545,-153.32 58.211,-152 59.123,-151.04 60.224,-149.87 62.065,-148.97 63.248,-148.22 63.768,-147.89 64.256,-147.35 64.607,-146.7 64.723,-146.49 64.821,-146.27 64.901,-146.05 65.22,-145.16 65.858,-143.38 65.858,-143.38 M116.24,-102.71 C101.91,-110.98 87.673,-119.2 73.347,-127.47 73.739,-127.7 74.128,-127.93 74.52,-128.15 90.745,-124.87 106.35,-120.65 121.08,-115.53 121.95,-115.09 122.8,-114.61 123.63,-114.1 124.61,-113.5 125.44,-112.92 126.08,-112.39 128.28,-111.12 130.48,-109.85 132.68,-108.58 132.84,-108.49 133.01,-108.36 133.15,-108.23 133.74,-107.52 133.86,-106.51 133.44,-105.93 133.07,-105.42 132.38,-105.01 131.43,-104.73 131.1,-104.63 130.76,-104.56 130.42,-104.5 129.1,-104.27 127.77,-104.07 126.45,-103.88 125.1,-103.68 123.74,-103.5 122.38,-103.33 119.59,-102.99 116.78,-102.71 113.97,-102.48 108.24,-102.02 102.31,-101.78 96.201,-101.75 96.103,-101.75 96.015,-101.77 95.944,-101.81 93.202,-103.39 90.452,-104.98 87.71,-106.56 87.709,-106.49 87.709,-106.41 87.709,-106.34 87.708,-106.22 87.631,-106.16 87.488,-106.18 87.345,-106.2 87.145,-106.29 86.918,-106.44 86.271,-106.85 84.95,-108.23 83.368,-110.15 81.787,-112.07 80.138,-114.29 78.937,-116.12 76.758,-119.43 74.873,-122.96 73.347,-126.57 73.347,-126.87 73.347,-127.17 73.347,-127.47 M52.072,-115 L162.38,-51.314 M124.2,-113.73 L121.08,-115.53 M87.71,-106.56 C88.367,-105.92 89.042,-105.29 89.732,-104.68 91.8,-103.48 93.875,-102.28 95.944,-101.09 96.015,-101.05 96.103,-101.03 96.201,-101.03 99.291,-101.04 102.39,-101.1 105.48,-101.22 108.47,-101.34 111.47,-101.52 114.46,-101.75 118.75,-102.09 123.02,-102.56 127.28,-103.17 128.64,-103.37 130,-103.58 131.35,-103.81 132.14,-103.95 132.85,-104.15 133.43,-104.4 133.91,-104.61 134.06,-105.39 134.16,-105.81 134.32,-106.48 134.37,-107.13 134.3,-107.69 134.25,-108.11 133.83,-108.65 133.32,-108.94 132.1,-109.65 130.89,-110.35 129.67,-111.05 128.47,-111.5 127.28,-111.94 126.08,-112.39 M72.594,-85.945 L71.213,-86.742 M133.96,-107.5 C133.75,-107.73 133.42,-108.03 133.23,-108.18 133.2,-108.2 133.17,-108.21 133.15,-108.23 M74.295,-82.495 L75.061,-82.053 M94.376,-110.19 C93.877,-109.9 93.877,-108.97 94.376,-108.1 94.876,-107.24 95.685,-106.77 96.184,-107.06 96.684,-107.35 96.684,-108.28 96.184,-109.15 95.685,-110.01 94.876,-110.48 94.376,-110.19 Z M81.039,-117.89 C80.54,-117.6 80.54,-116.67 81.039,-115.8 81.539,-114.94 82.348,-114.47 82.848,-114.76 83.347,-115.05 83.347,-115.98 82.848,-116.85 82.348,-117.71 81.539,-118.18 81.039,-117.89 Z M74.52,-128.15 L74.52,-129.51 M71.97,-125.77 L73.347,-126.57 M50.529,-113.39 L51.906,-114.19 M128.83,-116.98 C128.83,-116.98 128.78,-116.94 128.75,-116.92 128.7,-116.89 128.64,-116.85 128.59,-116.82 128.53,-116.78 128.47,-116.75 128.42,-116.72 128.25,-116.63 128.08,-116.55 127.9,-116.48 127.61,-116.37 127.31,-116.3 127.01,-116.27 126.36,-116.2 125.72,-116.33 125.19,-116.64 121.26,-118.91 125.43,-126.13 129.36,-123.87 129.9,-123.56 130.32,-123.07 130.59,-122.47 130.71,-122.2 130.8,-121.9 130.85,-121.59 130.88,-121.41 130.9,-121.22 130.9,-121.03 130.9,-120.96 130.9,-120.9 130.9,-120.83 130.9,-120.77 130.9,-120.7 130.9,-120.64 130.89,-120.61 130.89,-120.54 130.89,-120.54 M120.01,-120.52 C120.01,-120.52 119.94,-120.51 119.9,-120.5 119.84,-120.49 119.78,-120.48 119.73,-120.48 119.67,-120.47 119.61,-120.47 119.55,-120.46 119.49,-120.46 119.43,-120.46 119.37,-120.46 119.2,-120.46 119.02,-120.47 118.85,-120.5 118.51,-120.56 118.19,-120.68 117.9,-120.85 113.97,-123.11 118.15,-130.34 122.07,-128.07 122.37,-127.9 122.63,-127.68 122.85,-127.42 122.96,-127.29 123.06,-127.14 123.14,-126.99 123.17,-126.94 123.2,-126.89 123.23,-126.84 123.25,-126.78 123.28,-126.73 123.3,-126.68 123.33,-126.62 123.37,-126.52 123.37,-126.52 M120.19,-122.74 L119.68,-123.03 M119.04,-123.4 L118.53,-123.69 M117.89,-124.06 L117.75,-124.14 M121.08,-122.29 C121.08,-122.29 121.06,-122.29 121.05,-122.29 121.03,-122.29 121.02,-122.29 121,-122.29 120.99,-122.3 120.97,-122.3 120.96,-122.3 120.93,-122.31 120.9,-122.32 120.88,-122.34 120.86,-122.35 120.84,-122.36 120.83,-122.37 M140.65,-110.6 C140.65,-110.6 140.66,-110.56 140.67,-110.54 140.71,-110.43 140.77,-110.33 140.83,-110.23 140.96,-110.04 141.12,-109.88 141.31,-109.77 M126.49,-122.31 C125.68,-121.83 125.14,-120.91 125.1,-119.97 M126.89,-122.08 C126.75,-122.16 126.62,-122.24 126.49,-122.31 126.45,-122.33 126.38,-122.37 126.38,-122.37 M124.7,-123.34 L124.33,-123.55 M123.73,-123.91 L123.19,-124.22 M122.58,-124.57 L122.04,-124.88 M121.43,-125.23 L120.88,-125.55 M120.27,-125.9 L119.73,-126.21 M119.12,-126.56 L119.1,-126.58 M126.24,-118.47 C126.3,-118.44 126.35,-118.41 126.41,-118.39 M128.45,-121.94 C128.4,-121.97 128.35,-122.01 128.3,-122.03 M139.6,-111.53 C139.6,-111.54 139.6,-111.53 139.61,-111.53 139.6,-111.51 139.59,-111.5 139.58,-111.48 M139.59,-111.54 C139.59,-111.54 139.59,-111.54 139.59,-111.54 139.58,-111.54 139.58,-111.54 139.58,-111.53 M141.26,-114.49 C141.25,-114.48 141.26,-114.45 141.27,-114.41 M139.57,-111.52 C139.58,-111.53 139.58,-111.54 139.59,-111.54 M115.41,-127.33 L115.75,-127.52 117.41,-127.55 M114.78,-129.07 L114.78,-129.07 M116.03,-125.15 L115.22,-126.6 115.22,-126.99 M117.82,-127.9 L115.03,-129.5 111.14,-131.75 M115.03,-129.5 L117.82,-127.9 M117.75,-124.15 L117.89,-124.07 M118.53,-123.7 L119.04,-123.41 M119.68,-123.04 L120.19,-122.74 M116.2,-125.72 L115.63,-126.76 115.22,-126.99 113.39,-126.67 111.14,-127.97 111.13,-127.39 113.14,-126.23 113.39,-126.67 111.14,-127.97 M113.39,-126.67 L113.39,-126.67 M117.67,-127.98 L117.67,-127.98 M117.67,-127.98 L117.65,-127.99 M117.75,-127.94 L117.74,-127.94 M117.8,-127.9 L117.82,-127.9 M117.75,-124.15 L117.81,-124.12 117.89,-124.07 M137.68,-148.96 C137.82,-149.04 137.95,-149.12 138.09,-149.19 138.08,-149.49 138.13,-149.98 138.01,-150.31 138.12,-150.25 138.3,-150.16 138.4,-150.1 138.53,-149.77 138.47,-149.27 138.48,-148.98 138.76,-148.82 139.49,-148.58 139.54,-148.12 M138.1,-148.52 L138.3,-148.41 M135.94,-149.71 L136.68,-149.3 M138.4,-150.1 L138.07,-149.91 M130.38,-146.15 C130.36,-146.14 130.33,-146.12 130.3,-146.11 130.09,-145.97 129.98,-145.7 129.99,-145.35 130.01,-144.61 130.53,-143.73 131.16,-143.39 M138.48,-148.98 L138.08,-148.75 M137.89,-148.85 L137.88,-149.08 M71.803,-109.17 C71.803,-109.17 71.862,-109.14 71.892,-109.13 71.924,-109.12 71.956,-109.11 71.99,-109.1 72.021,-109.1 72.053,-109.09 72.085,-109.08 72.21,-109.07 72.324,-109.09 72.42,-109.14 72.827,-109.36 72.839,-110.1 72.446,-110.8 72.054,-111.49 71.407,-111.88 71,-111.66 70.903,-111.61 70.826,-111.52 70.772,-111.41 70.746,-111.36 70.725,-111.3 70.711,-111.23 70.703,-111.19 70.698,-111.16 70.694,-111.12 70.693,-111.11 70.692,-111.09 70.692,-111.09 M71.885,-109.12 C72.558,-108.72 73.114,-109.01 73.126,-109.78 73.138,-110.56 72.602,-111.51 71.929,-111.91 71.255,-112.31 70.7,-112.01 70.688,-111.24 70.675,-110.47 71.212,-109.52 71.885,-109.12 Z M70.566,-106.9 C71.038,-107.17 71.507,-107.44 71.979,-107.71 72.562,-107.91 73.156,-108.12 73.769,-108.21"/>
      <path stroke="#000" d="M73.228,-111.28 C72.498,-112.54 71.315,-113.22 70.585,-112.8 69.856,-112.38 69.856,-111.01 70.586,-109.75 71.315,-108.49 72.499,-107.8 73.228,-108.23 73.958,-108.65 73.958,-110.01 73.228,-111.28 Z"/>
      <path stroke="#000" d="M69.938,-109.92 C70.767,-109.32 71.459,-108.6 71.979,-107.71 M69.687,-112.62 C69.985,-111.74 70.031,-110.83 69.938,-109.92 69.466,-109.64 68.997,-109.37 68.525,-109.1 M60.548,-157.69 C60.246,-157.69 59.946,-157.69 59.644,-157.68 59.373,-157.68 59.126,-157.61 58.909,-157.48 57.692,-156.79 57.685,-154.52 58.895,-152.42 60.105,-150.31 62.073,-149.17 63.291,-149.86 63.544,-150.01 63.752,-150.23 63.905,-150.51 64.037,-150.74 64.168,-150.96 64.3,-151.19 M66.761,-158.08 C66.692,-158.12 66.624,-158.16 66.555,-158.2 66.253,-158.36 65.968,-158.37 65.765,-158.23 65.34,-157.93 65.374,-157.08 65.839,-156.32 66.305,-155.56 67.027,-155.19 67.451,-155.48 67.774,-155.7 67.747,-156.13 67.748,-156.47 M66.761,-158.08 C66.24,-158.35 65.837,-158.08 65.861,-157.46 65.885,-156.85 66.327,-156.13 66.848,-155.85 67.369,-155.58 67.772,-155.86 67.748,-156.47 67.724,-157.09 67.282,-157.81 66.761,-158.08 Z M86.337,-128.35 L86.416,-128.4 86.704,-128.45 87.45,-126.68 87.404,-126.67 M86.349,-128.24 L86.704,-128.45 M78.715,-136.05 L77.275,-135.22 M79.283,-134.59 L78.715,-133.78 77.579,-134.44 77.012,-135.9 77.579,-136.71 78.715,-136.05 79.283,-134.59 78.3,-134.02"/>
    </g>
  </g>
  <g id="C3DA0001" vm2d:name="Axials" vm2d:type="layer">
    <g id="WRAP_001" vm2d:name="" vm2d:type="grnode">
      <g transform="matrix(3.78235,0,0,3.78235,-0,839.841)" stroke-width="0.55" stroke-linecap="round" stroke-linejoin="round" stroke-miterlimit="10">
        <path stroke="#fff" d="M107.54,-130.94 L129.96,-143.86"/>
        <path stroke="#000" stroke-width="0.15" stroke-dasharray="6.35,0.635,1.27,0.635" d="M107.19,-130.74 L130.31,-144.06"/>
      </g>
    </g>
    <g id="WRAP_002" vm2d:name="" vm2d:type="grnode">
      <g transform="matrix(3.78235,0,0,3.78235,-0,839.841)" stroke-width="0.55" stroke-linecap="round" stroke-linejoin="round" stroke-miterlimit="10">
        <path stroke="#fff" d="M81.447,-115.9 L104.18,-129"/>
        <path stroke="#000" stroke-width="0.15" stroke-dasharray="6.35,0.635,1.27,0.635" d="M81.1,-115.7 L104.52,-129.2"/>
      </g>
    </g>
    <g id="WRAP_003" vm2d:name="" vm2d:type="grnode">
      <g transform="matrix(3.78235,0,0,3.78235,-0,839.841)" stroke-width="0.55" stroke-linecap="round" stroke-linejoin="round" stroke-miterlimit="10">
        <path stroke="#fff" d="M71.554,-110.2 L78.044,-113.94"/>
        <path stroke="#000" stroke-width="0.15" stroke-dasharray="6.35,0.635,1.27,0.635" d="M71.207,-110 L78.39,-114.14"/>
      </g>
    </g>
    <g id="WRAP_004" vm2d:name="" vm2d:type="grnode">
      <g transform="matrix(3.78235,0,0,3.78235,-0,839.841)" stroke-width="0.15" stroke-linecap="round" stroke-linejoin="round" stroke-miterlimit="10">
        <path fill="#fff" d="M120.48,-122.88 C120.48,-122.73 120.36,-122.6 120.2,-122.6 120.05,-122.6 119.93,-122.73 119.93,-122.88 119.93,-123.03 120.05,-123.15 120.2,-123.15 120.36,-123.15 120.48,-123.03 120.48,-122.88 Z"/>
        <path stroke="#000" stroke-dasharray="6.35,0.635,1.27,0.635" d="M120.07,-122.8 L120.2,-122.88"/>
      </g>
    </g>
    <g id="WRAP_005" vm2d:name="" vm2d:type="grnode">
      <g transform="matrix(3.78235,0,0,3.78235,-0,839.841)" stroke-width="0.15" stroke-linecap="round" stroke-linejoin="round" stroke-miterlimit="10">
        <path fill="#fff" d="M119.35,-122.23 C119.35,-122.08 119.23,-121.95 119.08,-121.95 118.93,-121.95 118.8,-122.08 118.8,-122.23 118.8,-122.38 118.93,-122.5 119.08,-122.5 119.23,-122.5 119.35,-122.38 119.35,-122.23 Z"/>
        <path stroke="#000" stroke-dasharray="6.35,0.635,1.27,0.635" d="M118.92,-122.14 L119.08,-122.23"/>
      </g>
    </g>
  </g>
  <g id="C3DC0001" vm2d:name="Callouts" vm2d:type="layer">
    <g>
      <g transform="matrix(3.78235,0,0,3.78235,-0,839.841)" stroke-width="0.85" stroke-linecap="round" stroke-linejoin="miter" stroke-miterlimit="10">
        <path stroke="#fff" d="M156.18,-127.09 L140.49,-116.6"/>
        <path stroke="#fff" stroke-width="0.7" stroke-linecap="butt" stroke-linejoin="round" d="M140.96,-116.6 C140.96,-116.34 140.75,-116.13 140.49,-116.13 140.23,-116.13 140.02,-116.34 140.02,-116.6 140.02,-116.86 140.23,-117.07 140.49,-117.07 140.75,-117.07 140.96,-116.86 140.96,-116.6 Z"/>
        <path stroke="#000" stroke-width="0.15" d="M156.18,-127.09 L140.49,-116.6"/>
        <path fill="#000" d="M140.96,-116.6 C140.96,-116.34 140.75,-116.13 140.49,-116.13 140.23,-116.13 140.02,-116.34 140.02,-116.6 140.02,-116.86 140.23,-117.07 140.49,-117.07 140.75,-117.07 140.96,-116.86 140.96,-116.6 Z"/>
        <text font-family="Arial" font-size="3.93" x="156.789" y="-127.741" fill="#000">145</text>
      </g>
    </g>
    <a id="_2f785a502930ca20a69124aef804c28b" vm2d:name="145" vm2d:type="grobject" xlink:href="#">
      <path d="M590.74,343.91 L620.1,343.91 620.1,359.16 590.74,359.16 Z" fill="#fff" fill-opacity="0"/>
    </a>
    <g>
      <g transform="matrix(3.78235,0,0,3.78235,-0,839.841)" stroke-width="0.85" stroke-linecap="round" stroke-linejoin="miter" stroke-miterlimit="10">
        <path stroke="#fff" d="M156.55,-159.77 L140.28,-150.12"/>
        <path stroke="#fff" stroke-width="0.7" stroke-linecap="butt" stroke-linejoin="round" d="M140.75,-150.12 C140.75,-149.86 140.54,-149.65 140.28,-149.65 140.02,-149.65 139.81,-149.86 139.81,-150.12 139.81,-150.38 140.02,-150.59 140.28,-150.59 140.54,-150.59 140.75,-150.38 140.75,-150.12 Z"/>
        <path stroke="#000" stroke-width="0.15" d="M156.55,-159.77 L140.28,-150.12"/>
        <path fill="#000" d="M140.75,-150.12 C140.75,-149.86 140.54,-149.65 140.28,-149.65 140.02,-149.65 139.81,-149.86 139.81,-150.12 139.81,-150.38 140.02,-150.59 140.28,-150.59 140.54,-150.59 140.75,-150.38 140.75,-150.12 Z"/>
        <text font-family="Arial" font-size="3.93" x="157.152" y="-160.427" fill="#000">150</text>
      </g>
    </g>
    <a id="_34dfc2aa5e9887ae6dc393a43e3213e6" vm2d:name="150" vm2d:type="grobject" xlink:href="#">
      <path d="M592.11,220.28 L621.48,220.28 621.48,235.53 592.11,235.53 Z" fill="#fff" fill-opacity="0"/>
    </a>
    <g>
      <g transform="matrix(3.78235,0,0,3.78235,-0,839.841)" stroke-width="0.85" stroke-linecap="round" stroke-linejoin="miter" stroke-miterlimit="10">
        <path stroke="#fff" d="M40.193,-90 L68.089,-107.4"/>
        <path stroke="#fff" stroke-width="0.7" stroke-linecap="butt" stroke-linejoin="round" d="M68.558,-107.4 C68.558,-107.14 68.348,-106.93 68.089,-106.93 67.829,-106.93 67.618,-107.14 67.618,-107.4 67.618,-107.66 67.829,-107.87 68.089,-107.87 68.348,-107.87 68.558,-107.66 68.558,-107.4 Z"/>
        <path stroke="#000" stroke-width="0.15" d="M40.193,-90 L68.089,-107.4"/>
        <path fill="#000" d="M68.558,-107.4 C68.558,-107.14 68.348,-106.93 68.089,-106.93 67.829,-106.93 67.618,-107.14 67.618,-107.4 67.618,-107.66 67.829,-107.87 68.089,-107.87 68.348,-107.87 68.558,-107.66 68.558,-107.4 Z"/>
        <text font-family="Arial" font-size="3.93" x="33.0363" y="-86.6228" fill="#000">155</text>
      </g>
    </g>
    <a id="_9ae290d593bffcd1726b5402278acce1" vm2d:name="155" vm2d:type="grobject" xlink:href="#">
      <path d="M122.66,499.43 L152.02,499.43 152.02,514.68 122.66,514.68 Z" fill="#fff" fill-opacity="0"/>
    </a>
  </g>
  <g id="C3DP0001" vm2d:name="Panels" vm2d:type="layer"/>
  <g id="IsoG217" vm2d:name="" vm2d:type="grnode">
    <g id="g80" vm2d:name="" vm2d:type="grnode">
      <g transform="matrix(3.78235,0,0,3.78235,-0,839.841)">
        <path fill="#fff" d="M82.105,-217.64 L88.106,-217.64 88.106,-211.64 82.105,-211.64 82.105,-217.64 Z"/>
        <path fill="#000" d="M82.305,-217.44 L87.907,-217.44 87.907,-211.84 82.305,-211.84 82.305,-217.44 Z"/>
        <path fill="#fff" d="M82.505,-217.24 L87.706,-217.24 87.706,-212.04 82.505,-212.04 82.505,-217.24 Z"/>
        <path fill="#000" d="M83.76,-212.87 L83.76,-216.41 86.383,-216.41 86.383,-215.81 84.474,-215.81 84.474,-215.03 86.25,-215.03 86.25,-214.43 84.474,-214.43 84.474,-213.47 86.45,-213.47 86.45,-212.87 83.76,-212.87 Z"/>
      </g>
    </g>
  </g>
  <g id="IsoG17" vm2d:name="" vm2d:type="grnode">
    <g id="g457" vm2d:name="" vm2d:type="grnode">
      <g transform="matrix(3.78235,0,0,3.78235,-0,839.841)" stroke-width="0.18004" stroke-linecap="round" stroke-linejoin="miter" stroke-miterlimit="2">
        <path fill="#fff" stroke="#000" d="M93.529,-198.54 L93.529,-196.74 92.438,-196.11 89.328,-201.49 92.438,-203.29 93.529,-203.93 93.529,-202.13 100,-198.39 100,-194.8 98.91,-194.17 93.529,-197.27 93.529,-198.54 Z"/>
        <path stroke="#000" stroke-linejoin="round" d="M100,-194.8 L93.529,-198.54 93.529,-196.74 92.438,-196.11 89.328,-201.49 92.438,-203.29 93.529,-203.93 93.529,-202.13 100,-198.39 100,-194.8 98.91,-194.17 93.529,-197.27 M93.529,-203.93 L90.438,-202.12 89.328,-201.49 M93.529,-196.74 L90.438,-202.12"/>
      </g>
    </g>
    <g id="IsoG18" vm2d:name="" vm2d:type="grnode">
      <g id="g467" vm2d:name="" vm2d:type="grnode">
        <g transform="matrix(3.78235,0,0,3.78235,-0,839.841)" stroke-width="0.18004" stroke-linecap="round" stroke-linejoin="round" stroke-miterlimit="2">
          <path fill="#000" stroke="#000" d="M93.799,-199.05 L93.529,-199.2 93.529,-201.47 94.869,-200.7 94.869,-200.43 93.799,-201.05 93.799,-200.35 94.729,-199.81 94.729,-199.54 94.709,-199.55 93.799,-200.08 93.799,-199.05 Z"/>
          <path fill="#000" stroke="#000" d="M99.15,-196.18 L99.12,-196.17 99.1,-196.16 99.07,-196.15 99.04,-196.14 99.01,-196.14 98.98,-196.14 98.95,-196.15 98.91,-196.15 98.87,-196.16 98.84,-196.17 98.8,-196.18 98.75,-196.2 98.71,-196.22 98.67,-196.24 98.62,-196.26 98.57,-196.29 98.52,-196.32 97.81,-196.73 97.81,-199 98.49,-198.61 98.55,-198.57 98.61,-198.54 98.67,-198.5 98.72,-198.47 98.76,-198.44 98.8,-198.41 98.84,-198.37 98.88,-198.33 98.93,-198.29 98.97,-198.24 99.01,-198.2 99.05,-198.15 99.09,-198.1 99.13,-198.04 99.17,-197.97 99.21,-197.9 99.24,-197.83 99.28,-197.76 99.31,-197.68 99.34,-197.6 99.36,-197.52 99.38,-197.44 99.4,-197.36 99.41,-197.28 99.42,-197.19 99.43,-197.11 99.43,-197.02 99.44,-196.93 99.44,-196.86 99.43,-196.8 99.42,-196.73 99.42,-196.67 99.41,-196.61 99.4,-196.56 99.39,-196.51 99.37,-196.46 99.35,-196.42 99.33,-196.37 99.32,-196.34 99.3,-196.31 99.27,-196.28 99.25,-196.25 99.23,-196.23 99.2,-196.21 99.18,-196.19 99.15,-196.18 Z"/>
          <path fill="#fff" stroke="#000" d="M98.97,-196.48 L99,-196.5 99.02,-196.52 99.04,-196.55 99.07,-196.57 99.08,-196.61 99.1,-196.64 99.12,-196.69 99.13,-196.73 99.14,-196.78 99.15,-196.84 99.16,-196.9 99.17,-196.96 99.17,-197.02 99.17,-197.09 99.17,-197.19 99.17,-197.2 99.16,-197.29 99.15,-197.38 99.14,-197.47 99.12,-197.55 99.1,-197.63 99.07,-197.7 99.04,-197.77 99.01,-197.84 98.97,-197.9 98.94,-197.96 98.9,-198.01 98.86,-198.06 98.82,-198.1 98.79,-198.13 98.75,-198.17 98.71,-198.2 98.66,-198.23 98.61,-198.27 98.55,-198.31 98.48,-198.34 98.07,-198.58 98.07,-196.84 98.49,-196.6 98.55,-196.57 98.6,-196.55 98.64,-196.52 98.69,-196.5 98.73,-196.49 98.76,-196.48 98.8,-196.47 98.83,-196.46 98.86,-196.46 98.88,-196.46 98.91,-196.46 98.93,-196.47 98.95,-196.47 98.97,-196.48 Z"/>
          <path fill="#000" stroke="#000" d="M95.029,-200.61 L95.549,-198.03 95.819,-197.87 96.239,-199.37 96.299,-199.6 96.779,-197.32 97.029,-197.17 97.57,-199.14 97.299,-199.29 96.989,-198.01 96.899,-197.57 96.879,-197.69 96.859,-197.81 96.849,-197.93 96.819,-198.06 96.799,-198.19 96.769,-198.33 96.739,-198.47 96.459,-199.78 96.149,-199.96 96.139,-199.96 95.769,-198.64 95.679,-198.27 95.599,-198.79 95.299,-200.45 95.029,-200.61 Z"/>
        </g>
      </g>
    </g>
  </g>
</svg>
