<?xml version="1.0" encoding="UTF-8" standalone="no"?>
<!DOCTYPE svg SYSTEM "http://www.w3.org/Graphics/SVG/1.1/DTD/svg11.dtd" [
<!ENTITY % SVG.External.attrib
"xmlns:vm2d CDATA #FIXED 'http://www.cortona3d.com/vm2d'
vm2d:name CDATA #IMPLIED
vm2d:type CDATA #IMPLIED">
]>
<svg xmlns="http://www.w3.org/2000/svg" xmlns:vm2d="http://www.cortona3d.com/vm2d" xmlns:xlink="http://www.w3.org/1999/xlink" version="1.1" width="170mm" height="222mm" viewBox="0 0 643 840" fill="none" fill-rule="evenodd" stroke-miterlimit="5">
  <title>Untitled-0001</title>
  <desc>"Generator:ParallelGraphics Cortona2D","ProfileId:WebCGM""ProfileEd:2.1""ColourClass:colour""Source:Cortona2D Editor Pro 14.2.0.142""Date:20250507"</desc>
  <rect width="643" height="840" fill="#fff"/>
  <defs/>
  <g id="C3DB0001" vm2d:name="Background" vm2d:type="layer"/>
  <g id="C3DG0001" vm2d:name="Drawing" vm2d:type="layer">
    <g transform="matrix(3.78235,0,0,3.78235,-0,839.841)" stroke-width="0.18" stroke-linecap="round" stroke-linejoin="round" stroke-miterlimit="10">
      <path stroke="#000" d="M154.01,-78.645 C154.01,-78.645 154.02,-78.646 154.02,-78.646 154.02,-78.651 154.03,-78.656 154.04,-78.66 154.04,-78.665 154.05,-78.67 154.05,-78.675 154.06,-78.68 154.07,-78.685 154.07,-78.69 154.09,-78.705 154.11,-78.72 154.13,-78.736 154.14,-78.735 154.15,-78.737 154.16,-78.741 154.16,-78.748 154.17,-78.757 154.18,-78.764 154.19,-78.772 154.2,-78.779 154.21,-78.787 154.22,-78.794 154.22,-78.802 154.23,-78.809 154.27,-78.84 154.3,-78.871 154.33,-78.902 154.4,-78.964 154.45,-79.026 154.5,-79.083 154.6,-79.22 154.68,-79.367 154.73,-79.536 154.82,-79.886 154.65,-80.165 154.43,-80.42 154.32,-80.549 153.8,-80.287 153.26,-79.834 153.01,-79.617 152.78,-79.384 152.64,-79.186 152.5,-78.989 152.45,-78.843 152.5,-78.781 152.71,-78.542 152.9,-78.372 153.22,-78.344 153.45,-78.325 153.72,-78.422 154,-78.623 154.01,-78.631 154.02,-78.645 154.02,-78.667 154.01,-78.704 154.01,-78.742 154.01,-78.779 154,-78.792 153.99,-78.804 153.98,-78.817 M154.01,-78.779 C153.83,-78.638 153.66,-78.474 153.43,-78.415 153.43,-78.43 153.43,-78.457 153.43,-78.476 153.66,-78.535 153.83,-78.699 154.01,-78.84 154.01,-78.878 154.01,-78.937 154,-78.981 154,-79.014 153.98,-79.055 153.96,-79.104 154.01,-79.135 154.07,-79.186 154.12,-79.222 154.14,-79.173 154.15,-79.132 154.16,-79.1 154.17,-79.055 154.16,-78.997 154.16,-78.958 M142.32,-72.039 C142.14,-71.938 141.99,-71.824 141.79,-71.807 141.81,-71.835 141.83,-71.881 141.85,-71.913 142.05,-71.93 142.21,-72.044 142.38,-72.145 142.47,-72.289 142.56,-72.398 142.57,-72.566 142.61,-72.587 142.67,-72.622 142.71,-72.647 142.7,-72.479 142.61,-72.37 142.52,-72.226 M142.28,-72.085 C142.29,-72.07 142.31,-72.054 142.32,-72.039 142.28,-71.974 142.24,-71.909 142.2,-71.843 142.16,-71.775 142.1,-71.74 142.03,-71.707 141.88,-71.639 141.73,-71.607 141.57,-71.608 141.24,-71.608 141.03,-71.814 140.83,-72.045 140.78,-72.108 140.83,-72.254 140.98,-72.452 141.12,-72.65 141.34,-72.883 141.6,-73.1 142.13,-73.552 142.66,-73.813 142.77,-73.683 142.9,-73.525 143.04,-73.372 143.07,-73.16 143.11,-72.942 143.07,-72.723 142.97,-72.559 142.87,-72.394 142.68,-72.316 142.52,-72.226 142.51,-72.246 142.49,-72.267 142.47,-72.288 M142.23,-71.82 C142.44,-71.94 142.7,-72.175 142.87,-72.399 M160.1,-83.325 C160.29,-83.211 160.49,-83.099 160.69,-82.985 160.78,-82.932 160.9,-82.945 161.03,-83.02 161.16,-83.095 161.29,-83.226 161.38,-83.385 161.57,-83.716 161.57,-84.074 161.38,-84.185 161.19,-84.295 160.88,-84.116 160.69,-83.785 160.59,-83.626 160.54,-83.452 160.54,-83.302 160.54,-83.152 160.59,-83.038 160.69,-82.985 M160.79,-84.524 L161.38,-84.185 M149.12,-77.788 L149.71,-77.448 M148.43,-76.588 L149.02,-76.249 M156.28,-82.614 C155.81,-82.345 155.35,-82.075 154.88,-81.806 154.41,-81.536 154.08,-81.461 154,-81.605 153.96,-81.69 154,-81.848 154.13,-82.057 154.29,-82.328 154.46,-82.601 154.63,-82.872 154.46,-83.068 154.3,-83.262 154.13,-83.457 152.34,-82.422 150.55,-81.393 148.76,-80.357 M154.7,-80.03 L156.28,-82.614 156.14,-82.784 M155.57,-83.078 C155.57,-83.078 154.78,-82.62 154.38,-82.391 154.36,-82.377 154.31,-82.349 154.31,-82.349 M143.72,-76.44 C143.72,-76.44 143.71,-76.429 143.7,-76.423 143.65,-76.38 143.6,-76.337 143.55,-76.295 143.51,-76.252 143.46,-76.21 143.41,-76.169 143.31,-76.086 143.21,-76.007 143.1,-75.932 142.9,-75.78 142.7,-75.648 142.52,-75.542 142.05,-75.273 141.59,-75.003 141.12,-74.734 140.24,-73.299 139.37,-71.872 138.49,-70.436 138.66,-70.241 138.82,-70.046 138.99,-69.851 139.46,-70.12 139.92,-70.39 140.39,-70.658 140.86,-70.928 141.18,-71.004 141.26,-70.86 141.31,-70.774 141.27,-70.617 141.14,-70.408 140.97,-70.136 140.81,-69.864 140.64,-69.592 M153.75,-78.468 C153.71,-78.417 153.68,-78.367 153.65,-78.316 152.87,-77.862 152.07,-77.459 151.37,-76.881 150.64,-76.279 150.2,-75.633 149.71,-74.827 146.68,-73.078 143.67,-71.341 140.64,-69.592 140.48,-69.788 140.31,-69.982 140.15,-70.178 140.25,-70.353 140.36,-70.526 140.47,-70.701 M120.78,-81.862 C120.78,-81.862 118.31,-80.434 117.07,-79.721 116.11,-79.169 114.73,-78.937 113.41,-79.107 109.46,-79.614 105.5,-80.122 101.55,-80.629 100.82,-80.723 100.14,-80.936 99.61,-81.244 76.009,-94.87 52.337,-108.54 28.736,-122.16 28.602,-122.24 28.475,-122.34 28.372,-122.45 26.121,-125 23.863,-127.56 21.612,-130.11 21.526,-130.21 21.455,-130.33 21.421,-130.45 21.421,-130.47 21.421,-130.5 21.421,-130.52 M132.81,-91.779 C132.81,-91.779 131.34,-95.578 130.61,-97.474 130.45,-97.898 130.08,-98.287 129.55,-98.594 105.95,-112.22 82.277,-125.89 58.676,-139.51 58.519,-139.6 58.348,-139.67 58.175,-139.72 53.329,-141.15 48.47,-142.58 43.624,-144 41.788,-142.94 39.962,-141.89 38.126,-140.83 38.126,-140.81 38.126,-140.79 38.126,-140.76 41.312,-138.92 44.508,-137.08 47.695,-135.24 48.461,-134.8 49.068,-134.27 49.483,-133.69 49.69,-133.4 49.847,-133.11 49.953,-132.8 50.004,-132.65 50.045,-132.49 50.071,-132.34 50.096,-132.19 50.108,-131.9 50.108,-131.9 M44.525,-131.29 L44.525,-131.29 M44.758,-131.73 C44.758,-131.73 44.758,-131.73 44.758,-131.73 44.758,-131.73 44.759,-131.73 44.759,-131.73 M44.837,-132.19 C44.837,-132.19 44.837,-132.19 44.837,-132.19 M31.329,-135.26 L31.329,-135.59 M44.837,-132.19 L44.837,-132.52 M161.4,-84.174 C161.4,-84.174 161.41,-84.302 161.41,-84.367 161.41,-84.438 161.41,-84.511 161.41,-84.585 161.4,-84.733 161.38,-84.888 161.35,-85.045 161.3,-85.36 161.2,-85.687 161.06,-86.009 160.78,-86.659 160.36,-87.26 159.88,-87.707 157.2,-90.175 154.51,-92.649 151.83,-95.116 148.45,-98.226 144.8,-99.305 142.27,-97.94 141.64,-97.578 141.02,-97.219 140.39,-96.857 M146.65,-82.411 C146.65,-82.411 146.68,-82.41 146.7,-82.413 146.75,-82.424 146.81,-82.445 146.86,-82.474 147.29,-82.72 147.29,-83.518 146.86,-84.256 146.43,-84.994 145.74,-85.393 145.32,-85.147 145.11,-85.029 145,-84.775 145,-84.441 145,-84.354 145.01,-84.268 145.02,-84.183 145.03,-84.091 145.05,-84 145.08,-83.91 145.09,-83.88 145.11,-83.822 145.11,-83.822 M155.4,-83.168 L155.22,-82.876 M150.47,-76 L151.32,-76.493 151.73,-77.165 M160.61,-84.567 C160.61,-84.567 160.61,-84.566 160.61,-84.566 M160.51,-84.549 C160.51,-84.549 160.51,-84.549 160.51,-84.549 160.51,-84.549 160.51,-84.549 160.51,-84.549 M160.42,-84.507 C160.42,-84.507 160.42,-84.506 160.42,-84.506 160.42,-84.506 160.42,-84.506 160.42,-84.506 M160.32,-84.439 C160.32,-84.439 160.32,-84.439 160.32,-84.439 160.32,-84.439 160.32,-84.438 160.32,-84.438 M160.24,-84.35 C160.24,-84.35 160.24,-84.35 160.24,-84.35 160.24,-84.35 160.24,-84.35 160.24,-84.35 M160.16,-84.244 C160.16,-84.244 160.16,-84.244 160.16,-84.244 160.16,-84.243 160.16,-84.243 160.16,-84.243 M160.1,-84.125 C160.1,-84.125 160.1,-84.125 160.1,-84.124 160.1,-84.124 160.1,-84.124 160.1,-84.124 M160.05,-83.999 C160.05,-83.999 160.05,-83.998 160.05,-83.998 160.05,-83.998 160.05,-83.997 160.05,-83.997 M160.01,-83.869 C160.01,-83.869 160.01,-83.869 160.01,-83.869 160.01,-83.868 160.01,-83.868 160.01,-83.868 M159.99,-83.744 C159.99,-83.744 159.99,-83.744 159.99,-83.743 159.99,-83.743 159.99,-83.743 159.99,-83.743 M159.98,-83.626 C159.98,-83.626 159.98,-83.626 159.98,-83.625 159.98,-83.625 159.98,-83.625 159.98,-83.625 M159.99,-83.522 C159.99,-83.522 159.99,-83.522 159.99,-83.522 159.99,-83.522 159.99,-83.521 159.99,-83.521 M160.01,-83.435 C160.01,-83.435 160.01,-83.435 160.01,-83.435 160.01,-83.435 160.01,-83.435 160.01,-83.435 M160.05,-83.369 C160.05,-83.369 160.05,-83.369 160.05,-83.369 160.05,-83.369 160.05,-83.369 160.05,-83.369 M160.1,-83.325 C160.1,-83.325 160.1,-83.325 160.1,-83.325 M160.71,-84.558 C160.71,-84.558 160.71,-84.558 160.71,-84.558 M160.61,-84.567 C160.61,-84.567 160.61,-84.567 160.61,-84.567 M160.71,-84.558 C160.71,-84.558 160.71,-84.558 160.71,-84.558 M158.85,-81.948 L160.67,-82.997 M140.1,-70.494 C139.95,-70.248 139.8,-70.003 139.65,-69.756 139.03,-69.394 138.4,-69.035 137.78,-68.674 131.42,-72.343 125.11,-75.99 118.75,-79.659 118.75,-79.659 124.58,-85.993 127.49,-89.155 127.85,-89.55 128.26,-89.874 128.72,-90.121 131.26,-91.486 134.91,-90.407 138.29,-87.297 140.97,-84.83 143.66,-82.356 146.33,-79.889 147.07,-79.209 147.64,-78.193 147.81,-77.226 147.99,-76.259 147.75,-75.49 147.18,-75.211 146.81,-75.028 146.33,-75.073 145.82,-75.338 145.09,-75.722 144.35,-76.107 143.62,-76.492 143.25,-76.685 142.9,-76.698 142.65,-76.528 142.57,-76.471 142.5,-76.396 142.44,-76.304 142.19,-75.889 141.68,-75.057 141.68,-75.057 M149.73,-77.437 C149.73,-77.437 149.74,-77.566 149.74,-77.63 149.74,-77.658 149.74,-77.685 149.74,-77.713 149.74,-77.758 149.74,-77.803 149.74,-77.848 149.73,-77.997 149.71,-78.151 149.69,-78.308 149.63,-78.624 149.53,-78.95 149.39,-79.273 149.11,-79.922 148.69,-80.524 148.21,-80.971 145.53,-83.438 142.84,-85.912 140.16,-88.38 136.79,-91.489 133.13,-92.568 130.6,-91.203 129.97,-90.842 129.35,-90.482 128.72,-90.121 M148.94,-77.83 C148.94,-77.83 148.94,-77.83 148.94,-77.83 M148.85,-77.813 C148.85,-77.813 148.85,-77.813 148.85,-77.813 148.85,-77.813 148.85,-77.813 148.85,-77.813 M148.75,-77.77 C148.75,-77.77 148.75,-77.77 148.75,-77.77 148.75,-77.77 148.75,-77.77 148.75,-77.77 M148.65,-77.702 C148.65,-77.702 148.65,-77.702 148.65,-77.702 148.65,-77.702 148.65,-77.702 148.65,-77.702 M148.57,-77.614 C148.57,-77.614 148.57,-77.614 148.57,-77.614 148.57,-77.613 148.57,-77.613 148.57,-77.613 M148.49,-77.508 C148.49,-77.508 148.49,-77.507 148.49,-77.507 148.49,-77.507 148.49,-77.506 148.49,-77.506 M148.43,-77.388 C148.43,-77.388 148.43,-77.388 148.43,-77.388 148.43,-77.388 148.43,-77.387 148.43,-77.387 M148.38,-77.262 C148.38,-77.262 148.38,-77.262 148.38,-77.261 148.38,-77.261 148.38,-77.261 148.38,-77.261 M148.34,-77.133 C148.34,-77.133 148.34,-77.132 148.34,-77.132 148.34,-77.132 148.34,-77.132 148.34,-77.132 M148.32,-77.008 C148.32,-77.008 148.32,-77.007 148.32,-77.007 148.32,-77.007 148.32,-77.006 148.32,-77.006 M148.32,-76.889 C148.32,-76.889 148.32,-76.889 148.32,-76.889 148.32,-76.889 148.32,-76.888 148.32,-76.888 M148.32,-76.786 C148.32,-76.786 148.32,-76.785 148.32,-76.785 148.32,-76.785 148.32,-76.785 148.32,-76.785 M148.34,-76.699 C148.34,-76.699 148.34,-76.699 148.34,-76.699 148.34,-76.699 148.34,-76.698 148.34,-76.698 M148.38,-76.632 C148.38,-76.632 148.38,-76.632 148.38,-76.632 148.38,-76.632 148.38,-76.632 148.38,-76.632 M148.43,-76.588 C148.43,-76.588 148.43,-76.588 148.43,-76.588 M149.04,-77.821 C149.04,-77.821 149.04,-77.821 149.04,-77.821 M148.94,-77.83 C148.94,-77.83 148.94,-77.83 148.94,-77.83 M149.04,-77.821 C149.04,-77.821 149.04,-77.821 149.04,-77.821 M147.18,-75.211 L149,-76.26 M22.751,-154.32 C22.751,-154.32 22.746,-154.36 22.744,-154.39 22.731,-154.54 22.722,-154.69 22.717,-154.84 22.708,-155.13 22.715,-155.42 22.739,-155.7 22.775,-156.11 22.848,-156.5 22.958,-156.85 23.215,-157.68 23.666,-158.32 24.276,-158.71 24.885,-159.1 25.637,-159.23 26.47,-159.1 26.825,-159.04 27.193,-158.94 27.567,-158.79 27.817,-158.69 28.068,-158.57 28.32,-158.42 28.427,-158.36 28.749,-158.22 28.839,-158.06 28.895,-157.95 28.869,-157.85 28.772,-157.8 25.138,-155.7 21.493,-153.6 17.859,-151.5 17.789,-151.46 17.681,-151.44 17.562,-151.46 17.443,-151.47 17.322,-151.51 17.226,-151.57 16.974,-151.73 16.722,-151.88 16.471,-152 15.841,-152.3 15.225,-152.48 14.647,-152.52 13.398,-152.61 12.505,-151.91 11.455,-151.31 M13.371,-147.13 C13.371,-147.13 13.39,-147.05 13.402,-147.01 13.416,-146.96 13.431,-146.91 13.448,-146.87 13.465,-146.82 13.484,-146.77 13.504,-146.73 13.544,-146.63 13.59,-146.54 13.641,-146.45 13.667,-146.4 13.694,-146.36 13.722,-146.32 13.75,-146.27 13.779,-146.23 13.81,-146.19 13.84,-146.15 13.871,-146.11 13.903,-146.07 13.935,-146.03 13.968,-145.99 14.002,-145.96 14.035,-145.92 14.07,-145.89 14.105,-145.85 14.107,-145.85 14.109,-145.85 14.109,-145.85 M31.84,-157.48 C34.047,-152.32 36.24,-147.19 38.447,-142.03 38.488,-141.94 38.457,-141.86 38.363,-141.81 33.797,-139.17 29.218,-136.53 24.652,-133.89 24.498,-133.8 24.223,-133.82 24.038,-133.92 22.659,-134.72 21.275,-135.52 19.896,-136.31 19.861,-136.33 19.824,-136.35 19.787,-136.36 M19.336,-136.64 C15.785,-138.69 12.255,-140.73 8.7035,-142.78 8.0978,-142.43 7.4958,-142.08 6.8901,-141.73 6.8901,-141.4 6.8901,-141.08 6.8901,-140.76 10.929,-134.1 16.137,-127.69 22.435,-121.64 23.4,-120.44 24.144,-119.42 24.626,-118.62 25.177,-118.13 25.724,-117.64 26.275,-117.14 27.14,-116.65 28.007,-116.14 28.872,-115.64 29.386,-115.35 29.273,-114.68 29.273,-114.2 29.273,-113.9 29.314,-113.62 29.394,-113.37 29.43,-113.26 29.476,-113.15 29.533,-113.05 29.564,-112.99 29.596,-112.94 29.625,-112.88 29.634,-112.87 29.644,-112.85 29.648,-112.83 29.65,-112.82 29.645,-112.81 29.637,-112.81 29.577,-112.81 29.516,-112.83 29.464,-112.86 29.336,-112.94 28.977,-113.31 28.495,-113.86 28.013,-114.42 27.464,-115.09 27.013,-115.69 26.746,-116.04 26.484,-116.39 26.228,-116.75 25.966,-117.11 25.471,-117.86 25.471,-117.86 M137.41,-66.848 C137.09,-66.659 136.76,-66.472 136.44,-66.283 135.62,-65.297 134.66,-64.511 133.58,-63.94 132.5,-63.368 131.3,-63.016 130,-62.889 129.56,-62.846 129.12,-62.83 128.68,-62.838 128.22,-62.846 127.76,-62.881 127.31,-62.938 127.14,-62.96 126.96,-62.97 126.78,-62.969 126.68,-62.968 126.57,-62.963 126.46,-62.948 126.39,-62.938 126.33,-62.924 126.29,-62.906 126.25,-62.886 126.22,-62.86 126.22,-62.833 126.22,-62.807 126.22,-62.781 126.22,-62.754 125.74,-62.837 125.26,-62.944 124.78,-63.072 123.31,-63.921 121.84,-64.773 120.36,-65.623 120.31,-65.652 120.25,-65.678 120.18,-65.698 117.97,-66.348 115.77,-67.036 113.58,-67.76 111.44,-68.469 109.31,-69.217 107.19,-70.001 104.95,-70.834 102.11,-71.962 99.564,-73.029 97.023,-74.097 95.094,-74.972 94.385,-75.38 93.86,-75.682 93.378,-75.948 93.183,-76.541 93.103,-76.786 93.062,-77.067 93.062,-77.372 93.062,-77.643 93.052,-78.015 93.329,-78.176 93.467,-78.257 93.633,-78.255 93.781,-78.17 94.646,-77.67 95.513,-77.169 96.378,-76.67 97.232,-76.352 98.08,-76.036 98.934,-75.718 99.723,-75.797 100.94,-75.696 102.49,-75.422 112.97,-71.786 124.06,-68.779 135.6,-66.447 135.88,-66.608 136.16,-66.768 136.44,-66.929 136.44,-66.713 136.44,-66.498 136.44,-66.283 M7.7242,-139.44 C7.7242,-137.33 7.7242,-135.23 7.7242,-133.11 7.7788,-132.67 7.9167,-132.21 8.1265,-131.75 8.1876,-131.62 8.2159,-131.46 8.2024,-131.34 8.1898,-131.23 8.1424,-131.15 8.0667,-131.12 8.0063,-131.09 7.8947,-131.1 7.8397,-131.1 8.0081,-130.8 8.2045,-130.51 8.4214,-130.25 12.678,-127.8 16.91,-125.35 21.166,-122.89 M44.251,-130.97 C44.251,-130.97 43.912,-130.71 43.726,-130.6 43.522,-130.49 43.307,-130.39 43.087,-130.3 42.86,-130.21 42.39,-130.09 42.39,-130.09 M144.62,-71.656 C144.62,-71.656 145.5,-71.711 145.93,-71.781 146.38,-71.855 146.83,-71.96 147.27,-72.097 147.7,-72.23 148.12,-72.395 148.52,-72.589 150.07,-73.445 151.52,-74.267 152.66,-75.652 L152.66,-76.298 C152.94,-76.459 153.22,-76.619 153.5,-76.78 L153.5,-77.749 C153.43,-77.867 153.28,-78.1 153.28,-78.1 M133.58,-63.94 C135.05,-64.751 136.34,-65.549 137.41,-66.848 L137.41,-67.494 C142.18,-70.246 146.92,-72.981 151.68,-75.733 151.68,-75.517 151.68,-75.303 151.68,-75.087 M138.95,-95.666 C138.95,-95.666 138.21,-96.294 137.81,-96.58 137.16,-97.053 136.53,-97.458 135.96,-97.771 110.97,-112.2 86.137,-126.54 61.151,-140.96 57.243,-143.3 52.965,-144.78 48.624,-146.09 47.524,-146.42 46.418,-146.75 45.314,-147.07 44.203,-147.39 43.086,-147.7 41.97,-148 40.848,-148.31 39.72,-148.61 38.593,-148.9 37.46,-149.19 36.322,-149.47 35.185,-149.75 35.17,-149.75 35.14,-149.76 35.14,-149.76"/>
      <path stroke="#000" d="M94.385,-75.38 L29.464,-112.86 M42.419,-130.09 C42.419,-130.09 41.873,-129.98 41.597,-129.95 41.313,-129.91 41.027,-129.9 40.741,-129.9 40.456,-129.9 40.169,-129.91 39.886,-129.95 39.61,-129.98 39.063,-130.09 39.063,-130.09 M154.01,-78.878 L154.13,-78.736 M154.66,-79.363 L154.64,-79.389 M154.01,-79.14 C154.06,-79.079 154.11,-79.019 154.16,-78.958 154.34,-79.096 154.55,-79.219 154.66,-79.424 154.66,-79.405 154.66,-79.378 154.66,-79.363 154.55,-79.158 154.35,-79.035 154.17,-78.898 L153.98,-79.117 M154.17,-78.898 C154.17,-78.86 154.17,-78.823 154.17,-78.785 154.17,-78.764 154.17,-78.749 154.16,-78.742 M142.9,-72.453 L142.9,-72.464 M142.18,-71.813 L142.19,-71.8 M142.46,-72.12 L142.41,-72.182 M142.97,-72.559 C142.95,-72.527 142.93,-72.481 142.9,-72.453 142.9,-72.444 142.89,-72.435 142.89,-72.426 142.88,-72.416 142.87,-72.408 142.87,-72.399 142.77,-72.27 142.59,-72.196 142.46,-72.12 142.4,-72.028 142.34,-71.88 142.23,-71.82 142.22,-71.812 142.2,-71.805 142.19,-71.8 142.18,-71.796 142.18,-71.793 142.17,-71.79 142.17,-71.786 142.16,-71.782 142.15,-71.779 142.15,-71.775 142.14,-71.772 142.14,-71.768 142.13,-71.766 142.13,-71.761 142.13,-71.761 M161.36,-83.772 L161.08,-83.933 M161.19,-83.355 L160.78,-83.592 M161.36,-83.772 L161.19,-83.355 160.87,-83.169 160.71,-83.398 160.87,-83.815 161.19,-84.001 161.36,-83.772 M149.02,-76.249 C149.21,-76.138 149.52,-76.317 149.71,-76.649 149.8,-76.808 149.85,-76.981 149.85,-77.131 149.85,-77.281 149.8,-77.395 149.71,-77.448 149.62,-77.501 149.49,-77.489 149.36,-77.414 149.23,-77.339 149.11,-77.207 149.02,-77.048 148.83,-76.717 148.83,-76.359 149.02,-76.249 Z M149.69,-77.035 L149.41,-77.197 M149.53,-76.619 L149.12,-76.855 M149.69,-77.035 L149.53,-76.619 149.2,-76.432 149.04,-76.662 149.2,-77.078 149.53,-77.265 149.69,-77.035 M149.17,-79.723 L154.63,-82.872 M141.62,-74.149 C142.08,-74.418 142.55,-74.688 143.02,-74.956 143.06,-74.984 143.11,-75.012 143.16,-75.041 143.35,-75.16 143.55,-75.303 143.75,-75.462 143.85,-75.542 143.95,-75.624 144.05,-75.709 144.1,-75.751 144.15,-75.794 144.2,-75.838 144.24,-75.88 144.29,-75.924 144.33,-75.968 144.37,-76 144.43,-76.065 144.43,-76.065 M138.99,-69.851 L141.62,-74.149 141.12,-74.734 M38.126,-140.83 C41.312,-138.99 44.508,-137.14 47.695,-135.3 49.242,-134.41 50.111,-133.2 50.111,-131.94 50.111,-130.34 48.735,-128.86 46.444,-127.97 44.153,-127.09 41.249,-126.93 38.703,-127.53 37.702,-127.77 36.793,-128.12 36.027,-128.57 32.84,-130.41 29.644,-132.25 26.458,-134.09 24.965,-133.23 23.469,-132.37 21.976,-131.5 21.528,-131.25 21.322,-130.88 21.421,-130.52 21.455,-130.39 21.526,-130.27 21.612,-130.18 23.863,-127.63 26.121,-125.07 28.372,-122.52 28.475,-122.4 28.602,-122.3 28.736,-122.23 52.337,-108.6 76.009,-94.934 99.61,-81.308 100.14,-81.001 100.82,-80.788 101.55,-80.693 105.5,-80.187 109.46,-79.678 113.41,-79.171 114.73,-79.002 116.11,-79.234 117.07,-79.786 118.35,-80.523 120.9,-82 120.9,-82 M40.251,-127.2 C42.953,-126.89 45.746,-127.38 47.695,-128.5 M129.55,-98.529 L129.55,-98.594 M43.637,-134.19 C41.867,-135.21 40.091,-136.24 38.321,-137.26 37.15,-137.93 35.388,-138.14 33.858,-137.77 32.327,-137.41 31.329,-136.54 31.329,-135.59 31.329,-134.96 31.761,-134.36 32.529,-133.91 34.299,-132.89 36.075,-131.87 37.845,-130.85 39.017,-130.17 40.778,-129.97 42.309,-130.33 43.839,-130.7 44.837,-131.56 44.837,-132.52 44.837,-133.14 44.405,-133.75 43.637,-134.19 Z M44.837,-132.2 C44.837,-132.2 44.837,-132.19 44.837,-132.19 M135.08,-91.462 C135.08,-91.462 137.8,-94.417 139.15,-95.892 139.52,-96.287 139.93,-96.61 140.39,-96.857 142.92,-98.222 146.58,-97.143 149.96,-94.034 152.64,-91.567 155.32,-89.092 158,-86.625 158.74,-85.946 159.3,-84.929 159.48,-83.962 159.65,-82.996 159.41,-82.227 158.85,-81.948 158.48,-81.764 158,-81.809 157.49,-82.074 156.76,-82.458 156.02,-82.844 155.29,-83.228 154.92,-83.422 154.57,-83.435 154.32,-83.264 M157.16,-83.799 C157.38,-83.675 157.59,-83.654 157.74,-83.742 157.93,-83.853 158.01,-84.122 157.96,-84.459 157.91,-84.797 157.73,-85.158 157.47,-85.422 157.16,-85.752 156.61,-85.995 156.27,-86.19 156.05,-86.314 155.85,-86.335 155.7,-86.247 155.5,-86.136 155.42,-85.867 155.47,-85.53 155.53,-85.192 155.71,-84.831 155.96,-84.567 156.27,-84.236 156.83,-83.994 157.16,-83.799 Z M154.32,-83.264 C154.31,-83.26 154.31,-83.251 154.31,-83.251 M160.1,-83.325 C160.1,-83.325 160.1,-83.325 160.1,-83.325 M125.83,-80.84 C126.25,-80.121 126.92,-79.732 127.34,-79.972 127.54,-80.087 127.65,-80.335 127.65,-80.66 127.65,-80.986 127.54,-81.363 127.34,-81.708 126.92,-82.428 126.25,-82.816 125.83,-82.577 125.64,-82.461 125.52,-82.214 125.52,-81.888 125.52,-81.563 125.64,-81.186 125.83,-80.84 Z M133.65,-76.629 C134.08,-75.89 134.77,-75.492 135.19,-75.738 135.62,-75.984 135.62,-76.781 135.19,-77.52 134.77,-78.258 134.08,-78.657 133.65,-78.411 133.22,-78.165 133.22,-77.367 133.65,-76.629 Z M145.5,-77.062 C145.71,-76.938 145.92,-76.918 146.07,-77.006 146.26,-77.116 146.34,-77.385 146.29,-77.723 146.24,-78.06 146.06,-78.422 145.81,-78.686 145.49,-79.016 144.94,-79.258 144.6,-79.453 144.39,-79.578 144.18,-79.598 144.03,-79.51 143.84,-79.4 143.75,-79.131 143.8,-78.793 143.86,-78.456 144.04,-78.094 144.29,-77.83 144.6,-77.5 145.16,-77.257 145.5,-77.062 Z M138.7,-70.188 L137.78,-68.674 M148.43,-76.588 C148.43,-76.588 148.43,-76.588 148.43,-76.588 M24.276,-158.71 C24.76,-158.99 25.241,-159.27 25.726,-159.55 26.627,-160.1 27.817,-160.09 29.1,-159.54 29.59,-159.33 30.235,-158.94 30.797,-158.51 31.359,-158.09 31.756,-157.7 31.84,-157.48 31.895,-157.33 31.878,-157.22 31.794,-157.17 27.229,-154.53 22.649,-151.89 18.084,-149.25 18.014,-149.21 17.898,-149.22 17.761,-149.28 17.624,-149.33 17.478,-149.43 17.356,-149.55 17.086,-149.81 16.81,-150.05 16.53,-150.27 15.969,-150.71 15.395,-151.06 14.83,-151.3 13.547,-151.86 12.357,-151.86 11.455,-151.31 9.7092,-150.25 9.3401,-147.31 10.546,-144.08 10.996,-143.03 11.443,-141.99 11.893,-140.93 M13.825,-144.71 C14.266,-144.96 14.272,-145.77 13.839,-146.53 13.406,-147.29 12.697,-147.71 12.256,-147.46 12.044,-147.34 11.924,-147.09 11.921,-146.74 11.919,-146.4 12.034,-146.01 12.242,-145.64 12.676,-144.88 13.384,-144.47 13.825,-144.71 Z M26.275,-117.14 C20.985,-126.1 12.348,-132.72 6.8901,-141.73 M19.948,-124.11 L7.8397,-131.1 M31.915,-134.04 C31.915,-134.04 32.317,-133.73 32.529,-133.59 34.236,-132.61 35.933,-131.63 37.641,-130.64 37.641,-130.64 38.138,-130.4 38.396,-130.3 38.624,-130.22 39.094,-130.09 39.094,-130.09 M44.837,-132.2 C44.837,-132.2 44.837,-132.19 44.837,-132.19 44.837,-132.19 44.837,-132.19 44.837,-132.19 M44.759,-131.73 C44.759,-131.73 44.759,-131.73 44.758,-131.73 44.758,-131.73 44.758,-131.73 44.758,-131.73 M44.525,-131.29 C44.525,-131.29 44.525,-131.29 44.525,-131.29 44.525,-131.29 44.525,-131.29 44.525,-131.29 M96.378,-76.67 C97.875,-76.904 101.28,-76.389 105.35,-75.311 108.62,-74.446 111.82,-73.343 115.07,-72.411 121.73,-70.502 128.59,-68.834 135.6,-67.417 137.15,-68.308 138.68,-69.194 140.22,-70.086 M26.406,-117.07 C26.406,-117.07 27.219,-115.97 27.652,-115.44 28.385,-114.54 29.112,-113.74 29.278,-113.66 29.293,-113.65 29.329,-113.64 29.329,-113.64 M93.675,-78.199 C93.675,-78.199 93.589,-78.028 93.568,-77.935 93.543,-77.821 93.531,-77.703 93.531,-77.587 93.531,-77.472 93.555,-77.302 93.568,-77.243 93.638,-76.936 93.821,-76.698 94.035,-76.472 94.308,-76.183 94.676,-75.901 95.122,-75.639 96.184,-75.016 99.065,-73.751 102.81,-72.263 106.55,-70.776 110.65,-69.264 113.76,-68.229 115.89,-67.521 118.03,-66.848 120.18,-66.211 120.21,-66.201 120.25,-66.19 120.28,-66.177 120.31,-66.165 120.34,-66.151 120.36,-66.135 122.31,-65.009 124.27,-63.88 126.22,-62.754 M93.541,-78.233 C93.541,-78.233 93.502,-78.2 93.487,-78.18 93.422,-78.096 93.366,-78.002 93.323,-77.905 M150.47,-76 L153.5,-77.749 M148.52,-72.589 C149.73,-73.17 150.8,-74.009 151.68,-75.087 152.01,-75.276 152.34,-75.463 152.66,-75.652 M135.6,-67.417 L135.6,-66.447"/>
    </g>
  </g>
  <g id="C3DA0001" vm2d:name="Axials" vm2d:type="layer"/>
  <g id="C3DC0001" vm2d:name="Callouts" vm2d:type="layer"/>
  <g id="C3DP0001" vm2d:name="Panels" vm2d:type="layer"/>
  <g id="AUTOID_003" vm2d:name="" vm2d:type="grnode">
    <g transform="matrix(3.78235,0,0,3.78235,-0,839.841)" stroke-width="0.40008" stroke-linecap="round" stroke-linejoin="round" stroke-miterlimit="2">
      <path fill="#fff" stroke="#fff" d="M150.29,-62.544 L149.21,-64.965 148.14,-64.489 149.22,-68.363 152.8,-66.564 151.74,-66.092 152.82,-63.671 Z"/>
      <path fill="#fff" stroke="#000" stroke-width="0.18004" d="M150.29,-62.544 L149.21,-64.965 148.14,-64.489 149.22,-68.363 152.8,-66.564 151.74,-66.092 152.82,-63.671 Z"/>
    </g>
  </g>
  <g id="AUTOID_161" vm2d:name="" vm2d:type="grnode">
    <g transform="matrix(3.78235,0,0,3.78235,-0,839.841)" stroke-width="0.01" stroke-linecap="round" stroke-linejoin="round" stroke-miterlimit="10">
      <path fill="#fff" stroke="#fff" d="M150.53,-61.681 L154.03,-61.681 154.03,-58.181 150.53,-58.181 150.53,-61.681 150.53,-61.681 Z"/>
      <path fill="#000" d="M152.68,-59.615 L152.68,-59.615 152.26,-60.739 151.85,-59.615 151.66,-59.103 151.41,-58.415 150.76,-58.415 151.94,-61.446 152.59,-61.446 153.8,-58.415 153.8,-58.415 153.14,-58.415 152.87,-59.103 151.66,-59.103 151.85,-59.615 152.68,-59.615 152.68,-59.615 Z"/>
    </g>
  </g>
</svg>
