<svg xmlns="http://www.w3.org/2000/svg" xmlns:vm2d="http://www.cortona3d.com/vm2d" xmlns:xlink="http://www.w3.org/1999/xlink" width="170mm" height="210mm" fill="none" fill-rule="evenodd" stroke-miterlimit="5" viewBox="0 0 964 1191"><desc>&quot;Generator:ParallelGraphics Cortona2D&quot;,&quot;ProfileId:WebCGM&quot;&quot;ProfileEd:2.1&quot;&quot;ColourClass:colour&quot;&quot;Source:Cortona2D Editor Pro 14.2.0.142&quot;&quot;Date:20241121&quot;&quot;Company:PIK&quot;</desc><path fill="#fff" d="M0 0h964v1191H0z"/><g vm2d:name="Drawing" vm2d:type="layer" stroke-linecap="round" stroke-linejoin="round" stroke-miterlimit="10" stroke-width=".5"><path stroke="#000" stroke-width="2.835295" d="M661.758 984.756H868.79v19.762H661.758ZM702.926 111.06h166.83v34.874h-166.83Z"/><text x="49.037" y="-33.908" fill="#000" font-family="Arial" font-size="2.1" transform="translate(0 1190.91)scale(5.67059)">Действительно: ВСЕ</text><path stroke="#000" stroke-width="1.9847064999999997" d="M193.951 76.923h718.107v1015.62H193.95Z"/><text x="125.319" y="-186.519" fill="#000" font-family="Arial" font-size="2.34" font-weight="bold" transform="translate(0 1190.91)scale(5.67059)">MTPM-UNITS-MM000-00</text><text x="92.795" y="-171.872" fill="#000" font-family="Arial" font-size="2.98" font-weight="bold" transform="translate(0 1190.91)scale(5.67059)">Двигатели</text><text x="93.048" y="-166.828" fill="#000" font-family="Arial" font-size="2.98" font-style="italic" font-weight="bold" transform="translate(0 1190.91)scale(5.67059)">Описание</text><text x="126.778" y="-25.555" fill="#000" font-family="Arial" font-size="2.1" font-weight="bold" transform="translate(0 1190.91)scale(5.67059)">2024-11-11</text><text x="140.392" y="-25.535" fill="#000" font-family="Arial" font-size="2.1" font-weight="bold" transform="translate(0 1190.91)scale(5.67059)">Страница 1</text><path stroke="#000" stroke-width="1.9847064999999997" d="M860.285 180.808h-581.36m581.36 798.799h-581.36"/><text x="49.262" y="-157.728" fill="#000" font-family="Arial" font-size="2.34" font-weight="bold" transform="translate(0 1190.91)scale(5.67059)">Содержание</text><text x="61.104" y="-152.563" fill="#000" font-family="Arial" font-size="2.34" transform="translate(0 1190.91)scale(5.67059)">Ссылки</text><text x="150.986" y="-152.585" fill="#000" font-family="Arial" font-size="2.34" transform="translate(0 1190.91)scale(5.67059)">1</text><text x="70.194" y="-139.285" fill="#000" font-family="Arial" font-size="2.34" transform="translate(0 1190.91)scale(5.67059)">Ссылки</text><text x="61.107" y="-150.047" fill="#000" font-family="Arial" font-size="2.34" transform="translate(0 1190.91)scale(5.67059)">Описание</text><text x="150.986" y="-150.07" fill="#000" font-family="Arial" font-size="2.34" transform="translate(0 1190.91)scale(5.67059)">1</text><text x="150.986" y="-139.307" fill="#000" font-family="Arial" font-size="2.34" transform="translate(0 1190.91)scale(5.67059)">1</text><text x="150.679" y="-128.552" fill="#000" font-family="Arial" font-size="2.34" transform="translate(0 1190.91)scale(5.67059)">2</text><text x="60.965" y="-139.307" fill="#000" font-family="Arial" font-size="2.34" transform="translate(0 1190.91)scale(5.67059)">1</text><text x="60.965" y="-128.552" fill="#000" font-family="Arial" font-size="2.34" transform="translate(0 1190.91)scale(5.67059)">1</text><text x="49.262" y="-144.53" fill="#000" font-family="Arial" font-size="2.34" font-weight="bold" transform="translate(0 1190.91)scale(5.67059)">Перечень таблиц</text><text x="70.127" y="-128.552" fill="#000" font-family="Arial" font-size="2.34" transform="translate(0 1190.91)scale(5.67059)">Иллюстрация 1</text><text x="49.262" y="-133.797" fill="#000" font-family="Arial" font-size="2.34" font-weight="bold" transform="translate(0 1190.91)scale(5.67059)">Перечень иллюстраций</text><text x="49.485" y="-114.12" fill="#000" font-family="Arial" font-size="2.34" font-weight="bold" transform="translate(0 1190.91)scale(5.67059)">Модуль данных/документ</text><text x="49.485" y="-110.653" fill="#000" font-family="Arial" font-size="2.34" transform="translate(0 1190.91)scale(5.67059)">Нет</text><text x="90.229" y="-118.337" fill="#000" font-family="Arial" font-size="2.34" font-style="italic" transform="translate(0 1190.91)scale(5.67059)">Таблица 1 Ссылки</text><text x="100.781" y="-114.149" fill="#000" font-family="Arial" font-size="2.34" font-weight="bold" transform="translate(0 1190.91)scale(5.67059)">Наименование</text><text x="94.528" y="-123.212" fill="#000" font-family="Arial" font-size="2.98" font-style="italic" font-weight="bold" transform="translate(0 1190.91)scale(5.67059)">Ссылки</text><text x="93.048" y="-105.158" fill="#000" font-family="Arial" font-size="2.98" font-style="italic" font-weight="bold" transform="translate(0 1190.91)scale(5.67059)">Описание</text><path stroke="#000" stroke-width="1.0207062" d="M278.437 530.286h581.848"/><path stroke="#000" stroke-dasharray="1.0207062,1.3609415999999999" stroke-width="1.0207062" d="M398.864 325.635h452.235M413.55 339.074H851.1m-400.69 61.016H851.1m-353.63 61.015H848.32"/><path stroke="#000" stroke-width="1.0207062" d="M278.891 549.963h581.394m-580.447 19.564h580.447"/><text x="118.058" y="-33.785" fill="#000" font-family="Arial" font-size="2.34" font-weight="bold" transform="translate(0 1190.91)scale(5.67059)">MTPM-A-A1-10-00-00A-040A-A</text></g><g vm2d:name="Callouts" vm2d:type="layer"><g stroke-linecap="round" stroke-miterlimit="10" stroke-width=".85"><path stroke="#fff" stroke-width="4.8200015" d="m903.495 65.355-47.52 53.36"/><path stroke="#fff" stroke-linejoin="round" stroke-width="3.9694129999999994" d="M858.64 118.715a2.66 2.66 0 0 1-2.664 2.665 2.66 2.66 0 0 1-2.666-2.665 2.66 2.66 0 0 1 2.666-2.665 2.66 2.66 0 0 1 2.665 2.665"/><path stroke="#000" stroke-width=".8505885" d="m903.495 65.355-47.52 53.36"/><path fill="#000" d="M858.64 118.715a2.66 2.66 0 0 1-2.664 2.665 2.66 2.66 0 0 1-2.666-2.665 2.66 2.66 0 0 1 2.666-2.665 2.66 2.66 0 0 1 2.665 2.665"/><text x="156.454" y="-202.39" fill="#000" font-family="Arial" font-size="2.82" transform="translate(0 1190.91)scale(5.67059)">КОД</text><text x="150.619" y="-199.144" fill="#000" font-family="Arial" font-size="2.82" transform="translate(0 1190.91)scale(5.67059)">ДОКУМЕНТА</text></g><a vm2d:name="КОД ДОКУМЕНТА" vm2d:type="grobject" xlink:href="#"><path fill="none" d="M850.65 28.441h105.68v36.911H850.65Z"/></a><g stroke-linecap="round" stroke-miterlimit="10" stroke-width=".85"><path stroke="#fff" stroke-width="4.8200015" d="M400.678 65.355 518.853 202.98"/><path stroke="#fff" stroke-linejoin="round" stroke-width="3.9694129999999994" d="M521.518 202.98a2.666 2.666 0 1 1-5.33-.001 2.666 2.666 0 0 1 5.33 0"/><path stroke="#000" stroke-width=".8505885" d="M400.678 65.355 518.853 202.98"/><path fill="#000" d="M521.518 202.98a2.666 2.666 0 1 1-5.33-.001 2.666 2.666 0 0 1 5.33 0"/><text x="60.12" y="-202.39" fill="#000" font-family="Arial" font-size="2.82" transform="translate(0 1190.91)scale(5.67059)">ТЕХНИЧЕСКОЕ</text><text x="67.451" y="-199.144" fill="#000" font-family="Arial" font-size="2.82" transform="translate(0 1190.91)scale(5.67059)">ИМЯ</text></g><a vm2d:name="ТЕХНИЧЕСКОЕ ИМЯ" vm2d:type="grobject" xlink:href="#"><path fill="none" d="M337.47 28.441h126.42v36.911H337.47Z"/></a><g stroke-linecap="round" stroke-miterlimit="10" stroke-width=".85"><path stroke="#fff" stroke-width="4.8200015" d="m179.826 200.428 339.027 33.343"/><path stroke="#fff" stroke-linejoin="round" stroke-width="3.9694129999999994" d="M521.518 233.771a2.666 2.666 0 1 1-5.33-.001 2.666 2.666 0 0 1 5.33.001"/><path stroke="#000" stroke-width=".8505885" d="m179.826 200.428 339.027 33.343"/><path fill="#000" d="M521.518 233.771a2.666 2.666 0 1 1-5.33-.001 2.666 2.666 0 0 1 5.33.001"/><text x="2.116" y="-175.31" fill="#000" font-family="Arial" font-size="2.82" transform="translate(0 1190.91)scale(5.67059)">ИНФОРМАЦИОННОЕ</text><text x="24.687" y="-172.065" fill="#000" font-family="Arial" font-size="2.82" transform="translate(0 1190.91)scale(5.67059)">ИМЯ</text></g><a vm2d:name="ИНФОРМАЦИОННОЕ ИМЯ" vm2d:type="grobject" xlink:href="#"><path fill="none" d="M8.558 182H179.82v36.91H8.558Z"/></a><g stroke-linecap="round" stroke-miterlimit="10" stroke-width=".85"><path stroke="#fff" stroke-width="4.8200015" d="m179.826 260.026 93.786 27.332"/><path stroke="#fff" stroke-linejoin="round" stroke-width="3.9694129999999994" d="M276.277 287.358a2.666 2.666 0 1 1-5.33-.001 2.666 2.666 0 0 1 5.33.001"/><path stroke="#000" stroke-width=".8505885" d="m179.826 260.026 93.786 27.332"/><path fill="#000" d="M276.277 287.358a2.666 2.666 0 1 1-5.33-.001 2.666 2.666 0 0 1 5.33.001"/><text x="10.758" y="-164.807" fill="#000" font-family="Arial" font-size="2.82" transform="translate(0 1190.91)scale(5.67059)">СОДЕРЖАНИЕ</text><text x="5.929" y="-161.562" fill="#000" font-family="Arial" font-size="2.82" transform="translate(0 1190.91)scale(5.67059)">МОДУЛЯ ДАННЫХ</text></g><a vm2d:name="СОДЕРЖАНИЕ МОДУЛЯ ДАННЫХ" vm2d:type="grobject" xlink:href="#"><path fill="none" d="M30.044 241.55H179.82v36.91H30.044Z"/></a><g stroke-linecap="round" stroke-miterlimit="10" stroke-width=".85"><path stroke="#fff" stroke-width="4.8200015" d="m179.57 339.925 94.042 20.754"/><path stroke="#fff" stroke-linejoin="round" stroke-width="3.9694129999999994" d="M276.277 360.679c0 1.418-1.191 2.665-2.665 2.665-1.469 0-2.666-1.247-2.666-2.665a2.666 2.666 0 0 1 5.33 0"/><path stroke="#000" stroke-width=".8505885" d="m179.57 339.925 94.042 20.754"/><path fill="#000" d="M276.277 360.679c0 1.418-1.191 2.665-2.665 2.665-1.469 0-2.666-1.247-2.666-2.665a2.666 2.666 0 0 1 5.33 0"/><text x="16.351" y="-152.338" fill="#000" font-family="Arial" font-size="2.82" transform="translate(0 1190.91)scale(5.67059)">ТАБЛИЦЫ,</text><text x="6.439" y="-149.092" fill="#000" font-family="Arial" font-size="2.82" transform="translate(0 1190.91)scale(5.67059)">ПРИВЕДЕННЫЕ В</text><text x="6.041" y="-145.847" fill="#000" font-family="Arial" font-size="2.82" transform="translate(0 1190.91)scale(5.67059)">МОДУЛЕ ДАННЫХ</text></g><a vm2d:name="ТАБЛИЦЫ, ПРИВЕДЕННЫЕ В МОДУЛЕ ДАННЫХ" vm2d:type="grobject" xlink:href="#"><path fill="none" d="M30.104 312.27H179.57v55.31H30.104Z"/></a><g stroke-linecap="round" stroke-miterlimit="10" stroke-width=".85"><path stroke="#fff" stroke-width="4.8200015" d="m179.57 459.97 94.042-32.605"/><path stroke="#fff" stroke-linejoin="round" stroke-width="3.9694129999999994" d="M276.277 427.365a2.666 2.666 0 1 1-5.33-.001 2.666 2.666 0 0 1 5.33.001"/><path stroke="#000" stroke-width=".8505885" d="m179.57 459.97 94.042-32.605"/><path fill="#000" d="M276.277 427.365a2.666 2.666 0 1 1-5.33-.001 2.666 2.666 0 0 1 5.33.001"/><text x="8.021" y="-131.169" fill="#000" font-family="Arial" font-size="2.82" transform="translate(0 1190.91)scale(5.67059)">ИЛЛЮСТРАЦИИ,</text><text x="6.439" y="-127.923" fill="#000" font-family="Arial" font-size="2.82" transform="translate(0 1190.91)scale(5.67059)">ПРИВЕДЕННЫЕ В</text><text x="6.041" y="-124.678" fill="#000" font-family="Arial" font-size="2.82" transform="translate(0 1190.91)scale(5.67059)">МОДУЛЕ ДАННЫХ</text></g><a vm2d:name="ИЛЛЮСТРАЦИИ, ПРИВЕДЕННЫЕ В МОДУЛЕ ДАННЫХ" vm2d:type="grobject" xlink:href="#"><path fill="none" d="M30.104 432.31H179.57v55.31H30.104Z"/></a><g stroke-linecap="round" stroke-miterlimit="10" stroke-width=".85"><path stroke="#fff" stroke-width="4.8200015" d="m179.57 634.257 342.056-47.832"/><path stroke="#fff" stroke-linejoin="round" stroke-width="3.9694129999999994" d="M524.291 586.425a2.666 2.666 0 1 1-5.33-.001 2.666 2.666 0 0 1 5.33.001"/><path stroke="#000" stroke-width=".8505885" d="m179.57 634.257 342.056-47.832"/><path fill="#000" d="M524.291 586.425a2.666 2.666 0 1 1-5.33-.001 2.666 2.666 0 0 1 5.33.001"/><text x="12.355" y="-102.054" fill="#000" font-family="Arial" font-size="2.82" transform="translate(0 1190.91)scale(5.67059)">ТИП МОДУЛЯ</text><text x="18.026" y="-98.809" fill="#000" font-family="Arial" font-size="2.82" transform="translate(0 1190.91)scale(5.67059)">ДАННЫХ:</text><text x="7.012" y="-95.564" fill="#000" font-family="Arial" font-size="2.82" transform="translate(0 1190.91)scale(5.67059)">ОПИСАТЕЛЬНЫЙ</text><text x="2.14" y="-92.318" fill="#000" font-family="Arial" font-size="2.82" transform="translate(0 1190.91)scale(5.67059)">ИЛИ ПРОЦЕДУРНЫЙ</text></g><a vm2d:name="ТИП МОДУЛЯ ДАННЫХ: ОПИСАТЕЛЬНЫЙ ИЛИ ПРОЦЕДУРНЫЙ" vm2d:type="grobject" xlink:href="#"><path fill="none" d="M5.906 597.4H179.57v73.72H5.906Z"/></a><g stroke-linecap="round" stroke-miterlimit="10" stroke-width=".85"><path stroke="#fff" stroke-width="4.8200015" d="m904.176 1104.479-35.952-52.629"/><path stroke="#fff" stroke-linejoin="round" stroke-width="3.9694129999999994" d="M870.89 1051.85a2.66 2.66 0 0 1-2.666 2.665c-1.418 0-2.665-1.19-2.665-2.665 0-1.474 1.247-2.665 2.665-2.665a2.66 2.66 0 0 1 2.665 2.665"/><path stroke="#000" stroke-width=".8505885" d="m904.176 1104.479-35.952-52.629"/><path fill="#000" d="M870.89 1051.85a2.66 2.66 0 0 1-2.666 2.665c-1.418 0-2.665-1.19-2.665-2.665 0-1.474 1.247-2.665 2.665-2.665a2.66 2.66 0 0 1 2.665 2.665"/><text x="154.28" y="-12.632" fill="#000" font-family="Arial" font-size="2.82" transform="translate(0 1190.91)scale(5.67059)">НОМЕР</text><text x="151.365" y="-9.387" fill="#000" font-family="Arial" font-size="2.82" transform="translate(0 1190.91)scale(5.67059)">СТРАНИЦЫ</text></g><a vm2d:name="НОМЕР СТРАНИЦЫ" vm2d:type="grobject" xlink:href="#"><path fill="none" d="M854.89 1104.5h98.63v36.9h-98.63Z"/></a><g stroke-linecap="round" stroke-miterlimit="10" stroke-width=".85"><path stroke="#fff" stroke-width="4.8200015" d="m749.368 1104.479-11.454-49.34"/><path stroke="#fff" stroke-linejoin="round" stroke-width="3.9694129999999994" d="M740.58 1055.14a2.66 2.66 0 0 1-2.666 2.664 2.66 2.66 0 0 1-2.665-2.665 2.66 2.66 0 0 1 2.665-2.665 2.66 2.66 0 0 1 2.665 2.665"/><path stroke="#000" stroke-width=".8505885" d="m749.368 1104.479-11.454-49.34"/><path fill="#000" d="M740.58 1055.14a2.66 2.66 0 0 1-2.666 2.664 2.66 2.66 0 0 1-2.665-2.665 2.66 2.66 0 0 1 2.665-2.665 2.66 2.66 0 0 1 2.665 2.665"/><text x="128.448" y="-12.632" fill="#000" font-family="Arial" font-size="2.82" transform="translate(0 1190.91)scale(5.67059)">ДАТА</text><text x="118.791" y="-9.387" fill="#000" font-family="Arial" font-size="2.82" transform="translate(0 1190.91)scale(5.67059)">УТВЕРЖДЕНИЯ МД</text></g><a vm2d:name="ДАТА УТВЕРЖДЕНИЯ МД" vm2d:type="grobject" xlink:href="#"><path fill="none" d="M669.99 1104.5h158.74v36.9H669.99Z"/></a><g stroke-linecap="round" stroke-miterlimit="10" stroke-width=".85"><path stroke="#fff" stroke-width="4.8200015" d="m209.058 1115.576 63.312-113.389"/><path stroke="#fff" stroke-linejoin="round" stroke-width="3.9694129999999994" d="M275.035 1002.187a2.666 2.666 0 1 1-5.33-.001 2.666 2.666 0 0 1 5.33.001"/><path stroke="#000" stroke-width=".8505885" d="m209.058 1115.576 63.312-113.389"/><path fill="#000" d="M275.035 1002.187a2.666 2.666 0 1 1-5.33-.001 2.666 2.666 0 0 1 5.33.001"/><text x="24.667" y="-10.675" fill="#000" font-family="Arial" font-size="2.82" transform="translate(0 1190.91)scale(5.67059)">ПРИМЕНИМОСТЬ</text></g><a vm2d:name="ПРИМЕНИМОСТЬ" vm2d:type="grobject" xlink:href="#"><path fill="none" d="M136.44 1115.6h145.24v18.5H136.44Z"/></a><g stroke-linecap="round" stroke-miterlimit="10" stroke-width=".85"><path stroke="#fff" stroke-width="4.8200015" d="m492.553 1104.479 173.515-104.543"/><path stroke="#fff" stroke-linejoin="round" stroke-width="3.9694129999999994" d="M668.733 999.936a2.666 2.666 0 1 1-5.332-.001 2.666 2.666 0 0 1 5.332 0"/><path stroke="#000" stroke-width=".8505885" d="m492.553 1104.479 173.515-104.543"/><path fill="#000" d="M668.733 999.936a2.666 2.666 0 1 1-5.332-.001 2.666 2.666 0 0 1 5.332 0"/><text x="67.579" y="-12.632" fill="#000" font-family="Arial" font-size="2.82" transform="translate(0 1190.91)scale(5.67059)">КОД МОДУЛЯ</text><text x="74.003" y="-9.387" fill="#000" font-family="Arial" font-size="2.82" transform="translate(0 1190.91)scale(5.67059)">ДАННЫХ</text></g><a vm2d:name="КОД МОДУЛЯ ДАННЫХ" vm2d:type="grobject" xlink:href="#"><path fill="none" d="M378.6 1104.5h113.95v36.9H378.6Z"/></a></g><g vm2d:name="Panels" vm2d:type="layer"><g vm2d:type="grnode"><g vm2d:type="grnode" stroke-miterlimit="10" stroke-width="1.5"><path stroke="#fff" stroke-width="8.505885" d="M632.724 34.847h28.353V63.2h-28.353Z"/><path fill="#fff" stroke="#000" stroke-width="2.835295" d="M632.724 34.847h28.353V63.2h-28.353Z"/></g><text x="112.664" y="-199.859" fill="#000" font-family="Arial" font-size="4.23" transform="translate(0 1190.91)scale(5.67059)">А</text></g><g vm2d:type="grnode" stroke-linecap="round" stroke-linejoin="round" stroke-miterlimit="10" stroke-width="1.2"><path stroke="#fff" stroke-width="6.804708" d="m664.99 67.68 34.024 38.9"/><path stroke="#000" stroke-width="2.835295" d="m661.077 63.2 41.85 47.86"/></g><g vm2d:type="grnode"><g vm2d:type="grnode" stroke-miterlimit="10" stroke-width="1.5"><path stroke="#fff" stroke-width="8.505885" d="M925.1 1039.505h28.353v28.353H925.1Z"/><path fill="#fff" stroke="#000" stroke-width="2.835295" d="M925.1 1039.505h28.353v28.353H925.1Z"/></g><text x="164.149" y="-22.685" fill="#000" font-family="Arial" font-size="4.23" transform="translate(0 1190.91)scale(5.67059)">Б</text></g><g vm2d:type="grnode" stroke-linecap="round" stroke-linejoin="round" stroke-miterlimit="10" stroke-width="1.2"><path stroke="#fff" stroke-width="6.804708" d="m873.895 1007.665 46.102 28.699"/><path stroke="#000" stroke-width="2.835295" d="m868.791 1004.518 56.31 34.987"/></g></g></svg>