<svg xmlns="http://www.w3.org/2000/svg" xmlns:vm2d="http://www.cortona3d.com/vm2d" width="170mm" height="210mm" fill="none" fill-rule="evenodd" stroke-miterlimit="5" viewBox="0 0 964 1191"><desc>&quot;Generator:ParallelGraphics Cortona2D&quot;,&quot;ProfileId:WebCGM&quot;&quot;ProfileEd:2.1&quot;&quot;ColourClass:colour&quot;&quot;Source:Cortona2D Editor Pro 14.2.0.142&quot;&quot;Date:20241122&quot;&quot;Company:PIK&quot;&quot;Grid:isometric&quot;</desc><path fill="#fff" d="M0 0h964v1191H0z"/><g vm2d:name="Drawing" vm2d:type="layer"><g stroke-linecap="round" stroke-linejoin="round" stroke-miterlimit="10" stroke-width=".18"><text x="128.255" y="-151.574" fill="#000" font-family="Arial" font-size="1.16" font-weight="bold" transform="translate(0 1190.91)scale(5.67059)">ЛИНЕЙНАЯ ТРАВЕРСА</text><text x="119.958" y="-150.239" fill="#000" font-family="Arial" font-size="1.16" font-weight="bold" transform="translate(0 1190.91)scale(5.67059)">РУКОВОДСТВО ПО ТЕХНИЧЕСКОЙ ЭКСПЛУАТАЦИИ</text><text x="128.216" y="-148.904" fill="#000" font-family="Arial" font-size="1.16" font-weight="bold" transform="translate(0 1190.91)scale(5.67059)">MTPM-UNITS-MM000-00</text><text x="113.347" y="-121.301" fill="#000" font-family="Arial" font-size="1.76" font-weight="bold" transform="translate(0 1190.91)scale(5.67059)">Титульный лист</text><text x="115.747" y="-118.502" fill="#000" font-family="Arial" font-size="1.76" font-weight="bold" transform="translate(0 1190.91)scale(5.67059)">Лист регистрации изменений</text><text x="118.09" y="-115.725" fill="#000" font-family="Arial" font-size="1.76" font-weight="bold" transform="translate(0 1190.91)scale(5.67059)">Перечень действующих МД</text><text x="120.549" y="-112.927" fill="#000" font-family="Arial" font-size="1.76" font-weight="bold" transform="translate(0 1190.91)scale(5.67059)">Содержание</text><text x="122.936" y="-110.096" fill="#000" font-family="Arial" font-size="1.76" font-weight="bold" transform="translate(0 1190.91)scale(5.67059)">Введение</text><text x="125.398" y="-107.407" fill="#000" font-family="Arial" font-size="1.76" font-weight="bold" transform="translate(0 1190.91)scale(5.67059)">Описательные и процедурные МД</text><path stroke="#000" stroke-width="1.0207062" d="M637.488 164.76h242.985v343.638H637.488Z"/><path stroke="#000" stroke-width="1.0207062" d="M651.267 508.398v15.764h242.928V180.581h-13.722M709.164 587.389v3.006h242.928V246.813h-2.325M712.113 590.395v2.948H955.04v-343.58h-2.268m-237.655 343.58v3.006h242.928V252.768h-2.325"/><path fill="#131a22" d="M751.07 446.872v-7.202h2.154v7.202c0 .794-.17 1.474-.453 1.985-.34.51-.737.85-1.248 1.077-.51.284-1.134.397-1.814.397s-1.248-.113-1.815-.397c-.51-.227-.907-.567-1.247-1.077-.284-.51-.397-1.191-.397-1.985v-7.202h2.098v7.202q0 .681.17 1.02c.113.284.283.454.454.51.226.114.453.171.737.171.34 0 .567-.057.737-.17.227-.057.34-.227.454-.51q.17-.34.17-1.021M761.504 439.67v10.66h-2.099l-3.289-6.69v6.69h-2.04v-10.66h2.04l3.346 6.692v-6.692zM764.792 439.67v10.66h-2.154v-10.66zM774.83 446.929c0 .283.056.567.113.793s.17.397.283.51c.114.114.284.228.454.284.227.057.397.114.68.114s.454-.057.624-.17.284-.227.34-.397c.114-.17.114-.397.114-.624 0-.17 0-.34-.057-.51a.6.6 0 0 0-.17-.397c-.113-.114-.283-.284-.454-.397-.226-.114-.51-.284-.793-.397-.397-.17-.794-.34-1.135-.51s-.68-.398-.964-.624a2.5 2.5 0 0 1-.68-.85 2.64 2.64 0 0 1-.284-1.192c0-.397.114-.794.284-1.19.113-.34.34-.624.68-.908.284-.227.624-.454 1.021-.567.397-.17.85-.227 1.304-.227.68 0 1.248.17 1.758.397.454.284.85.68 1.078 1.134.283.51.453 1.078.453 1.645h-2.098c0-.284-.057-.51-.113-.737a2 2 0 0 0-.397-.567q-.255-.17-.68-.17t-.681.17a1.05 1.05 0 0 0-.397.453c-.057.17-.113.34-.113.567 0 .17.056.34.113.454.113.17.227.283.34.397.17.113.34.17.51.283.227.114.454.227.681.284.454.227.907.397 1.248.624s.68.453.907.737c.227.283.453.567.567.907q.17.51.17 1.19c0 .398-.057.795-.227 1.192-.17.34-.34.624-.624.907-.283.227-.68.454-1.077.567-.397.114-.794.227-1.304.227s-.964-.113-1.361-.227c-.454-.113-.794-.34-1.134-.624a2.6 2.6 0 0 1-.737-1.02c-.227-.454-.284-.964-.284-1.531z"/><path fill="#3152ba" d="M780.613 447.95h2.382v2.38h-2.382z"/><path fill="#131a22" d="M770.01 441.258v9.073h-2.155v-9.073z"/><path fill="#131a22" d="M772.561 439.67v1.758h-7.258v-1.758z"/><path stroke="#000" stroke-width="1.4176475" d="m679.507 301.024-6.975-.85v-1.305l3.856-23.419 6.578 1.077 4.366 24.1.057 1.305h-.284zm163.426-27.332-1.077 6.408v1.304l14.573 1.815.284-.057-.057-1.248-4.536-25.007-5.841-.85-8.45.907m-92.033 7.258v-1.247c0-.738.34-1.361.794-1.475 0 0 .227-.056.454-.056.226-.057.51 0 .51 0 .34 0 .283 0 .567.056m21.435 19.904c-1.701 1.645-1.645 1.701-3.403 3.346-.283.227-.907.623-1.19.68q-.34.086-.851 0c-.284-.057-.567-.113-.737-.283-2.098-1.418-1.815-1.248-3.913-2.722M679.11 299.04l-1.531-9.414v-1.644l1.304-10.207m99.746-18.486s-.17-.964-.34-1.872c-.114-.34-.34-.85-.454-.964-1.985-2.778-8.45-9.923-10.49-12.135-.341-.397-.965-.453-.965-.453-1.36-.17-2.325.85-3.005 1.871a41 41 0 0 1-1.191 1.645c-.567.85-1.134 1.644-1.701 2.495-1.134 1.644-2.268 3.232-3.403 4.876-.793 1.134-1.587 2.325-2.381 3.46-.68.907-1.361 1.757-1.304 2.948 0 .794.056 3.8.113 4.537m7.655-22.286-.056.057c-.454.397-.794.85-1.135 1.304-.396.567-.793 1.077-1.134 1.645a67 67 0 0 0-1.758 2.495c-1.134 1.644-2.268 3.232-3.402 4.876-.794 1.134-1.588 2.269-2.382 3.46-.623.907-1.304 1.757-1.304 2.948v.907c0 .114.057 2.552.057 2.722m26.425 5.784c1.53-.17 3.232-.283 4.82-.453 0 0 .283-.114.454-.17.396-.284.623-.738.623-1.418-.056-1.985-.056-4.026-.113-6.068 0-.737-.34-1.417-.794-1.644-.113-.057-.17-.057-.227-.057-.17 0-.567-.057-.68-.113m-21.152 11.681c1.588-.17 3.233-.283 4.82-.454.057 0 .34-.056.454-.113.397-.283.624-.737.624-1.418 0-2.041-.057-4.026-.057-6.067 0-.737-.34-1.418-.85-1.645-.057-.056-.17-.056-.227-.113-.114 0-.51-.057-.68-.057m4.82 6.918c-.057 0 0 .34 0 .34 0 .17.056.398.17.568.17.227.453.34.566.34 1.248.17 3.686.454 4.423.567h.341c.453-.17.737-.737.737-1.474-.057-1.985-.057-4.026-.114-6.068 0-.737-.34-1.418-.793-1.644-.057-.057-.17-.057-.227-.057-.114 0-.057 0-.227-.057m-21.945 9.64s.056.34.17.51c.17.284.454.398.567.398 1.304.17 3.686.453 4.423.567h.284c.056 0 .056-.057.056-.057.454-.114.737-.68.737-1.418 0-2.041-.056-4.026-.056-6.067 0-.737-.34-1.418-.85-1.645-.058-.056-.114-.056-.228-.113h-.17m64.021 13.326c.057.113.17.227.34.397.17.113.454.226.567.283 1.531.17 1.305.17 2.836.34s5.16.624 6.691.851h.284v-.057c.453-.113.793-.68.793-1.417-.056-2.042-.056-4.48-.113-6.465 0-.794-.34-1.474-.794-1.701-.113 0-.17-.057-.283-.057-.114 0-.51-.056-.624-.056M688.636 290.08c.057.057.17.227.34.34.17.17.454.284.568.284 1.53.227 1.304.17 2.835.397 1.531.17 5.16.624 6.691.794h.341c.397-.17.737-.738.737-1.475-.057-1.984-.057-4.423-.114-6.464 0-.737-.34-1.418-.794-1.645-.113-.056-.17-.056-.226-.056-.17-.057-.567-.057-.68-.114m135.13-4.706c1.644-.17 3.232-.34 4.82-.51.453-.114.793-.738.736-1.418 0-2.042-.056-4.48-.056-6.522 0-.737-.34-1.417-.85-1.644-.058 0-.114-.057-.228-.057m-135.924 24.157c1.588-.17 3.176-.34 4.82-.51.397-.17.738-.738.738-1.475-.057-2.041-.057-4.423-.114-6.464 0-.737-.34-1.418-.794-1.645-.113-.056-.17-.056-.283-.113m70.202-17.409 3.799-.453m-20.868 2.211 3.8-.397m70.258 5.67 3.572-.396M702.02 284.806l3.516-.34m8.562-22.796-14.46 1.531v8.903m9.697 13.666 120.33-12.645m11.284-1.19 8.79-.908m-162.69 17.238 11.115-1.247m-11.625-1.758 11.512-1.19m11.284-1.192 120.33-12.645m11.228-1.134 4.366-.51 3.743.567m-3.97-2.495v-5.671m-77.8 5.444 5.387-.567m11.625-.51 27.445-2.836M684.61 275.563l6.862-.737m-14.233-1.19 13.382-1.418v-11.795l16.218-1.701 9.186 1.247v10.377m68.218-7.995 26.311-2.722v-11.852l16.161-1.7 9.187 1.304v10.604m-117.949 11.114 33.627-3.516m-59.03-3.346 5.216.68m57.727 5.275-55.912 5.84-7.202-1.02m157.359-14.517-30.281 3.175-7.315-1.02m-45.875-18.713a47 47 0 0 0-.17-1.758c0-.227-.17-1.304-1.305-1.304-1.19 0-1.474 1.474-1.53 2.211 0 .284-.114 1.531-.114 1.985m70.826 6.01-14.46 1.532v9.13m-7.032-10.15 5.16.736m7.259 28.807c.623.85.453.68.907 1.134.454.51.68.68 1.02.794.341.113.738.113 1.078-.057s.964-.907 1.304-1.304m-135.867 13.44c.624.85.454.623.907 1.133.454.454.68.624 1.021.737.34.114.737.114 1.077-.056s.964-.908 1.305-1.304"/><text x="147.148" y="-123.142" fill="#000" font-family="Arial" font-size="1.06" font-weight="bold" transform="translate(0 1190.91)scale(5.67059)">2024-11-11</text><path stroke="#000" stroke-width="1.0207062" d="M862.95 199.861H666.238M862.95 470.178H666.238"/><text x="137.162" y="-125.701" fill="#000" font-family="Arial" font-size="1.06" font-weight="bold" transform="translate(0 1190.91)scale(5.67059)">MTPM-A-00-00-00-01A-001A-A</text><text x="117.397" y="-172.881" fill="#000" font-family="Arial" font-size="1.41" transform="translate(0 1190.91)scale(5.67059)">Утвержден</text><text x="117.299" y="-171.241" fill="#000" font-family="Arial" font-size="1.41" transform="translate(0 1190.91)scale(5.67059)">MTPM-UNITS-MM000-99</text><path stroke="#000" stroke-width="1.0207062" d="m949.143 587.39 11.852 11.907M664.99 524.162v15.821h242.928V196.402h-13.723M678.713 539.983v15.82H921.64v-343.58h-13.723m-215.482 343.58v15.822h242.928V227.987H921.64M706.159 571.625v15.764h242.984V243.81h-13.78m-217.296 352.54v2.948h242.928v-343.58h-2.325"/><text x="128.255" y="-60.9" fill="#000" font-family="Arial" font-size="1.16" font-weight="bold" transform="translate(0 1190.91)scale(5.67059)">ЛИНЕЙНАЯ ТРАВЕРСА</text><text x="121.163" y="-59.565" fill="#000" font-family="Arial" font-size="1.16" font-weight="bold" transform="translate(0 1190.91)scale(5.67059)">РЕГЛАМЕНТ ТЕХНИЧЕСКОГО ОБСЛУЖИВАНИЯ</text><text x="128.313" y="-58.231" fill="#000" font-family="Arial" font-size="1.16" font-weight="bold" transform="translate(0 1190.91)scale(5.67059)">MTPM-UNITS-MS005-00</text><text x="147.148" y="-32.468" fill="#000" font-family="Arial" font-size="1.06" font-weight="bold" transform="translate(0 1190.91)scale(5.67059)">2024-11-11</text><path stroke="#000" stroke-width="1.0207062" d="M862.95 984.336H666.238"/><text x="137.162" y="-35.027" fill="#000" font-family="Arial" font-size="1.06" font-weight="bold" transform="translate(0 1190.91)scale(5.67059)">MTPM-A-00-00-00-02A-001A-A</text><text x="117.397" y="-82.207" fill="#000" font-family="Arial" font-size="1.41" transform="translate(0 1190.91)scale(5.67059)">Утвержден</text><text x="117.299" y="-80.567" fill="#000" font-family="Arial" font-size="1.41" transform="translate(0 1190.91)scale(5.67059)">MTPM-UNITS-MS005-99</text><path fill="#131a22" d="M751.07 961.041v-7.162h2.154v7.162c0 .817-.17 1.48-.453 1.996-.34.51-.737.885-1.248 1.123-.51.233-1.134.346-1.814.346a4.6 4.6 0 0 1-1.815-.346c-.51-.238-.907-.612-1.247-1.123-.284-.516-.397-1.18-.397-1.996v-7.162h2.098v7.162c0 .46.056.817.17 1.06.113.25.283.42.454.511.226.09.453.13.737.13.34 0 .567-.04.737-.13.227-.09.34-.26.454-.51.113-.244.17-.601.17-1.06M761.504 953.88v10.626h-2.099l-3.289-6.657v6.657h-2.04v-10.627h2.04l3.346 6.709v-6.709zM764.792 953.88v10.626h-2.154v-10.627zM774.83 961.104c0 .312.056.578.113.805.057.215.17.391.283.522.114.13.284.226.454.294.227.063.397.091.68.091s.454-.05.624-.159a.76.76 0 0 0 .34-.414c.114-.175.114-.374.114-.6 0-.182 0-.352-.057-.505a.63.63 0 0 0-.17-.42 3 3 0 0 0-.454-.38c-.226-.13-.51-.26-.793-.397a13 13 0 0 1-1.135-.516 5.7 5.7 0 0 1-.964-.635 2.8 2.8 0 0 1-.68-.856 2.5 2.5 0 0 1-.284-1.163c0-.436.114-.833.284-1.185.113-.357.34-.658.68-.913a2.9 2.9 0 0 1 1.021-.59c.397-.136.85-.204 1.304-.204.68 0 1.248.136 1.758.414.454.272.85.647 1.078 1.129.283.476.453 1.026.453 1.644h-2.098c0-.289-.057-.55-.113-.771-.114-.227-.227-.408-.397-.533q-.255-.194-.68-.193t-.681.165c-.17.102-.284.25-.397.43a2 2 0 0 0-.113.613c0 .17.056.323.113.465q.17.196.34.357.255.162.51.306.34.153.681.295c.454.182.907.386 1.248.607s.68.465.907.743c.227.266.453.573.567.913q.17.511.17 1.168c0 .431-.057.822-.227 1.18-.17.351-.34.652-.624.907-.283.25-.68.448-1.077.584a3.8 3.8 0 0 1-1.304.204c-.51 0-.964-.062-1.361-.198a3.1 3.1 0 0 1-1.134-.619c-.34-.277-.567-.629-.737-1.06-.227-.43-.284-.936-.284-1.525z"/><path fill="#3152ba" d="M780.613 962.141h2.382v2.365h-2.382z"/><path fill="#131a22" d="M770.01 955.456v9.05h-2.155v-9.05z"/><path fill="#131a22" d="M772.561 953.88v1.757h-7.258v-1.758z"/><path stroke="#000" stroke-width="1.4176475" d="m679.507 815.205-6.975-.862v-1.276l3.856-23.442 6.578 1.089 4.366 24.134.057 1.281-.284.029zm163.426-27.315-1.077 6.408v1.281l14.573 1.81.284-.03-.057-1.275-4.536-24.99-5.841-.811-8.45.89m-92.033 7.241v-1.242c0-.742.34-1.35.794-1.457 0 0 .227-.074.454-.096.226-.023.51 0 .51.005l.567.068m21.435 19.893c-1.701 1.644-1.645 1.69-3.403 3.385-.283.216-.907.601-1.19.675q-.34.084-.851.006c-.284-.057-.567-.16-.737-.278-2.098-1.452-1.815-1.27-3.913-2.722m-80.352 16.564-1.531-9.42v-1.593l1.304-10.218m99.746-18.509s-.17-.952-.34-1.871c-.114-.329-.34-.868-.454-.97-1.985-2.744-8.45-9.89-10.49-12.112-.341-.414-.965-.448-.965-.448-1.36-.21-2.325.833-3.005 1.854l-1.191 1.673-1.701 2.467-3.403 4.9c-.793 1.139-1.587 2.284-2.381 3.424-.68.941-1.361 1.764-1.304 2.977 0 .754.056 3.782.113 4.537m7.655-22.28c-.056.023-.056.045-.056.068-.454.352-.794.81-1.135 1.264a29 29 0 0 0-1.134 1.673c-.623.823-1.19 1.645-1.758 2.461a3675 3675 0 0 1-3.402 4.905c-.794 1.14-1.588 2.286-2.382 3.425-.623.942-1.304 1.764-1.304 2.977v.902c0 .136.057 2.558.057 2.7m26.425 5.795c1.53-.176 3.232-.295 4.82-.465 0-.006.283-.063.454-.148.396-.278.623-.737.623-1.395-.056-2.024-.056-4.049-.113-6.073 0-.743-.34-1.429-.794-1.656-.113-.034-.17-.056-.227-.068-.17-.017-.567-.068-.68-.085m-21.152 11.682c1.588-.176 3.233-.295 4.82-.465.057-.006.34-.063.454-.148.397-.278.624-.743.624-1.4 0-2.02-.057-4.044-.057-6.068 0-.743-.34-1.429-.85-1.656a.7.7 0 0 0-.227-.068c-.114-.017-.51-.068-.68-.085m4.82 6.901c-.057.023 0 .34 0 .38 0 .142.056.369.17.516.17.255.453.38.566.391 1.248.16 3.686.46 4.423.55 0 .006.17.012.284-.005 0-.006 0-.006.057-.012.453-.136.737-.725.737-1.446-.057-2.024-.057-4.043-.114-6.067 0-.743-.34-1.435-.793-1.656a.7.7 0 0 0-.227-.068c-.114-.017-.057-.011-.227-.028m-21.945 9.6c0 .023.056.386.17.533.17.255.454.38.567.391 1.304.16 3.686.46 4.423.55.057 0 .17.012.284-.005.056-.006.056-.006.056-.012.454-.136.737-.726.737-1.446 0-2.024-.056-4.043-.056-6.067 0-.743-.34-1.435-.85-1.656a.5.5 0 0 0-.228-.074c-.113-.011-.056-.005-.17-.022m64.021 13.325c.057.103.17.25.34.392.17.13.454.26.567.272 1.531.187 1.305.164 2.836.357 1.53.187 5.16.641 6.691.828 0 0 .17.011.284-.006v-.01c.453-.137.793-.727.793-1.447-.056-2.019-.056-4.451-.113-6.476 0-.743-.34-1.434-.794-1.656-.113-.034-.17-.062-.283-.068-.114-.017-.51-.062-.624-.073m-141.255 21.871c.057.097.17.25.34.391.17.13.454.261.568.273 1.53.187 1.304.164 2.835.357 1.531.187 5.16.64 6.691.828 0 0 .17.011.284-.006 0-.006 0-.006.057-.011.397-.136.737-.726.737-1.446-.057-2.025-.057-4.452-.114-6.476 0-.743-.34-1.435-.794-1.656-.113-.034-.17-.062-.226-.068-.17-.017-.567-.062-.68-.074m135.13-4.74c1.644-.165 3.232-.335 4.82-.505.453-.136.793-.726.736-1.44 0-2.025-.056-4.457-.056-6.482 0-.743-.34-1.429-.85-1.656a.5.5 0 0 0-.228-.068M701.962 805.61c1.588-.17 3.176-.334 4.82-.504.397-.136.738-.726.738-1.44-.057-2.025-.057-4.458-.114-6.482 0-.743-.34-1.43-.794-1.656-.113-.034-.17-.057-.283-.068m70.202-17.465 3.799-.42m-20.868 2.212 3.8-.42m70.258 5.676 3.572-.391M702.02 799.027l3.516-.391m8.562-22.75-14.46 1.525v8.914m9.697 13.66 120.33-12.65m11.284-1.18 8.79-.93m-162.69 17.216 11.115-1.225m-11.625-1.735 11.512-1.208m11.284-1.185 120.33-12.646m11.228-1.174 4.366-.47 3.743.533m-3.97-2.456v-5.716m-77.8 5.49 5.387-.596m11.625-.476 27.445-2.88M684.61 789.76l6.862-.726m-14.233-1.225 13.382-1.412v-11.806l16.218-1.695 9.186 1.276v10.366m68.218-7.973 26.311-2.768v-11.806l16.161-1.695 9.187 1.276v10.632m-117.949 11.086 33.627-3.533m-59.03-3.351 5.216.697m57.727 5.263-55.912 5.88-7.202-1.01m157.359-14.544-30.281 3.187-7.315-1.033m-45.875-18.69c-.057-.765-.114-1.276-.17-1.792 0-.238-.17-1.276-1.305-1.298-1.19-.023-1.474 1.468-1.53 2.194 0 .323-.114 1.571-.114 1.996m70.826 6.034-14.46 1.514v9.118m-7.032-10.122 5.16.703m7.259 28.852c.623.84.453.635.907 1.129.454.487.68.658 1.02.777.341.119.738.107 1.078-.063s.964-.918 1.304-1.304m-135.867 13.428c.624.84.454.635.907 1.128.454.488.68.658 1.021.777.34.125.737.108 1.077-.062s.964-.919 1.305-1.304"/><path stroke="#000" stroke-width="1.0207062" d="M862.95 714.07H666.238"/><text x="113.347" y="-30.627" fill="#000" font-family="Arial" font-size="1.76" font-weight="bold" transform="translate(0 1190.91)scale(5.67059)">Титульный лист</text><text x="115.747" y="-27.828" fill="#000" font-family="Arial" font-size="1.76" font-weight="bold" transform="translate(0 1190.91)scale(5.67059)">Лист регистрации изменений</text><text x="118.09" y="-25.052" fill="#000" font-family="Arial" font-size="1.76" font-weight="bold" transform="translate(0 1190.91)scale(5.67059)">Перечень действующих МД</text><text x="120.549" y="-22.253" fill="#000" font-family="Arial" font-size="1.76" font-weight="bold" transform="translate(0 1190.91)scale(5.67059)">Содержание</text><text x="122.936" y="-19.422" fill="#000" font-family="Arial" font-size="1.76" font-weight="bold" transform="translate(0 1190.91)scale(5.67059)">Введение</text><text x="125.398" y="-16.673" fill="#000" font-family="Arial" font-size="1.76" font-weight="bold" transform="translate(0 1190.91)scale(5.67059)">Перечень работ</text><path stroke="#000" stroke-width="1.0207062" d="M637.488 678.952h242.985v343.593H637.488Z"/><path stroke="#000" stroke-width="1.0207062" d="M651.267 1022.545v15.81h242.928V694.761h-13.722M664.99 1038.354v15.81h242.928V710.57h-13.723m-215.482 343.593v15.81H921.64V726.38h-13.723m-215.482 343.592v15.81h242.928V742.19H921.64m-212.477 359.402v2.97h242.928V760.973h-2.325m-237.654 343.592v2.971H955.04V763.943h-2.268m-237.655 343.592v2.972h242.928V766.914h-2.325m-6.578 334.679 11.852 11.885m-254.836-27.695v15.81h242.984V757.994h-13.78m-217.296 352.513v2.971h242.928V769.886h-2.325m-739.524 256.758L8.75 905.174l297.563-171.801L516.71 854.848zM8.75 905.174v32.408l210.395 121.475L516.71 887.261v-1.91l-7.508-4.333m-290.056 176.128v1.911M516.71 885.35l-297.564 171.796L10.403 936.63v-28.596l208.743 120.517L516.71 856.753v-1.905"/><path fill="#131a22" d="M146.942 937.837c2.11-1.213 4.1-2.364 6.204-3.578.618.352 1.224.703 1.843 1.06-2.11 1.22-4.1 2.365-6.204 3.584-.709.409-1.412.664-2.12.772a5.6 5.6 0 0 1-2.037-.057 6.5 6.5 0 0 1-1.86-.726c-.59-.34-1.009-.698-1.27-1.077q-.376-.577-.096-1.18c.193-.403.64-.81 1.35-1.22l6.197-3.577q.925.526 1.843 1.06c-2.103 1.22-4.094 2.365-6.203 3.584q-.594.341-.789.607c-.119.176-.136.34-.04.482.097.147.279.295.534.442q.392.221.76.306c.25.051.527.046.828-.028a4 4 0 0 0 1.06-.454M162.168 939.465l-9.204 5.313-1.786-1.032 2.886-4.99-5.767 3.329-1.752-1.01 9.203-5.319 1.758 1.02-2.903 5.03 5.812-3.35zM165.014 941.11l-9.203 5.313-1.837-1.06 9.203-5.314zM167.475 949.757q-.399.237-.612.448c-.136.142-.204.272-.21.402q0 .195.153.38c.113.13.272.25.482.375q.355.202.703.243.348.05.67-.028c.21-.051.413-.136.606-.244.159-.096.295-.187.397-.278a.53.53 0 0 0 .176-.317c.023-.12 0-.255-.068-.425a3 3 0 0 0-.33-.59 11 11 0 0 1-.526-.811 2.6 2.6 0 0 1-.29-.805q-.061-.399.142-.772c.148-.249.408-.487.794-.708q.569-.324 1.23-.477a5.3 5.3 0 0 1 1.378-.113 5.9 5.9 0 0 1 2.734.782q.86.496 1.134 1.067c.181.38.181.76 0 1.128q-.271.56-1.078 1.026l-1.797-1.037q.382-.22.561-.448c.125-.16.165-.312.12-.465q-.062-.229-.437-.443a1.97 1.97 0 0 0-1.418-.226 2.3 2.3 0 0 0-.635.249.7.7 0 0 0-.295.29.6.6 0 0 0-.011.356q.052.187.181.409.135.228.329.482.366.492.544.924c.125.29.17.567.142.822q-.036.383-.317.732c-.188.232-.471.46-.851.675a4.4 4.4 0 0 1-1.22.476 5 5 0 0 1-1.343.13 6 6 0 0 1-1.4-.22 5.7 5.7 0 0 1-1.333-.568 4.2 4.2 0 0 1-1.004-.777q-.375-.423-.442-.873c-.034-.3.05-.607.26-.907q.316-.467 1.084-.908c.6.352 1.196.698 1.797 1.044"/><path fill="#3152ba" d="m171.58 953.16 2.048 1.184-2.047 1.185-2.053-1.185z"/><path fill="#131a22" d="m168.161 944.506-7.842 4.525-1.832-1.06 7.837-4.526z"/><path fill="#131a22" d="m171.762 945.005-1.52.879-6.305-3.64 1.52-.88z"/><path stroke="#000" stroke-width="1.4176475" d="m244.964 810.765-5.257-3.896 1.095-.646 23.652-9.782 4.735 3.822-17.092 14.267-1.094.647-.238-.108zm165.19 68.058-6.47 2.677-1.09.646 11.059 8.194.232.114 1.094-.647 17.698-14.772-4.355-3.328-8.092-3.782m-85.949-42.382c.613-.363.584-.346 1.06-.63.641-.374 1.447-.516 1.946-.334 0 0 .244.068.476.175.216.102.414.244.442.261.244.182.204.153.414.306m1.367 20.687c-2.932-.051-2.892.017-5.92-.034-.391-.006-1.293-.142-1.594-.244a2.5 2.5 0 0 1-.725-.414c-.227-.187-.38-.374-.426-.527-.533-1.758-.47-1.537-1.003-3.3m-83.965-31.91 6.856-5.46 1.36-.81 10.004-4.44m102.416 40.623c0-.005.652-.578 1.287-1.134.222-.198.46-.601.482-.692.619-2.387 1.248-9.163 1.418-11.296.028-.396-.493-.725-.499-.731-.975-.771-2.7-.726-4.196-.567l-2.455.255-3.618.374q-3.599.377-7.196.743-2.518.266-5.036.522c-1.383.147-2.682.215-3.72.828-.646.385-3.187 1.945-3.827 2.33m25.937-7.303c-.04-.006-.085-.006-.125-.012a13 13 0 0 0-2.053.085l-2.455.256-3.618.374c-2.398.25-4.797.493-7.196.743q-2.517.264-5.035.521c-1.384.142-2.688.216-3.72.828-.528.312-.244.142-.771.454-.12.074-2.19 1.298-2.308 1.367m17.868 16.115c1.508.698 3.056 1.469 4.57 2.172.046.023.335.13.516.153a2.72 2.72 0 0 0 1.758-.385q2.595-1.532 5.189-3.074c.64-.374.935-.89.72-1.242a.6.6 0 0 0-.142-.147c-.096-.068-.408-.306-.505-.374m-28.42-4.73c1.514.698 3.056 1.47 4.57 2.172.045.023.34.13.516.153a2.7 2.7 0 0 0 1.758-.385c1.73-1.021 3.459-2.047 5.188-3.068.641-.38.936-.896.72-1.248a.6.6 0 0 0-.141-.147l-.5-.374m-1.842 5.835c-.023.011-.29.176-.318.198-.107.08-.255.221-.295.352a.49.49 0 0 0 .137.465c.97.72 2.807 2.08 3.374 2.5.01.006.141.091.243.131a.2.2 0 0 0 .057.023c.5.153 1.276.011 1.888-.352 1.73-1.026 3.46-2.047 5.195-3.073.635-.38.93-.89.714-1.242a.5.5 0 0 0-.142-.153c-.09-.068-.045-.034-.141-.102m-27.344-6.193c-.017.012-.255.238-.295.369a.48.48 0 0 0 .142.465c.97.72 2.801 2.081 3.374 2.5.006.006.136.091.238.137l.057.017c.505.153 1.276.011 1.888-.352 1.735-1.026 3.465-2.047 5.194-3.073.635-.375.936-.89.715-1.242a.5.5 0 0 0-.136-.153c-.097-.068-.051-.034-.142-.102m43.924 38.679c-.056.073-.085.204-.045.368.04.153.136.34.221.403 1.157.856 1.01.748 2.166 1.605 1.146.85 3.919 2.903 5.07 3.754.011.011.136.09.238.136l.057.017c.504.153 1.276.011 1.888-.352 1.735-1.02 3.81-2.251 5.54-3.277.641-.375.936-.89.72-1.242a.5.5 0 0 0-.141-.153c-.091-.068-.42-.301-.516-.369M262.395 809.88c-.05.068-.08.199-.04.363.035.16.137.346.222.403 1.156.862 1.009.748 2.166 1.61l5.064 3.754c.011.006.141.091.244.136l.056.017c.5.153 1.276.012 1.889-.351 1.729-1.027 3.81-2.257 5.54-3.278.635-.38.935-.896.72-1.247a.7.7 0 0 0-.142-.148l-.516-.368m121.164 65.211 4.604 2.155c.505.153 1.276.012 1.894-.351 1.73-1.021 3.81-2.252 5.54-3.278.635-.374.936-.89.715-1.242a.5.5 0 0 0-.142-.153m-138.646-55.912 4.605 2.155c.504.153 1.275.011 1.888-.352 1.735-1.026 3.81-2.257 5.54-3.277.64-.38.936-.896.72-1.242a.5.5 0 0 0-.142-.153m75.884 26.345 3.663 1.696m-19.971-9.323 3.657 1.696m55.94 37.976 3.403 1.57M278.47 813.936l3.408 1.576m27.117-7.094-13.847-6.475-7.724 4.462m-3.413 11.687 115.17 53.843m10.756 5.03 8.46 3.952m-155.816-72.742 10.678 4.939m-8.568-6.68 11.04 5.166m10.792 5.04 115.14 53.832m10.73 5.024 4.213 1.967 2.796 2.144m-1.344-3.232 4.95-2.858m-72.141-36.162 5.183 2.393m10.513 5.597 26.25 12.271M271.44 800.61l6.583 3.073m-11.301-7.746 12.86 6.011 10.225-5.903 15.47 7.236 6.86 5.234-8.976 5.183m65.977 30.122 25.183 11.772 10.219-5.903 15.475 7.236 6.861 5.234-9.209 5.319m-111.761-53.44 32.175 15.044m-48.19-31.171 3.897 2.943m45.46 31.511-53.53-25.024-5.353-4.1m148.887 71.416-28.993-13.559-5.456-4.18m-23.521-32.265c.601-.42 1.004-.697 1.4-.986.188-.13.93-.743-.028-1.316-.987-.59-2.523.011-3.198.346-.3.153-1.463.726-1.86.924m56.122 38.435-13.808-6.458-7.9 4.559m2.649-8.591 3.89 2.943m-18.747 18.032c-.181.732-.136.556-.17 1.027s-.006.658.198.896c.199.232.556.43 1.01.516.448.09 1.639.028 2.234-.012m-129.295-61.214c-.182.732-.136.55-.17 1.027-.034.47-.006.658.198.89.199.238.556.431 1.01.522.448.085 1.638.022 2.24-.012"/></g><text fill="#000" font-family="Arial" font-size="1.16" font-weight="bold" transform="scale(6.94502 4.0097)rotate(45 -242.113 149.11)">ЛИНЕЙНАЯ ТРАВЕРСА</text><text fill="#000" font-family="Arial" font-size="1.16" font-weight="bold" transform="scale(6.94502 4.0097)rotate(45 -240.177 139.88)">РЕГЛАМЕНТ ТЕХНИЧЕСКОГО ОБСЛУЖИВАНИЯ</text><text fill="#000" font-family="Arial" font-size="1.16" font-weight="bold" transform="scale(6.94502 4.0097)rotate(45 -245.363 147.844)">MTPM-UNITS-MS005-00</text><g stroke="#000" stroke-linecap="round" stroke-linejoin="round" stroke-miterlimit="10" stroke-width=".18"><path stroke-width="1.0207062" d="m10.403 936.63 3.753-2.167"/><path stroke-width=".8505885" d="M14.156 910.199v24.264l204.99 118.351 3.788-2.183m47.616-27.491 238.652-137.79v-19.926m-495.046 56.91 204.99 118.35 148.756-85.886m47.582-27.468 93.718-54.11M14.156 912.627l204.99 118.35L463.14 890.109M14.156 924.755l204.99 118.357 99.02-57.171m47.615-27.491 143.421-82.802M14.156 915.053l204.99 118.35 194.257-112.152m47.616-27.491 48.183-27.82M14.156 927.182l204.99 118.351 101.14-58.39m47.582-27.468 141.334-81.6M14.156 917.48l204.99 118.35 196.372-113.377m47.582-27.468 46.102-26.618M14.156 929.609l204.99 118.351 51.404-29.674m47.615-27.491 191.037-110.293M14.156 919.907l204.99 118.35 146.635-84.661m47.622-27.491 95.799-55.311M14.156 932.036l204.99 118.351 53.519-30.899m47.582-27.468 188.955-109.091m-290.056 169.885v-24.264"/><path stroke-width="1.0207062" d="m220.83 1049.417 3.947 2.274c.482.29 1.179.454 1.905.454.731 0 1.429-.164 1.928-.46 14.619-8.437 29.152-16.83 43.771-25.267 1.06-.619 1.06-1.61 0-2.223-.958-.556-2.977-1.719-3.935-2.269m0-4.854 3.946 2.28c.488.283 1.18.448 1.911.448.726.006 1.424-.165 1.923-.46 14.619-8.437 29.152-16.83 43.771-25.268 1.06-.612 1.06-1.61 0-2.222-.958-.55-2.971-1.719-3.93-2.269m47.616-37.199c.964.556 2.983 1.724 3.941 2.28.488.283 1.186.454 1.911.454.732 0 1.424-.17 1.923-.46 14.624-8.443 29.152-16.836 43.777-25.274 1.06-.612 1.06-1.61-.006-2.222-.958-.55-2.971-1.713-3.93-2.269m-95.232 59.836c.959.556 2.977 1.724 3.941 2.28.488.283 1.186.448 1.911.448s1.424-.165 1.923-.46c14.619-8.437 29.152-16.83 43.771-25.268 1.066-.612 1.066-1.61 0-2.222-.958-.55-2.971-1.719-3.93-2.269m47.616-37.199 3.947 2.28c.482.283 1.18.453 1.911.453.726 0 1.423-.17 1.922-.459 14.62-8.443 29.153-16.83 43.772-25.274 1.06-.612 1.06-1.604 0-2.223-.959-.55-2.977-1.712-3.936-2.268m2.104-3.64c.26.153 1.582.913 1.843 1.066.488.283 1.185.453 1.91.453.727 0 1.424-.17 1.923-.459 14.619-8.443 29.153-16.83 43.772-25.274 1.06-.612 1.06-1.604 0-2.217-.256-.153-1.577-.913-1.832-1.06"/></g><text fill="#000" font-family="Arial" font-size="1.16" font-weight="bold" transform="scale(6.94502 4.0097)rotate(45 -87.322 84.993)">ЛИНЕЙНАЯ ТРАВЕРСА</text><text fill="#000" font-family="Arial" font-size="1.16" font-weight="bold" transform="scale(6.94502 4.0097)rotate(45 -84.785 74.31)">РУКОВОДСТВО ПО ТЕХНИЧЕСКОЙ ЭКСПЛУАТАЦИИ</text><text fill="#000" font-family="Arial" font-size="1.16" font-weight="bold" transform="scale(6.94502 4.0097)rotate(45 -90.525 83.612)">MTPM-UNITS-MM000-00</text><g stroke-linecap="round" stroke-linejoin="round" stroke-miterlimit="10" stroke-width=".25"><path fill="#131a22" d="M146.942 424.757c2.11-1.191 4.1-2.325 6.204-3.573.618.397 1.224.737 1.843 1.078-2.11 1.247-4.1 2.381-6.204 3.572-.709.397-1.412.68-2.12.794-.698.113-1.379.057-2.037-.057-.657-.17-1.275-.397-1.86-.737-.59-.34-1.009-.68-1.27-1.077q-.376-.596-.096-1.191c.193-.397.64-.794 1.35-1.191a347 347 0 0 1 6.197-3.573q.925.51 1.843 1.021c-2.103 1.248-4.094 2.382-6.203 3.63-.397.226-.658.396-.789.566-.119.17-.136.34-.04.51.097.114.279.284.534.454.26.114.516.227.76.284.25.057.527.057.828-.057.306-.056.663-.17 1.06-.453M162.168 426.401l-9.204 5.33-1.786-1.02 2.886-4.99-5.767 3.289-1.752-.964 9.203-5.33 1.758 1.02-2.903 4.99 5.812-3.346zM165.014 428.046l-9.203 5.33-1.837-1.078 9.203-5.33zM167.475 436.722c-.266.113-.47.283-.612.453-.136.114-.204.227-.21.397q0 .17.153.34c.113.17.272.284.482.397.238.114.47.227.703.227q.348.086.67 0c.21-.057.413-.17.606-.283.159-.057.295-.17.397-.227a.66.66 0 0 0 .176-.34.87.87 0 0 0-.068-.454c-.063-.114-.17-.34-.33-.567-.192-.284-.368-.51-.526-.794a3.1 3.1 0 0 1-.29-.794c-.04-.283.006-.567.142-.794a2.4 2.4 0 0 1 .794-.737c.38-.17.788-.34 1.23-.454.448-.113.908-.113 1.378-.113.477 0 .947.113 1.407.227.46.113.907.34 1.327.567.572.34.952.68 1.134 1.077.181.34.181.737 0 1.134q-.271.51-1.078 1.021c-.6-.34-1.196-.737-1.797-1.077.255-.114.442-.284.561-.454.125-.113.165-.284.125-.454-.045-.113-.193-.283-.442-.453-.227-.114-.465-.17-.71-.227-.237-.057-.476 0-.708 0-.227.057-.437.17-.635.283a.54.54 0 0 0-.295.284.54.54 0 0 0-.011.34c.034.114.096.284.181.397q.135.255.329.51c.244.34.425.624.544.908q.186.425.142.85c-.023.227-.13.51-.317.738q-.282.34-.851.68c-.374.17-.777.34-1.22.454-.43.113-.878.17-1.343.113-.465 0-.93-.057-1.4-.227a4.2 4.2 0 0 1-1.333-.567c-.414-.227-.749-.453-1.004-.737-.25-.284-.397-.567-.442-.907-.034-.284.05-.567.26-.908.21-.283.573-.623 1.084-.907.6.34 1.196.737 1.797 1.078"/><path fill="#3152ba" d="m171.58 440.124 2.048 1.19-2.047 1.135-2.053-1.134z"/><path fill="#131a22" d="m168.161 431.448-7.842 4.536-1.832-1.077 7.837-4.537z"/><path fill="#131a22" d="m171.762 431.958-1.52.85-6.305-3.628 1.52-.85z"/><path stroke="#000" stroke-width="1.4176475" d="m244.964 296.601-5.257-3.912 1.095-.624 23.652-9.81 4.735 3.856-17.092 14.233-1.094.68-.238-.113zm165.19 68.047-6.47 2.666-1.09.68 11.059 8.166.232.113 1.094-.624 17.698-14.8-4.355-3.346-8.092-3.742m-85.949-42.416c.613-.34.584-.34 1.06-.624.641-.34 1.447-.51 1.946-.34 0 0 .244.113.476.227.216.056.414.226.442.226.244.17.204.17.414.34m1.367 20.642c-2.932-.057-2.892.056-5.92 0-.391 0-1.293-.17-1.594-.284-.232-.057-.504-.227-.725-.397a1.4 1.4 0 0 1-.426-.51c-.533-1.758-.47-1.531-1.003-3.29m-83.965-31.925 6.856-5.443 1.36-.85 10.004-4.424m102.416 40.601s.652-.567 1.287-1.134c.222-.17.46-.567.482-.68.619-2.382 1.248-9.13 1.418-11.285.028-.397-.493-.737-.499-.737-.975-.737-2.7-.737-4.196-.567-.817.114-1.639.17-2.455.284l-3.618.34c-2.399.283-4.798.51-7.196.737-1.679.17-3.357.34-5.036.567-1.383.114-2.682.17-3.72.794-.646.397-3.187 1.928-3.827 2.325m25.937-7.315h-.125c-.669 0-1.383 0-2.053.113-.816.057-1.638.17-2.455.227-1.208.114-2.416.284-3.618.397-2.398.227-4.797.51-7.196.737l-5.035.51c-1.384.17-2.688.227-3.72.851-.528.284-.244.114-.771.454-.12.057-2.19 1.304-2.308 1.36m17.868 16.105c1.508.68 3.056 1.475 4.57 2.155.046.057.335.17.516.17a2.8 2.8 0 0 0 1.758-.397l5.189-3.062c.64-.397.935-.907.72-1.247a.8.8 0 0 0-.142-.17c-.096-.057-.408-.284-.505-.34m-28.42-4.707a166 166 0 0 1 4.57 2.154c.045 0 .34.114.516.17a2.8 2.8 0 0 0 1.758-.396l5.188-3.062c.641-.397.936-.908.72-1.248a.8.8 0 0 0-.141-.17c-.09-.057-.408-.284-.5-.397m-1.842 5.84c-.023.057-.29.17-.318.227a.8.8 0 0 0-.295.34.46.46 0 0 0 .137.454c.97.738 2.807 2.098 3.374 2.495.01 0 .141.114.243.17h.057c.5.17 1.276 0 1.888-.34q2.594-1.53 5.195-3.062c.635-.397.93-.907.714-1.247a.8.8 0 0 0-.142-.17c-.09-.057-.045-.057-.141-.114m-27.344-6.18c-.017 0-.255.226-.295.34a.56.56 0 0 0 .142.51c.97.68 2.801 2.041 3.374 2.495.006 0 .136.057.238.113h.057c.505.17 1.276.057 1.888-.34q2.601-1.53 5.194-3.062c.635-.397.936-.907.715-1.248-.028-.056-.08-.113-.136-.113-.097-.113-.051-.057-.142-.113m43.924 38.673c-.056.057-.085.17-.045.34s.136.34.221.397c1.157.907 1.01.794 2.166 1.645 1.146.85 3.919 2.892 5.07 3.742.011 0 .136.114.238.114.017 0 .04.056.057.056.504.114 1.276 0 1.888-.397 1.735-1.02 3.81-2.211 5.54-3.232.641-.397.936-.907.72-1.247a.8.8 0 0 0-.141-.17c-.091-.057-.42-.284-.516-.34m-141.238-59.712c-.05.057-.08.227-.04.397.035.113.137.34.222.397 1.156.85 1.009.737 2.166 1.588 1.145.85 3.918 2.892 5.064 3.742.011 0 .141.114.244.17h.056c.5.17 1.276 0 1.889-.34 1.729-1.02 3.81-2.268 5.54-3.289.635-.397.935-.907.72-1.247a1 1 0 0 0-.142-.17c-.096-.057-.42-.284-.516-.34m121.164 65.211c1.536.737 3.067 1.418 4.604 2.155.505.17 1.276 0 1.894-.34 1.73-1.021 3.81-2.269 5.54-3.29.635-.396.936-.907.715-1.247a.8.8 0 0 0-.142-.17m-138.646-55.912c1.537.737 3.068 1.474 4.605 2.155.504.17 1.275.057 1.888-.34 1.735-1.021 3.81-2.269 5.54-3.29.64-.34.936-.85.72-1.247-.034-.057-.08-.057-.142-.113m75.884 26.311 3.663 1.701m-19.971-9.3 3.657 1.702m55.94 37.936 3.403 1.588M278.47 299.777l3.408 1.588m27.117-7.145-13.847-6.465-7.724 4.48m-3.413 11.681 115.17 53.814m10.756 5.047 8.46 3.97m-155.816-72.754 10.678 4.933m-8.568-6.691 11.04 5.16m10.792 5.047 115.14 53.87m10.73 4.99 4.213 1.985 2.796 2.155m-1.344-3.232 4.95-2.892m-72.141-36.122 5.183 2.382m10.513 5.614 26.25 12.248M271.44 286.45l6.583 3.063m-11.301-7.769 12.86 6.011 10.225-5.897 15.47 7.258 6.86 5.217-8.976 5.217m65.977 30.11 25.183 11.739 10.219-5.898 15.475 7.259 6.861 5.217-9.209 5.33M305.906 299.89l32.175 15.027m-48.19-31.188 3.897 2.949m45.46 31.528-53.53-25.064-5.353-4.083m148.887 71.393L400.26 346.9l-5.456-4.14m-23.521-32.265c.601-.453 1.004-.737 1.4-1.02.188-.114.93-.738-.028-1.305-.987-.567-2.523 0-3.198.34-.3.17-1.463.738-1.86.964m56.122 38.39L409.91 341.4l-7.9 4.593m2.649-8.62 3.89 2.95m-18.747 18.032c-.181.737-.136.567-.17 1.02-.034.511-.006.681.198.908.199.227.556.454 1.01.51.448.114 1.639.057 2.234 0M263.779 299.55c-.182.737-.136.567-.17 1.077-.034.454-.006.624.198.851.199.227.556.454 1.01.51.448.114 1.638.057 2.24 0"/><path stroke="#000" stroke-width="1.0207062" d="M219.146 512.48 8.75 391.018l297.563-171.82L516.71 340.663zM8.75 391.017v32.379L219.146 544.86 516.71 373.098v-1.928l-7.508-4.31M219.146 542.988v1.872M516.71 371.17 219.146 542.988 10.403 422.432v-28.58l208.743 120.5L516.71 342.59v-1.928m-506.307 81.77 3.753-2.155"/><path stroke="#000" stroke-width=".8505885" d="M14.156 396.007v24.27l204.99 118.345 3.788-2.155m47.616-27.502L509.202 371.17v-19.904M14.156 408.142l204.99 118.345 148.756-85.853m47.582-27.502 93.718-54.098M14.156 398.445l204.99 118.345L463.14 375.933M14.156 410.58l204.99 118.345 99.02-57.16m47.615-27.502 143.421-82.79m-495.046 39.41 204.99 118.346 194.257-112.165m47.616-27.502 48.183-27.786M14.156 413.018l204.99 118.346 101.14-58.407m47.582-27.446 141.334-81.6m-495.046 39.41 204.99 118.346 196.372-113.412M463.1 380.81l46.102-26.596M14.156 415.457l204.99 118.345 51.404-29.714m47.615-27.446L509.202 366.35M14.156 405.703l204.99 118.402 146.635-84.662m47.622-27.502 95.799-55.345M14.156 417.838l204.99 118.402 53.519-30.904m47.582-27.503 188.955-109.102M219.146 538.622v-24.27"/><path stroke="#000" stroke-width="1.0207062" d="m220.83 535.22 3.947 2.325c.482.283 1.179.453 1.905.453.731 0 1.429-.17 1.928-.51a17320 17320 0 0 0 43.771-25.234c1.06-.624 1.06-1.645 0-2.212-.958-.567-2.977-1.758-3.935-2.268m0-4.877c.964.567 2.982 1.701 3.946 2.269.488.283 1.18.453 1.911.453.726 0 1.424-.17 1.923-.453 14.619-8.45 29.152-16.842 43.771-25.291 1.06-.567 1.06-1.588 0-2.212-.958-.567-2.971-1.701-3.93-2.268m47.616-37.2c.964.568 2.983 1.759 3.941 2.27.488.283 1.186.453 1.911.453.732 0 1.424-.17 1.923-.454 14.624-8.45 29.152-16.842 43.777-25.234 1.06-.624 1.06-1.644-.006-2.268-.958-.51-2.971-1.701-3.93-2.268m-95.232 59.881c.959.51 2.977 1.701 3.941 2.268.488.284 1.186.454 1.911.454s1.424-.17 1.923-.454c14.619-8.449 29.152-16.841 43.771-25.29 1.066-.624 1.066-1.588 0-2.212-.958-.567-2.971-1.701-3.93-2.268m47.616-37.2c.964.568 2.983 1.702 3.947 2.269.482.283 1.18.453 1.911.453.726 0 1.423-.17 1.922-.453 14.62-8.45 29.153-16.842 43.772-25.291 1.06-.624 1.06-1.588 0-2.212-.959-.567-2.977-1.7-3.936-2.268m2.104-3.629c.26.113 1.582.907 1.843 1.077.488.284 1.185.454 1.91.454.727 0 1.424-.17 1.923-.51a17320 17320 0 0 0 43.772-25.234c1.06-.624 1.06-1.645 0-2.212-.256-.17-1.577-.907-1.832-1.077"/></g></g><g vm2d:name="Panels" vm2d:type="layer"><path fill="#fff" stroke="#000" stroke-linecap="round" stroke-linejoin="round" stroke-miterlimit="10" stroke-width=".8505885" d="M594.108 367.88h-26.312v-14.176l-30.383 28.353 30.383 28.353v-14.176h26.312Z"/><g vm2d:type="grnode" stroke-linecap="round" stroke-linejoin="round" stroke-miterlimit="10" stroke-width="1.15"><path stroke="#fff" stroke-width="6.5211784999999995" d="M605.449 367.88h11.341v28.354H605.45Z"/><path fill="#fff" stroke="#000" stroke-width=".8505885" d="M605.449 367.88h11.341v28.354H605.45Z"/></g><path fill="#fff" stroke="#000" stroke-linecap="round" stroke-linejoin="round" stroke-miterlimit="10" stroke-width=".8505885" d="M594.108 882.039h-26.312v-14.171l-30.383 28.347 30.383 28.347v-14.17h26.312Z"/><g vm2d:type="grnode" stroke-linecap="round" stroke-linejoin="round" stroke-miterlimit="10" stroke-width="1.15"><path stroke="#fff" stroke-width="6.5211784999999995" d="M605.449 882.039h11.341v28.353H605.45Z"/><path fill="#fff" stroke="#000" stroke-width=".8505885" d="M605.449 882.039h11.341v28.353H605.45Z"/></g><g vm2d:type="grnode" fill="#000" font-family="Arial" font-size="3.84"><text x="53.042" y="-200.959" transform="translate(0 1190.91)scale(5.67059)">КОМПЛЕКТ ЭКСПЛУАТАЦИОННОЙ</text><text x="69.177" y="-196.548" transform="translate(0 1190.91)scale(5.67059)">ДОКУМЕНТАЦИИ</text></g></g></svg>