<svg xmlns="http://www.w3.org/2000/svg" xmlns:vm2d="http://www.cortona3d.com/vm2d" width="10mm" height="10mm" fill="none" fill-rule="evenodd" stroke-miterlimit="5" viewBox="0 0 38 38"><desc>&quot;Generator:ParallelGraphics Cortona2D&quot;,&quot;ProfileId:WebCGM&quot;&quot;ProfileEd:2.1&quot;&quot;ColourClass:colour&quot;&quot;Source:Cortona2D Generator&quot;&quot;Date:20241224&quot;</desc><path fill="#f0f0f0" d="M0 0h38v38H0z"/><g vm2d:type="grnode"><path fill="#131a22" d="M19.713 0h7.544v25.745q0 4.326-1.602 7.054-1.576 2.704-4.366 3.965Q18.5 38 14.91 38q-3.617 0-6.434-1.236-2.815-1.26-4.392-3.965-1.55-2.728-1.55-7.054V0h7.544v25.745q0 2.447.542 3.759.57 1.313 1.628 1.802 1.085.465 2.661.464 1.602 0 2.635-.464 1.06-.49 1.602-1.802.568-1.312.568-3.759z"/><path fill="#3152ba" d="M29.428 31.98h6.039V38h-6.04z"/></g></svg>