<?xml version="1.0" encoding="UTF-8" standalone="no"?>
<!DOCTYPE svg SYSTEM "http://www.w3.org/Graphics/SVG/1.1/DTD/svg11.dtd" [
<!ENTITY % SVG.External.attrib
"xmlns:vm2d CDATA #FIXED 'http://www.cortona3d.com/vm2d'
vm2d:name CDATA #IMPLIED
vm2d:type CDATA #IMPLIED">
]>
<svg xmlns="http://www.w3.org/2000/svg" xmlns:vm2d="http://www.cortona3d.com/vm2d" xmlns:xlink="http://www.w3.org/1999/xlink" version="1.1" width="170mm" height="102mm" viewBox="0 0 643 386" fill="none" fill-rule="evenodd" stroke-miterlimit="5">
  <title>Untitled-0007</title>
  <desc>"Generator:ParallelGraphics Cortona2D","ProfileId:WebCGM""ProfileEd:2.1""ColourClass:colour""Source:Cortona2D Editor Pro 14.2.0.142""Date:20250520""Grid:isometric"</desc>
  <rect width="643" height="386" fill="#fff"/>
  <defs/>
  <g id="AUTOID_006" vm2d:name="" vm2d:type="layer">
    <g transform="matrix(3.78235,0,0,3.78235,-0,385.9)">
      <path fill="#c0c0c0" d="M3.3482,-43.16 C7.0809,-43.16 10.791,-43.16 14.524,-43.16 15.215,-43.918 15.898,-44.684 16.556,-45.472 16.556,-47.114 16.556,-48.745 16.556,-50.386 14.932,-50.386 13.318,-50.386 11.695,-50.386 11.695,-49.364 11.149,-48.42 10.264,-47.909 9.3794,-47.398 8.2891,-47.398 7.404,-47.909 6.5191,-48.42 5.9739,-49.364 5.9739,-50.386 4.4183,-50.386 2.872,-50.386 1.3163,-50.386 1.3163,-48.747 1.3163,-47.117 1.3163,-45.477 1.9736,-44.684 2.6567,-43.918 3.3482,-43.16 Z"/>
      <path fill="#c0c0c0" d="M1.3163,-55.295 C1.3163,-53.655 1.3163,-52.026 1.3163,-50.386 2.872,-50.386 4.4183,-50.386 5.9739,-50.386 5.9739,-51.408 6.5191,-52.352 7.404,-52.863 8.2891,-53.374 9.3794,-53.374 10.264,-52.863 11.149,-52.352 11.695,-51.408 11.695,-50.386 13.318,-50.386 14.932,-50.386 16.556,-50.386 16.556,-52.027 16.556,-53.659 16.556,-55.3 15.898,-56.088 15.215,-56.854 14.524,-57.612 10.791,-57.612 7.0809,-57.612 3.3482,-57.611 2.6567,-56.854 1.9736,-56.088 1.3163,-55.295 Z"/>
      <path fill="#c0c0c0" d="M108.68,-46.323 L108.68,-54.449 16.556,-54.449 16.556,-46.323 Z"/>
      <path fill="#a8a8a8" d="M108.68,-57.188 L120.98,-57.188 120.98,-43.584 108.68,-43.584 Z"/>
      <path fill="#c0c0c0" d="M120.98,-53.571 L127.61,-53.571 127.61,-47.201 120.98,-47.201 Z"/>
      <path fill="#aeaeae" d="M121.35,-55.16 L121.35,-53.571 126.79,-53.571 126.79,-55.16 126.27,-55.833 121.87,-55.833 Z"/>
      <path fill="#aeaeae" d="M126.27,-44.938 L126.79,-45.612 126.79,-47.201 121.35,-47.201 121.35,-45.612 121.87,-44.938 Z"/>
      <path fill="#d4d4d4" d="M127.61,-47.201 L128.27,-47.623 128.27,-53.149 127.61,-53.571 Z"/>
      <path fill="#ffad5b" d="M31.969,-61.764 L36.67,-61.764 36.67,-57.17 31.969,-57.17 Z"/>
      <path fill="#ffad5b" d="M33.075,-57.17 L35.568,-57.17 35.568,-55.503 33.075,-55.503 Z"/>
      <path fill="#ffad5b" d="M40.045,-54.449 L40.045,-55.503 32.591,-55.503 32.591,-54.449 Z"/>
      <path fill="#ffad5b" d="M32.591,-45.269 L40.045,-45.269 40.045,-46.323 32.591,-46.323 Z"/>
      <path fill="#ffad5b" d="M40.045,-46.323 L108.68,-46.323 108.68,-43.584 40.045,-43.584 Z"/>
      <path fill="#ffad5b" d="M40.045,-57.188 L108.68,-57.188 108.68,-54.449 40.045,-54.449 Z"/>
      <path fill="#009300" d="M134.1,-50.386 L134.1,-57.188 120.98,-57.188 120.98,-53.571 121.35,-53.571 121.35,-55.16 121.87,-55.833 126.27,-55.833 126.79,-55.16 126.79,-53.571 127.61,-53.571 128.27,-53.149 128.27,-50.386 Z"/>
      <path fill="#009300" d="M120.98,-47.201 L120.98,-43.584 134.1,-43.584 134.1,-50.386 128.27,-50.386 128.27,-47.623 127.61,-47.201 126.79,-47.201 126.79,-45.612 126.27,-44.938 121.87,-44.938 121.35,-45.612 121.35,-47.201 Z"/>
      <path fill="#009300" d="M134.1,-55.833 L134.1,-50.386 139.92,-50.386 139.92,-55.833 Z"/>
      <path fill="#009300" d="M134.1,-50.386 L134.1,-44.938 139.92,-44.938 139.92,-50.386 Z"/>
      <path fill="#009300" d="M143.2,-53.833 C142.1,-53.832 141.01,-53.832 139.92,-53.831 139.92,-52.681 139.92,-51.537 139.92,-50.386 143.03,-50.386 146.13,-50.386 149.24,-50.386 149.24,-51.537 149.24,-52.681 149.24,-53.831 148.51,-53.832 147.77,-53.833 147.03,-53.834 145.92,-52.773 144.33,-52.773 143.2,-53.833 Z"/>
      <path fill="#009300" d="M139.92,-50.386 L139.92,-46.94 149.24,-46.94 149.24,-50.386 Z"/>
      <path fill="#009300" d="M147.03,-53.834 C147.03,-54.948 147.03,-56.056 147.03,-57.17 145.75,-57.17 144.48,-57.17 143.2,-57.17 143.2,-56.055 143.2,-54.947 143.2,-53.833 144.33,-52.773 145.92,-52.773 147.03,-53.834 Z"/>
      <path fill="#009300" d="M142.76,-61.764 L147.46,-61.764 147.46,-57.17 142.76,-57.17 Z"/>
      <path fill="#7f7f7f" d="M3.3482,-57.611 C3.3482,-57.845 3.3482,-58.076 3.3482,-58.309 2.6696,-57.631 1.995,-56.956 1.3163,-56.278 1.3163,-55.949 1.3163,-55.623 1.3163,-55.295 1.9736,-56.088 2.6567,-56.854 3.3482,-57.611 Z"/>
      <path fill="#7f7f7f" d="M1.3163,-45.477 C1.3163,-45.149 1.3163,-44.823 1.3163,-44.494 1.995,-43.816 2.6696,-43.141 3.3482,-42.462 3.3482,-42.696 3.3482,-42.927 3.3482,-43.16 2.6567,-43.918 1.9736,-44.684 1.3163,-45.477 Z"/>
      <path fill="#666" d="M14.524,-42.462 L14.524,-43.16 3.3482,-43.16 3.3482,-42.462 Z"/>
      <path fill="#7f7f7f" d="M14.524,-43.16 C14.524,-42.927 14.524,-42.695 14.524,-42.462 15.202,-43.14 15.877,-43.814 16.556,-44.492 16.556,-44.819 16.556,-45.145 16.556,-45.472 15.898,-44.684 15.215,-43.918 14.524,-43.16 Z"/>
      <path fill="#aeaeae" d="M3.3482,-58.309 L3.3482,-57.611 14.524,-57.612 14.524,-58.309 Z"/>
      <path fill="#d3d3d3" d="M16.556,-55.3 C16.556,-55.627 16.556,-55.953 16.556,-56.28 15.877,-56.958 15.202,-57.632 14.524,-58.309 14.524,-58.076 14.524,-57.845 14.524,-57.612 15.215,-56.854 15.898,-56.088 16.556,-55.3 Z"/>
      <path fill="#009300" d="M149.24,-50.386 L150.68,-50.386 149.24,-53.831 Z"/>
      <path fill="#009300" d="M149.24,-50.386 L149.24,-46.94 150.68,-50.386 Z"/>
    </g>
    <clipPath id="clipPath1" transform="matrix(3.78235,0,0,3.78235,-0,385.9)">
      <path d="M22.79,-54.449 L22.79,-56.43 25.744,-56.43 25.744,-54.449 27.651,-54.449 27.651,-55.503 30.374,-55.503 30.374,-54.449 32.591,-54.449 32.591,-55.503 33.075,-55.503 33.075,-57.17 31.969,-57.17 31.969,-61.764 31.485,-61.764 31.08,-61.358 31.068,-58.31 27.935,-58.31 27.935,-59.325 27.528,-59.732 20.213,-59.732 19.807,-59.326 19.807,-54.449 20.365,-54.449 20.365,-55.701 21.374,-55.701 21.374,-54.449 Z"/>
    </clipPath>
    <g clip-path="url(#clipPath1)">
      <g transform="matrix(3.78235,0,0,3.78235,-0,385.9)" stroke-width="0.15" stroke-linecap="butt" stroke-linejoin="miter" stroke-miterlimit="10">
        <path stroke="#000" d="M25.632,-48.518 L36.029,-58.915 M24.147,-50.002 L34.545,-60.4 M22.662,-51.487 L33.06,-61.885 M21.177,-52.972 L31.575,-63.37 M19.692,-54.457 L30.09,-64.855 M18.207,-55.942 L28.605,-66.34 M16.722,-57.427 L27.12,-67.825"/>
      </g>
    </g>
    <clipPath id="clipPath2" transform="matrix(3.78235,0,0,3.78235,-0,385.9)">
      <path d="M35.568,-55.503 L40.045,-55.503 40.045,-57.188 39.44,-57.188 39.425,-57.884 38.971,-58.31 37.632,-58.36 37.56,-61.358 37.154,-61.764 36.67,-61.764 36.67,-57.17 35.568,-57.17 Z"/>
    </clipPath>
    <g clip-path="url(#clipPath2)">
      <g transform="matrix(3.78235,0,0,3.78235,-0,385.9)" stroke-width="0.15" stroke-linecap="butt" stroke-linejoin="miter" stroke-miterlimit="10">
        <path stroke="#000" d="M37.009,-53.955 L42.484,-59.43 M35.524,-55.44 L40.999,-60.915 M34.039,-56.925 L39.514,-62.4 M32.554,-58.41 L38.03,-63.885"/>
      </g>
    </g>
    <clipPath id="clipPath3" transform="matrix(3.78235,0,0,3.78235,-0,385.9)">
      <path d="M19.807,-41.446 L20.213,-41.04 27.528,-41.04 27.935,-41.447 27.935,-42.462 38.969,-42.462 39.419,-42.905 39.432,-43.57 40.045,-43.584 40.045,-45.269 32.591,-45.269 32.591,-46.323 30.374,-46.323 30.374,-45.269 27.651,-45.269 27.651,-46.323 25.744,-46.323 25.744,-44.342 22.79,-44.342 22.79,-46.323 21.374,-46.323 21.374,-45.071 20.365,-45.071 20.365,-46.323 19.807,-46.323 Z"/>
    </clipPath>
    <g clip-path="url(#clipPath3)">
      <g transform="matrix(3.78235,0,0,3.78235,-0,385.9)" stroke-width="0.15" stroke-linecap="butt" stroke-linejoin="miter" stroke-miterlimit="10">
        <path stroke="#000" d="M29.322,-31.418 L42.188,-44.285 M27.837,-32.903 L40.704,-45.77 M26.352,-34.388 L39.219,-47.255 M24.867,-35.873 L37.734,-48.74 M23.382,-37.358 L36.249,-50.225 M21.897,-38.843 L34.764,-51.71 M20.412,-40.328 L33.279,-53.195 M18.927,-41.813 L31.794,-54.68 M17.442,-43.298 L30.309,-56.165"/>
      </g>
    </g>
    <clipPath id="clipPath4" transform="matrix(3.78235,0,0,3.78235,-0,385.9)">
      <path d="M133.75,-57.208 L133.77,-57.861 133.25,-58.334 40.001,-58.31 39.461,-57.868 39.44,-57.188 Z"/>
    </clipPath>
    <g clip-path="url(#clipPath4)">
      <g transform="matrix(3.78235,0,0,3.78235,-0,385.9)" stroke-width="0.15" stroke-linecap="butt" stroke-linejoin="miter" stroke-miterlimit="10">
        <path stroke="#000" d="M38.931,-57.931 L86.773,-10.089 M39.886,-58.886 L87.727,-11.044 M40.84,-59.84 L88.682,-11.999 M41.795,-60.795 L89.636,-12.953 M42.749,-61.75 L90.591,-13.908 M43.704,-62.704 L91.546,-14.862 M44.658,-63.659 L92.5,-15.817 M45.613,-64.613 L93.455,-16.772 M46.568,-65.568 L94.409,-17.726 M47.522,-66.523 L95.364,-18.681 M48.477,-67.477 L96.319,-19.635 M49.431,-68.432 L97.273,-20.59 M50.386,-69.386 L98.228,-21.545 M51.341,-70.341 L99.182,-22.499 M52.295,-71.296 L100.14,-23.454 M53.25,-72.25 L101.09,-24.408 M54.204,-73.205 L102.05,-25.363 M55.159,-74.159 L103,-26.318 M56.114,-75.114 L103.96,-27.272 M57.068,-76.069 L104.91,-28.227 M58.023,-77.023 L105.86,-29.181 M58.977,-77.978 L106.82,-30.136 M59.932,-78.932 L107.77,-31.09 M60.887,-79.887 L108.73,-32.045 M61.841,-80.841 L109.68,-33 M62.796,-81.796 L110.64,-33.954 M63.75,-82.751 L111.59,-34.909 M64.705,-83.705 L112.55,-35.863 M65.66,-84.66 L113.5,-36.818 M66.614,-85.614 L114.46,-37.773 M67.569,-86.569 L115.41,-38.727 M68.523,-87.524 L116.37,-39.682 M69.478,-88.478 L117.32,-40.636 M70.432,-89.433 L118.27,-41.591 M71.387,-90.387 L119.23,-42.546 M72.342,-91.342 L120.18,-43.5 M73.296,-92.297 L121.14,-44.455 M74.251,-93.251 L122.09,-45.409 M75.205,-94.206 L123.05,-46.364 M76.16,-95.16 L124,-47.319 M77.115,-96.115 L124.96,-48.273 M78.069,-97.07 L125.91,-49.228 M79.024,-98.024 L126.87,-50.182 M79.978,-98.979 L127.82,-51.137 M80.933,-99.933 L128.77,-52.092 M81.888,-100.89 L129.73,-53.046 M82.842,-101.84 L130.68,-54.001 M83.797,-102.8 L131.64,-54.955 M84.751,-103.75 L132.59,-55.91 M85.706,-104.71 L133.55,-56.864"/>
      </g>
    </g>
    <clipPath id="clipPath5" transform="matrix(3.78235,0,0,3.78235,-0,385.9)">
      <path d="M39.922,-42.462 L133.6,-42.462 134.12,-42.931 134.1,-43.584 40.045,-43.584 39.432,-43.57 39.419,-42.931 Z"/>
    </clipPath>
    <g clip-path="url(#clipPath5)">
      <g transform="matrix(3.78235,0,0,3.78235,-0,385.9)" stroke-width="0.15" stroke-linecap="butt" stroke-linejoin="miter" stroke-miterlimit="10">
        <path stroke="#000" d="M39.614,-43.884 L87.629,4.1316 M40.568,-44.839 L88.584,3.177 M41.523,-45.793 L89.539,2.2224 M42.477,-46.748 L90.493,1.2678 M43.432,-47.703 L91.448,0.31318 M44.387,-48.657 L92.402,-0.64141 M45.341,-49.612 L93.357,-1.596 M46.296,-50.566 L94.312,-2.5506 M47.25,-51.521 L95.266,-3.5052 M48.205,-52.476 L96.221,-4.4598 M49.16,-53.43 L97.175,-5.4144 M50.114,-54.385 L98.13,-6.369 M51.069,-55.339 L99.084,-7.3236 M52.023,-56.294 L100.04,-8.2782 M52.978,-57.249 L100.99,-9.2327 M53.932,-58.203 L101.95,-10.187 M54.887,-59.158 L102.9,-11.142 M55.842,-60.112 L103.86,-12.097 M56.796,-61.067 L104.81,-13.051 M57.751,-62.021 L105.77,-14.006 M58.705,-62.976 L106.72,-14.96 M59.66,-63.931 L107.68,-15.915 M60.615,-64.885 L108.63,-16.869 M61.569,-65.84 L109.59,-17.824 M62.524,-66.794 L110.54,-18.779 M63.478,-67.749 L111.49,-19.733 M64.433,-68.704 L112.45,-20.688 M65.388,-69.658 L113.4,-21.642 M66.342,-70.613 L114.36,-22.597 M67.297,-71.567 L115.31,-23.552 M68.251,-72.522 L116.27,-24.506 M69.206,-73.477 L117.22,-25.461 M70.161,-74.431 L118.18,-26.415 M71.115,-75.386 L119.13,-27.37 M72.07,-76.34 L120.09,-28.325 M73.024,-77.295 L121.04,-29.279 M73.979,-78.25 L121.99,-30.234 M74.934,-79.204 L122.95,-31.188 M75.888,-80.159 L123.9,-32.143 M76.843,-81.113 L124.86,-33.098 M77.797,-82.068 L125.81,-34.052 M78.752,-83.023 L126.77,-35.007 M79.706,-83.977 L127.72,-35.961 M80.661,-84.932 L128.68,-36.916 M81.616,-85.886 L129.63,-37.871 M82.57,-86.841 L130.59,-38.825 M83.525,-87.796 L131.54,-39.78 M84.479,-88.75 L132.5,-40.734 M85.434,-89.705 L133.45,-41.689 M86.389,-90.659 L134.4,-42.644"/>
      </g>
    </g>
    <clipPath id="clipPath6" transform="matrix(3.78235,0,0,3.78235,-0,385.9)">
      <path d="M143.2,-53.831 L143.2,-57.17 142.76,-57.17 142.76,-61.764 142.4,-61.739 141.93,-61.358 141.92,-58.31 134.62,-58.314 134.13,-57.851 134.14,-57.841 134.13,-57.188 134.1,-57.188 134.1,-55.833 139.92,-55.833 139.92,-53.831 Z"/>
    </clipPath>
    <g clip-path="url(#clipPath6)">
      <g transform="matrix(3.78235,0,0,3.78235,-0,385.9)" stroke-width="0.15" stroke-linecap="butt" stroke-linejoin="miter" stroke-miterlimit="10">
        <path stroke="#000" d="M138.04,-49.791 L146.66,-58.409 M136.66,-51.17 L145.28,-59.788 M135.28,-52.549 L143.9,-61.167 M133.9,-53.928 L142.52,-62.546 M132.52,-55.307 L141.14,-63.925 M131.14,-56.686 L139.76,-65.303"/>
      </g>
    </g>
    <clipPath id="clipPath7" transform="matrix(3.78235,0,0,3.78235,-0,385.9)">
      <path d="M150.68,-50.386 L149.24,-46.94 139.92,-46.94 139.92,-44.938 134.1,-44.938 134.12,-42.931 134.62,-42.462 166.51,-42.462 168.54,-44.494 168.54,-50.346 163.92,-50.342 163.78,-49.604 163.26,-48.599 162.14,-47.753 160.85,-47.531 159.68,-47.819 159.02,-48.349 158.26,-49.671 158.17,-50.386 158.23,-50.989 158.68,-52.026 159.9,-53.014 161.22,-53.24 162.46,-52.863 163.43,-51.942 163.89,-50.386 168.54,-50.386 168.54,-56.162 166.52,-58.3 148.55,-58.237 148.37,-61.266 147.94,-61.764 147.46,-61.81 147.46,-59.115 147.49,-57.174 147.06,-57.188 147.03,-57.188 147.03,-55.833 147.03,-53.831 149.24,-53.831 Z"/>
    </clipPath>
    <g clip-path="url(#clipPath7)">
      <g transform="matrix(3.78235,0,0,3.78235,-0,385.9)" stroke-width="0.15" stroke-linecap="butt" stroke-linejoin="miter" stroke-miterlimit="10">
        <path stroke="#000" d="M150.28,-26.181 L177.28,-53.181 M148.9,-27.56 L175.9,-54.56 M147.52,-28.939 L174.52,-55.939 M146.14,-30.318 L173.14,-57.318 M144.76,-31.697 L171.76,-58.697 M143.38,-33.075 L170.38,-60.076 M142.01,-34.454 L169.01,-61.455 M140.63,-35.833 L167.63,-62.833 M139.25,-37.212 L166.25,-64.212 M137.87,-38.591 L164.87,-65.591 M136.49,-39.97 L163.49,-66.97 M135.11,-41.349 L162.11,-68.349 M133.73,-42.727 L160.73,-69.728 M132.35,-44.106 L159.35,-71.107 M130.97,-45.485 L157.97,-72.485 M129.6,-46.864 L156.6,-73.864 M128.22,-48.243 L155.22,-75.243 M126.84,-49.622 L153.84,-76.622 M125.46,-51.001 L152.46,-78.001"/>
      </g>
    </g>
  </g>
  <g id="AUTOID_012" vm2d:name="" vm2d:type="layer"/>
  <g id="C3DB0001" vm2d:name="Background" vm2d:type="layer"/>
  <g id="C3DG0001" vm2d:name="Drawing" vm2d:type="layer">
    <g transform="matrix(3.78235,0,0,3.78235,-0,385.9)" stroke-width="0.35" stroke-linecap="round" stroke-linejoin="round" stroke-miterlimit="10">
      <path stroke="#000" d="M19.807,-46.229 C19.807,-43.334 19.807,-41.446 19.807,-41.446 19.942,-41.31 20.077,-41.176 20.213,-41.04 22.656,-41.04 25.085,-41.04 27.528,-41.04 27.664,-41.174 27.799,-41.313 27.935,-41.447 27.935,-41.65 27.935,-41.998 27.935,-42.462 28.315,-42.462 28.695,-42.462 29.074,-42.462 29.282,-42.462 34.347,-42.462 36.469,-42.462 70.508,-42.462 110.42,-42.462 144.86,-42.462 146.05,-42.462 150.11,-42.462 150.95,-42.462 156.14,-42.462 161.31,-42.462 166.51,-42.462 167.19,-43.14 167.87,-43.815 168.54,-44.494 168.54,-46.462 168.54,-48.418 168.54,-50.386 168.54,-52.354 168.54,-54.31 168.54,-56.278 167.87,-56.957 167.19,-57.632 166.51,-58.31 161.56,-58.31 156.63,-58.31 151.69,-58.31 150.94,-58.31 149.65,-58.31 148.49,-58.31 M141.83,-58.31 C108.66,-58.31 69.773,-58.31 37.571,-58.31 M19.807,-54.567 C19.807,-57.462 19.807,-59.326 19.807,-59.326 19.942,-59.461 20.077,-59.596 20.213,-59.732 22.656,-59.732 25.085,-59.732 27.528,-59.732 27.664,-59.598 27.799,-59.459 27.935,-59.325 27.935,-59.122 27.935,-58.774 27.935,-58.31 28.613,-58.31 30.39,-58.31 31.069,-58.31 31.072,-59.328 31.076,-60.34 31.08,-61.358 31.215,-61.493 31.35,-61.628 31.485,-61.764 31.485,-61.764 32.754,-61.764 34.32,-61.764 35.885,-61.764 37.154,-61.764 37.154,-61.764 37.29,-61.628 37.424,-61.493 37.56,-61.358 37.563,-60.34 37.567,-59.328 37.571,-58.31 37.571,-57.929 37.571,-57.551 37.571,-57.17 35.399,-57.17 33.24,-57.17 31.068,-57.17 31.068,-57.551 31.068,-57.929 31.068,-58.31 M148.43,-58.31 C148.43,-57.929 148.43,-57.551 148.43,-57.17 146.25,-57.17 144.1,-57.17 141.92,-57.17 141.92,-57.551 141.92,-57.929 141.92,-58.31 141.93,-59.328 141.93,-60.34 141.93,-61.358 142.07,-61.493 142.2,-61.628 142.34,-61.764 142.34,-61.764 143.61,-61.764 145.18,-61.764 146.74,-61.764 148.01,-61.764 148.01,-61.764 148.15,-61.628 148.28,-61.493 148.41,-61.358 148.42,-60.34 148.42,-59.328 148.43,-58.31 Z"/>
      <path stroke="#000" stroke-width="0.18" d="M16.556,-45.443 C16.556,-45.236 16.556,-44.994 16.556,-44.801 16.556,-44.608 16.556,-44.492 16.556,-44.492 15.877,-43.816 15.202,-43.141 14.524,-42.462 10.791,-42.462 7.0809,-42.462 3.3482,-42.462 2.6696,-43.141 1.995,-43.816 1.3163,-44.494 1.3163,-44.494 1.3163,-44.618 1.3163,-44.819 1.3163,-45.021 1.3163,-45.271 1.3163,-45.477 1.3163,-47.113 1.3163,-48.749 1.3163,-50.386 1.3163,-52.023 1.3163,-53.659 1.3163,-55.295 1.3163,-55.501 1.3163,-55.751 1.3163,-55.953 1.3163,-56.154 1.3163,-56.278 1.3163,-56.278 1.995,-56.956 2.6696,-57.631 3.3482,-58.309 7.0809,-58.309 10.791,-58.309 14.524,-58.309 15.202,-57.631 15.877,-56.956 16.556,-56.28 16.556,-56.28 16.556,-56.164 16.556,-55.971 16.556,-55.778 16.556,-55.536 16.556,-55.328 M108.68,-54.449 C78.995,-54.449 49.489,-54.449 19.807,-54.449 18.721,-54.449 17.642,-54.449 16.556,-54.449 16.556,-54.45 16.556,-52.848 16.556,-50.756 16.556,-50.632 16.556,-50.508 16.556,-50.386 16.556,-50.264 16.556,-50.14 16.556,-50.016 16.556,-47.924 16.556,-46.322 16.556,-46.323 17.642,-46.323 18.721,-46.323 19.807,-46.323 49.489,-46.323 78.995,-46.323 108.68,-46.323 M5.9739,-50.386 C5.9739,-49.364 6.5191,-48.42 7.404,-47.909 8.2891,-47.398 9.3794,-47.398 10.264,-47.909 11.149,-48.42 11.695,-49.364 11.695,-50.386 11.695,-51.408 11.149,-52.352 10.264,-52.863 9.3794,-53.374 8.2891,-53.374 7.404,-52.863 6.5191,-52.352 5.9739,-51.408 5.9739,-50.386 Z"/>
      <path stroke="#000" d="M158.17,-50.386 C158.17,-49.364 158.71,-48.42 159.6,-47.909 160.48,-47.398 161.57,-47.398 162.46,-47.909 163.34,-48.42 163.89,-49.364 163.89,-50.386 163.89,-51.408 163.34,-52.352 162.46,-52.863 161.57,-53.374 160.48,-53.374 159.6,-52.863 158.71,-52.352 158.17,-51.408 158.17,-50.386 Z"/>
      <path stroke="#000" stroke-width="0.18" d="M3.3482,-58.309 C3.3482,-58.309 3.3482,-58.004 3.3482,-57.611 2.6567,-56.854 1.9736,-56.088 1.3163,-55.3 M3.3482,-42.462 C3.3482,-42.462 3.3482,-42.768 3.3482,-43.16 2.6567,-43.918 1.9736,-44.684 1.3163,-45.472 M16.556,-54.449 C16.556,-54.449 16.556,-54.457 16.556,-55.3 15.898,-56.088 15.215,-56.854 14.524,-57.612 14.524,-57.73 14.524,-57.848 14.524,-57.959 14.524,-58.167 14.524,-58.31 14.524,-58.31 M16.556,-46.323 C16.556,-46.323 16.556,-46.315 16.556,-45.472 15.898,-44.684 15.215,-43.918 14.524,-43.16 14.524,-43.042 14.524,-42.924 14.524,-42.813 14.524,-42.604 14.524,-42.462 14.524,-42.462 M14.524,-57.612 L3.3482,-57.612 M14.524,-43.16 L3.3482,-43.16 M147.03,-57.138 L147.03,-53.831 M143.2,-57.136 L143.2,-53.831 M139.92,-53.831 C141.01,-53.831 142.1,-53.831 143.2,-53.831 144.33,-52.773 145.92,-52.773 147.03,-53.831 147.77,-53.831 148.51,-53.831 149.24,-53.831 149.72,-52.681 150.2,-51.537 150.68,-50.386 150.2,-49.235 149.72,-48.091 149.24,-46.94 146.13,-46.94 143.03,-46.94 139.92,-46.94 M120.98,-57.188 L120.98,-50.386 120.98,-43.584 108.68,-43.584 108.68,-50.386 108.68,-57.188 120.98,-57.188 M120.98,-47.201 L127.61,-47.201 128.27,-47.623 128.27,-50.386 128.27,-53.149 127.61,-53.571 120.98,-53.571 M121.35,-53.571 L121.35,-55.16 121.87,-55.833 126.27,-55.833 126.79,-55.16 126.79,-53.571 M121.35,-47.201 L121.35,-45.612 121.87,-44.938 126.27,-44.938 126.79,-45.612 126.79,-47.201 M127.61,-53.571 L127.61,-50.386 127.61,-47.201 M134.1,-57.188 L40.045,-57.188 40.045,-54.449 M40.045,-46.323 L40.045,-43.584 134.1,-43.584 M32.591,-54.449 L32.591,-55.503 40.045,-55.503 M32.591,-46.323 L32.591,-45.269 40.045,-45.269"/>
      <path stroke="#000" stroke-width="0.1" d="M19.807,-55.104 L20.365,-55.104 M19.807,-45.667 L20.365,-45.667 M21.374,-55.104 L22.79,-55.104 M21.374,-45.667 L22.79,-45.667 M25.744,-55.104 L27.651,-55.104 M25.744,-45.667 L27.651,-45.667 M30.374,-55.104 L32.591,-55.104 M30.374,-45.667 L32.591,-45.667"/>
      <path stroke="#000" stroke-width="0.18" d="M35.568,-55.503 L35.568,-57.17 M147.46,-57.208 L147.46,-61.764 M31.969,-57.17 L31.969,-61.764 M36.67,-57.17 L36.67,-61.764 M142.76,-57.208 L142.76,-61.764 M33.075,-55.503 L33.075,-57.17 M134.1,-58.31 L134.1,-50.386 134.1,-42.462 M134.1,-44.938 L137.52,-44.938 139.92,-44.938 139.92,-50.386 139.92,-55.833 137.52,-55.833 134.1,-55.833 M149.24,-53.831 L149.24,-50.386 149.24,-46.94 M39.419,-42.462 L39.419,-43.584 40.045,-43.584 40.045,-46.323 M40.045,-57.188 L39.44,-57.188 39.44,-58.31 M30.374,-54.449 L30.374,-55.503 27.651,-55.503 27.651,-54.449 M27.651,-46.323 L27.651,-45.269 30.374,-45.269 30.374,-46.323 M25.279,-56.43 L25.279,-54.449 M25.279,-46.323 L25.279,-44.342 M22.79,-54.449 L22.79,-56.43 25.744,-56.43 25.744,-54.449 M25.744,-46.323 L25.744,-44.342 22.79,-44.342 22.79,-46.323 M20.365,-54.449 L20.365,-55.701 21.374,-55.701 21.374,-54.449 M21.374,-46.323 L21.374,-45.071 20.365,-45.071 20.365,-46.323 M134.1,-57.841 L134.62,-58.31 M134.1,-42.931 L134.62,-42.462 M39.44,-57.841 L39.957,-58.31 M39.406,-42.931 L39.922,-42.462 M134.12,-57.841 L133.6,-58.31 M134.12,-42.931 L133.6,-42.462 M39.453,-57.841 L38.936,-58.31 M39.419,-42.931 L38.902,-42.462"/>
    </g>
    <g id="WRAP_001" vm2d:name="" vm2d:type="grnode">
      <g transform="matrix(3.78235,0,0,3.78235,-0,385.9)" stroke-width="0.49073" stroke-linecap="round" stroke-linejoin="round" stroke-miterlimit="10">
        <path stroke="#fff" d="M169.35,-50.386 L0.68519,-50.386"/>
        <path stroke="#000" stroke-width="0.13383" stroke-dasharray="6.35,0.635,1.27,0.635" d="M169.7,-50.386 L0.3283,-50.386"/>
      </g>
    </g>
  </g>
  <g id="C3DA0001" vm2d:name="Axials" vm2d:type="layer">
    <g>
      <g transform="matrix(3.78235,0,0,3.78235,-0,385.9)" stroke-width="0.85" stroke-linecap="round" stroke-linejoin="miter" stroke-miterlimit="10">
        <path stroke="#fff" d="M33.979,-29.202 L50.508,-44.995"/>
        <path stroke="#fff" stroke-width="0.7" stroke-linejoin="round" d="M50.978,-44.995 C50.978,-44.735 50.768,-44.525 50.508,-44.525 50.249,-44.525 50.038,-44.735 50.038,-44.995 50.038,-45.254 50.249,-45.465 50.508,-45.465 50.768,-45.465 50.978,-45.254 50.978,-44.995 Z"/>
        <path stroke="#000" stroke-width="0.15" d="M33.979,-29.202 L50.508,-44.995"/>
        <path fill="#000" d="M50.978,-44.995 C50.978,-44.735 50.768,-44.525 50.508,-44.525 50.249,-44.525 50.038,-44.735 50.038,-44.995 50.038,-45.254 50.249,-45.465 50.508,-45.465 50.768,-45.465 50.978,-45.254 50.978,-44.995 Z"/>
      </g>
      <g transform="matrix(3.73888,0,0,3.78235,128.52,281.619)">
        <text font-family="Arial" font-size="2.86" x="-15.5878" y="0.989792" fill="#000">ШТОКОВАЯ ПОЛОСТЬ</text>
      </g>
    </g>
    <a id="AUTOID_009" vm2d:name="ШТОКОВАЯ ПОЛОСТЬ" vm2d:type="grobject" xlink:href="#">
      <path d="M67.943,275.45 L189.1,275.45 189.1,287.79 67.943,287.79 Z" fill="#fff" fill-opacity="0"/>
    </a>
    <g>
      <g transform="matrix(3.78235,0,0,3.78235,-0,385.9)" stroke-width="0.85" stroke-linecap="round" stroke-linejoin="miter" stroke-miterlimit="10">
        <path stroke="#fff" d="M51.411,-66.615 L60.508,-52.006"/>
        <path stroke="#fff" stroke-width="0.7" stroke-linejoin="round" d="M60.978,-52.006 C60.978,-51.747 60.768,-51.536 60.508,-51.536 60.249,-51.536 60.038,-51.747 60.038,-52.006 60.038,-52.266 60.249,-52.476 60.508,-52.476 60.768,-52.476 60.978,-52.266 60.978,-52.006 Z"/>
        <path stroke="#000" stroke-width="0.15" d="M51.411,-66.615 L60.508,-52.006"/>
        <path fill="#000" d="M60.978,-52.006 C60.978,-51.747 60.768,-51.536 60.508,-51.536 60.249,-51.536 60.038,-51.747 60.038,-52.006 60.038,-52.266 60.249,-52.476 60.508,-52.476 60.768,-52.476 60.978,-52.266 60.978,-52.006 Z"/>
      </g>
      <g transform="matrix(3.73888,0,0,3.78235,194.456,127.765)">
        <text font-family="Arial" font-size="2.86" x="-4.12227" y="0.989792" fill="#000">ШТОК</text>
      </g>
    </g>
    <a id="AUTOID_010" vm2d:name="ШТОК" vm2d:type="grobject" xlink:href="#">
      <path d="M176.75,121.59 L212.16,121.59 212.16,133.94 176.75,133.94 Z" fill="#fff" fill-opacity="0"/>
    </a>
    <g>
      <g transform="matrix(3.78235,0,0,3.78235,-0,385.9)" stroke-width="0.85" stroke-linecap="round" stroke-linejoin="miter" stroke-miterlimit="10">
        <path stroke="#fff" d="M11.458,-66.615 L9.1286,-55.27"/>
        <path stroke="#fff" stroke-width="0.7" stroke-linejoin="round" d="M9.5986,-55.27 C9.5986,-55.011 9.3881,-54.8 9.1286,-54.8 8.869,-54.8 8.6586,-55.011 8.6586,-55.27 8.6586,-55.53 8.869,-55.74 9.1286,-55.74 9.3881,-55.74 9.5986,-55.53 9.5986,-55.27 Z"/>
        <path stroke="#000" stroke-width="0.15" d="M11.458,-66.615 L9.1286,-55.27"/>
        <path fill="#000" d="M9.5986,-55.27 C9.5986,-55.011 9.3881,-54.8 9.1286,-54.8 8.869,-54.8 8.6586,-55.011 8.6586,-55.27 8.6586,-55.53 8.869,-55.74 9.1286,-55.74 9.3881,-55.74 9.5986,-55.53 9.5986,-55.27 Z"/>
      </g>
      <g transform="matrix(3.73888,0,0,3.78235,43.3373,127.765)">
        <text font-family="Arial" font-size="2.86" x="-2.96938" y="0.989792" fill="#000">УХО</text>
      </g>
    </g>
    <a id="AUTOID_001" vm2d:name="УХО" vm2d:type="grobject" xlink:href="#">
      <path d="M29.939,121.59 L56.735,121.59 56.735,133.94 29.939,133.94 Z" fill="#fff" fill-opacity="0"/>
    </a>
    <g>
      <g transform="matrix(3.78235,0,0,3.78235,-0,385.9)" stroke-width="0.85" stroke-linecap="round" stroke-linejoin="miter" stroke-miterlimit="10">
        <path stroke="#fff" d="M158.01,-66.615 L161.19,-55.061"/>
        <path stroke="#fff" stroke-width="0.7" stroke-linejoin="round" d="M161.66,-55.061 C161.66,-54.801 161.45,-54.591 161.19,-54.591 160.93,-54.591 160.72,-54.801 160.72,-55.061 160.72,-55.32 160.93,-55.531 161.19,-55.531 161.45,-55.531 161.66,-55.32 161.66,-55.061 Z"/>
        <path stroke="#000" stroke-width="0.15" d="M158.01,-66.615 L161.19,-55.061"/>
        <path fill="#000" d="M161.66,-55.061 C161.66,-54.801 161.45,-54.591 161.19,-54.591 160.93,-54.591 160.72,-54.801 160.72,-55.061 160.72,-55.32 160.93,-55.531 161.19,-55.531 161.45,-55.531 161.66,-55.32 161.66,-55.061 Z"/>
      </g>
      <g transform="matrix(3.73888,0,0,3.78235,597.668,127.765)">
        <text font-family="Arial" font-size="2.86" x="-2.96938" y="0.989792" fill="#000">УХО</text>
      </g>
    </g>
    <a id="AUTOID_003" vm2d:name="УХО" vm2d:type="grobject" xlink:href="#">
      <path d="M584.27,121.59 L611.07,121.59 611.07,133.94 584.27,133.94 Z" fill="#fff" fill-opacity="0"/>
    </a>
    <g>
      <g transform="matrix(3.78235,0,0,3.78235,-0,385.9)" stroke-width="0.85" stroke-linecap="round" stroke-linejoin="miter" stroke-miterlimit="10">
        <path stroke="#fff" d="M83.584,-72.934 L92.681,-58.325"/>
        <path stroke="#fff" stroke-width="0.7" stroke-linejoin="round" d="M93.151,-58.325 C93.151,-58.066 92.94,-57.855 92.681,-57.855 92.421,-57.855 92.211,-58.066 92.211,-58.325 92.211,-58.585 92.421,-58.795 92.681,-58.795 92.94,-58.795 93.151,-58.585 93.151,-58.325 Z"/>
        <path stroke="#000" stroke-width="0.15" d="M83.584,-72.934 L92.681,-58.325"/>
        <path fill="#000" d="M93.151,-58.325 C93.151,-58.066 92.94,-57.855 92.681,-57.855 92.421,-57.855 92.211,-58.066 92.211,-58.325 92.211,-58.585 92.421,-58.795 92.681,-58.795 92.94,-58.795 93.151,-58.585 93.151,-58.325 Z"/>
      </g>
      <g transform="matrix(3.73888,0,0,3.78235,316.143,91.5891)">
        <text font-family="Arial" font-size="2.86" x="-5.8579" y="0.989792" fill="#000">КОРПУС</text>
      </g>
      <g transform="matrix(3.73888,0,0,3.78235,316.143,103.864)">
        <text font-family="Arial" font-size="2.86" x="-12.7753" y="0.989792" fill="#000">ГИДРОЦИЛИНДРА</text>
      </g>
    </g>
    <a id="AUTOID_025" vm2d:name="КОРПУС ГИДРОЦИЛИНДРА" vm2d:type="grobject" xlink:href="#">
      <path d="M266.08,85.417 L366.2,85.417 366.2,110.04 266.08,110.04 Z" fill="#fff" fill-opacity="0"/>
    </a>
    <g>
      <g transform="matrix(3.78235,0,0,3.78235,-0,385.9)" stroke-width="0.85" stroke-linecap="round" stroke-linejoin="miter" stroke-miterlimit="10">
        <path stroke="#fff" d="M140.92,-29.202 L129.61,-46.807"/>
        <path stroke="#fff" stroke-width="0.7" stroke-linejoin="round" d="M130.08,-46.807 C130.08,-46.547 129.87,-46.337 129.61,-46.337 129.35,-46.337 129.14,-46.547 129.14,-46.807 129.14,-47.067 129.35,-47.277 129.61,-47.277 129.87,-47.277 130.08,-47.067 130.08,-46.807 Z"/>
        <path stroke="#000" stroke-width="0.15" d="M140.92,-29.202 L129.61,-46.807"/>
        <path fill="#000" d="M130.08,-46.807 C130.08,-46.547 129.87,-46.337 129.61,-46.337 129.35,-46.337 129.14,-46.547 129.14,-46.807 129.14,-47.067 129.35,-47.277 129.61,-47.277 129.87,-47.277 130.08,-47.067 130.08,-46.807 Z"/>
      </g>
      <g transform="matrix(3.73888,0,0,3.78235,533.023,281.619)">
        <text font-family="Arial" font-size="2.86" x="-16.7352" y="0.989792" fill="#000">ПОРШНЕВАЯ ПОЛОСТЬ</text>
      </g>
    </g>
    <a id="AUTOID_027" vm2d:name="ПОРШНЕВАЯ ПОЛОСТЬ" vm2d:type="grobject" xlink:href="#">
      <path d="M467.82,275.45 L598.22,275.45 598.22,287.79 467.82,287.79 Z" fill="#fff" fill-opacity="0"/>
    </a>
  </g>
</svg>
