<svg xmlns="http://www.w3.org/2000/svg" xmlns:vm2d="http://www.cortona3d.com/vm2d" width="170mm" height="102mm" fill="none" fill-rule="evenodd" stroke-miterlimit="5" viewBox="0 0 643 386"><desc>&quot;Generator:ParallelGraphics Cortona2D&quot;,&quot;ProfileId:WebCGM&quot;&quot;ProfileEd:2.1&quot;&quot;ColourClass:colour&quot;&quot;Source:Cortona2D Editor Pro 14.2.0.142&quot;&quot;Date:20241223&quot;</desc><path fill="#fff" d="M0 0h643v386H0z"/><g vm2d:name="Схема" vm2d:type="layer"><g stroke-linecap="round" stroke-linejoin="round" stroke-miterlimit="10" stroke-width=".18"><path stroke="#000" stroke-width=".680823" d="M381.707 30.359h245.86v98.995h-245.86Z"/><text x="87.222" y="-51.297" fill="#000" font-family="Arial" font-size="2.86" transform="translate(97.963 484.241)scale(3.78235)">ДИСКРЕТНЫЙ СИГНАЛ 48 В</text><text x="89.541" y="-41.327" fill="#000" font-family="Arial" font-size="2.86" transform="translate(97.963 484.241)scale(3.78235)">МЕХАНИЧЕСКАЯ СВЯЗЬ</text><path fill="#00f" stroke="#000" stroke-width=".680823" d="m479.186 331.26-10.133 9.456 10.133 9.456v-4.728h44.027v4.728l10.136-9.456-10.136-9.456v4.728h-44.027Z"/><path stroke="#000" stroke-width=".680823" d="M427.867 186.09h151.286v56.735H427.867Z"/></g><g vm2d:type="grnode" fill="#000" font-family="Arial" font-size="3.21"><text x="97.067" y="-71.761" transform="translate(97.963 484.241)scale(3.78235)">ТОРМОЗНОЙ</text><text x="98.13" y="-68.11" transform="translate(97.963 484.241)scale(3.78235)">МЕХАНИЗМ</text></g><g stroke="#000" stroke-linecap="round" stroke-linejoin="round" stroke-miterlimit="10" stroke-width=".18"><path fill="#00f" stroke-width=".680823" d="m512.962 139.597-9.456-10.243-9.455 10.243h4.728v36.356h-4.728l9.455 10.137 9.456-10.137h-4.728v-36.356Z"/><path stroke-width=".680823" d="M22.384 30.359h189.117v212.466H22.384Z"/></g><g vm2d:type="grnode" fill="#000" font-family="Arial" font-size="3.21"><text x="-11.054" y="-92.368" transform="translate(97.963 484.241)scale(3.78235)">ШАГОВЫЙ ДРАЙВЕР</text><text x="-2.793" y="-88.675" transform="translate(97.963 484.241)scale(3.78235)">ТОРМОЗА</text></g><g vm2d:type="grnode" fill="#000" font-family="Arial" font-size="3.21"><text x="89.758" y="-107.368" transform="translate(97.963 484.241)scale(3.78235)">ШАГОВЫЙ ДВИГАТЕЛЬ</text><text x="99.707" y="-103.675" transform="translate(97.963 484.241)scale(3.78235)">ТОРМОЗА</text></g><g vm2d:type="grnode" stroke-linejoin="round" stroke-miterlimit="10" stroke-width=".9"><path stroke="#fff" stroke-width="3.404115" d="M213.204 77.638h154.509"/><path stroke="#fff" stroke-linecap="round" stroke-linejoin="miter" stroke-miterlimit="1000" stroke-width="1.134705" d="m366.578 80.664 15.13-3.026-15.13-3.026Z"/><path stroke="#000" stroke-dasharray="11.34705,3.78235" stroke-width="2.26941" d="M211.501 77.638h156.212"/><path fill="#000" d="m366.578 80.664 15.13-3.026-15.13-3.026Z"/></g></g><g vm2d:type="grnode" stroke-linejoin="round" stroke-miterlimit="10" stroke-width=".9"><path stroke="#fff" stroke-width="3.404115" d="M468.444 302.688h59.95"/><path stroke="#fff" stroke-linecap="round" stroke-linejoin="miter" stroke-miterlimit="1000" stroke-width="1.134705" d="m527.26 305.71 15.129-3.022-15.13-3.022Z"/><path stroke="#000" stroke-dasharray="11.34705,3.78235" stroke-width="2.26941" d="M466.742 302.688h61.652"/><path fill="#000" d="m527.26 305.71 15.129-3.022-15.13-3.022Z"/></g></svg>