<?xml version="1.0" encoding="UTF-8" standalone="no"?>
<!DOCTYPE svg SYSTEM "http://www.w3.org/Graphics/SVG/1.1/DTD/svg11.dtd" [
<!ENTITY % SVG.External.attrib
"xmlns:vm2d CDATA #FIXED 'http://www.cortona3d.com/vm2d'
vm2d:name CDATA #IMPLIED
vm2d:type CDATA #IMPLIED">
]>
<svg xmlns="http://www.w3.org/2000/svg" xmlns:vm2d="http://www.cortona3d.com/vm2d" xmlns:xlink="http://www.w3.org/1999/xlink" version="1.1" width="170mm" height="222mm" viewBox="0 0 643 840" fill="none" fill-rule="evenodd" stroke-miterlimit="5">
  <title>ICN-SCOOTER-A-0100000-0-ECIAS-00000-A-007-01</title>
  <desc>"Generator:ParallelGraphics Cortona2D","ProfileId:WebCGM""ProfileEd:2.1""ColourClass:colour""Source:Cortona2D Editor Pro 14.2.0.142""Date:20250507"</desc>
  <rect width="643" height="840" fill="#fff"/>
  <defs/>
  <g id="C3DB0001" vm2d:name="Background" vm2d:type="layer"/>
  <g id="C3DG0001" vm2d:name="Drawing" vm2d:type="layer">
    <g transform="matrix(3.78235,0,0,3.78235,-0,839.841)" stroke-width="0.18" stroke-linecap="round" stroke-linejoin="round" stroke-miterlimit="10">
      <path stroke="#000" d="M152,-127.89 L151.95,-127.92 M159.29,-122.84 L159.32,-122.61 M151.53,-125.84 L151.53,-125.84 M159.32,-122.61 L159.33,-122.61 C159.33,-122.61 159.33,-122.61 159.33,-122.61 M107.89,-79.457 C107.99,-79.399 108.09,-79.34 108.19,-79.282 108.73,-78.957 109.61,-79.455 110.16,-80.394 110.43,-80.845 110.58,-81.34 110.58,-81.769 110.59,-82.199 110.44,-82.528 110.18,-82.684 110.08,-82.742 109.98,-82.801 109.88,-82.859 M109.66,-81.329 C109.66,-81.329 109.64,-81.313 109.63,-81.305 109.62,-81.293 109.61,-81.28 109.59,-81.267 109.58,-81.255 109.57,-81.241 109.56,-81.228 109.53,-81.202 109.51,-81.174 109.49,-81.145 109.43,-81.074 109.38,-80.997 109.33,-80.916 109.28,-80.835 109.24,-80.751 109.21,-80.666 109.18,-80.615 109.17,-80.564 109.15,-80.513 109.15,-80.496 109.14,-80.479 109.14,-80.462 109.13,-80.445 109.13,-80.428 109.12,-80.411 109.12,-80.409 109.12,-80.404 109.12,-80.404 M110.26,-73.511 C109.12,-74.168 110.42,-76.39 111.56,-75.729 111.91,-75.517 111.9,-74.849 111.55,-74.236 111.19,-73.623 110.61,-73.299 110.26,-73.511 Z M115.76,-72.642 L116.04,-72.481 M116.72,-72.09 L118.48,-71.073 M114.49,-71.725 L115.27,-71.278 M116.01,-70.852 L117.77,-69.836 M118.7,-76.259 C118.7,-76.259 118.7,-76.238 118.69,-76.228 118.69,-76.208 118.68,-76.189 118.68,-76.169 118.67,-76.149 118.67,-76.13 118.66,-76.11 118.65,-76.068 118.64,-76.021 118.62,-75.974 118.59,-75.893 118.55,-75.812 118.51,-75.731 118.43,-75.563 118.32,-75.406 118.19,-75.265 118.07,-75.128 117.93,-75.011 117.77,-74.911 117.7,-74.863 117.61,-74.816 117.52,-74.784 117.49,-74.769 117.43,-74.751 117.39,-74.739 117.37,-74.734 117.35,-74.729 117.33,-74.725 117.32,-74.722 117.29,-74.718 117.29,-74.718 M116.2,-73.226 C116.2,-73.226 116.05,-72.525 115.98,-72.174 115.98,-72.154 115.97,-72.135 115.97,-72.115 115.96,-72.095 115.95,-72.075 115.95,-72.055 115.94,-72.037 115.93,-72.001 115.93,-72.001 115.93,-72.003 115.91,-71.962 115.91,-71.942 115.9,-71.921 115.89,-71.9 115.88,-71.88 115.86,-71.84 115.84,-71.8 115.81,-71.761 115.79,-71.726 115.77,-71.693 115.75,-71.66 115.74,-71.646 115.73,-71.632 115.72,-71.618 115.71,-71.604 115.69,-71.577 115.69,-71.578 115.69,-71.578 115.67,-71.556 115.66,-71.546 115.65,-71.534 115.64,-71.522 115.63,-71.51 115.62,-71.499 115.6,-71.487 115.59,-71.476 115.58,-71.465 115.57,-71.455 115.56,-71.444 115.55,-71.434 115.54,-71.424 115.52,-71.414 115.51,-71.405 115.5,-71.395 115.49,-71.386 115.48,-71.378 115.45,-71.361 115.45,-71.361 M115.47,-71.37 C115.47,-71.37 115.44,-71.356 115.43,-71.349 115.42,-71.342 115.41,-71.336 115.4,-71.329 115.39,-71.323 115.36,-71.312 115.36,-71.312 115.37,-71.318 115.36,-71.31 115.35,-71.307 115.34,-71.303 115.32,-71.295 115.31,-71.293 114.96,-71.213 115.14,-70.492 115.48,-70.57 116.04,-70.711 116.56,-71.338 116.71,-72.024 116.89,-72.907 117.26,-74.678 117.26,-74.678 M115.32,-71.296 C115.32,-71.296 115.31,-71.294 115.31,-71.293 M112.45,-77.441 C112.81,-77.242 113.39,-77.581 113.74,-78.198 114.09,-78.816 114.08,-79.477 113.73,-79.676 113.25,-79.949 112.58,-79.67 112.23,-79.053 111.88,-78.436 111.98,-77.714 112.45,-77.441 Z M120.42,-83.121 C120.42,-83.009 120.47,-82.928 120.54,-82.898 120.62,-82.868 120.73,-82.89 120.84,-82.959 123.85,-84.888 126.87,-86.822 129.88,-88.751 130.12,-88.901 130.33,-89.178 130.43,-89.464 130.54,-89.75 130.51,-89.997 130.36,-90.1 130.27,-90.168 130.13,-90.168 129.98,-90.099 126.94,-88.727 123.89,-87.351 120.86,-85.979 120.74,-85.924 120.61,-85.81 120.52,-85.667 120.43,-85.525 120.37,-85.369 120.38,-85.242 120.39,-84.536 120.41,-83.827 120.42,-83.121 Z M112.68,-64.089 C112.89,-63.972 113.09,-63.856 113.29,-63.739 113.92,-63.362 114.8,-63.489 115.69,-64.088 117.86,-65.538 120.04,-66.992 122.21,-68.443 122.28,-68.493 122.37,-68.535 122.47,-68.567 122.91,-68.71 123.79,-68.998 123.79,-68.998 M109.43,-82.955 C109.43,-82.955 113.77,-84.963 115.94,-85.966 116.01,-85.998 116.06,-86.038 116.11,-86.082 116.44,-86.436 116.77,-86.79 117.1,-87.144 117.19,-87.24 117.32,-87.324 117.47,-87.393 124.33,-90.492 131.21,-93.601 138.08,-96.701 138.67,-96.85 139.19,-96.797 139.6,-96.55 140.49,-96.001 140.7,-94.571 140.12,-92.879 139.55,-91.188 138.29,-89.54 136.9,-88.651 130.5,-84.555 124.09,-80.448 117.69,-76.352 117.54,-76.255 117.41,-76.143 117.32,-76.021 116.56,-74.973 115.79,-73.923 115.03,-72.876 114.98,-72.819 114.93,-72.77 114.87,-72.729 115.08,-72.612 115.28,-72.496 115.48,-72.379 115.61,-72.472 115.72,-72.576 115.8,-72.687 116.19,-73.21 116.57,-73.734 116.95,-74.257 117.33,-74.779 117.72,-75.304 118.1,-75.826 118.14,-75.887 118.21,-75.943 118.28,-75.992 124.68,-80.09 131.11,-84.201 137.51,-88.3 138.9,-89.189 140.15,-90.837 140.73,-92.528 141.31,-94.22 141.1,-95.65 140.2,-96.199 140,-96.316 139.8,-96.433 139.6,-96.55 M131.2,-91.624 C131.2,-91.624 131.13,-91.608 131.1,-91.601 131.02,-91.583 130.94,-91.568 130.86,-91.548 130.72,-91.514 130.62,-91.48 130.49,-91.421 127.45,-90.052 124.4,-88.676 121.37,-87.301 120.44,-86.881 119.68,-85.913 119.42,-84.825 119.36,-84.612 119.33,-84.398 119.33,-84.178 119.34,-83.472 119.36,-82.764 119.38,-82.058 119.38,-82.001 119.38,-81.943 119.39,-81.887 119.41,-81.741 119.46,-81.451 119.46,-81.451 M130.48,-89.654 C130.48,-89.654 124.46,-86.933 121.45,-85.575 121.33,-85.52 121.21,-85.406 121.11,-85.263 121.02,-85.121 120.97,-84.965 120.97,-84.838 120.98,-84.248 121.01,-83.068 121.01,-83.068 M115.46,-72.369 L115.48,-72.379 M107.45,-80.707 L107.55,-80.866 M136.67,-90.144 L136.62,-90.129 M107.45,-80.726 C107.45,-80.727 107.46,-80.726 107.46,-80.726 M104.21,-75.777 L104.21,-75.775 M104.22,-75.796 C104.21,-75.793 104.21,-75.783 104.21,-75.777 M104.21,-75.775 C104.22,-75.739 104.3,-75.661 104.43,-75.549 104.68,-75.345 104.92,-75.141 105.17,-74.937 105.34,-74.796 105.42,-74.535 105.39,-74.212 105.28,-72.819 105.16,-71.421 105.05,-70.028 105.03,-69.062 105.35,-68.324 105.93,-67.986 106.52,-67.647 107.32,-67.738 108.14,-68.236 110.38,-69.733 112.61,-71.222 114.85,-72.719 115.05,-72.602 115.26,-72.486 115.46,-72.369 113.22,-70.872 110.99,-69.383 108.75,-67.886 108.24,-67.577 107.73,-67.422 107.28,-67.435 106.76,-67.45 106.37,-67.733 105.93,-67.986 M118.46,-71.371 C118.46,-71.371 118.4,-71.351 118.37,-71.337 118.31,-71.311 118.26,-71.28 118.21,-71.245 118.2,-71.243 118.2,-71.238 118.2,-71.238 M116.88,-70.35 C116.88,-70.35 116.88,-70.343 116.88,-70.339 116.87,-70.279 116.87,-70.217 116.87,-70.156 116.88,-70.102 116.89,-70.047 116.91,-69.995 116.95,-69.845 117.04,-69.74 117.17,-69.694 117.51,-69.566 118.02,-69.918 118.3,-70.48 118.59,-71.042 118.54,-71.601 118.19,-71.729 118.11,-71.76 118.02,-71.764 117.91,-71.74 117.86,-71.728 117.81,-71.71 117.76,-71.687 117.7,-71.661 117.65,-71.63 117.6,-71.595 117.6,-71.593 117.59,-71.588 117.59,-71.588 M117.48,-70 C117.48,-70 117.48,-69.993 117.48,-69.989 117.48,-69.929 117.48,-69.867 117.48,-69.806 117.48,-69.771 117.5,-69.703 117.5,-69.703 M104.22,-75.796 L107.45,-80.726 M138.84,-93.423 C138.84,-93.423 138.84,-93.297 138.83,-93.235 138.83,-93.169 138.82,-93.102 138.81,-93.037 138.8,-92.968 138.79,-92.899 138.78,-92.831 138.76,-92.76 138.74,-92.689 138.72,-92.619 138.7,-92.547 138.68,-92.475 138.65,-92.404 138.63,-92.341 138.58,-92.217 138.58,-92.217 M138.6,-92.274 C138.6,-92.274 138.53,-92.112 138.49,-92.033 138.45,-91.952 138.41,-91.873 138.36,-91.794 138.32,-91.716 138.27,-91.638 138.22,-91.561 138.12,-91.408 138.01,-91.26 137.9,-91.119 137.84,-91.049 137.78,-90.981 137.72,-90.914 137.66,-90.849 137.54,-90.723 137.54,-90.723 M137.59,-90.779 C137.59,-90.779 137.49,-90.681 137.44,-90.635 137.38,-90.586 137.32,-90.538 137.26,-90.492 137.2,-90.448 137.15,-90.406 137.09,-90.366 137.03,-90.328 136.97,-90.292 136.91,-90.258 136.85,-90.226 136.79,-90.196 136.73,-90.169 136.67,-90.143 136.56,-90.1 136.56,-90.1 M119.46,-81.422 L119.45,-81.499 M115.63,-85.825 C115.63,-85.825 115.65,-85.974 115.67,-86.048 115.74,-86.454 115.82,-86.86 115.9,-87.264 115.99,-87.674 116.08,-88.083 116.17,-88.49 116.22,-88.695 116.17,-88.86 116.05,-88.912 115.96,-88.951 115.88,-88.913 115.79,-88.878 M120.58,-77.462 C120.58,-77.462 120.56,-77.416 120.55,-77.393 120.44,-77.177 120.23,-76.743 120.23,-76.743 M152.06,-127.78 C152.06,-127.78 152.06,-127.78 152.06,-127.78 152.1,-127.53 152.13,-127.27 152.16,-127.02 152.17,-126.99 152.18,-126.96 152.2,-126.94 152.25,-126.88 152.36,-126.91 152.45,-127.01 152.54,-127.12 152.64,-127.22 152.73,-127.32 152.79,-127.4 152.84,-127.51 152.84,-127.59 152.85,-128.19 152.86,-128.79 152.87,-129.38 152.87,-129.62 152.98,-129.89 153.15,-130.12 153.25,-130.25 153.37,-130.36 153.49,-130.42 153.8,-130.6 154.12,-130.77 154.43,-130.94 154.48,-130.97 154.52,-131 154.57,-131.04 154.82,-131.24 155.03,-131.57 155.12,-131.9 155.2,-132.24 155.13,-132.52 154.95,-132.63 154.82,-132.71 154.64,-132.7 154.46,-132.59 148.85,-129.49 143.22,-126.38 137.62,-123.27 134.13,-121.34 130.66,-118.61 127.42,-115.25 120.2,-107.75 114.64,-97.654 112.28,-87.734 112.52,-87.598 112.75,-87.462 112.99,-87.326 M157.71,-120.93 C157.71,-120.93 157.69,-120.92 157.68,-120.92 157.33,-120.94 156.97,-120.95 156.61,-120.95 156.24,-120.94 155.87,-120.92 155.5,-120.89 155.13,-120.86 154.75,-120.82 154.37,-120.76 153.62,-120.64 152.84,-120.47 152.06,-120.25 150.49,-119.82 148.88,-119.17 147.27,-118.33 145.65,-117.49 144.03,-116.46 142.43,-115.25 142.02,-114.95 141.62,-114.63 141.23,-114.31 140.83,-113.99 140.44,-113.65 140.05,-113.31 139.68,-112.99 138.95,-112.32 138.95,-112.32 M152.2,-126.94 C154.56,-125.57 156.91,-124.22 159.27,-122.86 159.33,-122.79 159.44,-122.83 159.53,-122.93 159.62,-123.03 159.71,-123.14 159.8,-123.24 159.87,-123.32 159.91,-123.42 159.91,-123.51 159.92,-124.11 159.93,-124.7 159.94,-125.3 159.95,-125.53 160.05,-125.81 160.22,-126.03 160.32,-126.17 160.44,-126.27 160.56,-126.34 160.87,-126.51 161.19,-126.69 161.5,-126.86 161.55,-126.89 161.6,-126.92 161.64,-126.95 161.9,-127.15 162.11,-127.49 162.19,-127.82 162.27,-128.15 162.21,-128.43 162.03,-128.55 159.66,-129.91 157.32,-131.26 154.95,-132.63 M118.68,-75.94 L120.13,-76.799 120.95,-76.329 M116.95,-73.182 C117.3,-72.978 117.65,-72.775 118.01,-72.571 118.57,-72.262 119.41,-72.566 120.13,-73.342 120.37,-73.594 120.58,-73.886 120.76,-74.2 120.85,-74.355 120.93,-74.517 121,-74.682 121.06,-74.837 121.17,-75.16 121.17,-75.16 M132.59,-85.149 C132.59,-85.149 132.63,-85.145 132.65,-85.135 132.8,-85.06 132.85,-84.786 132.78,-84.465 132.77,-84.403 132.75,-84.341 132.73,-84.28 132.67,-84.122 132.61,-83.966 132.55,-83.809 132.49,-83.651 132.43,-83.494 132.37,-83.337 132.26,-83.023 132.14,-82.706 132.02,-82.394 131.89,-82.084 131.76,-81.778 131.62,-81.47 131.49,-81.162 131.37,-80.85 131.23,-80.545 131.09,-80.24 130.94,-79.942 130.8,-79.64 130.65,-79.339 130.51,-79.033 130.36,-78.735 130.06,-78.139 129.74,-77.549 129.41,-76.968 129.26,-76.714 129.08,-76.399 128.81,-76.261 128.7,-76.208 128.53,-76.174 128.36,-76.173 128.19,-76.171 128.03,-76.201 127.95,-76.253 127.85,-76.32 127.58,-76.715 127.28,-77.236 127.03,-77.686 126.82,-78.15 126.64,-78.636 126.5,-79.019 126.38,-79.409 126.28,-79.806 126.22,-80.083 126.16,-80.364 126.11,-80.645 126.09,-80.754 126.07,-80.974 126.07,-80.974 M145.86,-83.985 C145.86,-83.985 145.87,-84.073 145.89,-84.115 145.91,-84.169 145.94,-84.22 145.97,-84.267 146.26,-84.748 146.7,-85.16 147.03,-85.622 147.16,-85.805 147.29,-85.996 147.42,-86.184 147.54,-86.368 147.65,-86.554 147.77,-86.741 147.82,-86.814 147.9,-86.964 147.9,-86.964 M141.74,-102.15 C141.92,-102.27 142.09,-102.4 142.27,-102.52 142.27,-102.52 142.27,-102.52 142.27,-102.52 142.22,-102.48 142.11,-102.4 142.11,-102.4 M124.51,-79.976 C124.51,-79.976 124.52,-79.926 124.52,-79.902 124.57,-79.677 124.63,-79.453 124.7,-79.231 124.76,-79.016 124.83,-78.801 124.91,-78.59 125.06,-78.173 125.23,-77.777 125.42,-77.404 125.81,-76.657 126.27,-76.003 126.82,-75.452 128.04,-74.207 129.62,-73.507 131.45,-73.403 137.01,-73.086 143.92,-78.267 148.34,-86.066 152.77,-93.865 153.62,-102.37 150.42,-106.84 147.29,-111.23 141.02,-110.71 134.97,-105.55 132.94,-103.83 131.05,-101.66 129.42,-99.214 128.52,-97.859 127.71,-96.432 127.01,-94.966 126.87,-94.675 126.74,-94.38 126.6,-94.084 126.48,-93.79 126.35,-93.494 126.23,-93.196 126.11,-92.901 125.99,-92.603 125.88,-92.304 125.77,-92.008 125.66,-91.71 125.56,-91.41 125.51,-91.27 125.42,-90.986 125.42,-90.986 M149.9,-105.33 C149.9,-105.33 149.98,-105.48 150.01,-105.56 150.05,-105.7 150.04,-105.85 150.01,-106 150,-106.06 149.98,-106.16 149.96,-106.24 149.94,-106.33 149.92,-106.4 149.91,-106.43 149.85,-106.54 149.7,-106.76 149.7,-106.76 M149.72,-106.73 C149.72,-106.73 149.4,-106.98 149.23,-107.1 149.04,-107.23 148.65,-107.45 148.65,-107.45 M120.78,-77.593 C120.78,-77.593 120.82,-77.182 120.85,-76.977 120.89,-76.651 120.94,-76.325 121,-76.002 121.05,-75.687 121.12,-75.373 121.19,-75.062 121.47,-73.859 121.82,-72.755 122.19,-71.9 123.08,-69.853 124.43,-67.864 125.59,-66.875 130.15,-62.236 137.6,-62.394 145.05,-67.29 152.51,-72.185 158.77,-81.043 161.42,-90.415 164.06,-99.787 162.66,-108.19 157.77,-112.36 M143.93,-99.737 C143.93,-99.737 145.95,-101.4 146.93,-102.26 147.41,-102.68 147.87,-103.14 148.32,-103.59 148.77,-104.05 149.21,-104.52 149.64,-105 149.74,-105.11 149.92,-105.36 149.92,-105.36 M142.25,-93.45 C142.25,-93.45 142.39,-93.464 142.46,-93.483 142.78,-93.574 143.1,-93.678 143.42,-93.781 144.02,-93.974 144.68,-94.209 145.23,-94.416 146.07,-94.732 146.9,-95.063 147.66,-95.543 148.26,-95.925 149.32,-96.702 150.15,-97.363 150.46,-97.616 150.77,-97.875 151.08,-98.139 151.39,-98.407 151.69,-98.681 151.99,-98.962 152.09,-99.051 152.18,-99.148 152.26,-99.25 152.29,-99.291 152.34,-99.378 152.34,-99.378 M142.35,-107.38 L142.32,-107.41 M142.57,-106.63 C142.57,-106.63 142.51,-106.95 142.48,-107.11 142.47,-107.15 142.45,-107.22 142.45,-107.22 M142.33,-107.41 L142.47,-107.15 M139.85,-96.403 C139.85,-96.403 139.92,-96.499 139.95,-96.55 140.1,-96.794 140.23,-97.042 140.37,-97.291 140.51,-97.548 140.65,-97.808 140.78,-98.07 140.91,-98.334 141.04,-98.602 141.16,-98.87 141.53,-99.648 141.86,-100.44 142.05,-101.27 142.19,-101.85 142.36,-102.99 142.45,-103.97 142.49,-104.35 142.52,-104.72 142.54,-105.1 142.56,-105.47 142.57,-105.84 142.58,-106.21 142.58,-106.37 142.57,-106.68 142.57,-106.68 M143.29,-99.545 C143.29,-99.545 143.42,-99.528 143.49,-99.538 143.56,-99.551 143.64,-99.578 143.71,-99.612 143.8,-99.651 143.88,-99.7 143.95,-99.756 144.01,-99.801 144.12,-99.892 144.12,-99.892 M143.36,-99.578 L143.43,-99.54 M150,-105.55 C150,-105.55 149.95,-105.55 149.93,-105.55 149.68,-105.55 149.42,-105.54 149.17,-105.51 149.03,-105.49 148.75,-105.39 148.75,-105.39 M148.16,-105.05 C148.16,-105.05 148.06,-104.96 148.02,-104.9 147.98,-104.85 147.94,-104.74 147.94,-104.74 M148.11,-105 C148.11,-105 148.27,-105.12 148.36,-105.17 148.43,-105.22 148.51,-105.26 148.59,-105.3 148.67,-105.34 148.82,-105.41 148.82,-105.41 M147.94,-104.76 C147.94,-104.76 147.88,-104.48 147.86,-104.35 147.81,-103.91 147.75,-103.04 147.75,-103.04 M150.69,-97.82 C150.69,-97.82 150.81,-97.987 150.88,-98.068 151.14,-98.396 151.41,-98.723 151.69,-99.043 151.9,-99.293 152.34,-99.782 152.34,-99.782"/>
      <path stroke="#000" d="M142.09,-93.539 C142.09,-93.539 142.17,-93.484 142.22,-93.467 142.24,-93.46 142.28,-93.455 142.28,-93.455 M135.32,-102.73 C135.32,-102.73 135.53,-102.64 135.61,-102.56 135.66,-102.52 135.69,-102.4 135.69,-102.4 M135.69,-102.42 C135.69,-102.42 135.75,-102.13 135.76,-101.98 135.81,-101.42 135.86,-100.87 135.88,-100.31 135.9,-99.97 135.9,-99.284 135.9,-99.284 M135.66,-95.612 C135.68,-95.701 135.71,-95.79 135.73,-95.879 135.84,-96.859 135.87,-97.851 135.91,-98.838 135.92,-99.359 135.88,-100.4 135.88,-100.4 M148.67,-86.649 C148.67,-86.649 148.49,-86.795 148.41,-86.867 148.2,-87.037 148,-87.206 147.79,-87.375 147.58,-87.552 147.36,-87.729 147.14,-87.905 146.91,-88.089 146.68,-88.276 146.45,-88.457 146.33,-88.548 146.21,-88.637 146.09,-88.719 145.96,-88.804 145.7,-88.957 145.7,-88.957 M141.8,-102.16 C141.8,-102.16 141.65,-102.05 141.58,-101.98 141.5,-101.92 141.43,-101.86 141.36,-101.79 141.31,-101.73 141.2,-101.61 141.2,-101.61 M141.25,-101.71 C141.25,-101.71 141.17,-101.57 141.14,-101.49 141.11,-101.4 141.09,-101.31 141.07,-101.21 141.05,-101.11 141.05,-101 141.05,-100.9 141.05,-100.56 141.06,-100.23 141.07,-99.897 141.08,-99.542 141.11,-99.185 141.14,-98.83 141.14,-98.825 141.14,-98.815 141.14,-98.815 M129.54,-74.82 C129.54,-74.82 130.66,-74.141 131.28,-73.941 131.98,-73.768 132.72,-73.754 133.44,-73.72 134.06,-73.691 134.52,-74.406 134.74,-74.873 135.22,-75.874 135.8,-77.311 136.24,-78.544 136.67,-79.785 137.04,-81.018 137.18,-82.329 137.22,-82.672 137.26,-83.016 137.28,-83.36 137.31,-83.699 137.33,-84.041 137.35,-84.381 137.37,-84.722 137.39,-85.065 137.4,-85.407 137.41,-85.747 137.41,-86.088 137.41,-86.428 137.41,-86.492 137.4,-86.557 137.39,-86.62 137.37,-86.683 137.35,-86.747 137.32,-86.806 137.3,-86.856 137.23,-86.943 137.23,-86.943 M141.05,-100.88 C141.05,-100.88 141.13,-100.96 141.17,-101 141.39,-101.2 141.62,-101.4 141.84,-101.59 141.95,-101.68 142.16,-101.85 142.16,-101.85 M137.29,-86.846 L137.19,-86.913 M132.49,-94.178 C132.49,-94.178 131.76,-94.077 131.39,-94.039 130.95,-93.993 130.51,-93.959 130.06,-93.93 129.93,-93.921 129.79,-93.92 129.66,-93.926 129.6,-93.929 129.49,-93.958 129.49,-93.958 M139.82,-83.017 L139.79,-83.04 M139.61,-83.122 C139.61,-83.122 139.75,-83.083 139.81,-83.033 140.43,-82.339 141.03,-81.62 141.62,-80.903 141.9,-80.573 142.17,-80.232 142.43,-79.89 142.64,-79.616 143.04,-79.058 143.04,-79.058 M148.2,-87.041 L147.97,-87.078 C147.92,-87.083 147.83,-87.08 147.83,-87.08 M148.01,-87.072 C148.01,-87.072 147.96,-87.035 147.94,-87.012 147.9,-86.977 147.85,-86.894 147.85,-86.894 M147.94,-87.013 L147.93,-86.994 M145.85,-83.572 C145.85,-83.572 145.86,-83.227 145.88,-83.056 145.89,-82.877 145.91,-82.697 145.93,-82.519 145.93,-82.481 145.95,-82.406 145.95,-82.406 M145.86,-83.455 L145.86,-84.003 M145.99,-84.298 L145.94,-84.218 M142.98,-79.135 L142.82,-78.841 M142.92,-78.941 L143.01,-79.098 M131.23,-73.968 L131.32,-73.937 M121.1,-85.23 C121.1,-85.23 121.08,-85.164 121.08,-85.131 121.04,-84.909 120.98,-84.463 120.98,-84.463 M135.75,-96.186 L135.71,-95.821 M91.909,-63.754 C91.727,-63.657 91.546,-63.56 91.364,-63.463 90.134,-62.755 90.06,-60.497 91.198,-58.422 92.336,-56.346 94.255,-55.238 95.485,-55.947 95.667,-56.044 95.848,-56.14 96.03,-56.237 M93.672,-59.19 C93.672,-59.19 93.683,-59.178 93.688,-59.173 93.714,-59.148 93.741,-59.124 93.769,-59.101 93.824,-59.057 93.88,-59.018 93.936,-58.985 93.992,-58.953 94.049,-58.927 94.104,-58.908 94.131,-58.899 94.159,-58.891 94.187,-58.885 94.213,-58.879 94.24,-58.875 94.267,-58.872 94.27,-58.872 94.276,-58.872 94.276,-58.872 M93.111,-60.495 C93.111,-60.495 93.111,-60.493 93.11,-60.491 93.109,-60.457 93.11,-60.424 93.111,-60.39 93.113,-60.355 93.116,-60.32 93.12,-60.285 93.129,-60.213 93.144,-60.141 93.163,-60.067 93.173,-60.03 93.184,-59.993 93.196,-59.957 93.209,-59.92 93.222,-59.883 93.237,-59.847 93.25,-59.813 93.281,-59.747 93.281,-59.747 M100.35,-63.383 C100.35,-63.383 100.19,-63.238 100.11,-63.166 100.11,-63.163 100.1,-63.16 100.1,-63.156 100.1,-63.155 100.1,-63.153 100.1,-63.151 100.13,-63.1 100.16,-63.051 100.19,-63.001 100.23,-62.951 100.26,-62.9 100.3,-62.851 100.33,-62.801 100.37,-62.752 100.4,-62.704 100.55,-62.511 100.7,-62.327 100.86,-62.157 101.28,-61.717 101.75,-61.363 102.24,-61.121 102.26,-61.108 102.3,-61.101 102.33,-61.098 102.34,-61.097 102.38,-61.097 102.39,-61.098 102.39,-61.098 102.39,-61.099 102.39,-61.1 102.4,-61.1 102.4,-61.102 102.4,-61.102 102.41,-61.102 102.41,-61.103 102.41,-61.103 M94.941,-64.537 C94.941,-64.537 94.916,-64.545 94.903,-64.549 94.847,-64.566 94.791,-64.587 94.734,-64.601 94.68,-64.614 94.624,-64.622 94.57,-64.632 94.548,-64.636 94.527,-64.642 94.505,-64.644 94.352,-64.659 94.208,-64.66 94.055,-64.645 93.822,-64.623 93.514,-64.505 93.328,-64.365 92.856,-64.012 92.597,-63.487 92.56,-62.807 92.506,-61.813 92.899,-60.653 93.637,-59.628 94.418,-58.543 95.469,-57.77 96.52,-57.509 97.149,-57.353 97.778,-57.386 98.322,-57.604 98.552,-57.696 98.796,-57.84 98.986,-57.996 99.121,-58.106 99.227,-58.219 99.343,-58.349 99.355,-58.362 99.366,-58.376 99.376,-58.39 99.423,-58.45 99.471,-58.509 99.514,-58.572 99.529,-58.594 99.557,-58.641 99.557,-58.641 M96.742,-64.24 L96.759,-64.233 M97.24,-65.761 C97.24,-65.761 97.169,-65.786 97.133,-65.797 97.113,-65.804 97.092,-65.809 97.071,-65.814 97.016,-65.827 96.961,-65.841 96.906,-65.852 96.884,-65.856 96.863,-65.859 96.841,-65.862 96.692,-65.88 96.54,-65.894 96.39,-65.875 96.08,-65.835 95.783,-65.727 95.539,-65.524 95.108,-65.164 94.863,-64.577 94.854,-63.882 94.842,-62.884 95.284,-61.711 96.055,-60.7 96.805,-59.717 97.755,-59.028 98.733,-58.76 99.361,-58.587 99.992,-58.6 100.54,-58.797 100.75,-58.873 101.04,-59.029 101.21,-59.164 101.35,-59.271 101.46,-59.379 101.58,-59.505 101.6,-59.518 101.61,-59.531 101.62,-59.545 101.67,-59.604 101.72,-59.662 101.76,-59.723 101.8,-59.769 101.86,-59.866 101.86,-59.866 M94.167,-62.809 C94.167,-62.809 94.176,-62.868 94.182,-62.897 94.191,-62.936 94.215,-63.014 94.219,-63.006 94.234,-63.035 94.25,-63.063 94.265,-63.092 M96.556,-64.286 L96.578,-64.302 M94.294,-61.807 C94.294,-61.807 94.261,-61.918 94.247,-61.974 94.232,-62.033 94.218,-62.092 94.206,-62.152 94.194,-62.209 94.176,-62.325 94.176,-62.325 M103.83,-60.675 C103.83,-60.675 103.83,-60.67 103.83,-60.668 103.77,-60.616 103.72,-60.561 103.67,-60.512 103.61,-60.463 103.55,-60.42 103.49,-60.374 103.48,-60.363 103.46,-60.35 103.45,-60.34 103.39,-60.3 103.32,-60.26 103.26,-60.221 103.04,-60.083 102.79,-60.003 102.54,-59.936 102.16,-59.835 101.6,-59.841 101.18,-59.95 100.19,-60.207 99.341,-60.791 98.662,-61.551 97.977,-62.318 97.432,-63.353 97.256,-64.221 97.146,-64.761 97.114,-65.3 97.259,-65.836 97.32,-66.062 97.466,-66.346 97.605,-66.509 97.691,-66.61 97.766,-66.684 97.867,-66.769 97.885,-66.783 97.903,-66.799 97.922,-66.812 97.941,-66.825 97.961,-66.836 97.981,-66.848 98.022,-66.874 98.062,-66.901 98.104,-66.925 98.125,-66.937 98.146,-66.946 98.167,-66.955 98.167,-66.956 98.168,-66.956 98.168,-66.956 M100.08,-60.339 C100.1,-60.348 100.11,-60.356 100.13,-60.364 100.12,-60.356 100.04,-60.319 99.996,-60.303 99.967,-60.292 99.906,-60.275 99.916,-60.277 99.876,-60.267 99.795,-60.253 99.795,-60.253 M94.286,-61.831 C94.286,-61.831 94.327,-61.708 94.349,-61.647 94.372,-61.585 94.397,-61.523 94.423,-61.462 94.476,-61.338 94.536,-61.215 94.603,-61.092 94.736,-60.845 94.898,-60.6 95.071,-60.381 95.248,-60.158 95.445,-59.951 95.654,-59.768 95.759,-59.676 95.867,-59.591 95.977,-59.512 96.031,-59.473 96.086,-59.436 96.143,-59.4 96.196,-59.365 96.307,-59.301 96.307,-59.301 96.297,-59.307 96.393,-59.255 96.442,-59.232 96.496,-59.206 96.552,-59.181 96.607,-59.159 96.662,-59.137 96.773,-59.099 96.773,-59.099 96.762,-59.102 96.85,-59.076 96.895,-59.065 96.948,-59.051 97.056,-59.031 97.056,-59.031 97.055,-59.031 97.129,-59.021 97.166,-59.017 97.217,-59.013 97.268,-59.011 97.31,-59.011 97.31,-59.011 97.381,-59.013 97.416,-59.016 97.464,-59.021 97.559,-59.036 97.559,-59.036 M99.03,-60.341 C99.03,-60.341 98.918,-60.382 98.864,-60.405 98.807,-60.429 98.751,-60.456 98.696,-60.483 98.64,-60.512 98.584,-60.542 98.53,-60.573 98.479,-60.602 98.381,-60.665 98.381,-60.665 98.388,-60.66 98.276,-60.735 98.223,-60.775 98.168,-60.815 98.114,-60.857 98.061,-60.9 98.008,-60.944 97.956,-60.989 97.905,-61.035 97.853,-61.082 97.803,-61.13 97.754,-61.18 97.611,-61.322 97.465,-61.49 97.331,-61.666 97.199,-61.839 97.078,-62.019 96.972,-62.203 96.937,-62.264 96.903,-62.325 96.87,-62.388 96.838,-62.449 96.807,-62.511 96.778,-62.574 96.75,-62.635 96.697,-62.76 96.699,-62.754 96.699,-62.754 96.657,-62.862 96.637,-62.916 96.616,-62.976 96.596,-63.037 96.577,-63.098 96.559,-63.157 96.543,-63.217 96.528,-63.277 96.514,-63.334 96.49,-63.451 96.49,-63.451 M101.63,-61.491 L101.56,-61.504 M101.58,-61.499 C101.52,-61.512 101.47,-61.527 101.41,-61.543 101.36,-61.56 101.3,-61.579 101.25,-61.6 101.2,-61.617 101.11,-61.655 101.11,-61.655 101.12,-61.655 101,-61.708 100.95,-61.737 100.89,-61.767 100.84,-61.799 100.78,-61.832 100.73,-61.865 100.67,-61.901 100.62,-61.938 100.57,-61.973 100.46,-62.048 100.47,-62.041 100.47,-62.041 100.36,-62.126 100.31,-62.171 100.26,-62.216 100.21,-62.263 100.15,-62.311 100.1,-62.36 100.05,-62.41 100,-62.461 99.952,-62.512 99.903,-62.564 99.855,-62.618 99.807,-62.671 99.76,-62.726 99.715,-62.782 99.624,-62.894 99.538,-63.009 99.458,-63.128 99.419,-63.187 99.38,-63.247 99.343,-63.308 99.306,-63.368 99.271,-63.429 99.237,-63.491 99.203,-63.553 99.138,-63.681 99.141,-63.675 99.141,-63.675 99.086,-63.789 99.061,-63.847 99.034,-63.908 99.008,-63.97 98.983,-64.033 98.959,-64.094 98.937,-64.155 98.916,-64.217 98.896,-64.277 98.877,-64.338 98.859,-64.399 98.857,-64.406 98.854,-64.42 98.854,-64.42 M94.27,-63.078 L94.245,-63.052 94.335,-63.062 M94.464,-63.012 C94.464,-63.012 94.389,-63.037 94.351,-63.047 94.335,-63.051 94.302,-63.056 94.302,-63.056 94.296,-63.057 94.285,-63.057 94.275,-63.066 94.267,-63.063 94.258,-63.059 94.249,-63.056 M94.485,-62.997 L94.507,-62.986 94.407,-63.03 M94.291,-63.088 L94.251,-63.057 94.198,-62.953 M94.29,-63.115 L94.238,-63.041 M94.313,-63.093 L94.249,-63.055 94.303,-63.067 M94.157,-62.748 C94.157,-62.748 94.154,-62.649 94.155,-62.599 94.156,-62.546 94.159,-62.494 94.163,-62.442 94.167,-62.399 94.178,-62.313 94.178,-62.313 M94.168,-62.829 L94.156,-62.692 M97.812,-59.129 L97.824,-59.136 M97.527,-59.032 C97.566,-59.041 97.605,-59.05 97.644,-59.06 97.637,-59.058 97.696,-59.077 97.724,-59.088 97.759,-59.102 97.826,-59.135 97.826,-59.135 M100.11,-60.357 L100.12,-60.371 M96.558,-64.286 L96.554,-64.284 M96.703,-64.258 L96.612,-64.278 96.557,-64.288 96.61,-64.338 M96.758,-64.235 L96.667,-64.266 96.575,-64.282 96.542,-64.274 96.511,-64.203 M96.454,-63.833 C96.456,-63.88 96.458,-63.928 96.461,-63.975 96.46,-63.964 96.467,-64.024 96.472,-64.054 96.479,-64.096 96.499,-64.18 96.499,-64.18 M96.52,-64.233 L96.49,-64.136 M96.586,-64.325 L96.555,-64.285 96.6,-64.307 M96.53,-64.247 C96.53,-64.247 96.551,-64.286 96.564,-64.304 M96.452,-63.887 C96.452,-63.887 96.453,-63.784 96.456,-63.733 96.46,-63.679 96.465,-63.626 96.472,-63.572 96.477,-63.526 96.493,-63.435 96.493,-63.435 M99.569,-60.239 C99.569,-60.239 99.646,-60.239 99.684,-60.241 99.733,-60.244 99.782,-60.249 99.83,-60.256 M100.32,-63.433 C100.32,-63.433 100.25,-63.396 100.21,-63.378 100.14,-63.345 100.08,-63.32 100.05,-63.309 100.02,-63.3 100.01,-63.299 100.01,-63.304 100,-63.307 100.01,-63.312 100.01,-63.319 100.02,-63.326 100.02,-63.334 100.03,-63.341 100.04,-63.348 100.05,-63.355 100.06,-63.362 100.13,-63.42 100.27,-63.536 100.27,-63.536 M100.26,-63.556 C100.26,-63.556 100.09,-63.428 100.03,-63.341 M100.1,-63.702 C100.1,-63.702 99.981,-63.557 99.924,-63.484 99.921,-63.48 99.918,-63.475 99.917,-63.47 99.906,-63.431 100.01,-63.455 100.19,-63.534 M100.33,-63.421 L100.19,-63.242 M100.29,-63.367 L100.26,-63.405 M100.19,-63.526 L100.19,-63.534 M100.24,-63.593 L100.14,-63.443 M100.05,-63.639 C100.05,-63.639 100.02,-63.631 100.01,-63.627 99.993,-63.622 99.978,-63.618 99.962,-63.614 99.948,-63.611 99.935,-63.608 99.921,-63.606 99.872,-63.598 99.842,-63.601 99.834,-63.616 99.806,-63.668 99.78,-63.721 99.755,-63.774 99.745,-63.794 99.758,-63.817 99.769,-63.833 99.776,-63.842 99.783,-63.851 99.791,-63.859 99.794,-63.864 99.803,-63.872 99.803,-63.872 M99.756,-63.899 C99.756,-63.899 99.748,-63.899 99.744,-63.9 99.735,-63.901 99.725,-63.904 99.715,-63.907 99.708,-63.91 99.701,-63.913 99.694,-63.918 99.689,-63.922 99.684,-63.927 99.681,-63.933 99.679,-63.936 99.678,-63.944 99.678,-63.944 M92.932,-63.961 C92.932,-63.961 92.923,-63.961 92.919,-63.961 92.896,-63.96 92.872,-63.96 92.848,-63.958 92.819,-63.955 92.777,-63.95 92.736,-63.944 92.695,-63.938 92.66,-63.932 92.641,-63.928 92.505,-63.898 92.373,-63.859 92.247,-63.8 91.994,-63.679 91.781,-63.52 91.642,-63.348 91.209,-62.865 91.025,-62.069 91.133,-61.147 91.241,-60.224 91.632,-59.254 92.214,-58.463 92.218,-58.457 92.222,-58.452 92.226,-58.446 92.258,-58.404 92.29,-58.362 92.323,-58.321 92.339,-58.29 92.412,-58.199 92.511,-58.084 92.609,-57.969 92.718,-57.848 92.793,-57.771 93.005,-57.553 93.232,-57.355 93.459,-57.189 93.885,-56.877 94.352,-56.647 94.798,-56.531 95.307,-56.398 95.833,-56.399 96.333,-56.562 96.537,-56.629 96.754,-56.741 96.943,-56.878 97.061,-56.963 97.167,-57.062 97.268,-57.167 97.304,-57.204 97.337,-57.244 97.371,-57.284 97.383,-57.298 97.395,-57.313 97.407,-57.327 97.431,-57.358 97.476,-57.419 97.476,-57.419 M92.68,-61.503 C92.68,-61.503 92.688,-61.408 92.693,-61.361 92.699,-61.313 92.706,-61.265 92.714,-61.217 92.722,-61.168 92.732,-61.118 92.742,-61.069 92.752,-61.019 92.764,-60.969 92.777,-60.92 92.79,-60.869 92.804,-60.819 92.819,-60.769 92.88,-60.561 92.986,-60.3 93.1,-60.073 93.219,-59.836 93.36,-59.606 93.518,-59.388 93.598,-59.28 93.681,-59.174 93.767,-59.075 93.797,-59.041 93.828,-59.006 93.858,-58.973 93.888,-58.94 93.918,-58.908 93.949,-58.876 93.979,-58.845 94.041,-58.785 94.041,-58.785 94.037,-58.789 94.09,-58.739 94.117,-58.714 94.147,-58.687 94.179,-58.659 94.21,-58.633 94.241,-58.606 94.273,-58.581 94.305,-58.555 94.369,-58.505 94.434,-58.458 94.499,-58.414 94.531,-58.392 94.564,-58.37 94.597,-58.35 94.629,-58.329 94.696,-58.29 94.696,-58.29 94.689,-58.295 94.736,-58.268 94.76,-58.256 94.792,-58.239 94.825,-58.222 94.858,-58.207 94.89,-58.192 94.923,-58.177 94.956,-58.163 94.988,-58.15 95.054,-58.125 95.053,-58.125 95.053,-58.125 95.088,-58.113 95.106,-58.107 95.138,-58.097 95.169,-58.088 95.201,-58.079 95.221,-58.074 95.259,-58.065 95.259,-58.065 M92.679,-61.655 C92.679,-61.655 92.677,-61.606 92.678,-61.582 92.679,-61.545 92.683,-61.472 92.683,-61.472 M97.289,-59.012 L97.679,-59.22 M99.005,-60.35 C99.005,-60.35 99.104,-60.317 99.155,-60.304 99.208,-60.289 99.317,-60.266 99.317,-60.266 99.307,-60.268 99.388,-60.254 99.43,-60.249 99.481,-60.244 99.585,-60.238 99.593,-60.24 99.723,-60.309 99.852,-60.377 99.981,-60.446 M96.478,-64.084 L97.207,-64.472 M94.905,-63.245 C94.905,-63.245 94.767,-63.174 94.7,-63.136 94.555,-63.053 94.434,-62.928 94.343,-62.767 94.304,-62.698 94.271,-62.623 94.243,-62.542 94.234,-62.515 94.225,-62.487 94.217,-62.459 94.209,-62.431 94.202,-62.402 94.196,-62.373 94.19,-62.348 94.181,-62.298 94.181,-62.298"/>
      <path stroke="#000" d="M100.22,-63.631 C100.22,-63.631 100.26,-63.543 100.29,-63.499 100.32,-63.437 100.35,-63.376 100.38,-63.316 100.42,-63.256 100.45,-63.196 100.48,-63.136 100.52,-63.077 100.55,-63.018 100.59,-62.96 100.7,-62.785 100.82,-62.617 100.94,-62.456 101.23,-62.079 101.54,-61.748 101.88,-61.475 102.26,-61.164 102.65,-60.936 103.04,-60.804 103.28,-60.722 103.52,-60.678 103.74,-60.673 103.88,-60.67 104.01,-60.682 104.13,-60.707 104.21,-60.724 104.3,-60.747 104.37,-60.776 104.41,-60.791 104.45,-60.807 104.49,-60.825 104.49,-60.827 104.5,-60.832 104.5,-60.832 M105.1,-70.692 C105.1,-70.692 105.02,-70.678 104.98,-70.668 104.91,-70.651 104.85,-70.63 104.79,-70.605 104.73,-70.581 104.67,-70.552 104.61,-70.519 104.26,-70.324 103.99,-69.993 103.82,-69.554 103.19,-69.916 102.57,-70.276 101.94,-70.638 100.7,-69.977 99.465,-69.32 98.224,-68.659 98.182,-67.389 98.14,-66.126 98.099,-64.856 99.01,-64.33 99.916,-63.807 100.83,-63.281 101.94,-61.406 103.68,-60.402 104.87,-60.948 106.11,-61.609 107.34,-62.266 108.58,-62.927 M111.22,-65.28 L111.44,-65.155 111.31,-61.352 107.6,-59.373 104.87,-60.948 M103.33,-69.837 L104.61,-70.519 M105.26,-68.78 C105.26,-68.78 105.24,-68.756 105.23,-68.743 105.21,-68.724 105.19,-68.705 105.18,-68.684 105.16,-68.664 105.15,-68.642 105.13,-68.621 105.1,-68.577 105.08,-68.53 105.05,-68.48 104.99,-68.355 104.95,-68.213 104.92,-68.058 104.88,-67.809 104.88,-67.529 104.93,-67.233 104.97,-66.974 105.04,-66.708 105.15,-66.446 105.21,-66.297 105.28,-66.149 105.36,-66.006 105.4,-65.935 105.44,-65.865 105.48,-65.796 105.5,-65.762 105.53,-65.728 105.55,-65.695 105.56,-65.684 105.57,-65.664 105.57,-65.664 M105.97,-65.169 C105.97,-65.169 105.99,-65.154 105.99,-65.146 106.02,-65.119 106.05,-65.093 106.07,-65.067 106.13,-65.015 106.18,-64.967 106.24,-64.921 106.32,-64.852 106.41,-64.79 106.5,-64.735 106.61,-64.662 106.73,-64.602 106.84,-64.557 106.9,-64.534 106.95,-64.514 107.01,-64.498 107.04,-64.491 107.07,-64.484 107.1,-64.477 107.12,-64.472 107.15,-64.466 107.18,-64.462 107.19,-64.461 107.2,-64.459 107.2,-64.459 M113.81,-71.267 C113.89,-71.223 113.96,-71.178 114.04,-71.134 114.56,-70.826 114.81,-70.117 114.71,-69.213 114.61,-68.31 114.18,-67.314 113.54,-66.516 111.82,-65.599 110.11,-64.689 108.39,-63.773 107.45,-64.318 106.51,-64.86 105.56,-65.406 105.59,-66.341 105.62,-67.27 105.65,-68.205 M114.72,-69.761 L114.95,-69.632 M94.239,-58.877 L94.261,-58.888 M114.72,-69.77 C114.72,-69.77 114.74,-69.768 114.74,-69.767 114.76,-69.762 114.78,-69.757 114.8,-69.751 114.82,-69.746 114.83,-69.739 114.85,-69.732 114.89,-69.717 114.92,-69.7 114.95,-69.68 115.47,-69.352 115.48,-68.362 114.96,-67.43 114.75,-67.055 114.48,-66.727 114.18,-66.494 113.99,-66.351 113.81,-66.247 113.63,-66.189 113.51,-66.152 113.4,-66.134 113.3,-66.134 113.24,-66.134 113.18,-66.141 113.12,-66.154 113.1,-66.158 113.08,-66.163 113.06,-66.169 113.05,-66.175 113.03,-66.182 113.01,-66.189 112.99,-66.195 112.97,-66.21 112.96,-66.209 113.01,-66.181 113.06,-66.153 113.11,-66.124 113.65,-65.784 114.55,-66.279 115.11,-67.228 115.38,-67.684 115.54,-68.187 115.55,-68.624 115.56,-69.062 115.41,-69.4 115.16,-69.563 115.09,-69.602 115.02,-69.641 114.95,-69.68 M105.94,-70.972 C106.01,-70.706 106.14,-70.476 106.34,-70.291 106.4,-70.238 106.47,-70.192 106.53,-70.152 106.67,-70.074 106.94,-69.919 106.94,-69.919 107.18,-69.786 107.5,-69.823 107.84,-70.022 108.18,-70.221 108.5,-70.566 108.74,-70.981 108.97,-71.396 109.11,-71.847 109.1,-72.235 109.1,-72.622 108.96,-72.915 108.72,-73.048 108.72,-73.048 108.45,-73.205 108.31,-73.282 108.29,-73.296 108.25,-73.316 108.2,-73.335 108.16,-73.354 108.12,-73.37 108.1,-73.377 107.83,-73.456 107.57,-73.445 107.3,-73.365 106.89,-73.239 106.47,-72.877 106.2,-72.404 105.93,-71.933 105.84,-71.392 105.94,-70.972 Z M106.64,-72.608 L107.21,-72.791 107.39,-72.25 106.99,-71.526 106.42,-71.343 106.25,-71.884 106.64,-72.608 M83.002,-122.72 C83.34,-122.52 83.675,-122.33 84.013,-122.13 84.088,-122.09 84.191,-122.1 84.298,-122.16 85.653,-122.94 87.011,-123.73 88.366,-124.51 88.434,-124.55 88.497,-124.62 88.535,-124.71 89.103,-126.04 89.674,-127.38 90.243,-128.71 91.113,-131.04 90.847,-133.16 89.586,-133.92 88.93,-134.3 88.31,-134.78 87.527,-134.8 86.878,-134.82 86.15,-134.58 85.418,-134.12 85.349,-134.07 85.261,-134.04 85.175,-134.03 85.089,-134.02 85.012,-134.03 84.961,-134.06 83.784,-134.74 81.428,-136.1 81.428,-136.1 M86.906,-130.48 C87.225,-130.3 87.736,-130.61 88.049,-131.15 88.362,-131.7 88.358,-132.29 88.039,-132.47 87.721,-132.65 87.209,-132.34 86.896,-131.8 86.583,-131.25 86.588,-130.66 86.906,-130.48 Z M88.245,-131.65 C88.245,-131.65 88.243,-131.64 88.242,-131.64 88.216,-131.62 88.191,-131.59 88.167,-131.57 88.143,-131.54 88.119,-131.52 88.096,-131.49 88.073,-131.46 88.05,-131.43 88.028,-131.4 88.006,-131.37 87.985,-131.34 87.965,-131.31 87.945,-131.28 87.925,-131.25 87.907,-131.21 87.87,-131.15 87.836,-131.08 87.807,-131.01 87.793,-130.98 87.779,-130.95 87.767,-130.91 87.755,-130.88 87.744,-130.84 87.734,-130.81 87.725,-130.78 87.711,-130.72 87.711,-130.72 M80.887,-133.93 C80.907,-133.98 80.927,-134.02 80.947,-134.07 81.808,-136.38 81.558,-138.48 80.327,-139.27 79.977,-139.47 79.63,-139.67 79.28,-139.87 M77.59,-135.89 C77.908,-135.71 78.42,-136.01 78.733,-136.56 79.046,-137.11 79.041,-137.7 78.723,-137.87 78.57,-137.96 78.364,-137.94 78.149,-137.81 77.935,-137.68 77.73,-137.47 77.58,-137.2 77.267,-136.65 77.271,-136.07 77.59,-135.89 Z M78.928,-137.05 C78.928,-137.05 78.926,-137.05 78.925,-137.05 78.9,-137.02 78.875,-137 78.851,-136.97 78.826,-136.95 78.803,-136.92 78.78,-136.89 78.756,-136.86 78.734,-136.84 78.712,-136.81 78.668,-136.75 78.628,-136.68 78.59,-136.62 78.553,-136.55 78.52,-136.49 78.491,-136.42 78.477,-136.39 78.463,-136.35 78.451,-136.32 78.439,-136.28 78.427,-136.25 78.417,-136.21 78.409,-136.19 78.395,-136.13 78.395,-136.13 M79.846,-134.44 C79.876,-134.51 79.906,-134.58 79.937,-134.66 80.807,-136.99 80.541,-139.11 79.28,-139.87 78.629,-140.27 77.769,-140.27 76.843,-139.87 76.489,-139.71 76.023,-139.43 75.617,-139.13 75.211,-138.82 74.925,-138.54 74.864,-138.38 74.068,-136.52 73.277,-134.67 72.481,-132.8 M80.397,-125.35 C80.397,-125.35 81.011,-124.99 81.318,-124.81 81.839,-124.51 82.884,-123.91 82.884,-123.91 M69.429,-122.02 C69.429,-122.02 69.382,-122.19 69.382,-122.27 69.382,-122.43 69.411,-122.59 69.457,-122.75 69.508,-122.92 69.582,-123.09 69.672,-123.24 69.761,-123.4 69.869,-123.55 69.993,-123.68 70.104,-123.8 70.231,-123.9 70.372,-123.98 70.444,-124.03 70.608,-124.07 70.608,-124.07 M92.28,-125.35 C92.28,-125.35 92.688,-125.98 92.883,-126.3 92.883,-126.54 92.883,-126.77 92.883,-127 92.445,-127.26 92.011,-127.51 91.573,-127.76 90.804,-127.32 90.039,-126.87 89.27,-126.43 M67.125,-117.67 C67.125,-117.67 67.145,-117.66 67.155,-117.66 67.362,-117.61 67.572,-117.57 67.783,-117.55 68.214,-117.5 68.657,-117.5 69.088,-117.55 69.739,-117.62 70.31,-117.8 70.801,-118.07 72.086,-118.8 73.369,-119.54 74.641,-120.29 75.055,-120.54 75.054,-120.58 75.366,-120.92 75.385,-120.94 75.409,-120.96 75.423,-120.98 75.493,-121.1 75.558,-121.22 75.617,-121.35 75.63,-121.38 75.633,-121.41 75.638,-121.44 75.662,-121.56 75.685,-121.69 75.704,-121.82 75.707,-121.84 75.704,-121.85 75.704,-121.87 75.704,-122 75.681,-122.13 75.638,-122.26 75.608,-122.34 75.507,-122.51 75.507,-122.51 M68.906,-118.69 C68.906,-118.69 68.92,-118.69 68.926,-118.69 69.085,-118.71 69.243,-118.74 69.398,-118.78 69.703,-118.85 69.98,-118.96 70.214,-119.09 71.492,-119.83 72.775,-120.57 74.053,-121.31 74.163,-121.37 74.27,-121.45 74.366,-121.53 74.452,-121.6 74.532,-121.69 74.598,-121.78 74.638,-121.84 74.694,-121.96 74.694,-121.96 M81.769,-117.6 C81.769,-117.6 81.605,-117.56 81.533,-117.52 81.392,-117.44 81.265,-117.33 81.154,-117.21 81.03,-117.08 80.922,-116.93 80.832,-116.78 80.743,-116.62 80.669,-116.46 80.618,-116.28 80.572,-116.13 80.542,-115.96 80.542,-115.8 80.542,-115.72 80.589,-115.56 80.589,-115.56 M82.572,-113.4 C82.572,-113.4 81.966,-112.79 81.657,-112.5 80.96,-111.63 80.422,-110.89 80.074,-110.32 79.87,-110.13 79.668,-109.95 79.464,-109.77 M15,-104.11 L53.696,-126.45 M15,-73.313 C15.277,-73.403 15.553,-73.494 15.829,-73.585 17.375,-74.097 18.917,-74.637 20.444,-75.204 22.066,-75.805 24.118,-76.62 25.954,-77.39 27.789,-78.161 29.183,-78.793 29.695,-79.088 45.354,-88.129 60.92,-97.116 76.58,-106.16 76.709,-106.23 77.061,-106.61 77.525,-107.17 77.989,-107.72 78.507,-108.39 78.917,-108.96 79.32,-109.53 79.708,-110.1 80.082,-110.68 80.497,-111.32 80.898,-111.98 81.286,-112.64 81.299,-112.66 81.325,-112.68 81.361,-112.7 84.83,-114.71 88.308,-116.71 91.777,-118.72 91.934,-118.9 92.241,-120.47 92.28,-120.78 92.28,-122.74 92.28,-124.69 92.28,-126.65 92.482,-126.54 92.682,-126.42 92.883,-126.3 M15,-87.566 C36.678,-100.08 58.226,-112.53 79.903,-125.04 80.641,-125.37 81.143,-126.14 81.267,-127.14 81.267,-129.34 81.267,-131.52 81.267,-133.71 80.83,-133.96 80.395,-134.21 79.958,-134.47 67.627,-131.98 58.034,-129.05 53.696,-126.45 52.82,-125.93 52.108,-125.42 51.631,-124.98 M57.315,-147.38 C57.458,-146.82 57.838,-146.61 58.315,-146.33 58.557,-146.2 58.883,-146.24 59.221,-146.44 59.558,-146.64 59.88,-146.99 60.115,-147.4 60.604,-148.27 60.592,-149.19 60.087,-149.46 59.642,-149.72 59.248,-149.95 58.725,-149.79 58.253,-149.65 57.853,-149.31 57.572,-148.81 57.305,-148.34 57.208,-147.8 57.315,-147.38 Z M57.859,-148.84 L58.441,-149.23 58.772,-148.87 58.522,-148.12 57.941,-147.73 57.609,-148.09 57.859,-148.84 M69.712,-143.12 L60.464,-148.46 M69.654,-143.14 C69.674,-143.13 69.693,-143.13 69.712,-143.12 69.862,-143.03 69.948,-142.85 69.951,-142.61 69.955,-142.38 69.875,-142.1 69.729,-141.84 69.584,-141.58 69.384,-141.37 69.175,-141.24 68.966,-141.12 68.765,-141.09 68.615,-141.18 65.521,-142.96 62.445,-144.74 59.351,-146.52 M99.21,-122.65 C99.677,-122.38 100.07,-122.14 100.62,-122.3 101.05,-122.43 101.45,-122.77 101.73,-123.24 102.01,-123.71 102.11,-124.24 102.02,-124.67 101.9,-125.24 101.52,-125.47 101.04,-125.75 M97.441,-124.79 C98.197,-124.35 98.948,-123.92 99.704,-123.48 99.812,-123.42 99.96,-123.43 100.12,-123.51 100.27,-123.6 100.42,-123.75 100.53,-123.94 100.77,-124.34 100.77,-124.77 100.55,-124.91 99.792,-125.35 99.04,-125.78 98.284,-126.22 M135.48,-91.445 C135.64,-91.002 136,-90.814 136.39,-90.589 136.65,-90.422 137.03,-90.472 137.41,-90.724 137.79,-90.976 138.13,-91.404 138.35,-91.89 138.57,-92.377 138.64,-92.871 138.54,-93.236 138.48,-93.436 138.37,-93.597 138.23,-93.682 138.06,-93.788 137.83,-93.944 137.61,-94.016 136.82,-94.283 135.95,-93.743 135.53,-92.726 135.36,-92.3 135.34,-91.84 135.48,-91.445 Z M97.531,-108.89 C97.338,-108.99 97.08,-108.96 96.812,-108.8 96.544,-108.64 96.288,-108.37 96.102,-108.04 95.915,-107.71 95.813,-107.35 95.817,-107.04 95.821,-106.74 95.931,-106.51 96.124,-106.4 96.316,-106.3 96.575,-106.33 96.843,-106.49 97.111,-106.65 97.366,-106.92 97.553,-107.25 97.739,-107.58 97.842,-107.94 97.838,-108.25 97.833,-108.55 97.723,-108.78 97.531,-108.89 Z M96.898,-105.16 C97.033,-105.08 97.167,-105.01 97.302,-104.93 97.895,-104.61 98.841,-105.17 99.416,-106.19 99.991,-107.2 99.977,-108.29 99.384,-108.61 99.249,-108.69 99.115,-108.77 98.98,-108.84 M96.247,-107.96 C95.936,-107.41 95.944,-106.82 96.265,-106.65 96.418,-106.57 96.625,-106.59 96.84,-106.72 97.054,-106.85 97.258,-107.07 97.407,-107.33 97.718,-107.88 97.71,-108.47 97.39,-108.64 97.07,-108.81 96.558,-108.51 96.247,-107.96 Z M51.949,-133.59 C51.626,-133.04 51.614,-132.45 51.922,-132.25 52.23,-132.06 52.742,-132.34 53.065,-132.88 53.388,-133.42 53.4,-134.02 53.092,-134.21 52.944,-134.31 52.74,-134.29 52.526,-134.18 52.312,-134.06 52.104,-133.85 51.949,-133.59 Z M51.425,-131.42 C51.56,-131.34 51.694,-131.26 51.829,-131.18 52.4,-130.82 53.346,-131.34 53.944,-132.35 54.23,-132.83 54.397,-133.36 54.406,-133.82 54.415,-134.29 54.267,-134.64 53.993,-134.82 53.858,-134.89 53.724,-134.97 53.589,-135.05 M52.976,-131.31 C52.976,-131.31 53.188,-131.19 53.292,-131.13 53.327,-131.11 53.363,-131.09 53.402,-131.08 53.546,-131.03 53.718,-131.05 53.9,-131.13 54.166,-131.25 54.434,-131.49 54.645,-131.8 54.87,-132.13 55.01,-132.51 55.03,-132.86 55.051,-133.2 54.951,-133.46 54.754,-133.59 54.637,-133.65 54.521,-133.72 54.405,-133.79 M31.457,-143.82 C31.578,-143.25 31.955,-143.02 32.433,-142.74 32.666,-142.6 32.986,-142.62 33.324,-142.8 33.661,-142.99 33.988,-143.32 34.232,-143.74 34.741,-144.59 34.76,-145.53 34.275,-145.84 33.809,-146.11 33.414,-146.35 32.868,-146.19 32.432,-146.06 32.031,-145.72 31.752,-145.25 31.475,-144.79 31.365,-144.25 31.457,-143.82 Z M36.851,-141.32 C36.863,-141.31 36.877,-141.3 36.89,-141.29 37.062,-141.2 37.375,-141.32 37.592,-141.56 37.771,-141.76 37.885,-142.03 37.88,-142.25 37.88,-142.29 37.88,-142.33 37.88,-142.37 M32.039,-145.27 L32.622,-145.63 32.926,-145.23 32.648,-144.48 32.065,-144.12 31.76,-144.52 32.039,-145.27 M37.309,-141.35 C37.633,-141.54 37.888,-142 37.88,-142.37 37.876,-142.55 37.81,-142.68 37.698,-142.74 36.652,-143.34 35.612,-143.94 34.567,-144.55 M36.89,-141.29 L33.738,-143.11 M111.51,-97.089 C111.98,-96.82 112.37,-96.579 112.92,-96.741 113.35,-96.87 113.75,-97.205 114.03,-97.673 114.31,-98.139 114.42,-98.674 114.33,-99.108 114.21,-99.674 113.83,-99.906 113.35,-100.18 M108.89,-101.63 C110.21,-100.87 111.52,-100.12 112.84,-99.359 113.07,-99.237 113.08,-98.814 112.86,-98.415 112.63,-98.015 112.26,-97.79 112.03,-97.912 110.71,-98.672 109.4,-99.427 108.09,-100.19 M165.49,-116.37 C165.42,-116.26 165.34,-116.15 165.27,-116.05 165.24,-116.04 165.15,-116.07 165,-116.15 163.66,-116.92 162.33,-117.69 160.99,-118.46 157.68,-120.51 153.9,-123.96 151.53,-125.84 151.49,-125.86 151.46,-125.89 151.43,-125.92 151.19,-126.06 150.96,-126.19 150.72,-126.33 150.68,-126.36 150.66,-126.42 150.67,-126.5 150.68,-126.58 150.72,-126.67 150.78,-126.74 151.09,-127.1 151.41,-127.46 151.72,-127.82 151.8,-127.91 151.89,-127.95 151.95,-127.92 151.98,-127.9 152.01,-127.86 152.01,-127.81 152.06,-127.46 152.11,-127.11 152.15,-126.75 153.46,-125.57 154.76,-124.39 156.06,-123.21 157.65,-121.77 159.51,-119.73 161.54,-118.56 162.67,-117.9 163.8,-117.25 164.92,-116.6 165.24,-116.42 165.45,-116.33 165.49,-116.37 165.51,-116.39 165.47,-116.45 165.37,-116.55 164.36,-117.56 163.35,-118.57 162.35,-119.58 161.34,-120.59 160.33,-121.6 159.33,-122.61 156.93,-123.99 154.55,-125.37 152.15,-126.75 151.94,-126.44 151.74,-126.14 151.53,-125.84 M152.15,-126.75 L152.15,-126.75 152.15,-126.75 M151.53,-125.84 L152.15,-126.75 M165.05,-116.74 C165.04,-116.72 165.03,-116.71 165.02,-116.69 165,-116.67 164.87,-116.72 164.68,-116.83 163.55,-117.48 162.42,-118.14 161.3,-118.79 160.98,-118.97 160.57,-119.26 160.35,-119.46 157.83,-121.74 155.3,-124.03 152.78,-126.31 152.79,-126.33 152.8,-126.35 152.81,-126.36 154.92,-125.14 157.02,-123.93 159.12,-122.72 161.07,-120.76 163.03,-118.8 164.98,-116.85 165.04,-116.79 165.06,-116.75 165.05,-116.74 165.03,-116.72 164.9,-116.77 164.71,-116.88 163.59,-117.53 162.46,-118.18 161.33,-118.83 161.01,-119.02 160.6,-119.31 160.39,-119.5 157.86,-121.79 155.33,-124.08 152.81,-126.36"/>
      <path stroke="#000" d="M159.33,-122.61 L159.33,-122.61 M161.54,-118.55 C161.43,-118.62 161.25,-118.59 160.99,-118.46 M165,-116.15 C165.06,-116.39 165.03,-116.54 164.92,-116.6 M109.88,-82.859 C109.62,-83.015 109.27,-82.986 108.9,-82.777 108.53,-82.569 108.17,-82.198 107.91,-81.747 107.64,-81.296 107.49,-80.801 107.49,-80.372 107.49,-79.942 107.63,-79.613 107.89,-79.457 108.42,-79.132 109.31,-79.63 109.86,-80.569 110.12,-81.02 110.27,-81.515 110.28,-81.944 110.28,-82.374 110.14,-82.703 109.88,-82.859 Z M108.32,-81.499 C108,-80.955 107.99,-80.36 108.31,-80.172 108.62,-79.983 109.13,-80.272 109.45,-80.817 109.6,-81.078 109.69,-81.365 109.69,-81.614 109.69,-81.863 109.61,-82.054 109.46,-82.144 109.15,-82.333 108.64,-82.044 108.32,-81.499 Z M123.47,-69.479 C123.47,-69.479 122.57,-69.187 122.12,-69.04 121.93,-68.977 121.75,-68.893 121.6,-68.793 119.43,-67.342 117.26,-65.888 115.09,-64.438 114.19,-63.839 113.31,-63.712 112.68,-64.089 112.45,-64.229 112.26,-64.434 112.12,-64.697 112.02,-64.871 111.95,-65.07 111.9,-65.29 111.87,-65.396 111.84,-65.611 111.84,-65.611 M114.87,-72.729 C114.87,-72.726 114.86,-72.722 114.85,-72.719 M107.45,-80.707 C107.45,-80.713 107.45,-80.722 107.45,-80.726 M108.75,-67.886 L108.14,-68.236 M145.89,-82.933 C145.89,-82.933 146.17,-83.121 146.32,-83.214 146.42,-83.282 146.52,-83.355 146.62,-83.431 146.67,-83.467 146.76,-83.544 146.76,-83.544 M143.76,-125.83 C143.59,-125.74 143.44,-125.54 143.36,-125.33 143.28,-125.11 143.3,-124.92 143.4,-124.82 143.46,-124.75 143.56,-124.74 143.67,-124.78 144.11,-124.94 144.55,-125.08 145,-125.21 145.43,-125.33 145.87,-125.45 146.31,-125.54 146.74,-125.64 147.17,-125.72 147.61,-125.78 148.03,-125.85 148.45,-125.89 148.87,-125.93 148.99,-125.93 149.13,-126 149.26,-126.11 149.3,-126.15 149.34,-126.19 149.38,-126.23 150.53,-127.55 151.68,-128.87 152.82,-130.19 152.92,-130.29 152.98,-130.43 152.99,-130.56 153,-130.68 152.96,-130.78 152.88,-130.81 152.83,-130.83 152.76,-130.82 152.7,-130.78 149.72,-129.13 146.73,-127.48 143.76,-125.83 Z M151.27,-126.01 C151.27,-126.01 151.31,-125.97 151.32,-125.94 151.33,-125.91 151.34,-125.87 151.33,-125.83 151.32,-125.75 151.28,-125.66 151.22,-125.59 151.08,-125.43 150.94,-125.27 150.8,-125.11 150.74,-125.04 150.67,-125 150.61,-125.01 149.9,-125.05 149.17,-125.04 148.43,-124.98 147.31,-124.88 146.16,-124.67 144.99,-124.34 142.63,-123.68 140.2,-122.56 137.77,-121.01 135.74,-119.72 133.74,-118.15 131.81,-116.34 131.69,-116.23 131.6,-116.06 131.58,-115.9 131.57,-115.85 131.57,-115.81 131.58,-115.75 131.59,-115.69 131.59,-115.61 131.58,-115.55 131.55,-115.32 131.43,-115.06 131.25,-114.89 130.85,-114.49 130.45,-114.09 130.06,-113.68 129.28,-112.85 128.51,-111.99 127.77,-111.08 124.79,-107.47 122.2,-103.35 120.19,-99.016 119.19,-96.856 118.34,-94.663 117.66,-92.474 117.49,-91.932 117.33,-91.385 117.18,-90.838 117.1,-90.56 116.91,-90.293 116.69,-90.173 115.22,-89.361 113.75,-88.546 112.28,-87.734 M129.33,-113.71 C129.75,-114.17 130.24,-114.58 130.5,-115.16 130.78,-115.8 130.75,-116.42 130.42,-116.66 129.67,-117.19 128.39,-115.48 128.18,-115.28 127.82,-114.91 127.45,-114.53 127.1,-114.15 126.39,-113.39 125.68,-112.59 125,-111.77 124.66,-111.36 124.32,-110.94 123.99,-110.52 123.65,-110.1 123.32,-109.67 123,-109.23 122.68,-108.8 122.36,-108.36 122.05,-107.91 121.73,-107.46 121.42,-107.01 121.12,-106.56 120.99,-106.36 120.97,-106.14 121.07,-106.04 121.12,-105.98 121.21,-105.98 121.31,-106.03 121.83,-106.32 122.36,-106.61 122.89,-106.91 123.41,-107.2 123.94,-107.49 124.46,-107.78 124.86,-108 125.24,-108.7 125.44,-108.97 125.85,-109.53 126.27,-110.08 126.69,-110.62 127.54,-111.69 128.43,-112.73 129.33,-113.71 Z M116.38,-98 C116.3,-97.824 116.3,-97.651 116.4,-97.587 116.45,-97.549 116.53,-97.553 116.61,-97.598 117.57,-98.131 118.54,-98.666 119.5,-99.199 119.64,-99.272 119.76,-99.413 119.84,-99.579 120.08,-100.08 120.33,-100.59 120.58,-101.09 121.09,-102.09 121.64,-103.07 122.21,-104.04 122.49,-104.53 122.78,-105.01 123.08,-105.49 123.2,-105.67 123.21,-105.88 123.12,-105.97 123.06,-106.02 122.98,-106.02 122.89,-105.97 121.9,-105.42 120.9,-104.87 119.9,-104.32 119.71,-104.22 119.53,-104.03 119.4,-103.8 119.12,-103.33 118.85,-102.85 118.58,-102.38 118.32,-101.9 118.06,-101.42 117.81,-100.93 117.55,-100.45 117.31,-99.963 117.07,-99.473 116.83,-98.986 116.6,-98.494 116.38,-98 Z M113.42,-89.997 C113.38,-89.871 113.39,-89.758 113.45,-89.695 113.5,-89.632 113.59,-89.627 113.69,-89.681 114.6,-90.183 115.51,-90.687 116.42,-91.189 116.58,-91.281 116.73,-91.483 116.8,-91.697 116.94,-92.171 117.09,-92.645 117.24,-93.115 117.55,-94.062 117.89,-95.009 118.26,-95.952 118.45,-96.426 118.64,-96.898 118.84,-97.366 118.92,-97.545 118.9,-97.714 118.81,-97.776 118.75,-97.813 118.68,-97.808 118.6,-97.763 117.69,-97.263 116.79,-96.762 115.88,-96.263 115.67,-96.143 115.47,-95.898 115.35,-95.62 115.17,-95.155 114.98,-94.686 114.81,-94.215 114.63,-93.749 114.46,-93.279 114.3,-92.808 114.14,-92.342 113.99,-91.872 113.84,-91.401 113.69,-90.935 113.55,-90.466 113.42,-89.997 Z M116.27,-86.258 C116.27,-86.258 116.4,-87.007 116.48,-87.379 116.59,-87.941 116.72,-88.502 116.86,-89.059 116.93,-89.352 117.1,-89.559 117.34,-89.734 116.82,-89.448 116.31,-89.164 115.79,-88.878 M112.98,-84.597 C112.98,-84.597 113,-84.709 113.01,-84.765 113.08,-85.184 113.16,-85.604 113.25,-86.022 113.34,-86.445 113.43,-86.868 113.53,-87.288 113.59,-87.529 113.73,-87.7 113.92,-87.843 L112.99,-87.326 C112.88,-86.883 112.78,-86.438 112.69,-85.993 112.6,-85.554 112.51,-85.112 112.43,-84.671 112.41,-84.553 112.37,-84.317 112.37,-84.317 M116.95,-73.209 C116.95,-73.209 117.06,-73.161 117.12,-73.15 117.23,-73.131 117.35,-73.13 117.46,-73.143 117.7,-73.171 117.95,-73.263 118.21,-73.414 118.59,-73.642 118.97,-73.995 119.29,-74.43 119.82,-75.165 120.14,-76.052 120.13,-76.799 M149.63,-88.569 C149.63,-88.569 149.14,-88.983 148.89,-89.187 148.73,-89.318 148.57,-89.447 148.41,-89.577 147.91,-89.986 147.41,-90.391 146.9,-90.791 146.72,-90.935 146.54,-91.079 146.35,-91.222 146.26,-91.294 146.17,-91.367 146.08,-91.438 145.99,-91.51 145.9,-91.582 145.8,-91.654 145.69,-91.74 145.63,-91.883 145.63,-92.05 145.64,-92.336 145.82,-92.645 146.09,-92.819 146.36,-92.989 146.62,-93.168 146.88,-93.343 147.79,-93.947 148.68,-94.577 149.54,-95.247 149.66,-95.341 149.78,-95.437 149.9,-95.533 150.14,-95.723 150.39,-95.908 150.62,-96.104 151.08,-96.491 151.54,-96.89 151.98,-97.3 152.05,-97.365 152.12,-97.434 152.18,-97.506 152.2,-97.522 152.22,-97.557 152.22,-97.557 M129.66,-64.413 C137.5,-62.063 148.52,-69.216 155.56,-81.227 162.6,-93.237 163.54,-106.48 157.77,-112.36 152.9,-117.31 143.62,-116.33 135.68,-110.03 132.71,-107.68 129.92,-104.59 127.56,-101.05 126.39,-99.284 125.33,-97.426 124.42,-95.517 123.88,-94.372 123.39,-93.213 122.95,-92.05 122.81,-91.664 122.67,-91.275 122.54,-90.886 122.41,-90.5 122.28,-90.112 122.16,-89.723 122.14,-89.642 122.09,-89.481 122.09,-89.481 M142.51,-104.78 C142.51,-104.78 140.52,-105.93 139.53,-106.5 139.5,-106.52 139.47,-106.55 139.45,-106.57 M137.23,-88.119 C137.23,-88.119 137.38,-88.157 137.46,-88.182 137.55,-88.213 137.64,-88.249 137.73,-88.29 137.82,-88.332 137.92,-88.379 138.01,-88.43 138.19,-88.535 138.38,-88.66 138.56,-88.805 138.92,-89.094 139.27,-89.456 139.58,-89.87 139.9,-90.284 140.16,-90.742 140.37,-91.217 140.48,-91.454 140.57,-91.694 140.64,-91.933 140.68,-92.05 140.71,-92.169 140.74,-92.289 140.76,-92.405 140.79,-92.522 140.81,-92.64 140.82,-92.719 140.84,-92.878 140.84,-92.878 M127.29,-88.213 L128.21,-87.682 M124.43,-86.92 C124.43,-86.92 124.35,-86.396 124.31,-86.133 124.28,-85.852 124.25,-85.569 124.22,-85.287 124.22,-85.231 124.21,-85.119 124.21,-85.119 M92.897,-63.96 C92.897,-63.96 92.818,-63.966 92.779,-63.966 92.734,-63.967 92.689,-63.967 92.644,-63.964 92.555,-63.96 92.467,-63.949 92.383,-63.932 92.213,-63.897 92.055,-63.838 91.909,-63.754 91.318,-63.413 90.969,-62.691 90.938,-61.745 90.907,-60.8 91.197,-59.709 91.743,-58.712 92.881,-56.636 94.8,-55.528 96.03,-56.237 96.103,-56.279 96.172,-56.327 96.238,-56.381 96.271,-56.408 96.303,-56.437 96.334,-56.466 96.365,-56.496 96.396,-56.527 96.424,-56.56 96.44,-56.577 96.469,-56.613 96.469,-56.613 M101.81,-66.835 L101.94,-70.638 M100.62,-68.07 C100.64,-68.464 100.38,-68.638 100.04,-68.46 99.708,-68.282 99.426,-67.818 99.413,-67.424 99.4,-67.031 99.661,-66.856 99.995,-67.034 100.16,-67.12 100.31,-67.277 100.43,-67.471 100.55,-67.665 100.62,-67.881 100.62,-68.07 Z M100.62,-68.035 C100.62,-68.035 100.62,-68.057 100.62,-68.068 100.62,-68.085 100.61,-68.102 100.61,-68.119 100.6,-68.134 100.6,-68.15 100.59,-68.165 100.57,-68.223 100.54,-68.269 100.49,-68.299 100.3,-68.426 99.981,-68.256 99.777,-67.919 99.572,-67.582 99.56,-67.205 99.749,-67.078 99.794,-67.048 99.848,-67.034 99.909,-67.037 99.939,-67.038 99.97,-67.044 100,-67.053 100.02,-67.058 100.04,-67.064 100.05,-67.071 100.06,-67.074 100.07,-67.081 100.07,-67.081 M104.54,-65.26 L100.83,-63.281 M98.099,-64.856 C99.34,-65.517 100.57,-66.174 101.81,-66.835 102.73,-66.309 103.63,-65.786 104.54,-65.26 105.65,-63.386 107.39,-62.381 108.58,-62.927 109.49,-62.401 110.4,-61.878 111.31,-61.352 M105.31,-68.687 C105.31,-68.687 105.3,-68.669 105.29,-68.66 105.28,-68.636 105.27,-68.612 105.25,-68.587 105.23,-68.538 105.21,-68.485 105.19,-68.43 105.15,-68.32 105.12,-68.199 105.11,-68.071 105.08,-67.846 105.09,-67.599 105.13,-67.341 105.17,-67.119 105.23,-66.892 105.31,-66.666 105.35,-66.553 105.4,-66.441 105.45,-66.331 105.47,-66.295 105.49,-66.258 105.5,-66.222 105.52,-66.186 105.54,-66.15 105.56,-66.114 105.57,-66.101 105.58,-66.074 105.58,-66.074 M105.52,-68.351 C105.52,-68.351 105.51,-68.33 105.5,-68.319 105.49,-68.298 105.48,-68.276 105.47,-68.254 105.45,-68.21 105.44,-68.163 105.43,-68.115 105.4,-68.042 105.39,-67.964 105.38,-67.883 105.36,-67.747 105.36,-67.602 105.37,-67.45 105.39,-67.298 105.42,-67.141 105.46,-66.982 105.47,-66.919 105.49,-66.855 105.52,-66.791 105.53,-66.759 105.54,-66.727 105.55,-66.696 105.56,-66.664 105.57,-66.632 105.59,-66.601 105.59,-66.589 105.6,-66.567 105.6,-66.567 M110.71,-68.149 L113.54,-66.516 M109.49,-68.38 C109.49,-68.38 109.52,-68.379 109.53,-68.379 109.58,-68.381 109.62,-68.386 109.66,-68.393 109.75,-68.409 109.83,-68.435 109.92,-68.473 110.06,-68.529 110.19,-68.61 110.33,-68.712 110.42,-68.78 110.51,-68.858 110.59,-68.943 110.63,-68.986 110.68,-69.031 110.72,-69.077 110.76,-69.124 110.8,-69.172 110.84,-69.221 110.87,-69.259 110.92,-69.337 110.92,-69.337 M111.64,-69.816 C111.64,-69.816 111.63,-69.804 111.63,-69.797 111.61,-69.732 111.58,-69.667 111.56,-69.603 111.53,-69.539 111.51,-69.474 111.48,-69.41 111.42,-69.282 111.36,-69.155 111.29,-69.03 111.12,-68.718 110.93,-68.42 110.71,-68.149 108.99,-67.233 107.28,-66.322 105.56,-65.406 M106.91,-71.5 L106.25,-71.884 M106.64,-72.608 L107.36,-72.195 M82.884,-123.44 C82.884,-123.29 82.884,-123.13 82.884,-122.98 82.884,-122.85 82.927,-122.76 83.002,-122.72 83.078,-122.67 83.181,-122.68 83.288,-122.74 84.642,-123.53 86.001,-124.31 87.355,-125.09 87.424,-125.13 87.487,-125.21 87.524,-125.3 88.093,-126.62 88.663,-127.96 89.232,-129.29 90.094,-131.6 89.843,-133.7 88.612,-134.48 M90.243,-128.71 L89.232,-129.29 M80.947,-134.07 L79.937,-134.66 M79.958,-134.47 L79.958,-133.77 M58.529,-120.7 C65.887,-124.95 73.202,-129.17 80.56,-133.42 80.56,-131.46 80.56,-129.51 80.56,-127.55 80.539,-127.39 80.504,-127.22 80.457,-127.06 80.407,-126.89 80.343,-126.72 80.269,-126.56 80.226,-126.47 80.152,-126.39 80.07,-126.35 79.998,-126.32 79.93,-126.32 79.882,-126.36 79.844,-126.38 79.809,-126.46 79.789,-126.49 76.181,-124.41 72.562,-122.32 68.954,-120.24 68.917,-120.22 68.872,-120.21 68.822,-120.21 67.277,-120.21 65.728,-120.25 64.185,-120.31 61.139,-120.44 58.191,-120.67 55.373,-121.02 53.967,-121.19 52.581,-121.39 51.246,-121.62 50.685,-121.71 50.235,-121.88 49.939,-122.11 49.482,-122.46 49.442,-123.05 49.841,-123.53 49.918,-123.6 50.003,-123.67 50.083,-123.71 51.213,-124.36 52.346,-125.02 53.476,-125.67 53.805,-125.94 54.231,-126.24 54.732,-126.55 55.158,-126.81 55.598,-127.06 56.042,-127.29 63.61,-129.91 71.624,-132.08 79.958,-133.77 80.159,-133.65 80.359,-133.54 80.56,-133.42 M68.964,-123.65 C68.779,-123.33 68.674,-122.98 68.674,-122.68 68.674,-122.37 68.779,-122.14 68.964,-122.04 69.15,-121.93 69.402,-121.95 69.665,-122.11 69.927,-122.26 70.179,-122.52 70.365,-122.84 70.55,-123.17 70.655,-123.52 70.655,-123.82 70.655,-124.12 70.55,-124.35 70.365,-124.46 70.179,-124.57 69.927,-124.54 69.665,-124.39 69.402,-124.24 69.15,-123.97 68.964,-123.65 Z M80.56,-127.55 L81.267,-127.14 M53.476,-125.67 C52.86,-125.44 52.247,-125.21 51.631,-124.98 51.006,-124.62 50.38,-124.26 49.755,-123.9 49.641,-123.84 49.52,-123.73 49.429,-123.62 49.26,-123.42 49.232,-123.22 49.236,-122.96 49.239,-122.74 49.269,-122.52 49.324,-122.29 49.374,-122.08 49.437,-121.79 49.603,-121.63 49.63,-121.61 49.662,-121.58 49.696,-121.57 49.856,-121.5 50.023,-121.44 50.191,-121.39 50.723,-121.24 52.867,-120.91 55.004,-120.65 57.899,-120.3 60.927,-120.06 64.056,-119.93 65.642,-119.87 67.234,-119.84 68.822,-119.83 68.872,-119.83 68.917,-119.85 68.954,-119.87 72.422,-121.87 75.901,-123.88 79.369,-125.88 79.526,-126.07 79.668,-126.27 79.789,-126.49 M92.28,-120.78 C92.044,-120.92 91.809,-121.06 91.573,-121.19 91.573,-123.39 91.573,-125.57 91.573,-127.76 M82.884,-123.21 L79.806,-124.99 M70.612,-124.04 L70.208,-123.85 M83.525,-122.41 L15,-82.851 M56.042,-127.29 L54.439,-126.36 M74.664,-122.02 C74.664,-122.02 74.723,-121.92 74.741,-121.87 74.773,-121.78 74.79,-121.68 74.79,-121.59 74.79,-121.2 74.525,-120.83 74.053,-120.56 72.775,-119.82 71.492,-119.08 70.214,-118.35 69.862,-118.14 69.414,-118 68.926,-117.95 68.764,-117.93 68.599,-117.92 68.435,-117.92 68.272,-117.92 68.107,-117.93 67.945,-117.95 67.86,-117.96 67.692,-117.99 67.692,-117.99 M80.125,-115.57 C80.311,-115.46 80.563,-115.49 80.825,-115.64 81.088,-115.79 81.34,-116.06 81.525,-116.38 81.711,-116.7 81.816,-117.05 81.816,-117.35 81.816,-117.66 81.711,-117.89 81.525,-118 81.34,-118.1 81.088,-118.08 80.825,-117.93 80.563,-117.77 80.311,-117.51 80.125,-117.19 79.939,-116.87 79.835,-116.51 79.835,-116.21 79.835,-115.91 79.939,-115.68 80.125,-115.57 Z M49.841,-123.53 C49.771,-123.49 49.608,-123.35 49.477,-123.21 49.458,-123.19 49.44,-123.18 49.424,-123.16 M81.657,-112.5 L80.947,-112.09 M80.074,-110.32 L79.68,-110.09 M58.078,-147.82 L57.609,-148.09 M57.859,-148.84 L58.618,-148.41 M97.277,-125.29 C97.272,-124.98 97.485,-124.85 97.753,-125 98.021,-125.15 98.242,-125.52 98.246,-125.83 98.251,-126.14 98.038,-126.27 97.77,-126.13 97.642,-126.05 97.517,-125.93 97.425,-125.77 97.332,-125.61 97.279,-125.44 97.277,-125.29 Z M97.277,-125.29 C97.277,-125.25 97.277,-125.21 97.277,-125.18 97.274,-125 97.333,-124.86 97.441,-124.79 97.549,-124.72 97.697,-124.73 97.852,-124.82 98.007,-124.91 98.158,-125.06 98.269,-125.25 98.502,-125.64 98.509,-126.08 98.284,-126.22 98.176,-126.28 98.029,-126.27 97.873,-126.19 97.839,-126.17 97.805,-126.15 97.77,-126.13 M98.912,-123.94 C98.912,-123.94 98.902,-123.89 98.897,-123.87 98.891,-123.84 98.886,-123.82 98.882,-123.79 98.869,-123.71 98.86,-123.64 98.856,-123.56 98.849,-123.44 98.854,-123.32 98.873,-123.21 98.918,-122.95 99.035,-122.75 99.21,-122.65 99.698,-122.34 100.5,-122.79 101.01,-123.65 101.52,-124.5 101.53,-125.44 101.04,-125.75 100.85,-125.86 100.6,-125.87 100.34,-125.77 100.23,-125.73 100.13,-125.67 100.02,-125.6 99.982,-125.57 99.941,-125.54 99.9,-125.51 99.879,-125.5 99.859,-125.48 99.839,-125.46 99.818,-125.45 99.798,-125.43 99.778,-125.41 99.766,-125.4 99.741,-125.37 99.741,-125.37"/>
      <path stroke="#000" d="M135.76,-92.659 L136.48,-92.243 M136.22,-93.339 L136.76,-93.399 136.84,-92.778 136.38,-92.098 135.84,-92.039 135.76,-92.659 136.22,-93.339 136.81,-92.996 M96.445,-106.22 C96.445,-106.22 96.444,-106.2 96.444,-106.2 96.443,-106.17 96.443,-106.14 96.443,-106.11 96.444,-106.06 96.447,-106 96.453,-105.95 96.464,-105.84 96.485,-105.74 96.514,-105.65 96.589,-105.43 96.721,-105.26 96.898,-105.16 97.49,-104.84 98.437,-105.4 99.012,-106.42 99.587,-107.44 99.573,-108.52 98.98,-108.84 98.821,-108.93 98.63,-108.95 98.421,-108.92 98.328,-108.9 98.232,-108.87 98.135,-108.83 98.087,-108.81 98.038,-108.78 97.989,-108.76 97.964,-108.74 97.94,-108.73 97.916,-108.72 97.902,-108.71 97.874,-108.69 97.874,-108.69 M96.124,-106.4 C96.495,-106.19 96.864,-105.97 97.235,-105.76 97.636,-105.54 98.275,-105.92 98.664,-106.61 98.851,-106.94 98.953,-107.3 98.949,-107.6 98.945,-107.91 98.834,-108.14 98.642,-108.25 98.271,-108.46 97.902,-108.67 97.531,-108.89 M53.589,-135.05 C53.019,-135.41 52.072,-134.89 51.475,-133.89 50.877,-132.88 50.855,-131.78 51.425,-131.42 51.995,-131.06 52.942,-131.58 53.539,-132.58 54.137,-133.58 54.159,-134.69 53.589,-135.05 Z M32.039,-145.27 L32.784,-144.84 M32.253,-144.24 L31.76,-144.52 M107.91,-100.67 C107.91,-100.63 107.91,-100.59 107.91,-100.55 107.91,-100.38 107.98,-100.25 108.09,-100.19 108.32,-100.06 108.69,-100.29 108.92,-100.69 109.02,-100.88 109.08,-101.09 109.08,-101.27 109.07,-101.44 109.01,-101.58 108.89,-101.63 108.78,-101.69 108.63,-101.67 108.48,-101.58 108.11,-101.37 107.9,-101.03 107.91,-100.67 107.91,-100.37 108.14,-100.25 108.4,-100.42 108.67,-100.58 108.88,-100.96 108.88,-101.26 108.87,-101.57 108.65,-101.68 108.38,-101.52 M111.22,-98.379 C111.22,-98.379 111.21,-98.338 111.2,-98.317 111.2,-98.291 111.19,-98.265 111.19,-98.238 111.18,-98.213 111.18,-98.187 111.18,-98.161 111.17,-98.135 111.17,-98.11 111.17,-98.084 111.17,-98.059 111.16,-98.034 111.16,-98.009 111.15,-97.884 111.16,-97.767 111.18,-97.658 111.22,-97.397 111.34,-97.199 111.51,-97.089 112,-96.782 112.8,-97.225 113.31,-98.079 113.82,-98.933 113.84,-99.875 113.35,-100.18 113.16,-100.3 112.92,-100.31 112.65,-100.21 112.55,-100.17 112.44,-100.12 112.34,-100.05 112.3,-100.02 112.25,-99.989 112.21,-99.957 112.19,-99.941 112.17,-99.924 112.15,-99.907 112.13,-99.89 112.11,-99.873 112.09,-99.855 112.08,-99.842 112.05,-99.814 112.05,-99.814"/>
    </g>
  </g>
  <g id="C3DA0001" vm2d:name="Axials" vm2d:type="layer">
    <g id="WRAP_001" vm2d:name="" vm2d:type="grnode">
      <g transform="matrix(3.78235,0,0,3.78235,-0,839.841)" stroke-width="0.55" stroke-linecap="round" stroke-linejoin="round" stroke-miterlimit="10">
        <path stroke="#fff" d="M38.052,-141.5 L52.698,-133.05"/>
        <path stroke="#000" stroke-width="0.15" stroke-dasharray="6.35,0.635,1.27,0.635" d="M37.706,-141.7 L53.045,-132.85"/>
      </g>
    </g>
    <g id="WRAP_002" vm2d:name="" vm2d:type="grnode">
      <g transform="matrix(3.78235,0,0,3.78235,-0,839.841)" stroke-width="0.55" stroke-linecap="round" stroke-linejoin="round" stroke-miterlimit="10">
        <path stroke="#fff" d="M55.05,-131.69 L70.021,-123.05"/>
        <path stroke="#000" stroke-width="0.15" stroke-dasharray="6.35,0.635,1.27,0.635" d="M54.704,-131.89 L70.367,-122.85"/>
      </g>
    </g>
    <g id="WRAP_003" vm2d:name="" vm2d:type="grnode">
      <g transform="matrix(3.78235,0,0,3.78235,-0,839.841)" stroke-width="0.55" stroke-linecap="round" stroke-linejoin="round" stroke-miterlimit="10">
        <path stroke="#fff" d="M72.692,-120.42 L82.766,-101.94 73.176,-107.46 92.34,-72.256 100.13,-67.759"/>
        <path stroke="#000" stroke-width="0.15" stroke-dasharray="6.35,0.635,1.27,0.635" d="M72.5,-120.77 L82.766,-101.94 73.176,-107.46 92.34,-72.256 100.48,-67.56"/>
      </g>
    </g>
    <g id="WRAP_004" vm2d:name="" vm2d:type="grnode">
      <g transform="matrix(3.78235,0,0,3.78235,-0,839.841)" stroke-width="0.15" stroke-linecap="round" stroke-linejoin="round" stroke-miterlimit="10">
        <path fill="#fff" d="M102.09,-66.791 C102.09,-66.639 101.96,-66.516 101.81,-66.516 101.66,-66.516 101.54,-66.639 101.54,-66.791 101.54,-66.943 101.66,-67.066 101.81,-67.066 101.96,-67.066 102.09,-66.943 102.09,-66.791 Z"/>
        <path stroke="#000" stroke-dasharray="6.35,0.635,1.27,0.635" d="M101.77,-66.813 L101.81,-66.791"/>
      </g>
    </g>
    <g id="WRAP_005" vm2d:name="" vm2d:type="grnode">
      <g transform="matrix(3.78235,0,0,3.78235,-0,839.841)" stroke-width="0.15" stroke-linecap="round" stroke-linejoin="round" stroke-miterlimit="10">
        <path fill="#fff" d="M104.86,-65.192 C104.86,-65.04 104.73,-64.917 104.58,-64.917 104.43,-64.917 104.31,-65.04 104.31,-65.192 104.31,-65.344 104.43,-65.467 104.58,-65.467 104.73,-65.467 104.86,-65.344 104.86,-65.192 Z"/>
        <path stroke="#000" stroke-dasharray="6.35,0.635,1.27,0.635" d="M104.5,-65.239 L104.58,-65.192"/>
      </g>
    </g>
    <g id="WRAP_006" vm2d:name="" vm2d:type="grnode">
      <g transform="matrix(3.78235,0,0,3.78235,-0,839.841)" stroke-width="0.55" stroke-linecap="round" stroke-linejoin="round" stroke-miterlimit="10">
        <path stroke="#fff" d="M111.62,-61.132 L114.86,-59.262 111.69,-65.077"/>
        <path stroke="#000" stroke-width="0.15" stroke-dasharray="6.35,0.635,1.27,0.635" d="M111.27,-61.332 L114.86,-59.262 111.5,-65.428"/>
      </g>
    </g>
    <g id="WRAP_007" vm2d:name="" vm2d:type="grnode">
      <g transform="matrix(3.78235,0,0,3.78235,-0,839.841)" stroke-width="0.15" stroke-linecap="round" stroke-linejoin="round" stroke-miterlimit="10">
        <path fill="#fff" d="M110.06,-68.575 C110.06,-68.423 109.93,-68.3 109.78,-68.3 109.63,-68.3 109.51,-68.423 109.51,-68.575 109.51,-68.727 109.63,-68.85 109.78,-68.85 109.93,-68.85 110.06,-68.727 110.06,-68.575 Z"/>
        <path stroke="#000" stroke-dasharray="6.35,0.635,1.27,0.635" d="M109.85,-68.445 L109.78,-68.575"/>
      </g>
    </g>
    <g id="WRAP_008" vm2d:name="" vm2d:type="grnode">
      <g transform="matrix(3.78235,0,0,3.78235,-0,839.841)" stroke-width="0.55" stroke-linecap="round" stroke-linejoin="round" stroke-miterlimit="10">
        <path stroke="#fff" d="M104.91,-77.499 L95.644,-94.488 88.941,-98.293 77.961,-118.48 81.2,-116.62"/>
        <path stroke="#000" stroke-width="0.15" stroke-dasharray="6.35,0.635,1.27,0.635" d="M105.1,-77.148 L95.644,-94.488 88.941,-98.293 77.961,-118.48 81.547,-116.42"/>
      </g>
    </g>
    <g id="WRAP_009" vm2d:name="" vm2d:type="grnode">
      <g transform="matrix(3.78235,0,0,3.78235,-0,839.841)" stroke-width="0.55" stroke-linecap="round" stroke-linejoin="round" stroke-miterlimit="10">
        <path stroke="#fff" d="M99.731,-105.93 L108.03,-101.15"/>
        <path stroke="#000" stroke-width="0.15" stroke-dasharray="6.35,0.635,1.27,0.635" d="M99.385,-106.13 L108.38,-100.95"/>
      </g>
    </g>
    <g id="WRAP_010" vm2d:name="" vm2d:type="grnode">
      <g transform="matrix(3.78235,0,0,3.78235,-0,839.841)" stroke-width="0.55" stroke-linecap="round" stroke-linejoin="round" stroke-miterlimit="10">
        <path stroke="#fff" d="M85.018,-114.42 L97.179,-107.4"/>
        <path stroke="#000" stroke-width="0.15" stroke-dasharray="6.35,0.635,1.27,0.635" d="M84.672,-114.62 L97.525,-107.2"/>
      </g>
    </g>
    <g id="WRAP_011" vm2d:name="" vm2d:type="grnode">
      <g transform="matrix(3.78235,0,0,3.78235,-0,839.841)" stroke-width="0.55" stroke-linecap="round" stroke-linejoin="round" stroke-miterlimit="10">
        <path stroke="#fff" d="M70.03,-141.6 L78.385,-136.76"/>
        <path stroke="#000" stroke-width="0.15" stroke-dasharray="6.35,0.635,1.27,0.635" d="M69.684,-141.8 L78.731,-136.56"/>
      </g>
    </g>
    <g id="WRAP_012" vm2d:name="" vm2d:type="grnode">
      <g transform="matrix(3.78235,0,0,3.78235,-0,839.841)" stroke-width="0.55" stroke-linecap="round" stroke-linejoin="round" stroke-miterlimit="10">
        <path stroke="#fff" d="M81.606,-134.89 L81.973,-134.68 91.882,-116.48 85.667,-120 105.86,-82.955 109.13,-81.074"/>
        <path stroke="#000" stroke-width="0.15" stroke-dasharray="6.35,0.635,1.27,0.635" d="M81.26,-135.09 L81.973,-134.68 91.882,-116.48 85.667,-120 105.86,-82.955 109.48,-80.875"/>
      </g>
    </g>
    <g id="WRAP_013" vm2d:name="" vm2d:type="grnode">
      <g transform="matrix(3.78235,0,0,3.78235,-0,839.841)" stroke-width="0.55" stroke-linecap="round" stroke-linejoin="round" stroke-miterlimit="10">
        <path stroke="#fff" d="M112.38,-89.255 L100.18,-111.66 95.317,-114.46 85.33,-132.75 87.715,-131.38"/>
        <path stroke="#000" stroke-width="0.15" stroke-dasharray="6.35,0.635,1.27,0.635" d="M112.57,-88.904 L100.18,-111.66 95.317,-114.46 85.33,-132.75 88.062,-131.18"/>
      </g>
    </g>
    <g id="WRAP_014" vm2d:name="" vm2d:type="grnode">
      <g transform="matrix(3.78235,0,0,3.78235,-0,839.841)" stroke-width="0.55" stroke-linecap="round" stroke-linejoin="round" stroke-miterlimit="10">
        <path stroke="#fff" d="M90.905,-129.54 L97.32,-125.84"/>
        <path stroke="#000" stroke-width="0.15" stroke-dasharray="6.35,0.635,1.27,0.635" d="M90.558,-129.74 L97.666,-125.64"/>
      </g>
    </g>
  </g>
  <g id="C3DC0001" vm2d:name="Callouts" vm2d:type="layer">
    <g>
      <g transform="matrix(3.78235,0,0,3.78235,-0,839.841)" stroke-width="0.85" stroke-linecap="round" stroke-linejoin="miter" stroke-miterlimit="10">
        <path stroke="#fff" d="M148.66,-154.28 L111.66,-101.88"/>
        <path stroke="#fff" stroke-width="0.7" stroke-linecap="butt" stroke-linejoin="round" d="M112.13,-101.88 C112.13,-101.62 111.92,-101.41 111.66,-101.41 111.4,-101.41 111.19,-101.62 111.19,-101.88 111.19,-102.14 111.4,-102.35 111.66,-102.35 111.92,-102.35 112.13,-102.14 112.13,-101.88 Z"/>
        <path stroke="#000" stroke-width="0.15" d="M148.66,-154.28 L111.66,-101.88"/>
        <path fill="#000" d="M112.13,-101.88 C112.13,-101.62 111.92,-101.41 111.66,-101.41 111.4,-101.41 111.19,-101.62 111.19,-101.88 111.19,-102.14 111.4,-102.35 111.66,-102.35 111.92,-102.35 112.13,-102.14 112.13,-101.88 Z"/>
        <text font-family="Arial" font-size="3.93" x="149.269" y="-154.936" fill="#000">165</text>
      </g>
    </g>
    <a id="_8FBE9911E9D54D8BB1B3468FA3C5B0C8_1" vm2d:name="165" vm2d:type="grobject" xlink:href="#">
      <path d="M562.29,241.04 L591.66,241.04 591.66,256.3 562.29,256.3 Z" fill="#fff" fill-opacity="0"/>
    </a>
    <g>
      <g transform="matrix(3.78235,0,0,3.78235,-0,839.841)" stroke-width="0.85" stroke-linecap="round" stroke-linejoin="miter" stroke-miterlimit="10">
        <path stroke="#fff" d="M15.191,-150.75 L30.31,-146.3"/>
        <path stroke="#fff" stroke-width="0.7" stroke-linecap="butt" stroke-linejoin="round" d="M30.78,-146.3 C30.78,-146.04 30.57,-145.83 30.31,-145.83 30.051,-145.83 29.84,-146.04 29.84,-146.3 29.84,-146.56 30.051,-146.77 30.31,-146.77 30.57,-146.77 30.78,-146.56 30.78,-146.3 Z"/>
        <path stroke="#000" stroke-width="0.15" d="M15.191,-150.75 L30.31,-146.3"/>
        <path fill="#000" d="M30.78,-146.3 C30.78,-146.04 30.57,-145.83 30.31,-145.83 30.051,-145.83 29.84,-146.04 29.84,-146.3 29.84,-146.56 30.051,-146.77 30.31,-146.77 30.57,-146.77 30.78,-146.56 30.78,-146.3 Z"/>
        <text font-family="Arial" font-size="3.93" x="8.03466" y="-151.41" fill="#000">165</text>
      </g>
    </g>
    <a id="_8FBE9911E9D54D8BB1B3468FA3C5B0C8_2" vm2d:name="165" vm2d:type="grobject" xlink:href="#">
      <path d="M28.094,254.38 L57.46,254.38 57.46,269.63 28.094,269.63 Z" fill="#fff" fill-opacity="0"/>
    </a>
    <g>
      <g transform="matrix(3.78235,0,0,3.78235,-0,839.841)" stroke-width="0.85" stroke-linecap="round" stroke-linejoin="miter" stroke-miterlimit="10">
        <path stroke="#fff" d="M15.191,-140.07 L49.39,-131.2"/>
        <path stroke="#fff" stroke-width="0.7" stroke-linecap="butt" stroke-linejoin="round" d="M49.86,-131.2 C49.86,-130.94 49.65,-130.73 49.39,-130.73 49.131,-130.73 48.92,-130.94 48.92,-131.2 48.92,-131.46 49.131,-131.67 49.39,-131.67 49.65,-131.67 49.86,-131.46 49.86,-131.2 Z"/>
        <path stroke="#000" stroke-width="0.15" d="M15.191,-140.07 L49.39,-131.2"/>
        <path fill="#000" d="M49.86,-131.2 C49.86,-130.94 49.65,-130.73 49.39,-130.73 49.131,-130.73 48.92,-130.94 48.92,-131.2 48.92,-131.46 49.131,-131.67 49.39,-131.67 49.65,-131.67 49.86,-131.46 49.86,-131.2 Z"/>
        <text font-family="Arial" font-size="3.93" x="8.03466" y="-140.729" fill="#000">170</text>
      </g>
    </g>
    <a id="_16d7fc49fe123a6937fb5cacb31554c9" vm2d:name="170" vm2d:type="grobject" xlink:href="#">
      <path d="M28.094,294.78 L57.46,294.78 57.46,310.03 28.094,310.03 Z" fill="#fff" fill-opacity="0"/>
    </a>
    <g>
      <g transform="matrix(3.78235,0,0,3.78235,-0,839.841)" stroke-width="0.85" stroke-linecap="round" stroke-linejoin="miter" stroke-miterlimit="10">
        <path stroke="#fff" d="M15.191,-161.77 L55.962,-150.37"/>
        <path stroke="#fff" stroke-width="0.7" stroke-linecap="butt" stroke-linejoin="round" d="M56.432,-150.37 C56.432,-150.11 56.221,-149.9 55.962,-149.9 55.702,-149.9 55.492,-150.11 55.492,-150.37 55.492,-150.63 55.702,-150.84 55.962,-150.84 56.221,-150.84 56.432,-150.63 56.432,-150.37 Z"/>
        <path stroke="#000" stroke-width="0.15" d="M15.191,-161.77 L55.962,-150.37"/>
        <path fill="#000" d="M56.432,-150.37 C56.432,-150.11 56.221,-149.9 55.962,-149.9 55.702,-149.9 55.492,-150.11 55.492,-150.37 55.492,-150.63 55.702,-150.84 55.962,-150.84 56.221,-150.84 56.432,-150.63 56.432,-150.37 Z"/>
        <text font-family="Arial" font-size="3.93" x="8.03466" y="-162.428" fill="#000">180</text>
      </g>
    </g>
    <a id="C3D232D8721E46C0A705BC2C74083B9A" vm2d:name="180" vm2d:type="grobject" xlink:href="#">
      <path d="M28.094,212.71 L57.46,212.71 57.46,227.96 28.094,227.96 Z" fill="#fff" fill-opacity="0"/>
    </a>
    <g>
      <g transform="matrix(3.78235,0,0,3.78235,-0,839.841)" stroke-width="0.85" stroke-linecap="round" stroke-linejoin="miter" stroke-miterlimit="10">
        <path stroke="#fff" d="M119.97,-154.28 L99.88,-127.36"/>
        <path stroke="#fff" stroke-width="0.7" stroke-linecap="butt" stroke-linejoin="round" d="M100.35,-127.36 C100.35,-127.1 100.14,-126.89 99.88,-126.89 99.62,-126.89 99.41,-127.1 99.41,-127.36 99.41,-127.62 99.62,-127.83 99.88,-127.83 100.14,-127.83 100.35,-127.62 100.35,-127.36 Z"/>
        <path stroke="#000" stroke-width="0.15" d="M119.97,-154.28 L99.88,-127.36"/>
        <path fill="#000" d="M100.35,-127.36 C100.35,-127.1 100.14,-126.89 99.88,-126.89 99.62,-126.89 99.41,-127.1 99.41,-127.36 99.41,-127.62 99.62,-127.83 99.88,-127.83 100.14,-127.83 100.35,-127.62 100.35,-127.36 Z"/>
        <text font-family="Arial" font-size="3.93" x="120.579" y="-154.936" fill="#000">185</text>
      </g>
    </g>
    <a id="_1CFFD2B9FB8B42BCB655C47CE8208666" vm2d:name="185" vm2d:type="grobject" xlink:href="#">
      <path d="M453.78,241.04 L483.14,241.04 483.14,256.3 453.78,256.3 Z" fill="#fff" fill-opacity="0"/>
    </a>
    <g>
      <g transform="matrix(3.78235,0,0,3.78235,-0,839.841)" stroke-width="0.85" stroke-linecap="round" stroke-linejoin="miter" stroke-miterlimit="10">
        <path stroke="#fff" d="M15.191,-119.59 L39.773,-114.54"/>
        <path stroke="#fff" stroke-width="0.7" stroke-linecap="butt" stroke-linejoin="round" d="M40.243,-114.54 C40.243,-114.28 40.032,-114.07 39.773,-114.07 39.513,-114.07 39.303,-114.28 39.303,-114.54 39.303,-114.8 39.513,-115.01 39.773,-115.01 40.032,-115.01 40.243,-114.8 40.243,-114.54 Z"/>
        <path stroke="#000" stroke-width="0.15" d="M15.191,-119.59 L39.773,-114.54"/>
        <path fill="#000" d="M40.243,-114.54 C40.243,-114.28 40.032,-114.07 39.773,-114.07 39.513,-114.07 39.303,-114.28 39.303,-114.54 39.303,-114.8 39.513,-115.01 39.773,-115.01 40.032,-115.01 40.243,-114.8 40.243,-114.54 Z"/>
        <text font-family="Arial" font-size="3.93" x="10.2179" y="-120.248" fill="#000">60</text>
      </g>
    </g>
    <a id="_1776682069e7c71556f5c782aaa1ef5c" vm2d:name="60" vm2d:type="grobject" xlink:href="#">
      <path d="M36.352,372.25 L57.46,372.25 57.46,387.5 36.352,387.5 Z" fill="#fff" fill-opacity="0"/>
    </a>
    <g>
      <g transform="matrix(3.78235,0,0,3.78235,-0,839.841)" stroke-width="0.85" stroke-linecap="round" stroke-linejoin="miter" stroke-miterlimit="10">
        <path stroke="#fff" d="M130.65,-154.28 L98.382,-110.83"/>
        <path stroke="#fff" stroke-width="0.7" stroke-linecap="butt" stroke-linejoin="round" d="M98.852,-110.83 C98.852,-110.57 98.641,-110.36 98.382,-110.36 98.122,-110.36 97.912,-110.57 97.912,-110.83 97.912,-111.09 98.122,-111.3 98.382,-111.3 98.641,-111.3 98.852,-111.09 98.852,-110.83 Z"/>
        <path stroke="#000" stroke-width="0.15" d="M130.65,-154.28 L98.382,-110.83"/>
        <path fill="#000" d="M98.852,-110.83 C98.852,-110.57 98.641,-110.36 98.382,-110.36 98.122,-110.36 97.912,-110.57 97.912,-110.83 97.912,-111.09 98.122,-111.3 98.382,-111.3 98.641,-111.3 98.852,-111.09 98.852,-110.83 Z"/>
        <text font-family="Arial" font-size="3.93" x="131.255" y="-154.936" fill="#000">170</text>
      </g>
    </g>
    <a id="_16d7fc49fe123a6937fb5cacb31554c10" vm2d:name="170" vm2d:type="grobject" xlink:href="#">
      <path d="M494.16,241.04 L523.52,241.04 523.52,256.3 494.16,256.3 Z" fill="#fff" fill-opacity="0"/>
    </a>
  </g>
  <g id="C3DP0001" vm2d:name="Panels" vm2d:type="layer"/>
  <g id="IsoG11" vm2d:name="" vm2d:type="grnode">
    <g id="g401" vm2d:name="" vm2d:type="grnode">
      <g transform="matrix(3.78235,0,0,3.78235,-0,839.841)" stroke-width="0.18004" stroke-linecap="round" stroke-linejoin="miter" stroke-miterlimit="2">
        <path fill="#fff" stroke="#000" d="M91.464,-176.02 L97.936,-179.76 99.036,-179.12 99.036,-175.53 92.564,-171.8 92.564,-170 91.464,-170.63 88.364,-172.43 91.464,-177.82 92.564,-177.18 92.564,-176.65 91.464,-176.02 Z"/>
        <path stroke="#000" stroke-linejoin="round" d="M91.464,-177.82 L91.464,-176.02 97.936,-179.76 99.036,-179.12 99.036,-175.53 92.564,-171.8 92.564,-170 91.464,-170.63 88.364,-172.43 91.464,-177.82 92.564,-177.18 92.564,-176.65 M97.936,-176.17 L91.464,-172.43 91.464,-170.63 M97.936,-179.76 L97.936,-176.17 99.036,-175.53 M91.464,-172.43 L92.564,-171.8"/>
      </g>
    </g>
    <g id="IsoG12" vm2d:name="" vm2d:type="grnode">
      <g id="g411" vm2d:name="" vm2d:type="grnode">
        <g transform="matrix(3.78235,0,0,3.78235,-0,839.841)" stroke-width="0.18004" stroke-linecap="round" stroke-linejoin="round" stroke-miterlimit="2">
          <path fill="#000" stroke="#000" d="M91.734,-173.23 L91.464,-173.08 91.464,-175.36 92.805,-176.13 92.805,-175.86 91.734,-175.24 91.734,-174.54 92.654,-175.08 92.654,-174.81 91.734,-174.27 91.734,-173.24 91.734,-173.23 Z"/>
          <path fill="#000" stroke="#000" d="M97.105,-178.38 L97.145,-178.35 97.175,-178.32 97.215,-178.28 97.245,-178.24 97.265,-178.19 97.295,-178.14 97.315,-178.08 97.335,-178.02 97.345,-177.96 97.355,-177.89 97.365,-177.81 97.365,-177.73 97.375,-177.65 97.365,-177.57 97.365,-177.5 97.365,-177.43 97.355,-177.36 97.345,-177.29 97.335,-177.22 97.315,-177.16 97.305,-177.09 97.285,-177.03 97.265,-176.97 97.245,-176.91 97.225,-176.85 97.205,-176.8 97.185,-176.75 97.155,-176.7 97.135,-176.65 97.115,-176.6 97.085,-176.56 97.055,-176.52 97.035,-176.47 97.005,-176.44 96.975,-176.4 96.945,-176.36 96.915,-176.33 96.915,-176.32 96.875,-176.29 96.845,-176.25 96.805,-176.22 96.765,-176.19 96.725,-176.15 96.685,-176.12 96.645,-176.09 96.595,-176.06 96.555,-176.03 96.505,-175.99 96.455,-175.96 95.745,-175.55 95.745,-177.83 96.425,-178.22 96.485,-178.26 96.545,-178.29 96.595,-178.32 96.645,-178.34 96.695,-178.36 96.735,-178.38 96.775,-178.39 96.815,-178.41 96.865,-178.41 96.905,-178.42 96.945,-178.42 96.985,-178.42 97.025,-178.41 97.055,-178.4 97.105,-178.38 Z"/>
          <path fill="#fff" stroke="#000" d="M96.005,-175.97 L96.425,-176.22 96.475,-176.25 96.525,-176.28 96.575,-176.31 96.625,-176.35 96.655,-176.38 96.695,-176.41 96.735,-176.44 96.765,-176.47 96.795,-176.5 96.815,-176.53 96.835,-176.56 96.865,-176.59 96.885,-176.62 96.905,-176.66 96.935,-176.7 96.955,-176.75 96.975,-176.8 96.995,-176.86 97.015,-176.91 97.035,-176.97 97.055,-177.03 97.065,-177.09 97.075,-177.15 97.085,-177.22 97.095,-177.28 97.095,-177.35 97.105,-177.42 97.105,-177.5 97.095,-177.59 97.095,-177.68 97.085,-177.76 97.065,-177.83 97.055,-177.89 97.025,-177.94 97.005,-177.98 96.965,-178.02 96.945,-178.05 96.905,-178.07 96.875,-178.09 96.835,-178.1 96.795,-178.1 96.755,-178.1 96.725,-178.09 96.685,-178.08 96.645,-178.07 96.595,-178.05 96.545,-178.02 96.485,-177.99 96.415,-177.95 96.005,-177.71 96.005,-175.97 Z"/>
          <path fill="#000" stroke="#000" d="M93.485,-174.25 L93.755,-174.41 94.175,-176.38 94.235,-176.68 94.705,-174.96 94.965,-175.11 95.505,-177.69 95.235,-177.54 94.925,-175.9 94.835,-175.35 94.815,-175.44 94.795,-175.55 94.775,-175.65 94.755,-175.75 94.735,-175.85 94.705,-175.96 94.675,-176.06 94.395,-177.05 94.085,-176.87 93.705,-175.11 93.615,-174.64 93.525,-175.06 93.235,-176.38 92.965,-176.22 93.485,-174.25 Z"/>
        </g>
      </g>
    </g>
  </g>
  <g id="IsoG218" vm2d:name="" vm2d:type="grnode">
    <g id="IsoG219" vm2d:name="" vm2d:type="grnode">
      <g id="g89" vm2d:name="" vm2d:type="grnode">
        <g transform="matrix(3.78235,0,0,3.78235,-0,839.841)">
          <path fill="#fff" d="M81.927,-192.99 L87.928,-192.99 87.928,-186.99 81.927,-186.99 81.927,-192.99 Z"/>
          <path fill="#000" d="M82.127,-192.79 L87.729,-192.79 87.729,-187.19 82.127,-187.19 82.127,-192.79 Z"/>
          <path fill="#fff" d="M82.327,-192.59 L87.528,-192.59 87.528,-187.39 82.327,-187.39 82.327,-192.59 Z"/>
        </g>
      </g>
    </g>
    <g id="g94" vm2d:name="" vm2d:type="grnode">
      <g transform="matrix(3.78235,0,0,3.78235,-0,839.841)">
        <path fill="#000" d="M83.716,-188.23 L83.716,-191.76 86.139,-191.76 86.139,-191.16 84.429,-191.16 84.429,-190.32 85.906,-190.32 85.906,-189.73 84.429,-189.73 84.429,-188.23 83.716,-188.23 Z"/>
      </g>
    </g>
  </g>
</svg>
