<?xml version="1.0" encoding="UTF-8" standalone="no"?>
<!DOCTYPE svg SYSTEM "http://www.w3.org/Graphics/SVG/1.1/DTD/svg11.dtd" [
<!ENTITY % SVG.External.attrib
"xmlns:vm2d CDATA #FIXED 'http://www.cortona3d.com/vm2d'
vm2d:name CDATA #IMPLIED
vm2d:type CDATA #IMPLIED">
]>
<svg xmlns="http://www.w3.org/2000/svg" xmlns:vm2d="http://www.cortona3d.com/vm2d" xmlns:xlink="http://www.w3.org/1999/xlink" version="1.1" width="170mm" height="222mm" viewBox="0 0 643 840" fill="none" fill-rule="evenodd" stroke-miterlimit="5">
  <title>Untitled</title>
  <desc>"Generator:ParallelGraphics Cortona2D","ProfileId:WebCGM""ProfileEd:2.1""ColourClass:colour""Source:Cortona2D Editor Pro 14.2.0.142""Date:20250507"</desc>
  <rect width="643" height="840" fill="#fff"/>
  <defs/>
  <g id="C3DB0001" vm2d:name="Background" vm2d:type="layer"/>
  <g id="C3DG0001" vm2d:name="Drawing" vm2d:type="layer">
    <g transform="matrix(3.78235,0,0,3.78235,-0,839.841)" stroke-width="0.18" stroke-linecap="round" stroke-linejoin="round" stroke-miterlimit="10">
      <path stroke="#000" d="M131.97,-193.64 C131.63,-193.85 131.06,-193.53 130.71,-192.92 130.36,-192.32 130.36,-191.67 130.7,-191.46 130.89,-191.35 131.15,-191.39 131.42,-191.57 131.69,-191.76 131.93,-192.06 132.08,-192.4 132.21,-192.7 132.26,-193.01 132.22,-193.25 132.18,-193.44 132.1,-193.57 131.97,-193.64 131.85,-193.71 131.62,-193.85 131.62,-193.85 M130.34,-191.67 L130.7,-191.46 M101.88,-168.44 C101.88,-168.44 101.98,-168.23 102.01,-168.12 102.04,-167.99 102.06,-167.85 102.07,-167.72 102.09,-167.44 102.06,-167.13 101.98,-166.8 101.87,-166.32 101.66,-165.82 101.37,-165.36 100.78,-164.43 99.952,-163.8 99.233,-163.73 98.286,-159.2 97.344,-154.69 96.397,-150.16 96.755,-149.95 97.111,-149.74 97.469,-149.54 99.676,-149.17 101.87,-148.8 104.08,-148.43 105.5,-147.61 106.91,-146.8 108.34,-145.97 M104.21,-154.9 C104.76,-155.87 104.74,-156.91 104.18,-157.22 103.61,-157.52 102.7,-156.98 102.16,-156.01 101.89,-155.54 101.75,-155.04 101.75,-154.6 101.76,-154.17 101.92,-153.84 102.19,-153.7 102.76,-153.39 103.66,-153.93 104.21,-154.9 Z M103.5,-157.24 C103.5,-157.24 103.51,-157.24 103.51,-157.23 103.53,-157.13 103.54,-157.03 103.54,-156.93 103.54,-156.82 103.53,-156.7 103.52,-156.59 103.5,-156.47 103.47,-156.35 103.44,-156.24 103.37,-155.99 103.27,-155.75 103.14,-155.52 103.01,-155.29 102.85,-155.08 102.68,-154.89 102.51,-154.7 102.32,-154.55 102.13,-154.44 102.05,-154.39 101.95,-154.34 101.85,-154.3 101.83,-154.3 101.79,-154.29 101.79,-154.29 M115.65,-148.3 C115.91,-148.77 116.05,-149.27 116.05,-149.71 116.04,-150.14 115.88,-150.47 115.61,-150.61 115.04,-150.92 114.14,-150.38 113.59,-149.41 113.33,-148.94 113.18,-148.44 113.19,-148 113.19,-147.57 113.35,-147.24 113.62,-147.09 114.19,-146.79 115.1,-147.33 115.65,-148.3 Z M114.94,-150.64 C114.94,-150.64 114.94,-150.63 114.94,-150.63 114.96,-150.53 114.97,-150.43 114.97,-150.33 114.98,-150.21 114.97,-150.1 114.95,-149.99 114.93,-149.87 114.91,-149.75 114.88,-149.63 114.81,-149.39 114.7,-149.15 114.57,-148.92 114.44,-148.69 114.29,-148.47 114.11,-148.29 113.94,-148.1 113.76,-147.95 113.57,-147.84 113.48,-147.78 113.39,-147.74 113.29,-147.7 113.27,-147.69 113.23,-147.69 113.23,-147.69 M115.67,-210 C109.95,-196.45 104.25,-182.93 98.517,-169.35 98.539,-169.29 98.657,-169.2 98.847,-169.09 98.966,-169.02 99.085,-168.95 99.204,-168.88 100.2,-168.72 101.21,-168.55 102.21,-168.38 102.31,-168.36 102.41,-168.33 102.51,-168.28 103.23,-167.91 103.36,-166.72 102.81,-165.45 102.27,-164.18 101.22,-163.2 100.31,-163.11 99.947,-163.32 99.591,-163.52 99.233,-163.73 M144.8,-210 C135.2,-187.26 125.64,-164.61 116.03,-141.83 116.05,-141.77 115.97,-141.76 115.81,-141.78 113.51,-142.17 111.2,-142.55 108.9,-142.93 108.55,-143.14 108.19,-143.35 107.83,-143.55 108.78,-148.09 109.72,-152.59 110.67,-157.13 111.39,-157.2 112.22,-157.83 112.8,-158.76 113.09,-159.21 113.31,-159.71 113.42,-160.2 113.49,-160.52 113.52,-160.84 113.5,-161.12 113.5,-161.25 113.48,-161.38 113.44,-161.51 113.41,-161.62 113.32,-161.83 113.32,-161.83 M130.25,-191.75 C130.25,-191.75 130.24,-191.75 130.24,-191.75 M130.11,-192.03 C130.11,-192.03 130.11,-192.04 130.11,-192.04 130.11,-192.04 130.11,-192.04 130.11,-192.04 M130.1,-192.43 C130.1,-192.43 130.1,-192.43 130.1,-192.44 130.1,-192.44 130.1,-192.44 130.1,-192.44 M130.23,-192.88 C130.23,-192.88 130.23,-192.88 130.23,-192.88 130.23,-192.89 130.23,-192.89 130.23,-192.89 M130.47,-193.31 C130.47,-193.31 130.47,-193.31 130.47,-193.31 130.47,-193.32 130.48,-193.32 130.48,-193.32 M130.79,-193.65 C130.79,-193.65 130.79,-193.66 130.79,-193.66 130.79,-193.66 130.8,-193.66 130.8,-193.66 M131.14,-193.86 C131.14,-193.86 131.14,-193.87 131.14,-193.87 131.14,-193.87 131.14,-193.87 131.14,-193.87 M131.46,-193.91 C131.46,-193.91 131.46,-193.91 131.46,-193.91 131.47,-193.91 131.47,-193.9 131.47,-193.9 M86.518,-98.136 C86.518,-98.136 86.522,-98.141 86.524,-98.144 86.529,-98.151 86.534,-98.159 86.539,-98.166 86.544,-98.174 86.548,-98.182 86.553,-98.19 86.566,-98.214 86.577,-98.241 86.586,-98.27 86.598,-98.308 86.606,-98.35 86.61,-98.395 86.617,-98.473 86.612,-98.56 86.594,-98.65 86.564,-98.806 86.499,-98.969 86.407,-99.118 86.316,-99.266 86.202,-99.395 86.079,-99.486 86.008,-99.539 85.936,-99.579 85.865,-99.604 85.815,-99.621 85.766,-99.631 85.72,-99.632 85.702,-99.633 85.683,-99.632 85.666,-99.63 85.657,-99.629 85.649,-99.628 85.64,-99.626 85.632,-99.624 85.623,-99.622 85.615,-99.62 85.609,-99.618 85.597,-99.614 85.597,-99.614 M101.42,-89.533 C101.42,-89.533 101.42,-89.538 101.43,-89.541 101.43,-89.548 101.44,-89.555 101.44,-89.563 101.45,-89.571 101.45,-89.578 101.45,-89.586 101.47,-89.611 101.48,-89.638 101.49,-89.666 101.5,-89.705 101.51,-89.747 101.51,-89.792 101.52,-89.87 101.51,-89.956 101.5,-90.047 101.47,-90.203 101.4,-90.365 101.31,-90.514 101.22,-90.663 101.1,-90.791 100.98,-90.883 100.91,-90.936 100.84,-90.976 100.77,-91 100.72,-91.018 100.67,-91.027 100.62,-91.029 100.6,-91.029 100.58,-91.029 100.57,-91.027 100.56,-91.026 100.55,-91.024 100.54,-91.023 100.53,-91.021 100.52,-91.019 100.52,-91.017 100.51,-91.015 100.5,-91.011 100.5,-91.011 M83.842,-88.902 C82.96,-89.411 82.083,-89.918 81.2,-90.427 80.988,-90.433 80.778,-90.438 80.566,-90.443 80.355,-89.852 80.142,-89.259 79.93,-88.667 79.822,-88.364 79.668,-88.091 79.478,-87.863 79.383,-87.749 79.28,-87.648 79.17,-87.56 79.116,-87.516 79.059,-87.476 79,-87.438 78.972,-87.42 78.911,-87.388 78.911,-87.388 M90.185,-68.662 L90.9,-68.25 91.533,-68.234 94.889,-77.597 93.644,-78.316 M21.975,-13.588 C34.792,-20.988 50.419,-30.01 60.752,-35.976 61.432,-36.368 61.903,-36.864 62.112,-37.406 63.233,-40.319 64.358,-43.241 65.479,-46.154 65.571,-46.393 65.61,-46.637 65.597,-46.882 65.597,-46.909 65.597,-46.936 65.597,-46.964 M11.275,-51.644 C15.261,-53.945 19.498,-56.392 22.516,-58.134 23.196,-58.527 24.055,-58.799 24.993,-58.919 30.039,-59.567 35.1,-60.216 40.145,-60.863 40.766,-60.943 41.408,-60.954 42.036,-60.897 42.453,-60.858 42.861,-60.79 43.251,-60.692 43.441,-60.645 43.63,-60.59 43.816,-60.526 43.832,-60.52 43.865,-60.507 43.865,-60.507 M85.795,-99.5 C84.995,-99.961 84.2,-100.42 83.401,-100.88 83.069,-101.1 82.651,-101.15 82.188,-101.04 78.766,-100.24 75.334,-99.441 71.913,-98.641 71.288,-98.495 70.651,-98.284 70.005,-98.011 66.4,-96.484 62.765,-93.094 60.053,-88.73 59.324,-87.557 58.674,-86.333 58.117,-85.084 54.975,-78.041 48.683,-63.934 48.683,-63.934 M58.024,-71.77 C58.024,-71.77 58.026,-71.821 58.03,-71.847 58.048,-71.961 58.074,-72.074 58.107,-72.185 58.142,-72.302 58.184,-72.417 58.233,-72.529 58.282,-72.643 58.339,-72.756 58.401,-72.864 58.416,-72.89 58.45,-72.938 58.45,-72.938 M58.572,-73.124 C58.572,-73.124 58.595,-73.161 58.607,-73.178 58.621,-73.197 58.653,-73.233 58.653,-73.233 M58.79,-73.396 C58.79,-73.396 58.824,-73.439 58.842,-73.458 58.853,-73.47 58.877,-73.49 58.877,-73.49 M59.036,-73.639 C59.036,-73.639 59.075,-73.677 59.097,-73.694 59.18,-73.762 59.269,-73.824 59.362,-73.878 59.446,-73.926 59.535,-73.968 59.627,-74 59.646,-74.007 59.686,-74.014 59.686,-74.014 M59.847,-74.051 C59.847,-74.051 59.87,-74.057 59.881,-74.058 59.898,-74.06 59.932,-74.056 59.932,-74.056 M58.008,-71.578 C58.008,-71.578 58.004,-71.543 58.004,-71.526 58.004,-71.506 58.009,-71.467 58.009,-71.467 M58.024,-71.298 C58.024,-71.298 58.026,-71.256 58.03,-71.235 58.046,-71.149 58.071,-71.064 58.107,-70.985 58.127,-70.94 58.186,-70.86 58.186,-70.86 M70.539,-70.923 L69.687,-70.431 M70.353,-77.93 C70.897,-78.873 70.897,-79.892 70.353,-80.206 69.809,-80.52 68.926,-80.011 68.382,-79.068 67.838,-78.125 67.838,-77.106 68.382,-76.792 68.926,-76.478 69.808,-76.987 70.353,-77.93 Z M83.908,-95.137 C84.228,-95.474 84.461,-95.936 84.528,-96.367 84.596,-96.798 84.489,-97.141 84.244,-97.282 84.05,-97.395 83.786,-97.368 83.512,-97.21 83.08,-96.961 82.371,-96.651 81.972,-96.23 81.652,-95.892 81.419,-95.431 81.352,-95 81.284,-94.569 81.391,-94.225 81.635,-94.084 81.83,-93.972 82.093,-93.998 82.368,-94.156 82.799,-94.405 83.509,-94.715 83.908,-95.137 Z M100.7,-90.896 C99.897,-91.358 99.102,-91.817 98.302,-92.279 97.971,-92.493 97.553,-92.549 97.09,-92.441 93.668,-91.641 90.236,-90.838 86.814,-90.038 85.877,-89.818 84.91,-89.454 83.934,-88.951 80.132,-86.994 76.444,-83.082 73.922,-78.332 73.598,-77.722 73.297,-77.105 73.018,-76.481 69.304,-68.153 61.863,-51.472 61.863,-51.472 62.663,-51.01 63.458,-50.551 64.257,-50.09 68.742,-52.679 73.2,-55.253 77.685,-57.842 M85.254,-69.327 C85.798,-70.269 85.798,-71.288 85.254,-71.603 84.71,-71.917 83.827,-71.407 83.283,-70.465 82.739,-69.522 82.739,-68.503 83.283,-68.189 83.827,-67.875 84.71,-68.384 85.254,-69.327 Z M88.478,-88.454 C88.478,-88.454 88.65,-88.509 88.738,-88.534 88.893,-88.578 89.051,-88.618 89.208,-88.655 92.63,-89.456 96.062,-90.258 99.484,-91.059 99.947,-91.167 100.36,-91.111 100.7,-90.896 101.34,-90.478 101.59,-89.504 101.35,-88.317 101.12,-87.13 100.43,-85.895 99.537,-85.047 97.883,-83.481 95.337,-83.04 94.514,-80.742 92.53,-75.207 90.541,-69.654 88.557,-64.119 86.253,-62.789 83.962,-61.466 81.658,-60.136 M67.608,-32.036 C67.608,-32.036 66.975,-31.076 66.64,-30.61 66.313,-30.153 65.979,-29.7 65.638,-29.253 65.063,-28.498 64.361,-27.636 63.745,-26.926 63.129,-26.217 62.671,-25.743 62.508,-25.648 62.441,-25.609 62.364,-25.578 62.287,-25.58 62.276,-25.581 62.271,-25.598 62.273,-25.608 62.278,-25.632 62.29,-25.654 62.302,-25.676 62.338,-25.748 62.38,-25.817 62.419,-25.887 62.492,-26.017 62.551,-26.156 62.597,-26.297 62.7,-26.61 62.752,-26.968 62.752,-27.358 62.752,-27.974 62.607,-28.823 63.263,-29.202 64.368,-29.839 65.476,-30.479 66.58,-31.117 66.58,-31.117 68.686,-33.001 68.686,-33.001 69.303,-34.017 70.253,-35.327 71.485,-36.859 79.528,-44.585 86.18,-52.767 91.338,-61.276 91.338,-61.689 91.338,-62.1 91.338,-62.513 90.409,-63.05 89.486,-63.583 88.557,-64.119 M87.501,-55.413 C87.501,-55.413 86.93,-54.373 86.627,-53.864 86.168,-53.091 85.689,-52.326 85.196,-51.575 84.704,-50.827 84.194,-50.088 83.669,-49.364 82.622,-47.919 81.519,-46.538 80.371,-45.233 79.803,-44.587 79.218,-43.953 78.619,-43.337 78.426,-43.139 78.245,-42.924 78.101,-42.688 77.948,-42.436 77.904,-42.253 77.977,-42.176 78.074,-42.074 78.365,-42.181 78.441,-42.196 77.845,-41.61 77.232,-41.036 76.605,-40.482 75.436,-39.807 74.274,-39.136 73.104,-38.461 M52.293,-72.028 C52.293,-72.028 51.329,-71.79 50.849,-71.666 49.411,-71.296 47.97,-70.914 46.537,-70.524 45.112,-70.137 43.685,-69.738 42.266,-69.331 40.856,-68.927 39.444,-68.511 38.039,-68.087 32.499,-66.415 27.038,-64.523 22.049,-61.539 18.451,-59.462 14.863,-57.39 11.275,-55.319 M41.619,-13.588 L62.508,-25.648 M67.469,-109.21 C67.469,-109.21 65.052,-110.61 63.844,-111.31 63.816,-111.32 63.787,-111.34 63.758,-111.35 62.757,-111.84 61.258,-110.97 60.34,-109.38 59.423,-107.78 59.432,-106.06 60.361,-105.44 60.388,-105.43 60.415,-105.41 60.443,-105.39 61.648,-104.7 64.061,-103.31 64.061,-103.31 M117.88,-94.492 C118.36,-95.265 118.39,-96.133 117.96,-96.43 117.53,-96.728 116.79,-96.344 116.32,-95.571 115.84,-94.798 115.81,-93.931 116.24,-93.633 116.67,-93.335 117.41,-93.72 117.88,-94.492 Z M115.52,-92.449 L103.58,-99.34 M118.69,-97.614 C114.7,-99.916 110.74,-102.2 106.75,-104.51 105.95,-105.06 104.6,-104.34 103.72,-102.92 102.85,-101.49 102.78,-99.89 103.58,-99.34 103.63,-99.307 103.68,-99.279 103.73,-99.255 M107.99,-81.895 C108.53,-82.83 108.83,-83.85 108.82,-84.73 108.82,-85.609 108.52,-86.277 107.98,-86.586 107.44,-86.895 106.7,-86.82 105.94,-86.377 105.18,-85.934 104.45,-85.159 103.91,-84.224 102.79,-82.277 102.79,-80.176 103.92,-79.533 104.46,-79.224 105.19,-79.3 105.96,-79.743 106.72,-80.186 107.45,-80.96 107.99,-81.895 Z M108.15,-86.893 C107.8,-87.094 107.15,-87.57 106.62,-87.713 106.13,-87.848 105.57,-87.773 104.97,-87.496 104.05,-87.068 103.14,-86.161 102.5,-85.039 101.85,-83.917 101.53,-82.674 101.62,-81.669 101.68,-81.018 101.9,-80.492 102.27,-80.138 102.65,-79.762 103.4,-79.425 103.74,-79.227 M103.72,-81.968 C103.72,-81.968 103.74,-81.959 103.76,-81.956 103.79,-81.945 103.83,-81.938 103.88,-81.933 103.92,-81.929 103.96,-81.927 104,-81.929 104.09,-81.932 104.18,-81.947 104.27,-81.974 104.46,-82.029 104.65,-82.131 104.85,-82.274 105.13,-82.49 105.4,-82.792 105.61,-83.141 105.87,-83.55 106.03,-84.001 106.08,-84.418 106.11,-84.654 106.1,-84.872 106.05,-85.061 106.03,-85.155 105.99,-85.24 105.95,-85.317 105.93,-85.354 105.91,-85.39 105.88,-85.424 105.86,-85.456 105.83,-85.487 105.8,-85.516 105.8,-85.522 105.78,-85.533 105.78,-85.533 M113.42,-74.505 C113.11,-74.713 112.85,-74.951 112.64,-75.209 112.11,-75.852 111.91,-76.584 112.08,-77.289 112.22,-77.916 112.65,-78.496 113.32,-78.972 113.91,-79.393 114.6,-79.619 115.23,-79.962 115.27,-79.984 115.86,-80.386 116.8,-80.577 116.91,-80.595 117.02,-80.614 117.12,-80.632 117.17,-80.641 117.23,-80.649 117.28,-80.661 117.3,-80.666 117.32,-80.673 117.34,-80.681 117.35,-80.683 117.35,-80.685 117.36,-80.687 117.37,-80.69 117.38,-80.693 117.39,-80.695 117.39,-80.697 117.4,-80.698 117.4,-80.699 117.41,-80.699 117.41,-80.7 117.41,-80.697 117.42,-80.676 117.42,-80.64 117.41,-80.619 117.41,-80.603 117.41,-80.587 117.41,-80.571 117.41,-80.551 117.4,-80.532 117.4,-80.512 117.4,-80.488 117.39,-80.465 117.39,-80.441 117.39,-80.414 117.38,-80.386 117.38,-80.359 117.36,-80.25 117.34,-80.141 117.33,-80.032 117.29,-79.794 117.25,-79.556 117.22,-79.318 117.16,-78.86 117.09,-78.401 117.04,-77.942 116.98,-77.492 116.92,-77.041 116.86,-76.592 116.83,-76.381 116.8,-76.17 116.77,-75.96 116.73,-75.695 116.72,-75.422 116.53,-75.221 115.59,-74.255 114.43,-73.902 113.67,-74.344 112.96,-74.752 112.25,-75.16 111.54,-75.572 111.52,-75.583 111.49,-75.608 111.45,-75.639 111.41,-75.669 111.37,-75.7 111.34,-75.723 110.77,-76.235 110.6,-77.216 110.88,-78.354 111.23,-79.783 112.24,-81.179 113.37,-81.799 114.09,-82.199 114.75,-82.236 115.32,-81.908 115.99,-81.52 116.67,-81.132 117.34,-80.743 117.36,-80.728 117.39,-80.713 117.41,-80.697 M115.44,-79.515 C115.44,-79.515 115.46,-79.514 115.47,-79.512 115.49,-79.508 115.52,-79.495 115.52,-79.495 M115.5,-79.5 L115.48,-79.507 M113.74,-76.606 C113.74,-76.606 113.68,-76.653 113.65,-76.679 113.62,-76.704 113.6,-76.73 113.57,-76.757 113.55,-76.78 113.51,-76.831 113.51,-76.831 M113.7,-76.636 L113.79,-76.579 M113.62,-77.604 C113.62,-77.604 113.66,-77.64 113.68,-77.658 113.7,-77.677 113.72,-77.697 113.74,-77.716 113.76,-77.736 113.78,-77.757 113.8,-77.777 113.82,-77.798 113.84,-77.82 113.86,-77.841 113.87,-77.863 113.89,-77.885 113.91,-77.907 114,-78.019 114.09,-78.14 114.16,-78.267 114.24,-78.394 114.3,-78.526 114.36,-78.661 114.39,-78.741 114.42,-78.822 114.45,-78.903 114.46,-78.93 114.47,-78.957 114.47,-78.984 114.48,-79.01 114.49,-79.037 114.49,-79.064 114.5,-79.089 114.51,-79.141 114.51,-79.141 M114.51,-79.146 C114.51,-79.146 114.51,-79.131 114.51,-79.124 M113.32,-77.378 C113.32,-77.378 113.33,-77.385 113.34,-77.389 113.36,-77.401 113.38,-77.414 113.4,-77.428 113.42,-77.441 113.44,-77.455 113.46,-77.47 113.5,-77.499 113.54,-77.53 113.58,-77.564 113.6,-77.581 113.64,-77.615 113.64,-77.615"/>
      <path stroke="#000" d="M115.35,-79.513 C115.35,-79.513 115.29,-79.5 115.26,-79.492 115.22,-79.483 115.19,-79.473 115.16,-79.462 115.12,-79.45 115.08,-79.437 115.05,-79.423 115.01,-79.409 114.98,-79.395 114.95,-79.38 114.88,-79.349 114.8,-79.313 114.73,-79.275 114.7,-79.255 114.66,-79.234 114.62,-79.213 114.59,-79.193 114.52,-79.151 114.53,-79.155 114.53,-79.155 114.37,-79.049 114.29,-78.995 114.26,-78.968 114.22,-78.94 114.18,-78.911 114.14,-78.879 114.1,-78.847 114.07,-78.813 114.03,-78.78 113.99,-78.746 113.95,-78.711 113.84,-78.601 113.74,-78.483 113.65,-78.367 113.62,-78.326 113.59,-78.283 113.56,-78.24 113.54,-78.198 113.49,-78.111 113.49,-78.111 M113.31,-77.397 C113.31,-77.397 113.31,-77.465 113.31,-77.499 113.32,-77.541 113.32,-77.582 113.33,-77.623 113.33,-77.665 113.34,-77.706 113.35,-77.747 113.37,-77.829 113.4,-77.914 113.43,-77.994 113.45,-78.038 113.49,-78.122 113.49,-78.122 M115.32,-79.506 C115.32,-79.506 115.36,-79.513 115.38,-79.515 115.41,-79.517 115.43,-79.517 115.46,-79.516 115.51,-79.513 115.61,-79.489 115.61,-79.489 M113.42,-76.982 C113.42,-76.982 113.39,-77.051 113.38,-77.087 113.36,-77.123 113.35,-77.159 113.34,-77.196 113.33,-77.234 113.33,-77.272 113.32,-77.31 113.32,-77.347 113.31,-77.421 113.31,-77.421 M113.41,-77.011 C113.41,-77.011 113.44,-76.945 113.46,-76.913 113.48,-76.878 113.5,-76.844 113.52,-76.811 M122.07,-75.003 C122.01,-74.967 121.95,-74.931 121.88,-74.895 121.41,-74.647 121.01,-73.993 120.99,-73.434 120.99,-73.122 120.96,-72.733 121.26,-72.531 121.3,-72.5 121.35,-72.476 121.41,-72.461 M121.26,-72.531 L144.6,-59.056 M120.99,-73.237 C121,-73.562 121.12,-73.93 121.32,-74.261 121.53,-74.592 121.8,-74.859 122.07,-75.003 122.34,-75.146 122.6,-75.155 122.79,-75.028 130.67,-70.477 138.5,-65.954 146.38,-61.404 M147.06,-55.034 C147.29,-55.101 147.52,-55.169 147.75,-55.236 149.8,-55.856 148.51,-60.218 146.45,-59.596 146.22,-59.528 145.99,-59.461 145.76,-59.394 M145.76,-59.394 C147.81,-60.016 149.1,-55.654 147.06,-55.034 145,-54.412 143.71,-58.774 145.76,-59.394 Z M155.9,-29.7 C155.87,-29.791 155.88,-29.884 155.93,-29.941 155.94,-29.958 155.96,-29.973 155.98,-29.982 156.03,-30.004 156.08,-30.031 156.13,-30.061 156.22,-30.122 156.31,-30.2 156.39,-30.293 156.5,-30.432 156.59,-30.602 156.66,-30.797 156.88,-31.462 156.75,-32.321 156.34,-32.98 155.48,-34.336 154.65,-35.709 153.85,-37.099 152.52,-39.426 151.25,-41.815 150.05,-44.258 148.61,-47.19 147.28,-50.196 146.06,-53.263 145.32,-55.129 142.9,-60.218 146.26,-61.368 147.56,-61.814 149.11,-60.84 149.91,-59.063 150.63,-57.472 150.32,-55.857 150.3,-54.173 150.27,-51.237 150.64,-48.212 151.4,-45.247 152.17,-42.282 153.3,-39.426 154.76,-36.82 155.12,-36.17 155.5,-35.537 155.9,-34.924 156.3,-34.321 156.78,-33.755 157.09,-33.101 157.46,-32.311 157.59,-31.405 157.44,-30.62 157.28,-29.835 156.86,-29.249 156.29,-29.017 156.24,-28.998 156.19,-29.008 156.14,-29.045 156.09,-29.082 156.05,-29.142 156.03,-29.21 155.99,-29.373 155.94,-29.537 155.9,-29.7 Z M149.55,-62.328 C149.9,-62.43 150.25,-62.53 150.59,-62.632 151.9,-63.078 153.44,-62.104 154.25,-60.327 154.97,-58.736 154.66,-57.121 154.64,-55.437 154.6,-52.501 154.98,-49.476 155.74,-46.511 156.5,-43.546 157.64,-40.69 159.1,-38.084 159.46,-37.434 159.84,-36.801 160.24,-36.188 160.63,-35.585 161.12,-35.019 161.43,-34.365 161.8,-33.575 161.93,-32.669 161.77,-31.884 161.62,-31.099 161.2,-30.513 160.62,-30.281 159.17,-29.858 157.73,-29.439 156.29,-29.017 M148.94,-53.728 C148.94,-53.728 148.75,-53.675 148.65,-53.646 148.58,-53.625 148.51,-53.606 148.44,-53.592 148.3,-53.564 148.16,-53.551 148.01,-53.553 147.86,-53.555 147.71,-53.573 147.56,-53.606 147.49,-53.623 147.41,-53.643 147.34,-53.667 147.26,-53.691 147.19,-53.719 147.12,-53.75 147.08,-53.764 147.05,-53.766 147.02,-53.757 146.98,-53.743 146.94,-53.703 146.92,-53.647 146.9,-53.591 146.91,-53.523 146.93,-53.458 147,-53.228 147.08,-52.998 147.15,-52.769 147.23,-52.542 147.32,-52.314 147.4,-52.089 147.58,-51.639 147.76,-51.195 147.96,-50.758 148.16,-50.322 148.37,-49.894 148.59,-49.475 148.7,-49.266 148.81,-49.059 148.93,-48.854 149.04,-48.651 149.16,-48.448 149.29,-48.248 149.34,-48.154 149.43,-48.113 149.51,-48.147 149.58,-48.181 149.62,-48.283 149.6,-48.395 149.56,-48.606 149.52,-48.817 149.49,-49.028 149.46,-49.239 149.43,-49.45 149.4,-49.662 149.37,-49.872 149.34,-50.084 149.32,-50.295 149.29,-50.505 149.27,-50.717 149.25,-50.928 149.23,-51.138 149.21,-51.349 149.2,-51.559 149.18,-51.768 149.17,-51.979 149.16,-52.188 149.15,-52.397 149.14,-52.607 149.14,-52.816 149.13,-53.023 149.13,-53.232 149.12,-53.44 149.12,-53.525 149.09,-53.612 149.04,-53.67 148.98,-53.728 148.91,-53.748 148.86,-53.723 148.79,-53.693 148.72,-53.668 148.65,-53.646 M149.18,-51.862 C149.02,-51.816 148.87,-51.771 148.71,-51.725 148.64,-51.891 148.57,-52.059 148.51,-52.226 148.44,-52.394 148.38,-52.564 148.32,-52.733 148.25,-52.903 148.19,-53.074 148.14,-53.245 148.1,-53.347 148.04,-53.554 148.04,-53.554 M148.67,-51.816 L149.17,-51.962 M152.49,-52.634 C152.47,-52.928 152.45,-53.224 152.44,-53.52 152.43,-53.813 152.42,-54.107 152.42,-54.4 152.42,-54.485 152.39,-54.573 152.33,-54.63 152.28,-54.688 152.21,-54.708 152.15,-54.683 152.08,-54.654 152.02,-54.628 151.95,-54.607 151.88,-54.585 151.81,-54.567 151.74,-54.553 151.67,-54.539 151.6,-54.528 151.52,-54.522 151.46,-54.516 151.34,-54.515 151.34,-54.515 M152.08,-52.515 C152.08,-52.515 152.03,-52.626 152.01,-52.682 151.91,-52.904 151.82,-53.129 151.74,-53.353 151.65,-53.578 151.57,-53.806 151.49,-54.033 151.44,-54.182 151.34,-54.482 151.34,-54.482 M152.23,-54.689 L151.95,-54.607 M61.664,-73.517 L61.663,-73.516 M63.17,-73.24 C63.152,-73.459 62.94,-73.638 62.624,-73.702 62.309,-73.766 61.947,-73.702 61.696,-73.538 61.685,-73.531 61.675,-73.524 61.664,-73.517 61.658,-73.512 61.642,-73.5 61.635,-73.494 61.625,-73.487 61.616,-73.479 61.607,-73.472 61.598,-73.464 61.589,-73.456 61.58,-73.448 61.572,-73.44 61.563,-73.432 61.555,-73.423 61.523,-73.39 61.496,-73.356 61.474,-73.32 61.425,-73.239 61.403,-73.154 61.41,-73.071 61.43,-72.822 61.702,-72.627 62.078,-72.591 62.219,-72.577 62.366,-72.587 62.507,-72.619 62.577,-72.635 62.644,-72.656 62.708,-72.682 62.746,-72.697 62.783,-72.715 62.817,-72.734 62.829,-72.74 62.84,-72.746 62.851,-72.753 62.862,-72.76 62.873,-72.766 62.884,-72.773 62.892,-72.779 62.909,-72.79 62.915,-72.795 63.09,-72.919 63.183,-73.081 63.17,-73.24 Z M62.852,-73.095 L62.442,-72.803 61.88,-72.864 61.727,-73.216 62.137,-73.508 62.7,-73.447 62.852,-73.095 M63.175,-73.194 L63.17,-73.24 M61.41,-73.071 L61.415,-73.024 M69.245,-69.733 C69.227,-69.951 69.014,-70.131 68.699,-70.195 68.384,-70.258 68.022,-70.194 67.77,-70.03 67.76,-70.024 67.749,-70.017 67.739,-70.009 67.739,-70.009 67.739,-70.009 67.739,-70.009 67.734,-70.005 67.717,-69.993 67.709,-69.987 67.7,-69.98 67.691,-69.972 67.681,-69.964 67.672,-69.957 67.663,-69.949 67.655,-69.94 67.646,-69.933 67.638,-69.924 67.63,-69.916 67.598,-69.883 67.571,-69.848 67.549,-69.813 67.5,-69.732 67.478,-69.647 67.484,-69.563 67.505,-69.315 67.776,-69.12 68.153,-69.084 68.294,-69.07 68.441,-69.08 68.582,-69.111 68.652,-69.127 68.719,-69.148 68.783,-69.174 68.821,-69.19 68.857,-69.207 68.892,-69.226 68.903,-69.232 68.915,-69.239 68.926,-69.246 68.937,-69.252 68.948,-69.259 68.959,-69.266 68.967,-69.271 68.984,-69.283 68.99,-69.287 69.165,-69.412 69.258,-69.574 69.245,-69.733 Z M68.927,-69.588 L68.517,-69.296 67.955,-69.357 67.802,-69.709 68.212,-70 68.774,-69.94 68.927,-69.588 M69.25,-69.686 L69.245,-69.733 M67.484,-69.563 L67.489,-69.516 M46.147,-45.498 L46.023,-46.657 44.959,-45.899 43.045,-47.004 M61.432,-72.932 C61.432,-72.932 61.432,-72.931 61.432,-72.93 61.432,-72.93 61.433,-72.928 61.433,-72.928 M61.483,-72.815 C61.483,-72.815 61.484,-72.813 61.484,-72.813 61.484,-72.812 61.485,-72.811 61.485,-72.811 M61.566,-72.712 C61.566,-72.712 61.567,-72.711 61.567,-72.71 61.568,-72.71 61.569,-72.709 61.569,-72.709 M61.676,-72.629 C61.676,-72.629 61.677,-72.628 61.678,-72.628 61.678,-72.627 61.68,-72.627 61.68,-72.627 M61.811,-72.57 C61.811,-72.57 61.812,-72.569 61.812,-72.569 61.813,-72.569 61.815,-72.569 61.815,-72.569 M61.962,-72.536 C61.962,-72.536 61.963,-72.536 61.964,-72.536 61.964,-72.536 61.966,-72.536 61.966,-72.536 M62.126,-72.529 C62.126,-72.529 62.127,-72.529 62.128,-72.529 62.128,-72.529 62.13,-72.529 62.13,-72.529 M62.296,-72.545 C62.296,-72.545 62.297,-72.545 62.297,-72.545 62.297,-72.545 62.298,-72.546 62.298,-72.546 M62.466,-72.583 C62.466,-72.583 62.466,-72.584 62.467,-72.584 62.467,-72.584 62.467,-72.584 62.467,-72.584 M62.63,-72.64 C62.63,-72.64 62.63,-72.64 62.631,-72.64 62.631,-72.641 62.631,-72.641 62.631,-72.641 M70.19,-70.141 C67.599,-71.637 65.024,-73.124 62.432,-74.62 61.783,-75.04 60.801,-74.777 59.895,-73.941 58.989,-73.104 58.313,-71.837 58.149,-70.666 50.863,-65.485 43.622,-60.334 36.336,-55.152 M62.921,-72.799 C62.921,-72.799 62.917,-72.796 62.915,-72.795 62.913,-72.793 62.909,-72.791 62.909,-72.791 M67.506,-69.425 C67.506,-69.425 67.506,-69.424 67.507,-69.423 67.507,-69.423 67.507,-69.422 67.507,-69.422 M67.558,-69.307 C67.558,-69.307 67.558,-69.306 67.559,-69.306 67.559,-69.305 67.559,-69.305 67.559,-69.305 M67.64,-69.205 C67.64,-69.205 67.641,-69.204 67.641,-69.204 67.641,-69.203 67.642,-69.203 67.642,-69.203 M67.751,-69.122 C67.751,-69.122 67.752,-69.121 67.752,-69.121 67.753,-69.121 67.753,-69.12 67.753,-69.12 M67.885,-69.062 C67.885,-69.062 67.886,-69.062 67.886,-69.062 67.886,-69.062 67.887,-69.062 67.887,-69.062 M68.037,-69.029 C68.037,-69.029 68.037,-69.029 68.038,-69.029 68.038,-69.029 68.039,-69.029 68.039,-69.029 M68.201,-69.021 C68.201,-69.021 68.202,-69.021 68.202,-69.021 68.202,-69.021 68.203,-69.021 68.203,-69.021 M68.37,-69.038 C68.37,-69.038 68.371,-69.038 68.371,-69.038 68.371,-69.038 68.372,-69.038 68.372,-69.038 M68.54,-69.076 C68.54,-69.076 68.541,-69.076 68.541,-69.076 68.541,-69.076 68.542,-69.076 68.542,-69.076 M68.704,-69.133 C68.704,-69.133 68.704,-69.133 68.704,-69.133 68.704,-69.133 68.704,-69.133 68.704,-69.133 M68.856,-69.204 C68.856,-69.204 68.856,-69.204 68.856,-69.204 68.856,-69.204 68.856,-69.204 68.856,-69.204 M68.983,-69.283 C68.983,-69.283 68.987,-69.286 68.989,-69.287 68.991,-69.288 68.995,-69.291 68.995,-69.291 M65.263,-59.094 L46.147,-45.498 45.18,-46.057 M45.628,-49.788 C42.286,-51.717 38.964,-53.635 35.622,-55.565 34.706,-56.145 33.2,-55.365 32.189,-53.787 31.723,-53.06 31.404,-52.195 31.325,-51.45 31.246,-50.705 31.417,-50.165 31.787,-49.99 35.129,-48.061 38.451,-46.143 41.793,-44.213 M74.327,-66.242 C74.327,-66.242 74.251,-66.187 74.214,-66.159 74.173,-66.127 74.131,-66.094 74.091,-66.061 74.05,-66.027 74.009,-65.992 73.97,-65.956 73.849,-65.849 73.73,-65.733 73.615,-65.609 73.383,-65.358 73.168,-65.08 72.977,-64.784 72.596,-64.19 72.317,-63.527 72.178,-62.887 72.019,-62.152 72.052,-61.442 72.269,-60.933 72.411,-60.601 72.62,-60.32 72.917,-60.112 73.053,-60.016 73.221,-59.941 73.419,-59.886 73.504,-59.863 73.591,-59.851 73.678,-59.841 73.718,-59.836 73.785,-59.832 73.831,-59.831 73.854,-59.831 73.899,-59.833 73.899,-59.833 M78.329,-57.945 C78.329,-57.945 78.147,-57.888 78.053,-57.87 77.96,-57.852 77.865,-57.84 77.77,-57.837 77.495,-57.828 77.245,-57.891 77.033,-58.023 76.23,-58.524 76.106,-59.929 76.734,-61.416 78.027,-64.478 79.323,-67.549 80.615,-70.61 81.777,-73.363 84.107,-77.36 86.604,-80.883 87.341,-81.958 87.939,-83.139 88.351,-84.336 88.58,-84.999 88.749,-85.658 88.854,-86.299 88.875,-86.426 88.894,-86.554 88.91,-86.681 88.931,-86.846 88.925,-87.066 88.996,-87.233 89.063,-87.389 89.195,-87.539 89.35,-87.634 89.506,-87.729 89.663,-87.757 89.771,-87.707 90.076,-87.568 89.939,-87.054 89.908,-86.833 89.87,-86.567 89.824,-86.298 89.769,-86.027 89.631,-85.348 89.44,-84.657 89.198,-83.964 88.81,-82.853 88.298,-81.751 87.681,-80.703 84.407,-76.008 80.424,-70.076 81.127,-64.003 81.181,-63.69 81.234,-63.378 81.288,-63.064 M86.18,-89.776 C86.18,-89.776 86.192,-89.773 86.197,-89.771 M86.159,-89.783 C86.159,-89.783 86.142,-89.789 86.134,-89.791 86.111,-89.796 86.087,-89.797 86.064,-89.797 86.039,-89.797 86.014,-89.794 85.989,-89.789 85.938,-89.778 85.885,-89.758 85.831,-89.73 85.751,-89.686 85.67,-89.623 85.595,-89.545 85.502,-89.449 85.426,-89.337 85.392,-89.206 85.385,-89.178 85.379,-89.149 85.377,-89.119 85.366,-88.994 85.352,-88.869 85.337,-88.744 85.289,-88.365 85.218,-87.978 85.124,-87.585 84.999,-87.062 84.835,-86.531 84.634,-86.002 84.23,-84.94 83.685,-83.9 83.031,-82.946 80.534,-79.423 78.203,-75.426 77.042,-72.673 75.749,-69.612 74.453,-66.541 73.161,-63.479 72.533,-61.992 72.657,-60.587 73.46,-60.086 74.653,-59.397 75.84,-58.712 77.033,-58.023 M86.197,-89.771 L89.771,-87.707 M86.074,-89.797 L86.085,-89.795 M86.172,-89.781 L89.745,-87.718 89.647,-87.734 86.074,-89.797 M81.362,-63.021 C81.004,-63.227 80.648,-63.433 80.29,-63.64 79.461,-64.087 78.137,-63.298 77.334,-61.876 76.532,-60.455 76.554,-58.939 77.384,-58.491 77.742,-58.285 78.098,-58.079 78.456,-57.872 M78.456,-57.872 C79.285,-57.425 80.609,-58.214 81.412,-59.636 82.214,-61.057 82.192,-62.573 81.362,-63.021 80.533,-63.468 79.209,-62.679 78.406,-61.257 77.604,-59.836 77.626,-58.32 78.456,-57.872 Z M121.36,-51.621 C121.06,-52.393 120.41,-52.72 119.72,-53.115 119.25,-53.39 118.58,-53.281 117.91,-52.817 117.24,-52.354 116.64,-51.585 116.26,-50.721 115.89,-49.858 115.78,-48.991 115.98,-48.359 116.09,-48.012 116.28,-47.752 116.54,-47.6 116.85,-47.423 117.26,-47.133 117.64,-47.016 119.06,-46.577 120.59,-47.56 121.3,-49.368 121.6,-50.124 121.62,-50.925 121.36,-51.621 Z M101.5,-62.236 C106.95,-59.089 117.87,-52.785 117.87,-52.785 M101.59,-62.172 C101.56,-62.196 101.53,-62.217 101.5,-62.236 100.96,-62.55 100.07,-62.041 99.53,-61.098 98.986,-60.155 98.986,-59.136 99.53,-58.822 105,-55.666 110.43,-52.528 115.9,-49.372 M52.544,-89.904 C52.544,-89.904 52.55,-89.928 52.552,-89.94 52.563,-89.986 52.573,-90.033 52.582,-90.08 52.591,-90.126 52.599,-90.172 52.606,-90.218 52.613,-90.264 52.62,-90.31 52.625,-90.355 52.647,-90.536 52.654,-90.711 52.647,-90.877 52.63,-91.251 52.541,-91.574 52.384,-91.823 52.135,-92.216 51.658,-92.402 51.275,-92.621 51.1,-92.721 50.911,-92.796 50.714,-92.841 49.554,-93.108 48.298,-92.42 47.537,-91.103 46.777,-89.785 46.809,-88.353 47.62,-87.482 47.757,-87.334 47.917,-87.208 48.092,-87.106 48.472,-86.884 48.871,-86.564 49.337,-86.546 49.63,-86.534 49.955,-86.618 50.288,-86.791 50.435,-86.867 50.583,-86.961 50.728,-87.07 50.765,-87.098 50.802,-87.126 50.837,-87.155 50.874,-87.184 50.91,-87.214 50.945,-87.245 50.981,-87.276 51.017,-87.308 51.052,-87.341 51.061,-87.349 51.078,-87.366 51.078,-87.366 M53.668,-85.871 C52.331,-86.643 51.002,-87.41 49.665,-88.182 49.261,-88.415 49.261,-89.173 49.665,-89.874 50.07,-90.575 50.726,-90.954 51.131,-90.72 52.464,-89.951 53.8,-89.179 55.133,-88.409 M96.398,-121.32 C96.386,-121.32 96.363,-121.32 96.363,-121.32 M96.318,-121.32 C96.318,-121.32 96.315,-121.32 96.314,-121.32 96.3,-121.32 96.273,-121.32 96.273,-121.32 M96.235,-121.33 C96.235,-121.33 96.232,-121.33 96.23,-121.33 96.214,-121.33 96.183,-121.34 96.183,-121.34"/>
      <path stroke="#000" d="M96.157,-121.35 C96.157,-121.35 96.153,-121.35 96.151,-121.35 96.133,-121.35 96.097,-121.36 96.097,-121.36 M96.085,-121.37 C96.085,-121.37 96.081,-121.37 96.079,-121.37 96.057,-121.38 96.036,-121.39 96.016,-121.4 95.998,-121.41 95.981,-121.42 95.965,-121.44 95.952,-121.45 95.939,-121.46 95.929,-121.48 95.92,-121.49 95.912,-121.5 95.908,-121.52 95.907,-121.52 95.907,-121.53 95.907,-121.53 M96.478,-121.33 L96.448,-121.32 M96.401,-121.32 C96.401,-121.32 96.399,-121.32 96.398,-121.32 M90.95,-124.49 C90.95,-124.49 91.557,-137.06 91.863,-143.34 91.882,-143.73 92.049,-144.04 92.32,-144.2 92.59,-144.35 92.933,-144.33 93.253,-144.14 94.448,-143.44 95.647,-142.74 96.84,-142.03 97.337,-141.74 97.705,-141.01 97.674,-140.38 97.393,-134.54 96.825,-122.84 96.825,-122.84 M95.985,-123.26 C95.985,-123.26 96.54,-134.71 96.816,-140.43 96.817,-140.45 96.818,-140.47 96.817,-140.49 96.816,-140.51 96.815,-140.53 96.813,-140.55 96.812,-140.57 96.807,-140.59 96.807,-140.59 96.808,-140.59 96.799,-140.64 96.794,-140.66 96.788,-140.69 96.782,-140.71 96.775,-140.73 96.76,-140.78 96.743,-140.83 96.723,-140.88 96.703,-140.92 96.68,-140.97 96.655,-141.01 96.643,-141.03 96.63,-141.05 96.616,-141.07 96.603,-141.09 96.574,-141.13 96.574,-141.13 96.576,-141.13 96.558,-141.15 96.549,-141.16 96.535,-141.18 96.52,-141.19 96.505,-141.21 96.491,-141.22 96.476,-141.24 96.461,-141.25 96.431,-141.28 96.399,-141.3 96.368,-141.32 95.174,-142.02 92.781,-143.43 92.781,-143.43 M92.734,-143.4 C92.734,-143.4 92.728,-143.37 92.726,-143.35 92.723,-143.33 92.721,-143.31 92.721,-143.29 92.416,-137.01 92.111,-130.71 91.807,-124.43 M92.697,-143.45 C92.697,-143.45 92.726,-143.45 92.74,-143.44 92.755,-143.44 92.769,-143.43 92.783,-143.43 92.79,-143.42 92.804,-143.41 92.804,-143.41 M92.712,-143.44 L92.729,-143.44 M92.734,-143.44 L92.714,-143.43 M92.742,-143.43 L92.747,-143.44 M92.723,-143.36 C92.723,-143.36 92.731,-143.39 92.736,-143.4 92.74,-143.42 92.75,-143.44 92.74,-143.44 92.74,-143.44 92.726,-143.44 92.719,-143.45 92.706,-143.45 92.681,-143.44 92.681,-143.44 M96.801,-118.35 C96.801,-118.35 96.723,-118.25 96.683,-118.21 96.643,-118.17 96.602,-118.12 96.56,-118.08 96.518,-118.04 96.474,-118 96.43,-117.97 92.617,-114.67 88.805,-111.35 84.997,-108.05 M85.554,-107.4 C89.373,-110.71 93.169,-114 96.987,-117.31 98.109,-118.29 98.716,-119.92 98.423,-121.19 98.131,-122.45 97.025,-122.98 95.803,-122.43 94.667,-121.92 93.747,-120.76 93.45,-119.44 93.29,-118.74 93.366,-118.08 93.658,-117.63 93.841,-117.35 94.1,-117.15 94.404,-117.05 94.535,-117.01 94.718,-116.98 94.857,-116.99 94.961,-116.99 95.104,-117 95.199,-117.02 95.245,-117.03 95.291,-117.04 95.336,-117.05 95.358,-117.06 95.402,-117.07 95.402,-117.07 M97.641,-120.69 C97.641,-120.69 97.645,-120.57 97.645,-120.52 97.644,-120.46 97.642,-120.41 97.638,-120.35 97.634,-120.3 97.628,-120.24 97.62,-120.18 97.605,-120.07 97.583,-119.95 97.554,-119.83 97.496,-119.6 97.405,-119.35 97.301,-119.13 97.271,-119.07 97.242,-119.02 97.212,-118.96 97.181,-118.9 97.149,-118.85 97.116,-118.79 97.082,-118.74 97.048,-118.68 97.012,-118.63 96.977,-118.58 96.94,-118.53 96.902,-118.48 96.865,-118.43 96.788,-118.33 96.788,-118.33 M97.362,-121.49 C97.362,-121.49 97.406,-121.43 97.426,-121.4 97.449,-121.37 97.47,-121.33 97.49,-121.29 97.51,-121.25 97.545,-121.17 97.545,-121.17 M96.946,-121.75 C96.946,-121.75 96.863,-121.77 96.822,-121.77 96.785,-121.77 96.712,-121.77 96.718,-121.78 96.68,-121.77 96.642,-121.77 96.604,-121.77 M94.229,-118.61 C94.229,-118.61 94.234,-118.55 94.238,-118.52 94.244,-118.48 94.25,-118.45 94.258,-118.41 94.266,-118.37 94.274,-118.34 94.285,-118.31 94.295,-118.27 94.321,-118.2 94.321,-118.2 M94.23,-118.59 C94.23,-118.59 94.225,-118.68 94.225,-118.72 94.225,-118.76 94.227,-118.81 94.229,-118.85 94.232,-118.9 94.236,-118.95 94.242,-118.99 94.247,-119.04 94.254,-119.09 94.262,-119.13 94.271,-119.18 94.28,-119.23 94.291,-119.28 94.302,-119.33 94.315,-119.37 94.328,-119.42 94.34,-119.46 94.366,-119.55 94.366,-119.55 94.365,-119.54 94.399,-119.64 94.419,-119.7 94.438,-119.75 94.459,-119.8 94.48,-119.85 94.502,-119.9 94.525,-119.95 94.549,-120 94.574,-120.05 94.599,-120.1 94.625,-120.15 94.652,-120.2 94.68,-120.25 94.708,-120.29 94.821,-120.49 94.948,-120.67 95.092,-120.84 95.233,-121 95.387,-121.15 95.549,-121.28 95.589,-121.31 95.63,-121.35 95.671,-121.38 95.712,-121.41 95.754,-121.43 95.796,-121.46 95.837,-121.49 95.879,-121.51 95.922,-121.54 95.964,-121.56 96.006,-121.58 96.049,-121.6 96.091,-121.62 96.177,-121.66 96.177,-121.66 M95.148,-117.89 C95.148,-117.89 95.069,-117.87 95.029,-117.86 94.996,-117.86 94.928,-117.85 94.928,-117.85 M95.413,-118 C95.413,-118 95.492,-118.04 95.529,-118.07 95.569,-118.09 95.607,-118.12 95.645,-118.14 95.721,-118.2 95.797,-118.26 95.872,-118.32 95.909,-118.36 95.946,-118.39 95.982,-118.42 96.018,-118.46 96.054,-118.5 96.089,-118.53 96.124,-118.57 96.193,-118.65 96.186,-118.64 96.186,-118.64 96.25,-118.72 96.28,-118.76 96.314,-118.8 96.346,-118.85 96.378,-118.89 96.442,-118.98 96.503,-119.08 96.56,-119.17 96.671,-119.36 96.776,-119.58 96.848,-119.77 96.944,-120.03 97.008,-120.29 97.04,-120.54 97.046,-120.59 97.051,-120.64 97.054,-120.69 97.058,-120.74 97.06,-120.79 97.06,-120.84 97.061,-120.89 97.06,-120.94 97.058,-120.99 97.056,-121.03 97.053,-121.08 97.048,-121.13 97.045,-121.16 97.036,-121.21 97.037,-121.21 97.037,-121.21 97.021,-121.3 97.011,-121.34 97.001,-121.38 96.99,-121.42 96.977,-121.46 96.957,-121.52 96.933,-121.59 96.902,-121.65 96.885,-121.68 96.866,-121.71 96.846,-121.74 96.841,-121.75 96.829,-121.77 96.829,-121.77 M97.284,-122.54 C97.284,-122.54 97.278,-122.55 97.274,-122.55 97.259,-122.57 97.242,-122.58 97.226,-122.59 97.188,-122.62 97.152,-122.65 97.113,-122.68 97.026,-122.74 96.909,-122.8 96.808,-122.84 96.607,-122.92 96.393,-122.97 96.177,-122.97 95.815,-122.98 95.461,-122.88 95.135,-122.73 94.545,-122.46 93.974,-121.96 93.542,-121.32 93.085,-120.65 92.805,-119.84 92.788,-119.15 92.778,-118.72 92.869,-118.32 93.044,-118.02 93.128,-117.88 93.231,-117.76 93.339,-117.66 93.418,-117.6 93.526,-117.52 93.601,-117.48 93.638,-117.47 93.677,-117.45 93.715,-117.43 93.736,-117.43 93.757,-117.42 93.778,-117.41 93.804,-117.4 93.855,-117.38 93.855,-117.38 M96.705,-122.88 C96.705,-122.88 96.633,-122.95 96.595,-122.98 96.554,-123.01 96.511,-123.04 96.467,-123.07 96.429,-123.09 96.338,-123.14 96.286,-123.16 96.089,-123.25 95.882,-123.3 95.667,-123.31 95.336,-123.33 94.947,-123.25 94.62,-123.1 93.932,-122.79 93.357,-122.27 92.899,-121.57 92.482,-120.93 92.24,-120.22 92.21,-119.56 92.191,-119.13 92.27,-118.73 92.44,-118.41 92.532,-118.24 92.66,-118.09 92.81,-117.97 92.898,-117.9 92.991,-117.84 93.092,-117.79 93.101,-117.79 93.111,-117.78 93.121,-117.78 93.171,-117.76 93.222,-117.74 93.274,-117.73 93.275,-117.73 93.277,-117.72 93.277,-117.72 M95.459,-118.02 C95.421,-118 95.383,-117.98 95.345,-117.97 95.345,-117.97 95.27,-117.93 95.232,-117.92 95.2,-117.91 95.136,-117.89 95.136,-117.89 M97.241,-121.61 C97.241,-121.61 97.281,-121.57 97.3,-121.56 97.335,-121.52 97.4,-121.45 97.4,-121.45 M97.526,-121.21 C97.526,-121.21 97.557,-121.13 97.569,-121.09 97.583,-121.04 97.595,-121 97.605,-120.95 97.615,-120.9 97.624,-120.85 97.63,-120.8 97.637,-120.75 97.645,-120.65 97.645,-120.65 M97.115,-121.69 C97.115,-121.69 97.041,-121.72 97.003,-121.73 96.967,-121.74 96.892,-121.76 96.892,-121.76 M97.259,-121.6 C97.259,-121.6 97.195,-121.64 97.162,-121.66 97.136,-121.68 97.082,-121.7 97.082,-121.7 M96.146,-121.65 C96.146,-121.65 96.221,-121.68 96.259,-121.69 96.299,-121.7 96.341,-121.72 96.382,-121.73 96.463,-121.75 96.542,-121.76 96.625,-121.77 M94.726,-117.86 C94.726,-117.86 94.762,-117.85 94.781,-117.85 94.814,-117.84 94.847,-117.84 94.881,-117.84 94.915,-117.84 94.984,-117.85 94.984,-117.85 M94.751,-117.85 C94.751,-117.85 94.69,-117.86 94.66,-117.87 94.642,-117.88 94.605,-117.89 94.605,-117.89 M94.507,-117.95 C94.507,-117.95 94.54,-117.93 94.557,-117.92 94.583,-117.9 94.637,-117.88 94.637,-117.88 M94.418,-118.04 C94.418,-118.04 94.45,-118 94.467,-117.99 94.489,-117.97 94.536,-117.93 94.536,-117.93 M94.446,-118 C94.446,-118 94.406,-118.05 94.389,-118.08 94.371,-118.11 94.354,-118.14 94.339,-118.17 94.331,-118.18 94.317,-118.22 94.317,-118.22 M94.351,-118.19 C94.344,-118.19 94.337,-118.19 94.329,-118.19 94.333,-118.19 94.374,-118.19 94.394,-118.2 94.43,-118.2 94.466,-118.21 94.502,-118.22 94.54,-118.23 94.577,-118.24 94.613,-118.25 94.651,-118.26 94.726,-118.29 94.726,-118.29 M94.678,-118.27 C94.678,-118.27 94.754,-118.31 94.791,-118.33 94.83,-118.35 94.869,-118.37 94.907,-118.39 94.945,-118.41 94.981,-118.43 95.018,-118.46 95.054,-118.48 95.091,-118.51 95.126,-118.53 95.165,-118.56 95.203,-118.59 95.24,-118.62 95.353,-118.72 95.463,-118.82 95.567,-118.94 95.602,-118.98 95.636,-119.02 95.669,-119.06 95.703,-119.1 95.767,-119.19 95.763,-119.18 95.763,-119.18 95.824,-119.27 95.853,-119.31 95.884,-119.36 95.914,-119.4 95.943,-119.45 95.973,-119.5 96.001,-119.55 96.028,-119.6 96.055,-119.65 96.082,-119.7 96.107,-119.75 96.157,-119.85 96.203,-119.95 96.245,-120.06 96.265,-120.11 96.285,-120.16 96.303,-120.22 96.32,-120.26 96.35,-120.36 96.35,-120.36 96.349,-120.36 96.381,-120.47 96.395,-120.53 96.416,-120.62 96.438,-120.73 96.452,-120.82 96.466,-120.92 96.476,-121.03 96.48,-121.12 96.481,-121.17 96.482,-121.22 96.481,-121.27 96.48,-121.32 96.474,-121.41 96.474,-121.41 M96.479,-121.37 C96.479,-121.37 96.47,-121.46 96.464,-121.5 96.458,-121.54 96.45,-121.59 96.441,-121.63 96.433,-121.67 96.415,-121.73 96.415,-121.73 M94.227,-118.68 C94.227,-118.68 94.256,-118.69 94.27,-118.7 94.309,-118.72 94.348,-118.75 94.386,-118.77 94.425,-118.79 94.464,-118.82 94.501,-118.85 94.578,-118.9 94.654,-118.96 94.728,-119.03 94.766,-119.06 94.839,-119.13 94.839,-119.13 M96.001,-121.41 C96.001,-121.41 95.98,-121.42 95.97,-121.43 95.956,-121.44 95.943,-121.45 95.932,-121.47 95.923,-121.48 95.914,-121.49 95.91,-121.51 95.907,-121.51 95.906,-121.53 95.906,-121.53 95.902,-121.52 95.9,-121.44 95.897,-121.4 95.894,-121.35 95.889,-121.3 95.883,-121.25 95.872,-121.15 95.854,-121.04 95.832,-120.94 95.81,-120.84 95.782,-120.74 95.749,-120.63 95.733,-120.58 95.715,-120.53 95.697,-120.48 95.678,-120.43 95.637,-120.33 95.637,-120.33 95.637,-120.33 95.594,-120.23 95.571,-120.18 95.547,-120.13 95.522,-120.08 95.496,-120.03 95.47,-119.98 95.416,-119.88 95.416,-119.88 95.417,-119.88 95.361,-119.79 95.331,-119.74 95.272,-119.65 95.21,-119.56 95.144,-119.48 95.111,-119.44 95.078,-119.39 95.043,-119.35 95.009,-119.31 94.973,-119.27 94.936,-119.23 94.897,-119.19 94.816,-119.11 94.816,-119.11 M86.167,-121.9 L75.206,-113.86 M86.942,-121.4 L75.699,-113.15 M89.065,-124.86 C89.065,-124.86 89.101,-124.97 89.117,-125.03 89.148,-125.14 89.172,-125.25 89.189,-125.36 89.197,-125.41 89.204,-125.47 89.209,-125.52 89.213,-125.57 89.216,-125.62 89.217,-125.67 89.218,-125.7 89.215,-125.78 89.215,-125.78 M89.068,-124.87 C89.068,-124.87 89.031,-124.76 89.01,-124.71 88.987,-124.65 88.963,-124.59 88.937,-124.54 88.886,-124.43 88.823,-124.3 88.762,-124.2 88.73,-124.14 88.697,-124.09 88.662,-124.03 88.628,-123.98 88.591,-123.92 88.553,-123.87 88.517,-123.82 88.441,-123.72 88.441,-123.72 88.441,-123.72 88.362,-123.63 88.321,-123.58 88.28,-123.53 88.238,-123.49 88.195,-123.44 88.07,-123.32 87.919,-123.18 87.789,-123.09 87.705,-123.03 87.621,-122.97 87.538,-122.9 M89.584,-127.07 C89.584,-127.07 89.523,-127.12 89.492,-127.15 89.475,-127.16 89.456,-127.18 89.437,-127.19 89.398,-127.22 89.361,-127.25 89.32,-127.27 89.297,-127.29 89.263,-127.3 89.226,-127.32 89.189,-127.34 89.154,-127.35 89.129,-127.36 88.971,-127.42 88.804,-127.46 88.634,-127.47 88.262,-127.47 87.878,-127.36 87.495,-127.13 86.904,-126.77 86.34,-126.13 85.975,-125.4 85.624,-124.7 85.46,-123.91 85.535,-123.28 85.582,-122.88 85.687,-122.51 85.917,-122.18 86.012,-122.04 86.128,-121.93 86.258,-121.82 86.278,-121.81 86.308,-121.78 86.34,-121.76 86.372,-121.74 86.404,-121.72 86.427,-121.71 86.467,-121.68 86.51,-121.66 86.553,-121.64 86.571,-121.63 86.592,-121.62 86.611,-121.61 86.654,-121.6 86.741,-121.56 86.741,-121.56 M89.625,-124.45 C89.625,-124.45 89.587,-124.35 89.566,-124.3 89.545,-124.25 89.522,-124.2 89.499,-124.15 89.475,-124.1 89.45,-124.05 89.424,-124 89.398,-123.95 89.369,-123.9 89.341,-123.85 89.314,-123.81 89.286,-123.76 89.257,-123.71 89.226,-123.66 89.195,-123.62 89.162,-123.57 89.13,-123.52 89.062,-123.43 89.062,-123.43 89.065,-123.44 88.998,-123.35 88.962,-123.31 88.927,-123.27 88.891,-123.23 88.854,-123.19 88.744,-123.07 88.628,-122.96 88.507,-122.86 88.386,-122.76 88.262,-122.67 88.136,-122.6 88.094,-122.57 88.052,-122.55 88.009,-122.53 87.968,-122.51 87.925,-122.49 87.882,-122.47 87.85,-122.45 87.783,-122.43 87.783,-122.43 M90.16,-126.72 C90.16,-126.72 90.136,-126.75 90.122,-126.76 90.091,-126.79 90.058,-126.82 90.025,-126.84 90.007,-126.86 89.988,-126.87 89.969,-126.88 89.88,-126.94 89.788,-126.99 89.688,-127.03 89.496,-127.1 89.304,-127.13 89.113,-127.12 88.766,-127.11 88.433,-126.99 88.132,-126.82 87.543,-126.49 86.981,-125.87 86.599,-125.13 86.229,-124.42 86.049,-123.65 86.106,-123.02 86.142,-122.62 86.234,-122.22 86.462,-121.89 86.565,-121.73 86.686,-121.59 86.833,-121.48 86.928,-121.41 86.966,-121.38 87.071,-121.33 87.114,-121.3 87.158,-121.29 87.201,-121.27 87.221,-121.26 87.239,-121.25 87.259,-121.24 87.279,-121.24 87.318,-121.22 87.318,-121.22 M89.747,-125.79 L89.702,-125.9 M89.717,-125.87 C89.709,-125.89 89.691,-125.92 89.691,-125.92 M88.551,-122.16 C88.551,-122.16 88.623,-122.2 88.658,-122.22 88.702,-122.24 88.747,-122.27 88.79,-122.3 88.873,-122.35 88.955,-122.41 89.036,-122.48 89.117,-122.54 89.196,-122.61 89.273,-122.68 89.311,-122.72 89.386,-122.8 89.386,-122.8 M89.375,-122.78 C89.375,-122.78 89.451,-122.87 89.487,-122.91 89.524,-122.95 89.56,-122.99 89.595,-123.04 89.665,-123.13 89.732,-123.22 89.795,-123.31 89.858,-123.4 89.917,-123.5 89.971,-123.6 89.998,-123.65 90.024,-123.7 90.049,-123.75 90.071,-123.79 90.114,-123.89 90.111,-123.88 90.111,-123.88 90.153,-123.98 90.173,-124.03 90.192,-124.08 90.21,-124.13 90.227,-124.18 90.244,-124.23 90.275,-124.33 90.275,-124.33 M91.023,-126 C91.023,-126 90.984,-126.07 90.962,-126.11 90.938,-126.15 90.911,-126.18 90.885,-126.22 90.839,-126.28 90.827,-126.3 90.76,-126.37 90.639,-126.49 90.511,-126.58 90.377,-126.64 90.072,-126.79 89.734,-126.81 89.405,-126.75 88.864,-126.64 88.273,-126.26 87.794,-125.71 86.928,-124.7 86.504,-123.29 86.748,-122.24 87.039,-120.99 88.165,-120.48 89.415,-121.01 90.665,-121.55 91.674,-122.99 91.806,-124.41 M89.866,-125.92 C89.866,-125.92 90.004,-125.89 90.098,-125.81 90.111,-125.8 90.125,-125.79 90.137,-125.78 90.159,-125.75 90.2,-125.71 90.199,-125.71 90.199,-125.71 90.212,-125.69 90.218,-125.68 90.236,-125.65 90.253,-125.62 90.268,-125.59 90.284,-125.56 90.31,-125.5 90.31,-125.5 M87.659,-122.2 C87.659,-122.2 87.631,-122.28 87.618,-122.31 87.606,-122.35 87.595,-122.4 87.585,-122.44 87.576,-122.48 87.567,-122.52 87.56,-122.56 87.553,-122.61 87.548,-122.65 87.544,-122.7 87.541,-122.73 87.538,-122.8 87.538,-122.8 87.538,-122.79 87.536,-122.89 87.538,-122.94 87.539,-122.98 87.542,-123.03 87.546,-123.08 87.551,-123.14 87.557,-123.19 87.564,-123.24 87.571,-123.3 87.58,-123.35 87.589,-123.4 87.599,-123.45 87.621,-123.55 87.621,-123.55"/>
      <path stroke="#000" d="M87.616,-123.53 C87.616,-123.53 87.643,-123.63 87.658,-123.69 87.673,-123.74 87.69,-123.79 87.707,-123.84 87.725,-123.9 87.744,-123.95 87.764,-124 87.804,-124.11 87.849,-124.21 87.898,-124.31 87.947,-124.41 88.001,-124.51 88.058,-124.61 88.087,-124.66 88.117,-124.71 88.147,-124.75 88.178,-124.8 88.209,-124.85 88.241,-124.89 88.273,-124.94 88.341,-125.02 88.338,-125.02 88.338,-125.02 88.397,-125.09 88.428,-125.13 88.462,-125.17 88.497,-125.21 88.533,-125.25 88.602,-125.32 88.675,-125.39 88.751,-125.46 88.786,-125.49 88.821,-125.52 88.858,-125.54 88.895,-125.57 88.933,-125.6 88.972,-125.63 89.01,-125.65 89.048,-125.68 89.087,-125.7 89.125,-125.73 89.163,-125.75 89.203,-125.77 89.24,-125.79 89.318,-125.83 89.318,-125.83 M87.961,-121.8 C87.961,-121.8 88.006,-121.77 88.029,-121.76 88.072,-121.73 88.127,-121.71 88.172,-121.69 88.205,-121.68 88.239,-121.67 88.274,-121.67 88.309,-121.66 88.38,-121.65 88.38,-121.65 M90.95,-124.47 C90.95,-124.47 90.902,-124 90.734,-123.64 90.711,-123.59 90.691,-123.54 90.668,-123.49 90.621,-123.39 90.569,-123.29 90.513,-123.2 90.401,-123 90.272,-122.81 90.129,-122.64 89.993,-122.47 89.845,-122.32 89.681,-122.18 89.642,-122.15 89.602,-122.12 89.561,-122.09 89.521,-122.05 89.479,-122.03 89.438,-122 89.397,-121.97 89.355,-121.94 89.313,-121.92 89.271,-121.89 89.229,-121.87 89.186,-121.85 89.155,-121.83 89.091,-121.8 89.1,-121.8 89.1,-121.8 89.018,-121.77 88.976,-121.75 88.935,-121.74 88.894,-121.72 88.852,-121.71 88.811,-121.7 88.77,-121.69 88.729,-121.68 88.693,-121.67 88.619,-121.66 88.619,-121.66 M87.802,-122.43 C87.802,-122.43 87.72,-122.4 87.679,-122.39 87.654,-122.38 87.603,-122.37 87.603,-122.37 M89.618,-124.43 C89.618,-124.43 89.652,-124.53 89.668,-124.58 89.684,-124.63 89.698,-124.68 89.711,-124.73 89.737,-124.82 89.757,-124.92 89.772,-125.01 89.779,-125.06 89.785,-125.11 89.79,-125.15 89.795,-125.2 89.798,-125.25 89.8,-125.29 89.801,-125.34 89.802,-125.38 89.801,-125.42 89.8,-125.45 89.796,-125.5 89.797,-125.5 89.797,-125.5 89.788,-125.58 89.781,-125.62 89.775,-125.66 89.767,-125.7 89.758,-125.73 89.75,-125.76 89.731,-125.82 89.731,-125.82 M88.077,-122 C88.077,-122 88.157,-122.02 88.196,-122.03 88.237,-122.04 88.278,-122.05 88.319,-122.07 88.401,-122.09 88.486,-122.13 88.566,-122.17 M87.776,-121.99 C87.776,-121.99 87.781,-121.99 87.783,-121.99 87.82,-121.99 87.858,-121.99 87.895,-121.99 87.934,-121.99 87.972,-121.99 88.011,-122 88.05,-122 88.128,-122.01 88.128,-122.01 M90.381,-125.1 C90.381,-125.1 90.375,-125.18 90.37,-125.22 90.365,-125.26 90.359,-125.3 90.351,-125.34 90.343,-125.38 90.334,-125.42 90.323,-125.45 90.316,-125.48 90.299,-125.52 90.299,-125.52 M90.272,-124.32 C90.272,-124.32 90.298,-124.42 90.31,-124.46 90.332,-124.56 90.35,-124.66 90.361,-124.75 90.367,-124.8 90.372,-124.84 90.375,-124.89 90.378,-124.93 90.38,-124.98 90.38,-125.02 90.38,-125.07 90.377,-125.15 90.377,-125.15 M89.706,-125.93 C89.706,-125.93 89.635,-125.92 89.6,-125.91 89.563,-125.9 89.527,-125.9 89.491,-125.89 89.453,-125.88 89.416,-125.86 89.38,-125.85 89.354,-125.84 89.303,-125.82 89.303,-125.82 M89.654,-125.92 C89.654,-125.92 89.715,-125.92 89.746,-125.92 89.779,-125.92 89.845,-125.92 89.845,-125.92 M87.794,-121.97 C87.794,-121.97 87.821,-121.93 87.836,-121.92 87.86,-121.89 87.885,-121.87 87.911,-121.84 87.937,-121.82 87.993,-121.78 87.993,-121.78 M87.65,-122.23 C87.65,-122.23 87.673,-122.17 87.687,-122.14 87.704,-122.11 87.722,-122.08 87.742,-122.04 87.762,-122.01 87.805,-121.95 87.805,-121.95 M88.322,-121.66 C88.322,-121.66 88.395,-121.65 88.431,-121.65 88.469,-121.65 88.508,-121.65 88.546,-121.65 88.585,-121.65 88.663,-121.66 88.663,-121.66 M100.31,-163.11 L97.469,-149.54 M110.06,-162.62 L104.08,-148.43 M108.9,-142.93 L111.74,-156.51 M99.204,-168.88 C101.01,-173.17 102.81,-177.43 104.62,-181.72 108.09,-179.73 111.53,-177.74 114.99,-175.74 113.18,-171.45 111.38,-167.19 109.57,-162.9 110.09,-162.6 110.64,-162.28 111.24,-162.18 112.04,-162.05 112.84,-161.91 113.64,-161.78 113.75,-161.76 113.85,-161.73 113.94,-161.68 114.66,-161.31 114.79,-160.12 114.25,-158.85 113.71,-157.58 112.65,-156.59 111.74,-156.51 111.38,-156.72 111.03,-156.92 110.67,-157.13 M130.25,-191.75 C130.25,-191.75 130.25,-191.75 130.25,-191.75 M80.566,-90.443 L83.528,-88.733 M93.54,-78.026 L94.255,-77.613 M94.889,-77.597 L94.255,-77.613 90.9,-68.25 M21.832,-13.588 C34.676,-21.003 50.38,-30.07 60.752,-36.058 61.432,-36.451 61.903,-36.947 62.112,-37.489 63.233,-40.402 64.358,-43.324 65.479,-46.237 65.571,-46.476 65.61,-46.719 65.597,-46.964 65.555,-47.705 65.027,-48.409 64.119,-48.933 61.703,-50.328 56.865,-53.121 56.865,-53.121 M22.516,-58.052 L22.516,-58.134 M53.093,-67.07 C53.093,-67.07 58.041,-78.163 60.511,-83.702 61.442,-85.788 62.627,-87.795 63.999,-89.609 66.913,-93.46 70.477,-96.188 73.836,-97.137 73.992,-97.181 74.149,-97.222 74.307,-97.259 77.729,-98.059 81.161,-98.862 84.582,-99.662 85.045,-99.77 85.464,-99.714 85.795,-99.5 86.324,-99.157 86.592,-98.435 86.532,-97.512 86.472,-96.589 86.091,-95.551 85.481,-94.653 84.419,-93.086 82.684,-92.31 81.114,-91.319 80.478,-90.918 79.907,-90.167 79.613,-89.346 78.945,-87.483 77.608,-83.752 77.608,-83.752 M82.86,-96.833 C82.86,-96.833 82.861,-96.828 82.862,-96.825 82.882,-96.774 82.905,-96.725 82.932,-96.678 82.984,-96.59 83.05,-96.512 83.14,-96.46 83.299,-96.367 83.51,-96.374 83.692,-96.478 83.822,-96.553 83.916,-96.667 83.955,-96.798 83.983,-96.889 83.983,-96.987 83.957,-97.086 83.943,-97.137 83.923,-97.186 83.899,-97.232 83.881,-97.267 83.835,-97.331 83.835,-97.331 M64.257,-50.09 C64.257,-50.09 71.698,-66.77 75.412,-75.098 76.437,-77.395 77.768,-79.593 79.316,-81.541 80.158,-82.601 81.055,-83.577 81.989,-84.449 82.456,-84.884 82.931,-85.292 83.411,-85.671 83.57,-85.796 83.731,-85.919 83.893,-86.04 84.053,-86.158 84.215,-86.275 84.378,-86.388 84.538,-86.5 84.701,-86.609 84.864,-86.716 84.872,-86.72 84.886,-86.729 84.886,-86.729 M98.81,-86.533 C99.129,-86.871 99.362,-87.332 99.429,-87.763 99.497,-88.194 99.391,-88.538 99.146,-88.679 98.952,-88.791 98.688,-88.765 98.413,-88.607 97.982,-88.357 97.272,-88.048 96.873,-87.626 96.553,-87.289 96.321,-86.827 96.253,-86.396 96.186,-85.965 96.292,-85.622 96.537,-85.481 96.731,-85.368 96.995,-85.394 97.27,-85.553 97.701,-85.802 98.41,-86.112 98.81,-86.533 Z M97.761,-88.23 C97.761,-88.23 97.763,-88.225 97.764,-88.222 97.783,-88.171 97.806,-88.121 97.834,-88.074 97.885,-87.986 97.952,-87.909 98.041,-87.857 98.2,-87.764 98.411,-87.771 98.593,-87.875 98.723,-87.949 98.818,-88.064 98.857,-88.195 98.884,-88.286 98.884,-88.384 98.858,-88.483 98.845,-88.533 98.825,-88.583 98.8,-88.629 98.782,-88.664 98.736,-88.728 98.736,-88.728 M91.338,-62.513 C84.367,-51.014 73.336,-42.559 66.58,-31.117 M62.68,-26.646 C62.68,-26.646 62.726,-26.65 62.746,-26.661 62.957,-26.775 63.886,-27.794 64.822,-28.939 65.374,-29.614 66.413,-31.02 66.413,-31.02 M68.117,-106.65 C67.926,-106.78 67.658,-106.77 67.374,-106.62 67.09,-106.47 66.813,-106.2 66.603,-105.86 66.165,-105.14 66.134,-104.34 66.533,-104.07 66.725,-103.94 66.992,-103.94 67.276,-104.09 67.56,-104.24 67.837,-104.52 68.048,-104.86 68.258,-105.2 68.383,-105.58 68.396,-105.92 68.409,-106.26 68.309,-106.52 68.117,-106.65 Z M65.335,-101.9 C66.441,-101.27 68.229,-102.31 69.328,-104.22 70.427,-106.13 70.421,-108.19 69.315,-108.82 68.209,-109.45 66.422,-108.41 65.323,-106.5 64.224,-104.59 64.229,-102.53 65.335,-101.9 Z M69.315,-108.82 C69.196,-108.89 69.077,-108.96 68.958,-109.03 68.761,-109.14 68.536,-109.2 68.291,-109.21 67.215,-109.25 65.894,-108.27 65.015,-106.79 64.135,-105.31 63.895,-103.66 64.42,-102.69 64.559,-102.43 64.748,-102.24 64.978,-102.1 65.097,-102.04 65.216,-101.97 65.335,-101.9 M68.291,-109.21 C67.916,-109.21 67.543,-109.21 67.168,-109.21 66.249,-109.24 65.122,-108.41 64.372,-107.15 63.621,-105.88 63.416,-104.47 63.864,-103.65 64.049,-103.33 64.234,-103.01 64.42,-102.69 M60.443,-105.39 C60.471,-105.38 60.5,-105.36 60.529,-105.35 M63.926,-111.26 C63.899,-111.27 63.872,-111.29 63.844,-111.31 M115.52,-92.449 C116.31,-91.899 117.67,-92.609 118.55,-94.036 119.42,-95.462 119.48,-97.064 118.69,-97.614 117.89,-98.164 116.53,-97.454 115.66,-96.027 114.78,-94.601 114.72,-92.999 115.52,-92.449 Z M103.74,-79.227 C104.97,-78.527 106.95,-79.677 108.17,-81.794 109.38,-83.911 109.38,-86.194 108.15,-86.893 106.93,-87.592 104.95,-86.442 103.73,-84.325 102.51,-82.209 102.52,-79.926 103.74,-79.227 Z M103.45,-83.27 C103.45,-83.27 103.45,-83.266 103.45,-83.263 103.44,-83.204 103.43,-83.144 103.42,-83.084 103.42,-83.026 103.41,-82.968 103.41,-82.911 103.41,-82.797 103.41,-82.689 103.43,-82.587 103.47,-82.281 103.6,-82.046 103.79,-81.911 104.34,-81.534 105.27,-82.02 105.86,-82.997 106.15,-83.466 106.32,-83.987 106.34,-84.447 106.36,-84.906 106.22,-85.266 105.96,-85.446 105.77,-85.581 105.51,-85.609 105.23,-85.527 105.09,-85.486 104.94,-85.419 104.8,-85.327 104.75,-85.296 104.7,-85.263 104.66,-85.228 104.61,-85.192 104.52,-85.116 104.52,-85.116 M151.39,-52.315 L152.49,-52.634 153.65,-52.826 M146.26,-61.368 C146.61,-61.469 146.95,-61.57 147.3,-61.671 148.09,-61.943 149.01,-61.692 149.79,-60.987 150.58,-60.281 151.16,-59.194 151.37,-58.02 151.52,-57.188 151.41,-56.386 151.37,-55.546 151.32,-54.436 151.33,-53.308 151.4,-52.169 152.15,-52.389 152.9,-52.607 153.65,-52.826 153.58,-53.965 153.58,-55.094 153.63,-56.203 153.66,-57.043 153.77,-57.845 153.62,-58.677 153.41,-59.852 152.84,-60.939 152.05,-61.644 151.26,-62.35 150.35,-62.6 149.55,-62.328 149.35,-62.257 149.15,-62.151 148.97,-62.011 148.88,-61.941 148.79,-61.863 148.71,-61.779 148.68,-61.746 148.62,-61.674 148.62,-61.674 148.63,-61.673 148.67,-61.685 148.69,-61.689 148.76,-61.704 148.83,-61.711 148.9,-61.722 149.06,-61.745 149.09,-61.754 149.27,-61.748 149.34,-61.746 149.45,-61.735 149.56,-61.72 149.67,-61.704 149.78,-61.684 149.85,-61.664 150.16,-61.584 150.55,-61.395 150.83,-61.189 151.4,-60.771 151.88,-60.127 152.18,-59.395 152.46,-58.68 152.59,-57.798 152.49,-57.17 152.42,-56.711 152.32,-56.267 152.09,-55.859 151.99,-55.686 151.86,-55.485 151.75,-55.367 151.7,-55.309 151.65,-55.254 151.59,-55.2 151.56,-55.17 151.52,-55.143 151.49,-55.114 151.45,-55.077 151.36,-55.003 151.36,-55.003 M62.7,-73.447 L62.745,-73.019 M62.137,-73.508 L62.21,-72.829 M68.774,-69.94 L68.82,-69.512 M68.212,-70 L68.285,-69.321 M61.658,-73.511 C61.658,-73.511 61.662,-73.515 61.664,-73.516 61.666,-73.518 61.671,-73.52 61.671,-73.52 M67.706,-64.57 C60.495,-59.442 53.327,-54.344 46.117,-49.215 45.999,-49.464 45.834,-49.658 45.628,-49.788 44.712,-50.368 43.205,-49.588 42.195,-48.011 41.729,-47.283 41.409,-46.418 41.33,-45.673 41.252,-44.928 41.423,-44.388 41.793,-44.213 42.126,-44.057 42.58,-44.171 43.021,-44.521 43.007,-44.648 42.992,-44.775 42.977,-44.902 42.962,-45.029 42.947,-45.156 42.932,-45.283 42.871,-45.804 42.765,-46.249 42.939,-46.751 43.087,-47.176 43.372,-47.573 43.699,-47.807 44.026,-48.042 44.351,-48.083 44.565,-47.918 44.692,-47.819 44.771,-47.654 44.794,-47.444 44.821,-47.187 44.849,-46.929 44.876,-46.671 44.904,-46.414 44.931,-46.156 44.959,-45.899 M58.149,-70.666 L67.911,-65.03 M67.734,-70.005 C67.734,-70.005 67.737,-70.008 67.739,-70.01 67.742,-70.011 67.746,-70.013 67.746,-70.013 M83.031,-82.946 L86.604,-80.883 M119.92,-48.135 L119.03,-48.215 119.03,-49.406 119.92,-50.517 120.81,-50.437 120.81,-49.246 119.5,-50.001 M120.81,-49.246 L119.92,-48.135 119.03,-48.651 M51.99,-92.208 C51.111,-92.716 49.685,-91.893 48.806,-90.37 47.927,-88.847 47.927,-87.201 48.806,-86.694 M55.437,-87.532 C55.437,-87.601 55.437,-87.67 55.437,-87.738 55.437,-88.056 55.328,-88.297 55.133,-88.409 54.728,-88.643 54.072,-88.264 53.668,-87.563 53.473,-87.227 53.364,-86.859 53.364,-86.542 53.364,-86.224 53.473,-85.983 53.668,-85.871 53.956,-85.705 54.401,-85.836 54.791,-86.202 55.181,-86.568 55.437,-87.095 55.437,-87.532 55.437,-88.079 55.053,-88.301 54.579,-88.027 54.105,-87.754 53.721,-87.089 53.721,-86.542 53.721,-85.995 54.105,-85.773 54.579,-86.047 M85.425,-107.84 C85.271,-108.02 85.08,-108.12 84.997,-108.05 84.915,-107.99 84.973,-107.79 85.127,-107.61 85.2,-107.52 85.287,-107.45 85.367,-107.41 85.447,-107.37 85.515,-107.37 85.554,-107.4 85.594,-107.43 85.603,-107.49 85.578,-107.58 85.554,-107.66 85.499,-107.76 85.425,-107.84 Z M96.012,-121.41 C96.012,-121.41 96.018,-121.4 96.022,-121.4 96.042,-121.39 96.064,-121.38 96.086,-121.37 96.13,-121.36 96.182,-121.35 96.239,-121.34 M75.598,-113.58 C75.462,-113.78 75.286,-113.9 75.206,-113.86 75.125,-113.81 75.171,-113.62 75.307,-113.43 75.443,-113.23 75.619,-113.11 75.699,-113.15 75.737,-113.17 75.748,-113.23 75.729,-113.31 75.71,-113.39 75.663,-113.49 75.598,-113.58 Z"/>
    </g>
  </g>
  <g id="C3DA0001" vm2d:name="Axials" vm2d:type="layer">
    <g id="WRAP_001" vm2d:name="" vm2d:type="grnode">
      <g transform="matrix(3.78235,0,0,3.78235,-0,839.841)" stroke-width="0.55" stroke-linecap="round" stroke-linejoin="round" stroke-miterlimit="10">
        <path stroke="#fff" d="M66.893,-105.59 L76.546,-100.01"/>
        <path stroke="#000" stroke-width="0.15" stroke-dasharray="6.35,0.635,1.27,0.635" d="M66.546,-105.79 L76.892,-99.806"/>
      </g>
    </g>
    <g id="WRAP_002" vm2d:name="" vm2d:type="grnode">
      <g transform="matrix(3.78235,0,0,3.78235,-0,839.841)" stroke-width="0.55" stroke-linecap="round" stroke-linejoin="round" stroke-miterlimit="10">
        <path stroke="#fff" d="M82.78,-96.403 L87.8,-93.501 96.199,-98.346 94.285,-99.436 101.86,-103.81 103.29,-102.98"/>
        <path stroke="#000" stroke-width="0.15" stroke-dasharray="6.35,0.635,1.27,0.635" d="M82.433,-96.603 L87.8,-93.501 96.199,-98.346 94.285,-99.436 101.86,-103.81 103.64,-102.78"/>
      </g>
    </g>
    <g id="WRAP_003" vm2d:name="" vm2d:type="grnode">
      <g transform="matrix(3.78235,0,0,3.78235,-0,839.841)" stroke-width="0.55" stroke-linecap="round" stroke-linejoin="round" stroke-miterlimit="10">
        <path stroke="#fff" d="M116.62,-95.293 L121.35,-92.563 113.77,-88.184 99.514,-96.434 91.105,-91.57 91.411,-91.394"/>
        <path stroke="#000" stroke-width="0.15" stroke-dasharray="6.35,0.635,1.27,0.635" d="M116.27,-95.493 L121.35,-92.563 113.77,-88.184 99.514,-96.434 91.105,-91.57 91.758,-91.194"/>
      </g>
    </g>
    <g id="WRAP_004" vm2d:name="" vm2d:type="grnode">
      <g transform="matrix(3.78235,0,0,3.78235,-0,839.841)" stroke-width="0.55" stroke-linecap="round" stroke-linejoin="round" stroke-miterlimit="10">
        <path stroke="#fff" d="M97.665,-87.789 L102.13,-85.213"/>
        <path stroke="#000" stroke-width="0.15" stroke-dasharray="6.35,0.635,1.27,0.635" d="M97.318,-87.989 L102.48,-85.013"/>
      </g>
    </g>
    <g id="WRAP_005" vm2d:name="" vm2d:type="grnode">
      <g transform="matrix(3.78235,0,0,3.78235,-0,839.841)" stroke-width="0.55" stroke-linecap="round" stroke-linejoin="round" stroke-miterlimit="10">
        <path stroke="#fff" d="M104.24,-83.999 L111.13,-80.028"/>
        <path stroke="#000" stroke-width="0.15" stroke-dasharray="6.35,0.635,1.27,0.635" d="M103.89,-84.198 L111.48,-79.828"/>
      </g>
    </g>
    <g id="WRAP_006" vm2d:name="" vm2d:type="grnode">
      <g transform="matrix(3.78235,0,0,3.78235,-0,839.841)" stroke-width="0.55" stroke-linecap="round" stroke-linejoin="round" stroke-miterlimit="10">
        <path stroke="#fff" d="M114.11,-78.309 L120.93,-74.38"/>
        <path stroke="#000" stroke-width="0.15" stroke-dasharray="6.35,0.635,1.27,0.635" d="M113.76,-78.509 L121.27,-74.18"/>
      </g>
    </g>
    <g id="WRAP_007" vm2d:name="" vm2d:type="grnode">
      <g transform="matrix(3.78235,0,0,3.78235,-0,839.841)" stroke-width="0.55" stroke-linecap="round" stroke-linejoin="round" stroke-miterlimit="10">
        <path stroke="#fff" d="M96.459,-135.87 L69.248,-71.246"/>
        <path stroke="#000" stroke-width="0.15" stroke-dasharray="6.35,0.635,1.27,0.635" d="M96.614,-136.24 L69.092,-70.877"/>
      </g>
    </g>
    <g id="WRAP_008" vm2d:name="" vm2d:type="grnode">
      <g transform="matrix(3.78235,0,0,3.78235,-0,839.841)" stroke-width="0.55" stroke-linecap="round" stroke-linejoin="round" stroke-miterlimit="10">
        <path stroke="#fff" d="M113.31,-175.89 L97.741,-138.91"/>
        <path stroke="#000" stroke-width="0.15" stroke-dasharray="6.35,0.635,1.27,0.635" d="M113.47,-176.26 L97.586,-138.54"/>
      </g>
    </g>
    <g id="WRAP_009" vm2d:name="" vm2d:type="grnode">
      <g transform="matrix(3.78235,0,0,3.78235,-0,839.841)" stroke-width="0.55" stroke-linecap="round" stroke-linejoin="round" stroke-miterlimit="10">
        <path stroke="#fff" d="M55.002,-86.804 L57.743,-85.223"/>
        <path stroke="#000" stroke-width="0.15" stroke-dasharray="6.35,0.635,1.27,0.635" d="M54.655,-87.004 L58.09,-85.023"/>
      </g>
    </g>
    <g id="WRAP_010" vm2d:name="" vm2d:type="grnode">
      <g transform="matrix(3.78235,0,0,3.78235,-0,839.841)" stroke-width="0.55" stroke-linecap="round" stroke-linejoin="round" stroke-miterlimit="10">
        <path stroke="#fff" d="M68.736,-78.882 L69.473,-78.457 81.855,-107.76 75.797,-111.26 76.844,-113.74"/>
        <path stroke="#000" stroke-width="0.15" stroke-dasharray="6.35,0.635,1.27,0.635" d="M68.39,-79.082 L69.473,-78.457 81.855,-107.76 75.797,-111.26 76.999,-114.11"/>
      </g>
    </g>
    <g id="WRAP_011" vm2d:name="" vm2d:type="grnode">
      <g transform="matrix(3.78235,0,0,3.78235,-0,839.841)" stroke-width="0.55" stroke-linecap="round" stroke-linejoin="round" stroke-miterlimit="10">
        <path stroke="#fff" d="M77.806,-116.02 L82.584,-127.33 85.62,-125.58"/>
        <path stroke="#000" stroke-width="0.15" stroke-dasharray="6.35,0.635,1.27,0.635" d="M77.65,-115.65 L82.584,-127.33 85.966,-125.38"/>
      </g>
    </g>
    <g id="WRAP_012" vm2d:name="" vm2d:type="grnode">
      <g transform="matrix(3.78235,0,0,3.78235,-0,839.841)" stroke-width="0.55" stroke-linecap="round" stroke-linejoin="round" stroke-miterlimit="10">
        <path stroke="#fff" d="M88.229,-124.08 L92.469,-121.64"/>
        <path stroke="#000" stroke-width="0.15" stroke-dasharray="6.35,0.635,1.27,0.635" d="M87.882,-124.28 L92.816,-121.44"/>
      </g>
    </g>
    <g id="WRAP_013" vm2d:name="" vm2d:type="grnode">
      <g transform="matrix(3.78235,0,0,3.78235,-0,839.841)" stroke-width="0.55" stroke-linecap="round" stroke-linejoin="round" stroke-miterlimit="10">
        <path stroke="#fff" d="M95.079,-120.13 L99.45,-117.62 92.652,-101.54 86.364,-105.16 77.172,-83.411"/>
        <path stroke="#000" stroke-width="0.15" stroke-dasharray="6.35,0.635,1.27,0.635" d="M94.732,-120.33 L99.45,-117.62 92.652,-101.54 86.364,-105.16 77.017,-83.042"/>
      </g>
    </g>
    <g id="WRAP_014" vm2d:name="" vm2d:type="grnode">
      <g transform="matrix(3.78235,0,0,3.78235,-0,839.841)" stroke-width="0.55" stroke-linecap="round" stroke-linejoin="round" stroke-miterlimit="10">
        <path stroke="#fff" d="M83.644,-70.29 L99.189,-61.325"/>
        <path stroke="#000" stroke-width="0.15" stroke-dasharray="6.35,0.635,1.27,0.635" d="M83.298,-70.49 L99.536,-61.125"/>
      </g>
    </g>
  </g>
  <g id="C3DC0001" vm2d:name="Callouts" vm2d:type="layer">
    <g>
      <g transform="matrix(3.78235,0,0,3.78235,-0,839.841)" stroke-width="0.85" stroke-linecap="round" stroke-linejoin="miter" stroke-miterlimit="10">
        <path stroke="#fff" d="M146.61,-105.36 L110.87,-84.175"/>
        <path stroke="#fff" stroke-width="0.7" stroke-linecap="butt" stroke-linejoin="round" d="M111.34,-84.175 C111.34,-83.915 111.13,-83.705 110.87,-83.705 110.61,-83.705 110.4,-83.915 110.4,-84.175 110.4,-84.434 110.61,-84.645 110.87,-84.645 111.13,-84.645 111.34,-84.434 111.34,-84.175 Z"/>
        <path stroke="#000" stroke-width="0.15" d="M146.61,-105.36 L110.87,-84.175"/>
        <path fill="#000" d="M111.34,-84.175 C111.34,-83.915 111.13,-83.705 110.87,-83.705 110.61,-83.705 110.4,-83.915 110.4,-84.175 110.4,-84.434 110.61,-84.645 110.87,-84.645 111.13,-84.645 111.34,-84.434 111.34,-84.175 Z"/>
        <text font-family="Arial" font-size="3.93" x="147.215" y="-106.011" fill="#000">100</text>
      </g>
    </g>
    <a id="_0db156ace8f47e7ec64d2fda99e8f94f" vm2d:name="100" vm2d:type="grobject" xlink:href="#">
      <path d="M554.52,426.1 L583.89,426.1 583.89,441.35 554.52,441.35 Z" fill="#fff" fill-opacity="0"/>
    </a>
    <g>
      <g transform="matrix(3.78235,0,0,3.78235,-0,839.841)" stroke-width="0.85" stroke-linecap="round" stroke-linejoin="miter" stroke-miterlimit="10">
        <path stroke="#fff" d="M40,-122.14 L62.608,-109.35"/>
        <path stroke="#fff" stroke-width="0.7" stroke-linecap="butt" stroke-linejoin="round" d="M63.078,-109.35 C63.078,-109.09 62.868,-108.88 62.608,-108.88 62.348,-108.88 62.138,-109.09 62.138,-109.35 62.138,-109.61 62.348,-109.82 62.608,-109.82 62.868,-109.82 63.078,-109.61 63.078,-109.35 Z"/>
        <path stroke="#000" stroke-width="0.15" d="M40,-122.14 L62.608,-109.35"/>
        <path fill="#000" d="M63.078,-109.35 C63.078,-109.09 62.868,-108.88 62.608,-108.88 62.348,-108.88 62.138,-109.09 62.138,-109.35 62.138,-109.61 62.348,-109.82 62.608,-109.82 62.868,-109.82 63.078,-109.61 63.078,-109.35 Z"/>
        <text font-family="Arial" font-size="3.93" x="32.8432" y="-122.792" fill="#000">105</text>
      </g>
    </g>
    <a id="_01e0b83435b07242e2983e1e5cfadff2" vm2d:name="105" vm2d:type="grobject" xlink:href="#">
      <path d="M121.93,362.63 L151.29,362.63 151.29,377.88 121.93,377.88 Z" fill="#fff" fill-opacity="0"/>
    </a>
    <g>
      <g transform="matrix(3.78235,0,0,3.78235,-0,839.841)" stroke-width="0.85" stroke-linecap="round" stroke-linejoin="miter" stroke-miterlimit="10">
        <path stroke="#fff" d="M74.128,-192.8 L105.9,-174.3"/>
        <path stroke="#fff" stroke-width="0.7" stroke-linecap="butt" stroke-linejoin="round" d="M106.37,-174.3 C106.37,-174.04 106.16,-173.83 105.9,-173.83 105.64,-173.83 105.43,-174.04 105.43,-174.3 105.43,-174.56 105.64,-174.77 105.9,-174.77 106.16,-174.77 106.37,-174.56 106.37,-174.3 Z"/>
        <path stroke="#000" stroke-width="0.15" d="M74.128,-192.8 L105.9,-174.3"/>
        <path fill="#000" d="M106.37,-174.3 C106.37,-174.04 106.16,-173.83 105.9,-173.83 105.64,-173.83 105.43,-174.04 105.43,-174.3 105.43,-174.56 105.64,-174.77 105.9,-174.77 106.16,-174.77 106.37,-174.56 106.37,-174.3 Z"/>
        <text font-family="Arial" font-size="3.93" x="69.1542" y="-193.453" fill="#000">45</text>
      </g>
    </g>
    <a id="_4963b3bed2e7fbef86c0ac7f3d782a1b" vm2d:name="45" vm2d:type="grobject" xlink:href="#">
      <path d="M259.27,95.36 L280.38,95.36 280.38,110.61 259.27,110.61 Z" fill="#fff" fill-opacity="0"/>
    </a>
    <g>
      <g transform="matrix(3.78235,0,0,3.78235,-0,839.841)" stroke-width="0.85" stroke-linecap="round" stroke-linejoin="miter" stroke-miterlimit="10">
        <path stroke="#fff" d="M17.321,-110 L46.833,-92.488"/>
        <path stroke="#fff" stroke-width="0.7" stroke-linecap="butt" stroke-linejoin="round" d="M47.303,-92.488 C47.303,-92.228 47.093,-92.018 46.833,-92.018 46.574,-92.018 46.363,-92.228 46.363,-92.488 46.363,-92.748 46.574,-92.958 46.833,-92.958 47.093,-92.958 47.303,-92.748 47.303,-92.488 Z"/>
        <path stroke="#000" stroke-width="0.15" d="M17.321,-110 L46.833,-92.488"/>
        <path fill="#000" d="M47.303,-92.488 C47.303,-92.228 47.093,-92.018 46.833,-92.018 46.574,-92.018 46.363,-92.228 46.363,-92.488 46.363,-92.748 46.574,-92.958 46.833,-92.958 47.093,-92.958 47.303,-92.748 47.303,-92.488 Z"/>
        <text font-family="Arial" font-size="3.93" x="12.347" y="-110.655" fill="#000">65</text>
      </g>
    </g>
    <a id="_6935BCF58B09431E8060C5DE43FF9BF2" vm2d:name="65" vm2d:type="grobject" xlink:href="#">
      <path d="M44.405,408.53 L65.512,408.53 65.512,423.78 44.405,423.78 Z" fill="#fff" fill-opacity="0"/>
    </a>
    <g>
      <g transform="matrix(3.78235,0,0,3.78235,-0,839.841)" stroke-width="0.85" stroke-linecap="round" stroke-linejoin="miter" stroke-miterlimit="10">
        <path stroke="#fff" d="M66.928,-152.8 L90.289,-138.37"/>
        <path stroke="#fff" stroke-width="0.7" stroke-linecap="butt" stroke-linejoin="round" d="M90.759,-138.37 C90.759,-138.11 90.548,-137.9 90.289,-137.9 90.029,-137.9 89.819,-138.11 89.819,-138.37 89.819,-138.63 90.029,-138.84 90.289,-138.84 90.548,-138.84 90.759,-138.63 90.759,-138.37 Z"/>
        <path stroke="#000" stroke-width="0.15" d="M66.928,-152.8 L90.289,-138.37"/>
        <path fill="#000" d="M90.759,-138.37 C90.759,-138.11 90.548,-137.9 90.289,-137.9 90.029,-137.9 89.819,-138.11 89.819,-138.37 89.819,-138.63 90.029,-138.84 90.289,-138.84 90.548,-138.84 90.759,-138.63 90.759,-138.37 Z"/>
        <text font-family="Arial" font-size="3.93" x="61.954" y="-153.453" fill="#000">70</text>
      </g>
    </g>
    <a id="f8480d41a16f689addfeb852991bc888" vm2d:name="70" vm2d:type="grobject" xlink:href="#">
      <path d="M232.04,246.65 L253.14,246.65 253.14,261.91 232.04,261.91 Z" fill="#fff" fill-opacity="0"/>
    </a>
    <g>
      <g transform="matrix(3.78235,0,0,3.78235,-0,839.841)" stroke-width="0.85" stroke-linecap="round" stroke-linejoin="miter" stroke-miterlimit="10">
        <path stroke="#fff" d="M116.91,-27.5 L106.06,-53.669"/>
        <path stroke="#fff" stroke-width="0.7" stroke-linecap="butt" stroke-linejoin="round" d="M106.53,-53.669 C106.53,-53.409 106.32,-53.199 106.06,-53.199 105.8,-53.199 105.59,-53.409 105.59,-53.669 105.59,-53.928 105.8,-54.139 106.06,-54.139 106.32,-54.139 106.53,-53.928 106.53,-53.669 Z"/>
        <path stroke="#000" stroke-width="0.15" d="M116.91,-27.5 L106.06,-53.669"/>
        <path fill="#000" d="M106.53,-53.669 C106.53,-53.409 106.32,-53.199 106.06,-53.199 105.8,-53.199 105.59,-53.409 105.59,-53.669 105.59,-53.928 105.8,-54.139 106.06,-54.139 106.32,-54.139 106.53,-53.928 106.53,-53.669 Z"/>
        <text font-family="Arial" font-size="3.93" x="117.52" y="-24.1228" fill="#000">75</text>
      </g>
    </g>
    <a id="B1C5A8E99CBC46298C5F55A53802BABB" vm2d:name="75" vm2d:type="grobject" xlink:href="#">
      <path d="M442.21,735.83 L463.32,735.83 463.32,751.08 442.21,751.08 Z" fill="#fff" fill-opacity="0"/>
    </a>
    <g>
      <g transform="matrix(3.78235,0,0,3.78235,-0,839.841)" stroke-width="0.85" stroke-linecap="round" stroke-linejoin="miter" stroke-miterlimit="10">
        <path stroke="#fff" d="M154.2,-84.473 L131.62,-71.643"/>
        <path stroke="#fff" stroke-width="0.7" stroke-linecap="butt" stroke-linejoin="round" d="M132.09,-71.643 C132.09,-71.384 131.88,-71.173 131.62,-71.173 131.36,-71.173 131.15,-71.384 131.15,-71.643 131.15,-71.903 131.36,-72.113 131.62,-72.113 131.88,-72.113 132.09,-71.903 132.09,-71.643 Z"/>
        <path stroke="#000" stroke-width="0.15" d="M154.2,-84.473 L131.62,-71.643"/>
        <path fill="#000" d="M132.09,-71.643 C132.09,-71.384 131.88,-71.173 131.62,-71.173 131.36,-71.173 131.15,-71.384 131.15,-71.643 131.15,-71.903 131.36,-72.113 131.62,-72.113 131.88,-72.113 132.09,-71.903 132.09,-71.643 Z"/>
        <text font-family="Arial" font-size="3.93" x="154.807" y="-85.1281" fill="#000">85</text>
      </g>
    </g>
    <a id="f90c8508cd06dfec21ef4f92fca9f7b7" vm2d:name="85" vm2d:type="grobject" xlink:href="#">
      <path d="M583.24,505.08 L604.34,505.08 604.34,520.34 583.24,520.34 Z" fill="#fff" fill-opacity="0"/>
    </a>
    <g>
      <g transform="matrix(3.78235,0,0,3.78235,-0,839.841)" stroke-width="0.85" stroke-linecap="round" stroke-linejoin="miter" stroke-miterlimit="10">
        <path stroke="#fff" d="M134.91,-112.11 L112.65,-99.642"/>
        <path stroke="#fff" stroke-width="0.7" stroke-linecap="butt" stroke-linejoin="round" d="M113.12,-99.642 C113.12,-99.382 112.91,-99.172 112.65,-99.172 112.39,-99.172 112.18,-99.382 112.18,-99.642 112.18,-99.901 112.39,-100.11 112.65,-100.11 112.91,-100.11 113.12,-99.901 113.12,-99.642 Z"/>
        <path stroke="#000" stroke-width="0.15" d="M134.91,-112.11 L112.65,-99.642"/>
        <path fill="#000" d="M113.12,-99.642 C113.12,-99.382 112.91,-99.172 112.65,-99.172 112.39,-99.172 112.18,-99.382 112.18,-99.642 112.18,-99.901 112.39,-100.11 112.65,-100.11 112.91,-100.11 113.12,-99.901 113.12,-99.642 Z"/>
        <text font-family="Arial" font-size="3.93" x="135.514" y="-112.767" fill="#000">90</text>
      </g>
    </g>
    <a id="e2e5eab599cf9642c191a35e2b74e09a" vm2d:name="90" vm2d:type="grobject" xlink:href="#">
      <path d="M510.26,400.54 L531.37,400.54 531.37,415.8 510.26,415.8 Z" fill="#fff" fill-opacity="0"/>
    </a>
    <g>
      <g transform="matrix(3.78235,0,0,3.78235,-0,839.841)" stroke-width="0.85" stroke-linecap="round" stroke-linejoin="miter" stroke-miterlimit="10">
        <path stroke="#fff" d="M154.09,-101.03 L119.62,-80.599"/>
        <path stroke="#fff" stroke-width="0.7" stroke-linecap="butt" stroke-linejoin="round" d="M120.09,-80.599 C120.09,-80.34 119.88,-80.129 119.62,-80.129 119.36,-80.129 119.15,-80.34 119.15,-80.599 119.15,-80.859 119.36,-81.069 119.62,-81.069 119.88,-81.069 120.09,-80.859 120.09,-80.599 Z"/>
        <path stroke="#000" stroke-width="0.15" d="M154.09,-101.03 L119.62,-80.599"/>
        <path fill="#000" d="M120.09,-80.599 C120.09,-80.34 119.88,-80.129 119.62,-80.129 119.36,-80.129 119.15,-80.34 119.15,-80.599 119.15,-80.859 119.36,-81.069 119.62,-81.069 119.88,-81.069 120.09,-80.859 120.09,-80.599 Z"/>
        <text font-family="Arial" font-size="3.93" x="154.699" y="-101.69" fill="#000">95</text>
      </g>
    </g>
    <a id="ddb18bda43066e6d37c11d9c3d877e97" vm2d:name="95" vm2d:type="grobject" xlink:href="#">
      <path d="M582.83,442.44 L603.94,442.44 603.94,457.69 582.83,457.69 Z" fill="#fff" fill-opacity="0"/>
    </a>
  </g>
  <g id="C3DP0001" vm2d:name="Panels" vm2d:type="layer"/>
  <g id="IsoG213" vm2d:name="" vm2d:type="grnode">
    <g id="IsoG214" vm2d:name="" vm2d:type="grnode">
      <g id="g50" vm2d:name="" vm2d:type="grnode">
        <g transform="matrix(3.78235,0,0,3.78235,-0,839.841)">
          <path fill="#fff" d="M83.602,-217.73 L89.603,-217.73 89.603,-211.73 83.602,-211.73 83.602,-217.73 Z"/>
          <path fill="#000" d="M83.802,-217.53 L89.404,-217.53 89.404,-211.93 83.802,-211.93 83.802,-217.53 Z"/>
          <path fill="#fff" d="M84.002,-217.33 L89.203,-217.33 89.203,-212.13 84.002,-212.13 84.002,-217.33 Z"/>
        </g>
      </g>
    </g>
    <g id="g55" vm2d:name="" vm2d:type="grnode">
      <g transform="matrix(3.78235,0,0,3.78235,-0,839.841)">
        <path fill="#000" d="M87.426,-215.35 C87.383,-215.53 87.297,-215.68 87.163,-215.79 87.032,-215.89 86.87,-215.94 86.681,-215.94 86.419,-215.94 86.205,-215.85 86.041,-215.66 85.877,-215.47 85.797,-215.17 85.797,-214.75 85.797,-214.3 85.877,-213.98 86.04,-213.79 86.199,-213.6 86.41,-213.51 86.667,-213.51 86.855,-213.51 87.02,-213.57 87.157,-213.69 87.291,-213.81 87.39,-214 87.45,-214.26 87.681,-214.19 87.911,-214.12 88.142,-214.04 88.036,-213.65 87.858,-213.37 87.612,-213.18 87.367,-212.99 87.053,-212.9 86.675,-212.9 86.203,-212.9 85.816,-213.06 85.516,-213.38 85.211,-213.7 85.062,-214.14 85.062,-214.69 85.062,-215.28 85.214,-215.74 85.519,-216.07 85.822,-216.39 86.22,-216.55 86.718,-216.55 87.149,-216.55 87.5,-216.42 87.771,-216.17 87.931,-216.02 88.051,-215.8 88.133,-215.52 87.897,-215.47 87.662,-215.41 87.426,-215.35 Z"/>
      </g>
    </g>
  </g>
  <g id="IsoG76" vm2d:name="" vm2d:type="grnode">
    <g id="g1038" vm2d:name="" vm2d:type="grnode">
      <g transform="matrix(3.78235,0,0,3.78235,-0,839.841)" stroke-width="0.18004" stroke-linecap="round" stroke-linejoin="miter" stroke-miterlimit="2">
        <path fill="#fff" stroke="#000" d="M95.774,-203.97 L95.774,-203.44 96.875,-202.8 99.975,-208.19 96.875,-209.99 95.774,-210.62 95.774,-208.83 89.303,-205.09 89.303,-201.49 90.403,-200.85 96.875,-204.6 95.774,-203.97 Z"/>
        <path stroke="#000" stroke-linejoin="round" d="M95.774,-203.97 L95.774,-203.44 96.875,-202.8 99.975,-208.19 96.875,-209.99 95.774,-210.62 95.774,-208.83 89.303,-205.09 89.303,-201.49 90.403,-200.85 96.875,-204.6 96.875,-202.8 M95.774,-208.83 L96.875,-208.19 M89.303,-205.09 L90.403,-204.45 90.403,-200.85 M96.875,-209.99 L96.875,-208.19 90.403,-204.45"/>
      </g>
    </g>
    <g id="IsoG77" vm2d:name="" vm2d:type="grnode">
      <g id="g1050" vm2d:name="" vm2d:type="grnode">
        <g transform="matrix(3.78235,0,0,3.78235,-0,839.841)" stroke-width="0.18004" stroke-linecap="round" stroke-linejoin="round" stroke-miterlimit="2">
          <path stroke="#000" d="M96.594,-205.32 L96.564,-205.28 96.534,-205.24 96.504,-205.2 96.484,-205.16 96.454,-205.12 96.424,-205.09 96.384,-205.05 96.354,-205.02 96.314,-204.98 96.274,-204.95 96.234,-204.92 96.194,-204.88 96.144,-204.85 96.104,-204.82 96.054,-204.79 96.004,-204.76 95.954,-204.73 95.244,-204.32 95.244,-206.6 95.694,-206.85 95.924,-206.99 95.994,-207.02 96.054,-207.05 96.104,-207.08 96.154,-207.11 96.194,-207.13 96.204,-207.13 96.244,-207.14 96.274,-207.16 96.324,-207.17 96.374,-207.18 96.414,-207.18 96.454,-207.18 96.494,-207.18 96.534,-207.17 96.564,-207.16 96.615,-207.14 96.645,-207.11 96.684,-207.08 96.715,-207.05 96.745,-207 96.775,-206.96 96.795,-206.91 96.815,-206.85 96.835,-206.79 96.855,-206.72 96.865,-206.65 96.875,-206.57 96.875,-206.49 96.875,-206.41 96.875,-206.34 96.875,-206.26 96.865,-206.2 96.865,-206.19 96.865,-206.12 96.845,-206.05 96.835,-205.99 96.825,-205.92 96.805,-205.86 96.795,-205.79 96.775,-205.73 96.754,-205.67 96.734,-205.62 96.715,-205.56 96.684,-205.51 96.664,-205.46 96.645,-205.41 96.615,-205.36"/>
          <path fill="#000" stroke="#000" d="M92.314,-204.9 L90.973,-204.12 90.973,-201.84 91.233,-201.99 91.233,-203.03 92.164,-203.57 92.164,-203.84 91.233,-203.3 91.233,-204.01 92.314,-204.63 92.314,-204.9 Z"/>
          <path fill="#000" stroke="#000" d="M93.254,-204.09 L93.214,-203.88 93.124,-203.41 93.034,-203.83 92.744,-205.15 92.464,-204.99 92.984,-203.01 93.264,-203.17 93.674,-205.14 93.734,-205.45 93.804,-205.22 94.214,-203.72 94.464,-203.87 95.004,-206.45 94.744,-206.3 94.434,-204.66 94.334,-204.11 94.324,-204.21 94.304,-204.31 94.284,-204.41 94.264,-204.51 94.234,-204.62 94.214,-204.72 94.184,-204.83 93.894,-205.82 93.584,-205.63 93.254,-204.09 Z"/>
          <path fill="#000" stroke="#000" d="M95.244,-204.32 L95.954,-204.73 96.004,-204.76 96.054,-204.79 96.104,-204.82 96.144,-204.85 96.194,-204.88 96.234,-204.92 96.274,-204.95 96.314,-204.98 96.354,-205.02 96.384,-205.05 96.424,-205.09 96.454,-205.12 96.484,-205.16 96.504,-205.2 96.534,-205.24 96.564,-205.28 96.594,-205.32 96.615,-205.36 96.645,-205.41 96.664,-205.46 96.684,-205.51 96.715,-205.56 96.734,-205.62 96.754,-205.67 96.775,-205.73 96.795,-205.79 96.805,-205.86 96.825,-205.92 96.835,-205.99 96.845,-206.05 96.865,-206.12 96.865,-206.2 96.875,-206.26 96.875,-206.34 96.875,-206.41 96.875,-206.49 96.875,-206.57 96.865,-206.65 96.855,-206.72 96.835,-206.79 96.815,-206.85 96.795,-206.91 96.775,-206.96 96.745,-207 96.715,-207.05 96.684,-207.08 96.645,-207.11 96.615,-207.14 96.564,-207.16 96.534,-207.17 96.494,-207.18 96.454,-207.18 96.414,-207.18 96.374,-207.18 96.324,-207.17 96.274,-207.16 96.244,-207.14 96.194,-207.13 96.154,-207.11 96.104,-207.08 96.054,-207.05 95.994,-207.02 95.924,-206.99 95.244,-206.6 95.244,-204.32 Z"/>
          <path fill="#fff" stroke="#000" d="M95.504,-204.74 L95.934,-204.98 95.984,-205.01 96.034,-205.05 96.084,-205.08 96.124,-205.11 96.164,-205.14 96.204,-205.17 96.234,-205.2 96.264,-205.23 96.294,-205.26 96.324,-205.29 96.344,-205.33 96.374,-205.36 96.394,-205.39 96.414,-205.42 96.434,-205.47 96.464,-205.52 96.484,-205.57 96.504,-205.62 96.524,-205.67 96.544,-205.73 96.554,-205.79 96.564,-205.85 96.584,-205.92 96.594,-205.98 96.594,-206.05 96.604,-206.11 96.604,-206.19 96.615,-206.26 96.604,-206.36 96.594,-206.45 96.594,-206.52 96.574,-206.6 96.554,-206.65 96.534,-206.7 96.504,-206.75 96.474,-206.78 96.444,-206.81 96.414,-206.83 96.374,-206.85 96.344,-206.86 96.304,-206.87 96.254,-206.86 96.224,-206.86 96.184,-206.85 96.144,-206.83 96.094,-206.81 96.044,-206.78 95.984,-206.75 95.924,-206.71 95.504,-206.48 95.504,-204.74 Z"/>
        </g>
      </g>
    </g>
  </g>
</svg>
