<?xml version="1.0" encoding="UTF-8" standalone="no"?>
<!DOCTYPE svg SYSTEM "http://www.w3.org/Graphics/SVG/1.1/DTD/svg11.dtd" [
<!ENTITY % SVG.External.attrib
"xmlns:vm2d CDATA #FIXED 'http://www.cortona3d.com/vm2d'
vm2d:name CDATA #IMPLIED
vm2d:type CDATA #IMPLIED">
]>
<svg xmlns="http://www.w3.org/2000/svg" xmlns:vm2d="http://www.cortona3d.com/vm2d" xmlns:xlink="http://www.w3.org/1999/xlink" version="1.1" width="170mm" height="210mm" viewBox="0 0 964 1191" fill="none" fill-rule="evenodd" stroke-miterlimit="5">
  <title>Без заголовка</title>
  <desc>"Generator:ParallelGraphics Cortona2D","ProfileId:WebCGM""ProfileEd:2.1""ColourClass:colour""Source:Cortona2D Editor Pro 14.2.0.142""Date:20241122""Company:PIK""Grid:isometric"</desc>
  <rect width="964" height="1191" fill="#fff"/>
  <defs/>
  <g id="AUTOID_041" vm2d:name="Drawing" vm2d:type="layer">
    <g transform="matrix(5.67059,0,0,5.67059,-0,1190.91)" stroke-width="0.18" stroke-linecap="round" stroke-linejoin="round" stroke-miterlimit="10">
      <text font-family="Arial" font-size="1.16" font-weight="bold" x="128.255" y="-151.574" fill="#000">ЛИНЕЙНАЯ ТРАВЕРСА</text>
      <text font-family="Arial" font-size="1.16" font-weight="bold" x="119.958" y="-150.239" fill="#000">РУКОВОДСТВО ПО ТЕХНИЧЕСКОЙ ЭКСПЛУАТАЦИИ</text>
      <text font-family="Arial" font-size="1.16" font-weight="bold" x="128.216" y="-148.904" fill="#000">MTPM-UNITS-MM000-00</text>
      <text font-family="Arial" font-size="1.76" font-weight="bold" x="113.347" y="-121.301" fill="#000">Титульный лист</text>
      <text font-family="Arial" font-size="1.76" font-weight="bold" x="115.747" y="-118.502" fill="#000">Лист регистрации изменений</text>
      <text font-family="Arial" font-size="1.76" font-weight="bold" x="118.09" y="-115.725" fill="#000">Перечень действующих МД</text>
      <text font-family="Arial" font-size="1.76" font-weight="bold" x="120.549" y="-112.927" fill="#000">Содержание</text>
      <text font-family="Arial" font-size="1.76" font-weight="bold" x="122.936" y="-110.096" fill="#000">Введение</text>
      <text font-family="Arial" font-size="1.76" font-weight="bold" x="125.398" y="-107.407" fill="#000">Описательные и процедурные МД</text>
      <path stroke="#000" d="M112.42,-180.96 L155.27,-180.96 155.27,-120.36 112.42,-120.36 Z"/>
      <path stroke="#000" d="M114.85,-120.36 L114.85,-117.58 157.69,-117.58 157.69,-178.17 155.27,-178.17 M125.06,-106.43 L125.06,-105.9 167.9,-105.9 167.9,-166.49 167.49,-166.49 M125.58,-105.9 L125.58,-105.38 168.42,-105.38 168.42,-165.97 168.02,-165.97 M126.11,-105.38 L126.11,-104.85 168.95,-104.85 168.95,-165.44 168.54,-165.44"/>
      <path fill="#131a22" d="M132.45,-131.21 C132.45,-131.64 132.45,-132.05 132.45,-132.48 132.58,-132.48 132.7,-132.48 132.83,-132.48 132.83,-132.05 132.83,-131.64 132.83,-131.21 132.83,-131.07 132.8,-130.95 132.75,-130.86 132.69,-130.77 132.62,-130.71 132.53,-130.67 132.44,-130.62 132.33,-130.6 132.21,-130.6 132.09,-130.6 131.99,-130.62 131.89,-130.67 131.8,-130.71 131.73,-130.77 131.67,-130.86 131.62,-130.95 131.6,-131.07 131.6,-131.21 131.6,-131.64 131.6,-132.05 131.6,-132.48 131.72,-132.48 131.85,-132.48 131.97,-132.48 131.97,-132.05 131.97,-131.64 131.97,-131.21 131.97,-131.13 131.98,-131.07 132,-131.03 132.02,-130.98 132.05,-130.95 132.08,-130.94 132.12,-130.92 132.16,-130.91 132.21,-130.91 132.27,-130.91 132.31,-130.92 132.34,-130.94 132.38,-130.95 132.4,-130.98 132.42,-131.03 132.44,-131.07 132.45,-131.13 132.45,-131.21 Z"/>
      <path fill="#131a22" d="M134.29,-132.48 L134.29,-130.6 133.92,-130.6 133.34,-131.78 133.34,-130.6 132.98,-130.6 132.98,-132.48 133.34,-132.48 133.93,-131.3 133.93,-132.48 134.29,-132.48 Z"/>
      <path fill="#131a22" d="M134.87,-132.48 L134.87,-130.6 134.49,-130.6 134.49,-132.48 134.87,-132.48 Z"/>
      <path fill="#131a22" d="M136.64,-131.2 C136.64,-131.15 136.65,-131.1 136.66,-131.06 136.67,-131.02 136.69,-130.99 136.71,-130.97 136.73,-130.95 136.76,-130.93 136.79,-130.92 136.83,-130.91 136.86,-130.9 136.91,-130.9 136.96,-130.9 136.99,-130.91 137.02,-130.93 137.05,-130.95 137.07,-130.97 137.08,-131 137.1,-131.03 137.1,-131.07 137.1,-131.11 137.1,-131.14 137.1,-131.17 137.09,-131.2 137.09,-131.22 137.08,-131.25 137.06,-131.27 137.04,-131.29 137.01,-131.32 136.98,-131.34 136.94,-131.36 136.89,-131.39 136.84,-131.41 136.77,-131.44 136.7,-131.47 136.64,-131.5 136.58,-131.53 136.52,-131.57 136.47,-131.61 136.42,-131.65 136.38,-131.7 136.35,-131.76 136.32,-131.82 136.3,-131.89 136.3,-131.97 136.3,-132.04 136.32,-132.11 136.35,-132.18 136.37,-132.24 136.41,-132.29 136.47,-132.34 136.52,-132.38 136.58,-132.42 136.65,-132.44 136.72,-132.47 136.8,-132.48 136.88,-132.48 137,-132.48 137.1,-132.45 137.19,-132.41 137.27,-132.36 137.34,-132.29 137.38,-132.21 137.43,-132.12 137.46,-132.02 137.46,-131.92 137.33,-131.92 137.21,-131.92 137.09,-131.92 137.09,-131.97 137.08,-132.01 137.07,-132.05 137.05,-132.09 137.03,-132.12 137,-132.15 136.97,-132.17 136.93,-132.18 136.88,-132.18 136.83,-132.18 136.79,-132.17 136.76,-132.15 136.73,-132.13 136.71,-132.11 136.69,-132.07 136.68,-132.04 136.67,-132.01 136.67,-131.97 136.67,-131.94 136.68,-131.91 136.69,-131.89 136.71,-131.86 136.73,-131.84 136.75,-131.82 136.78,-131.8 136.81,-131.79 136.84,-131.77 136.88,-131.75 136.92,-131.73 136.96,-131.72 137.04,-131.68 137.12,-131.65 137.18,-131.61 137.24,-131.57 137.3,-131.53 137.34,-131.48 137.38,-131.43 137.42,-131.38 137.44,-131.32 137.46,-131.26 137.47,-131.19 137.47,-131.11 137.47,-131.04 137.46,-130.97 137.43,-130.9 137.4,-130.84 137.37,-130.79 137.32,-130.74 137.27,-130.7 137.2,-130.66 137.13,-130.64 137.06,-130.62 136.99,-130.6 136.9,-130.6 136.81,-130.6 136.73,-130.62 136.66,-130.64 136.58,-130.66 136.52,-130.7 136.46,-130.75 136.4,-130.8 136.36,-130.86 136.33,-130.93 136.29,-131.01 136.28,-131.1 136.28,-131.2 136.4,-131.2 136.52,-131.2 136.64,-131.2 Z"/>
      <path fill="#3152ba" d="M137.66,-131.02 L138.08,-131.02 138.08,-130.6 137.66,-130.6 137.66,-131.02 Z"/>
      <path fill="#131a22" d="M135.79,-132.2 L135.79,-130.6 135.41,-130.6 135.41,-132.2 135.79,-132.2 Z"/>
      <path fill="#131a22" d="M136.24,-132.48 L136.24,-132.17 134.96,-132.17 134.96,-132.48 136.24,-132.48 Z"/>
      <path stroke="#000" stroke-width="0.25" d="M119.83,-156.93 L118.6,-157.08 118.6,-157.31 119.28,-161.44 120.44,-161.25 121.21,-157 121.22,-156.77 121.17,-156.77 119.83,-156.93 M148.65,-161.75 L148.46,-160.62 148.46,-160.39 151.03,-160.07 151.08,-160.08 151.07,-160.3 150.27,-164.71 149.24,-164.86 147.75,-164.7 M131.52,-163.42 C131.52,-163.55 131.52,-163.54 131.52,-163.64 131.52,-163.77 131.58,-163.88 131.66,-163.9 131.66,-163.9 131.7,-163.91 131.74,-163.91 131.78,-163.92 131.83,-163.91 131.83,-163.91 131.89,-163.91 131.88,-163.91 131.93,-163.9 M135.71,-160.39 C135.41,-160.1 135.42,-160.09 135.11,-159.8 135.06,-159.76 134.95,-159.69 134.9,-159.68 134.86,-159.67 134.81,-159.67 134.75,-159.68 134.7,-159.69 134.65,-159.7 134.62,-159.73 134.25,-159.98 134.3,-159.95 133.93,-160.21 M119.76,-157.28 L119.49,-158.94 119.49,-159.23 119.72,-161.03 M137.31,-164.29 C137.31,-164.29 137.28,-164.46 137.25,-164.62 137.23,-164.68 137.19,-164.77 137.17,-164.79 136.82,-165.28 135.68,-166.54 135.32,-166.93 135.26,-167 135.15,-167.01 135.15,-167.01 134.91,-167.04 134.74,-166.86 134.62,-166.68 134.55,-166.58 134.48,-166.48 134.41,-166.39 134.31,-166.24 134.21,-166.1 134.11,-165.95 133.91,-165.66 133.71,-165.38 133.51,-165.09 133.37,-164.89 133.23,-164.68 133.09,-164.48 132.97,-164.32 132.85,-164.17 132.86,-163.96 132.86,-163.82 132.87,-163.29 132.88,-163.16 M134.23,-167.09 C134.22,-167.08 134.22,-167.08 134.22,-167.08 134.14,-167.01 134.08,-166.93 134.02,-166.85 133.95,-166.75 133.88,-166.66 133.82,-166.56 133.71,-166.41 133.61,-166.27 133.51,-166.12 133.31,-165.83 133.11,-165.55 132.91,-165.26 132.77,-165.06 132.63,-164.86 132.49,-164.65 132.38,-164.49 132.26,-164.34 132.26,-164.13 132.26,-164.02 132.26,-164.08 132.26,-163.97 132.26,-163.95 132.27,-163.52 132.27,-163.49 M136.93,-162.47 C137.2,-162.5 137.5,-162.52 137.78,-162.55 137.78,-162.55 137.83,-162.57 137.86,-162.58 137.93,-162.63 137.97,-162.71 137.97,-162.83 137.96,-163.18 137.96,-163.54 137.95,-163.9 137.95,-164.03 137.89,-164.15 137.81,-164.19 137.79,-164.2 137.78,-164.2 137.77,-164.2 137.74,-164.2 137.67,-164.21 137.65,-164.22 M133.92,-162.16 C134.2,-162.19 134.49,-162.21 134.77,-162.24 134.78,-162.24 134.83,-162.25 134.85,-162.26 134.92,-162.31 134.96,-162.39 134.96,-162.51 134.96,-162.87 134.95,-163.22 134.95,-163.58 134.95,-163.71 134.89,-163.83 134.8,-163.87 134.79,-163.88 134.77,-163.88 134.76,-163.89 134.74,-163.89 134.67,-163.9 134.64,-163.9 M135.49,-162.68 C135.48,-162.68 135.49,-162.62 135.49,-162.62 135.49,-162.59 135.5,-162.55 135.52,-162.52 135.55,-162.48 135.6,-162.46 135.62,-162.46 135.84,-162.43 136.27,-162.38 136.4,-162.36 136.4,-162.36 136.43,-162.36 136.45,-162.36 136.45,-162.36 136.45,-162.36 136.46,-162.36 136.54,-162.39 136.59,-162.49 136.59,-162.62 136.58,-162.97 136.58,-163.33 136.57,-163.69 136.57,-163.82 136.51,-163.94 136.43,-163.98 136.42,-163.99 136.4,-163.99 136.39,-163.99 136.37,-163.99 136.38,-163.99 136.35,-164 M132.48,-162.3 C132.48,-162.3 132.49,-162.24 132.51,-162.21 132.54,-162.16 132.59,-162.14 132.61,-162.14 132.84,-162.11 133.26,-162.06 133.39,-162.04 133.4,-162.04 133.42,-162.04 133.44,-162.04 133.45,-162.04 133.45,-162.05 133.45,-162.05 133.53,-162.07 133.58,-162.17 133.58,-162.3 133.58,-162.66 133.57,-163.01 133.57,-163.37 133.57,-163.5 133.51,-163.62 133.42,-163.66 133.41,-163.67 133.4,-163.67 133.38,-163.68 133.36,-163.68 133.37,-163.68 133.35,-163.68 M144.64,-161.33 C144.65,-161.31 144.67,-161.29 144.7,-161.26 144.73,-161.24 144.78,-161.22 144.8,-161.21 145.07,-161.18 145.03,-161.18 145.3,-161.15 145.57,-161.12 146.21,-161.04 146.48,-161 146.48,-161 146.51,-161 146.53,-161 146.53,-161.01 146.53,-161.01 146.53,-161.01 146.61,-161.03 146.67,-161.13 146.67,-161.26 146.66,-161.62 146.66,-162.05 146.65,-162.4 146.65,-162.54 146.59,-162.66 146.51,-162.7 146.49,-162.7 146.48,-162.71 146.46,-162.71 146.44,-162.71 146.37,-162.72 146.35,-162.72 M121.44,-158.86 C121.45,-158.85 121.47,-158.82 121.5,-158.8 121.53,-158.77 121.58,-158.75 121.6,-158.75 121.87,-158.71 121.83,-158.72 122.1,-158.68 122.37,-158.65 123.01,-158.57 123.28,-158.54 123.28,-158.54 123.31,-158.54 123.33,-158.54 123.33,-158.54 123.33,-158.54 123.34,-158.54 123.41,-158.57 123.47,-158.67 123.47,-158.8 123.46,-159.15 123.46,-159.58 123.45,-159.94 123.45,-160.07 123.39,-160.19 123.31,-160.23 123.29,-160.24 123.28,-160.24 123.27,-160.24 123.24,-160.25 123.17,-160.25 123.15,-160.26 M146.98,-161.09 C147.27,-161.12 147.55,-161.15 147.83,-161.18 147.91,-161.2 147.97,-161.31 147.96,-161.43 147.96,-161.79 147.95,-162.22 147.95,-162.58 147.95,-162.71 147.89,-162.83 147.8,-162.87 147.79,-162.87 147.78,-162.88 147.76,-162.88 M123.79,-158.62 C124.07,-158.65 124.35,-158.68 124.64,-158.71 124.71,-158.74 124.77,-158.84 124.77,-158.97 124.76,-159.33 124.76,-159.75 124.75,-160.11 124.75,-160.24 124.69,-160.36 124.61,-160.4 124.59,-160.41 124.58,-160.41 124.56,-160.42 M136.94,-163.49 L137.61,-163.57 M133.93,-163.18 L134.6,-163.25 M146.99,-162.25 L147.62,-162.32 M123.8,-159.79 L124.42,-159.85 M125.93,-163.87 L123.38,-163.6 123.38,-162.03 M125.09,-159.62 L146.31,-161.85 M148.3,-162.06 L149.85,-162.22 M121.16,-159.18 L123.12,-159.4 M121.07,-159.71 L123.1,-159.92 M125.09,-160.13 L146.31,-162.36 M148.29,-162.56 L149.06,-162.65 149.72,-162.55 M149.02,-162.99 L149.02,-163.99 M135.3,-163.03 L136.25,-163.13 M138.3,-163.22 L143.14,-163.72 M120.73,-161.42 L121.94,-161.55 M119.43,-161.76 L121.79,-162.01 121.79,-164.09 124.65,-164.39 126.27,-164.17 126.27,-162.34 M138.3,-163.75 L142.94,-164.23 142.94,-166.32 145.79,-166.62 147.41,-166.39 147.41,-164.52 M126.61,-162.56 L132.54,-163.18 M122.13,-163.77 L123.05,-163.65 M133.23,-162.72 L123.37,-161.69 122.1,-161.87 M149.85,-164.43 L144.51,-163.87 143.22,-164.05 M135.13,-167.35 C135.12,-167.48 135.11,-167.57 135.1,-167.66 135.1,-167.7 135.07,-167.89 134.87,-167.89 134.66,-167.89 134.61,-167.63 134.6,-167.5 134.6,-167.45 134.58,-167.23 134.58,-167.15 M147.07,-166.09 L144.52,-165.82 144.52,-164.21 M143.28,-166 L144.19,-165.87 M145.47,-160.79 C145.58,-160.64 145.55,-160.67 145.63,-160.59 145.71,-160.5 145.75,-160.47 145.81,-160.45 145.87,-160.43 145.94,-160.43 146,-160.46 146.06,-160.49 146.17,-160.62 146.23,-160.69 M122.27,-158.32 C122.38,-158.17 122.35,-158.21 122.43,-158.12 122.51,-158.04 122.55,-158.01 122.61,-157.99 122.67,-157.97 122.74,-157.97 122.8,-158 122.86,-158.03 122.97,-158.16 123.03,-158.23"/>
      <text font-family="Arial" font-size="1.06" font-weight="bold" x="147.148" y="-123.142" fill="#000">2024-11-11</text>
      <path stroke="#000" d="M152.18,-174.77 L117.49,-174.77 M152.18,-127.1 L117.49,-127.1"/>
      <text font-family="Arial" font-size="1.06" font-weight="bold" x="137.162" y="-125.701" fill="#000">MTPM-A-00-00-00-01A-001A-A</text>
      <text font-family="Arial" font-size="1.41" x="117.397" y="-172.881" fill="#000">Утвержден</text>
      <text font-family="Arial" font-size="1.41" x="117.299" y="-171.241" fill="#000">MTPM-UNITS-MM000-99</text>
      <path stroke="#000" d="M167.38,-106.43 L169.47,-104.33 M117.27,-117.58 L117.27,-114.79 160.11,-114.79 160.11,-175.38 157.69,-175.38 M119.69,-114.79 L119.69,-112 162.53,-112 162.53,-172.59 160.11,-172.59 M122.11,-112 L122.11,-109.21 164.95,-109.21 164.95,-169.81 162.53,-169.81 M124.53,-109.21 L124.53,-106.43 167.38,-106.43 167.38,-167.02 164.95,-167.02 M126.63,-104.85 L126.63,-104.33 169.47,-104.33 169.47,-164.92 169.06,-164.92"/>
      <text font-family="Arial" font-size="1.16" font-weight="bold" x="128.255" y="-60.8997" fill="#000">ЛИНЕЙНАЯ ТРАВЕРСА</text>
      <text font-family="Arial" font-size="1.16" font-weight="bold" x="121.163" y="-59.5651" fill="#000">РЕГЛАМЕНТ ТЕХНИЧЕСКОГО ОБСЛУЖИВАНИЯ</text>
      <text font-family="Arial" font-size="1.16" font-weight="bold" x="128.313" y="-58.2306" fill="#000">MTPM-UNITS-MS005-00</text>
      <text font-family="Arial" font-size="1.06" font-weight="bold" x="147.148" y="-32.4678" fill="#000">2024-11-11</text>
      <path stroke="#000" d="M152.18,-36.429 L117.49,-36.429"/>
      <text font-family="Arial" font-size="1.06" font-weight="bold" x="137.162" y="-35.0272" fill="#000">MTPM-A-00-00-00-02A-001A-A</text>
      <text font-family="Arial" font-size="1.41" x="117.397" y="-82.2069" fill="#000">Утвержден</text>
      <text font-family="Arial" font-size="1.41" x="117.299" y="-80.567" fill="#000">MTPM-UNITS-MS005-99</text>
      <path fill="#131a22" d="M132.45,-40.537 C132.45,-40.966 132.45,-41.371 132.45,-41.8 132.58,-41.8 132.7,-41.8 132.83,-41.8 132.83,-41.371 132.83,-40.966 132.83,-40.537 132.83,-40.393 132.8,-40.276 132.75,-40.185 132.69,-40.095 132.62,-40.029 132.53,-39.987 132.44,-39.946 132.33,-39.926 132.21,-39.926 132.09,-39.926 131.99,-39.946 131.89,-39.987 131.8,-40.029 131.73,-40.095 131.67,-40.185 131.62,-40.276 131.6,-40.393 131.6,-40.537 131.6,-40.966 131.6,-41.371 131.6,-41.8 131.72,-41.8 131.85,-41.8 131.97,-41.8 131.97,-41.371 131.97,-40.966 131.97,-40.537 131.97,-40.456 131.98,-40.393 132,-40.35 132.02,-40.306 132.05,-40.276 132.08,-40.26 132.12,-40.244 132.16,-40.237 132.21,-40.237 132.27,-40.237 132.31,-40.244 132.34,-40.26 132.38,-40.276 132.4,-40.306 132.42,-40.35 132.44,-40.393 132.45,-40.456 132.45,-40.537 Z"/>
      <path fill="#131a22" d="M134.29,-41.8 L134.29,-39.926 133.92,-39.926 133.34,-41.1 133.34,-39.926 132.98,-39.926 132.98,-41.8 133.34,-41.8 133.93,-40.617 133.93,-41.8 134.29,-41.8 Z"/>
      <path fill="#131a22" d="M134.87,-41.8 L134.87,-39.926 134.49,-39.926 134.49,-41.8 134.87,-41.8 Z"/>
      <path fill="#131a22" d="M136.64,-40.526 C136.64,-40.471 136.65,-40.424 136.66,-40.384 136.67,-40.346 136.69,-40.315 136.71,-40.292 136.73,-40.269 136.76,-40.252 136.79,-40.24 136.83,-40.229 136.86,-40.224 136.91,-40.224 136.96,-40.224 136.99,-40.233 137.02,-40.252 137.05,-40.27 137.07,-40.295 137.08,-40.325 137.1,-40.356 137.1,-40.391 137.1,-40.431 137.1,-40.463 137.1,-40.493 137.09,-40.52 137.09,-40.546 137.08,-40.571 137.06,-40.594 137.04,-40.616 137.01,-40.639 136.98,-40.661 136.94,-40.684 136.89,-40.707 136.84,-40.731 136.77,-40.76 136.7,-40.79 136.64,-40.822 136.58,-40.854 136.52,-40.892 136.47,-40.934 136.42,-40.977 136.38,-41.027 136.35,-41.085 136.32,-41.143 136.3,-41.212 136.3,-41.29 136.3,-41.367 136.32,-41.437 136.35,-41.499 136.37,-41.562 136.41,-41.615 136.47,-41.66 136.52,-41.705 136.58,-41.74 136.65,-41.764 136.72,-41.788 136.8,-41.8 136.88,-41.8 137,-41.8 137.1,-41.776 137.19,-41.727 137.27,-41.679 137.34,-41.613 137.38,-41.528 137.43,-41.444 137.46,-41.347 137.46,-41.238 137.33,-41.238 137.21,-41.238 137.09,-41.238 137.09,-41.289 137.08,-41.335 137.07,-41.374 137.05,-41.414 137.03,-41.446 137,-41.468 136.97,-41.491 136.93,-41.502 136.88,-41.502 136.83,-41.502 136.79,-41.492 136.76,-41.473 136.73,-41.455 136.71,-41.429 136.69,-41.397 136.68,-41.365 136.67,-41.329 136.67,-41.289 136.67,-41.259 136.68,-41.232 136.69,-41.207 136.71,-41.184 136.73,-41.163 136.75,-41.144 136.78,-41.125 136.81,-41.107 136.84,-41.09 136.88,-41.072 136.92,-41.055 136.96,-41.038 137.04,-41.006 137.12,-40.97 137.18,-40.931 137.24,-40.892 137.3,-40.849 137.34,-40.8 137.38,-40.753 137.42,-40.699 137.44,-40.639 137.46,-40.579 137.47,-40.51 137.47,-40.433 137.47,-40.357 137.46,-40.288 137.43,-40.225 137.4,-40.163 137.37,-40.11 137.32,-40.065 137.27,-40.021 137.2,-39.986 137.13,-39.962 137.06,-39.938 136.99,-39.926 136.9,-39.926 136.81,-39.926 136.73,-39.937 136.66,-39.961 136.58,-39.985 136.52,-40.021 136.46,-40.07 136.4,-40.119 136.36,-40.181 136.33,-40.257 136.29,-40.333 136.28,-40.422 136.28,-40.526 136.4,-40.526 136.52,-40.526 136.64,-40.526 Z"/>
      <path fill="#3152ba" d="M137.66,-40.343 L138.08,-40.343 138.08,-39.926 137.66,-39.926 137.66,-40.343 Z"/>
      <path fill="#131a22" d="M135.79,-41.522 L135.79,-39.926 135.41,-39.926 135.41,-41.522 135.79,-41.522 Z"/>
      <path fill="#131a22" d="M136.24,-41.8 L136.24,-41.49 134.96,-41.49 134.96,-41.8 136.24,-41.8 Z"/>
      <path stroke="#000" stroke-width="0.25" d="M119.83,-66.255 L118.6,-66.407 118.6,-66.632 119.28,-70.766 120.44,-70.574 121.21,-66.318 121.22,-66.092 121.17,-66.087 119.83,-66.255 M148.65,-71.072 L148.46,-69.942 148.46,-69.716 151.03,-69.397 151.08,-69.402 151.07,-69.627 150.27,-74.034 149.24,-74.177 147.75,-74.02 M131.52,-72.743 C131.52,-72.869 131.52,-72.864 131.52,-72.962 131.52,-73.093 131.58,-73.2 131.66,-73.219 131.66,-73.219 131.7,-73.232 131.74,-73.236 131.78,-73.24 131.83,-73.236 131.83,-73.235 131.89,-73.228 131.88,-73.229 131.93,-73.223 M135.71,-69.715 C135.41,-69.425 135.42,-69.417 135.11,-69.118 135.06,-69.08 134.95,-69.012 134.9,-68.999 134.86,-68.989 134.81,-68.989 134.75,-68.998 134.7,-69.008 134.65,-69.026 134.62,-69.047 134.25,-69.303 134.3,-69.271 133.93,-69.527 M119.76,-66.606 L119.49,-68.267 119.49,-68.548 119.72,-70.35 M137.31,-73.614 C137.31,-73.614 137.28,-73.782 137.25,-73.944 137.23,-74.002 137.19,-74.097 137.17,-74.115 136.82,-74.599 135.68,-75.859 135.32,-76.251 135.26,-76.324 135.15,-76.33 135.15,-76.33 134.91,-76.367 134.74,-76.183 134.62,-76.003 134.55,-75.905 134.48,-75.806 134.41,-75.708 134.31,-75.563 134.21,-75.418 134.11,-75.273 133.91,-74.985 133.71,-74.697 133.51,-74.409 133.37,-74.208 133.23,-74.006 133.09,-73.805 132.97,-73.639 132.85,-73.494 132.86,-73.28 132.86,-73.147 132.87,-72.613 132.88,-72.48 M134.23,-76.409 C134.22,-76.405 134.22,-76.401 134.22,-76.397 134.14,-76.335 134.08,-76.254 134.02,-76.174 133.95,-76.076 133.88,-75.977 133.82,-75.879 133.71,-75.734 133.61,-75.589 133.51,-75.445 133.31,-75.156 133.11,-74.868 132.91,-74.58 132.77,-74.379 132.63,-74.177 132.49,-73.976 132.38,-73.81 132.26,-73.665 132.26,-73.451 132.26,-73.342 132.26,-73.401 132.26,-73.292 132.26,-73.268 132.27,-72.841 132.27,-72.816 M136.93,-71.794 C137.2,-71.825 137.5,-71.846 137.78,-71.876 137.78,-71.877 137.83,-71.887 137.86,-71.902 137.93,-71.951 137.97,-72.032 137.97,-72.148 137.96,-72.505 137.96,-72.862 137.95,-73.219 137.95,-73.35 137.89,-73.471 137.81,-73.511 137.79,-73.517 137.78,-73.521 137.77,-73.523 137.74,-73.526 137.67,-73.535 137.65,-73.538 M133.92,-71.478 C134.2,-71.509 134.49,-71.53 134.77,-71.56 134.78,-71.561 134.83,-71.571 134.85,-71.586 134.92,-71.635 134.96,-71.717 134.96,-71.833 134.96,-72.189 134.95,-72.546 134.95,-72.903 134.95,-73.034 134.89,-73.155 134.8,-73.195 134.79,-73.201 134.77,-73.206 134.76,-73.207 134.74,-73.21 134.67,-73.219 134.64,-73.222 M135.49,-72.005 C135.48,-72.001 135.49,-71.945 135.49,-71.938 135.49,-71.913 135.5,-71.873 135.52,-71.847 135.55,-71.802 135.6,-71.78 135.62,-71.778 135.84,-71.75 136.27,-71.697 136.4,-71.681 136.4,-71.68 136.43,-71.679 136.45,-71.682 136.45,-71.683 136.45,-71.683 136.46,-71.684 136.54,-71.708 136.59,-71.812 136.59,-71.939 136.58,-72.296 136.58,-72.652 136.57,-73.009 136.57,-73.14 136.51,-73.262 136.43,-73.301 136.42,-73.307 136.4,-73.312 136.39,-73.313 136.37,-73.316 136.38,-73.315 136.35,-73.318 M132.48,-71.625 C132.48,-71.621 132.49,-71.557 132.51,-71.531 132.54,-71.486 132.59,-71.464 132.61,-71.462 132.84,-71.434 133.26,-71.381 133.39,-71.365 133.4,-71.365 133.42,-71.363 133.44,-71.366 133.45,-71.367 133.45,-71.367 133.45,-71.368 133.53,-71.392 133.58,-71.496 133.58,-71.623 133.58,-71.98 133.57,-72.336 133.57,-72.693 133.57,-72.824 133.51,-72.946 133.42,-72.985 133.41,-72.991 133.4,-72.996 133.38,-72.998 133.36,-73 133.37,-72.999 133.35,-73.002 M144.64,-70.652 C144.65,-70.634 144.67,-70.608 144.7,-70.583 144.73,-70.56 144.78,-70.537 144.8,-70.535 145.07,-70.502 145.03,-70.506 145.3,-70.472 145.57,-70.439 146.21,-70.359 146.48,-70.326 146.48,-70.326 146.51,-70.324 146.53,-70.327 146.53,-70.328 146.53,-70.328 146.53,-70.329 146.61,-70.353 146.67,-70.457 146.67,-70.584 146.66,-70.94 146.66,-71.369 146.65,-71.726 146.65,-71.857 146.59,-71.979 146.51,-72.018 146.49,-72.024 146.48,-72.029 146.46,-72.03 146.44,-72.033 146.37,-72.041 146.35,-72.043 M121.44,-68.186 C121.45,-68.169 121.47,-68.142 121.5,-68.117 121.53,-68.094 121.58,-68.071 121.6,-68.069 121.87,-68.036 121.83,-68.04 122.1,-68.006 122.37,-67.973 123.01,-67.893 123.28,-67.86 123.28,-67.86 123.31,-67.858 123.33,-67.861 123.33,-67.862 123.33,-67.862 123.34,-67.863 123.41,-67.887 123.47,-67.991 123.47,-68.118 123.46,-68.475 123.46,-68.903 123.45,-69.26 123.45,-69.391 123.39,-69.513 123.31,-69.552 123.29,-69.558 123.28,-69.563 123.27,-69.564 123.24,-69.567 123.17,-69.575 123.15,-69.577 M146.98,-70.413 C147.27,-70.442 147.55,-70.472 147.83,-70.502 147.91,-70.526 147.97,-70.63 147.96,-70.756 147.96,-71.113 147.95,-71.542 147.95,-71.899 147.95,-72.03 147.89,-72.151 147.8,-72.191 147.79,-72.197 147.78,-72.201 147.76,-72.203 M123.79,-67.947 C124.07,-67.977 124.35,-68.006 124.64,-68.036 124.71,-68.06 124.77,-68.164 124.77,-68.29 124.76,-68.647 124.76,-69.076 124.75,-69.433 124.75,-69.564 124.69,-69.685 124.61,-69.725 124.59,-69.731 124.58,-69.735 124.56,-69.737 M136.94,-72.817 L137.61,-72.891 M133.93,-72.501 L134.6,-72.575 M146.99,-71.574 L147.62,-71.643 M123.8,-69.108 L124.42,-69.177 M125.93,-73.189 L123.38,-72.92 123.38,-71.348 M125.09,-68.939 L146.31,-71.17 M148.3,-71.378 L149.85,-71.542 M121.16,-68.506 L123.12,-68.722 M121.07,-69.028 L123.1,-69.241 M125.09,-69.45 L146.31,-71.68 M148.29,-71.887 L149.06,-71.97 149.72,-71.876 M149.02,-72.309 L149.02,-73.317 M135.3,-72.349 L136.25,-72.454 M138.3,-72.538 L143.14,-73.046 M120.73,-70.742 L121.94,-70.87 M119.43,-71.086 L121.79,-71.335 121.79,-73.417 124.65,-73.716 126.27,-73.491 126.27,-71.663 M138.3,-73.069 L142.94,-73.557 142.94,-75.639 145.79,-75.938 147.41,-75.713 147.41,-73.838 M126.61,-71.883 L132.54,-72.506 M122.13,-73.097 L123.05,-72.974 M133.23,-72.046 L123.37,-71.009 122.1,-71.187 M149.85,-73.752 L144.51,-73.19 143.22,-73.372 M135.13,-76.668 C135.12,-76.803 135.11,-76.893 135.1,-76.984 135.1,-77.026 135.07,-77.209 134.87,-77.213 134.66,-77.217 134.61,-76.954 134.6,-76.826 134.6,-76.769 134.58,-76.549 134.58,-76.474 M147.07,-75.41 L144.52,-75.143 144.52,-73.535 M143.28,-75.32 L144.19,-75.196 M145.47,-70.108 C145.58,-69.96 145.55,-69.996 145.63,-69.909 145.71,-69.823 145.75,-69.793 145.81,-69.772 145.87,-69.751 145.94,-69.753 146,-69.783 146.06,-69.813 146.17,-69.945 146.23,-70.013 M122.27,-67.645 C122.38,-67.497 122.35,-67.533 122.43,-67.446 122.51,-67.36 122.55,-67.33 122.61,-67.309 122.67,-67.287 122.74,-67.29 122.8,-67.32 122.86,-67.35 122.97,-67.482 123.03,-67.55"/>
      <path stroke="#000" d="M152.18,-84.09 L117.49,-84.09"/>
      <text font-family="Arial" font-size="1.76" font-weight="bold" x="113.347" y="-30.6273" fill="#000">Титульный лист</text>
      <text font-family="Arial" font-size="1.76" font-weight="bold" x="115.747" y="-27.8278" fill="#000">Лист регистрации изменений</text>
      <text font-family="Arial" font-size="1.76" font-weight="bold" x="118.09" y="-25.0515" fill="#000">Перечень действующих МД</text>
      <text font-family="Arial" font-size="1.76" font-weight="bold" x="120.549" y="-22.2529" fill="#000">Содержание</text>
      <text font-family="Arial" font-size="1.76" font-weight="bold" x="122.936" y="-19.4224" fill="#000">Введение</text>
      <text font-family="Arial" font-size="1.76" font-weight="bold" x="125.398" y="-16.6733" fill="#000">Перечень работ</text>
      <path stroke="#000" d="M112.42,-90.283 L155.27,-90.283 155.27,-29.691 112.42,-29.691 Z"/>
      <path stroke="#000" d="M114.85,-29.691 L114.85,-26.903 157.69,-26.903 157.69,-87.495 155.27,-87.495 M117.27,-26.903 L117.27,-24.115 160.11,-24.115 160.11,-84.707 157.69,-84.707 M119.69,-24.115 L119.69,-21.327 162.53,-21.327 162.53,-81.919 160.11,-81.919 M122.11,-21.327 L122.11,-18.539 164.95,-18.539 164.95,-79.131 162.53,-79.131 M125.06,-15.751 L125.06,-15.227 167.9,-15.227 167.9,-75.819 167.49,-75.819 M125.58,-15.227 L125.58,-14.703 168.42,-14.703 168.42,-75.295 168.02,-75.295 M126.11,-14.703 L126.11,-14.179 168.95,-14.179 168.95,-74.771 168.54,-74.771 M167.38,-15.751 L169.47,-13.655 M124.53,-18.539 L124.53,-15.751 167.38,-15.751 167.38,-76.344 164.95,-76.344 M126.63,-14.179 L126.63,-13.655 169.47,-13.655 169.47,-74.247 169.06,-74.247 M38.646,-28.968 L1.5432,-50.389 54.018,-80.686 91.121,-59.264 38.646,-28.968 M1.5432,-50.389 L1.5432,-44.674 38.646,-23.252 91.121,-53.548 91.121,-53.885 89.797,-54.649 M38.646,-23.589 L38.646,-23.252 M91.121,-53.885 L38.646,-23.589 1.8345,-44.842 1.8345,-49.885 38.646,-28.632 91.121,-58.928 91.121,-59.264"/>
      <path fill="#131a22" d="M25.913,-44.629 C26.285,-44.843 26.636,-45.046 27.007,-45.26 27.116,-45.198 27.223,-45.136 27.332,-45.073 26.96,-44.858 26.609,-44.656 26.238,-44.441 26.113,-44.369 25.989,-44.324 25.864,-44.305 25.741,-44.286 25.621,-44.29 25.505,-44.315 25.389,-44.341 25.28,-44.383 25.177,-44.443 25.073,-44.503 24.999,-44.566 24.953,-44.633 24.909,-44.701 24.903,-44.77 24.936,-44.841 24.97,-44.912 25.049,-44.984 25.174,-45.056 25.545,-45.27 25.896,-45.473 26.267,-45.687 26.376,-45.625 26.484,-45.563 26.592,-45.5 26.221,-45.285 25.87,-45.083 25.498,-44.868 25.428,-44.828 25.382,-44.792 25.359,-44.761 25.338,-44.73 25.335,-44.701 25.352,-44.676 25.369,-44.65 25.401,-44.624 25.446,-44.598 25.492,-44.572 25.537,-44.554 25.58,-44.544 25.624,-44.535 25.673,-44.536 25.726,-44.549 25.78,-44.562 25.843,-44.588 25.913,-44.629 Z"/>
      <path fill="#131a22" d="M28.598,-44.342 L26.975,-43.405 26.66,-43.587 27.169,-44.467 26.152,-43.88 25.843,-44.058 27.466,-44.996 27.776,-44.816 27.264,-43.929 28.289,-44.52 28.598,-44.342 Z"/>
      <path fill="#131a22" d="M29.1,-44.052 L27.477,-43.115 27.153,-43.302 28.776,-44.239 29.1,-44.052 Z"/>
      <path fill="#131a22" d="M29.534,-42.527 C29.487,-42.499 29.451,-42.473 29.426,-42.448 29.402,-42.423 29.39,-42.4 29.389,-42.377 29.389,-42.354 29.398,-42.332 29.416,-42.31 29.436,-42.287 29.464,-42.266 29.501,-42.244 29.543,-42.22 29.584,-42.206 29.625,-42.201 29.666,-42.195 29.705,-42.197 29.743,-42.206 29.78,-42.215 29.816,-42.23 29.85,-42.249 29.878,-42.266 29.902,-42.282 29.92,-42.298 29.938,-42.315 29.948,-42.333 29.951,-42.354 29.955,-42.375 29.951,-42.399 29.939,-42.429 29.928,-42.457 29.909,-42.492 29.881,-42.533 29.847,-42.581 29.816,-42.628 29.788,-42.676 29.762,-42.724 29.745,-42.771 29.737,-42.818 29.73,-42.865 29.738,-42.91 29.762,-42.954 29.788,-42.998 29.834,-43.04 29.902,-43.079 29.969,-43.117 30.041,-43.145 30.119,-43.163 30.198,-43.18 30.279,-43.187 30.362,-43.183 30.446,-43.18 30.529,-43.167 30.61,-43.144 30.691,-43.121 30.77,-43.088 30.844,-43.045 30.945,-42.987 31.012,-42.924 31.044,-42.857 31.076,-42.79 31.076,-42.723 31.044,-42.658 31.012,-42.592 30.949,-42.532 30.854,-42.477 30.748,-42.538 30.643,-42.599 30.537,-42.66 30.582,-42.686 30.615,-42.712 30.636,-42.739 30.658,-42.767 30.665,-42.794 30.657,-42.821 30.65,-42.848 30.624,-42.874 30.58,-42.899 30.54,-42.922 30.498,-42.937 30.455,-42.943 30.413,-42.949 30.371,-42.947 30.33,-42.939 30.29,-42.93 30.253,-42.915 30.218,-42.895 30.192,-42.88 30.175,-42.863 30.166,-42.844 30.159,-42.825 30.158,-42.804 30.164,-42.781 30.17,-42.759 30.181,-42.735 30.196,-42.709 30.212,-42.682 30.231,-42.654 30.254,-42.624 30.297,-42.566 30.329,-42.512 30.35,-42.461 30.372,-42.41 30.38,-42.361 30.375,-42.316 30.371,-42.271 30.352,-42.228 30.319,-42.187 30.286,-42.146 30.236,-42.106 30.169,-42.068 30.103,-42.03 30.032,-42.002 29.954,-41.984 29.878,-41.966 29.799,-41.958 29.717,-41.961 29.635,-41.964 29.553,-41.977 29.47,-42 29.389,-42.023 29.31,-42.056 29.235,-42.1 29.162,-42.142 29.103,-42.188 29.058,-42.237 29.014,-42.287 28.988,-42.338 28.98,-42.391 28.974,-42.444 28.989,-42.498 29.026,-42.551 29.063,-42.606 29.127,-42.659 29.217,-42.711 29.323,-42.649 29.428,-42.588 29.534,-42.527 Z"/>
      <path fill="#3152ba" d="M30.258,-41.927 L30.619,-41.718 30.258,-41.509 29.896,-41.718 30.258,-41.927 Z"/>
      <path fill="#131a22" d="M29.655,-43.453 L28.272,-42.655 27.949,-42.842 29.331,-43.64 29.655,-43.453 Z"/>
      <path fill="#131a22" d="M30.29,-43.365 L30.022,-43.21 28.91,-43.852 29.178,-44.007 30.29,-43.365 Z"/>
      <path stroke="#000" stroke-width="0.25" d="M43.199,-67.038 L42.272,-67.725 42.465,-67.839 46.636,-69.564 47.471,-68.89 44.457,-66.374 44.264,-66.26 44.222,-66.279 43.199,-67.038 M72.33,-55.036 L71.189,-54.564 70.997,-54.45 72.947,-53.005 72.988,-52.985 73.181,-53.099 76.302,-55.704 75.534,-56.291 74.107,-56.958 M58.95,-64.432 C59.058,-64.496 59.053,-64.493 59.137,-64.543 59.25,-64.609 59.392,-64.634 59.48,-64.602 59.48,-64.602 59.523,-64.59 59.564,-64.571 59.602,-64.553 59.637,-64.528 59.642,-64.525 59.685,-64.493 59.678,-64.498 59.715,-64.471 M59.956,-60.823 C59.439,-60.832 59.446,-60.82 58.912,-60.829 58.843,-60.83 58.684,-60.854 58.631,-60.872 58.59,-60.886 58.542,-60.913 58.503,-60.945 58.463,-60.978 58.436,-61.011 58.428,-61.038 58.334,-61.348 58.345,-61.309 58.251,-61.62 M43.444,-67.247 L44.653,-68.21 44.893,-68.353 46.657,-69.136 M64.718,-61.972 C64.718,-61.973 64.833,-62.074 64.945,-62.172 64.984,-62.207 65.026,-62.278 65.03,-62.294 65.139,-62.715 65.25,-63.91 65.28,-64.286 65.285,-64.356 65.193,-64.414 65.192,-64.415 65.02,-64.551 64.716,-64.543 64.452,-64.515 64.308,-64.5 64.163,-64.485 64.019,-64.47 63.806,-64.448 63.594,-64.426 63.381,-64.404 62.958,-64.36 62.535,-64.316 62.112,-64.273 61.816,-64.242 61.52,-64.211 61.224,-64.181 60.98,-64.155 60.751,-64.143 60.568,-64.035 60.454,-63.967 60.006,-63.692 59.893,-63.624 M64.467,-64.912 C64.46,-64.913 64.452,-64.913 64.445,-64.914 64.327,-64.92 64.201,-64.912 64.083,-64.899 63.939,-64.884 63.794,-64.869 63.65,-64.854 63.437,-64.832 63.224,-64.81 63.012,-64.788 62.589,-64.744 62.166,-64.701 61.743,-64.657 61.447,-64.626 61.151,-64.595 60.855,-64.565 60.611,-64.54 60.381,-64.527 60.199,-64.419 60.106,-64.364 60.156,-64.394 60.063,-64.339 60.042,-64.326 59.677,-64.11 59.656,-64.098 M62.807,-61.256 C63.073,-61.133 63.346,-60.997 63.613,-60.873 63.621,-60.869 63.672,-60.85 63.704,-60.846 63.811,-60.833 63.915,-60.855 64.014,-60.914 64.319,-61.094 64.624,-61.275 64.929,-61.456 65.042,-61.522 65.094,-61.613 65.056,-61.675 65.05,-61.684 65.042,-61.693 65.031,-61.701 65.014,-61.713 64.959,-61.755 64.942,-61.767 M59.93,-62.601 C60.197,-62.478 60.469,-62.342 60.736,-62.218 60.744,-62.214 60.796,-62.195 60.827,-62.191 60.935,-62.178 61.038,-62.2 61.137,-62.259 61.442,-62.439 61.747,-62.62 62.052,-62.8 62.165,-62.867 62.217,-62.958 62.179,-63.02 62.173,-63.029 62.165,-63.038 62.154,-63.046 62.138,-63.058 62.082,-63.1 62.066,-63.112 M61.741,-62.083 C61.737,-62.081 61.69,-62.052 61.685,-62.048 61.666,-62.034 61.64,-62.009 61.633,-61.986 61.622,-61.948 61.646,-61.913 61.657,-61.904 61.828,-61.777 62.152,-61.537 62.252,-61.463 62.254,-61.462 62.277,-61.447 62.295,-61.44 62.298,-61.438 62.301,-61.437 62.305,-61.436 62.393,-61.409 62.53,-61.434 62.638,-61.498 62.943,-61.679 63.248,-61.859 63.554,-62.04 63.666,-62.107 63.718,-62.197 63.68,-62.259 63.674,-62.269 63.666,-62.278 63.655,-62.286 63.639,-62.298 63.647,-62.292 63.63,-62.304 M58.808,-63.396 C58.805,-63.394 58.763,-63.354 58.756,-63.331 58.745,-63.293 58.769,-63.258 58.781,-63.249 58.952,-63.122 59.275,-62.882 59.376,-62.808 59.377,-62.807 59.4,-62.792 59.418,-62.784 59.421,-62.783 59.425,-62.782 59.428,-62.781 59.517,-62.754 59.653,-62.779 59.761,-62.843 60.067,-63.024 60.372,-63.204 60.677,-63.385 60.789,-63.451 60.842,-63.542 60.803,-63.604 60.798,-63.614 60.789,-63.623 60.779,-63.631 60.762,-63.643 60.77,-63.637 60.754,-63.649 M68.5,-56.828 C68.49,-56.815 68.485,-56.792 68.492,-56.763 68.499,-56.736 68.516,-56.703 68.531,-56.692 68.735,-56.541 68.709,-56.56 68.913,-56.409 69.115,-56.259 69.604,-55.897 69.807,-55.747 69.809,-55.745 69.831,-55.731 69.849,-55.723 69.852,-55.722 69.856,-55.721 69.859,-55.72 69.948,-55.693 70.084,-55.718 70.192,-55.782 70.498,-55.962 70.864,-56.179 71.169,-56.36 71.282,-56.426 71.334,-56.517 71.296,-56.579 71.29,-56.589 71.282,-56.598 71.271,-56.606 71.255,-56.618 71.197,-56.659 71.18,-56.671 M46.273,-67.194 C46.264,-67.182 46.259,-67.159 46.266,-67.13 46.272,-67.102 46.29,-67.069 46.305,-67.059 46.509,-66.907 46.483,-66.927 46.687,-66.775 46.889,-66.625 47.378,-66.263 47.58,-66.113 47.582,-66.112 47.605,-66.097 47.623,-66.089 47.626,-66.088 47.629,-66.087 47.633,-66.086 47.721,-66.059 47.858,-66.084 47.966,-66.148 48.271,-66.329 48.638,-66.546 48.943,-66.726 49.055,-66.793 49.108,-66.884 49.07,-66.946 49.064,-66.955 49.055,-66.964 49.045,-66.972 49.028,-66.984 48.971,-67.025 48.954,-67.037 M70.321,-55.537 C70.592,-55.41 70.862,-55.284 71.133,-55.157 71.222,-55.13 71.358,-55.155 71.467,-55.219 71.772,-55.399 72.139,-55.616 72.444,-55.797 72.556,-55.863 72.609,-55.954 72.57,-56.016 72.564,-56.026 72.556,-56.035 72.545,-56.043 M48.095,-65.903 C48.366,-65.776 48.636,-65.65 48.907,-65.523 48.996,-65.496 49.132,-65.521 49.24,-65.585 49.546,-65.766 49.912,-65.983 50.217,-66.163 50.33,-66.23 50.382,-66.321 50.344,-66.382 50.338,-66.392 50.33,-66.401 50.319,-66.409 M63.701,-61.763 L64.347,-61.464 M60.825,-63.108 L61.47,-62.809 M71.335,-56.112 L71.935,-55.835 M49.108,-66.479 L49.709,-66.201 M54.491,-67.452 L52.049,-68.594 50.687,-67.807 M50.085,-65.746 L70.395,-56.251 M72.292,-55.364 L73.784,-54.667 M46.306,-67.495 L48.189,-66.624 M46.678,-67.802 L48.625,-66.891 M50.528,-66.002 L70.833,-56.509 M72.725,-55.623 L73.468,-55.276 73.961,-54.898 M73.724,-55.468 L74.597,-55.972 M61.875,-62.349 L62.789,-61.927 M64.643,-60.94 L69.272,-58.776 M47.868,-68.829 L49.029,-68.287 M47.036,-69.653 L49.304,-68.593 51.107,-69.634 53.835,-68.358 55.045,-67.435 53.462,-66.521 M65.097,-61.209 L69.538,-59.133 71.34,-60.174 74.069,-58.898 75.279,-57.975 73.655,-57.037 M53.946,-66.461 L59.62,-63.808 M51.122,-69.305 L51.809,-68.786 M59.826,-63.229 L50.386,-67.642 49.442,-68.365 M75.698,-55.771 L70.585,-58.162 69.623,-58.899 M65.475,-64.589 C65.581,-64.663 65.652,-64.712 65.722,-64.763 65.755,-64.786 65.886,-64.894 65.717,-64.995 65.543,-65.099 65.272,-64.993 65.153,-64.934 65.1,-64.907 64.895,-64.806 64.825,-64.771 M74.722,-57.993 L72.287,-59.132 70.894,-58.328 M71.361,-59.843 L72.047,-59.324 M68.741,-56.144 C68.709,-56.015 68.717,-56.046 68.711,-55.963 68.705,-55.88 68.71,-55.847 68.746,-55.805 68.781,-55.764 68.844,-55.729 68.924,-55.714 69.003,-55.698 69.213,-55.709 69.318,-55.716 M46.517,-66.511 C46.485,-66.382 46.493,-66.414 46.487,-66.33 46.481,-66.247 46.486,-66.214 46.522,-66.173 46.557,-66.131 46.62,-66.097 46.7,-66.081 46.779,-66.066 46.989,-66.077 47.095,-66.083"/>
    </g>
    <g transform="matrix(4.91087,2.83529,-4.91087,2.83529,239.765,861.576)">
      <text font-family="Arial" font-size="1.16" font-weight="bold" x="0" y="0" fill="#000">ЛИНЕЙНАЯ ТРАВЕРСА</text>
    </g>
    <g transform="matrix(4.91087,2.83529,-4.91087,2.83529,198.379,845.25)">
      <text font-family="Arial" font-size="1.16" font-weight="bold" x="0" y="0" fill="#000">РЕГЛАМЕНТ ТЕХНИЧЕСКОГО ОБСЛУЖИВАНИЯ</text>
    </g>
    <g transform="matrix(4.91087,2.83529,-4.91087,2.83529,226.938,869.306)">
      <text font-family="Arial" font-size="1.16" font-weight="bold" x="0" y="0" fill="#000">MTPM-UNITS-MS005-00</text>
    </g>
    <g transform="matrix(5.67059,0,0,5.67059,-0,1190.91)" stroke-width="0.18" stroke-linecap="round" stroke-linejoin="round" stroke-miterlimit="10">
      <path stroke="#000" d="M1.8345,-44.842 L2.4964,-45.224"/>
      <path stroke="#000" stroke-width="0.15" d="M2.4964,-49.503 L2.4964,-45.224 38.646,-24.353 39.314,-24.738 M47.711,-29.586 L89.797,-53.885 89.797,-57.399 M2.4964,-47.363 L38.646,-26.492 64.879,-41.638 M73.27,-46.482 L89.797,-56.024 M2.4964,-49.075 L38.646,-28.204 81.674,-53.046 M2.4964,-46.936 L38.646,-26.064 56.108,-36.146 M64.505,-40.994 L89.797,-55.596 M2.4964,-48.647 L38.646,-27.776 72.903,-47.554 M81.3,-52.402 L89.797,-57.308 M2.4964,-46.508 L38.646,-25.637 56.482,-35.934 M64.873,-40.778 L89.797,-55.168 M2.4964,-48.219 L38.646,-27.348 73.276,-47.342 M81.667,-52.186 L89.797,-56.88 M2.4964,-46.08 L38.646,-25.209 47.711,-30.442 M56.108,-35.29 L89.797,-54.74 M2.4964,-47.791 L38.646,-26.92 64.505,-41.85 M72.903,-46.698 L89.797,-56.452 M2.4964,-45.652 L38.646,-24.781 48.084,-30.23 M56.475,-35.074 L89.797,-54.312 M38.646,-24.353 L38.646,-28.632"/>
      <path stroke="#000" d="M38.943,-24.952 C39.113,-24.854 39.469,-24.649 39.639,-24.551 39.724,-24.5 39.847,-24.471 39.975,-24.471 40.104,-24.471 40.227,-24.5 40.315,-24.552 42.893,-26.04 45.456,-27.52 48.034,-29.008 48.221,-29.117 48.221,-29.292 48.034,-29.4 47.865,-29.498 47.509,-29.703 47.34,-29.8 M47.34,-30.656 C47.51,-30.558 47.866,-30.352 48.036,-30.254 48.122,-30.204 48.244,-30.175 48.373,-30.175 48.501,-30.174 48.624,-30.204 48.712,-30.256 51.29,-31.744 53.853,-33.224 56.431,-34.712 56.618,-34.82 56.618,-34.996 56.431,-35.104 56.262,-35.201 55.907,-35.407 55.738,-35.504 M64.135,-42.064 C64.305,-41.966 64.661,-41.76 64.83,-41.662 64.916,-41.612 65.039,-41.582 65.167,-41.582 65.296,-41.582 65.418,-41.612 65.506,-41.663 68.085,-43.152 70.647,-44.632 73.226,-46.12 73.413,-46.228 73.413,-46.404 73.225,-46.512 73.056,-46.609 72.701,-46.814 72.532,-46.912 M55.738,-36.36 C55.907,-36.262 56.263,-36.056 56.433,-35.958 56.519,-35.908 56.642,-35.879 56.77,-35.879 56.898,-35.879 57.021,-35.908 57.109,-35.96 59.687,-37.448 62.25,-38.928 64.828,-40.416 65.016,-40.524 65.016,-40.7 64.828,-40.808 64.659,-40.905 64.304,-41.111 64.135,-41.208 M72.532,-47.768 C72.702,-47.67 73.058,-47.464 73.228,-47.366 73.313,-47.316 73.436,-47.286 73.565,-47.286 73.693,-47.286 73.816,-47.316 73.904,-47.367 76.482,-48.856 79.045,-50.335 81.623,-51.824 81.81,-51.932 81.81,-52.107 81.623,-52.216 81.454,-52.313 81.098,-52.518 80.929,-52.616 M81.3,-53.258 C81.346,-53.231 81.579,-53.097 81.625,-53.07 81.711,-53.02 81.834,-52.99 81.962,-52.99 82.09,-52.99 82.213,-53.02 82.301,-53.071 84.879,-54.56 87.442,-56.039 90.02,-57.528 90.207,-57.636 90.207,-57.811 90.02,-57.919 89.975,-57.946 89.742,-58.08 89.697,-58.106"/>
    </g>
    <g transform="matrix(4.91087,2.83529,-4.91087,2.83529,239.765,347.402)">
      <text font-family="Arial" font-size="1.16" font-weight="bold" x="0" y="0" fill="#000">ЛИНЕЙНАЯ ТРАВЕРСА</text>
    </g>
    <g transform="matrix(4.91087,2.83529,-4.91087,2.83529,192.463,327.66)">
      <text font-family="Arial" font-size="1.16" font-weight="bold" x="0" y="0" fill="#000">РУКОВОДСТВО ПО ТЕХНИЧЕСКОЙ ЭКСПЛУАТАЦИИ</text>
    </g>
    <g transform="matrix(4.91087,2.83529,-4.91087,2.83529,226.465,354.859)">
      <text font-family="Arial" font-size="1.16" font-weight="bold" x="0" y="0" fill="#000">MTPM-UNITS-MM000-00</text>
    </g>
    <g transform="matrix(5.67059,0,0,5.67059,-0,1190.91)" stroke-width="0.25" stroke-linecap="round" stroke-linejoin="round" stroke-miterlimit="10">
      <path fill="#131a22" d="M25.913,-135.11 C26.285,-135.32 26.636,-135.52 27.007,-135.74 27.116,-135.67 27.223,-135.61 27.332,-135.55 26.96,-135.33 26.609,-135.13 26.238,-134.92 26.113,-134.85 25.989,-134.8 25.864,-134.78 25.741,-134.76 25.621,-134.77 25.505,-134.79 25.389,-134.82 25.28,-134.86 25.177,-134.92 25.073,-134.98 24.999,-135.04 24.953,-135.11 24.909,-135.18 24.903,-135.25 24.936,-135.32 24.97,-135.39 25.049,-135.46 25.174,-135.53 25.545,-135.75 25.896,-135.95 26.267,-136.16 26.376,-136.1 26.484,-136.04 26.592,-135.98 26.221,-135.76 25.87,-135.56 25.498,-135.34 25.428,-135.3 25.382,-135.27 25.359,-135.24 25.338,-135.21 25.335,-135.18 25.352,-135.15 25.369,-135.13 25.401,-135.1 25.446,-135.07 25.492,-135.05 25.537,-135.03 25.58,-135.02 25.624,-135.01 25.673,-135.01 25.726,-135.03 25.78,-135.04 25.843,-135.06 25.913,-135.11 Z"/>
      <path fill="#131a22" d="M28.598,-134.82 L26.975,-133.88 26.66,-134.06 27.169,-134.94 26.152,-134.36 25.843,-134.53 27.466,-135.47 27.776,-135.29 27.264,-134.41 28.289,-135 28.598,-134.82 Z"/>
      <path fill="#131a22" d="M29.1,-134.53 L27.477,-133.59 27.153,-133.78 28.776,-134.72 29.1,-134.53 Z"/>
      <path fill="#131a22" d="M29.534,-133 C29.487,-132.98 29.451,-132.95 29.426,-132.92 29.402,-132.9 29.39,-132.88 29.389,-132.85 29.389,-132.83 29.398,-132.81 29.416,-132.79 29.436,-132.76 29.464,-132.74 29.501,-132.72 29.543,-132.7 29.584,-132.68 29.625,-132.68 29.666,-132.67 29.705,-132.67 29.743,-132.68 29.78,-132.69 29.816,-132.71 29.85,-132.73 29.878,-132.74 29.902,-132.76 29.92,-132.77 29.938,-132.79 29.948,-132.81 29.951,-132.83 29.955,-132.85 29.951,-132.88 29.939,-132.91 29.928,-132.93 29.909,-132.97 29.881,-133.01 29.847,-133.06 29.816,-133.1 29.788,-133.15 29.762,-133.2 29.745,-133.25 29.737,-133.29 29.73,-133.34 29.738,-133.39 29.762,-133.43 29.788,-133.47 29.834,-133.52 29.902,-133.56 29.969,-133.59 30.041,-133.62 30.119,-133.64 30.198,-133.66 30.279,-133.66 30.362,-133.66 30.446,-133.66 30.529,-133.64 30.61,-133.62 30.691,-133.6 30.77,-133.56 30.844,-133.52 30.945,-133.46 31.012,-133.4 31.044,-133.33 31.076,-133.27 31.076,-133.2 31.044,-133.13 31.012,-133.07 30.949,-133.01 30.854,-132.95 30.748,-133.01 30.643,-133.08 30.537,-133.14 30.582,-133.16 30.615,-133.19 30.636,-133.22 30.658,-133.24 30.665,-133.27 30.658,-133.3 30.65,-133.32 30.624,-133.35 30.58,-133.38 30.54,-133.4 30.498,-133.41 30.455,-133.42 30.413,-133.43 30.371,-133.42 30.33,-133.42 30.29,-133.41 30.253,-133.39 30.218,-133.37 30.192,-133.36 30.175,-133.34 30.166,-133.32 30.159,-133.3 30.158,-133.28 30.164,-133.26 30.17,-133.24 30.181,-133.21 30.196,-133.19 30.212,-133.16 30.231,-133.13 30.254,-133.1 30.297,-133.04 30.329,-132.99 30.35,-132.94 30.372,-132.89 30.38,-132.84 30.375,-132.79 30.371,-132.75 30.352,-132.7 30.319,-132.66 30.286,-132.62 30.236,-132.58 30.169,-132.54 30.103,-132.51 30.032,-132.48 29.954,-132.46 29.878,-132.44 29.799,-132.43 29.717,-132.44 29.635,-132.44 29.553,-132.45 29.47,-132.48 29.389,-132.5 29.31,-132.53 29.235,-132.58 29.162,-132.62 29.103,-132.66 29.058,-132.71 29.014,-132.76 28.988,-132.81 28.98,-132.87 28.974,-132.92 28.989,-132.97 29.026,-133.03 29.063,-133.08 29.127,-133.14 29.217,-133.19 29.323,-133.13 29.428,-133.06 29.534,-133 Z"/>
      <path fill="#3152ba" d="M30.258,-132.4 L30.619,-132.19 30.258,-131.99 29.896,-132.19 30.258,-132.4 Z"/>
      <path fill="#131a22" d="M29.655,-133.93 L28.272,-133.13 27.949,-133.32 29.331,-134.12 29.655,-133.93 Z"/>
      <path fill="#131a22" d="M30.29,-133.84 L30.022,-133.69 28.91,-134.33 29.178,-134.48 30.29,-133.84 Z"/>
      <path stroke="#000" d="M43.199,-157.71 L42.272,-158.4 42.465,-158.51 46.636,-160.24 47.471,-159.56 44.457,-157.05 44.264,-156.93 44.222,-156.95 43.199,-157.71 M72.33,-145.71 L71.189,-145.24 70.997,-145.12 72.947,-143.68 72.988,-143.66 73.181,-143.77 76.302,-146.38 75.534,-146.97 74.107,-147.63 M58.95,-155.11 C59.058,-155.17 59.053,-155.17 59.137,-155.22 59.25,-155.28 59.392,-155.31 59.48,-155.28 59.48,-155.28 59.523,-155.26 59.564,-155.24 59.602,-155.23 59.637,-155.2 59.642,-155.2 59.685,-155.17 59.678,-155.17 59.715,-155.14 M59.956,-151.5 C59.439,-151.51 59.446,-151.49 58.912,-151.5 58.843,-151.5 58.684,-151.53 58.631,-151.55 58.59,-151.56 58.542,-151.59 58.503,-151.62 58.463,-151.65 58.436,-151.69 58.428,-151.71 58.334,-152.02 58.345,-151.98 58.251,-152.29 M43.444,-157.92 L44.653,-158.88 44.893,-159.03 46.657,-159.81 M64.718,-152.65 C64.718,-152.65 64.833,-152.75 64.945,-152.85 64.984,-152.88 65.026,-152.95 65.03,-152.97 65.139,-153.39 65.25,-154.58 65.28,-154.96 65.285,-155.03 65.193,-155.09 65.192,-155.09 65.02,-155.22 64.716,-155.22 64.452,-155.19 64.308,-155.17 64.163,-155.16 64.019,-155.14 63.806,-155.12 63.594,-155.1 63.381,-155.08 62.958,-155.03 62.535,-154.99 62.112,-154.95 61.816,-154.92 61.52,-154.89 61.224,-154.85 60.98,-154.83 60.751,-154.82 60.568,-154.71 60.454,-154.64 60.006,-154.37 59.893,-154.3 M64.467,-155.59 C64.46,-155.59 64.452,-155.59 64.445,-155.59 64.327,-155.59 64.201,-155.59 64.083,-155.57 63.939,-155.56 63.794,-155.54 63.65,-155.53 63.437,-155.51 63.224,-155.48 63.012,-155.46 62.589,-155.42 62.166,-155.37 61.743,-155.33 61.447,-155.3 61.151,-155.27 60.855,-155.24 60.611,-155.21 60.381,-155.2 60.199,-155.09 60.106,-155.04 60.156,-155.07 60.063,-155.01 60.042,-155 59.677,-154.78 59.656,-154.77 M62.807,-151.93 C63.073,-151.81 63.346,-151.67 63.613,-151.55 63.621,-151.54 63.672,-151.52 63.704,-151.52 63.811,-151.51 63.915,-151.53 64.014,-151.59 64.319,-151.77 64.624,-151.95 64.929,-152.13 65.042,-152.2 65.094,-152.29 65.056,-152.35 65.05,-152.36 65.042,-152.37 65.031,-152.38 65.014,-152.39 64.959,-152.43 64.942,-152.44 M59.93,-153.27 C60.197,-153.15 60.469,-153.02 60.736,-152.89 60.744,-152.89 60.796,-152.87 60.827,-152.86 60.935,-152.85 61.038,-152.87 61.137,-152.93 61.442,-153.11 61.747,-153.29 62.052,-153.47 62.165,-153.54 62.217,-153.63 62.179,-153.69 62.173,-153.7 62.165,-153.71 62.154,-153.72 62.138,-153.73 62.082,-153.77 62.066,-153.79 M61.741,-152.76 C61.737,-152.75 61.69,-152.73 61.685,-152.72 61.666,-152.71 61.64,-152.68 61.633,-152.66 61.622,-152.62 61.646,-152.59 61.657,-152.58 61.828,-152.45 62.152,-152.21 62.252,-152.14 62.254,-152.14 62.277,-152.12 62.295,-152.11 62.298,-152.11 62.301,-152.11 62.305,-152.11 62.393,-152.08 62.53,-152.11 62.638,-152.17 62.943,-152.35 63.248,-152.53 63.554,-152.71 63.666,-152.78 63.718,-152.87 63.68,-152.93 63.674,-152.94 63.666,-152.95 63.655,-152.96 63.639,-152.97 63.647,-152.97 63.63,-152.98 M58.808,-154.07 C58.805,-154.07 58.763,-154.03 58.756,-154.01 58.745,-153.97 58.769,-153.93 58.781,-153.92 58.952,-153.8 59.275,-153.56 59.376,-153.48 59.377,-153.48 59.4,-153.47 59.418,-153.46 59.421,-153.46 59.425,-153.46 59.428,-153.46 59.517,-153.43 59.653,-153.45 59.761,-153.52 60.067,-153.7 60.372,-153.88 60.677,-154.06 60.789,-154.13 60.842,-154.22 60.803,-154.28 60.798,-154.29 60.789,-154.3 60.779,-154.3 60.762,-154.32 60.77,-154.31 60.754,-154.32 M68.5,-147.5 C68.49,-147.49 68.485,-147.47 68.492,-147.44 68.499,-147.41 68.516,-147.38 68.531,-147.37 68.735,-147.21 68.709,-147.23 68.913,-147.08 69.115,-146.93 69.604,-146.57 69.807,-146.42 69.809,-146.42 69.831,-146.4 69.849,-146.4 69.852,-146.4 69.856,-146.39 69.859,-146.39 69.948,-146.37 70.084,-146.39 70.192,-146.46 70.498,-146.64 70.864,-146.85 71.169,-147.03 71.282,-147.1 71.334,-147.19 71.296,-147.25 71.29,-147.26 71.282,-147.27 71.271,-147.28 71.255,-147.29 71.197,-147.33 71.18,-147.34 M46.273,-157.87 C46.264,-157.86 46.259,-157.83 46.266,-157.8 46.272,-157.78 46.29,-157.74 46.305,-157.73 46.509,-157.58 46.483,-157.6 46.687,-157.45 46.889,-157.3 47.378,-156.94 47.58,-156.79 47.582,-156.79 47.605,-156.77 47.623,-156.76 47.626,-156.76 47.629,-156.76 47.633,-156.76 47.721,-156.73 47.858,-156.76 47.966,-156.82 48.271,-157 48.638,-157.22 48.943,-157.4 49.055,-157.47 49.108,-157.56 49.07,-157.62 49.064,-157.63 49.055,-157.64 49.045,-157.65 49.028,-157.66 48.971,-157.7 48.954,-157.71 M70.321,-146.21 C70.592,-146.08 70.862,-145.96 71.133,-145.83 71.222,-145.8 71.358,-145.83 71.467,-145.89 71.772,-146.07 72.139,-146.29 72.444,-146.47 72.556,-146.54 72.609,-146.63 72.57,-146.69 72.564,-146.7 72.556,-146.71 72.545,-146.72 M48.095,-156.58 C48.366,-156.45 48.636,-156.32 48.907,-156.2 48.996,-156.17 49.132,-156.19 49.24,-156.26 49.546,-156.44 49.912,-156.66 50.217,-156.84 50.33,-156.9 50.382,-156.99 50.344,-157.06 50.338,-157.07 50.33,-157.07 50.319,-157.08 M63.701,-152.44 L64.347,-152.14 M60.825,-153.78 L61.47,-153.48 M71.335,-146.79 L71.935,-146.51 M49.108,-157.15 L49.709,-156.87 M54.491,-158.13 L52.049,-159.27 50.687,-158.48 M50.085,-156.42 L70.395,-146.93 M72.292,-146.04 L73.784,-145.34 M46.306,-158.17 L48.189,-157.3 M46.678,-158.48 L48.625,-157.57 M50.528,-156.68 L70.833,-147.18 M72.725,-146.3 L73.468,-145.95 73.961,-145.57 M73.724,-146.14 L74.597,-146.65 M61.875,-153.02 L62.789,-152.6 M64.643,-151.61 L69.272,-149.45 M47.868,-159.5 L49.029,-158.96 M47.036,-160.33 L49.304,-159.27 51.107,-160.31 53.835,-159.03 55.045,-158.11 53.462,-157.19 M65.097,-151.88 L69.538,-149.81 71.34,-150.85 74.069,-149.57 75.279,-148.65 73.655,-147.71 M53.946,-157.13 L59.62,-154.48 M51.122,-159.98 L51.809,-159.46 M59.826,-153.9 L50.386,-158.32 49.442,-159.04 M75.698,-146.45 L70.585,-148.84 69.623,-149.57 M65.475,-155.26 C65.581,-155.34 65.652,-155.39 65.722,-155.44 65.755,-155.46 65.886,-155.57 65.717,-155.67 65.543,-155.77 65.272,-155.67 65.153,-155.61 65.1,-155.58 64.895,-155.48 64.825,-155.44 M74.722,-148.67 L72.287,-149.81 70.894,-149 M71.361,-150.52 L72.047,-150 M68.741,-146.82 C68.709,-146.69 68.717,-146.72 68.711,-146.64 68.705,-146.55 68.71,-146.52 68.746,-146.48 68.781,-146.44 68.844,-146.4 68.924,-146.39 69.003,-146.37 69.213,-146.38 69.318,-146.39 M46.517,-157.19 C46.485,-157.06 46.493,-157.09 46.487,-157 46.481,-156.92 46.486,-156.89 46.522,-156.85 46.557,-156.81 46.62,-156.77 46.7,-156.76 46.779,-156.74 46.989,-156.75 47.095,-156.76"/>
      <path stroke="#000" stroke-width="0.18" d="M38.646,-119.64 L1.5432,-141.06 54.018,-171.36 91.121,-149.94 38.646,-119.64 M1.5432,-141.06 L1.5432,-135.35 38.646,-113.93 91.121,-144.22 91.121,-144.56 89.797,-145.32 M38.646,-114.26 L38.646,-113.93 M91.121,-144.56 L38.646,-114.26 1.8345,-135.52 1.8345,-140.56 38.646,-119.31 91.121,-149.6 91.121,-149.94 M1.8345,-135.52 L2.4964,-135.9"/>
      <path stroke="#000" stroke-width="0.15" d="M2.4964,-140.18 L2.4964,-135.9 38.646,-115.03 39.314,-115.41 M47.711,-120.26 L89.797,-144.56 89.797,-148.07 M2.4964,-138.04 L38.646,-117.17 64.879,-132.31 M73.27,-137.16 L89.797,-146.7 M2.4964,-139.75 L38.646,-118.88 81.674,-143.72 M2.4964,-137.61 L38.646,-116.74 56.108,-126.82 M64.505,-131.67 L89.797,-146.27 M2.4964,-139.32 L38.646,-118.45 72.903,-138.23 M81.3,-143.08 L89.797,-147.98 M2.4964,-137.18 L38.646,-116.31 56.482,-126.61 M64.873,-131.45 L89.797,-145.84 M2.4964,-138.89 L38.646,-118.02 73.276,-138.02 M81.667,-142.86 L89.797,-147.55 M2.4964,-136.75 L38.646,-115.88 47.711,-121.12 M56.108,-125.96 L89.797,-145.41 M2.4964,-138.47 L38.646,-117.59 64.505,-132.52 M72.903,-137.37 L89.797,-147.13 M2.4964,-136.33 L38.646,-115.45 48.084,-120.9 M56.475,-125.75 L89.797,-144.99 M38.646,-115.03 L38.646,-119.31"/>
      <path stroke="#000" stroke-width="0.18" d="M38.943,-115.63 C39.113,-115.53 39.469,-115.32 39.639,-115.22 39.724,-115.17 39.847,-115.14 39.975,-115.14 40.104,-115.14 40.227,-115.17 40.315,-115.23 42.893,-116.71 45.456,-118.19 48.034,-119.68 48.221,-119.79 48.221,-119.97 48.034,-120.07 47.865,-120.17 47.509,-120.38 47.34,-120.47 M47.34,-121.33 C47.51,-121.23 47.866,-121.03 48.036,-120.93 48.122,-120.88 48.244,-120.85 48.373,-120.85 48.501,-120.85 48.624,-120.88 48.712,-120.93 51.29,-122.42 53.853,-123.9 56.431,-125.39 56.618,-125.49 56.618,-125.67 56.431,-125.78 56.262,-125.88 55.907,-126.08 55.738,-126.18 M64.135,-132.74 C64.305,-132.64 64.661,-132.43 64.83,-132.34 64.916,-132.29 65.039,-132.26 65.167,-132.26 65.296,-132.26 65.418,-132.29 65.506,-132.34 68.085,-133.83 70.647,-135.31 73.226,-136.79 73.413,-136.9 73.413,-137.08 73.225,-137.19 73.056,-137.28 72.701,-137.49 72.532,-137.59 M55.738,-127.03 C55.907,-126.94 56.263,-126.73 56.433,-126.63 56.519,-126.58 56.642,-126.55 56.77,-126.55 56.898,-126.55 57.021,-126.58 57.109,-126.63 59.687,-128.12 62.25,-129.6 64.828,-131.09 65.016,-131.2 65.016,-131.37 64.828,-131.48 64.659,-131.58 64.304,-131.78 64.135,-131.88 M72.532,-138.44 C72.702,-138.34 73.058,-138.14 73.228,-138.04 73.313,-137.99 73.436,-137.96 73.565,-137.96 73.693,-137.96 73.816,-137.99 73.904,-138.04 76.482,-139.53 79.045,-141.01 81.623,-142.5 81.81,-142.61 81.81,-142.78 81.623,-142.89 81.454,-142.99 81.098,-143.19 80.929,-143.29 M81.3,-143.93 C81.346,-143.91 81.579,-143.77 81.625,-143.74 81.711,-143.69 81.834,-143.66 81.962,-143.66 82.09,-143.66 82.213,-143.69 82.301,-143.75 84.879,-145.23 87.442,-146.71 90.02,-148.2 90.207,-148.31 90.207,-148.49 90.02,-148.59 89.975,-148.62 89.742,-148.75 89.697,-148.78"/>
    </g>
  </g>
  <g id="AUTOID_042" vm2d:name="Callouts" vm2d:type="layer"/>
  <g id="AUTOID_043" vm2d:name="Panels" vm2d:type="layer">
    <g transform="matrix(5.67059,0,0,5.67059,-0,1190.91)" stroke-width="0.15" stroke-linecap="round" stroke-linejoin="round" stroke-miterlimit="10">
      <path fill="#fff" stroke="#000" d="M104.77,-145.14 L100.13,-145.14 100.13,-147.64 94.772,-142.64 100.13,-137.64 100.13,-140.14 104.77,-140.14 Z"/>
    </g>
    <g id="WRAP_001" vm2d:name="" vm2d:type="grnode">
      <g transform="matrix(5.67059,0,0,5.67059,-0,1190.91)" stroke-width="1.15" stroke-linecap="round" stroke-linejoin="round" stroke-miterlimit="10">
        <path stroke="#fff" d="M106.77,-145.14 L108.77,-145.14 108.77,-140.14 106.77,-140.14 Z"/>
        <path fill="#fff" stroke="#000" stroke-width="0.15" d="M106.77,-145.14 L108.77,-145.14 108.77,-140.14 106.77,-140.14 Z"/>
      </g>
    </g>
    <g transform="matrix(5.67059,0,0,5.67059,-0,1190.91)" stroke-width="0.15" stroke-linecap="round" stroke-linejoin="round" stroke-miterlimit="10">
      <path fill="#fff" stroke="#000" d="M104.77,-54.469 L100.13,-54.469 100.13,-56.968 94.772,-51.969 100.13,-46.97 100.13,-49.469 104.77,-49.469 Z"/>
    </g>
    <g id="WRAP_002" vm2d:name="" vm2d:type="grnode">
      <g transform="matrix(5.67059,0,0,5.67059,-0,1190.91)" stroke-width="1.15" stroke-linecap="round" stroke-linejoin="round" stroke-miterlimit="10">
        <path stroke="#fff" d="M106.77,-54.469 L108.77,-54.469 108.77,-49.469 106.77,-49.469 Z"/>
        <path fill="#fff" stroke="#000" stroke-width="0.15" d="M106.77,-54.469 L108.77,-54.469 108.77,-49.469 106.77,-49.469 Z"/>
      </g>
    </g>
    <g id="AUTOID_002" vm2d:name="" vm2d:type="grnode">
      <g transform="matrix(5.67059,0,0,5.67059,-0,1190.91)">
        <text font-family="Arial" font-size="3.84" x="53.0425" y="-200.959" fill="#000">КОМПЛЕКТ ЭКСПЛУАТАЦИОННОЙ</text>
        <text font-family="Arial" font-size="3.84" x="69.1767" y="-196.548" fill="#000">ДОКУМЕНТАЦИИ</text>
      </g>
    </g>
  </g>
</svg>
