<?xml version="1.0" encoding="UTF-8" standalone="no"?>
<!DOCTYPE svg SYSTEM "http://www.w3.org/Graphics/SVG/1.1/DTD/svg11.dtd" [
<!ENTITY % SVG.External.attrib
"xmlns:vm2d CDATA #FIXED 'http://www.cortona3d.com/vm2d'
vm2d:name CDATA #IMPLIED
vm2d:type CDATA #IMPLIED">
]>
<svg xmlns="http://www.w3.org/2000/svg" xmlns:vm2d="http://www.cortona3d.com/vm2d" xmlns:xlink="http://www.w3.org/1999/xlink" version="1.1" width="170mm" height="222mm" viewBox="0 0 643 840" fill="none" fill-rule="evenodd" stroke-miterlimit="5">
  <title>Untitled</title>
  <desc>"Generator:ParallelGraphics Cortona2D","ProfileId:WebCGM""ProfileEd:2.1""ColourClass:colour""Source:Cortona2D Editor Pro 14.2.0.142""Date:20250507"</desc>
  <rect width="643" height="840" fill="#fff"/>
  <defs/>
  <g id="C3DB0001" vm2d:name="Background" vm2d:type="layer"/>
  <g id="C3DG0001" vm2d:name="Drawing" vm2d:type="layer">
    <g transform="matrix(3.78235,0,0,3.78235,-0,839.841)" stroke-width="0.18" stroke-linecap="round" stroke-linejoin="round" stroke-miterlimit="10">
      <path stroke="#000" d="M84.637,-112.66 C84.637,-112.66 84.609,-112.65 84.596,-112.65 84.58,-112.64 84.565,-112.63 84.549,-112.63 84.533,-112.62 84.518,-112.61 84.502,-112.6 84.456,-112.58 84.408,-112.55 84.362,-112.52 84.315,-112.49 84.269,-112.45 84.223,-112.41 84.208,-112.4 84.192,-112.39 84.178,-112.37 84.162,-112.36 84.148,-112.35 84.133,-112.33 84.12,-112.32 84.093,-112.29 84.093,-112.29 M83.492,-110.91 C83.492,-110.91 83.493,-110.88 83.493,-110.87 83.494,-110.86 83.495,-110.84 83.496,-110.82 83.497,-110.8 83.499,-110.79 83.501,-110.77 83.503,-110.76 83.506,-110.74 83.506,-110.74 M85.761,-109.78 L86.728,-109.22 M87.471,-110.66 C87.471,-110.66 87.367,-111.93 87.314,-112.57 87.313,-112.57 87.309,-112.58 87.306,-112.58 87.306,-112.59 87.304,-112.59 87.303,-112.59 87.274,-112.62 87.244,-112.65 87.215,-112.69 87.159,-112.76 87.107,-112.82 87.06,-112.89 86.969,-113.03 86.893,-113.17 86.835,-113.33 86.822,-113.37 86.81,-113.4 86.797,-113.44 M95.386,-113.07 C95.386,-113.07 95.283,-112.95 95.228,-112.89 95.171,-112.83 95.112,-112.77 95.051,-112.71 94.988,-112.66 94.923,-112.6 94.856,-112.55 94.721,-112.44 94.574,-112.33 94.417,-112.23 94.102,-112.04 93.749,-111.87 93.368,-111.73 92.602,-111.45 91.744,-111.3 90.891,-111.31 90.573,-111.31 90.259,-111.33 89.954,-111.38 89.75,-111.41 89.552,-111.45 89.359,-111.49 89.263,-111.52 89.169,-111.54 89.075,-111.57 89.059,-111.57 89.04,-111.57 89.029,-111.56 88.251,-111.03 87.472,-110.5 86.695,-109.97 86.68,-109.96 86.669,-109.94 86.67,-109.92 86.812,-108.2 86.954,-106.48 87.097,-104.76 87.098,-104.74 87.109,-104.72 87.126,-104.71 87.61,-104.43 88.095,-104.15 88.58,-103.87 88.587,-103.87 88.597,-103.87 88.607,-103.87 88.617,-103.87 88.627,-103.87 88.634,-103.88 89.329,-104.35 90.024,-104.83 90.719,-105.3 91.291,-105.69 92.036,-105.6 92.686,-105.7 94.466,-105.99 95.962,-106.81 96.687,-107.9 97.016,-108.39 97.172,-108.94 97.13,-109.46 96.99,-111.18 96.847,-112.9 96.704,-114.62 96.671,-115.02 96.534,-115.4 96.3,-115.74 96.216,-115.87 96.119,-115.99 96.011,-116.11 95.956,-116.16 95.898,-116.22 95.839,-116.28 95.778,-116.33 95.713,-116.38 95.65,-116.44 95.647,-116.44 95.643,-116.44 95.64,-116.45 95.626,-116.46 95.599,-116.48 95.599,-116.48 M86.708,-115.75 C86.708,-115.75 86.688,-115.73 86.677,-115.71 86.674,-115.71 86.671,-115.71 86.668,-115.7 86.625,-115.65 86.58,-115.6 86.537,-115.55 86.496,-115.5 86.456,-115.45 86.418,-115.39 86.305,-115.23 86.21,-115.07 86.135,-114.9 86.061,-114.74 86,-114.56 85.966,-114.4 85.947,-114.31 85.93,-114.21 85.923,-114.13 85.919,-114.09 85.916,-114.05 85.914,-114 85.912,-113.96 85.914,-113.92 85.913,-113.88 85.912,-113.85 85.908,-113.8 85.908,-113.8 M95.899,-114.37 C95.899,-114.37 95.9,-114.45 95.898,-114.49 95.897,-114.54 95.888,-114.62 95.888,-114.62 M95.886,-114.2 C95.886,-114.2 95.89,-114.22 95.891,-114.23 95.894,-114.27 95.898,-114.34 95.898,-114.34 M95.858,-114.03 L95.862,-114.05 M95.903,-114.44 C95.903,-114.44 95.899,-114.3 95.892,-114.24 95.885,-114.17 95.874,-114.1 95.86,-114.04 95.814,-113.83 95.736,-113.63 95.633,-113.44 95.596,-113.38 95.557,-113.31 95.515,-113.25 95.472,-113.19 95.377,-113.06 95.377,-113.06 M86.731,-113.78 C86.731,-113.78 86.741,-113.69 86.749,-113.65 86.756,-113.61 86.765,-113.56 86.775,-113.52 86.785,-113.48 86.808,-113.41 86.808,-113.41 M86.821,-113.37 L86.842,-113.31 M86.686,-106.64 C86.686,-106.64 85.817,-106.05 85.382,-105.75 85.376,-105.75 85.366,-105.75 85.355,-105.75 85.345,-105.74 85.335,-105.75 85.328,-105.75 84.844,-106.03 84.358,-106.31 83.875,-106.59 83.857,-106.6 83.847,-106.62 83.845,-106.64 83.702,-108.35 83.56,-110.08 83.419,-111.8 83.417,-111.82 83.428,-111.84 83.443,-111.85 84.137,-112.32 84.835,-112.8 85.528,-113.27 85.559,-113.29 85.59,-113.31 85.619,-113.34 85.647,-113.36 85.674,-113.39 85.699,-113.41 85.724,-113.44 85.769,-113.49 85.761,-113.48 85.761,-113.48 85.799,-113.53 85.816,-113.56 85.833,-113.58 85.848,-113.61 85.861,-113.64 85.873,-113.67 85.884,-113.7 85.892,-113.72 85.9,-113.75 85.91,-113.81 85.91,-113.81 M83.718,-108.18 C83.718,-108.18 83.718,-108.16 83.718,-108.14 83.719,-108.13 83.72,-108.11 83.721,-108.09 83.723,-108.08 83.725,-108.06 83.727,-108.04 83.728,-108.03 83.731,-108.01 83.731,-108.01 M85.987,-107.05 L86.954,-106.49 M89.643,-105.32 C89.643,-105.32 89.643,-105.32 89.643,-105.32 M82.81,-176.95 C82.81,-176.95 82.8,-176.88 82.803,-176.85 82.812,-176.75 82.833,-176.65 82.862,-176.55 82.894,-176.44 82.936,-176.34 82.988,-176.24 83.014,-176.19 83.051,-176.14 83.082,-176.1 83.114,-176.05 83.139,-176 83.176,-175.96 83.177,-175.96 83.408,-175.76 83.408,-175.76 83.455,-175.73 83.561,-175.71 83.561,-175.71 M84.862,-159.96 C84.862,-159.96 84.755,-159.99 84.709,-160.01 84.621,-160.06 84.543,-160.13 84.477,-160.21 84.403,-160.3 84.341,-160.39 84.289,-160.49 84.237,-160.59 84.194,-160.7 84.162,-160.81 84.133,-160.9 84.112,-161 84.104,-161.1 84.101,-161.14 84.11,-161.2 84.11,-161.2 M86.162,-144.22 C86.162,-144.22 86.056,-144.24 86.009,-144.27 85.921,-144.32 85.844,-144.39 85.777,-144.47 85.703,-144.55 85.641,-144.65 85.589,-144.75 85.537,-144.85 85.495,-144.95 85.463,-145.06 85.434,-145.16 85.412,-145.26 85.404,-145.36 85.401,-145.39 85.411,-145.46 85.411,-145.46 M83.455,-175.45 C83.543,-175.5 83.584,-175.62 83.569,-175.81 83.554,-175.99 83.484,-176.2 83.375,-176.41 83.116,-176.91 82.793,-177.09 82.497,-176.92 82.372,-176.85 82.311,-176.7 82.326,-176.52 82.34,-176.34 82.431,-176.14 82.576,-175.95 82.691,-175.81 82.872,-175.66 83.052,-175.55 83.232,-175.45 83.385,-175.41 83.455,-175.45 Z M84.755,-159.7 C84.843,-159.75 84.884,-159.88 84.869,-160.06 84.854,-160.24 84.785,-160.46 84.676,-160.67 84.416,-161.16 84.093,-161.35 83.797,-161.18 83.673,-161.1 83.611,-160.96 83.626,-160.78 83.641,-160.6 83.731,-160.39 83.877,-160.21 83.991,-160.07 84.172,-159.91 84.352,-159.81 84.533,-159.71 84.686,-159.66 84.755,-159.7 Z M86.055,-143.96 C86.144,-144.01 86.185,-144.13 86.17,-144.31 86.155,-144.5 86.085,-144.71 85.976,-144.92 85.717,-145.42 85.394,-145.6 85.098,-145.43 84.973,-145.36 84.912,-145.21 84.927,-145.03 84.941,-144.85 85.032,-144.65 85.177,-144.46 85.292,-144.32 85.473,-144.17 85.653,-144.06 85.833,-143.96 85.986,-143.92 86.055,-143.96 Z M87.919,-115.42 C87.919,-115.42 87.923,-115.37 87.928,-115.35 87.945,-115.28 87.968,-115.2 87.995,-115.13 87.995,-115.13 88.099,-114.91 88.099,-114.91 88.203,-113.65 88.306,-112.4 88.41,-111.14 M95.814,-113.87 L89.871,-185.78 M80.98,-185.06 L86.925,-113.12 M88.558,-114.38 L88.561,-114.56 M82.584,-184.5 C82.549,-184.92 82.514,-185.34 82.479,-185.76 82.134,-186.07 81.94,-186.44 81.918,-186.84 81.854,-188 83.293,-189.05 85.143,-189.19 86.993,-189.34 88.563,-188.52 88.66,-187.36 88.726,-186.56 88.073,-185.77 86.969,-185.32 85.865,-184.86 84.499,-184.82 83.435,-185.21 83.261,-185.09 83.087,-184.97 82.913,-184.85 82.836,-184.8 82.764,-184.73 82.705,-184.64 82.604,-184.49 82.55,-184.31 82.562,-184.17 82.573,-184.03 82.585,-183.89 82.596,-183.75 84.031,-183.15 85.949,-183.16 87.528,-183.76 89.107,-184.36 90.068,-185.46 89.999,-186.58 89.948,-187.2 89.872,-187.74 89.491,-188.24 89.161,-188.68 88.713,-189 88.227,-189.24 87.328,-189.68 86.15,-189.87 84.971,-189.76 83.823,-189.65 82.793,-189.25 81.854,-188.59 80.879,-187.9 80.639,-186.89 80.731,-185.77 80.801,-185.23 81.116,-184.72 81.64,-184.3 81.743,-184.37 81.846,-184.44 81.949,-184.51 82.052,-184.58 82.155,-184.65 82.26,-184.73 82.379,-184.64 82.498,-184.56 82.618,-184.47 M83.328,-185.14 C83.328,-185.14 83.371,-185.19 83.388,-185.22 83.414,-185.26 83.435,-185.31 83.448,-185.36 83.488,-185.5 83.449,-185.63 83.352,-185.66 83.274,-185.7 83.165,-185.66 83.069,-185.56 82.972,-185.46 82.902,-185.32 82.884,-185.2 82.867,-185.07 82.905,-184.97 82.984,-184.94 83.003,-184.94 83.044,-184.94 83.044,-184.94 M83.025,-176.86 C83.025,-176.86 83.033,-176.79 83.039,-176.76 83.047,-176.71 83.058,-176.66 83.07,-176.61 83.095,-176.51 83.128,-176.4 83.167,-176.3 83.209,-176.19 83.258,-176.09 83.312,-176 83.339,-175.95 83.369,-175.91 83.402,-175.86 83.432,-175.82 83.466,-175.78 83.501,-175.74 83.508,-175.74 83.523,-175.72 83.523,-175.72 M82.895,-185.16 C82.895,-185.16 82.897,-185.16 82.899,-185.16 82.939,-185.19 82.976,-185.22 83.008,-185.26 83.044,-185.3 83.075,-185.34 83.101,-185.39 83.126,-185.43 83.146,-185.48 83.16,-185.53 83.169,-185.56 83.172,-185.64 83.172,-185.64 M96.767,-108.03 C96.767,-108.03 96.767,-108.02 96.768,-108.02 96.768,-108 96.768,-107.97 96.769,-107.95 96.769,-107.92 96.769,-107.9 96.77,-107.88 96.77,-107.83 96.77,-107.79 96.771,-107.74 96.771,-107.66 96.772,-107.57 96.772,-107.49 96.772,-107.44 96.773,-107.4 96.773,-107.36 96.773,-107.21 96.774,-107.05 96.774,-106.9 96.775,-106.75 96.775,-106.62 96.775,-106.54 96.774,-106.29 96.771,-106.17 96.764,-106.17 96.762,-106.17 96.759,-106.19 96.756,-106.22 96.73,-106.54 96.703,-106.87 96.677,-107.19 96.671,-107.25 96.666,-107.37 96.662,-107.52 96.661,-107.57 96.66,-107.62 96.659,-107.67 96.659,-107.69 96.658,-107.7 96.658,-107.71 96.658,-107.74 96.657,-107.76 96.657,-107.78 96.657,-107.81 96.656,-107.83 96.656,-107.86 96.656,-107.86 96.656,-107.86 96.656,-107.86 M94.98,-106.19 C94.656,-105.97 94.15,-105.7 93.978,-105.31 93.962,-105.28 93.955,-105.25 93.957,-105.22 93.984,-104.9 94.01,-104.58 94.037,-104.26 94.043,-104.19 94.124,-104.17 94.262,-104.22 94.469,-104.29 94.972,-104.6 95.501,-104.98 96.031,-105.35 96.462,-105.71 96.565,-105.86 96.615,-105.93 96.64,-105.99 96.636,-106.03 96.61,-106.35 96.583,-106.68 96.557,-107 96.556,-107.01 96.552,-107.02 96.546,-107.03 96.5,-107.1 96.322,-107.06 96.052,-106.9 95.859,-106.79 95.675,-106.66 95.492,-106.54 M89.994,-104.8 C89.994,-104.8 90.039,-104.25 90.062,-103.98 90.068,-103.91 90.181,-103.85 90.375,-103.81 90.59,-103.78 91.217,-103.78 91.924,-103.81 92.631,-103.85 93.253,-103.91 93.461,-103.97 93.648,-104.03 93.752,-104.1 93.746,-104.17 93.719,-104.49 93.693,-104.81 93.666,-105.13 93.663,-105.17 93.635,-105.2 93.584,-105.23 93.201,-105.44 92.57,-105.33 92.166,-105.31 M90.375,-103.81 C90.104,-103.86 89.837,-103.91 89.573,-103.98 M94.262,-104.22 C93.999,-104.13 93.732,-104.04 93.461,-103.97 M96.565,-105.86 C96.594,-105.89 96.669,-106.01 96.732,-106.12 96.744,-106.14 96.755,-106.15 96.764,-106.17 M88.979,-104.11 C88.979,-104.11 89.023,-104.09 89.045,-104.08 89.104,-104.05 89.163,-104.03 89.223,-104 89.284,-103.98 89.346,-103.95 89.408,-103.93 89.533,-103.88 89.662,-103.84 89.794,-103.8 90.126,-103.71 90.478,-103.64 90.843,-103.6 91.428,-103.54 92.036,-103.55 92.632,-103.64 93.303,-103.74 93.943,-103.92 94.507,-104.19 94.819,-104.34 95.104,-104.51 95.356,-104.7 95.507,-104.81 95.645,-104.93 95.77,-105.05 95.811,-105.09 95.851,-105.14 95.89,-105.18 95.928,-105.22 95.965,-105.26 96.001,-105.31 96.021,-105.33 96.059,-105.38 96.059,-105.38 M86.101,-106.24 C86.101,-106.24 86.055,-106.17 86.032,-106.13 86.023,-106.11 86.014,-106.09 86.005,-106.08 85.972,-106.01 85.937,-105.95 85.907,-105.88 85.877,-105.82 85.85,-105.75 85.823,-105.69 85.764,-105.54 85.695,-105.32 85.666,-105.17 85.584,-104.77 85.574,-104.37 85.64,-103.96 85.798,-102.98 86.076,-102.24 86.469,-101.74 87.282,-100.7 88.818,-99.989 90.654,-99.794 92.491,-99.599 94.434,-99.943 95.951,-100.73 97.468,-101.52 98.398,-102.67 98.487,-103.86 98.563,-104.69 98.684,-105.5 98.336,-106.28 98.174,-106.64 97.965,-106.97 97.7,-107.27 97.602,-107.38 97.459,-107.52 97.338,-107.63 97.279,-107.68 97.219,-107.73 97.157,-107.78 97.094,-107.83 97.029,-107.88 96.965,-107.93 96.951,-107.94 96.938,-107.95 96.924,-107.96 96.876,-107.99 96.78,-108.05 96.78,-108.05 M87.122,-104.72 C87.136,-104.55 87.15,-104.38 87.163,-104.21 87.164,-104.18 87.164,-104.14 87.164,-104.11 87.17,-104.04 87.175,-103.97 87.181,-103.9 88.134,-103.35 89.081,-102.8 90.033,-102.25 91.378,-102.32 92.714,-102.39 94.059,-102.46 95.007,-103.1 95.95,-103.75 96.899,-104.39 96.896,-105.24 96.893,-106.08 96.891,-106.93 96.885,-107 96.879,-107.07 96.873,-107.14 96.87,-107.14 96.867,-107.14 96.864,-107.14 96.873,-107.1 96.874,-107.07 96.874,-107.03 96.856,-107.24 96.839,-107.45 96.822,-107.66 96.819,-107.69 96.817,-107.71 96.814,-107.7 96.81,-107.7 96.807,-107.62 96.807,-107.48 96.806,-107.41 96.806,-107.32 96.806,-107.22 96.808,-106.88 96.809,-106.54 96.81,-106.2 96.811,-105.7 96.84,-105.21 96.881,-104.71 96.881,-104.68 96.882,-104.64 96.882,-104.6 96.841,-104.58 96.801,-104.55 96.761,-104.52 96.744,-104.73 96.727,-104.94 96.709,-105.15 96.706,-105.19 96.669,-105.21 96.604,-105.2 96.377,-105.17 96.143,-104.99 95.966,-104.87 95.584,-104.61 95.201,-104.34 94.819,-104.08 94.598,-103.93 94.36,-103.77 94.194,-103.56 94.136,-103.48 94.106,-103.42 94.11,-103.38 94.127,-103.17 94.144,-102.96 94.162,-102.75 94.121,-102.72 94.081,-102.69 94.041,-102.67 93.984,-102.66 93.928,-102.66 93.871,-102.66 93.853,-102.87 93.836,-103.08 93.819,-103.29 93.814,-103.34 93.739,-103.39 93.608,-103.42 93.338,-103.48 93.044,-103.46 92.772,-103.44 92.231,-103.42 91.688,-103.39 91.147,-103.36 90.873,-103.35 90.582,-103.34 90.321,-103.25 90.197,-103.2 90.13,-103.15 90.135,-103.1 90.152,-102.89 90.169,-102.68 90.187,-102.47 90.13,-102.47 90.073,-102.46 90.016,-102.46 89.976,-102.48 89.935,-102.51 89.895,-102.53 89.878,-102.74 89.86,-102.95 89.843,-103.16 89.834,-103.27 89.715,-103.36 89.641,-103.42 89.533,-103.52 89.416,-103.6 89.295,-103.67 89.229,-103.71 89.163,-103.75 89.096,-103.79 88.99,-103.85 88.778,-103.97 88.778,-103.97 M96.814,-107.7 C96.801,-107.73 96.771,-107.77 96.771,-107.77 M82.091,-59.788 C81.906,-59.898 81.603,-59.726 81.415,-59.403 81.227,-59.08 81.225,-58.73 81.411,-58.62 81.511,-58.56 81.652,-58.582 81.795,-58.679 81.937,-58.777 82.067,-58.94 82.147,-59.123 82.218,-59.285 82.245,-59.449 82.221,-59.579 82.203,-59.676 82.157,-59.75 82.091,-59.788 82.028,-59.825 81.9,-59.899 81.9,-59.899 M81.22,-58.73 L81.411,-58.62 M92.47,-76.864 C92.47,-76.864 92.602,-76.847 92.668,-76.84 92.763,-76.83 92.857,-76.821 92.952,-76.814 93.047,-76.807 93.143,-76.802 93.238,-76.798 93.525,-76.786 93.816,-76.787 94.106,-76.802 94.591,-76.827 95.073,-76.89 95.543,-76.988 96.677,-77.225 97.7,-77.665 98.484,-78.252 99.481,-78.998 100.03,-79.933 100.03,-80.878 100.02,-81.348 99.993,-81.828 99.906,-82.291 99.852,-82.576 99.766,-82.852 99.637,-83.112 99.579,-83.227 99.485,-83.387 99.411,-83.496 99.373,-83.55 99.333,-83.603 99.293,-83.656 99.282,-83.671 99.27,-83.686 99.258,-83.701 99.258,-83.701 99.258,-83.701 99.258,-83.701 M93.003,-97.041 C93.003,-97.041 93.006,-97.043 93.007,-97.044 93.079,-97.113 93.155,-97.178 93.233,-97.239 93.316,-97.302 93.402,-97.362 93.493,-97.411 93.769,-97.561 93.926,-97.529 93.944,-97.32 94.328,-92.665 94.714,-87.995 95.098,-83.34 95.107,-83.233 95.08,-83.083 95.018,-82.903 94.969,-82.757 94.905,-82.615 94.834,-82.478 M65.986,-46.295 C65.986,-46.295 66.037,-46.183 66.052,-46.124 66.07,-46.055 66.081,-45.983 66.085,-45.912 66.095,-45.761 66.079,-45.594 66.039,-45.421 65.979,-45.161 65.865,-44.893 65.711,-44.649 65.395,-44.151 64.952,-43.813 64.567,-43.777 64.06,-41.35 63.556,-38.938 63.049,-36.511 63.241,-36.4 63.431,-36.29 63.623,-36.179 64.804,-35.982 65.978,-35.787 67.16,-35.59 67.922,-35.15 68.679,-34.713 69.44,-34.273"/>
      <path stroke="#000" d="M67.231,-39.051 C67.525,-39.571 67.517,-40.126 67.213,-40.29 66.909,-40.454 66.425,-40.165 66.131,-39.644 65.837,-39.124 65.845,-38.57 66.149,-38.406 66.453,-38.242 66.937,-38.531 67.231,-39.051 Z M66.853,-40.305 C66.853,-40.305 66.854,-40.3 66.855,-40.297 66.866,-40.244 66.871,-40.19 66.872,-40.135 66.873,-40.075 66.869,-40.015 66.86,-39.956 66.851,-39.892 66.837,-39.828 66.819,-39.765 66.782,-39.636 66.727,-39.506 66.657,-39.382 66.587,-39.258 66.504,-39.144 66.412,-39.045 66.32,-38.945 66.22,-38.863 66.12,-38.803 66.072,-38.775 66.022,-38.75 65.97,-38.731 65.959,-38.727 65.936,-38.722 65.936,-38.722 M73.352,-35.517 C73.493,-35.767 73.57,-36.038 73.567,-36.27 73.563,-36.503 73.479,-36.677 73.334,-36.756 73.03,-36.92 72.546,-36.631 72.252,-36.111 72.111,-35.861 72.033,-35.59 72.037,-35.358 72.04,-35.125 72.124,-34.951 72.27,-34.872 72.574,-34.708 73.058,-34.997 73.352,-35.517 Z M72.973,-36.771 C72.973,-36.771 72.975,-36.766 72.976,-36.764 72.987,-36.711 72.992,-36.656 72.993,-36.602 72.994,-36.542 72.989,-36.481 72.981,-36.422 72.971,-36.358 72.957,-36.294 72.939,-36.232 72.902,-36.102 72.848,-35.973 72.778,-35.849 72.708,-35.725 72.625,-35.61 72.532,-35.511 72.44,-35.412 72.341,-35.329 72.241,-35.269 72.193,-35.241 72.143,-35.216 72.091,-35.197 72.08,-35.193 72.056,-35.189 72.056,-35.189 M86.986,-100.83 C79.37,-82.777 71.8,-64.835 64.184,-46.785 64.195,-46.754 64.259,-46.703 64.36,-46.645 64.424,-46.608 64.488,-46.571 64.551,-46.534 65.087,-46.445 65.624,-46.355 66.159,-46.266 66.215,-46.257 66.269,-46.239 66.319,-46.214 66.704,-46.015 66.773,-45.377 66.484,-44.698 66.195,-44.018 65.629,-43.491 65.141,-43.446 64.949,-43.556 64.759,-43.666 64.567,-43.777 M95.018,-82.903 C87.85,-65.92 80.725,-49.039 73.557,-32.056 73.568,-32.024 73.527,-32.015 73.441,-32.029 72.21,-32.234 70.975,-32.44 69.743,-32.646 69.552,-32.756 69.361,-32.866 69.17,-32.977 69.677,-35.404 70.181,-37.816 70.688,-40.243 71.073,-40.279 71.516,-40.617 71.831,-41.115 71.986,-41.359 72.1,-41.627 72.16,-41.888 72.2,-42.061 72.216,-42.227 72.206,-42.378 72.201,-42.449 72.191,-42.521 72.173,-42.59 72.157,-42.649 72.107,-42.761 72.107,-42.761 M81.167,-58.773 C81.166,-58.774 81.166,-58.775 81.166,-58.775 M81.093,-58.926 C81.093,-58.926 81.093,-58.927 81.092,-58.928 81.092,-58.929 81.092,-58.93 81.092,-58.93 M81.089,-59.139 C81.089,-59.139 81.089,-59.141 81.089,-59.141 81.089,-59.142 81.09,-59.144 81.09,-59.144 M81.157,-59.378 C81.157,-59.378 81.157,-59.38 81.158,-59.381 81.158,-59.382 81.159,-59.384 81.159,-59.384 M81.286,-59.608 C81.286,-59.608 81.287,-59.61 81.288,-59.611 81.288,-59.612 81.289,-59.613 81.289,-59.613 M81.456,-59.793 C81.456,-59.793 81.458,-59.795 81.459,-59.796 81.459,-59.796 81.461,-59.797 81.461,-59.797 M81.643,-59.905 C81.643,-59.905 81.644,-59.907 81.645,-59.907 81.646,-59.907 81.647,-59.907 81.647,-59.907 M81.816,-59.928 C81.816,-59.928 81.818,-59.928 81.819,-59.928 81.819,-59.928 81.82,-59.927 81.82,-59.927 M93.302,-78.837 C93.302,-78.837 93.392,-78.834 93.437,-78.833 93.525,-78.832 93.612,-78.833 93.7,-78.835 93.787,-78.836 93.875,-78.839 93.963,-78.844 94.05,-78.848 94.138,-78.854 94.226,-78.861 94.576,-78.89 94.924,-78.941 95.265,-79.012 95.947,-79.154 96.589,-79.379 97.153,-79.672 98.609,-80.427 99.432,-81.583 99.337,-82.737 98.806,-89.192 97.736,-102.12 97.736,-102.12 M87.107,-99.37 L86.953,-101.23 M89.458,-69.729 C89.458,-69.729 89.498,-69.695 89.518,-69.678 89.583,-69.627 89.649,-69.577 89.716,-69.529 89.785,-69.48 89.856,-69.434 89.927,-69.387 89.947,-69.373 89.967,-69.36 89.987,-69.347 90.06,-69.303 90.132,-69.257 90.206,-69.214 90.506,-69.041 90.835,-68.888 91.188,-68.758 91.73,-68.558 92.33,-68.409 92.935,-68.324 94.245,-68.141 95.648,-68.235 96.935,-68.591 98.363,-68.986 99.577,-69.685 100.38,-70.571 100.85,-71.092 101.16,-71.667 101.32,-72.291 101.41,-72.654 101.42,-73.021 101.39,-73.392 101.38,-73.46 101.37,-73.528 101.36,-73.596 101.35,-73.664 101.34,-73.732 101.32,-73.798 101.3,-73.866 101.28,-73.933 101.26,-73.999 101.24,-74.065 101.22,-74.13 101.19,-74.196 101.18,-74.225 101.17,-74.253 101.16,-74.281 101.16,-74.285 101.15,-74.291 101.15,-74.291 M90.078,-71.198 C90.078,-71.198 90.206,-71.127 90.271,-71.093 90.35,-71.052 90.431,-71.012 90.512,-70.975 90.676,-70.899 90.846,-70.828 91.022,-70.763 91.285,-70.666 91.605,-70.568 91.893,-70.497 92.461,-70.357 93.065,-70.273 93.686,-70.247 94.934,-70.194 96.208,-70.379 97.348,-70.777 98.627,-71.224 99.693,-71.923 100.37,-72.76 100.78,-73.27 101.07,-73.845 101.17,-74.386 101.24,-74.726 101.25,-75.052 101.22,-75.397 101.21,-75.465 101.21,-75.533 101.19,-75.601 101.18,-75.669 101.17,-75.737 101.15,-75.803 101.14,-75.871 101.12,-75.938 101.1,-76.004 101.08,-76.07 101.05,-76.135 101.02,-76.201 101.01,-76.23 101,-76.258 100.99,-76.286 100.99,-76.29 100.99,-76.296 100.99,-76.296 M90.757,-72.807 C90.757,-72.807 90.823,-72.78 90.857,-72.768 90.945,-72.735 91.035,-72.704 91.125,-72.675 91.217,-72.645 91.309,-72.618 91.402,-72.59 91.417,-72.586 91.432,-72.581 91.448,-72.577 91.732,-72.5 92.016,-72.431 92.306,-72.381 92.897,-72.278 93.516,-72.232 94.143,-72.245 95.297,-72.269 96.444,-72.49 97.461,-72.885 98.719,-73.373 99.689,-74.068 100.35,-74.953 100.72,-75.447 100.96,-76.017 101.05,-76.597 101.09,-76.865 101.08,-77.133 101.05,-77.402 101.05,-77.47 101.04,-77.538 101.03,-77.606 101.02,-77.674 101,-77.742 100.99,-77.808 100.97,-77.876 100.95,-77.943 100.93,-78.009 100.91,-78.074 100.86,-78.204 100.86,-78.204 M91.471,-74.499 C91.471,-74.499 91.493,-74.493 91.504,-74.49 91.601,-74.466 91.698,-74.444 91.796,-74.424 91.993,-74.382 92.193,-74.347 92.397,-74.319 92.609,-74.289 92.882,-74.261 93.041,-74.251 93.669,-74.214 94.293,-74.218 94.919,-74.289 96.193,-74.434 97.419,-74.817 98.409,-75.381 99.646,-76.085 100.51,-77.056 100.83,-78.102 101.01,-78.674 101.03,-79.278 100.89,-79.851 100.82,-80.128 100.68,-80.472 100.53,-80.731 100.45,-80.859 100.32,-81.054 100.22,-81.178 100.18,-81.238 100.13,-81.297 100.08,-81.354 100.05,-81.386 99.987,-81.449 99.987,-81.449 M95.074,-68.265 L95.092,-68.255 M95.112,-68.268 L95.092,-68.255 M100.77,-41.311 C100.58,-41.421 100.39,-41.531 100.2,-41.642 99.876,-41.853 99.638,-42.193 99.502,-42.636 97.886,-47.903 96.266,-53.186 94.65,-58.454 93.971,-60.667 94.609,-63.567 94.797,-65.639 94.829,-65.777 94.834,-65.929 94.811,-66.078 94.693,-66.332 94.493,-66.561 94.288,-66.68 92.65,-67.625 89.369,-69.52 89.369,-69.52 M101.39,-72.683 C101.39,-72.683 101.39,-72.683 101.39,-72.684 101.42,-72.697 101.45,-72.713 101.47,-72.73 101.5,-72.747 101.52,-72.765 101.54,-72.785 101.6,-72.844 101.63,-72.912 101.63,-72.979 101.63,-73.046 101.6,-73.11 101.54,-73.163 101.52,-73.181 101.5,-73.197 101.47,-73.211 101.45,-73.225 101.4,-73.246 101.4,-73.246 M101.06,-77.286 C101.06,-77.286 102.22,-76.618 102.8,-76.285 103.02,-76.154 103.18,-75.98 103.24,-75.785 103.26,-75.722 103.27,-75.655 103.27,-75.588 103.28,-75.378 103.31,-75.168 103.33,-74.958 103.33,-74.688 103.16,-74.42 102.85,-74.213 102.72,-74.122 102.58,-74.032 102.46,-73.918 102.41,-73.862 102.36,-73.8 102.31,-73.734 102.29,-73.694 102.25,-73.605 102.25,-73.605 M101.57,-75.265 C101.57,-75.265 101.55,-75.287 101.54,-75.296 101.5,-75.333 101.45,-75.365 101.41,-75.392 101.34,-75.431 101.21,-75.508 101.21,-75.508 M86.36,-62.389 C86.36,-62.389 89.385,-52.528 90.895,-47.605 91.031,-47.163 91.268,-46.823 91.59,-46.611 91.781,-46.501 91.972,-46.391 92.164,-46.28 M102.91,-49.431 C102.91,-49.431 102.93,-49.449 102.94,-49.458 102.96,-49.481 102.99,-49.504 103.01,-49.527 103.07,-49.579 103.12,-49.63 103.17,-49.684 103.28,-49.792 103.38,-49.91 103.47,-50.034 103.62,-50.221 103.75,-50.423 103.86,-50.634 103.98,-50.844 104.07,-51.062 104.15,-51.281 104.17,-51.353 104.19,-51.426 104.21,-51.499 104.23,-51.57 104.25,-51.643 104.27,-51.715 104.28,-51.749 104.28,-51.783 104.29,-51.817 104.29,-51.831 104.3,-51.858 104.3,-51.858 M101.88,-44.612 C101.88,-44.612 101.94,-44.629 101.97,-44.642 102.02,-44.665 102.07,-44.694 102.12,-44.727 102.17,-44.762 102.22,-44.802 102.27,-44.844 102.41,-44.978 102.54,-45.15 102.64,-45.341 102.7,-45.467 102.75,-45.598 102.78,-45.726 102.79,-45.787 102.81,-45.85 102.81,-45.913 102.82,-45.97 102.82,-46.029 102.81,-46.087 102.81,-46.122 102.79,-46.19 102.79,-46.19 M95.271,-50.724 C95.116,-50.784 94.914,-50.741 94.712,-50.603 94.51,-50.465 94.324,-50.244 94.194,-49.989 93.923,-49.458 93.967,-48.926 94.292,-48.801 94.617,-48.677 95.099,-49.006 95.37,-49.537 95.64,-50.068 95.596,-50.599 95.271,-50.724 Z M94.039,-49.139 C94.039,-49.139 94.099,-49.156 94.127,-49.169 94.18,-49.193 94.23,-49.222 94.277,-49.254 94.329,-49.29 94.378,-49.33 94.425,-49.372 94.57,-49.505 94.699,-49.678 94.796,-49.868 94.86,-49.994 94.909,-50.125 94.938,-50.253 94.953,-50.315 94.963,-50.377 94.969,-50.44 94.974,-50.498 94.975,-50.556 94.97,-50.614 94.967,-50.649 94.951,-50.718 94.951,-50.718 M95.055,-47.972 C95.055,-47.972 95.075,-47.99 95.085,-47.999 95.11,-48.022 95.136,-48.045 95.16,-48.068 95.219,-48.125 95.279,-48.181 95.336,-48.24 95.393,-48.301 95.45,-48.364 95.504,-48.428 95.669,-48.623 95.82,-48.837 95.952,-49.064 96.085,-49.292 96.197,-49.529 96.286,-49.769 96.315,-49.848 96.342,-49.928 96.367,-50.009 96.39,-50.087 96.41,-50.167 96.43,-50.247 96.439,-50.279 96.445,-50.312 96.452,-50.344 96.455,-50.357 96.46,-50.383 96.46,-50.383 M101.16,-44.737 C101.16,-44.737 101.2,-44.886 101.22,-44.96 101.24,-45.035 101.27,-45.11 101.29,-45.184 101.32,-45.26 101.35,-45.334 101.38,-45.408 101.45,-45.556 101.52,-45.702 101.61,-45.844 101.69,-45.985 101.78,-46.122 101.88,-46.251 101.92,-46.316 101.97,-46.379 102.03,-46.44 102.08,-46.5 102.13,-46.558 102.18,-46.615 102.24,-46.67 102.35,-46.776 102.35,-46.776 M88.502,-67.464 C88.502,-67.464 88.516,-67.484 88.523,-67.494 88.536,-67.511 88.549,-67.528 88.563,-67.545 88.577,-67.561 88.591,-67.577 88.606,-67.592 88.621,-67.607 88.651,-67.636 88.651,-67.636 M89.9,-108.87 C89.902,-109.18 89.689,-109.3 89.425,-109.15 89.161,-109 88.945,-108.63 88.943,-108.33 88.941,-108.02 89.154,-107.9 89.418,-108.05 89.682,-108.2 89.898,-108.57 89.9,-108.87 Z M87.6,-110.59 C87.259,-110.79 86.92,-110.98 86.579,-111.18 86.329,-111.32 85.952,-111.13 85.729,-110.75 85.505,-110.37 85.514,-109.94 85.75,-109.78 M86.77,-108.47 C86.499,-108.59 86.115,-108.35 85.912,-107.95 85.727,-107.59 85.753,-107.21 85.972,-107.06 M87.309,-112.55 C87.309,-112.55 87.31,-112.55 87.31,-112.55 87.311,-112.55 87.313,-112.55 87.314,-112.55 M89.605,-108.96 C89.547,-108.98 89.471,-108.97 89.395,-108.91 89.32,-108.86 89.25,-108.78 89.201,-108.68 89.152,-108.59 89.129,-108.49 89.136,-108.41 89.143,-108.32 89.179,-108.26 89.238,-108.24 89.296,-108.22 89.372,-108.23 89.447,-108.29 89.523,-108.34 89.593,-108.42 89.642,-108.52 89.691,-108.61 89.714,-108.71 89.707,-108.8 89.7,-108.88 89.664,-108.94 89.605,-108.96 Z M89.831,-106.23 C89.772,-106.25 89.697,-106.24 89.621,-106.19 89.545,-106.13 89.475,-106.05 89.426,-105.96 89.378,-105.86 89.354,-105.76 89.361,-105.68 89.368,-105.59 89.405,-105.53 89.463,-105.51 89.522,-105.49 89.597,-105.5 89.673,-105.56 89.749,-105.61 89.819,-105.69 89.867,-105.79 89.916,-105.88 89.94,-105.98 89.933,-106.07 89.926,-106.15 89.889,-106.21 89.831,-106.23 Z M90.125,-106.14 C90.127,-106.45 89.915,-106.58 89.65,-106.43 89.386,-106.27 89.171,-105.91 89.169,-105.6 89.167,-105.29 89.379,-105.17 89.643,-105.32 89.77,-105.39 89.892,-105.52 89.983,-105.67 90.073,-105.83 90.124,-106 90.125,-106.14 Z M82.98,-174.86 C83.156,-174.76 83.326,-174.8 83.442,-174.98 83.559,-175.16 83.61,-175.46 83.583,-175.79 83.531,-176.41 83.244,-177.01 82.863,-177.3 82.375,-177.68 82.158,-177.17 82.357,-176.11 82.475,-175.48 82.709,-175.01 82.98,-174.86 Z M82.193,-182.13 C82.127,-182.09 82.108,-181.99 82.143,-181.87 82.179,-181.74 82.264,-181.61 82.365,-181.53 82.467,-181.44 82.57,-181.41 82.636,-181.45 82.737,-181.51 82.72,-181.71 82.598,-181.89 82.476,-182.08 82.295,-182.19 82.193,-182.13 Z M88.099,-114.91 L87.618,-114.58 M84.284,-159.11 C84.499,-158.99 84.697,-159.08 84.805,-159.36 84.914,-159.63 84.917,-160.05 84.814,-160.45 84.683,-160.97 84.381,-161.45 84.072,-161.63 83.649,-161.87 83.474,-161.34 83.657,-160.37 83.776,-159.74 84.012,-159.26 84.284,-159.11 Z M85.584,-143.36 C85.8,-143.24 85.998,-143.34 86.106,-143.61 86.214,-143.88 86.218,-144.3 86.115,-144.71 85.983,-145.23 85.682,-145.71 85.373,-145.88 84.949,-146.13 84.774,-145.6 84.958,-144.62 85.077,-143.99 85.313,-143.52 85.584,-143.36 Z M87.93,-110.81 C87.826,-112.07 87.722,-113.32 87.618,-114.58 87.52,-114.75 87.45,-114.94 87.425,-115.12 87.401,-115.29 87.423,-115.42 87.488,-115.49 87.597,-115.59 87.84,-115.52 88.088,-115.3 88.335,-115.09 88.527,-114.79 88.561,-114.56 88.568,-114.5 88.566,-114.42 88.558,-114.38 88.537,-114.27 88.469,-114.18 88.383,-114.14 88.462,-113.19 88.541,-112.24 88.619,-111.28 M82.582,-183.92 C82.582,-183.92 82.333,-184.03 82.217,-184.09 82.064,-184.18 81.784,-184.4 81.784,-184.4 M87.637,-185.67 C87.637,-185.67 87.628,-185.69 87.627,-185.71 87.624,-185.74 87.628,-185.78 87.642,-185.82 87.654,-185.85 87.675,-185.87 87.702,-185.89 87.729,-185.9 87.764,-185.91 87.795,-185.91 87.834,-185.9 87.872,-185.89 87.906,-185.87 87.906,-185.87 87.907,-185.87 87.907,-185.87 M81.64,-184.3 C81.628,-184.44 81.617,-184.58 81.605,-184.72 81.594,-184.86 81.648,-185.04 81.749,-185.19 81.808,-185.28 81.88,-185.35 81.956,-185.41 82.13,-185.52 82.305,-185.64 82.479,-185.76 M90.578,-105.2 C90.578,-105.2 90.626,-105.21 90.65,-105.21 90.716,-105.22 90.781,-105.23 90.847,-105.23 90.88,-105.24 90.913,-105.24 90.946,-105.24 90.979,-105.24 91.012,-105.25 91.045,-105.25 91.111,-105.25 91.177,-105.26 91.243,-105.26 91.309,-105.27 91.375,-105.27 91.441,-105.27 M89.722,-104.62 C89.722,-104.62 89.754,-104.23 89.77,-104.04 89.776,-103.97 89.705,-103.95 89.573,-103.98 89.51,-104 89.397,-104.04 89.302,-104.09 89.256,-104.11 89.209,-104.13 89.163,-104.16 89.142,-104.17 89.099,-104.19 89.099,-104.19 M90.727,-105.3 C90.727,-105.3 90.819,-105.3 90.865,-105.29 90.928,-105.29 90.992,-105.28 91.056,-105.28 91.12,-105.28 91.184,-105.28 91.248,-105.27 91.312,-105.27 91.377,-105.27 91.441,-105.27 91.682,-105.27 91.925,-105.29 92.166,-105.31 93.205,-105.41 94.192,-105.72 94.98,-106.19 95.163,-106.3 95.334,-106.41 95.492,-106.54 95.66,-106.67 95.812,-106.81 95.948,-106.96 96.015,-107.03 96.078,-107.1 96.137,-107.18 96.166,-107.22 96.194,-107.25 96.221,-107.29 96.248,-107.33 96.274,-107.37 96.299,-107.41 96.306,-107.42 96.319,-107.44 96.319,-107.44 M92.383,-76.66 C92.383,-76.66 92.42,-76.652 92.439,-76.649 92.518,-76.635 92.598,-76.623 92.677,-76.611 92.838,-76.589 93.001,-76.572 93.165,-76.56 93.412,-76.541 93.662,-76.535 93.913,-76.54 94.5,-76.552 95.088,-76.628 95.65,-76.764 96.213,-76.9 96.741,-77.095 97.213,-77.34 97.414,-77.445 97.605,-77.558 97.782,-77.679 97.9,-77.76 98.013,-77.844 98.119,-77.931 98.171,-77.974 98.223,-78.018 98.273,-78.064 98.322,-78.108 98.37,-78.154 98.417,-78.2 98.421,-78.204 98.428,-78.211 98.428,-78.211 M92.459,-76.839 C92.459,-76.839 92.47,-76.837 92.475,-76.836 92.552,-76.823 92.63,-76.811 92.708,-76.8 92.786,-76.789 92.865,-76.779 92.944,-76.771 93.181,-76.745 93.423,-76.731 93.667,-76.729 93.992,-76.725 94.319,-76.742 94.644,-76.779 95.05,-76.825 95.45,-76.902 95.834,-77.008 95.911,-77.03 95.987,-77.052 96.063,-77.076 96.137,-77.099 96.212,-77.124 96.286,-77.15 96.359,-77.175 96.432,-77.202 96.504,-77.23 96.576,-77.258 96.647,-77.287 96.717,-77.317 96.734,-77.324 96.767,-77.339 96.767,-77.339"/>
      <path stroke="#000" d="M90.187,-102.47 C90.089,-102.49 89.992,-102.51 89.895,-102.53 M90.033,-102.25 L90.016,-102.46 M94.162,-102.75 C94.065,-102.72 93.968,-102.69 93.871,-102.66 M94.059,-102.46 L94.041,-102.67 M87.285,-104.04 C87.242,-104.09 87.201,-104.15 87.163,-104.21 M87.234,-104.65 L87.285,-104.04 87.164,-104.11 M96.881,-104.71 C96.844,-104.65 96.804,-104.58 96.761,-104.52 M96.899,-104.39 L96.882,-104.6 M65.141,-43.446 L63.623,-36.179 M67.16,-35.59 L70.365,-43.182 M69.743,-32.646 L71.261,-39.912 M64.551,-46.534 C65.52,-48.83 66.484,-51.112 67.452,-53.407 69.305,-52.338 71.147,-51.275 72.999,-50.205 72.03,-47.909 71.067,-45.627 70.098,-43.332 70.376,-43.171 70.672,-43.001 70.994,-42.947 71.422,-42.876 71.852,-42.804 72.28,-42.732 72.335,-42.723 72.39,-42.706 72.44,-42.68 72.825,-42.482 72.894,-41.844 72.605,-41.164 72.315,-40.484 71.75,-39.957 71.261,-39.912 71.07,-40.022 70.879,-40.132 70.688,-40.243 M81.167,-58.773 C81.167,-58.773 81.168,-58.772 81.168,-58.772 M99.317,-82.902 C99.326,-82.847 99.333,-82.792 99.337,-82.737 M88.401,-114.94 C88.401,-114.94 88.254,-115.03 88.184,-115.08 88.107,-115.14 88.033,-115.2 87.962,-115.26 87.959,-115.26 87.953,-115.27 87.953,-115.27 M95.091,-68.267 L95.092,-68.255 M95.371,-65.308 C95.394,-65.557 95.363,-65.832 95.282,-66.106 95.045,-66.614 94.646,-67.073 94.236,-67.309 93.582,-67.687 92.272,-68.444 92.272,-68.444 M95.282,-66.106 L94.811,-66.078 M103.27,-75.588 C103.28,-74.809 102.14,-74.745 102.14,-73.967 102.14,-73.364 102.9,-73.165 103.26,-72.81 103.7,-72.367 104.02,-71.747 104.06,-71.237 104.72,-63.198 105.39,-55.134 106.05,-47.094 106.17,-45.659 105.45,-43.818 104.26,-42.512 103.06,-41.206 101.66,-40.723 100.77,-41.311 100.45,-41.522 100.21,-41.862 100.08,-42.304 98.46,-47.572 96.839,-52.855 95.224,-58.123 94.545,-60.336 95.182,-63.236 95.371,-65.308 L94.797,-65.639 M101.02,-76.215 C101.02,-76.215 101.24,-76.086 101.35,-76.022 101.4,-75.995 101.45,-75.963 101.49,-75.926 101.61,-75.82 101.67,-75.692 101.67,-75.558 101.67,-75.423 101.61,-75.288 101.49,-75.17 101.45,-75.13 101.4,-75.093 101.36,-75.061 101.32,-75.036 101.24,-74.996 101.24,-74.996 M86.633,-63.037 C86.633,-63.037 89.858,-52.523 91.469,-47.274 91.604,-46.831 91.842,-46.491 92.164,-46.28 92.952,-45.761 94.147,-46.073 95.255,-47.085 95.707,-47.498 96.122,-48.008 96.469,-48.576 96.607,-48.802 96.734,-49.036 96.846,-49.274 96.902,-49.392 96.955,-49.513 97.004,-49.634 97.053,-49.753 97.099,-49.874 97.141,-49.996 97.16,-50.051 97.193,-50.163 97.193,-50.163 M103.11,-46.197 C102.79,-46.322 102.31,-45.992 102.04,-45.461 101.77,-44.93 101.81,-44.399 102.13,-44.274 102.46,-44.149 102.94,-44.478 103.21,-45.009 103.48,-45.54 103.44,-46.072 103.11,-46.197 Z"/>
    </g>
  </g>
  <g id="C3DA0001" vm2d:name="Axials" vm2d:type="layer"/>
  <g id="C3DC0001" vm2d:name="Callouts" vm2d:type="layer"/>
  <g id="C3DP0001" vm2d:name="Panels" vm2d:type="layer"/>
  <g id="AUTOID_003" vm2d:name="" vm2d:type="grnode">
    <g transform="matrix(3.78235,0,0,3.78235,-0,839.841)" stroke-width="0.40008" stroke-linecap="round" stroke-linejoin="round" stroke-miterlimit="2">
      <path fill="#fff" stroke="#fff" d="M108.57,-109.99 L105.92,-109.99 105.92,-108.82 102.82,-111.38 105.92,-113.92 105.92,-112.76 108.57,-112.76 Z"/>
      <path fill="#fff" stroke="#000" stroke-width="0.18004" d="M108.57,-109.99 L105.92,-109.99 105.92,-108.82 102.82,-111.38 105.92,-113.92 105.92,-112.76 108.57,-112.76 Z"/>
    </g>
  </g>
  <g id="AUTOID_161" vm2d:name="" vm2d:type="grnode">
    <g transform="matrix(3.78235,0,0,3.78235,-0,839.841)" stroke-width="0.01" stroke-linecap="round" stroke-linejoin="round" stroke-miterlimit="10">
      <path fill="#fff" stroke="#fff" d="M110,-113.09 L113.5,-113.09 113.5,-109.59 110,-109.59 110,-113.09 110,-113.09 Z"/>
      <path fill="#000" d="M112.14,-111.03 L112.14,-111.03 111.72,-112.15 111.32,-111.03 111.13,-110.52 110.88,-109.83 110.23,-109.83 111.41,-112.86 112.06,-112.86 113.27,-109.83 113.27,-109.83 112.61,-109.83 112.34,-110.52 111.13,-110.52 111.32,-111.03 112.14,-111.03 112.14,-111.03 Z"/>
    </g>
  </g>
</svg>
