<?xml version="1.0" encoding="UTF-8" standalone="no"?>
<!DOCTYPE svg SYSTEM "http://www.w3.org/Graphics/SVG/1.1/DTD/svg11.dtd" [
<!ENTITY % SVG.External.attrib
"xmlns:vm2d CDATA #FIXED 'http://www.cortona3d.com/vm2d'
vm2d:name CDATA #IMPLIED
vm2d:type CDATA #IMPLIED">
]>
<svg xmlns="http://www.w3.org/2000/svg" xmlns:vm2d="http://www.cortona3d.com/vm2d" xmlns:xlink="http://www.w3.org/1999/xlink" version="1.1" width="170mm" height="222mm" viewBox="0 0 643 840" fill="none" fill-rule="evenodd" stroke-miterlimit="5">
  <title>Untitled</title>
  <desc>"Generator:ParallelGraphics Cortona2D","ProfileId:WebCGM""ProfileEd:2.1""ColourClass:colour""Source:Cortona2D Editor Pro 14.2.0.142""Date:20250507""Grid:isometric"</desc>
  <rect width="643" height="840" fill="#fff"/>
  <defs/>
  <g id="C3DB0001" vm2d:name="Background" vm2d:type="layer"/>
  <g id="C3DG0001" vm2d:name="Drawing" vm2d:type="layer">
    <g transform="matrix(3.78235,0,0,3.78235,-0,839.841)" stroke-width="0.18" stroke-linecap="round" stroke-linejoin="round" stroke-miterlimit="10">
      <path stroke="#000" d="M164.53,-65.276 C164.52,-65.269 164.5,-65.262 164.49,-65.254 164.2,-65.117 163.9,-64.999 163.6,-64.891 163.13,-65.137 162.67,-65.382 162.21,-65.628 162.03,-65.832 161.84,-66.04 161.67,-66.254 161.51,-66.479 161.34,-66.702 161.18,-66.927 161.08,-67.081 160.99,-67.241 160.91,-67.406 160.97,-67.764 161.04,-68.119 161.13,-68.469 161.27,-68.872 161.41,-69.272 161.56,-69.675 161.7,-69.99 161.87,-70.295 162.05,-70.591 162.24,-70.775 162.45,-70.946 162.67,-71.101 162.98,-71.279 163.28,-71.456 163.59,-71.634 163.88,-71.771 164.18,-71.889 164.49,-71.997 164.95,-71.751 165.41,-71.506 165.87,-71.26 166.05,-71.056 166.24,-70.848 166.41,-70.634 166.58,-70.409 166.74,-70.186 166.9,-69.961 167,-69.806 167.09,-69.647 167.17,-69.482 167.16,-69.403 167.14,-69.324 167.13,-69.245 M164.13,-68.019 C164.13,-68.019 164.17,-68.068 164.18,-68.092 164.2,-68.121 164.22,-68.15 164.23,-68.179 164.25,-68.208 164.27,-68.237 164.28,-68.267 164.3,-68.297 164.32,-68.327 164.33,-68.357 164.35,-68.387 164.36,-68.417 164.38,-68.448 164.39,-68.478 164.4,-68.509 164.42,-68.54 164.43,-68.561 164.45,-68.604 164.45,-68.604 M156.64,-80.371 C156.34,-80.531 156.04,-80.689 155.74,-80.849 153.72,-82.014 150.57,-80.192 148.69,-76.78 146.82,-73.367 146.95,-69.656 148.97,-68.49 149.27,-68.331 149.56,-68.172 149.86,-68.013 M154.29,-73.594 C154.82,-74.561 154.78,-75.613 154.21,-75.943 153.64,-76.273 152.74,-75.757 152.21,-74.79 151.68,-73.823 151.72,-72.771 152.29,-72.441 152.86,-72.111 153.76,-72.627 154.29,-73.594 Z M149.86,-68.013 C151.88,-66.847 155.04,-68.669 156.91,-72.082 158.78,-75.495 158.66,-79.206 156.64,-80.371 154.62,-81.537 151.46,-79.715 149.59,-76.302 147.72,-72.889 147.84,-69.178 149.86,-68.013 Z M151.95,-72.837 C151.95,-72.837 151.98,-72.841 152,-72.844 152.04,-72.854 152.09,-72.866 152.13,-72.882 152.22,-72.913 152.32,-72.955 152.41,-73.009 152.55,-73.089 152.69,-73.193 152.82,-73.317 153.04,-73.524 153.23,-73.784 153.39,-74.072 153.55,-74.36 153.66,-74.667 153.72,-74.968 153.76,-75.147 153.77,-75.321 153.77,-75.485 153.76,-75.594 153.75,-75.697 153.73,-75.793 153.72,-75.84 153.71,-75.886 153.69,-75.932 153.68,-75.963 153.65,-76.025 153.65,-76.025 M133.39,-91.782 C133.37,-91.82 133.35,-91.857 133.34,-91.893 133.32,-91.919 133.29,-91.967 133.29,-91.967 133.29,-91.964 133.22,-92.078 133.18,-92.133 133.07,-92.291 132.99,-92.462 132.86,-92.607 132.74,-92.735 132.62,-92.859 132.49,-92.966 132.32,-93.096 132.1,-93.235 131.88,-93.343 131.67,-93.451 131.48,-93.516 131.37,-93.521 130.97,-93.606 130.58,-93.646 130.17,-93.596 129.76,-93.546 129.26,-93.397 128.86,-93.203 128.09,-92.829 127.49,-92.236 126.94,-91.585 125.94,-90.398 125.17,-88.693 124.85,-87.01 124.52,-85.199 124.73,-83.346 125.42,-82.144 125.84,-81.396 126.39,-80.804 127.12,-80.347 127.48,-80.12 127.89,-79.988 128.3,-79.879 128.46,-79.836 128.67,-79.8 128.84,-79.787 128.96,-79.777 129.09,-79.763 129.21,-79.759 129.28,-79.757 129.42,-79.763 129.42,-79.763 M129.53,-90.509 L129.76,-90.7 M130.41,-90.98 C130.41,-90.98 130.29,-90.943 130.23,-90.922 130.19,-90.909 130.15,-90.893 130.11,-90.877 130.08,-90.866 130.05,-90.854 130.02,-90.841 129.98,-90.823 129.91,-90.787 129.91,-90.787 M131.18,-93.556 C131.18,-93.556 131.21,-93.561 131.22,-93.558 131.26,-93.552 131.3,-93.54 131.33,-93.531 131.35,-93.528 131.36,-93.526 131.37,-93.521 M131.15,-93.564 L131.22,-93.558 M131.24,-90.143 C131.24,-90.143 131.18,-90.208 131.16,-90.246 131.15,-90.3 131.13,-90.353 131.11,-90.406 131.1,-90.431 131.05,-90.762 130.8,-90.964 130.76,-90.971 130.72,-90.977 130.68,-90.984 M131.2,-90.188 C131.2,-90.188 131.18,-90.215 131.17,-90.231 131.17,-90.224 131.17,-90.217 131.17,-90.211 131.17,-90.197 131.18,-90.183 131.18,-90.17 131.19,-90.146 131.19,-90.122 131.2,-90.099 M131.16,-90.246 C131.16,-90.241 131.16,-90.236 131.17,-90.231 M131.24,-90.14 C131.24,-90.14 131.22,-90.16 131.21,-90.17 131.2,-90.194 131.18,-90.22 131.16,-90.246 M140.8,-87.443 C140.8,-87.443 140.79,-87.485 140.78,-87.505 140.75,-87.596 140.72,-87.687 140.69,-87.777 140.66,-87.874 140.58,-88.069 140.55,-88.126 140.43,-88.343 140.3,-88.547 140.15,-88.735 139.87,-89.077 139.42,-89.382 139,-89.513 138.04,-89.811 137.11,-89.574 136.25,-89.099 134.92,-88.367 133.61,-86.634 132.89,-84.65 132.19,-82.754 132.07,-80.815 132.54,-79.211 132.85,-78.169 133.4,-77.295 134.15,-76.688 134.46,-76.431 134.86,-76.195 135.24,-76.043 135.5,-75.937 135.75,-75.874 136.03,-75.811 136.06,-75.805 136.09,-75.8 136.11,-75.796 136.24,-75.778 136.36,-75.757 136.49,-75.746 136.53,-75.741 136.63,-75.739 136.63,-75.739 M136.88,-86.273 C136.88,-86.273 136.74,-86.126 136.68,-86.051 136.61,-85.972 136.54,-85.892 136.48,-85.81 136.41,-85.726 136.35,-85.639 136.29,-85.552 136.23,-85.464 136.17,-85.373 136.11,-85.282 136.05,-85.193 135.94,-85.011 135.94,-85.011 M135.95,-85.03 C135.95,-85.03 135.84,-84.829 135.79,-84.726 135.73,-84.622 135.68,-84.517 135.63,-84.411 135.58,-84.303 135.53,-84.194 135.49,-84.085 135.4,-83.865 135.31,-83.64 135.24,-83.411 135.2,-83.296 135.17,-83.181 135.14,-83.066 135.11,-82.953 135.08,-82.84 135.05,-82.726 135.03,-82.613 135.01,-82.499 134.99,-82.385 134.97,-82.272 134.95,-82.158 134.94,-82.044 134.92,-81.931 134.9,-81.705 134.9,-81.705 M137.02,-89.454 C137.02,-89.454 137,-89.537 136.99,-89.579 136.98,-89.612 136.96,-89.645 136.95,-89.678 136.92,-89.767 136.89,-89.857 136.86,-89.946 136.84,-89.979 136.83,-90.01 136.81,-90.043 136.7,-90.27 136.58,-90.491 136.42,-90.685 136.04,-91.13 135.61,-91.423 135.16,-91.55 134.23,-91.815 133.27,-91.637 132.31,-91.019 130.91,-90.117 129.72,-88.474 129.04,-86.514 128.32,-84.436 128.29,-82.434 128.94,-80.692 129.24,-79.895 129.81,-79.12 130.48,-78.609 130.92,-78.275 131.42,-78.057 131.94,-77.899 132.11,-77.85 132.31,-77.809 132.48,-77.791 132.6,-77.777 132.72,-77.76 132.85,-77.753 132.97,-77.746 133.21,-77.748 133.21,-77.748 M137.9,-86.984 C137.9,-86.984 137.77,-86.928 137.7,-86.896 137.65,-86.872 137.56,-86.82 137.56,-86.82 M134.9,-81.724 C134.9,-81.724 134.89,-81.515 134.89,-81.411 134.89,-81.303 134.89,-81.195 134.89,-81.087 134.9,-80.982 134.9,-80.876 134.91,-80.771 134.92,-80.668 134.94,-80.565 134.95,-80.463 134.97,-80.365 135.01,-80.169 135.01,-80.169 M133.22,-88.406 C133.22,-88.406 133.08,-88.268 133.01,-88.196 132.95,-88.124 132.88,-88.049 132.81,-87.973 132.75,-87.895 132.68,-87.814 132.62,-87.732 132.56,-87.652 132.44,-87.489 132.44,-87.489 M129,-89.949 C129,-89.949 128.87,-89.781 128.8,-89.694 128.74,-89.606 128.67,-89.515 128.61,-89.423 128.49,-89.238 128.37,-89.035 128.26,-88.838 128.04,-88.433 127.85,-88.006 127.71,-87.567 127.56,-87.122 127.45,-86.66 127.39,-86.208 127.37,-86.096 127.36,-85.984 127.35,-85.871 127.34,-85.761 127.33,-85.649 127.33,-85.538 127.32,-85.429 127.32,-85.319 127.32,-85.21 127.33,-85.102 127.34,-84.888 127.34,-84.888 M138.23,-86.97 L138.15,-87.022 M135.56,-78.979 L135.67,-78.853 M129.92,-90.793 C129.9,-90.783 129.88,-90.773 129.87,-90.763 129.88,-90.77 129.79,-90.715 129.75,-90.686 129.74,-90.679 129.72,-90.664 129.72,-90.664 M130.31,-90.95 C130.31,-90.95 130.38,-90.967 130.42,-90.973 130.46,-90.982 130.56,-90.995 130.56,-90.995 M127.34,-84.9 C127.34,-84.9 127.35,-84.72 127.37,-84.631 127.38,-84.531 127.39,-84.432 127.41,-84.333 127.43,-84.237 127.45,-84.141 127.48,-84.047 127.5,-83.955 127.56,-83.773 127.56,-83.773 M130.5,-90.985 C130.5,-90.985 130.56,-90.991 130.59,-90.992 130.63,-90.993 130.72,-90.992 130.72,-90.992 M141.85,-82.936 C141.85,-82.936 141.91,-83.13 141.94,-83.228 141.96,-83.325 141.99,-83.423 142,-83.521 142.01,-83.562 142.03,-83.643 142.03,-83.643 M134.45,-88.911 L134.38,-89.022 M140.27,-76.802 C140.27,-76.802 140.52,-76.966 140.64,-77.053 140.76,-77.141 140.89,-77.233 141,-77.327 141.24,-77.518 141.48,-77.722 141.7,-77.94 142.16,-78.378 142.57,-78.858 142.94,-79.371 143.3,-79.873 143.62,-80.412 143.88,-80.951 144.01,-81.219 144.13,-81.489 144.23,-81.757 144.28,-81.889 144.32,-82.024 144.36,-82.157 144.37,-82.176 144.38,-82.195 144.38,-82.214 144.42,-82.347 144.46,-82.48 144.5,-82.615 144.5,-82.644 144.52,-82.703 144.52,-82.703 M138.57,-78.843 C138.57,-78.843 138.74,-78.943 138.82,-78.996 138.91,-79.055 139,-79.117 139.09,-79.181 139.27,-79.31 139.45,-79.451 139.62,-79.601 139.97,-79.903 140.29,-80.243 140.58,-80.61 140.87,-80.97 141.13,-81.372 141.35,-81.778 141.46,-81.98 141.56,-82.184 141.65,-82.387 141.69,-82.487 141.73,-82.588 141.77,-82.691 141.8,-82.777 141.86,-82.953 141.86,-82.953 M128.31,-82.704 L128.51,-82.585 128.46,-82.611 M134.42,-87.473 C134.42,-87.459 134.41,-87.446 134.41,-87.433 134.41,-87.439 134.45,-87.625 134.47,-87.719 134.48,-87.809 134.5,-87.9 134.51,-87.991 134.51,-88.054 134.52,-88.181 134.52,-88.181 M138.49,-80.553 C138.49,-80.553 138.61,-80.694 138.67,-80.767 138.77,-80.887 138.87,-81.009 138.96,-81.133 139.06,-81.257 139.15,-81.383 139.24,-81.511 139.42,-81.767 139.58,-82.027 139.74,-82.291 139.89,-82.555 140.03,-82.823 140.15,-83.091 140.22,-83.223 140.27,-83.359 140.33,-83.493 140.34,-83.508 140.34,-83.523 140.35,-83.539 140.4,-83.673 140.45,-83.806 140.5,-83.941 140.53,-84.025 140.59,-84.196 140.59,-84.196 M131.72,-83.35 C131.72,-83.35 131.88,-83.483 131.97,-83.552 132.05,-83.627 132.14,-83.704 132.23,-83.783 132.31,-83.863 132.39,-83.945 132.48,-84.029 132.56,-84.113 132.64,-84.199 132.72,-84.287 132.74,-84.315 132.79,-84.373 132.79,-84.373 M135.15,-83.105 C135.15,-83.105 135.23,-83.209 135.27,-83.262 135.37,-83.388 135.46,-83.516 135.54,-83.645 135.63,-83.774 135.72,-83.905 135.8,-84.038 135.88,-84.169 135.95,-84.303 136.03,-84.437 136.17,-84.688 136.32,-84.999 136.44,-85.271 136.5,-85.403 136.55,-85.538 136.61,-85.673 136.66,-85.805 136.71,-85.938 136.75,-86.072 136.76,-86.103 136.78,-86.164 136.78,-86.164 M131.12,-83.592 C131.12,-83.592 131.21,-83.692 131.26,-83.743 131.32,-83.816 131.39,-83.89 131.45,-83.965 131.58,-84.115 131.7,-84.27 131.82,-84.429 131.88,-84.508 131.94,-84.589 131.99,-84.67 132.05,-84.751 132.1,-84.834 132.16,-84.917 132.21,-84.999 132.27,-85.08 132.32,-85.164 M141.06,-84.601 C141.06,-84.601 141.19,-84.698 141.25,-84.743 141.26,-84.751 141.29,-84.764 141.29,-84.764 M135.35,-79.279 C135.35,-79.279 135.27,-79.433 135.23,-79.511 135.2,-79.577 135.15,-79.712 135.15,-79.712 M134.99,-80.23 C134.99,-80.23 135.04,-80.046 135.06,-79.955 135.09,-79.866 135.12,-79.777 135.15,-79.69 M135.59,-78.941 C135.59,-78.941 135.48,-79.069 135.44,-79.137 135.4,-79.189 135.34,-79.299 135.34,-79.299 M137.23,-86.589 C137.23,-86.589 137.33,-86.665 137.38,-86.701 137.44,-86.747 137.58,-86.833 137.58,-86.833 M136.84,-86.229 C136.84,-86.229 136.97,-86.358 137.04,-86.419 137.1,-86.48 137.24,-86.597 137.24,-86.597 M138.17,-87.02 L138.28,-86.984 M138.05,-87.017 L138.15,-87.029 138.25,-87.007 M138.11,-87.024 L138.21,-87.022 M137.96,-86.997 L138.08,-87.025 M137.83,-86.955 L138,-87.011 M138.31,-86.425 C138.3,-86.499 138.29,-86.574 138.28,-86.648 138.27,-86.694 138.25,-86.784 138.25,-86.784 M138.22,-86.893 L138.26,-86.755 M138.24,-86.843 C138.22,-86.884 138.2,-86.924 138.18,-86.965 138.18,-86.986 138.16,-87.005 138.16,-87.022 138.16,-87.022 138.19,-87.008 138.2,-86.999 M138.21,-86.913 C138.2,-86.946 138.16,-87.009 138.16,-87.009 M138.15,-87.023 L138.16,-87.009 M138.24,-85.63 L138.23,-85.552 M138.3,-86.5 C138.3,-86.427 138.31,-86.355 138.31,-86.283 138.31,-86.285 138.31,-86.175 138.31,-86.121 138.3,-86.032 138.29,-85.944 138.28,-85.857 138.27,-85.765 138.24,-85.583 138.24,-85.583 M135.17,-81.092 L134.9,-80.93 M136.13,-81.885 C136.13,-81.885 136,-81.75 135.92,-81.685 135.84,-81.609 135.75,-81.535 135.67,-81.463 135.58,-81.392 135.49,-81.323 135.4,-81.257 135.32,-81.195 135.14,-81.077 135.14,-81.077 M132.12,-80.665 C132.12,-80.665 132,-80.762 131.94,-80.815 131.89,-80.858 131.81,-80.952 131.81,-80.952 M132.24,-80.593 L132.05,-80.722 M132.19,-80.623 L132.29,-80.57 M131.24,-82.112 C131.24,-82.112 131.19,-82.304 131.18,-82.401 131.16,-82.501 131.15,-82.601 131.14,-82.701 131.12,-82.803 131.12,-82.906 131.11,-83.009 131.11,-83.101 131.11,-83.283 131.11,-83.283 131.11,-83.281 131.11,-83.504 131.12,-83.616 131.12,-83.729 131.13,-83.843 131.15,-83.956 131.17,-84.184 131.21,-84.414 131.25,-84.643 131.32,-84.987 131.42,-85.329 131.53,-85.663 131.65,-85.989 131.79,-86.322 131.94,-86.637 132,-86.74 132.05,-86.842 132.11,-86.943 132.16,-87.042 132.22,-87.14 132.28,-87.236 132.34,-87.331 132.46,-87.516 132.46,-87.516 M131.83,-80.919 C131.83,-80.919 131.73,-81.043 131.68,-81.108 131.65,-81.154 131.59,-81.253 131.59,-81.253 131.59,-81.244 131.51,-81.394 131.47,-81.47 131.44,-81.528 131.39,-81.646 131.39,-81.644 131.39,-81.644 131.33,-81.816 131.3,-81.903 131.27,-81.983 131.23,-82.144 131.23,-82.144 M134.13,-89.004 C134.13,-89.004 134.25,-89.039 134.31,-89.051 M133.89,-88.896 C133.89,-88.896 133.98,-88.944 134.03,-88.965 134.09,-88.993 134.22,-89.038 134.23,-89.03 134.28,-89.038 134.33,-89.046 134.39,-89.053 M133.57,-88.694 C133.57,-88.694 133.67,-88.763 133.72,-88.795 133.78,-88.838 133.92,-88.915 133.92,-88.915 M133.18,-88.365 C133.18,-88.365 133.31,-88.483 133.38,-88.539 133.44,-88.596 133.59,-88.705 133.59,-88.705 M134.37,-89.04 L134.37,-89.036 134.37,-89.038 M134.37,-89.04 L134.45,-89.006 M134.4,-89.006 C134.39,-89.019 134.36,-89.042 134.36,-89.042 134.38,-89.037 134.4,-89.032 134.42,-89.027 M134.43,-88.964 C134.41,-88.992 134.36,-89.042 134.36,-89.042 134.4,-89.038 134.45,-89.033 134.49,-89.028 M134.45,-89.045 L134.31,-89.041 M134.51,-88.562 C134.51,-88.562 134.52,-88.464 134.52,-88.415 134.52,-88.333 134.52,-88.167 134.52,-88.167 M134.49,-88.727 L134.51,-88.552 M134.5,-88.668 L134.46,-88.847 M134.43,-88.931 C134.43,-88.931 134.47,-88.821 134.49,-88.765 M134.4,-88.987 L134.47,-88.846 M131.73,-83.361 C131.73,-83.361 131.55,-83.23 131.46,-83.169 131.38,-83.108 131.29,-83.05 131.19,-82.995 131.17,-82.979 131.12,-82.951 131.12,-82.951 M132.29,-80.592 L132.27,-80.581 M127.54,-83.841 C127.54,-83.841 127.6,-83.673 127.64,-83.591 127.67,-83.511 127.75,-83.355 127.75,-83.355 M127.98,-83.007 C127.98,-83.007 127.88,-83.139 127.84,-83.208 127.8,-83.274 127.72,-83.412 127.72,-83.412 M128.09,-82.894 L127.93,-83.076 M128.06,-82.921 C128.06,-82.921 128.15,-82.835 128.2,-82.795 128.25,-82.744 128.38,-82.652 128.38,-82.652 M128.96,-89.906 C128.96,-89.906 129.09,-90.058 129.16,-90.132 129.22,-90.205 129.29,-90.276 129.36,-90.345 129.43,-90.412 129.56,-90.539 129.56,-90.539 M130.59,-90.992 L130.71,-90.981 M133.48,-91.552 C133.48,-91.552 133.48,-91.576 133.47,-91.588 133.45,-91.653 133.42,-91.718 133.39,-91.782 133.39,-91.782 133.32,-91.905 133.29,-91.964 133.27,-92.003 133.26,-92.041 133.24,-92.077 133.22,-92.113 133.19,-92.148 133.17,-92.181 133.16,-92.19 133.15,-92.208 133.15,-92.208 M133.18,-92.133 C133.18,-92.133 133.15,-92.211 133.13,-92.247 133.11,-92.284 133.09,-92.319 133.06,-92.353 133.04,-92.382 132.99,-92.435 132.99,-92.435 M131.18,-90.17 C131.19,-90.152 131.24,-90.135 131.24,-90.135 M131.17,-90.211 C131.19,-90.188 131.23,-90.154 131.23,-90.154 M132.28,-85.086 C133.13,-86.488 133.48,-87.752 133.5,-87.813 133.52,-87.901 133.55,-87.988 133.57,-88.076 133.59,-88.163 133.61,-88.25 133.63,-88.337 133.65,-88.423 133.66,-88.509 133.68,-88.595 133.69,-88.659 133.71,-88.788 133.71,-88.788"/>
      <path stroke="#000" d="M131.16,-90.246 C131.18,-90.22 131.2,-90.194 131.21,-90.17 131.22,-90.16 131.24,-90.14 131.24,-90.14 M144.28,-76.331 C144.63,-76.647 144.96,-77.024 145.28,-77.456 147.1,-79.932 147.65,-83.249 146.53,-85.073 145.79,-86.277 144.36,-86.786 142.92,-86.351 142.54,-86.234 142.18,-86.07 141.83,-85.871 141.69,-85.795 141.55,-85.722 141.44,-85.612 141.33,-85.501 141.27,-85.349 141.25,-85.195 141.22,-84.9 141.31,-84.542 141.51,-84.216 141.71,-83.889 141.99,-83.625 142.28,-83.492 142.95,-83.877 143.6,-83.998 144.15,-83.838 144.9,-83.621 145.39,-82.917 145.51,-81.888 145.62,-80.858 145.36,-79.593 144.77,-78.381 144.54,-77.906 144.26,-77.455 143.95,-77.025 143.85,-76.873 143.66,-76.627 143.49,-76.405 143.34,-76.213 143.13,-75.999 143.05,-75.766 143.01,-75.662 143.05,-75.611 143.16,-75.626 143.28,-75.641 143.46,-75.719 143.66,-75.844 143.85,-75.967 144.06,-76.131 144.28,-76.331 Z M144.49,-83.122 L144.51,-82.9 M144.51,-82.364 C144.51,-82.364 144.52,-82.511 144.52,-82.584 144.52,-82.656 144.52,-82.727 144.52,-82.798 144.51,-82.858 144.5,-82.978 144.5,-82.978 M144.1,-86.496 C144.1,-86.496 144.06,-86.557 144.04,-86.587 144.01,-86.617 143.99,-86.649 143.97,-86.678 143.95,-86.707 143.92,-86.733 143.89,-86.761 143.84,-86.82 143.78,-86.881 143.72,-86.938 143.7,-86.965 143.67,-86.989 143.64,-87.013 143.47,-87.147 143.33,-87.238 143.15,-87.341 142.79,-87.535 142.33,-87.646 141.89,-87.643 141.1,-87.637 140.24,-87.302 139.48,-86.707 139.49,-86.714 139.5,-86.722 139.52,-86.729 139.33,-86.63 139.16,-86.452 139.02,-86.326 138.25,-85.658 137.61,-84.868 137.09,-83.993 135.95,-82.068 135.46,-79.85 135.75,-77.975 136.13,-75.558 137.8,-74.032 139.98,-74.119 140.9,-74.156 141.85,-74.473 142.78,-75.056 143.26,-75.354 143.69,-75.708 144.1,-76.091 144.24,-76.225 144.47,-76.464 144.68,-76.706 144.9,-76.947 145.06,-77.148 145.1,-77.222 145.16,-77.29 145.21,-77.36 145.26,-77.428 145.27,-77.437 145.27,-77.447 145.28,-77.456 M140.68,-76.925 C140.68,-76.925 140.58,-76.887 140.53,-76.871 140.47,-76.854 140.42,-76.839 140.37,-76.825 140.33,-76.814 140.29,-76.804 140.24,-76.795 140.2,-76.786 140.15,-76.777 140.11,-76.771 140.07,-76.764 139.99,-76.755 139.99,-76.755 M142.28,-77.992 C142.28,-77.992 142.38,-78.086 142.43,-78.135 142.48,-78.187 142.53,-78.24 142.58,-78.294 142.63,-78.349 142.68,-78.406 142.73,-78.462 142.87,-78.626 143.01,-78.799 143.14,-78.977 143.4,-79.335 143.63,-79.713 143.82,-80.103 144.01,-80.476 144.19,-80.906 144.29,-81.248 144.31,-81.33 144.33,-81.412 144.35,-81.495 144.38,-81.577 144.39,-81.659 144.41,-81.741 144.43,-81.822 144.44,-81.903 144.46,-81.984 144.47,-82.062 144.48,-82.142 144.49,-82.221 144.5,-82.282 144.51,-82.403 144.51,-82.403 M138.88,-77.137 C138.88,-77.137 138.92,-77.09 138.94,-77.068 138.98,-77.038 139.04,-76.98 139.04,-76.98 M138.3,-79.288 C138.3,-79.288 138.3,-79.145 138.3,-79.073 138.3,-79.009 138.3,-78.945 138.3,-78.881 138.3,-78.818 138.31,-78.692 138.31,-78.692 M139.74,-83.247 C139.74,-83.247 139.67,-83.154 139.64,-83.106 139.61,-83.059 139.58,-83.011 139.54,-82.963 139.51,-82.914 139.48,-82.865 139.45,-82.816 139.36,-82.667 139.27,-82.514 139.19,-82.357 139.01,-82.037 138.87,-81.714 138.75,-81.389 138.62,-81.06 138.52,-80.725 138.45,-80.39 138.41,-80.223 138.38,-80.055 138.36,-79.889 138.35,-79.834 138.34,-79.779 138.34,-79.724 138.33,-79.669 138.32,-79.615 138.32,-79.56 138.31,-79.506 138.31,-79.397 138.31,-79.397 M141.1,-84.634 C141.1,-84.634 140.96,-84.525 140.89,-84.47 140.85,-84.434 140.81,-84.398 140.77,-84.361 140.62,-84.231 140.47,-84.098 140.34,-83.957 140.23,-83.843 140.12,-83.726 140.02,-83.604 139.98,-83.563 139.95,-83.52 139.92,-83.478 139.88,-83.435 139.85,-83.392 139.82,-83.348 139.78,-83.306 139.72,-83.22 139.72,-83.22 M138.31,-79.43 L138.3,-79.239 M144.21,-83.791 L144.24,-83.755 144.29,-83.694 M138.82,-77.201 L138.9,-77.109 M144.17,-83.816 C144.17,-83.816 144.24,-83.765 144.27,-83.736 M144.1,-83.851 C144.11,-83.846 144.13,-83.842 144.14,-83.837 144.13,-83.84 144.15,-83.833 144.15,-83.83 144.19,-83.808 144.27,-83.757 144.27,-83.757 M144.42,-83.407 C144.42,-83.407 144.45,-83.306 144.46,-83.256 144.47,-83.194 144.5,-83.07 144.5,-83.07 M144.45,-83.325 C144.45,-83.325 144.41,-83.433 144.39,-83.486 144.38,-83.522 144.35,-83.592 144.35,-83.592 M144.28,-83.708 C144.28,-83.708 144.3,-83.683 144.31,-83.669 144.33,-83.625 144.38,-83.532 144.38,-83.532 M140.61,-76.9 C140.61,-76.9 140.72,-76.941 140.77,-76.963 140.83,-76.986 140.88,-77.01 140.93,-77.035 140.99,-77.06 141.04,-77.087 141.09,-77.115 141.15,-77.143 141.25,-77.203 141.25,-77.203 M141.21,-77.179 C141.21,-77.179 141.31,-77.239 141.36,-77.27 141.42,-77.304 141.47,-77.339 141.52,-77.375 141.63,-77.447 141.74,-77.526 141.84,-77.608 141.95,-77.69 142.05,-77.777 142.15,-77.869 142.2,-77.915 142.3,-78.009 142.3,-78.009 M138.99,-77.03 C138.99,-77.03 139.04,-76.984 139.07,-76.962 139.11,-76.937 139.18,-76.889 139.18,-76.889 M139.37,-76.815 C139.37,-76.815 139.28,-76.846 139.24,-76.863 139.23,-76.868 139.21,-76.879 139.21,-76.878 139.18,-76.898 139.15,-76.917 139.11,-76.937 M139.53,-76.772 C139.53,-76.772 139.44,-76.792 139.4,-76.804 139.39,-76.809 139.35,-76.819 139.35,-76.819 M140.05,-76.759 C140.05,-76.759 139.95,-76.751 139.9,-76.749 139.85,-76.747 139.81,-76.747 139.76,-76.748 139.74,-76.748 139.7,-76.75 139.71,-76.75 139.71,-76.75 139.62,-76.759 139.57,-76.765 139.55,-76.768 139.52,-76.775 139.52,-76.775 M138.42,-78.054 C138.42,-78.054 138.39,-78.166 138.38,-78.222 138.37,-78.28 138.36,-78.337 138.35,-78.395 138.34,-78.454 138.33,-78.514 138.32,-78.573 138.32,-78.622 138.31,-78.721 138.31,-78.712 138.31,-78.712 138.32,-78.717 138.33,-78.719 138.42,-78.763 138.6,-78.859 138.6,-78.859 M138.72,-77.337 C138.72,-77.337 138.67,-77.422 138.65,-77.465 138.62,-77.509 138.6,-77.554 138.58,-77.599 138.57,-77.621 138.55,-77.666 138.55,-77.666 138.55,-77.663 138.51,-77.762 138.49,-77.812 138.47,-77.863 138.46,-77.915 138.44,-77.967 138.43,-78.001 138.41,-78.07 138.41,-78.07 M138.84,-77.182 C138.84,-77.182 138.78,-77.256 138.75,-77.294 138.73,-77.32 138.7,-77.372 138.7,-77.372 M120.21,-96.319 C116.88,-98.092 113.57,-99.853 110.25,-101.63 109.1,-102.29 107.31,-101.25 106.25,-99.319 105.19,-97.386 105.26,-95.283 106.41,-94.622 109.73,-92.85 113.04,-91.088 116.37,-89.316 M61.693,-130.82 C61.494,-130.92 61.295,-131.03 61.096,-131.14 59.108,-132.28 56.005,-130.49 54.165,-127.13 52.325,-123.78 52.445,-120.13 54.433,-118.98 54.633,-118.88 54.831,-118.77 55.031,-118.67 M55.91,-129.51 C55.412,-129.77 54.917,-130.04 54.419,-130.3 53.543,-130.81 52.175,-130.02 51.364,-128.54 50.554,-127.06 50.606,-125.45 51.482,-124.95 52.002,-124.67 52.519,-124.39 53.039,-124.12 M57.459,-120.59 C58.632,-119.92 60.462,-120.97 61.547,-122.95 62.632,-124.93 62.562,-127.08 61.389,-127.76 60.217,-128.44 58.387,-127.38 57.302,-125.4 56.216,-123.42 56.287,-121.27 57.459,-120.59 Z M41.07,-133.41 C41.07,-133.41 41.071,-133.4 41.071,-133.4 41.082,-133.37 41.095,-133.34 41.11,-133.31 41.139,-133.25 41.178,-133.19 41.228,-133.15 41.303,-133.08 41.398,-133.04 41.512,-133.03 41.704,-133.02 41.943,-133.09 42.168,-133.22 42.532,-133.44 42.791,-133.79 42.875,-134.17 42.92,-134.37 42.914,-134.58 42.858,-134.79 42.825,-134.91 42.775,-135.02 42.71,-135.13 42.688,-135.17 42.666,-135.2 42.642,-135.24 42.618,-135.27 42.593,-135.3 42.567,-135.33 42.555,-135.34 42.528,-135.37 42.528,-135.37 M46.349,-139.13 C44.308,-140.21 42.28,-141.29 40.24,-142.38 38.971,-143.09 37.196,-142.65 35.543,-141.22 33.889,-139.79 32.589,-137.57 32.101,-135.34 31.069,-134.75 30.044,-134.16 29.012,-133.56 29.081,-131.47 29.149,-129.4 29.217,-127.31 31.258,-126.22 33.286,-125.14 35.326,-124.05 36.824,-124.92 38.313,-125.78 39.811,-126.64 41.769,-125.75 44.63,-127.4 46.456,-130.48 47.954,-131.34 49.444,-132.2 50.942,-133.07 50.873,-135.16 50.805,-137.23 50.736,-139.32 48.696,-140.41 46.668,-141.49 44.628,-142.58 43.866,-142.14 43.108,-141.7 42.346,-141.26 M27.559,-145.78 C27.448,-145.84 27.338,-145.9 27.227,-145.96 26.054,-146.63 24.224,-145.58 23.139,-143.6 22.054,-141.62 22.124,-139.47 23.297,-138.79 23.408,-138.73 23.518,-138.67 23.629,-138.61 M13.015,-155.32 C13.015,-155.32 12.991,-155.36 12.978,-155.38 12.919,-155.46 12.857,-155.55 12.793,-155.63 12.666,-155.79 12.532,-155.95 12.392,-156.09 12.182,-156.3 11.962,-156.48 11.739,-156.62 11.44,-156.81 11.141,-156.94 10.859,-156.99 10.718,-157.02 10.582,-157.02 10.454,-157.01 10.391,-157 10.328,-156.99 10.267,-156.98 10.207,-156.96 10.149,-156.94 10.092,-156.91 10.08,-156.91 10.058,-156.9 10.058,-156.9 M2.7265,-148.87 C2.9852,-148.44 3.3284,-148.1 3.6806,-147.91 4.0328,-147.72 4.3652,-147.71 4.6046,-147.87 4.844,-148.03 4.9708,-148.35 4.9572,-148.77 4.9436,-149.18 4.7907,-149.65 4.532,-150.08 3.9933,-150.96 3.1525,-151.41 2.6539,-151.08 2.4145,-150.92 2.2877,-150.6 2.3013,-150.18 2.3149,-149.77 2.4679,-149.29 2.7265,-148.87 Z M1.959,-152.22 C1.1052,-151.65 1.1609,-149.96 2.0833,-148.44 3.0058,-146.92 4.4457,-146.15 5.2995,-146.72 6.1533,-147.3 6.0976,-148.99 5.1752,-150.51 4.2528,-152.03 2.8128,-152.79 1.959,-152.22 Z M5.1747,-146.65 C7.7123,-145.3 10.235,-143.96 12.772,-142.61 14.326,-143.5 15.87,-144.4 17.424,-145.29 17.338,-147.9 17.253,-150.5 17.167,-153.11 14.34,-154.61 11.529,-156.11 8.7014,-157.62 8.4977,-157.57 8.3077,-157.5 8.1339,-157.4 6.5803,-156.5 5.0361,-155.61 3.4825,-154.71 M72.951,-114.89 C71.521,-115.66 70.099,-116.41 68.669,-117.17 68.302,-117.39 68.254,-117.84 68.255,-118.22 68.234,-118.85 68.597,-119.62 69.121,-120.05 69.204,-120.11 69.288,-120.17 69.373,-120.22 M74.677,-118.13 C73.259,-118.88 71.849,-119.63 70.431,-120.39 70.146,-120.55 69.758,-120.49 69.373,-120.22 68.713,-119.76 68.229,-118.82 68.255,-118.03 M99.497,-104.08 C99.497,-104.14 99.497,-104.2 99.497,-104.27 99.484,-104.67 99.331,-104.99 99.082,-105.12 97.275,-106.13 95.429,-107.07 93.604,-108.04 93.352,-108.19 93.017,-108.16 92.674,-107.96 92.33,-107.76 92.006,-107.41 91.772,-106.98 91.285,-106.1 91.317,-105.13 91.843,-104.83 93.672,-103.86 95.491,-102.89 97.321,-101.91 M91.82,-104.79 C85.577,-108.11 79.372,-111.42 73.129,-114.75 72.59,-115.06 72.557,-116.05 73.056,-116.96 73.555,-117.87 74.397,-118.35 74.936,-118.04 81.179,-114.72 87.384,-111.41 93.627,-108.08 M163.91,-67.056 C163.91,-67.056 163.91,-67.021 163.91,-67.003 163.91,-66.979 163.92,-66.955 163.92,-66.931 163.92,-66.908 163.92,-66.884 163.93,-66.861 163.94,-66.77 163.97,-66.685 164,-66.607 164.07,-66.432 164.18,-66.299 164.32,-66.218 164.85,-65.915 165.67,-66.389 166.15,-67.276 166.64,-68.164 166.61,-69.128 166.08,-69.431 165.94,-69.513 165.77,-69.54 165.59,-69.512 165.51,-69.499 165.43,-69.476 165.34,-69.442 165.32,-69.434 165.3,-69.424 165.28,-69.415 165.26,-69.405 165.24,-69.395 165.22,-69.384 165.19,-69.373 165.17,-69.361 165.15,-69.349 165.14,-69.342 165.12,-69.329 165.12,-69.329 M163.91,-66.978 C163.9,-66.243 164.27,-65.783 164.84,-65.824 165.42,-65.865 166.06,-66.399 166.47,-67.162 166.87,-67.926 166.95,-68.758 166.66,-69.249 166.37,-69.74 165.77,-69.786 165.17,-69.365 164.45,-68.865 163.91,-67.849 163.91,-66.978 Z M163.43,-69.853 C163.38,-69.496 163.31,-69.14 163.22,-68.791 163.07,-68.388 162.93,-67.987 162.79,-67.585 162.64,-67.269 162.48,-66.965 162.3,-66.669 L160.91,-67.406 M162.79,-67.585 C162.67,-67.005 162.69,-66.466 162.84,-66.043 M163.41,-68.846 C163.05,-68.19 162.86,-67.473 162.88,-66.851 162.9,-66.229 163.13,-65.754 163.52,-65.53 163.8,-65.379 164.06,-65.26 164.39,-65.267 164.7,-65.274 165.04,-65.377 165.34,-65.558 165.87,-65.873 166.33,-66.362 166.67,-66.984 167.01,-67.604 167.19,-68.285 167.17,-68.883 167.16,-69.214 167.08,-69.54 166.93,-69.833 166.77,-70.133 166.52,-70.317 166.23,-70.473 165.42,-70.94 164.16,-70.211 163.41,-68.846 Z M164.33,-70.217 C163.89,-69.852 163.51,-69.354 163.22,-68.791 M165.87,-71.26 C165.67,-71.076 165.47,-70.904 165.25,-70.749 164.63,-70.39 164.1,-70.089 163.43,-69.853 162.97,-70.1 162.51,-70.344 162.05,-70.591 M162.3,-66.669 C162.48,-66.464 162.66,-66.257 162.84,-66.043 L163.33,-65.37 C163.43,-65.215 163.52,-65.056 163.6,-64.891 M163.33,-65.37 C163.64,-65.154 164.05,-65.114 164.49,-65.254 M166.41,-70.634 C166.1,-70.849 165.69,-70.889 165.25,-70.749 M166.9,-69.961 C166.91,-69.934 166.92,-69.907 166.93,-69.88 166.94,-69.853 166.95,-69.825 166.95,-69.798 166.96,-69.788 166.96,-69.77 166.96,-69.77 M164.07,-67.858 C164.07,-67.858 164.08,-67.869 164.09,-67.875 164.1,-67.898 164.12,-67.922 164.14,-67.946 164.16,-67.97 164.17,-67.995 164.19,-68.019 164.24,-68.093 164.29,-68.17 164.33,-68.249 164.37,-68.328 164.41,-68.409 164.45,-68.491 164.47,-68.545 164.49,-68.601 164.51,-68.656 164.52,-68.683 164.53,-68.711 164.54,-68.739 164.54,-68.741 164.54,-68.745 164.54,-68.745 M146.22,-85.488 C145.3,-86.52 143.79,-86.593 142.21,-85.681 141.94,-85.798 141.69,-85.796 141.51,-85.675 M142.21,-85.681 L142.28,-83.492 M119.24,-94.548 C118.67,-94.874 117.79,-94.364 117.26,-93.409 116.74,-92.453 116.77,-91.414 117.34,-91.088 117.9,-90.761 118.79,-91.271 119.31,-92.227 119.84,-93.183 119.8,-94.222 119.24,-94.548 Z M116.21,-94.014 C115.15,-92.08 115.22,-89.977 116.37,-89.316 117.51,-88.656 119.3,-89.688 120.36,-91.622 121.42,-93.556 121.35,-95.659 120.21,-96.319 119.06,-96.98 117.27,-95.947 116.21,-94.014 Z M55.031,-118.67 C57.018,-117.52 60.121,-119.31 61.961,-122.67 63.801,-126.02 63.681,-129.67 61.693,-130.82 59.706,-131.96 56.603,-130.17 54.763,-126.82 52.923,-123.46 53.043,-119.81 55.031,-118.67 Z M61.389,-127.76 C61.035,-127.95 60.682,-128.14 60.327,-128.33 59.155,-129 57.324,-127.94 56.239,-125.97 55.154,-123.99 55.225,-121.83 56.397,-121.16 56.752,-120.97 57.105,-120.78 57.459,-120.59 M60.396,-125.95 C59.816,-126.28 58.912,-125.76 58.375,-124.78 57.839,-123.8 57.874,-122.74 58.453,-122.4 59.033,-122.07 59.937,-122.59 60.474,-123.57 61.01,-124.55 60.975,-125.61 60.396,-125.95 Z M50.736,-139.32 C49.705,-138.73 48.68,-138.13 47.648,-137.54 47.369,-138.26 46.924,-138.8 46.349,-139.13 45.079,-139.84 43.305,-139.4 41.652,-137.97 39.998,-136.54 38.698,-134.32 38.209,-132.09 37.178,-131.49 36.152,-130.9 35.121,-130.31 M44.674,-131.96 C45.087,-132.71 45.306,-133.54 45.283,-134.25 45.259,-134.97 44.995,-135.52 44.549,-135.77 44.102,-136.03 43.51,-135.98 42.902,-135.63 42.294,-135.28 41.72,-134.65 41.307,-133.9 40.894,-133.15 40.674,-132.32 40.698,-131.61 40.721,-130.89 40.986,-130.35 41.432,-130.09 41.879,-129.83 42.471,-129.88 43.079,-130.23 43.687,-130.59 44.261,-131.21 44.674,-131.96 Z M32.256,-129.9 C32.256,-129.9 32.234,-129.91 32.222,-129.92 32.196,-129.93 32.169,-129.94 32.142,-129.95 32.089,-129.96 32.037,-129.97 31.988,-129.97 31.889,-129.98 31.8,-129.96 31.726,-129.91 31.576,-129.81 31.497,-129.6 31.505,-129.35 31.514,-129.09 31.609,-128.79 31.771,-128.52 31.933,-128.26 32.147,-128.04 32.367,-127.93 32.588,-127.81 32.795,-127.8 32.945,-127.9 33.019,-127.95 33.077,-128.02 33.114,-128.12 33.124,-128.15 33.132,-128.17 33.139,-128.2 33.146,-128.22 33.151,-128.25 33.156,-128.28 33.158,-128.3 33.161,-128.33 33.161,-128.33 M38.209,-132.09 L32.101,-135.34 M35.326,-124.05 L35.121,-130.31 29.012,-133.56"/>
      <path stroke="#000" d="M32.131,-129.98 C31.581,-130.27 31.152,-129.99 31.173,-129.34 31.194,-128.69 31.658,-127.93 32.208,-127.63 32.758,-127.34 33.186,-127.63 33.165,-128.28 33.144,-128.92 32.681,-129.69 32.131,-129.98 Z M27.825,-143.14 C27.566,-143.29 27.223,-143.26 26.87,-143.05 26.518,-142.85 26.185,-142.49 25.946,-142.05 25.706,-141.62 25.579,-141.14 25.593,-140.72 25.606,-140.31 25.759,-139.99 26.018,-139.84 26.277,-139.69 26.621,-139.72 26.973,-139.93 27.326,-140.13 27.658,-140.49 27.898,-140.93 28.137,-141.36 28.264,-141.84 28.251,-142.26 28.237,-142.67 28.084,-142.99 27.825,-143.14 Z M28.126,-145.21 C28.126,-145.21 28.103,-145.25 28.09,-145.27 28.067,-145.31 28.042,-145.34 28.016,-145.38 27.965,-145.44 27.909,-145.51 27.849,-145.56 27.76,-145.65 27.663,-145.72 27.559,-145.78 26.386,-146.46 24.556,-145.4 23.471,-143.42 22.386,-141.44 22.456,-139.29 23.629,-138.61 23.768,-138.53 23.919,-138.48 24.081,-138.44 24.161,-138.43 24.245,-138.42 24.33,-138.41 24.373,-138.41 24.416,-138.41 24.459,-138.41 24.474,-138.41 24.504,-138.41 24.504,-138.41 M28.442,-145.05 C28.109,-145.22 27.779,-145.4 27.446,-145.58 26.915,-145.88 26.211,-145.82 25.489,-145.4 24.766,-144.99 24.084,-144.25 23.593,-143.35 22.57,-141.49 22.637,-139.46 23.742,-138.82 24.074,-138.64 24.405,-138.47 24.738,-138.29 M24.738,-138.29 C25.268,-137.98 25.972,-138.05 26.695,-138.46 27.418,-138.88 28.099,-139.62 28.591,-140.51 29.613,-142.38 29.547,-144.41 28.442,-145.05 27.337,-145.68 25.612,-144.69 24.589,-142.82 24.098,-141.93 23.837,-140.94 23.865,-140.09 23.893,-139.24 24.207,-138.6 24.738,-138.29 Z M28.134,-144.3 C27.567,-144.69 26.724,-144.5 25.95,-143.8 25.176,-143.1 24.602,-142.01 24.461,-140.98 24.321,-139.96 24.639,-139.16 25.284,-138.91 26.197,-138.43 27.575,-139.24 28.362,-140.72 29.149,-142.21 29.047,-143.81 28.134,-144.3 Z M5.2995,-146.72 C5.8543,-147.04 6.4059,-147.36 6.9607,-147.68 7.8145,-148.26 7.7589,-149.95 6.8364,-151.47 5.914,-152.99 4.474,-153.75 3.6202,-153.18 3.0654,-152.86 2.5139,-152.54 1.959,-152.22 M13.641,-147.09 C13.662,-146.44 14.019,-146.06 14.539,-146.12 15.06,-146.19 15.636,-146.68 15.989,-147.38 16.342,-148.07 16.4,-148.81 16.134,-149.25 15.868,-149.68 15.333,-149.72 14.789,-149.34 14.111,-148.87 13.615,-147.89 13.641,-147.09 Z M13.644,-147.27 C13.644,-147.27 13.647,-147.21 13.651,-147.18 13.656,-147.14 13.662,-147.1 13.671,-147.06 13.689,-146.99 13.713,-146.92 13.744,-146.85 13.806,-146.72 13.894,-146.63 14.003,-146.56 14.461,-146.3 15.176,-146.71 15.6,-147.49 16.024,-148.26 15.997,-149.1 15.539,-149.36 15.43,-149.43 15.302,-149.45 15.163,-149.44 15.093,-149.43 15.022,-149.42 14.948,-149.39 14.911,-149.38 14.874,-149.37 14.838,-149.35 14.801,-149.33 14.731,-149.29 14.731,-149.29 M4.05,-154.93 L12.516,-150.42 17.167,-153.11 M8.7014,-157.62 C7.1478,-156.72 5.6036,-155.83 4.05,-154.93 3.8462,-154.89 3.6563,-154.81 3.4825,-154.71 3.1342,-154.5 2.8558,-154.18 2.662,-153.77 2.5653,-153.56 2.4904,-153.33 2.4381,-153.08 2.4204,-153 2.4056,-152.91 2.3935,-152.83 2.381,-152.74 2.3713,-152.65 2.3643,-152.56 2.3615,-152.53 2.3589,-152.45 2.3589,-152.45 M12.516,-150.42 L12.772,-142.61 M93.805,-107.94 C93.805,-107.94 93.802,-107.94 93.8,-107.94 93.775,-107.97 93.747,-108 93.718,-108.02 93.69,-108.04 93.659,-108.07 93.627,-108.08 93.368,-108.23 93.025,-108.2 92.672,-108 92.32,-107.8 91.987,-107.44 91.748,-107 91.508,-106.56 91.381,-106.08 91.395,-105.67 91.408,-105.25 91.561,-104.94 91.82,-104.79 91.852,-104.77 91.886,-104.75 91.92,-104.74 91.955,-104.73 91.991,-104.72 92.028,-104.71 92.045,-104.71 92.079,-104.7 92.079,-104.7 M99.082,-105.12 C98.83,-105.27 98.495,-105.24 98.151,-105.04 97.808,-104.84 97.483,-104.49 97.25,-104.07 97.016,-103.64 96.892,-103.17 96.906,-102.77 96.919,-102.37 97.068,-102.06 97.321,-101.91 97.606,-101.75 97.994,-101.81 98.378,-102.07 99.098,-102.57 99.522,-103.33 99.497,-104.08 99.479,-104.64 99.162,-104.97 98.707,-104.9 98.251,-104.83 97.755,-104.38 97.467,-103.77 97.178,-103.16 97.16,-102.53 97.421,-102.19 97.682,-101.85 98.166,-101.87 98.631,-102.25"/>
    </g>
    <g id="AUTOID_111" vm2d:name="" vm2d:type="grnode">
      <g transform="matrix(3.78235,0,0,3.78235,-0,839.841)">
        <path fill="#fff" d="M84,-183.5 L90,-183.5 90,-177.5 84,-177.5 84,-183.5 84,-183.5 Z"/>
        <path fill="#000" d="M84.2,-183.3 L89.8,-183.3 89.8,-177.7 84.2,-177.7 84.2,-183.3 84.2,-183.3 Z"/>
        <path fill="#fff" d="M84.4,-183.1 L89.599,-183.1 89.599,-177.9 84.4,-177.9 84.4,-183.1 84.4,-183.1 Z"/>
        <path fill="#000" d="M87.458,-180.13 L87.458,-180.13 86.971,-181.44 86.495,-180.13 86.275,-179.53 85.982,-178.73 85.226,-178.73 86.602,-182.27 87.357,-182.27 88.774,-178.73 88.774,-178.73 87.996,-178.73 87.687,-179.53 86.275,-179.53 86.495,-180.13 87.458,-180.13 87.458,-180.13 Z"/>
      </g>
    </g>
  </g>
  <g id="C3DA0001" vm2d:name="Axials" vm2d:type="layer">
    <g id="WRAP_001" vm2d:name="" vm2d:type="grnode">
      <g transform="matrix(3.78235,0,0,3.78235,-0,839.841)" stroke-width="0.55" stroke-linecap="round" stroke-linejoin="round" stroke-miterlimit="10">
        <path stroke="#fff" d="M22.748,-143.71 L14.33,-148.2"/>
        <path stroke="#000" stroke-width="0.15" stroke-dasharray="6.35,0.635,1.27,0.635" d="M23.101,-143.53 L13.977,-148.39"/>
      </g>
    </g>
    <g id="WRAP_002" vm2d:name="" vm2d:type="grnode">
      <g transform="matrix(3.78235,0,0,3.78235,-0,839.841)" stroke-width="0.55" stroke-linecap="round" stroke-linejoin="round" stroke-miterlimit="10">
        <path stroke="#fff" d="M32.804,-138.36 L26.282,-141.83"/>
        <path stroke="#000" stroke-width="0.15" stroke-dasharray="6.35,0.635,1.27,0.635" d="M33.157,-138.17 L25.929,-142.02"/>
      </g>
    </g>
    <g id="WRAP_003" vm2d:name="" vm2d:type="grnode">
      <g transform="matrix(3.78235,0,0,3.78235,-0,839.841)" stroke-width="0.55" stroke-linecap="round" stroke-linejoin="round" stroke-miterlimit="10">
        <path stroke="#fff" d="M50.984,-128.67 L41.63,-133.66"/>
        <path stroke="#000" stroke-width="0.15" stroke-dasharray="6.35,0.635,1.27,0.635" d="M51.337,-128.48 L41.277,-133.84"/>
      </g>
    </g>
    <g id="WRAP_004" vm2d:name="" vm2d:type="grnode">
      <g transform="matrix(3.78235,0,0,3.78235,-0,839.841)" stroke-width="0.55" stroke-linecap="round" stroke-linejoin="round" stroke-miterlimit="10">
        <path stroke="#fff" d="M68.188,-119.51 L58.71,-124.56"/>
        <path stroke="#000" stroke-width="0.15" stroke-dasharray="6.35,0.635,1.27,0.635" d="M68.541,-119.32 L58.357,-124.74"/>
      </g>
    </g>
    <g id="WRAP_005" vm2d:name="" vm2d:type="grnode">
      <g transform="matrix(3.78235,0,0,3.78235,-0,839.841)" stroke-width="0.55" stroke-linecap="round" stroke-linejoin="round" stroke-miterlimit="10">
        <path stroke="#fff" d="M105.86,-99.437 L98.721,-103.24"/>
        <path stroke="#000" stroke-width="0.15" stroke-dasharray="6.35,0.635,1.27,0.635" d="M106.22,-99.249 L98.368,-103.43"/>
      </g>
    </g>
    <g id="WRAP_006" vm2d:name="" vm2d:type="grnode">
      <g transform="matrix(3.78235,0,0,3.78235,-0,839.841)" stroke-width="0.55" stroke-linecap="round" stroke-linejoin="round" stroke-miterlimit="10">
        <path stroke="#fff" d="M117.6,-93.185 L125.08,-89.197"/>
        <path stroke="#000" stroke-width="0.15" stroke-dasharray="6.35,0.635,1.27,0.635" d="M117.24,-93.373 L125.44,-89.009"/>
      </g>
    </g>
    <g id="WRAP_007" vm2d:name="" vm2d:type="grnode">
      <g transform="matrix(3.78235,0,0,3.78235,-0,839.841)" stroke-width="0.55" stroke-linecap="round" stroke-linejoin="round" stroke-miterlimit="10">
        <path stroke="#fff" d="M128.13,-87.575 L128.87,-87.18"/>
        <path stroke="#000" stroke-width="0.15" stroke-dasharray="6.35,0.635,1.27,0.635" d="M127.78,-87.763 L129.22,-86.992"/>
      </g>
    </g>
    <g id="WRAP_008" vm2d:name="" vm2d:type="grnode">
      <g transform="matrix(3.78235,0,0,3.78235,-0,839.841)" stroke-width="0.55" stroke-linecap="round" stroke-linejoin="round" stroke-miterlimit="10">
        <path stroke="#fff" d="M131.92,-85.557 L132.66,-85.162"/>
        <path stroke="#000" stroke-width="0.15" stroke-dasharray="6.35,0.635,1.27,0.635" d="M131.56,-85.745 L133.01,-84.974"/>
      </g>
    </g>
    <g id="WRAP_009" vm2d:name="" vm2d:type="grnode">
      <g transform="matrix(3.78235,0,0,3.78235,-0,839.841)" stroke-width="0.55" stroke-linecap="round" stroke-linejoin="round" stroke-miterlimit="10">
        <path stroke="#fff" d="M135.7,-83.54 L136.25,-83.251"/>
        <path stroke="#000" stroke-width="0.15" stroke-dasharray="6.35,0.635,1.27,0.635" d="M135.35,-83.728 L136.6,-83.063"/>
      </g>
    </g>
    <g id="WRAP_010" vm2d:name="" vm2d:type="grnode">
      <g transform="matrix(3.78235,0,0,3.78235,-0,839.841)" stroke-width="0.55" stroke-linecap="round" stroke-linejoin="round" stroke-miterlimit="10">
        <path stroke="#fff" d="M139.28,-81.636 L148.28,-76.843"/>
        <path stroke="#000" stroke-width="0.15" stroke-dasharray="6.35,0.635,1.27,0.635" d="M138.92,-81.824 L148.63,-76.655"/>
      </g>
    </g>
    <g id="WRAP_011" vm2d:name="" vm2d:type="grnode">
      <g transform="matrix(3.78235,0,0,3.78235,-0,839.841)" stroke-width="0.55" stroke-linecap="round" stroke-linejoin="round" stroke-miterlimit="10">
        <path stroke="#fff" d="M152.55,-74.566 L152.8,-74.431 152.8,-74.431 161.24,-69.936"/>
        <path stroke="#000" stroke-width="0.15" stroke-dasharray="6.35,0.635,1.27,0.635" d="M152.2,-74.754 L152.8,-74.431 152.8,-74.431 161.59,-69.748"/>
      </g>
    </g>
    <g transform="matrix(3.78235,0,0,3.78235,-0,839.841)" stroke-width="0.18" stroke-linecap="round" stroke-linejoin="round" stroke-miterlimit="10">
      <path stroke="#000" stroke-dasharray="6.35,0.635,1.27,0.635" d="M164.28,-68.319 L164.29,-68.311"/>
    </g>
  </g>
  <g id="C3DC0001" vm2d:name="Callouts" vm2d:type="layer">
    <g>
      <g transform="matrix(3.78235,0,0,3.78235,-0,839.841)" stroke-width="0.85" stroke-linecap="round" stroke-linejoin="miter" stroke-miterlimit="10">
        <path stroke="#fff" d="M51.69,-159.84 L29.134,-146.86"/>
        <path stroke="#fff" stroke-width="0.7" stroke-linecap="butt" stroke-linejoin="round" d="M29.604,-146.86 C29.604,-146.6 29.394,-146.39 29.134,-146.39 28.875,-146.39 28.664,-146.6 28.664,-146.86 28.664,-147.12 28.875,-147.33 29.134,-147.33 29.394,-147.33 29.604,-147.12 29.604,-146.86 Z"/>
        <path stroke="#000" stroke-width="0.15" d="M51.69,-159.84 L29.134,-146.86"/>
        <path fill="#000" d="M29.604,-146.86 C29.604,-146.6 29.394,-146.39 29.134,-146.39 28.875,-146.39 28.664,-146.6 28.664,-146.86 28.664,-147.12 28.875,-147.33 29.134,-147.33 29.394,-147.33 29.604,-147.12 29.604,-146.86 Z"/>
        <text font-family="Arial" font-size="3.93" x="52.2968" y="-160.498" fill="#000">10</text>
      </g>
    </g>
    <a id="c03440ca9f794854652d7a1d79f1b1b2" vm2d:name="10" vm2d:type="grobject" xlink:href="#">
      <path d="M195.51,220.01 L216.62,220.01 216.62,235.26 195.51,235.26 Z" fill="#fff" fill-opacity="0"/>
    </a>
    <g>
      <g transform="matrix(3.78235,0,0,3.78235,-0,839.841)" stroke-width="0.85" stroke-linecap="round" stroke-linejoin="miter" stroke-miterlimit="10">
        <path stroke="#fff" d="M64.952,-152.5 L46.591,-142.01"/>
        <path stroke="#fff" stroke-width="0.7" stroke-linecap="butt" stroke-linejoin="round" d="M47.061,-142.01 C47.061,-141.75 46.85,-141.54 46.591,-141.54 46.331,-141.54 46.121,-141.75 46.121,-142.01 46.121,-142.27 46.331,-142.48 46.591,-142.48 46.85,-142.48 47.061,-142.27 47.061,-142.01 Z"/>
        <path stroke="#000" stroke-width="0.15" d="M64.952,-152.5 L46.591,-142.01"/>
        <path fill="#000" d="M47.061,-142.01 C47.061,-141.75 46.85,-141.54 46.591,-141.54 46.331,-141.54 46.121,-141.75 46.121,-142.01 46.121,-142.27 46.331,-142.48 46.591,-142.48 46.85,-142.48 47.061,-142.27 47.061,-142.01 Z"/>
        <text font-family="Arial" font-size="3.93" x="65.5589" y="-153.155" fill="#000">15</text>
      </g>
    </g>
    <a id="_3927d4e4824e32cfccee633339923997" vm2d:name="15" vm2d:type="grobject" xlink:href="#">
      <path d="M245.67,247.78 L266.78,247.78 266.78,263.03 245.67,263.03 Z" fill="#fff" fill-opacity="0"/>
    </a>
    <g>
      <g transform="matrix(3.78235,0,0,3.78235,-0,839.841)" stroke-width="0.85" stroke-linecap="round" stroke-linejoin="miter" stroke-miterlimit="10">
        <path stroke="#fff" d="M82.272,-142.5 L63.05,-131.1"/>
        <path stroke="#fff" stroke-width="0.7" stroke-linecap="butt" stroke-linejoin="round" d="M63.52,-131.1 C63.52,-130.84 63.31,-130.63 63.05,-130.63 62.79,-130.63 62.58,-130.84 62.58,-131.1 62.58,-131.36 62.79,-131.57 63.05,-131.57 63.31,-131.57 63.52,-131.36 63.52,-131.1 Z"/>
        <path stroke="#000" stroke-width="0.15" d="M82.272,-142.5 L63.05,-131.1"/>
        <path fill="#000" d="M63.52,-131.1 C63.52,-130.84 63.31,-130.63 63.05,-130.63 62.79,-130.63 62.58,-130.84 62.58,-131.1 62.58,-131.36 62.79,-131.57 63.05,-131.57 63.31,-131.57 63.52,-131.36 63.52,-131.1 Z"/>
        <text font-family="Arial" font-size="3.93" x="82.8794" y="-143.155" fill="#000">20</text>
      </g>
    </g>
    <a id="f7af9d498890de4d8899e26ad6954f4d" vm2d:name="20" vm2d:type="grobject" xlink:href="#">
      <path d="M311.18,285.6 L332.29,285.6 332.29,300.86 311.18,300.86 Z" fill="#fff" fill-opacity="0"/>
    </a>
    <g>
      <g transform="matrix(3.78235,0,0,3.78235,-0,839.841)" stroke-width="0.85" stroke-linecap="round" stroke-linejoin="miter" stroke-miterlimit="10">
        <path stroke="#fff" d="M134.23,-112.5 L114.04,-100.97"/>
        <path stroke="#fff" stroke-width="0.7" stroke-linecap="butt" stroke-linejoin="round" d="M114.51,-100.97 C114.51,-100.71 114.3,-100.5 114.04,-100.5 113.78,-100.5 113.57,-100.71 113.57,-100.97 113.57,-101.23 113.78,-101.44 114.04,-101.44 114.3,-101.44 114.51,-101.23 114.51,-100.97 Z"/>
        <path stroke="#000" stroke-width="0.15" d="M134.23,-112.5 L114.04,-100.97"/>
        <path fill="#000" d="M114.51,-100.97 C114.51,-100.71 114.3,-100.5 114.04,-100.5 113.78,-100.5 113.57,-100.71 113.57,-100.97 113.57,-101.23 113.78,-101.44 114.04,-101.44 114.3,-101.44 114.51,-101.23 114.51,-100.97 Z"/>
        <text font-family="Arial" font-size="3.93" x="134.841" y="-113.155" fill="#000">25</text>
      </g>
    </g>
    <a id="b51aad1edd3a5178e280c137d16d0420" vm2d:name="25" vm2d:type="grobject" xlink:href="#">
      <path d="M507.72,399.07 L528.83,399.07 528.83,414.33 507.72,414.33 Z" fill="#fff" fill-opacity="0"/>
    </a>
    <g>
      <g transform="matrix(3.78235,0,0,3.78235,-0,839.841)" stroke-width="0.85" stroke-linecap="round" stroke-linejoin="miter" stroke-miterlimit="10">
        <path stroke="#fff" d="M109.13,-66.995 L128.57,-78.526"/>
        <path stroke="#fff" stroke-width="0.7" stroke-linecap="butt" stroke-linejoin="round" d="M129.04,-78.526 C129.04,-78.267 128.83,-78.056 128.57,-78.056 128.31,-78.056 128.1,-78.267 128.1,-78.526 128.1,-78.786 128.31,-78.996 128.57,-78.996 128.83,-78.996 129.04,-78.786 129.04,-78.526 Z"/>
        <path stroke="#000" stroke-width="0.15" d="M109.13,-66.995 L128.57,-78.526"/>
        <path fill="#000" d="M129.04,-78.526 C129.04,-78.267 128.83,-78.056 128.57,-78.056 128.31,-78.056 128.1,-78.267 128.1,-78.526 128.1,-78.786 128.31,-78.996 128.57,-78.996 128.83,-78.996 129.04,-78.786 129.04,-78.526 Z"/>
        <text font-family="Arial" font-size="3.93" x="104.154" y="-63.6178" fill="#000">30</text>
      </g>
    </g>
    <a id="_14059cd70fdf07316e074b38a989835b" vm2d:name="30" vm2d:type="grobject" xlink:href="#">
      <path d="M391.65,586.44 L412.76,586.44 412.76,601.69 391.65,601.69 Z" fill="#fff" fill-opacity="0"/>
    </a>
    <g>
      <g transform="matrix(3.78235,0,0,3.78235,-0,839.841)" stroke-width="0.85" stroke-linecap="round" stroke-linejoin="miter" stroke-miterlimit="10">
        <path stroke="#fff" d="M127.64,-56.622 L147.41,-67.742"/>
        <path stroke="#fff" stroke-width="0.7" stroke-linecap="butt" stroke-linejoin="round" d="M147.88,-67.742 C147.88,-67.482 147.67,-67.272 147.41,-67.272 147.15,-67.272 146.94,-67.482 146.94,-67.742 146.94,-68.001 147.15,-68.212 147.41,-68.212 147.67,-68.212 147.88,-68.001 147.88,-67.742 Z"/>
        <path stroke="#000" stroke-width="0.15" d="M127.64,-56.622 L147.41,-67.742"/>
        <path fill="#000" d="M147.88,-67.742 C147.88,-67.482 147.67,-67.272 147.41,-67.272 147.15,-67.272 146.94,-67.482 146.94,-67.742 146.94,-68.001 147.15,-68.212 147.41,-68.212 147.67,-68.212 147.88,-68.001 147.88,-67.742 Z"/>
        <text font-family="Arial" font-size="3.93" x="122.664" y="-53.245" fill="#000">35</text>
      </g>
    </g>
    <a id="b8a9377933a6d8a9dc55b78eb4863307" vm2d:name="35" vm2d:type="grobject" xlink:href="#">
      <path d="M461.66,625.68 L482.77,625.68 482.77,640.93 461.66,640.93 Z" fill="#fff" fill-opacity="0"/>
    </a>
    <g>
      <g transform="matrix(3.78235,0,0,3.78235,-0,839.841)" stroke-width="0.85" stroke-linecap="round" stroke-linejoin="miter" stroke-miterlimit="10">
        <path stroke="#fff" d="M136.98,-50.913 L161.25,-64.801"/>
        <path stroke="#fff" stroke-width="0.7" stroke-linecap="butt" stroke-linejoin="round" d="M161.72,-64.801 C161.72,-64.541 161.5,-64.331 161.25,-64.331 160.99,-64.331 160.78,-64.541 160.78,-64.801 160.78,-65.06 160.99,-65.271 161.25,-65.271 161.5,-65.271 161.72,-65.06 161.72,-64.801 Z"/>
        <path stroke="#000" stroke-width="0.15" d="M136.98,-50.913 L161.25,-64.801"/>
        <path fill="#000" d="M161.72,-64.801 C161.72,-64.541 161.5,-64.331 161.25,-64.331 160.99,-64.331 160.78,-64.541 160.78,-64.801 160.78,-65.06 160.99,-65.271 161.25,-65.271 161.5,-65.271 161.72,-65.06 161.72,-64.801 Z"/>
        <text font-family="Arial" font-size="3.93" x="132.009" y="-47.5358" fill="#000">40</text>
      </g>
    </g>
    <a id="a136da5e7545473b7e2b95b0f68e2768" vm2d:name="40" vm2d:type="grobject" xlink:href="#">
      <path d="M497.01,647.27 L518.12,647.27 518.12,662.52 497.01,662.52 Z" fill="#fff" fill-opacity="0"/>
    </a>
    <g>
      <g transform="matrix(3.78235,0,0,3.78235,-0,839.841)" stroke-width="0.85" stroke-linecap="round" stroke-linejoin="miter" stroke-miterlimit="10">
        <path stroke="#fff" d="M103.92,-130 L80.534,-116.83"/>
        <path stroke="#fff" stroke-width="0.7" stroke-linecap="butt" stroke-linejoin="round" d="M81.004,-116.83 C81.004,-116.57 80.793,-116.36 80.534,-116.36 80.274,-116.36 80.064,-116.57 80.064,-116.83 80.064,-117.09 80.274,-117.3 80.534,-117.3 80.793,-117.3 81.004,-117.09 81.004,-116.83 Z"/>
        <path stroke="#000" stroke-width="0.15" d="M103.92,-130 L80.534,-116.83"/>
        <path fill="#000" d="M81.004,-116.83 C81.004,-116.57 80.793,-116.36 80.534,-116.36 80.274,-116.36 80.064,-116.57 80.064,-116.83 80.064,-117.09 80.274,-117.3 80.534,-117.3 80.793,-117.3 81.004,-117.09 81.004,-116.83 Z"/>
        <text font-family="Arial" font-size="3.93" x="104.53" y="-130.655" fill="#000">45</text>
      </g>
    </g>
    <a id="_8aa8b9da8968d703fa92f74e3e2dc109" vm2d:name="45" vm2d:type="grobject" xlink:href="#">
      <path d="M393.07,332.88 L414.18,332.88 414.18,348.14 393.07,348.14 Z" fill="#fff" fill-opacity="0"/>
    </a>
    <g>
      <g transform="matrix(3.78235,0,0,3.78235,-0,839.841)" stroke-width="0.85" stroke-linecap="round" stroke-linejoin="miter" stroke-miterlimit="10">
        <path stroke="#fff" d="M38.971,-167.5 L17.415,-155.23"/>
        <path stroke="#fff" stroke-width="0.7" stroke-linecap="butt" stroke-linejoin="round" d="M17.885,-155.23 C17.885,-154.97 17.674,-154.76 17.415,-154.76 17.155,-154.76 16.945,-154.97 16.945,-155.23 16.945,-155.49 17.155,-155.7 17.415,-155.7 17.674,-155.7 17.885,-155.49 17.885,-155.23 Z"/>
        <path stroke="#000" stroke-width="0.15" d="M38.971,-167.5 L17.415,-155.23"/>
        <path fill="#000" d="M17.885,-155.23 C17.885,-154.97 17.674,-154.76 17.415,-154.76 17.155,-154.76 16.945,-154.97 16.945,-155.23 16.945,-155.49 17.155,-155.7 17.415,-155.7 17.674,-155.7 17.885,-155.49 17.885,-155.23 Z"/>
        <text font-family="Arial" font-size="3.93" x="39.5781" y="-168.155" fill="#000">5</text>
      </g>
    </g>
    <a id="cee9e0ed2ee69cedce3729e495c55bef" vm2d:name="5" vm2d:type="grobject" xlink:href="#">
      <path d="M147.4,191.04 L160.25,191.04 160.25,206.3 147.4,206.3 Z" fill="#fff" fill-opacity="0"/>
    </a>
  </g>
  <g id="C3DP0001" vm2d:name="Panels" vm2d:type="layer"/>
</svg>
